<?xml version="1.0" encoding="UTF-8"?>
<svg id="Layer_1" data-name="Layer 1" xmlns="http://www.w3.org/2000/svg" viewBox="0 0 24 24">
  <defs>
    <style>
      .cls-1 {
        fill: #000;
      }

      .cls-1, .cls-2, .cls-3, .cls-4, .cls-5 {
        stroke-width: 0px;
      }

      .cls-2 {
        fill: none;
      }

      .cls-3 {
        fill: #c7312a;
      }

      .cls-4 {
        fill: #009840;
      }

      .cls-5 {
        fill: #fff;
      }
    </style>
  </defs>
  <rect class="cls-2" width="24" height="24"/>
  <g>
    <path class="cls-1" d="M16.71,7.34c2.92,2.92,3.18,7.42.57,10.03-2.61,2.61-7.11,2.35-10.03-.57-2.92-2.92-3.18-7.42-.57-10.03,2.61-2.61,7.11-2.36,10.03.57Z"/>
    <g>
      <g>
        <path class="cls-4" d="M18.29,18.43c-1.62,1.59-3.84,2.57-6.29,2.57s-4.67-.98-6.29-2.57h12.58Z"/>
        <path class="cls-4" d="M20.91,13.28c-.13.91-.4,1.77-.78,2.57H3.87c-.38-.8-.65-1.66-.78-2.57h17.81Z"/>
        <path class="cls-5" d="M20.13,15.86c-.46.96-1.08,1.83-1.84,2.57H5.71c-.76-.74-1.38-1.61-1.84-2.57h16.26Z"/>
        <path class="cls-5" d="M21,12c0,.44-.03.87-.09,1.28H3.09c-.06-.42-.09-.85-.09-1.28s.03-.87.09-1.29h17.81c.06.42.09.85.09,1.29Z"/>
        <path class="cls-4" d="M20.91,10.71H3.09c.13-.91.4-1.77.78-2.57h16.26c.38.8.65,1.66.78,2.57Z"/>
        <path class="cls-4" d="M18.29,5.57H5.71c1.62-1.59,3.84-2.57,6.29-2.57,1.68,0,3.26.46,4.61,1.27.61.37,1.17.8,1.68,1.3Z"/>
        <path class="cls-5" d="M20.13,8.14H3.87c.46-.97,1.08-1.83,1.84-2.57h12.58c.76.74,1.38,1.61,1.84,2.57Z"/>
      </g>
      <g>
        <path class="cls-3" d="M16.61,4.27v6.44H3.09c.13-.91.4-1.77.78-2.57.46-.97,1.08-1.83,1.84-2.57,1.62-1.59,3.84-2.57,6.29-2.57,1.68,0,3.26.46,4.61,1.27Z"/>
        <g>
          <path class="cls-5" d="M9.18,9.97h1.1s.07-.37.2-.5c.13-.13.61-.65.66-.86.05-.2.19-.62.3-.75.25-.29.23-.35.2-.44-.02-.08-.21-.08-.4.1-.18.18-.22.44-.4.55l-.17.11s-.18-.48-.24-.82c-.06-.33.01-1.35-.08-1.52-.09-.16-.3-.28-.3.21s-.06,1.09-.06,1.09c0-.18,0-.36,0-.54,0-.3,0-.6-.06-.89-.01-.07-.05-.18-.14-.2-.12-.02-.15.15-.17.22-.04.16-.05.33-.06.49-.02.28-.01.57-.01.85,0,.43-.07-1.21-.07-1.21,0,0-.04-.39-.26-.17-.22.22-.03,1.49-.07,1.49s0-1.23-.32-1.06c-.21.11-.12,1.37-.12,1.92s.24,1.17.27,1.32c.07.31.16.6.16.6Z"/>
          <g>
            <polygon class="cls-5" points="9.8 3.75 9.94 4.16 10.37 4.16 10.02 4.42 10.16 4.84 9.8 4.58 9.45 4.84 9.59 4.42 9.23 4.16 9.67 4.16 9.8 3.75"/>
            <polygon class="cls-5" points="5.06 7.25 5.2 7.66 5.64 7.66 5.28 7.92 5.42 8.33 5.06 8.08 4.71 8.33 4.85 7.92 4.49 7.66 4.93 7.66 5.06 7.25"/>
            <polygon class="cls-5" points="14.54 7.25 14.68 7.66 15.12 7.66 14.76 7.92 14.9 8.33 14.54 8.08 14.19 8.33 14.33 7.92 13.97 7.66 14.41 7.66 14.54 7.25"/>
            <polygon class="cls-5" points="6.09 5.45 6.22 5.86 6.66 5.86 6.3 6.12 6.44 6.53 6.09 6.28 5.74 6.53 5.87 6.12 5.52 5.86 5.95 5.86 6.09 5.45"/>
            <polygon class="cls-5" points="13.52 5.45 13.66 5.86 14.09 5.86 13.74 6.12 13.87 6.53 13.52 6.28 13.17 6.53 13.3 6.12 12.95 5.86 13.39 5.86 13.52 5.45"/>
            <polygon class="cls-5" points="7.81 4.19 7.94 4.61 8.38 4.61 8.03 4.87 8.16 5.28 7.81 5.02 7.46 5.28 7.59 4.87 7.24 4.61 7.68 4.61 7.81 4.19"/>
            <polygon class="cls-5" points="11.8 4.19 11.93 4.61 12.37 4.61 12.02 4.87 12.15 5.28 11.8 5.02 11.45 5.28 11.58 4.87 11.23 4.61 11.66 4.61 11.8 4.19"/>
          </g>
        </g>
      </g>
    </g>
  </g>
</svg>