<?xml version="1.0" encoding="UTF-8"?>
<svg id="Layer_1" data-name="Layer 1" xmlns="http://www.w3.org/2000/svg" viewBox="0 0 24 24">
  <defs>
    <style>
      .cls-1 {
        fill: #000;
      }

      .cls-1, .cls-2, .cls-3, .cls-4, .cls-5 {
        stroke-width: 0px;
      }

      .cls-2 {
        fill: none;
      }

      .cls-3 {
        fill: #d22011;
      }

      .cls-4 {
        fill: #007937;
      }

      .cls-5 {
        fill: #fff;
      }
    </style>
  </defs>
  <rect class="cls-2" width="24" height="24"/>
  <g>
    <path class="cls-1" d="M16.71,7.34c2.92,2.92,3.18,7.42.57,10.03-2.61,2.61-7.11,2.35-10.03-.57-2.92-2.92-3.18-7.42-.57-10.03,2.61-2.61,7.11-2.35,10.03.57Z"/>
    <g>
      <g>
        <path class="cls-1" d="M7.5,4.21v15.58c-2.69-1.56-4.5-4.47-4.5-7.79s1.81-6.23,4.5-7.79Z"/>
        <path class="cls-4" d="M21,12c0,3.33-1.81,6.23-4.5,7.79V4.21c2.69,1.56,4.5,4.47,4.5,7.79Z"/>
        <path class="cls-3" d="M16.5,4.21v15.58c-1.33.77-2.86,1.21-4.5,1.21s-3.18-.44-4.5-1.21V4.21c1.32-.77,2.86-1.21,4.5-1.21s3.18.44,4.5,1.21Z"/>
      </g>
      <g>
        <g>
          <g>
            <g>
              <polygon class="cls-5" points="13.23 11.29 10.77 11.29 10.58 11.06 13.41 11.06 13.23 11.29"/>
              <polygon class="cls-5" points="12.75 10.99 11.24 10.99 11.47 10.78 12.52 10.78 12.75 10.99"/>
              <g>
                <g>
                  <rect class="cls-5" x="10.81" y="10.36" width=".33" height=".61"/>
                  <rect class="cls-5" x="10.81" y="10.22" width=".33" height=".09"/>
                  <path class="cls-5" d="M11.14,10.17h-.33v-.1c0-.09.07-.16.16-.16h0c.09,0,.16.07.16.16v.1Z"/>
                </g>
                <g>
                  <rect class="cls-5" x="12.86" y="10.36" width=".33" height=".61"/>
                  <rect class="cls-5" x="12.86" y="10.22" width=".33" height=".09"/>
                  <path class="cls-5" d="M13.18,10.17h-.33v-.1c0-.09.07-.16.16-.16h0c.09,0,.16.07.16.16v.1Z"/>
                </g>
              </g>
              <path class="cls-5" d="M12.56,10.21c-.03-.2-.2-.29-.37-.32-.16-.03-.19-.19-.19-.19,0,0-.03.16-.19.19s-.33.13-.37.32c-.02.13-.03.36.13.5h.87c.16-.14.15-.37.12-.5ZM11.54,10.41c-.01-.05-.01-.1,0-.15,0-.05.02-.1.05-.15s.07-.08.12-.1c-.06.07-.11.16-.12.25,0,.05,0,.09,0,.14,0,.05.01.09.02.14-.03-.04-.05-.09-.06-.14ZM11.7,10.48s.01.09.02.14c-.03-.04-.05-.09-.06-.14-.01-.05-.01-.1,0-.15,0-.05.02-.1.05-.15s.07-.08.12-.1c-.06.07-.11.16-.12.25,0,.05,0,.09,0,.14ZM12.34,10.49c-.01.05-.03.1-.06.14,0-.05.02-.09.02-.14,0-.05,0-.09,0-.14-.01-.09-.05-.18-.12-.25.05.02.09.05.12.1.03.04.05.09.06.15,0,.05,0,.1,0,.15ZM12.45,10.41c-.01.05-.03.1-.06.14.01-.05.02-.09.02-.14,0-.05,0-.09,0-.14-.01-.09-.05-.18-.12-.25.05.02.09.05.12.1.03.04.05.09.06.15,0,.05,0,.1,0,.15Z"/>
              <rect class="cls-5" x="10.8" y="11.34" width="2.4" height=".05"/>
              <g>
                <rect class="cls-5" x="10.8" y="12.82" width=".38" height=".22"/>
                <rect class="cls-5" x="10.8" y="12.19" width=".38" height=".13"/>
                <polygon class="cls-5" points="11.17 12.13 10.8 12.13 10.76 12 11.21 12 11.17 12.13"/>
                <path class="cls-5" d="M10.8,11.44v.5h.38v-.5h-.38ZM11.12,11.87h-.05v-.31h-.16v.31h-.05v-.36h.27v.36Z"/>
                <g>
                  <rect class="cls-5" x="10.96" y="12.61" width=".05" height=".09"/>
                  <rect class="cls-5" x="10.86" y="12.54" width=".08" height=".05"/>
                  <rect class="cls-5" x="11.02" y="12.54" width=".08" height=".05"/>
                  <rect class="cls-5" x="10.96" y="12.44" width=".05" height=".09"/>
                  <path class="cls-5" d="M10.8,12.37v.39h.38v-.39h-.38ZM11.13,12.73h-.29v-.31h.29v.31Z"/>
                </g>
              </g>
              <rect class="cls-5" x="12.82" y="12.82" width=".38" height=".22"/>
              <path class="cls-5" d="M13.2,13.1h-.38c0,.23-.22.4-.22.4h.82s-.22-.17-.22-.4Z"/>
              <rect class="cls-5" x="12.82" y="12.19" width=".38" height=".13"/>
              <polygon class="cls-5" points="13.2 12.13 12.82 12.13 12.79 12 13.24 12 13.2 12.13"/>
              <path class="cls-5" d="M12.82,11.44v.5h.38v-.5h-.38ZM13.15,11.87h-.05v-.31h-.16v.31h-.05v-.36h.27v.36Z"/>
              <g>
                <rect class="cls-5" x="12.99" y="12.61" width=".05" height=".09"/>
                <rect class="cls-5" x="12.89" y="12.54" width=".08" height=".05"/>
                <rect class="cls-5" x="13.05" y="12.54" width=".08" height=".05"/>
                <rect class="cls-5" x="12.99" y="12.44" width=".05" height=".09"/>
                <path class="cls-5" d="M12.82,12.37v.39h.38v-.39h-.38ZM13.16,12.73h-.29v-.31h.29v.31Z"/>
              </g>
              <path class="cls-5" d="M10.8,13.1h.38s.05.14.36.14v.26h-.97s.24-.23.24-.4Z"/>
              <polygon class="cls-5" points="13.85 13.84 10.14 13.84 10.49 13.57 13.5 13.57 13.85 13.84"/>
            </g>
            <rect class="cls-5" x="12.67" y="12.38" width=".05" height=".33"/>
            <g>
              <path class="cls-5" d="M11.24,11.47v.29s.06-.17.23-.29h-.23Z"/>
              <path class="cls-5" d="M12.75,11.47v.29s-.06-.17-.23-.29h.23Z"/>
            </g>
            <path class="cls-5" d="M14.42,12.55s0-.01,0-.02c-.01-.04-.03-.16-.03-.38,0-.27-.13-.39-.24-.49-.09-.08-.19-.2-.23-.24h0s.01,0,.02,0c.06,0,.1-.05.1-.1s-.05-.1-.1-.1-.1.05-.1.1c0,.03.01.05.03.07l-.7,1.22.02.08.42-.74c.13.03.32.23.35.54.03.26.11.4.12.41h.01s.01,0,.01,0c.32-.31.32-.34.31-.34ZM13.87,12.13h0c.03-.07.06-.12.12-.16.01-.01.03-.02.05-.03.04-.02.08-.05.11-.08.03-.03.04-.07.04-.11.08.09.16.2.15.4v.07s-.05.06-.08.08c-.04.03-.07.04-.11.05-.02,0-.04.01-.07.02-.04.02-.08.05-.11.1-.02-.14-.06-.25-.12-.34Z"/>
            <path class="cls-5" d="M9.9,12.89h.01s0,0,0,0c0,0,.09-.15.12-.41.04-.31.22-.51.35-.54l.42.74.02-.08-.7-1.22s.03-.04.03-.07c0-.06-.05-.1-.1-.1s-.1.05-.1.1.05.1.1.1c0,0,.02,0,.02,0h0c-.04.05-.14.17-.23.25-.11.1-.24.22-.24.49,0,.22-.02.33-.03.38,0,.01,0,.02,0,.02,0,0,0,.03.32.34ZM10.01,12.47s-.07-.08-.11-.1c-.02-.01-.05-.02-.07-.02-.03,0-.07-.02-.1-.04-.03-.02-.06-.05-.08-.08,0-.02,0-.05,0-.07,0-.2.07-.32.15-.4,0,.04.02.08.04.11.03.03.07.06.11.08l.05.03c.05.04.08.08.12.15,0,0,0,0,0,.01-.06.09-.1.2-.12.34Z"/>
          </g>
          <g>
            <path class="cls-5" d="M11.74,12.47v.31h.13v-.61h-.52v.61h.13v-.31c0-.07.06-.14.13-.14s.14.06.14.14Z"/>
            <rect class="cls-5" x="11.55" y="12.47" width=".1" height=".31"/>
          </g>
          <g>
            <rect class="cls-5" x="12.09" y="12.34" width=".09" height=".06"/>
            <rect class="cls-5" x="12.23" y="12.55" width=".09" height=".06"/>
            <rect class="cls-5" x="12.5" y="13.01" width=".09" height=".06"/>
            <rect class="cls-5" x="12.4" y="12.78" width=".09" height=".06"/>
            <polygon class="cls-5" points="12.32 12.75 12.14 12.66 12.14 12.53 12.01 12.47 12.01 12.3 11.95 12.26 11.95 12.79 12.13 12.79 12.41 13.11 12.41 12.99 12.32 12.89 12.32 12.75"/>
            <path class="cls-5" d="M12.82,13.26l-.17-.13v-.16l-.1-.08v-.16l-.17-.08v-.15l-.14-.06v-.15l-.29-.13v-.11h-.63c0-.37.3-.67.67-.67s.67.3.67.67v.23h.05v-.23c0-.4-.33-.72-.72-.72s-.73.33-.73.72v.99h.24v.44h.03v-.24h.25l.05.24h.25l-.08-.24h.18l.15.24h.36l-.22-.24h.36ZM12.62,12.98v.12h-.15v-.12h.15ZM12.38,12.75h.15v.12h-.15v-.12ZM12.36,12.53v.12h-.15v-.12h.15ZM12.06,12.32h.15v.12h-.15v-.12ZM11.49,12.47v.34h-.18v-.66h.58v.66h-.18v-.34c0-.06-.05-.11-.11-.11s-.11.05-.11.11ZM11.53,12.81v-.37h.16v.37h-.16ZM11.54,13.03v-.18h.17l.04.18h-.2ZM11.81,13.23l-.03-.17h.14l.05.17h-.16ZM11.94,13.03l-.06-.18h.06l.11.18h-.11ZM12.32,13.23h-.12l-.11-.17h.15l.16.17h-.09ZM12.44,13.18l-.33-.36h-.19v-.6l.12.08v.17l.13.06v.14l.18.08v.15l.09.1v.19Z"/>
          </g>
        </g>
        <g>
          <g>
            <path class="cls-5" d="M13.78,15.3c-.17-.15-.37-.28-.53-.44-.02-.02-.03-.03-.05-.04-.11-.06-.3.05-.4.09-.31.14-.79.14-.79.14,0,0-.48,0-.79-.14-.1-.04-.28-.15-.4-.09-.02.01-.03.03-.05.04-.16.16-.36.29-.54.44-.08.07-.19.17-.05.26,0,0,.14.07.53.14.01.03.02.09-.02.15-.06.1-.04.13,0,.14.03,0,.11-.12.34-.07.23.04.4.14.47.09.06-.05-.01-.16.07-.22.13,0,.28,0,.44,0s.3,0,.44,0c.09.06.02.17.08.22.07.05.24-.04.47-.09s.31.08.34.07c.03,0,.06-.03,0-.14-.04-.06-.03-.11-.02-.15.38-.07.53-.14.53-.14.14-.09.03-.19-.05-.26ZM11.42,15.93s-.05,0-.24-.06-.35-.04-.44,0c.02-.02.02-.12.03-.15.17.02.37.05.62.06.06.04.06.13.04.15ZM12.82,15.87c-.19.07-.21.09-.24.06-.03-.02-.03-.12.04-.15.25-.01.46-.04.62-.06,0,.04,0,.13.02.15-.1-.04-.26-.06-.44,0ZM13.81,15.52c-.05.02-.51.23-1.81.23s-1.76-.2-1.81-.23c-.03-.02-.04-.04-.04-.06,0-.04.05-.09.1-.13.07-.06.15-.12.22-.18.11-.08.22-.17.32-.27h.01s.02-.03.03-.04c.02,0,.04-.01.06-.01.07,0,.17.04.24.08.02.01.04.02.06.03.32.14.79.14.81.14s.5,0,.81-.14c.02,0,.04-.02.06-.03.08-.04.17-.08.24-.08.02,0,.04,0,.06.01.01,0,.02.01.03.03h.01c.1.11.21.19.32.27.07.06.15.12.22.18.05.04.1.09.1.13,0,.02-.02.04-.04.05Z"/>
            <g>
              <path class="cls-5" d="M12.91,15.25s.05.04.06,0c0,0-.05-.03-.06,0Z"/>
              <path class="cls-5" d="M13.74,15.34c-.07-.06-.15-.12-.22-.18-.11-.08-.22-.17-.32-.27h0s-.02-.03-.03-.03c-.01,0-.03-.01-.05-.01-.07,0-.16.04-.24.08-.02.01-.04.02-.06.03-.32.14-.8.15-.82.15s-.5,0-.82-.15c-.02,0-.03-.02-.06-.03-.07-.04-.17-.08-.24-.08-.02,0-.04,0-.05.01-.01,0-.02.01-.03.02h-.01c-.1.11-.21.2-.32.28-.07.06-.15.12-.22.18-.03.03-.1.09-.1.12,0,.01.01.03.04.04.05.02.51.22,1.8.22s1.75-.2,1.8-.22c.02-.02.04-.03.04-.04,0-.03-.06-.09-.1-.12ZM12.75,15.07s.01-.02.03-.03c.01,0,.02,0,.04,0,.04,0,.06,0,.06.01,0,0,0,0,0,.02-.01.03-.02.04-.04.05-.02,0-.02-.01-.06-.02-.03,0-.05,0-.05,0,0-.01,0-.03.01-.04ZM12.5,15.18s.01-.02.03-.03c.01,0,.02,0,.04,0,.04,0,.06,0,.07.01,0,0,0,0,0,.02-.01.03-.02.04-.04.05-.02,0-.02-.01-.06-.02-.03,0-.05,0-.05,0s0-.03.01-.03ZM11.56,15.2s.07-.04.07-.04c0,0,.07.03.07.05,0,.03-.09.04-.09.04l-.05-.04s-.06.03-.06.03c0,0-.06,0-.06-.05,0,0,.06-.07.11,0ZM11.1,15.09s.08.04.08.07c0,.03-.06.04-.1.03-.03,0-.07-.03-.06-.05,0-.03.05-.05.09-.04ZM11.04,15.48c-.08.03-.15,0-.22-.02-.03-.01-.2-.07-.2-.15,0-.03.03-.05.05-.07.07-.06.16-.08.22-.08,0,0,0,.02-.01.03-.03.04-.1.01-.13.05-.02.03-.02.07,0,.1.03.07.14.08.19.08.05,0,.13.01.16-.03.02-.03,0-.05.03-.08s.07-.06.08-.05,0,.05-.01.06c0,.02-.05.12-.15.15ZM12.37,15.56s-.02,0-.12,0c-.07,0-.1,0-.11,0-.04,0-.04.01-.06.01-.05,0-.06-.02-.11-.03-.04,0-.05.01-.11.01-.07,0-.11.01-.13-.01-.02-.02-.02-.04-.03-.05-.02,0-.03.01-.04.02-.04.03-.09.01-.19,0-.16-.03-.19-.02-.23-.06,0-.01-.03-.04-.03-.08,0-.02,0-.03.07-.13.02-.03.03-.05.02-.08,0-.02-.01-.02,0-.03,0-.03.07-.06.1-.04,0,0,0,0,0,.03,0,.04-.02.06-.03.09-.05.08-.06.09-.06.12,0,.01,0,.03.01.05.02.03.05.03.06.03.11.02.15.04.18.04,0-.04-.02-.09-.02-.09,0-.04.06-.06.07-.04,0,.01,0,.08,0,.13h0c.07-.02.11-.07.13-.06.01,0,0,.03,0,.05.02.05.13.07.21.03.04-.02.07-.06.08-.05,0,0-.02.03-.02.05,0,.02.04.03.06.02.02-.01.01-.03.03-.05.02-.02.04-.04.05-.04.01,0-.02.04,0,.07.02.05.17.03.18,0,0-.01-.01-.03-.02-.04-.01-.01-.02-.01-.03-.02-.01-.02,0-.05.02-.06.02,0,.05.05.06.07.01.03.05.1.02.13ZM13.18,15.41c-.08.06-.4.1-.44.05-.02.03-.17.11-.26.08-.09-.03-.16-.26-.16-.27,0-.01-.02,0-.04.02s-.09-.02-.11-.03c-.02-.01.03-.05.05-.06,0,0,0,0,.01,0,.01,0,.02,0,.03.01,0-.01.02-.03.03-.03.04-.01.07.04.08.07.02.04.04.08.06.13.03.08.09.09.14.08.05,0,.07-.04.07-.04-.05-.01-.11-.01-.1-.08.01-.09.2-.03.24,0,.03.02,0,.04,0,.07,0,0,0,0,0,.01,0,0,0,0,0,0,.06,0,.13-.01.19-.02.04,0,.08,0,.12-.02-.01-.02-.03-.09-.07-.08-.01,0-.03.01-.04.02-.03,0-.06.01-.09.01-.06,0-.09-.11-.02-.16.02-.01.04-.02.06,0,.04.02.08.05.12.08.04.03.07.06.1.11,0,.01.04.06.02.07ZM13.27,15.43s0-.01,0-.01c0-.04-.06-.12-.14-.18-.06-.05-.08-.05-.1-.09-.02-.04-.03-.08-.02-.09,0,0,.02.02.04.03.02.03.04.05.04.06.03.05.05.04.11.1.04.04.08.08.08.13,0,.02-.01.05-.02.05Z"/>
            </g>
          </g>
          <g>
            <g>
              <g>
                <g>
                  <path class="cls-5" d="M10.97,14.21s.09.15.14.36c.04.21.23.29.23.29,0,0-.12-.17-.15-.3s-.13-.34-.22-.35Z"/>
                  <path class="cls-5" d="M11.13,14.21s.09.15.14.36.23.29.23.29c0,0-.12-.17-.15-.3s-.13-.34-.22-.35Z"/>
                </g>
                <path class="cls-5" d="M11.61,14.44s-.04,0-.08.02c-.02.01-.04.02-.04.03-.03.04,0,.12.05.13.02,0,.02,0,.06-.01.05,0,.06,0,.08-.01.02-.01.03-.04.03-.06,0,0,.01-.07-.02-.1-.02-.01-.04-.01-.08,0Z"/>
                <path class="cls-5" d="M11.79,14.45s-.02.08-.02.1c0,.02,0,.05.03.06s.04,0,.08.01c.02,0,.03.02.04.02,0,0,.01,0,.02-.05.01-.05.01-.07,0-.1s-.03-.03-.05-.04c-.01,0-.07-.03-.11,0Z"/>
                <path class="cls-5" d="M11.54,14.74s.02.15.15.17c.02,0-.01-.1-.15-.17Z"/>
                <path class="cls-5" d="M11.66,14.76s.2.22.31.15c.01-.03-.02-.1-.31-.15Z"/>
              </g>
              <g>
                <g>
                  <path class="cls-5" d="M13.03,14.21s-.09.15-.14.36-.23.29-.23.29c0,0,.12-.17.15-.3s.13-.34.22-.35Z"/>
                  <path class="cls-5" d="M12.87,14.21s-.09.15-.13.36c-.04.21-.23.29-.23.29,0,0,.12-.17.15-.3s.12-.34.21-.35Z"/>
                </g>
                <path class="cls-5" d="M12.4,14.44s.04,0,.07.02c.03.01.04.02.04.03.03.04,0,.12-.05.13-.02,0-.02,0-.06-.01-.05,0-.06,0-.08-.01-.02-.01-.03-.04-.03-.06,0,0-.01-.07.02-.1.02-.01.04-.01.09,0Z"/>
                <path class="cls-5" d="M12.21,14.45s.02.08.02.1c0,.02-.01.05-.03.06-.02.01-.04,0-.08.01-.02,0-.03.02-.04.02,0,0-.01,0-.02-.05-.01-.05-.02-.07,0-.1.01-.02.03-.03.05-.04.01,0,.07-.03.11,0Z"/>
                <path class="cls-5" d="M12.46,14.74s-.02.15-.15.17c-.02,0,0-.1.15-.17Z"/>
                <path class="cls-5" d="M12.34,14.76s-.2.22-.31.15c-.01-.03.02-.1.31-.15Z"/>
              </g>
            </g>
            <path class="cls-5" d="M11.53,14.08s0,.02.01.02c.02.04.03.06.05.11.01.03.02.07.03.13.02-.02.02-.07.02-.1,0-.08-.02-.17-.07-.23,0,0,0,0-.01-.01-.01,0-.03,0-.03.02,0,.01-.02.03-.02.04,0,0,0,.01,0,.02Z"/>
            <path class="cls-5" d="M11.78,13.99s-.04.06-.02.09.09.19.09.25c0,.05.03-.05.03-.05,0,0,0-.11-.02-.14.04-.02.08-.1.06-.15-.03.02-.01.04-.05.05s-.05,0-.06-.03-.03-.02-.03-.02Z"/>
            <path class="cls-5" d="M12.16,14.16s0-.1,0-.1c0-.02,0-.05-.04-.06-.02-.01-.05.01-.07.03-.03.03-.06.11-.02.14.04.04.09.02.09.02,0,0,0,.13.04.14.01-.01.04-.06.04-.07s-.03-.05-.04-.09ZM12.09,14.13s-.02-.01-.02-.02c0-.01.01-.03.02-.02,0,0,.01.01.01.01,0,.01,0,.03-.01.03Z"/>
            <path class="cls-5" d="M12.24,14.24s0,.02,0,.02c0,.02,0,.04,0,.07,0,0,0,0,0,0,0,0,0,0,.01,0,.04-.07.07-.15.09-.23,0,.03.02.07.03.1,0,.02.01.03.02.05.01.02.02.04.04.06,0,0,.01.01.02.02.01-.03.01-.08,0-.11,0-.03-.03-.05-.04-.08-.03-.04-.05-.09-.07-.14,0,0,0-.02,0-.03-.01.02-.02.04-.02.06,0,.03-.02.07-.03.1,0,.03-.02.05-.04.07,0,0-.01.01-.02.02Z"/>
          </g>
          <g>
            <g>
              <g>
                <path class="cls-5" d="M8.7,14.2s.04.06.05.07c.04.05.08.11.14.15.15.14.33.19.53.14.21-.06.39-.18.59-.25.11-.04.23-.06.35-.07.05,0,.1,0,.16,0,.02,0,.12,0,.13.03-.06-.11-.38-.5-.9-.3-.53.2-.57.31-1.04.24Z"/>
                <path class="cls-5" d="M8.09,12.15s0,.07,0,.08c0,.07.01.14.03.2.05.2.18.34.38.4.21.06.43.05.64.1.12.03.23.07.33.13.05.02.09.05.13.08.02.01.1.07.09.1.01-.13-.05-.62-.6-.74-.55-.12-.65-.05-1-.36Z"/>
                <path class="cls-5" d="M8.54,11.19s.75.83.71,1.27c.13-.2.26-.54.04-.96-.22-.43-.4-.61-.4-.61l-.04.27-.32.03Z"/>
              </g>
              <g>
                <path class="cls-5" d="M9.42,15.06s.42.38.71.35c.12-.01.05-.11-.03-.13s-.56-.14-.68-.22Z"/>
                <path class="cls-5" d="M9.04,14.58s.21.2.39.2c.18,0,.04-.14-.39-.2Z"/>
                <path class="cls-5" d="M9.24,14.82s.02.02.03.03c.03.02.06.04.09.05.07.03.15.04.23.04.05,0,.17,0,.18-.06,0-.04-.03-.06-.06-.05-.05,0-.1.01-.15.02-.05,0-.1,0-.14,0-.03,0-.06,0-.08,0-.03,0-.06-.02-.08-.02Z"/>
                <path class="cls-5" d="M9.48,14.97s.02.02.03.02c.03.02.05.03.08.04.06.02.14.03.2.02.04,0,.15,0,.15-.06,0-.04-.03-.05-.06-.05-.04,0-.09.01-.13.02s-.08.01-.13.01c-.02,0-.05,0-.07,0-.02,0-.05-.01-.07-.01Z"/>
                <path class="cls-5" d="M9.68,15.1s.03.01.03.02c.03.01.06.02.08.02.07.01.14,0,.2-.02.04-.01.15-.03.14-.09,0-.03-.04-.04-.07-.03-.04.01-.08.03-.12.05-.04.02-.08.03-.12.04-.02,0-.05.01-.07.01-.02,0-.05,0-.07,0Z"/>
                <path class="cls-5" d="M9.94,15.17s.03.01.03.02c.03.01.06.02.09.03.07.01.14,0,.2-.02.04-.01.15-.03.14-.09,0-.03-.04-.04-.07-.03-.04.01-.08.03-.12.05-.04.02-.08.03-.12.04-.02,0-.05.01-.07.01-.02,0-.05,0-.07,0Z"/>
                <path class="cls-5" d="M9.53,14.55s.02.06.02.06c.02.04.04.08.06.12.02.02.03.03.06.04.02.01.06.02.08,0,.01-.01.01-.03,0-.05-.02-.05-.06-.08-.1-.11-.03-.03-.06-.04-.12-.06Z"/>
                <path class="cls-5" d="M9.74,14.58l.05.15s.02.08.04.11c.01.02.03.03.04.04.01,0,.03.01.05,0,.05-.01.05-.07.02-.1-.05-.06-.16-.16-.2-.2Z"/>
                <path class="cls-5" d="M9.9,14.58c.02.05.04.11.06.16.02.05.04.11.07.16.02.03.06.06.09.07.04.01.07-.02.06-.06-.02-.09-.1-.16-.16-.22-.03-.03-.06-.05-.09-.08-.01,0-.03-.02-.04-.03Z"/>
                <path class="cls-5" d="M10.05,14.57s.12.26.2.35c.04.04.13.17.2.14.01,0,.02-.02.02-.04,0-.03-.04-.06-.06-.09-.03-.03-.05-.05-.08-.08-.06-.06-.13-.13-.19-.19-.02-.02-.03-.03-.05-.05-.01-.01-.03-.02-.04-.04Z"/>
                <path class="cls-5" d="M10.25,14.7s.12.1.23.14c.03,0,.06.02.1.02.02,0,.03,0,.05-.01.06-.04-.01-.11-.06-.11-.1-.01-.2-.01-.32-.03Z"/>
                <path class="cls-5" d="M10.1,14.51s.12.1.23.14c.03.01.06.02.09.02.02,0,.03,0,.05,0,.06-.04-.01-.11-.06-.11-.1-.01-.2-.01-.32-.03Z"/>
                <path class="cls-5" d="M10.02,14.36s.11.09.2.12c.03,0,.05.01.08.02.01,0,.03,0,.04,0,.05-.03-.01-.09-.05-.1-.08-.01-.18-.01-.28-.03Z"/>
                <path class="cls-5" d="M10.29,14.85s.12.1.23.13c.03.01.06.02.09.02.02,0,.03,0,.05-.01.06-.04-.01-.11-.06-.11-.09-.01-.2-.01-.31-.03Z"/>
                <path class="cls-5" d="M10.73,14.42s.06.14.06.26c0,.03,0,.06,0,.1,0,.01-.01.03-.02.04-.05.05-.1-.04-.09-.09.01-.1.04-.2.06-.31Z"/>
                <path class="cls-5" d="M10.58,14.22s.06.14.06.26c0,.03,0,.06,0,.09,0,.02-.01.03-.02.04-.05.05-.1-.04-.09-.09.01-.1.04-.2.06-.31Z"/>
                <path class="cls-5" d="M10.45,14.07s.05.13.05.23c0,.03,0,.06,0,.08,0,.01-.01.03-.02.04-.05.04-.09-.04-.08-.08.01-.08.04-.17.05-.28Z"/>
                <path class="cls-5" d="M10.26,13.96s.06.13.06.23c0,.03,0,.06,0,.08,0,.01,0,.03-.02.04-.05.04-.09-.04-.08-.08.01-.08.04-.17.05-.28Z"/>
              </g>
              <g>
                <path class="cls-5" d="M8.62,13.85s.24.28.41.29c.03,0,.07,0,.09-.02.01-.02.01-.04,0-.05-.01-.02-.03-.04-.05-.05-.1-.04-.21-.06-.32-.1-.04-.01-.11-.03-.14-.06Z"/>
                <path class="cls-5" d="M8.93,13.3s.18.32.13.45c0,.02-.02.06-.05.06-.02,0-.04,0-.05-.02-.02-.02-.03-.04-.03-.06,0-.1.02-.2.02-.29,0-.04.01-.1-.01-.14Z"/>
                <path class="cls-5" d="M9.1,13.63s.19.26.15.37c0,.02-.02.05-.05.05-.02,0-.04,0-.05-.02-.02-.02-.03-.04-.03-.05,0-.08,0-.16,0-.24,0-.03,0-.08-.02-.11Z"/>
                <path class="cls-5" d="M8.01,12.7s.24.28.41.28c.03,0,.07,0,.09-.02.01-.01.01-.04,0-.05,0-.02-.03-.04-.05-.05-.1-.04-.21-.06-.32-.1-.04-.02-.11-.03-.14-.06Z"/>
                <path class="cls-5" d="M8.46,13.63s.06.1.18.18c.12.08.21.11.26.1.05-.01.03-.1-.03-.12-.06-.02-.25-.07-.41-.16Z"/>
                <path class="cls-5" d="M8.31,13.4s.08.12.2.21.2.1.21.06c.02-.04-.02-.09-.09-.11-.07-.02-.32-.15-.32-.15Z"/>
                <path class="cls-5" d="M8.17,12.93s.09.12.22.19.21.08.22.04c.01-.05-.03-.09-.11-.1-.07-.01-.34-.12-.34-.12Z"/>
                <path class="cls-5" d="M8.33,13.12s.07.11.18.19c.11.07.18.09.19.05.01-.04-.02-.08-.08-.1-.06-.02-.29-.14-.29-.14Z"/>
                <path class="cls-5" d="M8.27,13.22s.11.15.17.2c.03.03.07.06.11.08.04.02.09.05.14.02.01-.01.02-.03.02-.05,0-.05-.07-.06-.11-.08-.06-.03-.12-.05-.17-.08s-.11-.06-.16-.09Z"/>
                <path class="cls-5" d="M8.66,14.03s.09.05.13.08c.02.01.04.03.06.04.01.01.03.02.05.03.01,0,.03,0,.03,0,0-.01,0-.02,0-.03-.02-.03-.07-.04-.1-.06-.05-.03-.12-.06-.18-.05Z"/>
                <path class="cls-5" d="M8.77,12.96s0,.15-.02.19c-.02.04-.05.16.01.18.06.02.09-.06.08-.15-.01-.09-.07-.22-.07-.22Z"/>
                <path class="cls-5" d="M8.92,13.2s-.06.15-.1.19-.1.15-.06.19c.04.04.11-.03.13-.13s.02-.25.02-.25Z"/>
                <path class="cls-5" d="M8.63,12.82s.02.14,0,.18-.02.15.04.16.07-.07.05-.15c-.02-.08-.09-.19-.09-.19Z"/>
                <path class="cls-5" d="M8.51,12.56s.02.14,0,.18c-.01.04-.02.15.04.16.05.01.07-.07.05-.15-.02-.08-.09-.19-.09-.19Z"/>
                <path class="cls-5" d="M9.21,13.33s.18.25.28.32c.09.06.17.07.15,0-.02-.07-.38-.28-.43-.32Z"/>
                <path class="cls-5" d="M9.43,13.66s.01.11.14.18c.13.07.18.09.2.05.02-.04-.01-.09-.09-.11-.08-.02-.25-.13-.25-.13Z"/>
                <path class="cls-5" d="M8.89,12.97s-.02.06,0,.1c.02.03.04.03.07.06.06.06.01.18.03.18.01,0,.04-.05.05-.1,0-.01,0-.08-.03-.13-.03-.03-.05-.02-.08-.05-.03-.04-.01-.09-.02-.09,0,0-.02.02-.02.03Z"/>
                <path class="cls-5" d="M9.09,13.37s-.01.08.03.12c.02.02.03.01.05.03.03.03.01.06.03.11.01.07.06.12.1.14.04.02.08.03.09.02,0-.01-.04-.03-.07-.1-.01-.03-.01-.02-.05-.13-.02-.05-.03-.07-.04-.08-.03-.03-.05-.02-.07-.05-.05-.05-.02-.13-.03-.14-.01,0-.02.03-.03.06Z"/>
                <path class="cls-5" d="M9.1,13.09s.07.11.12.16c0,0,.11.12.32.23.01,0,.04.02.04,0,.02-.01,0-.07-.04-.12-.05-.06-.11-.07-.17-.09-.18-.07-.27-.2-.28-.19Z"/>
                <path class="cls-5" d="M9.19,13s.01.14.09.19c.07.05.15.02.11-.04-.04-.06-.2-.14-.2-.14Z"/>
                <path class="cls-5" d="M9.8,13.37s0,.1-.04.16c-.04.06-.08.12-.03.15s.11-.02.12-.11c0-.09-.04-.2-.04-.2Z"/>
                <path class="cls-5" d="M9.88,13.56s0,.08-.03.14c-.04.05-.08.1-.05.14.03.04.11.03.12-.04.01-.06.03-.11-.04-.24Z"/>
                <path class="cls-5" d="M10,13.66s-.02.09-.03.14c-.02.05.03.11.06.07.03-.04.03-.13-.02-.21Z"/>
                <path class="cls-5" d="M9.74,13.2s-.04.08-.06.11c-.02.02-.04.05-.05.08,0,.02,0,.05,0,.08.02.02.05.02.07,0,.03-.02.04-.04.05-.07.03-.1-.01-.23-.01-.23v.02Z"/>
                <path class="cls-5" d="M9.41,13.06c0,.08.02.18.09.24.03.02.06.03.09.01.01,0,.02-.02.03-.03,0-.01,0-.02,0-.03-.03-.04-.08-.07-.12-.09-.03-.02-.08-.05-.08-.09Z"/>
                <path class="cls-5" d="M9.33,13.84s-.02.16.11.18c.13.02.11-.08.09-.09-.01,0-.14.04-.2-.09Z"/>
                <path class="cls-5" d="M9.31,14.03s-.04.06-.06.11-.06.14.02.16c.08.02.03-.27.03-.27Z"/>
              </g>
              <g>
                <g>
                  <path class="cls-5" d="M8.09,12.01s.15.33.27.36.13-.05.07-.11c-.05-.06-.32-.21-.34-.25Z"/>
                  <path class="cls-5" d="M8.13,11.74s.09.33.2.37c.1.04.12-.03.09-.09-.04-.06-.27-.24-.28-.28Z"/>
                  <path class="cls-5" d="M8.14,11.5s.09.32.19.36.12-.03.08-.09c-.03-.06-.26-.23-.27-.27Z"/>
                  <path class="cls-5" d="M8.15,11.27s.09.32.19.36c.1.04.12-.03.08-.09s-.26-.23-.27-.27Z"/>
                  <path class="cls-5" d="M8.22,11.05s.02.27.1.32c.07.05.1,0,.08-.06-.02-.05-.17-.23-.18-.26Z"/>
                </g>
                <path class="cls-5" d="M8.7,12.04s-.02.31-.12.36c-.09.05-.13,0-.11-.06s.22-.26.22-.3Z"/>
                <path class="cls-5" d="M8.75,11.75s-.09.33-.2.37c-.1.04-.12-.03-.09-.09.04-.06.27-.24.28-.28Z"/>
                <path class="cls-5" d="M8.74,11.52s-.09.32-.19.36-.12-.03-.08-.09c.04-.06.26-.23.27-.27Z"/>
                <path class="cls-5" d="M8.74,11.27s-.09.32-.19.36c-.1.04-.12-.03-.08-.09s.26-.23.27-.27Z"/>
                <path class="cls-5" d="M8.62,11.07s-.02.27-.1.32c-.07.05-.1,0-.08-.06.02-.05.17-.23.18-.26Z"/>
                <path class="cls-5" d="M8.4,10.82s-.02.04-.02.05c0,.02-.01.04-.02.06-.01.04-.02.08-.03.12,0,.04-.01.09,0,.13,0,.03.04.07.08.07.02,0,.03-.02.04-.04.04-.08,0-.18-.02-.26-.01-.04-.03-.09-.04-.13Z"/>
                <path class="cls-5" d="M8.7,12.28s.01.05.01.06c0,.03.01.05.03.08.02.05.06.09.12.08.01,0,.02,0,.03-.02s0-.02,0-.03c0-.03-.03-.06-.05-.08-.03-.03-.14-.09-.14-.09Z"/>
                <path class="cls-5" d="M8.71,12.09s.01.05.01.06c0,.03.02.05.03.08.02.05.06.09.12.08.01,0,.02,0,.03-.02,0-.01,0-.02,0-.03,0-.03-.03-.06-.05-.08-.03-.03-.14-.09-.14-.09Z"/>
                <path class="cls-5" d="M8.76,11.86s0,.05,0,.06c0,.03,0,.05,0,.08,0,.05.03.11.08.12.01,0,.02,0,.03,0,.01,0,.01-.02.02-.03,0-.03-.01-.06-.02-.09-.02-.04-.1-.13-.1-.13Z"/>
                <path class="cls-5" d="M9.13,12.28s-.01.05-.01.06c0,.03-.02.05-.03.08-.02.05-.06.09-.12.08-.01,0-.02,0-.03-.02,0-.01,0-.02,0-.03,0-.03.03-.06.05-.08.03-.03.14-.09.14-.09Z"/>
                <path class="cls-5" d="M9.12,12.09s-.01.05-.01.06c0,.03-.01.05-.03.08-.02.05-.06.09-.12.08-.01,0-.02,0-.03-.02,0-.01,0-.02,0-.03,0-.03.03-.06.05-.08.03-.03.14-.09.14-.09Z"/>
                <path class="cls-5" d="M9.04,11.84s0,.05,0,.06c0,.03,0,.05,0,.08,0,.05-.03.11-.08.12-.01,0-.02,0-.03,0-.01,0-.01-.02-.02-.03,0-.03.01-.06.02-.09.02-.04.1-.13.1-.13Z"/>
                <path class="cls-5" d="M8.9,11.61s-.03.05-.03.05c-.01.02-.02.05-.03.07-.02.05-.02.11.03.14.01,0,.02.01.03,0,.01,0,.02-.01.03-.02.02-.03.02-.06.02-.09,0-.04-.04-.16-.04-.16Z"/>
              </g>
              <path class="cls-5" d="M8.85,10.7s0-.02,0-.03c.01-.02.03-.04.05-.05.07-.05.17-.04.25-.02.01,0,.02,0,.03.01,0,0-.04.03-.04.03-.03.03-.07.05-.11.07-.04.02-.09.04-.13.04-.03,0-.05-.02-.05-.05Z"/>
              <path class="cls-5" d="M8.67,10.85s0-.02.01-.03c.02-.02.04-.03.06-.04.08-.03.17,0,.24.05.01,0,.02.01.03.02,0,0-.04.02-.05.02-.04.02-.08.03-.12.04-.04,0-.09.02-.14,0-.03-.01-.04-.04-.04-.06Z"/>
              <path class="cls-5" d="M9.01,10.5s0-.02,0-.03c0-.02.03-.04.04-.06.06-.05.15-.05.22-.03,0,0,.02,0,.03,0,0,0-.03.03-.04.04-.03.03-.06.05-.1.08-.03.02-.08.05-.12.04-.03,0-.05-.02-.05-.05Z"/>
              <path class="cls-5" d="M9.13,10.29c0-.1.14-.13.21-.14.01,0,.1-.02.09-.03,0,.12-.12.18-.22.21-.01,0-.03,0-.04,0-.02,0-.04,0-.04-.02,0,0,0-.01,0-.02Z"/>
              <path class="cls-5" d="M9.24,10.09c0-.09.12-.11.19-.12.01,0,.08-.02.08-.03,0,.11-.11.16-.19.19-.01,0-.02,0-.04,0s-.03,0-.04-.02c0,0,0-.01,0-.02Z"/>
              <path class="cls-5" d="M9.36,9.9c-.04-.12.12-.2.21-.24.01,0,.12-.07.15-.11,0,.14-.12.28-.23.35-.01.01-.03.02-.05.02-.02,0-.05,0-.06-.01,0,0-.01-.01-.01-.02Z"/>
              <path class="cls-5" d="M8.8,9.77s0,.23.02.43c0,.06,0,.13.02.19,0,.04,0,.1.03.14.03.05.08,0,.09-.03.03-.1-.02-.23-.05-.32-.03-.1-.06-.2-.08-.31,0-.03-.03-.07-.02-.1Z"/>
              <path class="cls-5" d="M8.6,9.95s0,.23.04.43c.01.06.02.13.03.19,0,.04,0,.1.03.14.04.05.08,0,.09-.04.03-.1-.04-.23-.07-.32-.03-.1-.07-.2-.1-.3,0-.03-.03-.07-.03-.1Z"/>
              <path class="cls-5" d="M8.53,10.13s-.02.23-.01.43c0,.06,0,.13,0,.19,0,.04,0,.1.02.14.03.05.07.01.09-.02.04-.09,0-.23-.02-.33-.02-.1-.04-.21-.06-.31,0-.03-.02-.07-.02-.1Z"/>
              <path class="cls-5" d="M9,9.55s-.02.21-.02.41c0,.06,0,.12,0,.19,0,.04,0,.1.01.14.03.05.07.01.09-.02.04-.09,0-.22-.02-.31l-.05-.3s-.02-.07-.01-.1Z"/>
              <path class="cls-5" d="M9.14,9.44s-.02.18-.01.34c0,.05,0,.11,0,.16,0,.04,0,.08.01.12.03.04.07.01.09-.02.04-.07,0-.18-.02-.26l-.05-.25s-.02-.06-.02-.08Z"/>
              <path class="cls-5" d="M9.26,9.23s-.03.16-.02.3c0,.06,0,.12,0,.18,0,.02,0,.04.02.05.02.02.04.02.06,0,.01,0,.02-.02.03-.03.03-.07,0-.15-.02-.21-.02-.07-.03-.14-.05-.21,0-.02,0-.05-.02-.07Z"/>
              <path class="cls-5" d="M9.58,9.34s-.04.06-.07.08c-.03.03-.06.05-.09.09-.02.03-.03.06-.03.09,0,.02,0,.04,0,.06,0,.01,0,.03.02.03.01,0,.03,0,.05,0,.08-.03.1-.11.11-.19,0-.05.01-.11.01-.16Z"/>
              <path class="cls-5" d="M9.51,10.16s-.05.08-.06.13c-.01.04-.01.09,0,.13,0,.03.02.11.06.11.07,0,.06-.16.04-.2-.03-.05-.02-.2-.02-.2l-.02.02Z"/>
              <path class="cls-5" d="M9.37,10.38s-.03.09-.04.14c0,.04,0,.09,0,.13.01.03.03.11.07.1.07-.01.04-.16.01-.2-.03-.05-.04-.2-.04-.2v.03Z"/>
              <path class="cls-5" d="M9.24,10.58s-.02.09-.02.14c0,.04,0,.09.03.13.01.03.05.1.09.09.07-.02.01-.17-.02-.2-.04-.04-.07-.19-.07-.19v.03Z"/>
              <path class="cls-5" d="M9.15,10.74s-.02.09-.02.14c0,.04,0,.09.03.13.01.03.05.1.09.09.07-.02.01-.17-.02-.2-.04-.04-.07-.19-.07-.19v.03Z"/>
              <path class="cls-5" d="M9.63,9.94s-.05.08-.06.13c-.01.04-.02.09,0,.13,0,.03.02.11.06.11.07,0,.06-.16.04-.2-.03-.05-.02-.2-.02-.2l-.02.02Z"/>
              <path class="cls-5" d="M9.82,9.67s-.06.08-.08.13c-.02.04-.03.09-.03.14,0,.04,0,.12.04.13.07.01.08-.16.07-.2-.01-.06.02-.21.02-.21l-.02.02Z"/>
              <path class="cls-5" d="M9.91,10.33s-.04.09-.06.13c-.03.03-.06.07-.1.09-.03.02-.09.05-.12.02-.05-.06.08-.14.13-.15.06-.01.17-.11.17-.11v.03Z"/>
              <path class="cls-5" d="M9.82,10.56s-.05.08-.08.12c-.03.03-.06.06-.11.08-.03.01-.1.04-.13,0-.04-.06.1-.13.15-.14.06,0,.18-.09.18-.09v.03Z"/>
              <path class="cls-5" d="M9.73,10.79s-.06.07-.1.11c-.03.03-.07.05-.12.06-.03.01-.11.03-.13-.01-.03-.07.12-.11.17-.11.06,0,.19-.06.19-.06l-.02.02Z"/>
              <path class="cls-5" d="M9.67,10.98s-.06.07-.1.11c-.03.03-.07.05-.12.06-.03.01-.11.03-.13-.01-.03-.07.12-.11.17-.11.06,0,.19-.06.19-.06l-.02.02Z"/>
              <path class="cls-5" d="M9.06,10.91s-.02.09-.02.14c0,.04,0,.09.03.13.01.03.05.1.09.09.07-.02.01-.16-.02-.2-.04-.04-.07-.19-.07-.19v.03Z"/>
              <path class="cls-5" d="M9.54,11.21s-.07.07-.11.09c-.04.02-.08.04-.12.05-.03,0-.11.02-.12-.03-.02-.07.13-.1.18-.09.06,0,.2-.04.2-.04l-.02.02Z"/>
              <path class="cls-5" d="M10,10.1s-.04.09-.07.13c-.02.04-.06.07-.1.09-.03.02-.09.06-.13.02-.04-.06.09-.14.13-.15.06-.01.17-.11.17-.11v.03Z"/>
              <path class="cls-5" d="M10.09,9.8c-.01.05-.03.1-.05.15-.02.04-.05.08-.08.11-.03.02-.09.08-.13.05-.05-.05.07-.16.11-.18.06-.02.15-.15.15-.15v.03Z"/>
              <path class="cls-5" d="M10.1,9.58s-.07.03-.07.03c-.03.01-.05.03-.08.05-.05.04-.09.09-.08.16,0,.01,0,.03.01.04.02.02.04.02.06.01.04-.02.08-.06.1-.09.04-.05.06-.13.06-.2Z"/>
            </g>
            <g>
              <g>
                <path class="cls-5" d="M15.3,14.2s-.04.06-.05.07c-.04.05-.09.11-.14.15-.15.14-.33.19-.53.14-.21-.06-.39-.18-.59-.25-.11-.04-.23-.06-.35-.07-.05,0-.11,0-.16,0-.02,0-.12,0-.13.03.06-.11.38-.5.91-.3.53.2.57.31,1.04.24Z"/>
                <path class="cls-5" d="M15.91,12.15s0,.07,0,.08c0,.07-.02.14-.03.2-.05.2-.18.34-.38.4-.21.06-.43.05-.64.1-.11.03-.22.07-.33.13-.05.02-.09.05-.13.08-.02.01-.1.07-.09.1-.01-.13.05-.62.6-.74s.65-.05,1-.36Z"/>
                <path class="cls-5" d="M15.46,11.19s-.75.83-.71,1.27c-.13-.2-.26-.54-.04-.96.22-.43.4-.61.4-.61l.04.27.32.03Z"/>
              </g>
              <g>
                <path class="cls-5" d="M14.58,15.06s-.42.38-.71.35c-.12-.01-.05-.11.03-.13s.56-.14.68-.22Z"/>
                <path class="cls-5" d="M14.96,14.58s-.21.2-.39.2c-.18,0-.04-.14.39-.2Z"/>
                <path class="cls-5" d="M14.77,14.82s-.03.02-.03.03c-.03.02-.06.04-.09.05-.07.03-.15.04-.23.04-.05,0-.17,0-.18-.06,0-.04.03-.06.06-.05.05,0,.1.01.15.02.05,0,.09,0,.14,0,.03,0,.06,0,.08,0,.03,0,.06-.02.08-.02Z"/>
                <path class="cls-5" d="M14.53,14.97s-.02.02-.03.02c-.02.02-.05.03-.08.04-.06.02-.14.03-.2.02-.04,0-.15,0-.15-.06,0-.04.03-.05.06-.05.04,0,.09.01.13.02.04,0,.08.01.13.01.03,0,.05,0,.08,0,.02,0,.05-.01.07-.01Z"/>
                <path class="cls-5" d="M14.32,15.1s-.03.01-.03.02c-.03.01-.06.02-.09.02-.07.01-.14,0-.2-.02-.04-.01-.15-.03-.14-.09,0-.03.04-.04.07-.03.04.01.08.03.12.05.04.02.08.03.12.04.02,0,.05.01.07.01.02,0,.05,0,.07,0Z"/>
                <path class="cls-5" d="M14.06,15.17s-.03.01-.03.02c-.03.01-.06.02-.09.03-.07.01-.14,0-.2-.02-.04-.01-.15-.03-.14-.09,0-.03.04-.04.07-.03.04.01.08.03.12.05.04.02.08.03.12.04.02,0,.05.01.07.01.02,0,.05,0,.07,0Z"/>
                <path class="cls-5" d="M14.48,14.55s-.02.06-.02.06c-.02.04-.03.08-.06.12-.01.02-.03.03-.05.04-.02.01-.06.02-.08,0-.01-.01-.01-.03,0-.05.02-.05.06-.08.1-.11.04-.03.06-.04.12-.06Z"/>
                <path class="cls-5" d="M14.26,14.58l-.05.15s-.02.08-.05.11c-.01.02-.03.03-.04.04-.01,0-.03.01-.05,0-.05-.01-.05-.07-.02-.1.06-.06.16-.16.2-.2Z"/>
                <path class="cls-5" d="M14.1,14.58c-.02.05-.04.11-.06.16-.02.05-.04.11-.07.16-.02.03-.06.06-.09.07-.04.01-.07-.02-.06-.06.02-.09.1-.16.17-.22.03-.03.06-.05.09-.08,0,0,.03-.02.04-.03Z"/>
                <path class="cls-5" d="M13.95,14.57s-.12.26-.2.35c-.04.04-.13.17-.2.14-.02,0-.02-.02-.02-.04,0-.03.04-.06.06-.09.03-.03.05-.05.08-.08.06-.06.13-.13.19-.19l.05-.05s.03-.02.04-.04Z"/>
                <path class="cls-5" d="M13.75,14.7s-.12.1-.23.14c-.03,0-.06.02-.09.02-.02,0-.03,0-.05-.01-.06-.04.01-.11.06-.11.1-.01.2-.01.32-.03Z"/>
                <path class="cls-5" d="M13.9,14.51s-.12.1-.23.14c-.03.01-.06.02-.1.02-.02,0-.03,0-.05,0-.06-.04.01-.11.06-.11.09-.01.2-.01.32-.03Z"/>
                <path class="cls-5" d="M13.98,14.36s-.11.09-.2.12c-.03,0-.05.01-.08.02-.01,0-.03,0-.04,0-.05-.03.01-.09.05-.1.08-.01.17-.01.28-.03Z"/>
                <path class="cls-5" d="M13.7,14.85s-.12.1-.23.14c-.03,0-.06.02-.09.02-.02,0-.03,0-.05-.01-.06-.04.01-.11.06-.11.1-.01.2-.01.32-.03Z"/>
                <path class="cls-5" d="M13.27,14.42s-.06.14-.06.26c0,.03,0,.06.01.1,0,.01.01.03.02.04.05.05.1-.04.09-.09-.01-.1-.04-.2-.06-.31Z"/>
                <path class="cls-5" d="M13.42,14.22s-.06.14-.06.26c0,.03,0,.06.01.09,0,.02.01.03.02.04.05.05.1-.04.09-.09-.01-.1-.04-.2-.06-.31Z"/>
                <path class="cls-5" d="M13.56,14.07s-.06.13-.06.23c0,.03,0,.06,0,.08,0,.01.01.03.02.04.05.04.09-.04.08-.08-.01-.08-.04-.17-.05-.28Z"/>
                <path class="cls-5" d="M13.74,13.96s-.06.13-.06.23c0,.03,0,.06,0,.08,0,.01.01.03.02.04.05.04.09-.04.08-.08-.01-.08-.04-.17-.05-.28Z"/>
              </g>
              <g>
                <path class="cls-5" d="M15.38,13.85s-.24.28-.41.29c-.03,0-.07,0-.09-.02-.01-.02-.01-.04,0-.05,0-.02.03-.04.05-.05.11-.04.21-.06.32-.1.04-.01.11-.03.14-.06Z"/>
                <path class="cls-5" d="M15.07,13.3s-.18.32-.13.45c.01.02.02.06.05.06.02,0,.04,0,.05-.02.02-.02.03-.04.03-.06,0-.1-.02-.2-.02-.29,0-.04,0-.1.01-.14Z"/>
                <path class="cls-5" d="M14.9,13.63s-.19.26-.15.37c0,.02.02.05.05.05.02,0,.04,0,.05-.02.02-.02.03-.04.03-.05,0-.08,0-.16,0-.24,0-.03,0-.08.02-.11Z"/>
                <path class="cls-5" d="M16,12.7s-.24.28-.41.28c-.03,0-.07,0-.09-.02-.01-.01-.01-.04,0-.05,0-.02.03-.04.05-.05.1-.04.21-.06.32-.1.04-.02.11-.03.14-.06Z"/>
                <path class="cls-5" d="M15.54,13.63s-.06.1-.18.18-.21.11-.26.1c-.05-.01-.03-.1.03-.12.06-.02.25-.07.4-.16Z"/>
                <path class="cls-5" d="M15.69,13.4s-.08.12-.2.21-.2.1-.21.06c-.01-.04.03-.09.09-.11.07-.02.32-.15.32-.15Z"/>
                <path class="cls-5" d="M15.83,12.93s-.09.12-.22.19-.21.08-.22.04c-.01-.05.03-.09.11-.1.07-.01.34-.12.34-.12Z"/>
                <path class="cls-5" d="M15.67,13.12s-.07.11-.18.19-.18.09-.19.05c-.01-.04.02-.08.08-.1.06-.02.29-.14.29-.14Z"/>
                <path class="cls-5" d="M15.73,13.22s-.12.15-.17.2c-.03.03-.07.06-.11.08-.04.02-.09.05-.14.02-.01-.01-.02-.03-.02-.05,0-.05.07-.06.11-.08.06-.03.12-.05.17-.08.05-.03.11-.06.16-.09Z"/>
                <path class="cls-5" d="M15.34,14.03s-.09.05-.13.08c-.02.01-.04.03-.06.04-.02.01-.03.02-.05.03-.01,0-.03,0-.03,0,0-.01,0-.02,0-.03.02-.03.07-.04.1-.06.05-.03.12-.06.17-.05Z"/>
                <path class="cls-5" d="M15.23,12.96s0,.15.02.19c.02.04.04.16-.01.18-.06.02-.09-.06-.08-.15.01-.09.07-.22.07-.22Z"/>
                <path class="cls-5" d="M15.08,13.2s.06.15.09.19.11.15.06.19c-.05.04-.11-.03-.13-.13-.02-.09-.02-.25-.02-.25Z"/>
                <path class="cls-5" d="M15.37,12.82s-.02.14-.01.18c.01.04.02.15-.04.16-.05,0-.07-.07-.05-.15.03-.08.09-.19.09-.19Z"/>
                <path class="cls-5" d="M15.49,12.56s-.02.14,0,.18c.01.04.02.15-.04.16-.05.01-.07-.07-.05-.15.03-.08.09-.19.09-.19Z"/>
                <path class="cls-5" d="M14.79,13.33s-.18.25-.28.32-.17.07-.16,0c.02-.07.38-.28.43-.32Z"/>
                <path class="cls-5" d="M14.57,13.66s-.02.11-.14.18c-.12.07-.18.09-.2.05-.02-.04,0-.09.09-.11.08-.02.25-.13.25-.13Z"/>
                <path class="cls-5" d="M15.11,12.97s.02.06,0,.1c-.02.03-.04.03-.07.06-.06.06-.01.18-.03.18-.01,0-.04-.05-.05-.1,0-.01-.01-.08.03-.13.03-.03.06-.02.08-.05.03-.04.01-.09.02-.09,0,0,.02.02.02.03Z"/>
                <path class="cls-5" d="M14.91,13.37s.01.08-.03.12c-.02.02-.03.01-.05.03-.03.03-.01.06-.02.11-.01.07-.06.12-.1.14-.04.02-.08.03-.09.02,0-.01.04-.03.07-.1.01-.03,0-.02.05-.13.02-.05.03-.07.04-.08.03-.03.05-.02.07-.05.05-.05.02-.13.04-.14,0,0,.02.03.03.06Z"/>
                <path class="cls-5" d="M14.9,13.09s-.07.11-.12.16c0,0-.11.12-.32.23-.01,0-.03.02-.04,0-.02-.01.01-.07.04-.12.05-.06.11-.07.17-.09.18-.07.27-.2.28-.19Z"/>
                <path class="cls-5" d="M14.81,13s0,.14-.08.19c-.07.05-.15.02-.11-.04s.2-.14.2-.14Z"/>
                <path class="cls-5" d="M14.2,13.37s0,.1.04.16c.04.06.08.12.03.15-.04.04-.11-.02-.11-.11,0-.09.04-.2.04-.2Z"/>
                <path class="cls-5" d="M14.11,13.56s0,.08.03.14c.04.05.08.1.05.14-.03.04-.11.03-.12-.04,0-.06-.02-.11.04-.24Z"/>
                <path class="cls-5" d="M14,13.66s.02.09.03.14c.02.05-.03.11-.06.07-.03-.04-.03-.13.02-.21Z"/>
                <path class="cls-5" d="M14.27,13.2s.04.08.06.11c.02.02.04.05.04.08,0,.02,0,.05,0,.08-.02.02-.05.02-.07,0-.03-.02-.04-.04-.05-.07-.03-.1.01-.23.01-.23v.02Z"/>
                <path class="cls-5" d="M14.59,13.06c0,.08-.01.18-.08.24-.03.02-.06.03-.09.01-.01,0-.02-.02-.03-.03,0-.01,0-.02,0-.03.02-.04.08-.07.12-.09.03-.02.08-.05.08-.09Z"/>
                <path class="cls-5" d="M14.68,13.84s.02.16-.11.18c-.13.02-.11-.08-.1-.09.01,0,.14.04.21-.09Z"/>
                <path class="cls-5" d="M14.69,14.03s.04.06.06.11c.01.05.06.14-.02.16-.08.02-.03-.27-.03-.27Z"/>
              </g>
              <g>
                <g>
                  <path class="cls-5" d="M15.91,12.01s-.15.33-.27.36c-.11.02-.13-.05-.08-.11.05-.06.33-.21.34-.25Z"/>
                  <path class="cls-5" d="M15.87,11.74s-.09.33-.2.37-.12-.03-.08-.09c.04-.06.27-.24.28-.28Z"/>
                  <path class="cls-5" d="M15.86,11.5s-.09.32-.19.36-.12-.03-.08-.09c.04-.06.26-.23.27-.27Z"/>
                  <path class="cls-5" d="M15.85,11.27s-.09.32-.19.36c-.1.04-.12-.03-.08-.09.03-.06.26-.23.27-.27Z"/>
                  <path class="cls-5" d="M15.78,11.05s-.02.27-.09.32c-.07.05-.1,0-.08-.06.02-.05.17-.23.17-.26Z"/>
                </g>
                <path class="cls-5" d="M15.3,12.04s.02.31.12.36c.09.05.13,0,.11-.06-.02-.06-.22-.26-.22-.3Z"/>
                <path class="cls-5" d="M15.25,11.75s.09.33.2.37.12-.03.08-.09c-.04-.06-.27-.24-.28-.28Z"/>
                <path class="cls-5" d="M15.26,11.52s.09.32.19.36c.1.04.12-.03.08-.09-.03-.06-.26-.23-.27-.27Z"/>
                <path class="cls-5" d="M15.27,11.27s.09.32.19.36c.1.04.12-.03.08-.09-.04-.06-.26-.23-.27-.27Z"/>
                <path class="cls-5" d="M15.39,11.07s.02.27.09.32.1,0,.08-.06c-.02-.05-.17-.23-.17-.26Z"/>
                <path class="cls-5" d="M15.6,10.82s.01.04.02.05c0,.02.01.04.02.06.01.04.02.08.03.12,0,.04,0,.09,0,.13-.01.03-.04.07-.08.07-.02,0-.04-.02-.04-.04-.04-.08,0-.18.02-.26.01-.04.03-.09.04-.13Z"/>
                <path class="cls-5" d="M15.29,12.28s-.01.05-.01.06c0,.03-.02.05-.03.08-.02.05-.06.09-.11.08-.01,0-.02,0-.03-.02,0-.01,0-.02,0-.03,0-.03.03-.06.05-.08.03-.03.14-.09.14-.09Z"/>
                <path class="cls-5" d="M15.28,12.09s-.01.05-.01.06c0,.03-.01.05-.03.08-.02.05-.06.09-.12.08,0,0-.02,0-.03-.02s0-.02,0-.03c0-.03.03-.06.05-.08.03-.03.14-.09.14-.09Z"/>
                <path class="cls-5" d="M15.25,11.86s0,.05,0,.06c0,.03,0,.05,0,.08,0,.05-.03.11-.08.12-.01,0-.02,0-.03,0-.01,0-.02-.02-.02-.03,0-.03,0-.06.02-.09.02-.04.1-.13.1-.13Z"/>
                <path class="cls-5" d="M14.87,12.28s.01.05.01.06c0,.03.01.05.03.08.02.05.06.09.12.08.01,0,.02,0,.03-.02,0-.01,0-.02,0-.03,0-.03-.03-.06-.05-.08-.03-.03-.14-.09-.14-.09Z"/>
                <path class="cls-5" d="M14.88,12.09s.01.05.01.06c0,.03.02.05.03.08.02.05.06.09.12.08.01,0,.02,0,.03-.02,0-.01,0-.02,0-.03,0-.03-.03-.06-.05-.08-.03-.03-.14-.09-.14-.09Z"/>
                <path class="cls-5" d="M14.96,11.84s0,.05,0,.06c0,.03,0,.05,0,.08,0,.05.03.11.08.12.01,0,.02,0,.03,0,.01,0,.02-.02.02-.03,0-.03,0-.06-.02-.09-.02-.04-.1-.13-.1-.13Z"/>
                <path class="cls-5" d="M15.1,11.61s.03.05.03.05c.01.02.03.05.03.07.02.05.02.11-.03.14,0,0-.02.01-.03,0s-.02-.01-.03-.02c-.01-.03-.02-.06-.02-.09,0-.04.04-.16.04-.16Z"/>
              </g>
              <path class="cls-5" d="M15.16,10.7s0-.02,0-.03c-.01-.02-.03-.04-.05-.05-.07-.05-.17-.04-.25-.02,0,0-.02,0-.03.01,0,0,.04.03.04.03.03.03.07.05.11.07.04.02.09.04.13.04.03,0,.05-.02.05-.05Z"/>
              <path class="cls-5" d="M15.33,10.85s0-.02-.02-.03c-.02-.02-.04-.03-.06-.04-.08-.03-.17,0-.24.05-.01,0-.02.01-.03.02,0,0,.04.02.05.02.04.02.08.03.12.04.04,0,.09.02.14,0,.03-.01.05-.04.04-.06Z"/>
              <path class="cls-5" d="M14.99,10.5s0-.02,0-.03c-.01-.02-.03-.04-.04-.06-.06-.05-.15-.05-.22-.03-.01,0-.02,0-.03,0,0,0,.03.03.04.04.03.03.06.05.09.08.03.02.08.05.12.04.03,0,.05-.02.05-.05Z"/>
              <path class="cls-5" d="M14.87,10.29c0-.1-.14-.13-.21-.14-.01,0-.1-.02-.1-.03,0,.12.12.18.22.21.01,0,.03,0,.04,0,.02,0,.04,0,.05-.02,0,0,0-.01,0-.02Z"/>
              <path class="cls-5" d="M14.76,10.09c0-.09-.12-.11-.19-.12-.01,0-.09-.02-.08-.03,0,.11.11.16.19.19.01,0,.02,0,.04,0,.02,0,.03,0,.04-.02,0,0,0-.01,0-.02Z"/>
              <path class="cls-5" d="M14.64,9.9c.04-.12-.12-.2-.21-.24-.01,0-.11-.07-.15-.11,0,.14.13.28.23.35.02.01.03.02.05.02.02,0,.05,0,.07-.01,0,0,0-.01.01-.02Z"/>
              <path class="cls-5" d="M15.21,9.77s0,.23-.02.43c0,.06-.01.13-.02.19,0,.04,0,.1-.03.14-.03.05-.08,0-.09-.03-.03-.1.03-.23.05-.32.03-.1.06-.2.08-.31,0-.03.03-.07.03-.1Z"/>
              <path class="cls-5" d="M15.4,9.95s0,.23-.04.43c-.01.06-.02.13-.03.19,0,.04,0,.1-.03.14-.04.05-.08,0-.09-.04-.03-.1.04-.23.07-.32.03-.1.07-.2.1-.3.01-.03.03-.07.03-.1Z"/>
              <path class="cls-5" d="M15.47,10.13s.02.23.02.43c0,.06,0,.13,0,.19,0,.04,0,.1-.02.14-.03.05-.07.01-.09-.02-.04-.09,0-.23.02-.33.02-.1.04-.21.06-.31,0-.03.02-.07.02-.1Z"/>
              <path class="cls-5" d="M15,9.55s.02.21.01.41c0,.06,0,.12,0,.19,0,.04,0,.1-.02.14-.03.05-.07.01-.09-.02-.04-.09,0-.22.02-.31l.05-.3s.02-.07.02-.1Z"/>
              <path class="cls-5" d="M14.86,9.44s.02.18.02.34c0,.05,0,.11,0,.16,0,.04,0,.08-.01.12-.03.04-.07.01-.09-.02-.04-.07,0-.18.02-.26.02-.08.04-.17.05-.25,0-.02.02-.06.02-.08Z"/>
              <path class="cls-5" d="M14.74,9.23s.03.16.02.3c0,.06,0,.12,0,.18,0,.02,0,.04-.01.05-.02.02-.04.02-.06,0-.01,0-.02-.02-.03-.03-.03-.07,0-.15.02-.21.02-.07.03-.14.05-.21,0-.02,0-.05.01-.07Z"/>
              <path class="cls-5" d="M14.42,9.34s.04.06.07.08c.03.03.07.05.09.09.02.03.02.06.03.09,0,.02,0,.04,0,.06,0,.01,0,.03-.02.03-.01,0-.03,0-.05,0-.09-.03-.1-.11-.11-.19,0-.05-.01-.11-.01-.16Z"/>
              <path class="cls-5" d="M14.49,10.16s.04.08.06.13c.01.04.02.09.01.13,0,.03-.02.11-.06.11-.07,0-.05-.16-.03-.2.02-.05.02-.2.02-.2l.02.02Z"/>
              <path class="cls-5" d="M14.63,10.38s.04.09.04.14c0,.04,0,.09,0,.13,0,.03-.03.11-.07.1-.07-.01-.04-.16-.01-.2.03-.05.04-.2.04-.2v.03Z"/>
              <path class="cls-5" d="M14.76,10.58s.02.09.02.14c0,.04,0,.09-.03.13-.01.03-.04.1-.09.09-.07-.02,0-.17.02-.2.04-.04.07-.19.07-.19v.03Z"/>
              <path class="cls-5" d="M14.85,10.74s.02.09.02.14c0,.04-.01.09-.03.13-.02.03-.05.1-.09.09-.07-.02-.01-.17.02-.2.04-.04.07-.19.07-.19v.03Z"/>
              <path class="cls-5" d="M14.37,9.94s.04.08.06.13c.01.04.02.09.01.13,0,.03-.02.11-.06.11-.07,0-.05-.16-.03-.2.02-.05.02-.2.02-.2l.02.02Z"/>
              <path class="cls-5" d="M14.19,9.67s.06.08.08.13c.02.04.03.09.03.14,0,.04,0,.12-.04.13-.07.01-.08-.16-.07-.2.02-.06-.02-.21-.02-.21l.02.02Z"/>
              <path class="cls-5" d="M14.09,10.33s.04.09.06.13c.03.03.06.07.09.09.03.02.09.05.13.02.05-.06-.09-.14-.13-.15-.06-.01-.16-.11-.16-.11v.03Z"/>
              <path class="cls-5" d="M14.18,10.56s.05.08.08.12c.03.03.06.06.11.08.03.01.1.04.13,0,.04-.06-.1-.13-.15-.14-.06,0-.18-.09-.18-.09v.03Z"/>
              <path class="cls-5" d="M14.28,10.79s.06.07.1.11c.03.03.07.05.11.06.03.01.11.03.13-.01.03-.07-.12-.11-.17-.11-.06,0-.19-.06-.19-.06l.02.02Z"/>
              <path class="cls-5" d="M14.33,10.98s.06.07.1.11c.03.03.07.05.12.06.03.01.11.03.13-.01.03-.07-.12-.11-.17-.11-.06,0-.19-.06-.19-.06l.02.02Z"/>
              <path class="cls-5" d="M14.94,10.91s.02.09.02.14c0,.04,0,.09-.03.13-.01.03-.04.1-.09.09-.07-.02-.01-.16.02-.2.04-.04.07-.19.07-.19v.03Z"/>
              <path class="cls-5" d="M14.46,11.21s.07.07.11.09c.04.02.08.04.12.05.03,0,.11.02.12-.03.02-.07-.13-.1-.18-.09-.06,0-.19-.04-.19-.04l.02.02Z"/>
              <path class="cls-5" d="M14.01,10.1s.04.09.06.13c.03.04.06.07.09.09.03.02.1.06.13.02.05-.06-.08-.14-.13-.15-.06-.01-.17-.11-.17-.11v.03Z"/>
              <path class="cls-5" d="M13.91,9.8c0,.05.02.1.05.15.02.04.05.08.09.11.03.02.09.08.13.05.05-.05-.07-.16-.11-.18-.06-.02-.15-.15-.15-.15v.03Z"/>
              <path class="cls-5" d="M13.9,9.58s.07.03.07.03c.03.01.06.03.08.05.05.04.09.09.08.16,0,.01,0,.03-.01.04-.02.02-.04.02-.06.01-.04-.02-.08-.06-.11-.09-.04-.05-.06-.13-.05-.2Z"/>
            </g>
          </g>
        </g>
        <g>
          <path class="cls-5" d="M11.47,9.62s-.05,0-.06.02c0,0-.02.02-.01.03,0,.02.03.03.05.03.02,0,.05,0,.06-.02.01-.02,0-.03.02-.03.01,0,.02.02.05.02.03,0,.06-.01.07-.01.02-.02.02-.04.04-.08.03-.05.06-.09.08-.1.04-.03.08-.06.08-.06.03-.02.05-.03.05-.05,0-.02-.01-.04-.03-.04-.01,0-.02.02-.04.03-.03.04-.04.03-.11.09-.04.04-.06.05-.08.08-.02.04-.03.07-.04.07-.02,0-.02-.05-.05-.05-.01,0-.01.01-.04.04,0,0-.02.02-.04.03Z"/>
          <path class="cls-5" d="M11.86,9.45s-.03,0-.05.02c0,0-.03.02-.02.04,0,.01.02.01.02.03,0,.01,0,.02,0,.04,0,0-.01.04-.02.08,0,.02,0,.05,0,.06.01,0,.04,0,.05-.03.03-.05-.02-.12,0-.15.02-.02.03-.03.03-.03,0,0,.01,0,.02-.02,0,0,0-.02,0-.03,0,0-.02,0-.03,0Z"/>
          <path class="cls-5" d="M12.15,9.59s-.04.01-.06.02c-.01,0-.03.02-.03.03,0,.02,0,.04.01.05.01,0,.03,0,.04,0,.01-.01.01-.02.02-.03,0,0,.01,0,.02,0,.01,0,0,.03.01.05.01.02.04.02.04.02.03,0,.03-.02.06-.03.04-.02.05,0,.09,0,.01,0,.04-.01.06-.04.02-.04.02-.09,0-.1-.01,0-.03,0-.04,0-.01.01,0,.03-.02.06,0,.02-.02.03-.04.03,0,0,0,0-.01-.03,0-.03,0-.05,0-.05,0,0,0,.04-.03.07,0,0-.02.02-.04.01,0,0-.02-.02-.03-.04-.01-.01-.01-.02-.02-.02,0,0-.02,0-.03,0Z"/>
          <path class="cls-5" d="M12.27,9.4s-.02.05-.01.07c0,.01.02.02.03.02,0,0,0,0,.01-.05,0-.04,0-.05,0-.05,0,0-.02,0-.03,0,0,0,0,.01,0,.02Z"/>
          <path class="cls-5" d="M12.54,9.46s-.02.01-.04.02c-.01.01-.02.02-.02.02-.02.02,0,.05.01.1,0,.06-.01.09,0,.1.01,0,.03,0,.04-.02.03-.04-.03-.09,0-.14,0-.01.02-.02.03-.03.02-.02.04-.02.04-.04,0-.01,0-.03,0-.04,0,0,0,0-.01,0-.01,0-.02.01-.04.03Z"/>
        </g>
        <g>
          <path class="cls-5" d="M9.84,9.51s-.03-.02-.05,0c-.02,0-.03.02-.03.04,0,.03.04.06.08.05.03,0,.04-.02.05-.02.02-.02.02-.05.01-.11-.01-.12-.02-.14,0-.15.01,0,.03.02.08.06.04.04.09.08.14.06.02,0,.04-.03.07-.09.03-.05.03-.06.04-.07.04-.03.08,0,.11-.04.04-.03.03-.1.03-.12,0-.05-.03-.09-.05-.12-.01-.02-.09-.13-.15-.12-.01,0-.03.01-.03.03,0,0,0,.03.05.09.04.05.05.04.07.07.03.04.05.11.02.13-.02.02-.06.01-.08,0-.02-.01-.02-.02-.04-.06-.04-.06-.06-.1-.1-.11-.01,0-.03,0-.03.01,0,.01,0,.03.04.07.06.07.06.07.07.09.02.05,0,.11-.01.12-.01.02-.03.06-.06.06-.03,0-.06-.04-.11-.11-.04-.06-.05-.09-.07-.09-.02,0-.04.04-.04.05-.01.03,0,.05.01.12,0,.03,0,.06,0,.09,0,.08-.02.09-.02.09Z"/>
          <path class="cls-5" d="M9.71,9.27s-.04,0-.05,0c-.02.02.01.08.04.08.02,0,.03-.02.03-.02,0,0,.02-.02,0-.04,0-.01-.02-.02-.03-.02Z"/>
          <path class="cls-5" d="M9.7,9.06s-.03.02-.05.05c0,0-.02.03-.01.04,0,0,.02.02.03.02.03,0,.06-.04.08-.07.02-.02.02-.03.02-.05,0-.04-.07-.07-.11-.08-.01,0-.03,0-.04,0,0,.01,0,.03.01.04.03.03.07.03.07.04Z"/>
          <path class="cls-5" d="M9.89,8.94s-.03-.01-.04,0c-.01,0-.01.03-.01.03,0,0,0,.02.01.03.01.02.04.01.05.01,0,0,.02,0,.03-.03,0-.01,0-.02,0-.03,0,0,.01-.01.05-.02.03,0,.04-.01.05-.02.01-.01.01-.03.01-.04,0-.04-.02-.06-.03-.07s-.04-.04-.07-.03c-.01,0-.03.01-.02.02,0,.01.03.01.04.03,0,0,.01.02.01.03,0,0,0,.02-.02.03-.02,0-.04-.02-.05-.01,0,0,0,0,0,.03,0,.02,0,.04-.01.04Z"/>
          <path class="cls-5" d="M9.82,8.77s.01.04.02.05c0,.01.01.01.02.01,0,0,.01-.02.01-.03,0,0,0-.02-.01-.03-.01-.01-.03-.02-.04-.01Z"/>
          <path class="cls-5" d="M10.07,8.55s-.03.03-.04.04c0,.01-.01.04,0,.05.01,0,.04-.02.06-.03,0,0,.03-.03.03-.05,0,0-.03,0-.04,0Z"/>
          <path class="cls-5" d="M10.22,8.48c0,.06.05.09.12.2.03.05.03.06.09.17.03.05.06.1.12.12.01,0,.03,0,.04,0,.01-.01-.02-.06-.06-.12-.12-.18-.12-.17-.14-.21-.03-.05-.06-.11-.09-.16-.01-.02-.02-.05-.04-.05-.02,0-.03.03-.03.06Z"/>
          <path class="cls-5" d="M10.46,8.32s0,.02,0,.04c.01.03.02.03.02.05,0,.02-.03.03-.03.05,0,.01,0,.02.01.03.02.01.1-.05.09-.12,0,0,0-.03-.02-.05-.02-.02-.05-.02-.06-.01Z"/>
          <path class="cls-5" d="M11.23,8.42s-.04.03-.08.06c-.05.04-.08.04-.08.05,0,.01.03.02.06.02.08,0,.15-.09.14-.12,0-.01-.03-.02-.04-.02Z"/>
          <path class="cls-5" d="M11.04,8.72s0,.06.03.06c.01,0,.03-.02.03-.03,0-.02.01-.05,0-.06-.02-.01-.04,0-.05.02Z"/>
          <path class="cls-5" d="M11.44,8.1s-.03.03-.04.06c-.02.03-.02.05-.03.05-.01,0-.02-.04-.03-.05-.02,0-.01.05-.05.07-.02.01-.05,0-.07,0-.03-.01-.02-.04-.04-.04-.01,0-.02.01-.06.05-.04.04-.05.04-.06.05-.01,0-.05.02-.08.01-.04-.02-.04-.07-.07-.07-.03,0-.06.03-.08.05-.02.04-.01.1.01.12.03.01.05-.02.09,0,0,0,.03.01.03.03,0,.02-.02.04-.05.07-.04.04-.07.07-.09.08-.02-.04-.04-.06-.06-.12l-.03-.11c-.01-.06-.02-.09-.04-.09-.02,0-.04,0-.05.02-.02.03,0,.06.01.09.04.1.01.09.05.18.02.04.03.06.04.08-.06.03-.09.04-.11.08,0,0-.02.04,0,.06.02.02.08-.02.15-.07,0,0,0,0,0,.01.03.08.07.17.03.26-.04.08-.16.1-.18.11-.03,0-.07,0-.1-.01-.06-.03-.08-.12-.1-.11-.01,0-.01.02-.02.03-.01.05.01.1.02.1.04.06.13.07.15.07.13.01.22-.09.24-.11.02-.03.07-.09.08-.19,0-.08-.02-.14-.04-.19h0c.06-.06.1-.08.12-.12.04-.06.02-.08.07-.16.02-.04.06-.1.11-.1.03,0,.04.03.08.03.03,0,.04-.02.07-.03.04,0,.06.02.09.01s.05-.04.05-.05c.03-.06,0-.14-.03-.14ZM10.91,8.35s-.03,0-.03-.03c0-.01,0-.02,0-.03,0,0,.01,0,.02.01.01.01.01.01.02.01,0,0,0,.02,0,.02Z"/>
          <path class="cls-5" d="M11.98,8.48c-.08,0-.19,0-.2-.03,0,0,0-.01.05-.04.07-.05.11-.08.12-.09.07-.03.1,0,.13-.04.03-.03.03-.09,0-.12-.02-.03-.07-.04-.09-.02-.01.01-.02.03-.02.04.01.01.04,0,.05.02,0,.01-.01.03-.01.04-.02.03-.06.03-.08.04-.02,0-.12.02-.18.08-.03.03-.06.08-.04.11,0,.02.04.02.09.04.05.02.08.02.08.03s-.03.02-.06.05c-.02.02-.03.04-.04.06-.01-.02-.02-.03-.03-.05-.07-.12-.1-.18-.11-.19-.03-.11-.01-.18-.06-.21-.02,0-.04-.02-.06,0,0,0-.02.02,0,.07,0,.06.03.08.07.16.04.09.07.13.06.18,0,.03-.01.04-.02.06-.1.07-.11.09-.16.12-.04.02-.09.04-.13.02,0,0-.02,0-.02-.01,0-.01.02-.03.04-.05.07-.09.09-.14.09-.16.02-.06.05-.11.02-.15-.01-.02-.04-.03-.07-.03-.02,0-.04.02-.04.04,0,.01,0,.02.01.04.02.03.03.06.03.08,0,.03-.03.04-.08.1-.02.02-.03.04-.04.06-.02-.06-.02-.14,0-.16,0,0,0-.01,0-.02,0,0-.02,0-.03,0-.01,0-.02.02-.02.02-.02.05.01.15.01.15,0,.02.01.03.02.04,0,.01-.02.03-.04.05-.03.03-.05.05-.09.1-.03.04-.05.06-.04.08,0,.01.01.02.02.02.03,0,.06-.04.11-.12.03-.04.05-.06.06-.08.01.02.03.04.05.05.06.03.14-.02.25-.09.01,0,.04-.03.08-.07.01,0,.02,0,.03.01.05.03.04.08.1.13.03.03.07.05.09.04,0,0,.01-.02-.05-.15-.01-.02-.02-.04-.03-.05.05-.09.1-.13.14-.14.05-.01.09,0,.16-.01.05-.02.11-.05.11-.07s-.07,0-.22,0Z"/>
          <path class="cls-5" d="M11.94,7.99c-.06.03-.08.09-.09.12,0,.02,0,.02,0,.02.01.01.07-.03.11-.08.02-.02.06-.06.05-.07,0-.01-.04,0-.06,0Z"/>
          <path class="cls-5" d="M11.75,8.06s-.04.01-.08.04c-.02.02-.03.03-.03.03,0,.01.02.01.04.01.02,0,.04-.01.07-.04.03-.03.03-.03.03-.04,0-.01-.02-.02-.03-.02Z"/>
          <path class="cls-5" d="M11.75,8.2s-.02.02-.03.03-.03,0-.03,0c-.01,0-.01.03,0,.04,0,.01.02,0,.06,0,.02,0,.03,0,.04-.01.01-.02,0-.04,0-.06,0,0,0-.03-.02-.03,0,0,0,0-.01.01Z"/>
          <path class="cls-5" d="M12.3,8.14s-.04.04-.05.06c0,.02-.01.03,0,.04s.03,0,.04,0c.01,0,.01-.01.04-.04.01,0,.01-.01.02-.02,0,0,0-.02,0-.03-.01-.01-.03,0-.04,0Z"/>
          <path class="cls-5" d="M12.42,8.32s0,.02.01.04c.02.02.04.03.05.03.02,0,.03,0,.08,0,.03,0,.03,0,.04,0,.03-.02.01-.09,0-.1,0-.02-.02-.05-.03-.05-.02,0-.01.09-.03.09-.01,0-.02-.02-.03-.02-.02,0-.01.05-.03.05-.02,0-.06-.05-.06-.04Z"/>
          <path class="cls-5" d="M12.49,8.16s.01.05.03.05c.02,0,.03-.02.03-.04,0-.01,0-.02-.02-.03-.02,0-.03,0-.04.02Z"/>
          <path class="cls-5" d="M12.01,8.63s-.03.03-.04.06c0,.02,0,.04.02.1.03.08.04.13.07.13.02,0,.03-.02.07-.07.11-.14.13-.14.13-.14.02,0-.04.11,0,.18.03.04.08.07.13.06.06-.01.06-.09.11-.09s.05.08.11.09c.04,0,.07-.03.09-.06.05-.06.06-.12.08-.18.02-.09.03-.16,0-.19-.03-.02-.08-.02-.09,0,0,.01.02.03.03.07,0,.02,0,.04,0,.08-.03.16-.05.18-.06.18,0,0-.03.02-.06.02-.03,0-.05-.05-.05-.06,0-.03,0-.05,0-.06.02-.14.04-.2.01-.26,0-.01-.03-.03-.04-.03-.02,0-.02.03-.03.12,0,.16,0,.19-.02.24-.03.04-.07.06-.1.05-.01,0-.03-.02-.03-.1,0-.14.04-.24.02-.25,0,0-.03.02-.1.1-.11.14-.15.2-.17.19-.01,0-.02-.04-.04-.11-.01-.06-.01-.08-.02-.08Z"/>
          <path class="cls-5" d="M13.06,8.67c-.03-.06-.03-.09-.04-.11.01-.02.02-.05.03-.08.04-.12.08-.18.06-.22-.01-.01-.03-.02-.05-.02-.03.01-.03.07-.04.16,0,.03-.01.05-.02.07,0,0,0-.01-.01-.02-.06-.11-.09-.09-.17-.23-.02-.02-.03-.06-.05-.05-.02,0-.04.06-.03.1.01.06.08.07.15.14.04.04.06.07.08.12-.01.02-.02.05-.03.1-.03.1-.01.09-.04.18-.02.08-.05.13-.03.15.01.01.04,0,.06,0,.04-.03.03-.09.04-.17,0-.06.01-.11.03-.17.06.17.04.3.09.31.02,0,.04,0,.05-.02.03-.04-.02-.11-.08-.24Z"/>
          <path class="cls-5" d="M13.15,8.49s-.03.02-.03.04c0,.03.03.05.05.06.03,0,.07,0,.08-.04,0-.02,0-.04-.02-.05-.02,0-.03.02-.05.02-.02,0-.02-.03-.03-.03Z"/>
          <path class="cls-5" d="M13.22,8.41s.09,0,.1-.01c.01,0,.04-.02.04-.03,0-.01-.03-.01-.06-.02-.04,0-.06,0-.07,0-.01.01-.01.04,0,.05Z"/>
          <path class="cls-5" d="M12.88,9.03s-.02.04,0,.05c.02.04.12.02.16.01.05-.01.12-.03.18-.08.04-.04.06-.09.09-.2.05-.15.02-.18.07-.24.03-.04.06-.05.07-.09,0-.04-.02-.08-.03-.1-.01-.02-.02-.02-.02-.02-.02,0-.02.05-.03.08,0,.03,0,0-.08.24-.05.15-.05.17-.07.21-.04.07-.05.11-.09.13-.09.05-.2-.03-.24.02Z"/>
          <path class="cls-5" d="M13.58,8.46c-.06.07-.07.18-.08.22-.04.21-.15.34-.14.34.01,0,.08-.08.08-.09.11-.15.08-.21.17-.34.04-.06.09-.11.07-.15,0-.01-.02-.03-.04-.03,0,0-.03,0-.07.04Z"/>
          <path class="cls-5" d="M13.61,8.79s-.03.04-.02.06c0,.01.02.01.04.01.01,0,.05,0,.06,0,0,0-.01-.01-.02-.04-.01-.03,0-.04-.01-.05-.01,0-.03,0-.05.02Z"/>
          <path class="cls-5" d="M13.54,8.99s-.01.02-.01.03c0,.01.03.01.04.01.1,0,.13.03.16,0,.01-.01.02-.03.02-.04,0-.01-.04,0-.09,0-.06,0-.11-.03-.12-.02,0,0,0,0,0,.02Z"/>
          <path class="cls-5" d="M14.17,8.77s-.03.05-.07.13c-.02.05-.05.12-.09.18,0-.03,0-.07-.02-.12,0-.03-.01-.06-.01-.09.02-.03.04-.07.06-.1.02-.03.05-.07.03-.09-.01-.02-.04-.03-.06-.02-.03.01-.04.06-.05.12-.02-.08-.04-.14-.07-.19-.01-.02-.03-.04-.05-.04-.02,0-.04.04-.04.07,0,.07.04.11.09.19.01.02.02.04.03.06-.02.03-.04.06-.09.16-.04.08-.05.12-.09.16-.01.01-.08.09-.12.07,0,0-.01-.01-.03-.11-.01-.05-.01-.07-.02-.08-.02-.01-.04,0-.09.01-.06.02-.07.04-.12.04-.03,0-.05,0-.07,0-.04-.02-.02-.08-.05-.09-.01,0-.03,0-.04.01-.02.03-.01.09.03.13.05.05.15.03.22,0,.03-.02.05-.04.06-.03.02.01-.01.08.03.16,0,.02.02.05.05.06.06.03.16-.07.17-.08.11-.11.05-.17.16-.32,0-.01.02-.02.02-.03.01.05.02.1.03.16,0,.01,0,.03,0,.04,0,.01-.02.02-.03.03,0,0-.03.03-.06.09-.01.03-.02.05-.02.08,0,.01,0,.03.02.03.02,0,.03-.09.09-.19,0,.09,0,.16.02.16.01,0,.03-.02.04-.03.01-.03,0-.05,0-.09,0-.02,0-.01-.01-.1h0s.03-.05.06-.07c0,0,.11-.11.14-.18,0,0,0-.02,0-.04,0-.03-.02-.07-.04-.07Z"/>
          <path class="cls-5" d="M13.72,9.42s-.02.03-.02.05c.02.05.16.08.27.04.06-.02.1-.07.17-.16.11-.14.1-.2.19-.28,0-.01.03-.03.04-.06.02-.06-.01-.15-.04-.15-.01,0-.02.02-.02.04-.03.09-.08.17-.11.26-.03.07-.09.24-.23.28-.04.01-.13.04-.19,0-.02-.01-.04-.03-.06-.03Z"/>
        </g>
        <path class="cls-5" d="M12.55,9.29l.32-.1-.33.16c-.09-.07-.3-.11-.54-.11s-.45.05-.54.11l-.33-.16.32.1s-.09-.1-.1-.11h0s.18.08.18.08l-.14-.19.26.16-.06-.13.13.11-.05-.22.2.21v-.15l.08.15.06-.22.07.22.08-.15v.15l.19-.21-.05.22.13-.11-.06.13.26-.16-.14.19s.17-.08.18-.08l-.1.11Z"/>
      </g>
    </g>
  </g>
</svg>