<?xml version="1.0" encoding="UTF-8"?>
<svg id="Layer_1" data-name="Layer 1" xmlns="http://www.w3.org/2000/svg" viewBox="0 0 24 24">
  <defs>
    <style>
      .cls-1 {
        fill: #feb51d;
      }

      .cls-1, .cls-2, .cls-3, .cls-4 {
        stroke-width: 0px;
      }

      .cls-2 {
        fill: #000;
      }

      .cls-3 {
        fill: none;
      }

      .cls-4 {
        fill: #0f1f4a;
      }
    </style>
  </defs>
  <rect class="cls-3" width="24" height="24"/>
  <g>
    <path class="cls-2" d="M16.71,7.34c2.92,2.92,3.18,7.42.57,10.03-2.61,2.61-7.11,2.36-10.03-.57-2.92-2.92-3.18-7.42-.57-10.03,2.61-2.61,7.11-2.36,10.03.57Z"/>
    <g>
      <path class="cls-4" d="M21,12c0,1.64-.44,3.18-1.21,4.5-1.56,2.69-4.47,4.5-7.79,4.5s-6.23-1.81-7.79-4.5c-.77-1.32-1.21-2.86-1.21-4.5s.44-3.18,1.21-4.5c1.56-2.69,4.47-4.5,7.79-4.5s6.23,1.81,7.79,4.5c.77,1.33,1.21,2.86,1.21,4.5Z"/>
      <polygon class="cls-1" points="16.44 5.67 16.64 6.28 17.28 6.28 16.76 6.66 16.96 7.27 16.44 6.89 15.92 7.27 16.12 6.66 15.6 6.28 16.24 6.28 16.44 5.67"/>
      <g>
        <polygon class="cls-1" points="14.84 15.58 14.95 15.95 15.34 15.95 15.03 16.17 15.15 16.54 14.84 16.31 14.53 16.54 14.64 16.17 14.33 15.95 14.72 15.95 14.84 15.58"/>
        <polygon class="cls-1" points="13.58 17.36 13.7 17.72 14.08 17.72 13.77 17.95 13.89 18.31 13.58 18.08 13.27 18.31 13.39 17.95 13.08 17.72 13.46 17.72 13.58 17.36"/>
        <polygon class="cls-1" points="10.37 16.29 10.49 16.66 10.87 16.66 10.56 16.88 10.68 17.25 10.37 17.02 10.06 17.25 10.18 16.88 9.87 16.66 10.25 16.66 10.37 16.29"/>
        <polygon class="cls-1" points="10.56 14.07 10.68 14.43 11.06 14.43 10.75 14.65 10.87 15.02 10.56 14.79 10.25 15.02 10.37 14.65 10.06 14.43 10.44 14.43 10.56 14.07"/>
        <polygon class="cls-1" points="9.12 12.47 9.24 12.83 9.62 12.83 9.31 13.06 9.43 13.42 9.12 13.2 8.81 13.42 8.93 13.06 8.62 12.83 9 12.83 9.12 12.47"/>
        <polygon class="cls-1" points="7.71 10.94 7.83 11.31 8.21 11.31 7.9 11.53 8.02 11.89 7.71 11.67 7.4 11.89 7.51 11.53 7.21 11.31 7.59 11.31 7.71 10.94"/>
        <polygon class="cls-1" points="4.84 9.88 4.96 10.25 5.35 10.25 5.04 10.47 5.15 10.84 4.84 10.61 4.53 10.84 4.65 10.47 4.34 10.25 4.73 10.25 4.84 9.88"/>
      </g>
    </g>
  </g>
</svg>