<?xml version="1.0" encoding="UTF-8"?>
<svg id="Layer_1" data-name="Layer 1" xmlns="http://www.w3.org/2000/svg" viewBox="0 0 24 24">
  <defs>
    <style>
      .cls-1 {
        fill: #000;
      }

      .cls-1, .cls-2, .cls-3 {
        stroke-width: 0px;
      }

      .cls-2 {
        fill: none;
      }

      .cls-3 {
        fill: #e31e1f;
      }
    </style>
  </defs>
  <rect class="cls-2" width="24" height="24"/>
  <g>
    <path class="cls-1" d="M16.71,7.34c2.92,2.92,3.18,7.42.57,10.03-2.61,2.61-7.11,2.36-10.03-.57s-3.18-7.42-.57-10.03c2.61-2.61,7.11-2.36,10.03.57Z"/>
    <g>
      <path class="cls-3" d="M21,12c0,4.96-4.04,9-9,9S3,16.96,3,12,7.04,3,12,3s9,4.04,9,9Z"/>
      <path class="cls-1" d="M17.18,15c-.26-.31-.54.02-.54.02l-.72.03s.14-.14.42-.32c.36.1.46-.17.48-.22.02-.05.1-.07.28-.07-.08-.14-.22-.12-.41-.07-.41-.22-.47.23-.47.23l-.52.36s-.86-.21-1.17-.3c0,0,0-.01,0-.01,0,0,.21-.25.24-.38.04-.13-.28-.13-.66-.19-.38-.07-.74-.85-.85-1.08-.11-.23.13-.26.22-.17.09.09.39.73.59.84.2.11.35-.12.17-.24-.18-.12-.28-.6-.28-.74s.29-.17.29.08.2.61.39.8c.19.19.47.41.6.19.13-.21-.05-.25-.3-.42-.24-.18-.34-.41-.35-.49,0-.08,0-.43.25-.26.24.16.38.48.8.9.42.42.77.63,1.2.48.11-.03.23-.1.26-.22.03-.11-.04-.24-.14-.28-.07-.03-.16-.04-.23-.04-.25,0-.54.01-.77-.12-.31-.18-.75-.8-.75-1.09s.19,0,.45.27c.12.12.26.21.41.3.16.09.35.2.54.24.12.02.25.01.35-.05.1-.07.24-.32.12-.42-.11-.09-.35-.03-.48-.02-.43.04-.79-.34-1-.54-.2-.2-.28-.27-.28-.52s.54.19.89.39c.35.21.75.14.89,0,.09-.09.1-.25,0-.35-.14-.13-.38-.04-.55-.04-.2,0-.39-.08-.57-.18-.16-.08-.31-.18-.45-.29-.08-.06-.16-.13-.2-.22-.01-.03-.02-.06,0-.09.02-.03.06-.04.09-.04.04,0,.07.03.1.04.34.2.72.33,1.12.33.08,0,.17,0,.25-.04.08-.03.15-.08.19-.16.06-.12,0-.36-.16-.39-.05-.01-.11,0-.16.02-.1.04-.17.12-.27.15-.08.03-.16.04-.24.03-.15-.01-.28-.08-.41-.15-.16-.09-.32-.18-.47-.29-.07-.04-.14-.11-.13-.19,0-.07.09-.12.16-.12.07,0,.14.03.21.06.24.11.5.21.77.21s.55-.1.71-.31c.03-.04.06-.08.07-.14.02-.08-.01-.16-.06-.23-.04-.06-.13-.11-.2-.09-.08.02-.15.08-.21.13-.09.06-.18.11-.27.16-.33.17-1-.11-1.06-.26-.07-.16-.05-.2.19-.2s.6.17,1.18-.07c.26-.11.52-.33.4-.64-.02-.05-.05-.1-.1-.13-.08-.05-.16-.01-.23.03-.09.06-.17.13-.24.2-.16.17-.39.2-.61.22-.1,0-.21.01-.32,0-.06,0-.15-.01-.2-.06-.11-.11-.06-.24,0-.3.02-.02.12-.02.15-.02.05-.01.1-.02.14-.03.35-.07.72-.18,1.01-.4.09-.07.17-.15.24-.24.12-.16.24-.38.22-.59,0-.13-.1-.27-.25-.22-.14.05-.25.2-.33.32-.46.67-1.27.77-1.27.77l-.11-.11c-.14-.14-.28.03-.71.18s-.66.4-.66.57c.08.84-.41.8-.59.74s-.29-.29-.22-.56c.07-.27.4-.84.97-.94.57-.11.77-.19.86-.32-.04.04-.32.05-.42.05s-.12-.07-.12-.12.62.04.87-.1c.25-.14.35-.27.25-.37-.1-.1-.22,0-.36.2s-.51.14-.67.11c.06-.21.42-.2.51-.12.11-.37-.53-.29-.53-.29,0,0,0-.01,0-.02-.08-.15-.35-.17-.5-.17-.24,0-.47.14-.7.22-.26.08-.58.08-.58.12s.08.08.33.27c-.1,0-.41.26-.48.4.06-.02.3.02.3.02,0,0-.36.12-.54.31.05.03.05.02.17.09-.06.06-.41.47-.41.47,0,0-.35-.41-.41-.47.12-.07.11-.05.17-.09-.18-.19-.54-.31-.54-.31,0,0,.24-.03.29-.02-.07-.14-.38-.4-.48-.4.25-.19.33-.24.33-.27s-.32-.03-.58-.12c-.23-.07-.45-.22-.7-.22-.15,0-.42.02-.5.17,0,0,0,.01,0,.02,0,0-.63-.08-.53.29.08-.08.44-.09.5.12-.16.03-.53.09-.67-.11-.14-.2-.26-.3-.36-.2-.1.1,0,.22.25.37.24.15.87.06.87.1s-.02.12-.12.12-.38,0-.43-.05c.09.13.29.22.87.32.57.11.9.67.97.94.07.27-.04.5-.22.56s-.67.1-.59-.74c0-.17-.23-.42-.66-.57s-.57-.32-.71-.18c-.08.08-.11.11-.11.11,0,0-.81-.09-1.27-.77-.08-.12-.19-.27-.33-.32-.14-.05-.24.09-.24.22-.02.21.1.43.22.59.07.09.15.17.24.24.29.22.65.33,1.01.4.05.01.09.02.14.03.03,0,.13,0,.15.02.05.05.11.19,0,.3-.04.05-.13.05-.19.06-.11,0-.21,0-.32,0-.22-.02-.45-.05-.61-.22-.07-.07-.16-.15-.24-.2-.07-.04-.15-.08-.23-.03-.05.03-.08.08-.1.13-.12.31.14.53.4.64.59.24.94.07,1.18.07s.26.05.19.2c-.07.16-.73.43-1.06.26-.09-.05-.18-.1-.27-.16-.06-.04-.14-.11-.21-.13-.07-.02-.16.03-.2.09-.05.06-.08.15-.06.23.01.05.04.09.07.14.17.21.44.31.71.31s.53-.09.77-.21c.06-.03.13-.06.21-.06.07,0,.15.05.16.12.01.08-.06.15-.13.19-.15.1-.31.2-.47.29-.13.07-.26.14-.41.15-.08,0-.16,0-.24-.03-.1-.03-.18-.11-.27-.15-.05-.02-.11-.03-.16-.02-.15.03-.22.26-.15.39.04.07.11.13.19.16s.16.04.25.04c.39,0,.78-.13,1.12-.33.03-.02.06-.04.1-.04.04,0,.08,0,.09.04.01.03,0,.06,0,.09-.04.09-.12.16-.2.22-.14.11-.29.21-.45.29-.18.1-.37.18-.57.18-.17,0-.4-.09-.55.04-.1.09-.08.25,0,.35.14.14.55.21.89,0,.35-.2.89-.64.89-.39s-.08.32-.28.52c-.2.2-.56.58-1,.54-.13-.01-.37-.07-.48.02-.13.1.01.35.12.42.1.07.23.08.35.05.19-.04.38-.14.54-.24.14-.09.29-.18.41-.3.26-.26.45-.56.45-.27s-.44.91-.75,1.09c-.22.13-.52.12-.76.12-.08,0-.16,0-.23.04-.1.05-.17.17-.14.28.03.12.16.18.26.22.43.14.78-.06,1.2-.48.42-.42.56-.74.8-.9.24-.16.25.18.25.26,0,.08-.1.32-.35.49-.24.17-.43.21-.3.42.13.21.41,0,.6-.19.19-.19.39-.54.39-.8s.3-.23.3-.08-.1.62-.28.74c-.19.12-.03.35.17.24s.5-.75.59-.84c.09-.09.33-.06.22.17-.11.23-.47,1.01-.85,1.08-.38.07-.7.07-.66.19.04.13.24.38.24.38h0c-.31.1-1.17.31-1.17.31l-.52-.36s-.06-.44-.47-.23c-.19-.04-.32-.07-.41.07.18,0,.26.02.28.07s.12.32.48.22c.28.18.42.32.42.32l-.72-.03s-.27-.32-.54-.02c-.14.02-.32.11-.29.21.22-.07.28-.04.28-.04,0,0,.24.32.5,0,.36.02.7.02.7.02l-.41.22s-.37-.12-.46.26c-.08.15-.1.4-.1.4l.19-.26s.39.07.47-.21c.22-.13.58-.35.58-.35l.57.21s0,.29.48.22c.13.13.16.19.16.19,0,0,.04-.24-.07-.36-.04-.21-.19-.31-.44-.22-.42-.15-.47-.17-.47-.17l1.11-.27c.13.16.3.36.42.36.21,0,.41-.21.56-.62.16-.41.37-.69.53-.72.16-.03.32-.13.32.2s-.07.62-.28.83-.43.49-.72.54c-.29.04-.71-.05-.61.21.09.26.33.35.49.28.16-.07.45-.38.58-.32.13.07.24.2.04.34-.13.09-.26.18-.4.25-.06.03-.13.06-.2.07-.07.02-.15,0-.22.02-.05,0-.1.04-.11.09,0,.04.01.08.04.11.12.14.24.18.42.14.23-.05.52-.36.64-.39.13-.04.15-.02.12.13-.03.15-.06.37-.37.49-.1.04-.2.06-.31.06-.03,0-.06,0-.07.03-.02.03,0,.07.02.1.05.08.1.15.19.19.09.04.19.03.27-.02.19-.13.36-.33.43-.47.07-.14.19-.21.23-.08.03.13.12.18-.02.43-.14.25-.38.29-.34.44.04.14.42.85.74,1.03h0c.32-.18.7-.89.74-1.03.04-.14-.2-.19-.34-.44-.14-.25-.05-.29-.02-.43.03-.14.16-.06.23.08.07.14.24.34.43.47.08.05.18.06.27.02.09-.04.14-.11.19-.19.02-.03.04-.06.02-.1-.01-.02-.04-.03-.07-.03-.11,0-.21-.02-.31-.06-.31-.12-.34-.34-.37-.49-.03-.15,0-.17.12-.13.13.04.41.34.64.39.18.04.31,0,.42-.14.02-.03.04-.07.04-.11-.01-.05-.06-.08-.11-.09-.07-.02-.15,0-.23-.02-.07-.01-.13-.04-.19-.07-.14-.07-.27-.16-.4-.25-.19-.14-.09-.27.04-.34.13-.07.42.25.58.32s.4-.02.49-.28c.09-.26-.32-.17-.61-.21-.29-.04-.51-.33-.72-.54s-.28-.49-.28-.83.16-.23.32-.2c.16.03.37.3.53.72.15.42.35.62.56.62.12,0,.3-.19.42-.36l1.11.27s-.05.02-.47.17c-.25-.08-.4.01-.44.22-.11.12-.07.36-.07.36,0,0,.03-.07.16-.19.47.07.48-.22.48-.22l.57-.21s.36.21.58.35c.08.28.47.21.47.21l.19.26s-.02-.25-.1-.4c-.08-.37-.46-.26-.46-.26l-.42-.22s.35,0,.7-.02c.26.32.5,0,.5,0,0,0,.05-.03.28.04.02-.11-.16-.19-.29-.21ZM13.91,7.16c.11,0,.2.05.2.11s-.09.11-.2.11-.2-.05-.2-.11.09-.11.2-.11ZM10.09,7.37c-.11,0-.2-.05-.2-.11s.09-.11.2-.11.2.05.2.11-.09.11-.2.11Z"/>
    </g>
  </g>
</svg>