<?xml version="1.0" encoding="UTF-8"?>
<svg id="Layer_1" data-name="Layer 1" xmlns="http://www.w3.org/2000/svg" viewBox="0 0 24 24">
  <defs>
    <style>
      .cls-1 {
        fill: #000;
      }

      .cls-1, .cls-2, .cls-3, .cls-4, .cls-5 {
        stroke-width: 0px;
      }

      .cls-2 {
        fill: #d11133;
      }

      .cls-3 {
        fill: none;
      }

      .cls-4 {
        fill: #fff;
      }

      .cls-5 {
        fill: #006133;
      }
    </style>
  </defs>
  <rect class="cls-3" width="24" height="24"/>
  <g>
    <path class="cls-1" d="M16.71,7.34c2.92,2.92,3.18,7.42.57,10.03-2.61,2.61-7.11,2.36-10.03-.57-2.92-2.92-3.18-7.42-.57-10.03,2.61-2.61,7.11-2.36,10.03.57Z"/>
    <g>
      <g>
        <path class="cls-4" d="M21,12c0,4.96-4.04,9-9,9V3c4.96,0,9,4.04,9,9Z"/>
        <path class="cls-5" d="M12,3v18c-4.96,0-9-4.04-9-9S7.04,3,12,3Z"/>
      </g>
      <g>
        <path class="cls-2" d="M13.3,15.6c-1.99,0-3.6-1.61-3.6-3.6s1.61-3.6,3.6-3.6c1.16,0,2.19.55,2.85,1.39-.77-1.37-2.24-2.3-3.93-2.3-2.49,0-4.51,2.02-4.51,4.51s2.02,4.51,4.51,4.51c1.69,0,3.16-.93,3.93-2.3-.66.85-1.69,1.39-2.85,1.39Z"/>
        <polygon class="cls-2" points="14.74 9.87 14.74 11.5 16.28 12 14.74 12.5 14.74 14.13 13.78 12.81 12.24 13.31 13.19 12 12.24 10.68 13.78 11.19 14.74 9.87"/>
      </g>
    </g>
  </g>
</svg>