<?xml version="1.0" encoding="UTF-8"?>
<svg id="Layer_1" data-name="Layer 1" xmlns="http://www.w3.org/2000/svg" viewBox="0 0 24 24">
  <defs>
    <style>
      .cls-1 {
        fill: #000;
      }

      .cls-1, .cls-2, .cls-3, .cls-4, .cls-5, .cls-6, .cls-7, .cls-8, .cls-9, .cls-10 {
        stroke-width: 0px;
      }

      .cls-2 {
        fill: #0865bb;
      }

      .cls-3 {
        fill: #d42b1e;
      }

      .cls-4 {
        fill: none;
      }

      .cls-5 {
        fill: #72402c;
      }

      .cls-6 {
        fill: #081aa6;
      }

      .cls-7 {
        fill: #fdde19;
      }

      .cls-8 {
        fill: #fff;
      }

      .cls-9 {
        fill: #cf1139;
      }

      .cls-10 {
        fill: #c6b27f;
      }
    </style>
  </defs>
  <rect class="cls-4" width="24" height="24"/>
  <g>
    <path class="cls-1" d="M16.71,7.34c2.92,2.92,3.18,7.42.57,10.03-2.61,2.61-7.11,2.35-10.03-.57-2.92-2.92-3.18-7.42-.57-10.03,2.61-2.61,7.11-2.36,10.03.57Z"/>
    <g>
      <g>
        <path class="cls-6" d="M7.71,4.08v15.84c-.75-.4-1.45-.92-2.08-1.55-.98-.98-1.69-2.14-2.12-3.37-.34-.97-.51-1.98-.51-3s.17-2.03.51-3c.43-1.23,1.14-2.38,2.12-3.37.63-.63,1.33-1.15,2.08-1.55Z"/>
        <path class="cls-9" d="M21,12c0,1.02-.17,2.03-.51,3-.43,1.23-1.14,2.38-2.12,3.37-.63.63-1.33,1.15-2.08,1.55V4.08c.75.4,1.45.92,2.08,1.55.98.98,1.69,2.14,2.12,3.37.34.97.51,1.98.51,3Z"/>
        <path class="cls-7" d="M16.29,4.08v15.84c-1.33.72-2.81,1.08-4.29,1.08s-2.95-.36-4.29-1.08V4.08c1.31-.71,2.76-1.07,4.21-1.08h.15c1.45.01,2.9.37,4.21,1.08Z"/>
      </g>
      <g>
        <g>
          <g>
            <path class="cls-10" d="M9.21,9.39c.14.14.27.29.27.49,0,.11-.01.19-.05.26-.03.06-.1.1-.18.1-.09,0-.16-.05-.19-.12-.02-.05-.02-.1,0-.14.01-.02.03-.04.06-.05.03,0,.06,0,.09.01.02.01.04.03.05.06,0,.02,0,.04-.01.05,0,0,0,0,0,0h0s0,0,0,0c-.01,0-.03.01-.05.01,0,0-.01,0-.01.01,0,0,0,.01.01.01.02,0,.04,0,.06-.01h0s0,0,.01,0h0s0,0,0,0h0s.06-.05.07-.09c.02-.07,0-.17-.08-.28s-.16-.21-.25-.3c-.04-.04-.08-.08-.12-.13-.16-.18-.18-.33-.08-.45.03-.04.09-.06.14-.07-.02.05-.02.09-.02.11-.01.15.07.28.14.37.04.05.09.11.14.16Z"/>
            <path class="cls-10" d="M10.29,8.76c-.03.05-.09.06-.14.06-.03-.03-.05-.05-.06-.08-.02-.04,0-.08.02-.1.02-.01.05,0,.08.02,0,0,.01,0,.02,0,0,0,0-.01,0-.02-.04-.04-.08-.05-.12-.03-.04.02-.05.08-.03.13.01.03.04.06.07.09.06.06.16.11.28.15.07.02.14.03.21.03.15,0,.27-.05.35-.11.11-.09.05-.24-.02-.42,0-.02-.02-.05-.03-.07-.06-.17-.05-.4.09-.51.15-.11.41-.02.58.08.01,0,.03.02.04.02.1.06.17.1.37.1s.27-.04.37-.1c0,0,.02-.01.04-.02.14-.08.41-.19.58-.08.15.1.16.34.09.51-.01.03-.02.05-.03.07-.07.18-.13.34-.02.42.08.06.21.11.35.11.07,0,.14-.01.21-.03.12-.04.22-.09.28-.15.03-.03.06-.06.07-.09.02-.05,0-.11-.03-.13-.03-.02-.08-.01-.12.03,0,0,0,.01,0,.02,0,0,.01,0,.02,0,.03-.03.06-.04.08-.02.02.02.04.06.02.1-.01.03-.03.06-.06.08-.04,0-.1,0-.14-.06-.04-.05-.05-.12-.03-.17.01-.03.04-.07.1-.09.07-.02.16-.01.22.02.08.05.08.16.05.23-.04.11-.13.2-.24.27-.13.08-.29.12-.46.12-.58,0-.85-.23-.87-.24,0,0,0,0,0,0-.02-.03-.05-.05-.08-.05-.04,0-.09.04-.1.08-.01.04,0,.07.03.09,0,0,.01,0,.02,0,0,0,0-.01,0-.02-.03-.02-.02-.05-.02-.06.01-.03.04-.06.07-.06.03,0,.05.02.06.04.02.04.03.09.01.14-.02.05-.07.1-.13.1s-.12-.03-.16-.08c-.03-.05-.04-.11-.02-.17.03-.09.09-.14.16-.15.16-.02.43.12.44.12,0,0,0,0,.01,0,0,0,0-.01,0-.01-.02-.09-.03-.17-.02-.23.01-.07.05-.12.09-.17.03-.04.07-.09.08-.15.02-.06.02-.13-.01-.18-.02-.04-.06-.07-.11-.08-.1-.02-.2.03-.28.07h-.01c-.06.04-.1.07-.13.09-.01,0-.02.01-.02.02-.07.05-.18.1-.36.09-.18.01-.28-.04-.36-.09,0,0-.01-.01-.02-.02-.03-.02-.07-.05-.13-.08h-.01c-.08-.05-.18-.1-.28-.08-.05.01-.09.04-.11.08-.03.05-.03.11-.01.18.02.06.05.11.08.15.04.05.08.11.09.17.01.06,0,.14-.02.23,0,0,0,.01,0,.01,0,0,.01,0,.01,0,0,0,.27-.14.44-.12.07,0,.13.06.16.15.02.06.01.12-.02.17-.04.05-.1.08-.16.08s-.11-.05-.13-.1c-.02-.04,0-.1.01-.14.01-.02.03-.04.07-.04.03,0,.06.03.07.06,0,.01.01.04-.02.06,0,0,0,.01,0,.02s.01,0,.02,0c.03-.02.04-.05.03-.09-.01-.04-.05-.08-.1-.08-.03,0-.06.02-.08.05,0,0,0,0,0,0-.02.02-.29.24-.87.24-.17,0-.33-.04-.46-.12-.12-.07-.21-.17-.24-.27-.03-.07-.03-.18.05-.23.06-.04.14-.05.21-.02.06.02.09.06.1.09.02.05,0,.12-.03.17Z"/>
            <path class="cls-10" d="M15.18,8.82c.1.12.07.27-.08.45-.04.04-.08.08-.12.13-.09.09-.18.19-.25.3s-.1.21-.08.28c.01.04.03.07.07.09h0s0,0,.01,0h0s.04.01.06.01c0,0,.01,0,.01-.01,0,0,0-.01-.01-.01-.02,0-.04,0-.05-.01,0,0,0,0,0,0h0s-.02-.04,0-.05c0-.03.03-.05.05-.06.03-.01.06-.02.09-.01.02,0,.04.02.05.05.02.04.02.09,0,.14-.03.07-.1.12-.19.12-.08,0-.15-.03-.18-.1-.03-.06-.05-.15-.05-.26,0-.2.14-.35.27-.49.05-.05.1-.11.14-.16.07-.09.15-.22.14-.37,0-.02,0-.06-.02-.11.05.01.1.03.14.07Z"/>
            <path class="cls-10" d="M15.23,11.38s.05,0,.08-.02c.05-.03.22-.14.2-.5-.02-.41-.28-.49-.32-.5-.02-.03-.05-.06-.08-.08.1-.02.21,0,.3.08.06.06.12.14.16.25.09.25.06.52-.11.72-.09.11-.22.14-.35.1,0,0,.01,0,.02,0,.02-.01.04-.03.05-.05.01,0,.02,0,.04,0Z"/>
            <path class="cls-10" d="M15.43,10.14c.19.09.4.4.4.72s-.18.74-.6.77c-.13.01-.22,0-.28-.06-.08-.06-.09-.18-.06-.26.03-.08.09-.13.17-.13.06,0,.12.05.13.11,0,.05-.03.1-.07.12-.02.01-.05.01-.07,0h0s-.03-.05,0-.09h0s0-.02,0-.02c0,0-.01,0-.02,0h0s-.03.1.02.13h0c.07.04.13.05.19.05.1,0,.19-.04.25-.13.17-.2.21-.48.11-.75-.04-.12-.1-.2-.17-.26-.11-.09-.26-.12-.38-.06-.06.01-.1.08-.09.14,0,.05.05.09.1.09,0,0,.01,0,.01-.01,0,0,0-.01-.01-.01-.04,0-.07-.02-.07-.06,0-.04.02-.09.07-.11.05-.01.1.03.12.07.03.07.02.15-.02.21-.03.04-.08.07-.14.07-.06,0-.12-.03-.16-.08-.08-.11-.07-.29.04-.39h0s0,0,0,0c.15-.14.33-.16.53-.06Z"/>
            <path class="cls-10" d="M15.26,12.95s0-.01,0-.02c0-.01-.01-.04,0-.08,0-.02,0-.03.02-.04.03-.06.11-.07.11-.07.07,0,.12.04.13.05.02.02.03.04.03.05-.03-.01-.05-.02-.09-.02s-.07,0-.1.02-.06.04-.07.08c0,.01,0,.02,0,.03Z"/>
            <path class="cls-10" d="M15.31,13.07s-.03-.05-.03-.08c0,0,0,0,0,0,0-.02,0-.04.01-.06.03-.07.11-.09.15-.09s.07.01.1.03c0,0,0,0,.01.01.02.03.03.06.03.09-.04-.02-.08-.03-.13-.02-.06,0-.11.06-.13.11Z"/>
            <path class="cls-10" d="M15.59,13.03s.05.09.05.16c0,.07-.04.12-.09.15-.07.03-.16.03-.26-.01-.03-.02-.06-.03-.09-.05-.25-.16-.51-.32-.5-.75,0-.23.04-.42.12-.57.08-.15.29-.4.53-.28.07.04.11.12.09.21,0,.04-.02.07-.05.09-.03.03-.08.04-.13.03-.05-.01-.1-.05-.12-.09,0-.01,0-.02-.01-.03,0-.03,0-.06.02-.08.01,0,.02-.01.02-.01.02,0,.06,0,.09.01,0,0,.01.01.01.01,0,0,0,.01.01.01,0,0,.01,0,.01-.01,0-.01,0-.03-.02-.04-.03-.02-.08-.02-.11-.01h-.01s0,0-.01.01c-.06.04-.25.18-.29.57-.05.47.29.79.52.89h0s0,0,.01,0c.04.02.08.02.11,0,.04-.02.05-.07.05-.07,0,0,0-.01,0-.01,0,0-.01,0-.01.01,0,0,0,.04-.03.05-.02.01-.05.01-.09,0,0,0,0,0-.01,0-.05-.03-.04-.08-.04-.11.01-.05.06-.11.12-.12.03,0,.08,0,.13.03l.02.02Z"/>
            <path class="cls-10" d="M14.87,12.35c.03-.29.15-.44.23-.51,0,.02,0,.03,0,.05,0,.01,0,.02,0,.03-.02.03-.04.07-.05.11-.04.09-.12.29-.04.52.05.14.14.24.21.3,0,.04,0,.08,0,.09s0,.02.01.03c-.03-.01-.05-.03-.08-.05-.05-.05-.08-.1-.1-.14,0,0-.01-.01-.02,0,0,0-.01.01,0,.02.02.04.05.09.11.15.03.03.07.05.11.07,0,.03.02.07.04.09,0,.03,0,.06,0,.08-.22-.12-.49-.41-.44-.83Z"/>
            <path class="cls-10" d="M12.85,15.56s.02.06,0,.09c-.01.02-.03.02-.04.02-.03,0-.07,0-.1-.03-.06-.05-.06-.15-.02-.2.02-.03.07-.06.12-.06.07,0,.13.02.18.06.07.08.05.2.02.25-.05.1-.17.17-.28.15-.14-.02-.22-.13-.24-.23-.03-.17.1-.31.16-.36.14-.15.48-.25.99-.3.16-.01.23-.01.29-.01s.12,0,.24-.01c.39-.04.69-.08.95-.3.19-.17.29-.36.3-.56,0-.09-.01-.25-.13-.4-.13-.17-.42-.33-.62-.2-.08.06-.15.17-.17.28,0,.04,0,.09,0,.12-.05-.06-.1-.18-.04-.36.04-.11.14-.16.22-.18.2-.05.45.01.55.11,0,0,.01,0,.02,0,0,0,0-.01,0-.02-.1-.09-.36-.16-.57-.12.07-.07.21-.15.51,0,.03.02.06.03.09.05h0s0,0,0,0c.47.28.32.79.3.85-.12.36-.44.8-1.34.85-.2.01-.36.02-.49.02-.53.02-.64.02-.85.29-.03,0-.05-.01-.08,0-.06,0-.11.03-.14.07-.05.06-.05.18.02.24.03.03.08.04.12.03.03,0,.05-.01.06-.03.03-.04,0-.1,0-.12h-.02Z"/>
            <path class="cls-10" d="M15.25,13.68c-.13-.15-.41-.31-.59-.19-.08.05-.14.16-.16.26-.01.07,0,.14.04.18.04.04.1.07.17.07.05,0,.1-.01.13-.04.05-.05.07-.15.02-.22-.02-.03-.06-.05-.1-.06-.04.02-.06.06-.07.09-.01.04,0,.07.02.1,0,0,0,.01,0,.02,0,0-.01,0-.02,0-.02-.04-.03-.08-.02-.12.01-.04.04-.08.08-.11.03-.02.07-.03.11-.04.06,0,.12.02.17.07.11.11.16.33.16.44,0,.17-.08.33-.2.44-.13.12-.27.16-.51.19-.31.04-.5.04-.71.04-.15,0-.31,0-.52.01-.47.04-.7.14-.83.2-.12.06-.4.22-.42.44,0,.1.02.18.08.22.04.03.09.04.13.04,0-.03-.01-.06-.01-.1,0-.22.1-.38.35-.51.11-.06.23-.11.35-.14,0,0,.01,0,.01,0,0,0,0,.01,0,.02-.12.03-.23.08-.34.14-.24.13-.34.28-.33.49,0,.04,0,.08.01.11.01.05.03.08.06.11.08.08.18.12.27.11.06,0,.12-.03.16-.08-.01,0-.02,0-.03,0-.15-.02-.24-.15-.26-.25-.04-.18.11-.33.16-.38.07-.07.18-.13.33-.18.17-.06.4-.1.67-.12.16-.02.23-.01.29-.01.06,0,.12,0,.24-.01.38-.04.68-.08.93-.3.19-.17.29-.35.29-.54,0-.08-.01-.24-.13-.39Z"/>
            <path class="cls-10" d="M12,15.55c.01.07.04.12.09.16.05.04.11.05.15.05h0s.03.08.05.11c-.02.04-.14.21-.29.28-.15-.06-.27-.24-.29-.28.02-.03.04-.06.05-.11h0s.1-.01.15-.05c.05-.04.08-.09.09-.16Z"/>
            <path class="cls-10" d="M9.55,13.52c.06.17,0,.29-.04.36.01-.04.01-.08,0-.12-.01-.12-.08-.22-.17-.28-.2-.13-.49.03-.62.2-.12.15-.14.32-.13.4,0,.2.11.39.3.56.25.22.56.26.95.31.13.01.18.01.24.01s.13,0,.29.01c.5.05.84.15.99.3.05.05.19.2.16.36-.02.1-.1.21-.24.23-.12.02-.24-.05-.28-.15-.03-.06-.05-.17.02-.25.04-.04.11-.07.18-.06.05,0,.1.02.12.06.04.05.04.16-.02.2-.03.02-.07.03-.1.03-.01,0-.03,0-.04-.02-.02-.03,0-.09,0-.09,0,0,0-.01,0-.02,0,0-.01,0-.02,0,0,.01-.03.07,0,.12.01.02.03.03.06.03.04,0,.09,0,.12-.03.07-.06.07-.18.02-.24-.03-.04-.08-.06-.14-.07-.03,0-.06,0-.08,0-.21-.26-.33-.27-.85-.29-.13,0-.29-.01-.49-.02-.89-.05-1.22-.49-1.34-.85-.02-.06-.17-.56.31-.85h0s.06-.03.09-.05c.3-.14.44-.07.51,0-.21-.05-.46.02-.57.12,0,0,0,.01,0,.02,0,0,.01,0,.02,0,.1-.09.36-.16.56-.11.08.02.18.07.21.18Z"/>
            <path class="cls-10" d="M11.98,15.46c-.01-.23-.29-.38-.41-.44-.13-.07-.35-.17-.83-.2-.21-.02-.37-.01-.52-.01-.2,0-.4,0-.71-.04-.23-.03-.38-.07-.51-.19-.12-.12-.19-.27-.2-.44,0-.12.04-.33.16-.44.05-.05.11-.07.17-.07.04,0,.07.02.11.04.04.03.07.07.08.11,0,.04,0,.08-.02.12,0,0-.01.01-.02,0,0,0,0-.01,0-.02.01-.02.02-.06.02-.1,0-.03-.03-.07-.07-.09-.04.01-.07.03-.1.06-.05.07-.02.17.02.22.03.03.08.05.13.04.06,0,.13-.03.17-.07.04-.04.05-.11.04-.18-.01-.11-.08-.21-.16-.26-.18-.12-.46.04-.59.19-.11.14-.13.3-.13.39,0,.19.1.38.29.54.25.22.55.25.93.3.13.01.18.01.24.01.06,0,.13,0,.29.01.3.03.55.07.73.14.12.04.22.1.27.16.05.05.2.21.16.38-.02.11-.11.23-.26.25,0,0-.02,0-.03,0,.04.05.1.07.16.08.09.01.19-.03.27-.11.03-.03.05-.07.06-.11,0-.03.01-.07.01-.11,0-.21-.1-.36-.34-.49-.09-.05-.19-.09-.3-.13-.01,0-.03-.01-.04-.01,0,0-.01,0,0-.02,0,0,0-.01.02,0,.12.03.24.08.35.14.25.13.35.29.35.51,0,.04,0,.07-.01.1.04,0,.09,0,.13-.04.06-.04.09-.13.08-.22Z"/>
            <path class="cls-10" d="M8.73,12.92c-.03-.07-.1-.1-.17-.1-.03,0-.06,0-.09.02,0-.02.02-.04.03-.05,0-.01.06-.06.13-.05,0,0,.07,0,.11.07,0,.01.01.03.02.04,0,.04,0,.07,0,.08,0,0,0,.01,0,.02,0-.01,0-.02,0-.03Z"/>
            <path class="cls-10" d="M8.56,12.96c-.05,0-.1,0-.13.02,0-.03,0-.06.03-.09h.01s.06-.05.1-.05c.02,0,.05,0,.08.02.03.01.05.03.07.07,0,.02,0,.04,0,.06,0,0,0,0,0,0,0,.03-.01.05-.03.07-.02-.05-.07-.11-.13-.11Z"/>
            <path class="cls-10" d="M8.84,12.92s-.05.04-.08.05c0-.01.01-.02.01-.03,0-.01.01-.05,0-.09.07-.06.16-.16.21-.3.08-.23,0-.43-.04-.52-.01-.04-.03-.07-.05-.11,0,0,0-.02,0-.03,0-.02,0-.03,0-.05.08.07.2.21.23.51.05.42-.23.72-.44.83.01-.02.01-.05,0-.08.02-.03.04-.06.04-.09.04-.02.08-.04.11-.07.06-.05.09-.11.11-.15,0,0,0-.01,0-.02,0,0-.01,0-.02,0-.02.04-.05.09-.1.14Z"/>
            <path class="cls-10" d="M8.43,13.01s.09-.03.13-.03c.06,0,.1.06.12.12,0,.02.01.08-.04.11,0,0,0,0-.01,0-.04.01-.07.01-.09,0-.03-.02-.03-.05-.03-.05,0,0,0-.01-.02-.01,0,0-.01,0-.01.01,0,0,0,.05.05.07.03.02.07.02.11,0,0,0,0,0,.01,0h0c.23-.09.57-.42.52-.89-.04-.39-.23-.53-.29-.57,0,0,0,0-.01,0,0,0,0,0,0,0h0s-.08,0-.11.01c-.01.01-.02.02-.02.04,0,0,0,.01.01.01,0,0,.01,0,.01-.01,0,0,0-.01.01-.01.02-.02.07-.02.09-.01h0s.01,0,.02.01c.02.02.03.05.02.08,0,.01,0,.02-.01.03-.02.04-.06.08-.12.09-.05.01-.09,0-.13-.03-.02-.02-.04-.05-.05-.09-.02-.09.02-.17.09-.21.23-.12.45.13.53.28.08.15.12.34.12.57,0,.42-.25.59-.5.75-.03.01-.06.03-.09.05-.1.04-.19.05-.26.01-.06-.03-.09-.08-.09-.15,0-.07.01-.13.05-.16l.02-.02Z"/>
            <path class="cls-10" d="M8.89,11.43c-.13.05-.26.01-.35-.1-.16-.2-.2-.47-.11-.72.04-.11.1-.2.16-.25.08-.07.19-.1.29-.08-.03.01-.06.04-.08.08-.04.01-.3.08-.32.5-.02.36.15.47.2.5.03.01.06.02.08.02.02,0,.03,0,.04,0,.01.02.03.04.05.05,0,0,.01,0,.02,0Z"/>
            <path class="cls-10" d="M8.88,11.4s-.07-.07-.07-.12c.01-.06.07-.11.13-.11.08,0,.14.05.17.13.03.08.02.2-.06.26-.06.05-.16.07-.28.06-.41-.03-.6-.47-.6-.77,0-.32.21-.63.4-.72.2-.1.38-.08.53.06h0s0,0,0,0c.1.09.12.28.03.39-.04.05-.1.08-.16.08-.05,0-.1-.03-.14-.07-.04-.06-.05-.14-.02-.21.02-.04.06-.08.12-.07.05.01.08.06.07.11,0,.04-.03.07-.07.06,0,0-.01,0-.01.01,0,0,0,.01.01.01h0c.06,0,.09-.03.1-.09,0-.06-.03-.12-.09-.14-.12-.05-.27-.03-.38.06-.07.06-.12.15-.17.26-.1.26-.06.54.11.75.07.08.16.13.25.13.06,0,.13-.02.19-.05h0c.05-.03.03-.08.02-.12h0s0-.02-.02-.01c0,0-.01,0,0,.02h0c.02.05.02.08,0,.1h0s-.05.01-.07,0Z"/>
            <path class="cls-10" d="M15.2,10.4c.02.07.01.15-.03.21-.04.05-.09.08-.16.08-.07,0-.13-.03-.18-.08-.08-.1-.08-.25-.01-.36-.03.01-.06.02-.09.02h-.01c-.05,0-.1-.02-.14-.04-.02.02-.08.09-.08.23,0,.09.07.23.2.32.08.05.22.1.4.02,0,0,.01,0,.02,0,0,0,0,.01,0,.02-.07.03-.14.04-.2.04-.09,0-.17-.03-.22-.07-.09-.06-.15-.15-.18-.23-.02-.04-.02-.08-.02-.11,0-.06.01-.11.02-.15.02-.05.05-.09.06-.1-.02-.02-.03-.03-.04-.05-.01-.02-.02-.04-.03-.07-.02-.06-.02-.12-.02-.2,0-.05,0-.1.02-.15.05-.14.16-.25.26-.36.05-.05.1-.11.14-.16.06-.08.15-.21.14-.36,0-.02,0-.07-.03-.12-.02-.05-.05-.09-.1-.12-.02-.01-.04-.02-.06-.03.01.05.01.11.01.14,0,.21-.15.36-.21.41,0,0,0,0,0,0,0,0,0,0-.01,0,0,0,0-.01,0-.02.06-.05.2-.19.2-.39,0-.04,0-.1-.02-.15-.01-.04-.04-.07-.06-.09-.04-.03-.1-.05-.18-.04-.03,0-.06.01-.09.03,0,0,0,0,0,.01.09.12.04.33-.11.51,0,0,0,0-.01,0s0,0,0,0c0,0,0-.01,0-.02.14-.17.19-.37.11-.48,0,0,0-.01-.02-.02-.03-.03-.09-.08-.16-.07-.02,0-.04.01-.06.02.03.05.05.12.05.21,0,.16-.11.28-.16.32,0,0,0,0,0,0,0,0,0,0,0,0,0,0,0-.01,0-.02.04-.04.15-.15.15-.3,0-.09-.02-.16-.05-.21-.01-.02-.02-.03-.04-.04-.02-.02-.08-.05-.16-.03-.05.01-.09.05-.12.11.05,0,.09.02.12.04.09.06.09.18.06.26-.04.11-.13.21-.25.28-.07.04-.14.07-.22.09-.08.02-.17.03-.25.03-.14,0-.25-.01-.36-.03-.27-.05-.43-.14-.5-.19,0,.03,0,.07,0,.11-.01.03-.03.06-.06.08-.02.02-.05.03-.09.03-.04,0-.08-.01-.12-.03-.02-.01-.05-.03-.06-.06-.04-.05-.05-.12-.03-.19.03-.1.1-.16.18-.17.14-.02.35.08.42.12-.02-.09-.02-.16-.01-.22.02-.07.05-.13.09-.18.03-.04.06-.09.08-.14.02-.05.02-.11,0-.16-.02-.04-.05-.06-.1-.07-.09-.02-.18.03-.26.07h-.01c-.06.04-.1.06-.13.08,0,0-.02.01-.02.02-.07.05-.19.11-.37.09-.18.01-.29-.04-.37-.09,0,0-.02-.01-.02-.02-.03-.02-.07-.05-.13-.08h-.01c-.08-.05-.17-.09-.26-.07-.04,0-.07.03-.09.07-.02.04-.03.1,0,.16.02.05.05.1.08.14.04.06.08.11.09.18.01.06,0,.13-.01.22.07-.04.28-.13.43-.12.08.01.15.07.18.17.02.06.01.13-.03.19-.02.02-.04.04-.06.06-.03.02-.07.03-.12.03-.03,0-.06-.01-.09-.03-.03-.02-.05-.05-.06-.09-.01-.03-.01-.07,0-.11-.07.05-.23.14-.5.19-.1.02-.22.03-.36.03-.08,0-.17-.01-.25-.03s-.15-.05-.22-.09c-.12-.07-.21-.18-.25-.28-.03-.08-.03-.2.06-.26.03-.02.08-.03.12-.04-.02-.05-.07-.09-.12-.11-.07-.02-.13.01-.16.03-.02.01-.03.02-.04.04-.02.02-.03.05-.04.08,0,.03-.01.07-.01.11h0c0,.16.11.27.15.31,0,0,0,.01,0,.02,0,0,0,0-.01,0,0,0,0,0,0,0-.05-.04-.16-.15-.16-.32,0-.09.02-.16.05-.21-.02-.01-.04-.02-.06-.02-.07,0-.13.04-.16.07-.01.01-.02.02-.02.02-.08.11-.03.31.11.48,0,0,0,.01,0,.02,0,0,0,0-.01,0,0,0,0,0,0,0-.15-.18-.2-.39-.11-.51h.01s-.06-.03-.09-.04c-.07,0-.13,0-.18.04-.03.02-.05.05-.06.09-.02.06-.02.12-.02.15,0,.2.14.34.2.39,0,0,0,.01,0,.02,0,0,0,0,0,0,0,0,0,0-.01,0-.06-.05-.2-.2-.2-.41,0-.03,0-.08.01-.14-.02,0-.04.02-.06.03-.04.03-.08.07-.1.12-.02.05-.03.1-.03.12-.01.14.07.27.14.36.04.05.09.1.14.16.11.11.21.22.26.37.02.04.02.09.02.14,0,.08,0,.14-.02.2,0,.02-.02.05-.03.07,0,.02-.02.03-.03.05.01.01.04.05.06.1.01.04.02.09.02.15,0,.03,0,.07-.02.11-.03.08-.09.17-.18.23-.05.03-.13.07-.22.07-.06,0-.13-.01-.2-.04,0,0-.01-.01,0-.02,0,0,.01-.01.02,0,.18.08.31.03.39-.02.13-.08.2-.23.2-.32,0-.14-.06-.21-.08-.23-.04.03-.08.04-.14.04h-.01s-.06,0-.09-.02c.07.11.07.26-.01.36-.04.05-.11.08-.18.08-.06,0-.12-.03-.16-.08-.04-.06-.06-.14-.03-.21-.07.02-.26.11-.28.47-.02.34.14.45.19.47.04.02.08.02.09.01-.01-.02-.01-.05-.01-.07.01-.07.08-.13.16-.13.09,0,.16.05.2.15.04.11.01.23-.07.29-.04.03-.1.06-.17.06.1.04.2.13.26.23.02.02.03.05.04.08.08.15.12.34.12.58,0,.16-.04.29-.1.39-.08.13-.19.22-.31.3.26-.09.39.01.44.09.06.02.11.05.15.09.02.03.04.06.05.09.01.04.02.08.02.12.02.21-.12.32-.13.33-.04.05-.11.08-.18.08-.06,0-.11-.02-.15-.05-.06-.06-.08-.17-.03-.25.02-.03.05-.05.09-.07-.02-.01-.05-.02-.07-.02-.05,0-.11.02-.15.06-.11.11-.15.31-.15.42,0,.16.07.31.19.42.12.11.26.15.49.19.31.04.5.04.7.04.15,0,.31,0,.52.01.48.04.71.14.84.21.12.06.39.21.42.43.04-.23.31-.37.43-.43.13-.07.36-.17.84-.21.21-.02.37-.01.52-.01.2,0,.4,0,.7-.04.23-.03.37-.07.49-.19.12-.11.19-.26.19-.42,0-.11-.04-.32-.15-.42-.04-.04-.09-.06-.15-.06-.02,0-.04,0-.07.02.04.01.07.04.09.07.06.08.03.19-.03.25-.04.03-.09.05-.15.05-.07,0-.14-.03-.18-.08-.01,0-.15-.12-.13-.33,0-.04.01-.07.02-.12,0-.03.03-.06.05-.09.03-.04.08-.07.15-.09.05-.08.18-.18.44-.09-.21-.14-.41-.33-.4-.7,0-.23.04-.42.12-.58.07-.14.18-.26.31-.31-.07,0-.13-.03-.17-.06-.08-.06-.11-.18-.07-.29.03-.09.11-.15.2-.15.07,0,.14.06.15.13,0,.03,0,.05-.01.07.02,0,.05,0,.1-.01.05-.02.2-.13.19-.47-.02-.36-.21-.45-.28-.47ZM11.81,8.54s-.08-.04-.12-.07c-.04-.03-.07-.05-.11-.06-.04-.01-.08-.01-.09,0-.02.02-.02.06-.01.08,0,0,0,.01-.01.02,0,0-.01,0-.02-.01-.01-.06,0-.09.02-.11.03-.02.07-.03.12-.01.04.02.08.04.12.07.04.03.07.05.12.07.05.02.12.03.18.03.07,0,.13-.01.18-.03.04-.01.08-.04.12-.07.03-.02.07-.05.12-.07.05-.02.09-.01.12.01.02.02.03.05.02.11,0,0,0,.01-.02.01,0,0-.01,0,0-.02,0-.03,0-.06-.01-.08-.02-.02-.05-.02-.09,0s-.07.04-.11.06c-.04.03-.08.05-.12.07-.06.02-.12.03-.19.03h0c-.07,0-.13-.01-.19-.03ZM9.43,12.8c-.02.05-.05.09-.07.12-.01.01-.02.02-.03.03h0s0,.02,0,.02c0,0,0,0,0,0,0,0,0,0,0,0,0,0,0,0,0,0s0,0-.01,0c0,0,0-.01,0-.02,0,0,.2-.18.2-.51s-.26-.59-.26-.59,0,0,0,0c0,0,0-.01,0-.01,0,0,.01,0,.02,0,0,0,.04.04.09.12.04-.01.15-.08.15-.31,0-.1-.02-.17-.07-.21-.05-.05-.12-.04-.12-.04,0,0-.01,0-.01-.01s0-.01,0-.02c.16-.05.2-.2.2-.32,0-.1-.03-.15-.04-.17-.08.07-.22.18-.38.18h-.02c-.15,0-.28-.1-.39-.28,0,0,0-.01,0-.02,0,0,.01,0,.02,0,.11.17.23.26.37.27h.02s.06,0,.08,0c.11-.02.2-.09.26-.15,0,0,.01-.01.02-.02.03-.03.05-.06.06-.06h0s.01,0,.02,0c0,0,0,.01,0,.02,0,0,0,.01-.02.02,0,0-.02.02-.03.03,0,0,.02.02.03.05,0,0,0,.02.01.03,0,.01,0,.02,0,.03,0,.01,0,.02,0,.03s0,.02,0,.04c0,.02,0,.04,0,.05,0,.02,0,.03,0,.05,0,.02,0,.03-.01.05,0,.01-.01.03-.02.04,0,.01-.01.03-.02.04,0,0-.01.01-.02.02t0,0s0,.01-.01.01c0,0-.02.02-.02.02-.01.01-.02.02-.04.02.03,0,.05.02.08.04,0,0,.01.01.02.02.01.01.02.03.03.04,0,0,.01.02.01.03,0,0,0,.02.01.03,0,0,0,.02,0,.02,0,.01,0,.02,0,.03,0,.01,0,.02,0,.03,0,.01,0,.02,0,.03s0,.02,0,.02v.02s-.01.09-.02.12c0,.03-.02.05-.03.07,0,.01-.01.02-.02.03,0,0,0,0,0,0,0,0-.01.02-.02.02s-.02.01-.02.02c0,0-.01,0-.02.01,0,0-.02,0-.02.01.05.07.1.18.14.29h0s.01.04.01.06c0,.02,0,.04,0,.06,0,.02,0,.04,0,.06,0,.02,0,.04,0,.05,0,0,0,.02,0,.02,0,.02,0,.03,0,.05s0,.03,0,.04c0,.01,0,.02,0,.03,0,.03-.01.05-.02.08-.01.03-.02.06-.04.08ZM15.35,10.79c-.11.18-.25.27-.39.28h-.02c-.16,0-.3-.1-.38-.18-.01.02-.04.07-.04.17,0,.12.03.26.2.32,0,0,.01.01,0,.02s0,.01-.01.01c0,0-.07-.01-.12.04-.05.04-.07.11-.07.21,0,.23.11.29.15.31.05-.07.09-.11.09-.12,0,0,.01,0,.02,0,0,0,0,.01,0,.02,0,0-.26.26-.26.59s.2.5.2.51c0,0,0,.01,0,.02,0,0,0,0-.01,0s0,0,0,0c0,0,0,0,0,0,0,0,0,0,0,0-.01-.01-.04-.04-.07-.09,0-.01-.01-.02-.02-.03,0-.01-.01-.02-.02-.04,0-.01-.01-.02-.02-.04,0,0,0-.02-.01-.03,0-.02-.02-.04-.02-.06,0-.01,0-.02,0-.03,0,0,0,0,0,0h0s-.02-.08-.02-.12c0,0,0-.02,0-.02,0-.02,0-.03,0-.05,0-.06.01-.13.02-.18,0-.01,0-.03.01-.04,0-.02.02-.05.03-.07,0-.01.01-.03.02-.04,0-.02.01-.03.02-.04,0-.01.01-.03.02-.04.01-.02.02-.04.04-.06,0,0-.02-.01-.03-.02,0,0-.01,0-.01-.01-.01,0-.02-.02-.03-.03-.02-.02-.04-.06-.06-.11h0s0-.02-.01-.04c0-.02-.01-.05-.01-.08,0,0,0-.02,0-.02v-.03s0-.05,0-.07c0-.03.01-.05.02-.07h0s0-.02,0-.02c0,0,0-.02.01-.02.01-.01.02-.03.03-.04.03-.02.06-.04.08-.04-.02-.01-.05-.03-.06-.05,0,0-.01-.01-.01-.01,0,0,0,0,0-.01,0,0-.01-.01-.02-.02-.01-.02-.02-.04-.03-.07-.01-.03-.02-.06-.02-.09,0,0,0,0,0,0,0-.02,0-.04,0-.06,0-.01,0-.03,0-.04,0,0,0-.01,0-.02,0,0,0-.02,0-.02,0-.01,0-.02,0-.03,0,0,0-.02,0-.02.01-.02.02-.04.03-.05,0-.01-.02-.02-.03-.03-.01-.01-.02-.02-.02-.02,0,0,0-.01,0-.02,0,0,.01,0,.02,0,0,0,0,0,0,0,.01.01.08.09.17.15.01,0,.02.01.03.02.01.01.03.02.05.03,0,0,.02,0,.02,0,0,0,.02.01.03.01.01,0,.03.01.04.01.01,0,.03,0,.04,0,.02,0,.04,0,.06,0,.14,0,.26-.1.37-.27,0,0,.01,0,.02,0s0,.01,0,.02Z"/>
            <path class="cls-5" d="M14.54,10.87s-.05-.05-.05-.05c0,0,0-.01,0-.02,0,0,.01,0,.02,0,0,0,.21.25.45.24.14,0,.26-.1.37-.27,0,0,.01,0,.02,0,0,0,0,.01,0,.02-.11.18-.25.27-.39.28h-.02c-.16,0-.3-.1-.38-.18-.02.02-.05.07-.05.17,0,.12.03.26.2.32,0,0,.01.01,0,.02s0,.01-.01.01c0,0-.07-.01-.12.04-.05.04-.07.11-.07.21,0,.23.11.29.15.31.05-.07.09-.11.09-.12,0,0,.01,0,.02,0,0,0,0,.01,0,.02,0,0-.26.26-.26.59s.2.5.2.51c0,0,0,.01,0,.02,0,0,0,0-.01,0s0,0,0,0c-.01,0-.21-.19-.21-.53,0-.19.08-.36.16-.47-.05-.02-.16-.09-.16-.33,0-.11.03-.18.08-.23.03-.02.06-.03.08-.04-.11-.06-.16-.17-.16-.32,0-.11.03-.16.05-.18Z"/>
            <path class="cls-5" d="M12.52,8.41s-.05-.02-.09,0-.07.04-.11.06c-.04.03-.08.05-.12.07-.06.02-.12.03-.19.03h0c-.07,0-.13-.01-.19-.03-.05-.02-.08-.04-.12-.07-.04-.03-.07-.05-.11-.06s-.08-.01-.09,0c-.02.02-.02.06-.01.08,0,0,0,.01-.01.01,0,0-.01,0-.02,0-.01-.06,0-.09.02-.11.03-.02.07-.03.12-.01.04.02.08.04.12.07.04.03.07.05.12.07.05.02.12.03.18.03.07,0,.13-.01.18-.03.04-.01.08-.04.12-.07.04-.02.07-.05.12-.07.05-.02.09-.01.12.01.02.01.03.05.02.11,0,0,0,.01-.02,0,0,0-.01,0,0-.01,0-.03,0-.06-.01-.08Z"/>
            <path class="cls-5" d="M9.04,11.07c-.15,0-.28-.1-.39-.28,0,0,0-.01,0-.02,0,0,.01,0,.02,0,.11.17.23.26.37.27.24.01.44-.24.45-.24,0,0,.01,0,.02,0,0,0,0,.01,0,.02,0,0-.02.02-.05.05.02.02.05.07.05.18,0,.15-.06.26-.16.32.02,0,.05.02.08.04.05.05.08.12.08.23,0,.24-.11.31-.16.33.07.11.16.28.16.47,0,.34-.2.52-.21.53,0,0,0,0,0,0s0,0,0,0c0,0,0-.01,0-.02,0,0,.2-.18.2-.51s-.26-.59-.26-.59,0,0,0,0c0,0,0-.01,0-.01,0,0,.01,0,.02,0,0,0,.04.04.09.12.04-.01.15-.08.15-.31,0-.1-.02-.17-.07-.21-.05-.05-.12-.04-.12-.04,0,0-.01,0-.01-.01s0-.01,0-.02c.16-.05.2-.2.2-.32,0-.1-.03-.15-.04-.17-.08.07-.22.18-.38.18h-.02Z"/>
            <path class="cls-5" d="M15.56,13.37c.06-.03.1-.1.11-.18,0-.11-.03-.16-.07-.19,0-.03,0-.08-.03-.13,0,0,0,0-.01-.01,0-.03-.01-.06-.04-.09-.01-.01-.06-.06-.15-.05,0,0-.09.01-.13.08,0,0-.01.02-.01.03-.06-.06-.15-.15-.19-.28-.07-.22,0-.42.04-.5.01-.03.03-.06.04-.09.03.04.07.07.12.08.06.01.11,0,.15-.03.03-.02.05-.06.06-.1.02-.1-.02-.19-.1-.23-.02,0-.03-.02-.05-.02.38-.07.55-.5.55-.79,0-.33-.21-.65-.41-.74-.18-.09-.35-.08-.49.01,0,0,0,0,0,0,.02-.05.02-.12,0-.16-.02-.03-.04-.05-.07-.06-.03-.01-.08,0-.11.01-.03.02-.05.04-.06.07,0,0,0,.02,0,.03-.01-.01-.02-.03-.02-.04-.02-.06.01-.15.08-.26.07-.11.15-.2.25-.3.04-.04.08-.08.12-.13.16-.19.19-.35.08-.48-.04-.05-.12-.07-.17-.08-.02-.05-.06-.1-.11-.13-.03-.02-.05-.03-.08-.04-.02-.04-.04-.07-.07-.1-.05-.04-.12-.05-.19-.04-.04,0-.07.01-.11.03-.03-.03-.1-.08-.18-.07-.03,0-.05.01-.08.03-.01-.01-.03-.03-.04-.04-.03-.02-.09-.05-.18-.03-.06.02-.11.06-.14.13-.03,0-.06,0-.09.01-.06.02-.1.06-.12.11-.02.06-.01.13.03.19.03.05.08.07.13.07-.06.05-.14.09-.24.12-.21.07-.43.02-.54-.07-.09-.07-.04-.22.03-.39.01-.02.02-.05.03-.08.07-.18.05-.42-.1-.53-.16-.11-.43-.03-.6.08-.01,0-.02.02-.04.02-.1.06-.16.1-.35.1s-.25-.04-.35-.1c-.01,0-.02-.01-.04-.02-.18-.11-.44-.19-.6-.08-.16.11-.17.36-.1.53.01.03.02.05.03.08.07.18.13.32.03.39-.11.09-.33.14-.54.07-.1-.03-.19-.07-.25-.12.04,0,.09-.02.13-.07.04-.06.05-.13.03-.19-.02-.05-.06-.09-.12-.11-.03-.01-.06-.01-.09-.01-.03-.06-.07-.11-.14-.13-.08-.02-.15.01-.18.03-.02.01-.03.02-.04.04-.02-.02-.05-.02-.08-.03-.08,0-.14.04-.18.07-.03-.02-.07-.03-.11-.03-.08,0-.14,0-.19.04-.03.03-.05.06-.07.1-.03,0-.06.02-.08.04-.05.03-.08.07-.11.13-.05.01-.13.03-.17.08-.11.13-.08.29.08.48.04.04.08.09.12.13.09.1.18.19.24.3.07.11.09.2.08.26,0,.02-.01.03-.02.04,0,0,0-.02,0-.03-.01-.03-.03-.06-.06-.07-.03-.02-.07-.02-.11-.01-.03.01-.06.03-.07.06-.02.04-.02.11,0,.16,0,0,0,0,0,0-.15-.09-.31-.1-.49-.01-.2.09-.41.42-.41.74,0,.29.17.72.55.79-.02,0-.03.01-.05.02-.08.04-.12.14-.1.23,0,.04.03.07.06.1.04.03.09.05.15.03.05-.01.1-.04.12-.08.02.03.03.06.04.09.03.08.12.28.04.5-.04.13-.13.22-.19.28,0-.01,0-.02-.01-.03-.04-.07-.12-.08-.13-.08-.08-.01-.14.04-.15.05-.03.03-.04.07-.04.09h-.01c-.03.06-.04.11-.03.14-.03.03-.07.08-.07.19,0,.08.04.14.11.18.03.02.07.03.12.03.03,0,.05,0,.08-.01-.39.3-.26.77-.24.83.12.37.45.82,1.36.87.2.01.36.02.49.02.53.02.63.02.83.27-.03.01-.06.03-.08.06-.07.07-.07.19-.03.28.04.09.14.16.25.17.05.06.12.1.19.11.01,0,.02,0,.04,0,.08,0,.17-.04.24-.11.03.05.15.22.31.28h.01c.15-.06.27-.23.3-.28.07.07.16.11.24.11.01,0,.02,0,.04,0,.07-.01.14-.05.19-.11.11,0,.21-.07.25-.17.04-.08.04-.2-.03-.28-.02-.02-.05-.04-.08-.06.2-.25.3-.25.83-.27.13,0,.29-.01.49-.02.91-.05,1.24-.5,1.36-.87.02-.05.15-.52-.24-.83.03,0,.06.01.08.01.04,0,.08,0,.12-.03ZM15.55,12.89s.03.06.03.09c-.04-.02-.08-.03-.13-.02-.06,0-.11.06-.13.11-.02-.02-.03-.05-.03-.08,0,0,0,0,0,0,0-.02,0-.04.01-.06.03-.07.1-.08.15-.08.04,0,.07.01.1.03,0,0,0,0,.01.01ZM15.24,12.85s0-.03.02-.04c.04-.06.11-.07.11-.07.07,0,.12.04.12.05.02.02.03.04.03.05-.02-.01-.05-.02-.09-.02s-.07,0-.1.02-.06.04-.07.08c0,.01,0,.02,0,.03,0,0,0-.01,0-.02,0-.01-.01-.04,0-.08ZM15.05,12.03c-.03.09-.12.29-.04.52.05.14.14.24.21.3,0,.04,0,.08,0,.09s0,.02.01.03c-.03-.01-.05-.03-.08-.05-.05-.05-.08-.1-.1-.14,0,0-.01,0-.02,0,0,0-.01.01,0,.02.02.04.05.09.11.14.03.03.07.05.11.07,0,.03.02.07.05.09,0,.03,0,.06,0,.08-.22-.12-.49-.41-.44-.83.03-.29.15-.44.23-.51,0,.02,0,.03,0,.05,0,0,0,.02,0,.03-.02.03-.04.07-.05.11ZM15.43,10.14c.19.09.4.4.4.72,0,.3-.18.74-.6.77-.13.01-.22,0-.28-.06-.08-.06-.09-.18-.06-.26.03-.08.09-.13.17-.13.06,0,.12.05.13.11,0,.05-.03.1-.06.12-.01,0-.03.01-.04.01s-.02,0-.03-.01c-.03-.02-.03-.05-.01-.09h0s0-.02,0-.02c0,0-.01,0-.02,0h0s-.03.1.02.13h0c.07.04.13.05.19.05.09,0,.19-.04.25-.13.17-.2.21-.48.11-.75-.04-.12-.1-.2-.17-.26-.1-.09-.26-.12-.38-.06-.06.01-.1.08-.09.13,0,.05.05.09.1.09,0,0,.01,0,.01-.01,0,0,0-.01-.01-.01-.04,0-.07-.02-.07-.06,0-.04.02-.09.07-.11.05-.01.1.03.12.07.03.07.02.15-.02.21-.03.04-.08.07-.14.07-.06,0-.12-.03-.16-.07-.08-.11-.07-.29.04-.39h0s0,0,0,0c.15-.14.33-.15.53-.06ZM15.51,10.86c-.02-.41-.28-.49-.32-.5-.02-.03-.05-.06-.08-.08.1-.02.21,0,.3.08.06.06.12.14.16.25.09.25.05.52-.11.72-.09.11-.22.14-.35.1,0,0,.01,0,.02,0,.02-.01.04-.03.05-.05.01,0,.02.01.04.01.02,0,.05,0,.08-.02.05-.03.22-.14.2-.5ZM15.18,8.82c.1.12.07.27-.08.44-.04.04-.08.08-.12.13-.09.09-.18.19-.25.3s-.1.21-.08.28c.01.04.03.07.07.09h0s0,0,0,0h0s0,0,.01,0h0s.04.01.06.01c0,0,.01,0,.01-.01,0,0,0-.01-.01-.01-.02,0-.04,0-.05-.01t0,0h0s0,0,0,0c-.01-.01-.02-.03-.01-.05.01-.03.03-.05.05-.06.03-.01.06-.02.09,0,.02,0,.04.02.05.05.02.04.02.09,0,.14-.03.07-.1.12-.19.12-.08,0-.15-.03-.18-.1-.03-.06-.05-.15-.05-.26,0-.2.14-.35.27-.49.05-.05.1-.11.14-.16.07-.09.16-.22.14-.37,0-.02,0-.06-.02-.11.05.01.1.03.14.07ZM10.22,8.49c.06.02.09.06.1.09.02.05,0,.12-.03.17-.04.05-.09.06-.14.06-.03-.03-.05-.05-.06-.08-.02-.04,0-.08.02-.1.02-.02.05,0,.08.02,0,0,.01,0,.02,0,0,0,0-.01,0-.02-.04-.04-.08-.05-.11-.03-.04.03-.05.08-.03.13.01.03.04.06.07.09.06.06.16.11.28.15.07.02.14.03.21.03.15,0,.27-.05.35-.11.11-.09.05-.24-.02-.42,0-.02-.02-.05-.03-.07-.06-.17-.05-.4.09-.51.15-.11.41-.02.58.08.01,0,.02.02.03.02.1.06.17.11.37.11s.27-.04.37-.11c.01,0,.02-.01.04-.02.14-.08.41-.19.58-.08.15.1.16.34.09.51-.01.02-.02.05-.03.07-.07.18-.13.34-.02.42.08.06.21.11.35.11.07,0,.14-.01.21-.03.12-.04.22-.09.28-.15.03-.03.06-.06.07-.09.02-.05,0-.11-.03-.13-.03-.02-.08-.01-.12.03,0,0,0,.01,0,.02,0,0,.01,0,.02,0,.03-.03.06-.04.08-.02.02.02.04.06.02.1-.01.03-.03.06-.06.08-.04,0-.1,0-.14-.06-.04-.05-.05-.12-.03-.17.01-.03.04-.07.1-.09.07-.02.16-.01.22.02.08.05.08.16.05.23-.04.11-.13.2-.25.27-.06.04-.14.07-.22.09-.01,0-.03,0-.05.01-.01,0-.03,0-.04,0,0,0,0,0,0,0-.02,0-.03,0-.04,0h0s-.03,0-.05,0c-.02,0-.03,0-.05,0-.03,0-.05,0-.08,0-.02,0-.04,0-.06,0-.03,0-.06,0-.09,0-.04,0-.07,0-.11-.01,0,0-.01,0-.01,0-.01,0-.02,0-.04,0-.02,0-.04,0-.05-.01s-.03-.01-.05-.01c-.01,0-.02,0-.03-.01-.02,0-.04-.01-.06-.02-.02,0-.04-.01-.06-.02-.02,0-.04-.01-.05-.02-.02,0-.03-.01-.04-.02-.01,0-.03-.01-.04-.02-.01,0-.02-.01-.03-.02-.04-.02-.06-.04-.06-.04,0,0,0,0,0,0-.02-.03-.05-.05-.08-.05-.04,0-.09.04-.1.08-.01.04,0,.07.03.09,0,0,.01,0,.02,0s0-.01,0-.02c-.03-.02-.02-.05-.02-.06.01-.03.04-.06.07-.06.03,0,.05.02.06.04.02.04.03.09.02.13,0,.01-.01.02-.02.04,0,0,0,.01-.01.02-.02.02-.04.03-.06.04,0,0-.01,0-.02,0,0,0-.01,0-.02,0-.02,0-.03,0-.05,0,0,0,0,0,0,0-.01,0-.02,0-.03-.01,0,0,0,0,0,0,0,0-.01,0-.02,0-.01,0-.02,0-.02-.01h0s-.01-.01-.02-.02t0,0s-.01-.01-.01-.02c-.03-.05-.04-.11-.02-.17.03-.09.09-.14.16-.15.16-.02.43.12.44.12,0,0,0,0,.01,0,0,0,0-.01,0-.01-.02-.09-.03-.17-.02-.23.01-.07.05-.12.09-.17.03-.04.07-.09.09-.15.02-.06.02-.13-.01-.18-.02-.04-.06-.07-.11-.08-.1-.02-.2.03-.28.07h-.01c-.06.04-.1.07-.13.09-.01,0-.02.01-.02.02-.07.05-.18.1-.36.09-.18.01-.28-.04-.36-.09,0,0-.01-.01-.02-.02-.03-.02-.07-.05-.13-.08h-.01c-.08-.05-.18-.1-.28-.08-.05.01-.09.04-.11.08-.03.05-.03.12-.01.18.02.05.05.1.08.15.04.05.08.11.09.17.01.06,0,.14-.02.23,0,0,0,.01,0,.01,0,0,0,0,.01,0,0,0,.27-.14.44-.12.07,0,.13.06.16.15.02.06.01.12-.02.17,0,0-.01.01-.02.02s0,.01-.02.01c-.02.02-.05.03-.08.04t0,0s-.03,0-.05,0c0,0-.01,0-.02,0,0,0,0,0-.02,0,0,0-.02,0-.02,0,0,0,0,0-.01,0-.01,0-.02-.02-.03-.03,0,0-.01-.01-.01-.02,0-.01-.01-.02-.02-.04-.01-.04,0-.1.01-.13.01-.02.03-.04.06-.04.03,0,.06.03.07.06,0,.01.01.04-.02.06,0,0,0,.01,0,.02,0,0,.01,0,.02,0,.03-.02.04-.05.03-.09-.01-.04-.05-.08-.1-.08-.03,0-.06.02-.08.05,0,0,0,0,0,0,0,0-.03.02-.06.04,0,0-.02.01-.03.02-.01,0-.02.01-.04.02-.01,0-.03.02-.04.02-.02,0-.03.02-.05.02-.02,0-.04.02-.06.02-.02,0-.04.01-.06.02l-.07.02s-.05.01-.07.02c-.02,0-.03,0-.05,0-.03,0-.07.01-.11.02-.03,0-.06,0-.09,0-.02,0-.04,0-.06,0-.03,0-.05,0-.08,0-.02,0-.03,0-.05,0-.02,0-.03,0-.05,0h-.05s-.03-.01-.05-.01c-.02,0-.03,0-.05-.01-.01,0-.02,0-.03-.01-.01,0-.03,0-.04-.01h0s0,0,0,0c0,0,0,0-.01,0-.03-.01-.05-.02-.07-.03-.02,0-.03-.02-.05-.03-.12-.07-.21-.17-.24-.27-.03-.07-.03-.18.05-.23.06-.04.14-.05.22-.02ZM8.96,8.85s0-.07.03-.12c.02-.05.05-.09.1-.12.02-.01.04-.02.06-.03-.02.05-.02.11-.01.14,0,.21.14.35.2.41,0,0,0,0,.01,0,0,0,0,0,0,0,0,0,0-.01,0-.02-.06-.05-.2-.19-.2-.39,0-.04,0-.09.02-.15.01-.04.03-.07.06-.09.04-.03.1-.05.18-.04.03,0,.06.01.09.03h-.01c-.09.13-.04.34.11.52,0,0,0,0,0,0,0,0,0,0,.01,0,0,0,0-.01,0-.02-.14-.17-.19-.37-.11-.48,0,0,0-.01.02-.02.03-.03.09-.08.16-.07.02,0,.04.01.06.02-.03.05-.05.12-.05.21,0,.16.11.28.16.32,0,0,0,0,0,0,0,0,0,0,.01,0,0,0,0-.01,0-.02-.04-.04-.15-.15-.15-.3h0s0-.09.01-.12c.01-.03.02-.06.04-.08.01-.02.03-.03.04-.04.02-.02.08-.05.16-.03.05.01.09.05.12.11-.05,0-.09.02-.12.04-.09.06-.09.18-.06.26.04.11.13.21.25.28.07.04.14.07.22.09s.17.03.25.03c.14,0,.26-.01.36-.03.27-.05.43-.14.5-.19,0,.03,0,.07,0,.11.01.03.03.06.06.09.02.02.05.03.09.03.04,0,.08-.01.12-.03.02-.01.05-.03.06-.06.04-.05.05-.12.03-.19-.03-.1-.1-.16-.18-.17-.14-.02-.35.08-.43.12.02-.09.02-.16.01-.22-.01-.07-.05-.13-.09-.18-.03-.04-.06-.09-.08-.14-.02-.05-.02-.11,0-.16.02-.04.05-.06.09-.07.09-.02.18.03.26.07h.01c.06.04.1.06.13.08,0,0,.02.01.02.02.08.05.19.11.37.09.18.01.29-.04.37-.09,0,0,.02-.01.02-.02.03-.02.07-.05.13-.08h.01c.08-.05.17-.09.26-.07.04,0,.07.03.1.07.02.04.03.1,0,.16-.02.05-.05.1-.08.14-.04.06-.08.11-.09.18-.01.06,0,.13.01.22-.07-.04-.28-.13-.42-.12-.08.01-.15.07-.18.17-.02.06-.01.13.03.19.02.02.04.04.06.06.03.02.07.03.12.03.03,0,.06-.01.09-.03.03-.02.05-.05.06-.08.01-.03.01-.07,0-.11.07.05.23.14.5.19.1.02.22.03.36.03.09,0,.17-.01.25-.03.08-.02.15-.05.22-.09.12-.07.21-.18.25-.28.03-.08.03-.2-.06-.26-.03-.02-.08-.03-.12-.04.02-.05.07-.09.12-.11.07-.02.13.01.16.03.02.01.03.02.04.04.04.05.06.12.05.21,0,.15-.11.26-.15.3,0,0,0,.01,0,.02,0,0,0,0,0,0,0,0,0,0,0,0,.05-.04.16-.15.16-.32,0-.09-.02-.16-.05-.21.02-.01.04-.02.06-.02.07,0,.13.04.16.07.01.01.02.02.02.02.08.11.03.31-.11.48,0,0,0,.01,0,.02,0,0,0,0,0,0s0,0,.01,0c.15-.18.2-.39.11-.51,0,0,0,0,0-.01.03-.01.06-.02.09-.03.07,0,.13,0,.18.04.03.02.05.05.06.09.02.06.02.12.02.15,0,.19-.14.34-.2.39,0,0,0,.01,0,.02,0,0,0,0,.01,0,0,0,0,0,0,0,.06-.05.2-.2.21-.41,0-.03,0-.08-.01-.14.02,0,.04.02.06.03.04.03.08.07.1.12.02.05.03.1.03.12.01.14-.07.27-.14.36-.04.05-.09.1-.14.16-.1.11-.21.22-.26.36-.02.05-.02.09-.02.15,0,.08,0,.15.02.2,0,.02.02.04.03.07,0,.02.02.03.04.05-.02.01-.04.05-.06.1-.01.04-.02.09-.02.15,0,.03,0,.07.02.11.03.08.09.17.18.23.05.03.13.07.22.07.06,0,.13-.01.2-.04,0,0,0-.01,0-.02,0,0-.01-.01-.02,0-.18.08-.32.03-.4-.02-.13-.08-.2-.23-.2-.32,0-.14.06-.21.08-.23.04.03.08.04.14.04h.01s.06,0,.09-.02c-.07.11-.07.26.01.36.04.05.11.09.18.08.06,0,.12-.03.16-.08.04-.06.06-.14.03-.21.07.02.26.11.28.47.02.34-.14.45-.19.47-.04.02-.08.02-.1.01.01-.02.02-.05.01-.07-.01-.07-.08-.13-.15-.13-.09,0-.16.05-.2.15-.04.11,0,.23.07.29.04.03.1.06.17.06-.13.05-.24.17-.31.31-.08.15-.12.34-.12.58,0,.37.2.56.4.7-.26-.09-.39.01-.44.09-.06.02-.11.05-.15.09-.03.03-.04.06-.05.09-.01.04-.02.08-.02.12-.02.21.12.32.13.33.04.05.11.08.18.08.06,0,.11-.02.15-.05.06-.06.08-.17.03-.25-.02-.03-.05-.05-.09-.07.02-.01.04-.02.07-.02.05,0,.1.02.15.06.11.11.15.31.15.42,0,.16-.07.31-.19.42-.12.11-.26.15-.49.19-.31.04-.5.04-.7.04-.15,0-.31,0-.52.01-.48.04-.71.14-.84.21-.12.06-.39.21-.43.43-.04-.23-.31-.37-.42-.43-.13-.07-.36-.17-.84-.21-.21-.02-.37-.01-.52-.01-.2,0-.39,0-.7-.04-.23-.03-.37-.07-.49-.19-.12-.11-.19-.26-.19-.42,0-.11.04-.32.15-.42.04-.04.09-.07.15-.06.02,0,.04,0,.07.02-.04.01-.07.04-.09.07-.06.08-.03.19.03.25.03.03.09.05.15.05.07,0,.14-.03.18-.08.01,0,.15-.12.13-.33,0-.04-.01-.07-.02-.12-.01-.03-.03-.06-.05-.09-.04-.04-.09-.07-.15-.09-.05-.08-.18-.18-.44-.09.12-.08.23-.17.31-.3.06-.1.1-.23.1-.39,0-.23-.04-.42-.12-.58-.01-.03-.03-.05-.04-.08-.07-.1-.16-.19-.26-.23.07,0,.13-.03.17-.06.08-.06.11-.18.07-.29-.03-.09-.11-.15-.2-.15-.08,0-.15.06-.16.13,0,.03,0,.05.01.07-.02,0-.05,0-.09-.01-.05-.02-.21-.13-.19-.47.02-.36.21-.45.28-.47-.02.07-.01.15.03.21.04.05.09.08.16.08.07,0,.14-.03.18-.08.08-.1.08-.25.01-.36.03.01.06.02.09.02h.01c.05,0,.1-.02.14-.04.02.02.08.09.08.23,0,.09-.07.23-.2.32-.08.05-.22.1-.39.02,0,0-.02,0-.02,0,0,0,0,.01,0,.02.07.03.14.04.2.04.09,0,.17-.03.22-.07.09-.06.15-.15.18-.23.02-.04.02-.08.02-.11,0-.06-.01-.11-.02-.15-.02-.05-.05-.09-.06-.1.01-.02.03-.03.03-.05.01-.02.02-.04.03-.07.02-.06.02-.12.02-.2,0-.05,0-.1-.02-.14-.04-.14-.15-.25-.26-.37-.05-.05-.1-.11-.14-.16-.06-.08-.15-.21-.14-.36ZM8.69,11.36s.06.02.08.02c.02,0,.03,0,.04-.01.01.02.03.04.05.05,0,0,.01,0,.02,0-.13.05-.26.01-.35-.1-.16-.2-.2-.47-.11-.72.04-.11.1-.2.16-.25.08-.07.2-.1.3-.08-.04.01-.06.04-.08.08-.04.01-.3.08-.32.5-.02.36.15.47.2.5ZM9.08,9.97s.03-.04.06-.05c.03-.01.06,0,.09,0,.02.01.04.03.05.06,0,.02,0,.04-.01.05h0s0,0,0,0h0s0,0,0,0c-.01,0-.03.01-.05.01,0,0-.01,0-.01.01,0,0,0,.01.01.01.02,0,.04,0,.06-.01,0,0,0,0,.01,0h0s0,0,0,0h0s.06-.05.07-.09c.02-.07,0-.17-.08-.28s-.16-.21-.25-.3c-.04-.04-.08-.08-.12-.13-.16-.18-.18-.33-.08-.44.04-.04.09-.06.14-.07-.02.05-.02.09-.02.11-.01.15.07.29.14.37.04.05.09.11.14.16.14.14.27.29.27.49,0,.11-.01.19-.05.26-.03.06-.1.1-.18.1-.09,0-.16-.05-.19-.12-.02-.05-.02-.1,0-.14ZM8.18,10.85c0-.32.21-.63.4-.72.21-.09.38-.08.53.06t0,0c.11.09.12.28.04.39-.04.05-.1.07-.16.07-.05,0-.1-.02-.14-.07-.04-.06-.05-.14-.02-.21.02-.04.06-.09.12-.07.05.01.08.06.07.11,0,.04-.03.06-.07.06,0,0-.01,0-.01.01,0,0,0,.01.01.01h0c.06,0,.09-.03.1-.09,0-.06-.03-.12-.09-.13-.12-.06-.27-.03-.38.06-.07.06-.12.15-.16.26-.1.26-.06.54.11.75.07.08.16.13.25.13.06,0,.13-.02.19-.05.05-.03.03-.08.02-.12h0s0-.02-.02-.01c0,0-.01.01,0,.02h0c.02.05.02.08,0,.1h0s-.05.01-.07,0c-.04-.02-.07-.07-.07-.12.01-.06.07-.11.13-.11.08,0,.14.05.17.13.03.08.02.2-.06.26-.06.05-.16.07-.28.06-.41-.03-.6-.47-.6-.77ZM8.77,12.94s.02-.05,0-.09c.07-.06.16-.16.21-.3.08-.23,0-.43-.04-.52-.02-.04-.03-.07-.05-.11,0-.01,0-.02.01-.03,0-.02,0-.04,0-.05.08.07.19.21.23.51.05.42-.23.72-.44.83.01-.02.01-.05,0-.08.02-.03.04-.06.04-.09.04-.02.08-.04.11-.07.06-.05.09-.11.11-.14,0,0,0-.02,0-.02,0,0-.01,0-.02,0-.02.04-.04.09-.1.14-.02.02-.05.04-.08.05,0-.01.01-.02.01-.03ZM8.51,12.79s.05-.05.13-.05c0,0,.07,0,.11.07,0,.01.01.03.02.04,0,.04,0,.07,0,.08,0,0,0,.01,0,.02,0-.01,0-.02,0-.03-.03-.07-.11-.1-.17-.1-.03,0-.06,0-.09.02,0-.02.02-.04.03-.05ZM8.45,12.89h.01s.06-.04.1-.04c.02,0,.05,0,.08.02.03.01.05.03.07.07,0,.02.01.04,0,.06h0s-.01.06-.03.08c-.02-.05-.07-.11-.13-.11-.05,0-.1,0-.13.02,0-.03,0-.06.03-.09ZM8.45,13.34c-.06-.03-.09-.08-.09-.15,0-.07.01-.13.05-.16l.02-.02s.09-.03.13-.03c.06,0,.1.06.12.12,0,.02.01.08-.04.11,0,0,0,0-.01,0-.04.01-.07.01-.09,0-.03-.02-.04-.05-.04-.05,0,0,0-.01-.01-.01,0,0-.01,0-.01.01,0,0,0,.05.05.07.03.02.07.02.11,0,0,0,0,0,.01,0,.23-.09.57-.42.52-.89-.04-.39-.23-.53-.29-.57,0,0-.01,0-.01,0,0,0,0,0,0,0h0s-.08,0-.11.01c-.01.01-.02.02-.02.04,0,0,0,.01.01.01,0,0,.01,0,.01-.01,0,0,0-.01.01-.02.02-.02.07-.02.09-.01h0s.01,0,.02.01c.02.02.03.05.02.08,0,.01,0,.02-.01.03-.02.04-.06.08-.12.09-.05.01-.09,0-.13-.03-.02-.02-.04-.05-.05-.09-.02-.09.02-.17.09-.21.23-.12.45.13.53.28.08.15.12.34.12.57,0,.42-.25.59-.5.75-.03.01-.06.03-.09.05-.1.04-.19.05-.26.01ZM10.99,15.7c-.03-.06-.05-.17.02-.25.04-.04.11-.07.18-.06.05,0,.1.03.12.06.04.05.04.16-.02.21-.03.02-.07.03-.1.03-.01,0-.03,0-.04-.02-.02-.03,0-.09,0-.09,0,0,0-.01,0-.02,0,0-.01,0-.02,0,0,.01-.03.07,0,.12.01.02.03.03.06.03.04,0,.09,0,.12-.03.07-.06.07-.18.02-.24-.03-.04-.08-.06-.14-.07-.03,0-.06,0-.08,0-.21-.26-.33-.27-.85-.29-.13,0-.29,0-.49-.02-.89-.05-1.22-.49-1.34-.85-.02-.06-.17-.56.31-.85h0s.06-.03.09-.05c.3-.14.44-.07.51,0-.21-.05-.47.02-.57.12,0,0,0,.01,0,.02,0,0,.01,0,.02,0,.1-.09.36-.16.55-.11.08.02.18.07.22.18.06.17,0,.29-.04.36.01-.04.01-.08,0-.12-.01-.12-.08-.23-.17-.28-.2-.13-.49.03-.62.2-.12.15-.14.32-.13.4,0,.2.11.39.3.56.25.22.56.26.95.31.13.01.18.01.24.01.06,0,.13,0,.29.01.5.05.84.15.99.3.05.05.19.2.16.36-.02.1-.1.22-.24.24-.12.02-.24-.05-.28-.15ZM11.68,15.85c-.08.08-.18.13-.27.11-.06,0-.12-.04-.16-.08.01,0,.02,0,.03,0,.15-.02.24-.15.26-.25.04-.18-.11-.33-.16-.38-.06-.06-.15-.12-.27-.16-.18-.07-.42-.12-.73-.14-.16-.02-.23-.01-.29-.01-.06,0-.12,0-.24-.01-.38-.04-.68-.08-.93-.3-.19-.17-.29-.35-.29-.54,0-.08.01-.25.13-.39.13-.15.4-.31.59-.19.08.05.14.16.16.26.01.07,0,.14-.04.18-.04.04-.1.07-.17.07-.05,0-.1-.01-.13-.04-.05-.05-.07-.15-.02-.22.02-.03.06-.05.09-.06.04.02.06.06.07.09,0,.04,0,.07-.02.1,0,0,0,.01,0,.02s.01,0,.02,0c.02-.04.03-.08.02-.12,0-.04-.04-.08-.08-.11-.03-.02-.07-.03-.11-.04-.06,0-.12.02-.17.07-.11.11-.16.33-.16.44,0,.17.08.33.2.44.13.12.27.16.51.19.31.04.5.04.71.04.15,0,.31,0,.52.01.47.04.7.14.83.2.12.06.4.22.42.44,0,.1-.02.18-.08.22-.04.03-.09.04-.13.04,0-.03.01-.06.01-.1,0-.22-.1-.38-.35-.51-.11-.06-.23-.11-.35-.14,0,0-.01,0-.02,0,0,0,0,.01.01.02.01,0,.03,0,.04.01.1.03.2.07.3.13.24.13.34.28.34.49,0,.04,0,.08-.01.11-.01.05-.03.08-.06.11ZM12,16.14c-.15-.06-.27-.24-.29-.28.02-.03.04-.06.05-.11h0s.1-.01.15-.05c.05-.03.08-.09.09-.16.01.07.04.12.09.16.05.04.11.05.15.05h0s.03.08.05.11c-.02.04-.14.21-.29.28ZM12.59,15.96c-.09.01-.19-.03-.27-.11-.03-.03-.05-.07-.06-.11,0-.03-.01-.07-.01-.11,0-.21.1-.36.33-.49.11-.06.22-.11.34-.14,0,0,.01,0,0-.02,0,0,0-.01-.01,0-.12.03-.24.08-.35.14-.25.13-.35.29-.35.51,0,.04,0,.07.01.1-.04,0-.08,0-.13-.04-.06-.04-.09-.13-.08-.22.01-.23.29-.38.42-.44.13-.07.35-.17.83-.2.21-.02.37-.01.52-.01.2,0,.4,0,.71-.04.23-.03.38-.07.51-.19.12-.12.19-.27.2-.44,0-.12-.04-.33-.16-.44-.05-.05-.11-.07-.17-.07-.04,0-.07.02-.11.04-.04.03-.07.07-.08.11,0,.04,0,.08.02.12,0,0,.01.01.02,0s0-.01,0-.02c-.01-.02-.03-.06-.02-.1,0-.03.03-.07.07-.09.04.01.07.03.1.06.05.07.02.17-.02.22-.03.03-.08.05-.13.04-.06,0-.13-.03-.17-.07-.04-.04-.05-.11-.04-.18.01-.11.08-.21.16-.26.18-.12.46.04.59.19.11.14.13.3.13.39,0,.19-.1.38-.29.54-.25.22-.55.25-.93.3-.13.01-.18.01-.24.01-.06,0-.13,0-.29.01-.27.02-.49.06-.67.12-.15.05-.26.11-.33.18-.05.05-.2.21-.16.38.02.11.11.23.26.25.01,0,.02,0,.03,0-.04.05-.1.08-.16.08ZM15.58,14.2c-.12.36-.44.81-1.34.85-.2.01-.36.02-.49.02-.53.02-.64.02-.85.29-.03,0-.05-.01-.08,0-.06,0-.11.03-.14.07-.05.06-.05.18.02.24.03.03.08.04.12.03.03,0,.05-.01.06-.03.03-.04,0-.1,0-.12-.02-.01-.02.01-.02.01,0,.01.02.06,0,.09-.01.02-.03.02-.04.02-.03,0-.07,0-.1-.03-.06-.05-.06-.15-.02-.21.03-.03.07-.05.12-.06.07,0,.13.02.18.06.07.08.05.2.02.25-.05.1-.17.17-.28.15-.14-.02-.22-.14-.24-.24-.03-.16.1-.31.16-.36.14-.15.48-.25.99-.3.16-.01.23-.01.29-.01.06,0,.12,0,.24-.01.39-.04.69-.08.95-.3.19-.17.29-.36.3-.56,0-.09-.01-.25-.13-.4-.13-.16-.42-.33-.62-.2-.08.05-.15.17-.17.28,0,.04,0,.09,0,.12-.05-.06-.1-.18-.04-.36.04-.11.14-.16.21-.18.2-.05.46.01.56.11,0,0,.01,0,.02,0,0,0,0-.01,0-.02-.1-.09-.36-.16-.57-.12.07-.07.21-.15.51,0,.03.02.06.03.09.05h0c.47.29.32.79.31.85ZM15.28,13.33s-.06-.03-.09-.05c-.25-.16-.51-.32-.5-.75,0-.23.04-.41.12-.57.08-.15.29-.4.53-.28.07.04.11.12.09.21,0,.03-.02.07-.05.09-.03.03-.08.04-.13.03-.05-.01-.1-.05-.12-.09,0-.01,0-.02-.01-.03,0-.03,0-.06.02-.08.01,0,.02-.01.02-.01.02,0,.06,0,.09.01,0,0,.01.01.01.02,0,0,0,.01.01.01s.01,0,.01-.01c0-.01,0-.03-.02-.04-.02-.01-.05-.02-.07-.02-.01,0-.03,0-.04,0,0,0,0,0,0,0s0,0-.01,0c-.06.04-.25.18-.29.57-.05.47.29.79.52.89h0s0,0,.01,0c.04.02.08.02.11,0,.04-.02.05-.07.05-.07,0,0,0-.01,0-.01,0,0-.01,0-.01.01,0,0,0,.04-.03.05-.02.01-.05.01-.09,0,0,0,0,0-.01,0-.05-.03-.04-.08-.04-.11.01-.05.06-.11.12-.12.03,0,.08,0,.13.03l.02.02s.05.09.05.16c0,.07-.04.12-.09.15-.07.04-.16.03-.26-.01Z"/>
          </g>
          <g>
            <g>
              <rect class="cls-3" x="9.78" y="9.42" width="2.08" height="2.08"/>
              <path class="cls-7" d="M14.22,11.78v1.41c0,.37-.3.67-.67.67h-.88c-.18,0-.36.03-.52.09v-2.18h2.08Z"/>
              <path class="cls-10" d="M9.53,9.17v4.02c0,.51.42.93.93.93h.88c.23,0,.46.06.66.19.2-.12.43-.19.66-.19h.88c.51,0,.93-.41.93-.93v-4.02h-4.94ZM11.89,11.52s0,.01-.01.01h-2.11s-.01,0-.01-.01v-2.11s0-.01.01-.01h2.11s.01,0,.01.01v2.11ZM14.24,13.18c0,.39-.31.7-.7.7h-.88c-.18,0-.36.03-.53.1,0,0,0,0,0,0,0,0,0,0,0,0h0s0,0,0,0t0,0h0v-2.21s0-.01.01-.01h2.11s.01,0,.01.01v1.42Z"/>
              <path class="cls-5" d="M14.23,11.75h-2.11s-.01,0-.01.01v2.21h0s0,0,0,0c0,0,0,0,0,0h0s0,0,0,0c0,0,0,0,0,0,.17-.06.35-.1.53-.1h.88c.39,0,.7-.32.7-.7v-1.42s0-.01-.01-.01ZM14.22,13.18c0,.37-.3.67-.67.67h-.88c-.18,0-.36.03-.52.09v-2.18h2.08v1.41Z"/>
              <path class="cls-5" d="M11.88,9.39h-2.11s-.01,0-.01.01v2.11s0,.01.01.01h2.11s.01,0,.01-.01v-2.11s0-.01-.01-.01ZM11.86,11.5h-2.08v-2.08h2.08v2.08Z"/>
              <path class="cls-5" d="M14.49,9.13h-4.98s-.02.01-.02.02v4.04c0,.08.01.16.03.23.02.07.04.14.08.21.16.31.48.52.86.52h.88c.23,0,.45.06.65.19,0,0,0,0,.01,0s0,0,.01,0c.2-.12.42-.19.65-.19h.88c.37,0,.7-.21.86-.52.03-.06.06-.14.08-.21.02-.07.03-.15.03-.23v-4.04s0-.02-.02-.02ZM13.55,14.11h-.88c-.23,0-.46.06-.66.19-.2-.12-.43-.19-.66-.19h-.88c-.51,0-.93-.41-.93-.93v-4.02h4.94v4.02c0,.51-.41.93-.93.93Z"/>
            </g>
            <g>
              <path class="cls-3" d="M11.64,11.76v2.14c-.08-.02-.16-.03-.23-.03v-2.11h.23Z"/>
              <rect class="cls-3" x="10.94" y="11.76" width=".23" height="2.11"/>
              <rect class="cls-3" x="10.47" y="11.76" width=".23" height="2.11"/>
              <path class="cls-3" d="M10.24,11.76v2.07c-.09-.03-.17-.08-.23-.14v-1.94h.23Z"/>
              <path class="cls-7" d="M11.88,11.76v2.21c-.08-.03-.16-.05-.23-.07v-2.14h.23Z"/>
              <path class="cls-7" d="M11.41,11.76v2.11s-.05,0-.07,0h-.17v-2.11h.23Z"/>
              <rect class="cls-7" x="10.71" y="11.76" width=".23" height="2.11"/>
              <path class="cls-7" d="M10.47,11.76v2.11h-.02c-.08,0-.15-.01-.22-.03v-2.07h.23Z"/>
              <path class="cls-7" d="M10,11.76v1.94c-.14-.13-.23-.31-.23-.52v-1.42h.23Z"/>
            </g>
            <g>
              <rect class="cls-3" x="12.43" y="9.41" width=".3" height="2.11"/>
              <rect class="cls-3" x="13.03" y="9.41" width=".3" height="2.11"/>
              <rect class="cls-3" x="13.63" y="9.41" width=".3" height="2.11"/>
              <rect class="cls-7" x="13.93" y="9.41" width=".3" height="2.11"/>
              <rect class="cls-7" x="13.33" y="9.41" width=".3" height="2.11"/>
              <rect class="cls-7" x="12.73" y="9.41" width=".3" height="2.11"/>
              <rect class="cls-7" x="12.13" y="9.41" width=".3" height="2.11"/>
            </g>
            <g>
              <path class="cls-7" d="M11.76,9.61c-.04-.07-.12-.12-.2-.12-.09,0-.17.04-.22.11h-.06s-.04.02-.04.04c0,.02.02.04.04.04h.03s0,.04-.01.07h-.03s-.04.02-.04.04c0,.02.02.04.04.04h.03v.02h0c-.06.07-.31.33-1.35,1.46-.01.02-.01.04,0,.05l.03.03s.04.01.05,0c.19-.2,1.36-1.47,1.37-1.47.02-.02.02-.05.02-.07h0v-.07s0-.07.02-.1c.02-.03.06-.05.11-.05.04,0,.08.02.09.06.03.05.01.07,0,.08-.02.03-.05.04-.08.04h0s-.07.04-.06.09c0,.02.03.04.06.04h0c.07,0,.14-.03.18-.09.05-.06.05-.14.01-.22Z"/>
              <g>
                <path class="cls-8" d="M11.77,10.95c-.04-.07-.12-.11-.19-.11-.07,0-.12.07-.16.11-.07.09-.04.14-.12.23-.03.03-.07.08-.13.08-.07,0-.11-.06-.12-.07-.03-.04-.03-.09-.03-.12l.13.02.27-.85-.16-.18-.08-.09-.31-.35-.06-.07-.06.07-.55.63.18.58.09.27.13-.02s0,.08-.03.12c0,0-.05.07-.11.07-.06,0-.1-.05-.13-.08-.02-.02-.04-.05-.05-.07-.02-.04-.02-.08-.05-.13,0-.01-.01-.02-.02-.03-.03-.04-.08-.1-.16-.11-.07,0-.15.04-.19.11-.06.12.04.23.05.24.02.02.05.04.07.06.04.02.07.03.09.01s.02-.06.01-.09c0-.01-.01-.02-.02-.02-.01,0-.02-.02-.04-.04-.03-.03-.04-.05-.04-.07,0-.03.02-.06.04-.06.04-.01.08.04.1.06,0,0,.01.02.02.02.03.04.04.08.06.12,0,.02.01.04.03.06.04.07.11.17.19.18.1,0,.13-.02.16-.04.09-.05.12-.13.13-.16.02-.05.04-.12.03-.17h.06s.06,0,.06,0c0,.05,0,.12.03.17.01.02.04.1.13.16.03.02.06.05.16.04.08,0,.15-.1.19-.18.04-.09.04-.13.1-.21.02-.03.06-.07.1-.06.02,0,.04.04.04.06,0,.02-.01.04-.04.07-.03.04-.05.03-.06.06-.01.03-.01.07.01.09.03.03.12-.02.17-.07.01-.01.11-.13.05-.24ZM10.76,10.93l-.19.02-.03-.11-.04-.14-.14-.44.41-.47v1.13ZM10.88,10.93v-1.13l.22.25.08.09.1.12-.22.68-.19-.02Z"/>
                <polygon class="cls-7" points="10.88 9.8 11.29 10.27 11.07 10.95 10.88 10.93 10.88 9.8"/>
                <polygon class="cls-7" points="10.76 9.8 10.76 10.93 10.57 10.95 10.35 10.27 10.76 9.8"/>
              </g>
            </g>
            <g>
              <g>
                <g>
                  <path class="cls-3" d="M13.81,12.04s-.07-.03-.1-.03h.01s.04.04.05.07c0,0,.03.02.03.06,0,0,0,.02,0,.02h0s-.06.04-.1.04c-.04,0-.09-.01-.13-.02-.02,0-.04-.01-.05-.01-.03,0-.1.01-.14.04,0,0,0,0,0,0,0,.01.05.02.09.03.03,0,.03,0,.04-.01,0,0,.01-.01.03-.01.02,0,.07,0,.12.01.04,0,.07.01.09.01.01,0,.03,0,.05-.01.03-.01.05-.04.07-.06.02-.04,0-.09-.05-.13Z"/>
                  <path class="cls-2" d="M12.64,11.97s.02-.01.02-.02c0,0,0,0,0,0,0-.03-.02-.05-.03-.08,0,0,0,0,0,0h0s0,.02,0,.03c0,.01,0,.03,0,.04,0,0,.01.02,0,.03,0,0,0,0,0,0Z"/>
                  <path class="cls-3" d="M13.82,12.44s-.04-.03-.04-.06c0,0,0-.01,0-.02,0-.03,0-.07,0-.11-.01,0-.03.01-.04.01-.02,0-.06,0-.09-.01-.05,0-.1-.02-.12-.01-.01,0-.02,0-.02.01,0,0-.02.01-.04.01h0s-.1-.01-.11-.03c0,0,0-.01.01-.02.04-.03.11-.05.15-.04.01,0,.03,0,.05.01.04.01.09.02.13.02.04,0,.07-.01.09-.03,0-.03-.01-.05-.02-.07,0,0,0,0,0,0-.01-.03-.03-.05-.05-.06,0,0-.02-.01-.03-.02-.09-.03-.24,0-.35.02-.05,0-.08.01-.11.02-.02,0-.05,0-.08,0h0c-.06,0-.12.01-.17,0-.03,0-.1,0-.1-.04,0,0,0-.01,0-.01h0s.04-.05.03-.06c0,0-.02,0-.03,0-.02,0-.03,0-.04.02,0,0,0,0-.01,0,0,0,0,0,0-.01,0,0-.02,0-.02,0,0,0-.01,0-.01-.01h0s0,0,0,0c-.02,0-.03-.01-.04,0,0,0-.02.01-.02.01,0,0-.02.01-.02,0,0,.01,0,.02-.02.02,0,0,0,0,0,0,0,0,0,0,0,0,0,0,0,0,0,0-.01.01-.02.02-.03.03-.03.03-.05.05-.07.06,0,0-.01,0-.02.01-.02.01-.03.02,0,.06.02.02.03.02.05.03.02,0,.04,0,.07.02.02.01.03.01.05.02.04,0,.07.02.1.08.02.04.03.05.04.07.02.02.02.03,0,.06-.01.02-.03.03-.04.04-.02.02-.03.02,0,.06.03.05.06.1.08.16,0-.01.02-.03.03-.04.01,0,.02-.01.03-.01-.03-.05-.06-.1-.06-.11,0,0,0-.02,0-.03.01-.02.05-.04.14-.05-.01-.06-.03-.11-.03-.11s0,0,0,0c0,0,0,0,0,0s.03.11.05.17c.01.06,0,.17-.01.22.01,0,.02,0,.03.01.02,0,.03.02.04.03.02-.03.03-.05.02-.07,0-.03,0-.17.02-.22.02-.04.04-.14.04-.14,0,0,0,0,0,0,0,0,0,0,0,0,0,0-.01.06-.03.11.02,0,.04,0,.07,0,.08,0,.15.01.21-.01,0,0,.02,0,.03-.01.04-.02.08-.04.11-.05h0s-.07-.04-.07-.04c0,0,0,0,0,0,0,0,0,0,0,0,0,0,.04.02.08.05.07.04.12.08.15.11.02.02.02.03.03.04,0,.06-.02.18-.07.22.01,0,.02,0,.03,0,.02,0,.03.01.05.02.02-.04.04-.11.04-.21v-.02s.01-.03.02-.04c0-.02.02-.03.01-.04,0,0-.01-.01-.02-.02Z"/>
                  <path class="cls-2" d="M12.85,12.69s0,.02.01.03c0,.01.01.02.02.02.01,0,.02-.01.03-.03.01-.02.02-.04.01-.05h0s0-.02,0-.02c0,0-.02,0-.03.01-.02.01-.03.02-.03.04Z"/>
                  <path class="cls-2" d="M12.76,11.95s.02,0,.02,0c0-.02,0-.05,0-.06,0,0,0-.05-.01-.04-.02.02-.01.05-.02.08,0,0,0,0,0,0,0,0,0,.01.01.01Z"/>
                  <path class="cls-2" d="M13.68,12.75s-.02.01-.02.01c0,0-.02,0-.02.01,0,.01.04.03.09.03.01,0,.02-.01.04-.03-.01,0-.03-.01-.05-.02-.01,0-.02,0-.03,0Z"/>
                  <path class="cls-2" d="M13.01,12.73s0,.01-.01.02c-.01.01-.02.02-.02.03,0,0,.02.02.08.01,0,0,.01-.02.02-.03-.01,0-.02-.02-.04-.03-.01,0-.02-.01-.03-.01Z"/>
                  <path class="cls-3" d="M13.71,12.49s-.08-.06-.14-.11h-.02s-.07.04-.11.06c0,0-.01,0-.02.01.05.04.09.06.12.06.06,0,.06,0,.06.01h0s0,0,0,0c0,0-.1.12-.16.16.01,0,.03.01.05.03,0,0,0,0,0,0,.05-.03.18-.16.21-.25Z"/>
                  <path class="cls-2" d="M13.45,12.69s-.02.01-.03.01-.01,0-.01,0c0,0,0,0,0,.01.01.01.04.03.07.02,0,0,.01,0,.02,0,0,0,0,0,0,0-.01-.02-.03-.03-.05-.03Z"/>
                </g>
                <g>
                  <path class="cls-7" d="M12.7,12.03s-.01.02-.03.02c-.01,0-.03,0-.03-.02s.01-.01.03-.02c.04-.02.03,0,.03.02Z"/>
                  <path class="cls-7" d="M12.54,12.14s-.02,0-.03-.02c0-.02,0-.02.01-.02s.01,0,.02.01c.03.03,0,.03-.01.03Z"/>
                </g>
                <path class="cls-2" d="M12.7,12.22s.06-.06.1-.11c.02-.03.03-.05.05-.08,0-.01.03.02.03.02-.01.03-.03.05-.05.08-.03.04-.06.08-.09.11l-.02.09s-.02-.03-.02-.03c0,0-.03,0-.03,0,0,0,.02-.03.02-.05,0,0,0-.02.02-.03Z"/>
              </g>
              <g>
                <g>
                  <path class="cls-3" d="M13.81,12.99s-.07-.03-.1-.03h.01s.04.04.05.07c0,0,.03.02.03.05,0,0,0,.02,0,.02h0s-.06.04-.1.04c-.04,0-.09-.01-.13-.02-.02,0-.04-.01-.05-.01-.03,0-.1.01-.14.04,0,0,0,0,0,.01,0,.01.05.02.09.02.03,0,.03,0,.04-.01,0,0,.01-.01.03-.01.02,0,.07,0,.12.01.04,0,.07.01.09.01.01,0,.03,0,.05-.01.03-.01.05-.04.07-.06.02-.04,0-.09-.05-.13Z"/>
                  <path class="cls-2" d="M12.64,12.93s.02-.01.02-.02c0,0,0,0,0,0,0-.03-.02-.05-.03-.08,0,0,0,0,0,0,0,0,0,0,0,0,0,0,0,.02,0,.03,0,.02,0,.03,0,.05,0,0,.01.02,0,.03h0Z"/>
                  <path class="cls-3" d="M13.82,13.4s-.04-.03-.04-.06c0,0,0-.01,0-.03,0-.02,0-.07,0-.11-.01,0-.03.01-.04.01-.02,0-.06,0-.09-.01-.05,0-.1-.02-.12-.01-.01,0-.02,0-.02.01,0,0-.02.01-.04.01h0s-.1-.01-.11-.04c0,0,0-.01.01-.02.04-.03.11-.04.15-.04.01,0,.03,0,.05.01.04.01.09.02.13.02.04,0,.07-.02.09-.04,0-.03-.01-.05-.02-.07h0s-.03-.05-.05-.06c0,0-.02-.01-.03-.02-.09-.03-.24,0-.35.01-.05,0-.08.02-.11.02-.02,0-.05,0-.08,0h0c-.06,0-.12.01-.17.01-.03,0-.1,0-.1-.05,0,0,0,0,0-.01h0s.04-.05.03-.06c0,0-.02,0-.03,0-.02,0-.03.01-.04.02,0,0,0,0-.01,0,0,0,0,0,0-.01,0,0-.02,0-.02,0,0,0-.01,0-.01-.01h0s0,0,0,0c-.02-.01-.03-.01-.04-.01,0,0-.02.01-.02.01,0,0-.02.01-.02,0,0,.01,0,.02-.02.02h0s0,0,0,0c0,0,0,0,0,0-.01.01-.02.02-.03.03-.03.03-.05.04-.07.06,0,0-.01.01-.02.01-.02.01-.03.02,0,.06.02.02.03.02.05.03.02,0,.04,0,.07.02.02,0,.03.01.05.02.04.01.07.02.1.09.02.03.03.05.04.06.02.02.02.03,0,.06-.01.02-.03.03-.04.04-.02.02-.03.02,0,.06.03.05.06.1.08.16,0-.01.02-.03.03-.04.01,0,.02-.01.03-.01-.03-.05-.06-.1-.06-.11,0,0,0-.01,0-.03.01-.02.05-.04.14-.05-.01-.05-.03-.11-.03-.11,0,0,0,0,0,0,0,0,0,0,0,0,0,0,.03.1.05.17.01.06,0,.17-.01.22.01,0,.02,0,.03.01.02,0,.03.02.04.03.02-.03.03-.05.02-.07,0-.03,0-.17.02-.22.02-.05.04-.14.04-.14,0,0,0,0,0,0,0,0,0,0,0,0,0,0-.01.06-.03.11.02,0,.04,0,.07,0,.08,0,.15.01.21-.01,0,0,.02,0,.03-.01.04-.02.08-.04.11-.05h0s-.07-.04-.07-.04c0,0,0,0,0,0,0,0,0,0,0,0,0,0,.04.02.08.05.07.04.12.08.15.11.02.02.02.03.03.04,0,.05-.02.18-.07.22.01,0,.02,0,.03,0,.02,0,.03.01.05.02.02-.04.04-.11.04-.21v-.02s.01-.03.02-.04c0-.01.02-.03.01-.04,0,0-.01-.01-.02-.02Z"/>
                  <path class="cls-2" d="M12.85,13.64s0,.02.01.03c0,0,.01.02.02.02.01,0,.02-.01.03-.03.01-.02.02-.04.01-.05h0s0-.01,0-.02c0,0-.02,0-.03.01-.02.01-.03.02-.03.04Z"/>
                  <path class="cls-2" d="M12.76,12.9s.02,0,.02,0c0-.02,0-.05,0-.06,0,0,0-.05-.01-.04-.02.02-.01.06-.02.08,0,0,0,0,0,0,0,0,0,0,.01.01Z"/>
                  <path class="cls-2" d="M13.68,13.7s-.02.01-.02.01c0,0-.02,0-.02.01,0,.02.04.03.09.03.01,0,.02-.01.04-.03-.01,0-.03-.02-.05-.02-.01,0-.02,0-.03,0Z"/>
                  <path class="cls-2" d="M13.01,13.68s0,.01-.01.02c-.01.01-.02.02-.02.03,0,0,.02.02.08.02,0-.01.01-.02.02-.03-.01-.01-.02-.02-.04-.03-.01,0-.02-.01-.03-.01Z"/>
                  <path class="cls-3" d="M13.71,13.44s-.08-.06-.14-.11h-.02s-.07.04-.11.06c0,0-.01,0-.02,0,.05.04.09.07.12.07.06,0,.06,0,.06.01h0s0,0,0,0c0,0-.1.12-.16.16.01,0,.03.02.05.03,0,0,0,0,0,0,.05-.03.18-.16.21-.25Z"/>
                  <path class="cls-2" d="M13.45,13.65s-.02.01-.03.01c0,0-.01,0-.01,0,0,0,0,0,0,.01.01.01.04.03.07.02,0,0,.01,0,.02-.01,0,0,0,0,0,0-.01-.02-.03-.03-.05-.03Z"/>
                </g>
                <g>
                  <path class="cls-7" d="M12.7,12.98s-.01.02-.03.02c-.01,0-.03,0-.03-.02,0,0,.01-.01.03-.02.04-.02.03,0,.03.02Z"/>
                  <path class="cls-7" d="M12.54,13.1s-.02,0-.03-.02c0-.01,0-.02.01-.02.01,0,.01,0,.02.01.03.03,0,.03-.01.03Z"/>
                </g>
                <path class="cls-2" d="M12.7,13.17s.06-.05.1-.11c.02-.03.03-.05.05-.08,0-.01.03.02.03.02-.01.03-.03.05-.05.09-.03.04-.06.08-.09.1l-.02.09s-.02-.02-.02-.03c0,0-.03,0-.03,0,0,0,.02-.03.02-.05,0,0,0-.02.02-.03Z"/>
              </g>
            </g>
            <path class="cls-5" d="M14.23,9.39h-2.11s-.01,0-.01.01v2.11s0,.01.01.01h2.11s.01,0,.01-.01v-2.11s0-.01-.01-.01ZM14.22,11.5h-2.08v-2.08h2.08v2.08Z"/>
            <path class="cls-5" d="M11.88,11.75h-2.11s-.01,0-.01.01v1.42c0,.2.09.39.24.53.07.06.15.11.24.14.07.02.15.04.22.04h.95c.08,0,.16.01.23.03.08.02.16.04.23.07,0,0,0,0,0,0s0,0,0,0c0,0,0,0,0-.01v-2.21s0-.01-.01-.01ZM11.86,13.95c-.07-.02-.14-.05-.22-.06h0c-.08-.01-.16-.02-.23-.03-.02,0-.04,0-.07,0h-.88c-.07,0-.15-.01-.21-.04,0,0,0,0,0,0-.08-.03-.16-.07-.23-.13,0,0,0,0,0,0-.14-.13-.22-.31-.22-.5v-1.41h2.08v2.18Z"/>
          </g>
        </g>
        <g>
          <path class="cls-5" d="M9.64,14.15h0s.02.02.02.02c0,0,0,.01,0,.01,0,0-.01.02-.02.03l-.13.15-.02-.2s0-.03,0-.04c0,0,0,0,0,0s0,0,0,0h.01s.01,0,.02,0h0s-.12-.05-.12-.05h0s.02.01.02.02c0,0,0,0,.01.01,0,0,0,.01,0,.03l.03.29h0s.19-.21.19-.21c0,0,0-.01.01-.01s0,0,.01-.01c0,0,0,0,.02,0,0,0,.01,0,.02,0h0s-.09-.04-.09-.04Z"/>
          <path class="cls-5" d="M9.75,14.18h0s0,.01,0,.01c0,0,.01,0,.02.01,0,0,0,0,0,0,0,0,0,0,0,0,0,0,0,0,0,.01,0,0,0,.01,0,.02l-.06.19s-.01.03-.02.03c0,0-.02,0-.03,0h-.01s0,0,0,0l.13.04h0s0-.01,0-.01c0,0-.01,0-.02-.01,0,0,0,0,0,0s0,0,0,0c0,0,0,0,0-.01,0,0,0-.01,0-.02l.06-.19s.01-.03.02-.03c0,0,.02,0,.03,0h.01s0,0,0,0l-.13-.04Z"/>
          <path class="cls-5" d="M10.07,14.57s-.02-.03-.03-.05l-.04-.1s.03,0,.04,0,.02,0,.03-.01c0,0,.01-.01.02-.02,0,0,.01-.01.01-.02,0,0,0-.02,0-.02,0,0,0-.02,0-.02,0,0,0-.01-.01-.02,0,0-.01-.01-.02-.01-.01-.01-.04-.02-.07-.03l-.11-.03h0s.01.01.01.01c.01,0,.02,0,.02.02,0,0,0,.02,0,.04l-.05.19s0,.03-.01.03c0,0-.02.01-.03,0h-.01s0,0,0,0l.13.03h0s-.01-.01-.01-.01c-.01,0-.02,0-.02-.01,0,0,0-.02,0-.04l.02-.08s0,0,0,0c0,0,0,0,0,0,0,0,0,0,0,0,0,0,0,0,.01,0l.06.17.08.02h0s-.03-.02-.04-.03ZM9.95,14.4h0s0,0,0,0l.03-.13s.01,0,.02,0c0,0,.01,0,.01,0,.01,0,.02,0,.03.01,0,0,.01.01.02.02,0,0,0,.02,0,.02,0,0,0,.02,0,.03,0,.01,0,.02-.01.02,0,0-.01.01-.02.02,0,0-.02,0-.03,0s-.02,0-.04,0Z"/>
          <path class="cls-5" d="M10.17,14.3v.07s0,0,0,0c0-.01,0-.02.01-.02s0-.01.01-.01c0,0,.01,0,.02,0,0,0,.01,0,.02,0h.04s-.05.24-.05.24c0,.02,0,.03-.01.03,0,0-.02,0-.03,0h-.01s0,0,0,0l.13.03h0s-.01-.01-.01-.01c-.01,0-.02,0-.02-.01,0,0,0-.02,0-.04l.05-.23h.04s.01.01.02.02c0,0,.01,0,.02.01,0,0,0,.01,0,.02,0,0,0,.02,0,.02h0s.01-.07.01-.07l-.25-.06Z"/>
          <path class="cls-5" d="M10.66,14.4h0s.02.02.02.02c0,0,0,.01,0,.02,0,0,0,.02-.02.03l-.1.16-.04-.19s0-.03,0-.04c0,0,0,0,0,0h0s0,0,.01,0h.02s-.13-.03-.13-.03h0s.02.01.02.02c0,0,.01,0,.01.01,0,0,0,.01,0,.03l.07.28h0s.15-.24.15-.24c0,0,0-.01.01-.02,0,0,0,0,.01-.01,0,0,.01,0,.01,0,0,0,.01,0,.02,0h0s-.09-.02-.09-.02Z"/>
          <path class="cls-5" d="M10.94,14.61s-.02-.02-.03-.02c-.01,0-.02-.02-.03-.02-.01,0-.02-.01-.03-.02s-.02-.01-.02-.02-.01-.01-.01-.02c0,0,0-.01,0-.02,0,0,0-.01,0-.02s0-.01.01-.01c0,0,0,0,.02,0,0,0,.01,0,.02,0,0,0,.01,0,.02,0,0,0,.01,0,.02.01s.01,0,.01.01c0,0,0,.01.01.02,0,.01,0,.03,0,.05h0v-.11s0,0,0,0c0,0,0,.01,0,.01,0,0,0,0-.01,0s-.01,0-.02,0c-.02-.01-.03-.02-.05-.02-.01,0-.03,0-.04,0-.01,0-.02,0-.03.01,0,0-.02.01-.02.02,0,0,0,.02-.01.03,0,.01,0,.03,0,.04,0,0,.01.02.02.03,0,0,.02.02.03.02l.03.02s.02.01.03.02.02.01.02.02.01.01.01.02c0,0,0,.01,0,.02,0,0,0,.01,0,.02,0,0-.01.01-.01.01,0,0-.01,0-.02.01,0,0-.02,0-.03,0h-.02s-.01-.01-.02-.02,0-.01-.02-.01c0,0,0-.01-.01-.02s0-.01,0-.02c0,0,0-.02,0-.03h0s-.02.1-.02.1h.01s0-.01,0-.01,0,0,.01,0h0s0,0,0,0c0,0,0,0,.01,0s0,0,.01,0c0,0,.01,0,.01,0s0,0,.01,0c0,0,0,0,.01,0,0,0,0,0,.01,0,.01,0,.03,0,.04,0,.01,0,.02,0,.03-.01s.02-.01.02-.02,0-.02.01-.03c0-.01,0-.02,0-.03,0-.01-.01-.02-.02-.03Z"/>
          <path class="cls-5" d="M11.43,14.49h-.09s0,0,0,0c.01,0,.02,0,.02.01s0,0,0,.01,0,.02-.01.03l-.09.17-.06-.18s0-.03,0-.04c0,0,0,0,0,0,0,0,0,0,0,0,0,0,0,0,.01,0,0,0,.01,0,.02,0h0s-.13-.02-.13-.02h0s.01.01.02.01.01,0,.01.01c0,0,0,.01.01.03l.09.27h.01s.13-.25.13-.25c0,0,0-.01.01-.02,0,0,0,0,.01-.01,0,0,0,0,.01,0,0,0,.01,0,.02,0h0s0,0,0,0Z"/>
          <path class="cls-5" d="M11.66,14.5h0s.01,0,.01,0c.01,0,.02,0,.03.01,0,0,0,.02,0,.04v.18s-.19-.24-.19-.24h-.08s0,0,0,0h0s0,0,0,0h0s.01,0,.02,0c0,0,.01,0,.01,0,0,0,0,0,.01,0,0,0,0,0,0,0,0,0,0,0,.01.01v.21s0,.03-.01.03c0,0-.02.01-.03.01h-.01s.11.01.11.01h0s-.01-.01-.01-.01c-.01,0-.02,0-.03-.01,0,0,0-.02,0-.03v-.19s.2.25.2.25h0v-.26s.01-.03.01-.03c0,0,.02-.01.03-.01h.01s0,0,0,0h-.11Z"/>
          <path class="cls-5" d="M11.91,14.8s-.01,0-.02,0c0,0,0,0,0,0,0,0,0,0,0,0,0,0,0,0,0-.01v-.22s0-.03,0-.03c0,0,.02-.01.03-.01h.01s-.13,0-.13,0h0s.01,0,.01,0c0,0,.01,0,.02,0,0,0,0,0,0,0s0,0,0,0c0,0,0,0,0,.01v.22s0,.03,0,.03c0,0-.02.01-.03.01h-.01s.13,0,.13,0h0s-.01,0-.01,0Z"/>
          <path class="cls-5" d="M12.19,14.49h-.26s0,.08,0,.08h0s0-.02,0-.03,0-.01.01-.02c0,0,0,0,.02,0,0,0,.02,0,.02,0h.04v.23s0,.03,0,.03c0,.01-.01.01-.03.01h-.01s.13,0,.13,0h0s-.01,0-.01,0c-.01,0-.02,0-.03,0s0-.02,0-.04v-.23s.04,0,.04,0c0,0,.01,0,.02,0,0,0,.01,0,.02.01,0,0,.01,0,.01.01,0,0,0,.02,0,.02h0v-.07Z"/>
          <path class="cls-5" d="M12.5,14.77s0,0-.01,0c0,0,0,0-.01-.01s0-.01-.01-.02l-.13-.25h0s-.09.26-.09.26c0,.01,0,.02-.01.03,0,0,0,.01-.01.02,0,0-.01,0-.02.01h0s.1,0,.1,0h0s-.01,0-.02-.01c0,0,0,0-.01,0h0s0-.01,0-.01c0,0,0-.02,0-.03l.02-.05h.12s.02.03.02.03c0,0,0,.01,0,.02,0,0,0,0,0,.01h0s0,.01,0,.01,0,0,0,0-.01,0-.02,0h0s.12,0,.12,0h0s-.01,0-.02,0ZM12.28,14.67l.05-.13.06.12h-.11Z"/>
          <path class="cls-5" d="M12.82,14.43l-.23.03h0s.01,0,.01,0c0,0,.01,0,.02,0,0,0,0,0,0,0h0s0,.01,0,.02c0,0,0,.01,0,.02l.02.2s0,.03,0,.03c0,0-.01.01-.03.01h-.01s0,.01,0,.01l.13-.02h0s-.01,0-.01,0c0,0-.01,0-.02,0,0,0,0,0,0,0s0,0,0,0c0,0,0,0,0-.01,0,0,0-.01,0-.02v-.1s.04,0,.04,0c0,0,.01,0,.02,0,0,0,.01,0,.01,0,0,0,0,0,0,.01,0,0,0,.01,0,.02h0v-.1h-.02s0,.02,0,.02c0,0,0,.01,0,.01,0,0,0,0-.01.01,0,0-.01,0-.02,0h-.06s-.01-.11-.01-.11h.07s.02-.01.03-.01c0,0,.01,0,.02,0,0,0,.01,0,.01.01,0,0,.01.01.01.02h0s-.01-.07-.01-.07Z"/>
          <path class="cls-5" d="M13.18,14.53s-.03-.08-.06-.11c-.03-.03-.07-.03-.11-.03-.04,0-.07.03-.1.06-.03.04-.04.08-.03.13,0,.05.03.08.06.11.03.02.07.03.11.03.04,0,.07-.03.1-.06.02-.04.03-.08.02-.12ZM13.13,14.6s0,.03-.01.05c0,.01-.02.02-.03.03-.01,0-.02.01-.04.01-.02,0-.03,0-.04,0-.01,0-.03-.01-.04-.02-.01-.01-.02-.03-.03-.04,0-.02-.01-.04-.02-.06s0-.04,0-.06c0-.02,0-.03.01-.05,0-.01.01-.02.03-.03.01,0,.02-.01.04-.02.02,0,.03,0,.04,0,.01,0,.03.01.04.02.01.01.02.03.03.04,0,.02.01.04.02.06,0,.02,0,.05,0,.06Z"/>
          <path class="cls-5" d="M13.31,14.51h0s0,0,.01,0l.13.12.08-.02h0s-.03,0-.04-.01c-.01,0-.03-.02-.05-.03l-.08-.07s.02-.01.03-.02c0,0,.01-.02.02-.02,0,0,0-.02,0-.02,0,0,0-.02,0-.03,0-.01,0-.02-.01-.02,0,0-.01-.01-.02-.02,0,0-.01,0-.02-.01,0,0-.02,0-.02,0-.02,0-.04,0-.07,0l-.11.02h0s.01,0,.01,0c.01,0,.02,0,.03,0s.01.02.01.03l.04.19s0,.03,0,.03c0,.01-.01.02-.02.02h-.01s0,.01,0,.01l.13-.03h0s-.01,0-.01,0c-.01,0-.02,0-.03,0,0,0-.01-.02-.01-.03l-.02-.09s0,0,0,0,0,0,0,0ZM13.29,14.5l-.03-.13s.01,0,.02,0c0,0,.01,0,.01,0,.01,0,.02,0,.03,0,0,0,.02,0,.02,0,0,0,.01.01.02.02,0,0,0,.02.01.03,0,0,0,.02,0,.03,0,0,0,.02-.01.02,0,0-.01.01-.02.02-.01,0-.02.01-.04.01t0,0s0,0,0,0Z"/>
          <path class="cls-5" d="M13.71,14.56s-.02,0-.03,0c0,0-.01-.02-.01-.03l-.06-.23h.04s.02-.01.02-.01c0,0,.01,0,.02,0,0,0,.01,0,.01.01,0,0,0,.01.01.02h0l-.02-.07-.25.06.02.07h.01s0-.02,0-.03c0,0,0-.01,0-.02,0,0,.01,0,.02-.01,0,0,.01,0,.02,0h.04s.06.22.06.22c0,.02,0,.03,0,.03,0,.01-.01.02-.02.02h-.01s0,.01,0,.01l.13-.03h0s-.01,0-.01,0Z"/>
          <path class="cls-5" d="M13.94,14.49h-.01s-.01,0-.02,0c0,0,0,0,0,0,0,0,0,0,0,0,0,0,0,0,0-.01,0,0,0-.01,0-.02l-.05-.19s0-.03,0-.04c0,0,0-.01.02-.02h.01s0-.01,0-.01l-.13.03h0s.01,0,.01,0c0,0,.01,0,.02,0,0,0,0,0,0,0h0s0,.01,0,.02,0,.01,0,.02l.05.19s0,.03,0,.03c0,0-.01.01-.02.02h-.01s0,.01,0,.01l.13-.04h0Z"/>
          <path class="cls-5" d="M14.21,14.25s-.04-.07-.08-.09c-.04-.02-.07-.02-.11-.01-.04.01-.07.03-.08.07-.02.04-.03.08-.01.13.01.04.04.08.08.1s.07.02.12.01c.04-.01.07-.04.09-.08.02-.04.02-.08,0-.13ZM14.17,14.38s-.01.02-.02.03c-.01,0-.02.01-.03.02-.02,0-.03,0-.04,0s-.03-.01-.04-.02c-.01,0-.02-.02-.03-.04s-.02-.03-.02-.05c0-.02-.01-.04-.01-.06,0-.02,0-.03,0-.05,0-.02.01-.03.02-.04.01,0,.02-.02.04-.02.02,0,.03,0,.04,0,.01,0,.03.01.04.02.01,0,.02.02.03.04.01.02.02.04.03.06,0,.02.01.04.01.06,0,.02,0,.03,0,.05Z"/>
          <path class="cls-5" d="M14.34,14.22s0,0,0,0c0,0,0,0,.01,0l.15.1.08-.03h0s-.03,0-.04,0c-.01,0-.03-.01-.05-.03l-.09-.06s.02-.01.03-.02c0,0,.01-.02.01-.02,0-.01,0-.02,0-.03s0-.02,0-.03c0,0,0-.02-.01-.02,0,0-.01-.01-.02-.01,0,0-.01,0-.02-.01s-.02,0-.02,0c-.02,0-.04,0-.07.02l-.1.04h0s.01,0,.01,0c.01,0,.02,0,.03,0,0,0,.01.01.02.03l.07.19s0,.03,0,.03c0,.01-.01.02-.02.02h-.01s0,.01,0,.01l.12-.05h0s-.01,0-.01,0c-.01,0-.02,0-.03,0,0,0-.01-.01-.02-.03l-.03-.08s0,0,0,0c0,0,0,0,0,0ZM14.32,14.21l-.04-.12s.01,0,.02-.01c0,0,.01,0,.01,0,0,0,.02,0,.03,0,0,0,.02,0,.02,0,0,0,.01.01.02.02,0,0,.01.01.01.02,0,.01,0,.02,0,.03,0,.01,0,.02-.01.03,0,.01-.01.02-.02.02,0,0-.02.01-.03.02t0,0s0,0,0,0Z"/>
        </g>
      </g>
    </g>
  </g>
</svg>