<?xml version="1.0" encoding="UTF-8"?>
<svg id="Layer_1" data-name="Layer 1" xmlns="http://www.w3.org/2000/svg" viewBox="0 0 24 24">
  <defs>
    <style>
      .cls-1 {
        fill: #000;
      }

      .cls-1, .cls-2, .cls-3, .cls-4, .cls-5 {
        stroke-width: 0px;
      }

      .cls-2 {
        fill: #d7241b;
      }

      .cls-3 {
        fill: none;
      }

      .cls-4 {
        fill: #1e1815;
      }

      .cls-5 {
        fill: #f6d324;
      }
    </style>
  </defs>
  <rect class="cls-3" width="24" height="24"/>
  <g>
    <path class="cls-1" d="M16.71,7.34c2.92,2.92,3.18,7.42.57,10.03-2.61,2.61-7.11,2.35-10.03-.57-2.92-2.92-3.18-7.42-.57-10.03,2.61-2.61,7.11-2.36,10.03.57Z"/>
    <g>
      <g>
        <path class="cls-4" d="M21,12c0,1.64-.44,3.18-1.21,4.5-1.56,2.69-4.47,4.5-7.79,4.5s-6.23-1.81-7.79-4.5c-.77-1.33-1.21-2.86-1.21-4.5h18Z"/>
        <path class="cls-2" d="M21,12H3c0-1.64.44-3.18,1.21-4.5,1.56-2.69,4.47-4.5,7.79-4.5s6.23,1.81,7.79,4.5c.77,1.32,1.21,2.86,1.21,4.5Z"/>
      </g>
      <g>
        <polygon class="cls-5" points="11.62 7.87 11.98 8.98 13.14 8.98 12.2 9.66 12.56 10.76 11.62 10.08 10.68 10.76 11.04 9.66 10.11 8.98 11.26 8.98 11.62 7.87"/>
        <g>
          <path class="cls-5" d="M11.15,12.88s-.02-.03,0-.04c.01-.01.03-.02.04,0l4.01,3.08h0s.05-.06.05-.06c0,0-.04-.03-.05-.04-.2-.15-.4-.31-.6-.46-.35-.27-.69-.54-1.04-.81-.39-.3-.77-.6-1.16-.89-.32-.25-.63-.49-.95-.74-.14-.11-.28-.22-.41-.33-.27-.22-.53-.45-.76-.7-.11-.11-.23-.23-.3-.37-.08-.14-.16-.29-.21-.44-.07.17-.17.33-.22.51-.05.19-.07.39-.04.59.09.64.61,1.11,1.12,1.44,1.9,1.2,4.18,2.75,4.18,2.75,0,0,.22-.25.35-.4l-4.01-3.08Z"/>
          <path class="cls-5" d="M16.84,17.14c-.07-.07-1.49-1.2-1.49-1.2l-.37.45,1.19.91s.11.35.36.37c.16.01.31-.07.36-.23.03-.09.02-.23-.05-.3ZM15.72,16.54s-.06-.03-.06-.06c0-.03.03-.06.06-.06s.06.03.06.06c0,.03-.02.06-.06.06ZM16,16.76s-.06-.03-.06-.06.03-.06.06-.06.06.03.06.06-.03.06-.06.06ZM16.28,16.98s-.06-.03-.06-.06c0-.03.03-.06.06-.06.03,0,.06.02.06.06,0,.03-.03.06-.06.06Z"/>
        </g>
        <g>
          <path class="cls-5" d="M10.5,15.11c-.83-.07-1.58-.38-2.18-.85l-.4.51c.12.09.24.18.37.27l-.17.43.7.36.25-.39c.3.12.61.21.94.27v.47s.79.06.79.06l.09-.46c.33,0,.66-.04.97-.11l.19.43.75-.24-.1-.46c.08-.04.17-.07.25-.12l-.65-.42c-.56.21-1.17.31-1.8.26Z"/>
          <path class="cls-5" d="M15.96,11.85l.06-.79-.46-.08c0-.33-.04-.66-.11-.97l.43-.19-.24-.75-.46.1c-.13-.3-.29-.59-.47-.85l.33-.34-.51-.6-.39.27c-.23-.23-.49-.43-.77-.61l.17-.44-.7-.36-.25.39c-.24-.1-.49-.18-.76-.23l-.13.63c1.97.43,3.36,2.26,3.2,4.33-.09,1.15-.65,2.14-1.47,2.82l.86.7.19-.16-.27-.38c.23-.23.43-.49.61-.77l.44.17.36-.7-.39-.25c.12-.3.21-.61.27-.94h.47Z"/>
        </g>
      </g>
    </g>
  </g>
</svg>