<?xml version="1.0" encoding="UTF-8"?>
<svg id="Layer_1" data-name="Layer 1" xmlns="http://www.w3.org/2000/svg" viewBox="0 0 24 24">
  <defs>
    <style>
      .cls-1 {
        fill: #000;
      }

      .cls-1, .cls-2, .cls-3, .cls-4, .cls-5, .cls-6, .cls-7, .cls-8 {
        stroke-width: 0px;
      }

      .cls-2 {
        fill: none;
      }

      .cls-3 {
        fill: #99cbfe;
      }

      .cls-4 {
        fill: #fe980e;
      }

      .cls-5 {
        fill: #032774;
      }

      .cls-6 {
        fill: #cbcb38;
      }

      .cls-7 {
        fill: #fff;
      }

      .cls-8 {
        fill: #df0333;
      }
    </style>
  </defs>
  <rect class="cls-2" width="24" height="24"/>
  <g>
    <path class="cls-1" d="M16.71,7.34c2.92,2.92,3.18,7.42.57,10.03-2.61,2.61-7.11,2.35-10.03-.57-2.92-2.92-3.18-7.42-.57-10.03,2.61-2.61,7.11-2.36,10.03.57Z"/>
    <g>
      <g>
        <path class="cls-5" d="M19.14,6.53c-1.65-2.14-4.23-3.53-7.14-3.53s-5.49,1.38-7.14,3.53c-.11.15-.22.3-.32.45-.1.15-.2.31-.29.46-.06.11-.12.21-.18.32-.03.05-.06.11-.08.16-.07.14-.14.29-.21.43-.05.12-.11.24-.15.36-.14.36-.26.72-.35,1.09-.03.12-.06.24-.08.36-.06.29-.11.59-.14.9-.02.21-.03.42-.04.63,0,.1,0,.2,0,.3,0,2.06.69,3.96,1.86,5.48,1.65,2.14,4.23,3.52,7.14,3.52s5.49-1.38,7.14-3.52c1.17-1.52,1.86-3.42,1.86-5.48s-.69-3.96-1.86-5.47Z"/>
        <g>
          <path class="cls-5" d="M4.84,10.17l-1.79.9c.03-.31.08-.6.14-.9h1.65Z"/>
          <path class="cls-5" d="M6.97,6.53v1.67l-2.44-1.22c.1-.15.21-.31.32-.45h2.11Z"/>
          <path class="cls-5" d="M4.84,8.35h-1.07c.06-.15.13-.29.21-.43l.86.43Z"/>
          <polygon class="cls-5" points="13.36 8.35 13.36 7.14 10.93 8.35 13.36 8.35"/>
          <polygon class="cls-5" points="12.13 6.53 8.8 6.53 8.8 8.19 12.13 6.53"/>
          <polygon class="cls-5" points="13.36 11.39 13.36 10.17 10.93 10.17 13.36 11.39"/>
          <polygon class="cls-5" points="3.64 12 6.97 12 6.97 10.33 3.64 12"/>
          <polygon class="cls-5" points="8.8 12 12.13 12 8.8 10.33 8.8 12"/>
          <path class="cls-7" d="M13.36,7.13l-2.43,1.22h2.43v1.82h-2.43l2.43,1.22v.21l-2.84-1.42h-.82l3.65,1.83h-1.22l-3.34-1.67v1.67h-1.82v-1.67l-3.34,1.67h-.41l3.65-1.83h-.82l-3.05,1.53c0-.21.02-.42.04-.63l1.79-.9h-1.65c.02-.12.05-.24.08-.36.09-.37.21-.74.35-1.09.05-.12.1-.24.15-.36h1.07l-.86-.43c.03-.05.05-.11.08-.16l1.18.59h.82l-1.82-.91c.09-.16.19-.32.29-.46l2.44,1.22v-1.67h1.82v1.67l3.34-1.67h.41l-3.65,1.83h.82l3.65-1.83h0v.61Z"/>
          <path class="cls-8" d="M6.06,8.35h-.82l-1.18-.59c.06-.11.12-.21.18-.32l1.82.91Z"/>
          <polygon class="cls-8" points="9.7 10.17 13.35 12 13.36 12 13.36 11.6 10.52 10.17 9.7 10.17"/>
          <polygon class="cls-8" points="8.89 8.35 9.71 8.35 13.35 6.53 12.54 6.53 8.89 8.35"/>
          <path class="cls-8" d="M6.88,10.17l-3.65,1.83h-.23c0-.1,0-.2,0-.3l3.05-1.53h.82Z"/>
          <path class="cls-8" d="M13.36,8.72v1.09h-4.93v2.19h-1.09v-2.19H3.27c.09-.37.21-.74.35-1.09h3.72v-2.19h1.09v2.19h4.93Z"/>
        </g>
      </g>
      <g>
        <g>
          <path class="cls-7" d="M19.02,9.54c0,.61-.02,2.34-.32,3.23-.05.16-.13.31-.22.46h-3.06c-.09-.15-.17-.3-.22-.46-.3-.9-.32-2.63-.32-3.23.21.08.55.19.97.19.38,0,.75-.09,1.09-.26.35.17.72.26,1.09.26.42,0,.76-.11.97-.19Z"/>
          <path class="cls-3" d="M15.42,13.23h3.06c-.45.73-1.28,1.32-1.53,1.49-.25-.17-1.08-.76-1.53-1.49Z"/>
          <path class="cls-6" d="M19.16,9.32s.06,2.37-.32,3.5c-.38,1.14-1.89,2.08-1.89,2.08,0,0-1.51-.94-1.88-2.08-.38-1.13-.32-3.5-.32-3.5,0,0,1.03.62,2.2,0,1.18.62,2.2,0,2.2,0ZM18.71,12.77c.3-.9.32-2.63.32-3.23-.21.08-.55.19-.97.19-.38,0-.75-.09-1.09-.26-.35.17-.72.26-1.09.26-.42,0-.76-.11-.97-.19,0,.61.01,2.33.32,3.23.05.16.13.31.22.46.45.73,1.28,1.32,1.53,1.49.25-.17,1.08-.76,1.53-1.49h0c.09-.15.17-.3.22-.46Z"/>
        </g>
        <path class="cls-4" d="M17.78,10.4c.13-.04.22-.07.29-.14,0,0,0-.01,0-.02-.08-.02-.19-.02-.35.05-.17.07-.47-.02-.59-.08s-.37-.16-.6-.09c-.11-.12-.12-.25-.12-.31,0-.02-.02-.03-.03-.02-.06.04-.16.16-.14.45,0,0-.31.44-.25.69s.15.33.12.5c-.01.06-.02.12-.02.17,0,.04.02.17.09.14.01,0,.02-.02.03-.03.03-.05.06-.11.08-.16.02-.05.05-.11.07-.16.01-.03.15-.35.13-.35.09.04.24.05.33-.04-.17-.06-.38-.11-.25-.28.13-.17.36-.24.54-.26.19-.02.41,0,.58.25.08.1.15.15.18.17,0,0,.02,0,.02,0,0-.05-.02-.19-.09-.24-.1-.06-.16-.2-.03-.24ZM16.12,11.14s-.05-.02-.05-.05.02-.05.05-.05c.03,0,.05.02.05.05s-.02.05-.05.05Z"/>
        <path class="cls-4" d="M15.45,11.27c-.09-.09-.17-.16-.27-.17,0,0-.01,0-.01.01.03.08.09.17.23.27.15.11.23.42.24.54,0,.13.05.39.23.56-.05.15-.15.23-.2.26-.01,0-.01.03,0,.03.07.02.22.05.45-.12,0,0,.54.03.72-.15.19-.19.2-.3.37-.37.05-.02.11-.04.16-.07.03-.02.14-.11.07-.15-.01,0-.03-.01-.04-.01-.06,0-.12,0-.18.01-.06,0-.12.01-.18.02-.03,0-.37.06-.37.07-.02-.1-.08-.23-.21-.26.03.18.11.38-.11.36-.21-.03-.39-.18-.51-.33-.12-.15-.22-.35-.09-.62.04-.12.05-.2.05-.24,0,0,0-.01-.01,0-.04.03-.16.11-.16.21,0,.11-.08.24-.19.15ZM16.95,12.29s0,.05-.02.06c-.02.01-.05,0-.07-.01-.01-.02,0-.05.02-.07s.05,0,.07.02Z"/>
        <path class="cls-4" d="M17.49,12.84c-.02.13-.04.23-.01.32,0,0,.01,0,.02,0,.05-.06.1-.16.12-.34.02-.19.24-.41.34-.48.1-.07.31-.25.36-.49.16-.04.27.01.33.04.01,0,.03,0,.03-.02-.01-.07-.07-.21-.34-.33,0,0-.25-.47-.5-.54-.25-.06-.36-.02-.5-.13-.05-.04-.09-.07-.15-.1-.04-.02-.16-.06-.16.02,0,.01,0,.03.01.04.03.05.07.1.11.15.04.05.07.09.11.14.02.02.24.29.25.28-.08.07-.16.19-.11.32.14-.12.28-.29.36-.09.09.2.05.43-.02.6s-.19.36-.49.4c-.13.03-.2.06-.23.08,0,0,0,.01,0,.02.05.02.18.07.26.03.1-.06.25-.05.22.08ZM17.59,11.04s.04-.03.06-.02c.02.01.03.04.02.06-.01.02-.04.03-.06.02-.02-.01-.03-.04-.02-.06Z"/>
      </g>
    </g>
  </g>
</svg>