<?xml version="1.0" encoding="UTF-8"?>
<svg id="Layer_1" data-name="Layer 1" xmlns="http://www.w3.org/2000/svg" viewBox="0 0 24 24">
  <defs>
    <style>
      .cls-1 {
        fill: #000;
      }

      .cls-1, .cls-2, .cls-3, .cls-4 {
        stroke-width: 0px;
      }

      .cls-2 {
        fill: none;
      }

      .cls-3 {
        fill: #3b7dcc;
      }

      .cls-4 {
        fill: #fff;
      }
    </style>
  </defs>
  <rect class="cls-2" width="24" height="24"/>
  <g>
    <path class="cls-1" d="M16.71,7.34c2.92,2.92,3.18,7.42.57,10.03-2.61,2.61-7.11,2.36-10.03-.57-2.92-2.92-3.18-7.42-.57-10.03,2.61-2.61,7.11-2.35,10.03.57Z"/>
    <g>
      <path class="cls-3" d="M21,12c0,1.64-.44,3.18-1.21,4.5-1.56,2.69-4.47,4.5-7.79,4.5s-6.23-1.81-7.79-4.5c-.77-1.33-1.21-2.86-1.21-4.5s.44-3.18,1.21-4.5c1.56-2.69,4.47-4.5,7.79-4.5s6.23,1.81,7.79,4.5c.77,1.32,1.21,2.86,1.21,4.5Z"/>
      <path class="cls-4" d="M9.93,9.4c0-.23.09-.42.15-.48.06-.06-.15-.13-.08-.2.07-.07.07-.14.07-.18s-.06-.13-.06-.13c0,0-.15-.12,0-.18s.23.08.23-.08-.06-.19-.03-.25c.03-.05-.03-.11.03-.17.06-.06.13-.13.13-.13l.16-.07s.04-.17.08-.17.14,0,.14-.05-.03-.06.02-.11c.05-.05.04-.05.12-.12.07-.07.03-.19.14-.14.11.05.09-.02.19-.02s.03.08.18,0c.14-.08.1-.16.22-.16s.11-.04.25,0c.14.04.21-.02.26-.02s.23-.03.31.05c.08.08.17.11.2.07.03-.03.1-.01.1-.01,0,0,.14-.05.21-.05s.08-.06.15,0c.06.07.19.12.19.12,0,0,.26.06.31.12.05.05.04.05.13.14.09.09.18.03.23.09.06.06.11.09.22.09s.23.04.26.01c.03-.03.1-.05.13-.05s.07.05.12.05.04.01.1.01.09-.02.09.06-.01.08.05.15.05.15.05.15c0,0,.02.09.05.13s.05,0,.21-.07c.16-.06.14-.03.29-.03s.12-.01.31.06c.19.07.12.12.19.12s.21-.03.19.05-.11.11-.02.11.09-.09.15-.03.07.09.18.07c.11-.02.14-.06.19,0,.06.06.25.25.23.39-.02.15-.11.23-.11.23,0,0-.08-.11-.05,0,.03.12.09.12.09.22s-.04.21-.04.21l.14.08s.07.17.07.21.02.37.06.42.14.07.06.15c-.08.08-.2.02-.17.12.03.1.07.17.02.22-.05.05-.07.07-.07.16s-.05.12,0,.18c.05.05.12.04.18.1s-.02-.01.12.06c.14.07.1.07.18.16.08.08.08.18.18.18s.1-.02.18.06-.06.21,0,.26c.06.06.15.07.15.15s.07.11,0,.19-.18.1-.14.14.04.01.07.17c.02.16-.02.2-.02.29s0,.08.08.16.15,0,.23.08c.08.08.22,0,.09.13-.13.13-.21.13-.21.21s-.03.04-.03.2,0,.15-.04.2-.16.05-.1.1-.16.23-.23.29c-.07.07-.08.08-.12.22-.03.14-.03.15,0,.25.03.1,0,.13,0,.2s0,.15-.09.15-.16.12-.16.12c0,0-.06.11-.11.11s-.05-.02-.13.05c-.07.07-.1.05-.1.18s-.01.33-.04.36c-.03.03-.05.05-.1.1-.05.05-.15-.01-.11.11.03.13.03.2-.03.2s-.18-.11-.21,0c-.03.11-.03.12-.03.32s-.2.26-.24.3c-.04.04-.26-.01-.3.12-.03.13-.07.19-.16.19s-.18.05-.22.09-.26.1-.28.12c-.02.02-.08-.16-.08-.05s-.06.17-.11.11c-.06-.06-.08-.12-.08-.12,0,0-.07-.07-.12-.02s-.13.05-.13.13-.13.07-.16.07h-.14c-.05,0-.12-.02-.17.04s-.05.1-.14.08-.47-.09-.5-.12-.09-.04-.11-.07c-.02-.02,0-.15-.11-.09-.12.05-.25.07-.25.07,0,0,.05-.06-.07-.06s-.29-.03-.33-.03c-.04,0-.13-.05-.13-.08s-.16-.07-.1-.14c.06-.06.1-.05.1-.1s-.17-.07-.09-.15c.09-.08.09-.04.09-.08s-.03-.08,0-.12c.04-.04-.04-.09.03-.16l.1-.1s.07-.02.07-.09-.05-.15-.05-.22.05-.16.02-.25c-.02-.09-.04-.2-.08-.24-.04-.04-.23-.15-.23-.15,0,0-.09.1-.09.17s-.11.08-.11.08h-.26s-.08-.02-.24-.11c-.16-.08-.37-.05-.37-.05,0,0-.2-.01-.24-.06s-.21-.12-.33-.12-.25,0-.31.06c-.06.06,0,.23-.11.18-.12-.05-.24-.13-.29-.18-.05-.04-.15-.09-.19.01-.04.1-.14.11-.22.13-.08.02-.14.1-.2.04-.06-.06-.02-.19-.16-.16-.13.03-.16.04-.21,0s-.26-.15-.29-.15-.29-.08-.29-.13.02-.08-.06-.08-.13-.14-.17-.09-.19.03-.19-.05-.16-.16-.16-.3-.04-.21-.04-.26,0-.16-.05-.21.03-.22.03-.25v-.18c0-.07-.03-.15-.03-.21s.04-.17.04-.17c0,0-.04-.18-.12-.18s-.13.04-.13.1-.09-.04-.12.06c-.03.1-.13.13-.13.13,0,0-.14.02-.16.04-.02.02-.13-.02-.15-.04s-.05-.14-.05-.22-.16-.24-.11-.29.07-.12.07-.12l.05-.08s-.03-.14,0-.25c.03-.1.08-.09.08-.14s.03-.21.09-.26c.05-.05.07-.08.13-.14s.11-.17.08-.19c-.02-.02,0-.02-.07-.08-.06-.06-.16.08-.16-.06s0-.16.05-.21c.05-.05-.17-.05-.06-.15.11-.11.1-.15.1-.19,0-.04-.12-.17-.12-.17,0,0-.07.07-.07.12s-.02.19-.07.19-.11-.16-.11-.16c0,0-.16.02-.16.08s-.07.24-.1.1c-.03-.14-.11-.17-.06-.21.04-.04-.08-.01-.08-.08s0-.14,0-.17c0-.03-.23-.1-.19-.14.04-.04.02-.15.15-.15s.17.08.12-.08c-.05-.17-.21-.28-.21-.28,0,0-.05-.04-.1,0-.04.04-.13.08-.19.08s-.17-.1-.14-.13c.03-.03,0-.07-.05-.12-.04-.04-.05-.22-.05-.22,0,0-.23-.1-.23-.13s.04-.1,0-.14c-.04-.04-.02-.15,0-.17s-.05-.1-.05-.22.05-.22.05-.25.04-.09.04-.15.07-.29.09-.29.05.16.05.16l.02.1.08.04s.03.03.02.07c-.01.04-.05.11-.05.11,0,0,.04.06.04.09,0,.03-.02.07.05.09.07.02.03.03.11.11s.05.09.09.13c.04.04,0,.09.06.09s.13-.04.16.03c.03.06.09.16.23.24.14.07.21.1.28.17.07.07.11.04.23.09.12.05.27.11.27.11,0,0,.07.02.07.07s.13.05.13.05c0,0,.05.05.1.1.05.05.15.03.17.05.02.02.07.03.07.07s.02.02.08.08.09.04.09.04c0,0,.42-.04.51-.08.08-.04.18-.08.27-.08s0-.05.14-.05.09-.03.15-.03.13-.01.15-.01c.03,0,.04-.04.11-.04s.1.02.15-.03c.05-.05.1-.1.13-.13.03-.03.14-.19.14-.25Z"/>
    </g>
  </g>
</svg>