<?xml version="1.0" encoding="UTF-8"?>
<svg id="Layer_1" data-name="Layer 1" xmlns="http://www.w3.org/2000/svg" viewBox="0 0 24 24">
  <defs>
    <style>
      .cls-1 {
        fill: #000;
      }

      .cls-1, .cls-2, .cls-3, .cls-4, .cls-5, .cls-6 {
        stroke-width: 0px;
      }

      .cls-2 {
        fill: #fbd023;
      }

      .cls-3 {
        fill: none;
      }

      .cls-4 {
        fill: #0872c4;
      }

      .cls-5 {
        fill: #cd1225;
      }

      .cls-6 {
        fill: #fff;
      }
    </style>
  </defs>
  <rect class="cls-3" width="24" height="24"/>
  <g>
    <path class="cls-1" d="M16.71,7.34c2.92,2.92,3.18,7.42.57,10.03-2.61,2.61-7.11,2.35-10.03-.57-2.92-2.92-3.18-7.42-.57-10.03,2.61-2.61,7.11-2.36,10.03.57Z"/>
    <g>
      <path class="cls-5" d="M21,12c0,4.96-4.04,9-9,9S3,16.96,3,12c0-.87.13-1.72.36-2.52,1.09-3.74,4.55-6.48,8.64-6.48s7.55,2.74,8.64,6.48c.23.8.36,1.65.36,2.52Z"/>
      <g>
        <path class="cls-1" d="M20.64,9.48l-.42.57H3.78l-.42-.57c1.09-3.74,4.55-6.48,8.64-6.48s7.55,2.74,8.64,6.48Z"/>
        <polygon class="cls-6" points="12 21 17.27 13.97 6.73 13.97 12 21"/>
        <polygon class="cls-4" points="3.78 10.05 6.73 13.97 17.27 13.97 20.22 10.05 3.78 10.05"/>
      </g>
      <polygon class="cls-2" points="6.06 10.05 9.09 9.46 6.51 7.77 9.53 8.39 7.8 5.84 10.35 7.57 9.73 4.56 11.42 7.13 12 4.1 12.58 7.13 14.27 4.56 13.65 7.58 16.2 5.84 14.47 8.39 17.49 7.77 14.91 9.46 17.94 10.05 6.06 10.05"/>
    </g>
  </g>
</svg>