<?xml version="1.0" encoding="UTF-8"?>
<svg id="Layer_1" data-name="Layer 1" xmlns="http://www.w3.org/2000/svg" viewBox="0 0 24 24">
  <defs>
    <style>
      .cls-1 {
        fill: #f5b31a;
      }

      .cls-1, .cls-2, .cls-3, .cls-4, .cls-5, .cls-6 {
        stroke-width: 0px;
      }

      .cls-2 {
        fill: #000;
      }

      .cls-3 {
        fill: #83330b;
      }

      .cls-4 {
        fill: none;
      }

      .cls-5 {
        fill: #74abde;
      }

      .cls-6 {
        fill: #fff;
      }
    </style>
  </defs>
  <rect class="cls-4" width="24" height="24"/>
  <g>
    <path class="cls-2" d="M16.71,7.34c2.92,2.92,3.18,7.42.57,10.03-2.61,2.61-7.11,2.36-10.03-.57-2.92-2.92-3.18-7.42-.57-10.03,2.61-2.61,7.11-2.36,10.03.57Z"/>
    <g>
      <g>
        <path class="cls-6" d="M21,12c0,1.05-.18,2.06-.52,3H3.51c-.33-.94-.51-1.95-.51-3s.18-2.06.51-3h16.97c.33.94.52,1.95.52,3Z"/>
        <path class="cls-5" d="M20.48,9H3.51c.19-.53.42-1.03.69-1.5,1.56-2.69,4.47-4.5,7.79-4.5s6.23,1.81,7.79,4.5c.27.47.51.98.69,1.5Z"/>
        <path class="cls-5" d="M20.48,15c-.19.52-.42,1.02-.69,1.5-1.56,2.69-4.47,4.5-7.79,4.5s-6.23-1.81-7.79-4.5c-.27-.47-.51-.98-.69-1.5h16.97Z"/>
      </g>
      <g>
        <path class="cls-1" d="M12.69,10.34l-.32.7s-.03-.01-.05-.02l.62-1.31s.02-.01.02,0,.01,0,.01.02l-.49,1.36s-.03-.02-.05-.02l.27-.72Z"/>
        <path class="cls-1" d="M12.16,10.99c0-.17.02-.38.08-.56.01-.03.03-.06.04-.08.01-.03.03-.05.04-.08.03-.07.05-.14.06-.21,0-.04,0-.08,0-.12,0-.03,0-.06,0-.09,0-.05.02-.09.04-.14.03-.05.06-.08.08-.09h0s-.02.03-.03.05c-.02.03-.04.06-.04.09,0,.04,0,.1.01.17,0,.05.02.11.02.14,0,.07-.04.22-.09.35-.04.09-.06.19-.07.3,0,.05,0,.1,0,.16s0,.11-.02.14c-.01,0-.02,0-.03,0,0-.02,0-.04,0-.07,0-.03,0-.07,0-.12,0-.04,0-.09,0-.13,0-.04,0-.09.02-.13,0-.04.02-.08.03-.11.01-.03.02-.06.03-.07,0-.01,0-.02,0-.03,0,0,0,.01-.01.03,0,.02-.02.04-.03.07-.01.03-.03.07-.04.11-.01.04-.02.08-.03.13,0,.04,0,.09-.01.13,0,.04,0,.08-.01.11,0,.03-.01.05-.01.07-.01,0-.02,0-.04,0Z"/>
        <path class="cls-1" d="M11.92,10.98l.07-1.45s.01-.02.02-.02.02,0,.02.02l.07,1.45s-.03,0-.05,0l-.03-.77-.03.77s-.04,0-.05,0Z"/>
        <path class="cls-1" d="M11.57,9.94s-.03-.06-.04-.08c-.01-.05-.02-.09-.01-.14,0-.06.02-.1.04-.12h0s0,.04,0,.06c0,.03-.01.07,0,.1,0,.04.04.09.07.15.03.04.05.09.07.13.03.07.05.22.05.36,0,.09.02.2.05.31.02.05.03.1.05.15.02.05.03.1.04.14h-.04s0-.04-.02-.06c-.01-.03-.02-.07-.04-.11-.02-.04-.03-.08-.05-.12-.01-.04-.03-.08-.03-.13,0-.04-.01-.08-.01-.12,0-.03,0-.06,0-.08v-.03.03s0,.05,0,.08c0,.03,0,.07,0,.12,0,.04.01.09.03.13.01.04.03.09.04.13.01.04.02.08.03.11,0,.03.01.05.02.07-.01,0-.02,0-.04,0-.06-.16-.13-.35-.13-.55,0-.03,0-.06,0-.09,0-.03,0-.06,0-.09,0-.07-.01-.15-.03-.22-.01-.04-.03-.08-.04-.11Z"/>
        <path class="cls-1" d="M11.31,10.34l.27.72s-.03.01-.05.02l-.49-1.36s0-.02,0-.02c0,0,.01,0,.02,0l.61,1.31s-.03.01-.05.02l-.32-.7Z"/>
        <path class="cls-1" d="M11.23,10.9s.06.07.08.1c.03.03.05.06.07.09.02.02.03.04.04.06-.01,0-.02.01-.03.02-.12-.12-.25-.28-.33-.46-.01-.03-.02-.06-.03-.09,0-.03-.02-.06-.03-.09-.03-.07-.06-.13-.11-.19-.02-.03-.05-.06-.08-.09-.02-.02-.05-.04-.06-.07-.03-.04-.05-.08-.07-.12-.01-.05-.02-.1,0-.12,0,.02.01.04.02.06,0,.03.01.07.03.1s.07.07.13.11c.04.03.08.06.11.09.05.05.13.18.18.31.04.09.09.17.16.26.03.04.07.08.1.12.04.04.07.08.09.12h0s-.02.01-.03.02c-.01-.02-.03-.04-.05-.06-.02-.03-.05-.06-.08-.09s-.06-.06-.09-.09c-.03-.03-.06-.07-.08-.1-.02-.04-.04-.07-.05-.1-.02-.03-.03-.06-.03-.07,0-.02-.01-.03-.01-.03,0,0,0,.01.01.03,0,.02.02.04.03.08.01.03.03.07.05.1.02.04.05.08.07.11Z"/>
        <path class="cls-1" d="M10.73,10.73l.52.57s-.02.02-.04.04l-.98-1.07s0-.02,0-.02c0,0,.01-.01.02,0l1.07.98s-.03.02-.04.04l-.57-.52Z"/>
        <path class="cls-1" d="M10.58,11.1s-.04-.05-.06-.07c-.05-.05-.11-.1-.17-.13-.03-.02-.07-.04-.11-.05-.03-.01-.06-.02-.08-.04-.04-.02-.08-.05-.11-.09-.03-.04-.05-.08-.05-.11.01.01.02.03.04.05.02.03.04.06.07.08.03.02.09.04.16.05.05.01.1.03.14.04.07.03.19.12.29.22.07.07.15.13.25.18.04.02.09.05.14.07.05.02.09.05.12.07h0s-.02.02-.02.03c-.02,0-.04-.02-.06-.03-.03-.02-.06-.03-.11-.05-.04-.02-.08-.03-.12-.05-.04-.02-.08-.04-.11-.07s-.06-.05-.09-.07c-.03-.02-.05-.04-.06-.06,0,0-.01-.01-.02-.02,0,0,0,.01.02.02.01.01.03.03.06.06.02.02.05.05.08.08.03.03.07.05.11.07.04.02.08.04.12.06.04.02.07.04.1.05.02.01.04.03.06.04,0,.01-.01.02-.02.03-.16-.07-.34-.16-.48-.29-.02-.02-.04-.05-.06-.07Z"/>
        <path class="cls-1" d="M11.02,11.68l-1.32-.61s-.01-.02,0-.02c0,0,0-.01.02-.01l1.36.49s-.01.03-.02.05l-.72-.27.7.32s-.01.03-.02.05Z"/>
        <path class="cls-1" d="M9.7,11.57s-.08-.06-.09-.08h0s.03.02.05.03c.03.02.06.04.09.04.04,0,.1,0,.17-.01.05,0,.11-.02.14-.01.07,0,.22.04.35.09.09.04.19.06.3.07.05,0,.1,0,.16,0,.05,0,.11,0,.14.02h0s0,.02,0,.03c-.02,0-.04,0-.07,0-.03,0-.07,0-.12,0-.04,0-.09,0-.13,0-.04,0-.09-.01-.13-.02-.04,0-.08-.02-.11-.03-.03-.01-.06-.02-.08-.03-.01,0-.02,0-.03,0,0,0,0,0,0,0,0,0,0,0,0,0,0,0,.01,0,.02.01.02,0,.04.02.07.03.03.01.07.03.11.04s.09.02.13.03.09,0,.13.01c.04,0,.08,0,.11.01.03,0,.05,0,.07.01,0,.01,0,.02,0,.03-.17,0-.38-.01-.56-.08-.03-.01-.06-.03-.08-.04-.03-.02-.05-.03-.08-.04-.07-.03-.14-.05-.21-.06-.04,0-.08,0-.12,0-.03,0-.06,0-.09,0-.05,0-.09-.02-.14-.04Z"/>
        <path class="cls-1" d="M9.53,11.98l1.45-.07s0,.04,0,.05l-.77.03.77.03s0,.04,0,.05l-1.45-.07s-.02-.01-.02-.02,0-.02.02-.02Z"/>
        <path class="cls-1" d="M9.59,12.44s.04,0,.06,0c.03,0,.07.01.11,0,.04,0,.09-.04.15-.07.04-.03.09-.05.13-.07.07-.03.22-.05.36-.05.1,0,.2-.02.31-.05.05-.01.09-.03.15-.05.05-.02.1-.03.14-.04h0v.04s-.04.01-.06.02c-.03.01-.07.02-.11.04-.04.02-.08.03-.12.05-.04.01-.08.02-.13.03-.04,0-.08.01-.11.01-.03,0-.06,0-.08,0h-.03s.01,0,.03,0c.02,0,.05,0,.08,0,.03,0,.07,0,.12,0,.04,0,.09-.01.13-.02.04-.01.09-.03.13-.04.04-.01.08-.02.11-.03.03,0,.05-.01.07-.01,0,.01,0,.02,0,.03-.16.06-.35.13-.55.14-.03,0-.06,0-.09,0-.03,0-.06,0-.09,0-.07,0-.15.01-.22.03-.04.01-.08.03-.11.04-.03.01-.06.03-.08.03-.05.02-.09.02-.14.01-.06,0-.1-.02-.12-.04h0Z"/>
        <path class="cls-1" d="M9.72,12.96s-.02,0-.02-.01,0-.02,0-.02l1.32-.62s.01.03.02.05l-.7.32.72-.27s.01.03.02.05l-1.36.49Z"/>
        <path class="cls-1" d="M10.3,13.04c.05-.05.18-.13.31-.18.09-.04.17-.09.26-.16.04-.03.08-.06.12-.11.04-.04.08-.07.12-.08h0s.01.02.02.03c-.02.01-.03.03-.06.04-.03.02-.05.05-.09.08-.03.03-.06.06-.09.09-.03.03-.07.06-.11.08-.03.02-.07.04-.1.06-.03.01-.06.03-.07.03-.01,0-.02.01-.03.01,0,0,.01,0,.03,0,.02,0,.04-.02.07-.03.03-.01.07-.03.11-.05.04-.02.07-.05.11-.07.04-.03.07-.06.1-.09.03-.03.06-.05.09-.07.02-.02.04-.03.06-.04,0,0,.01.02.02.03-.12.12-.28.25-.46.34-.03.01-.06.02-.09.03-.03.01-.06.02-.09.03-.07.03-.13.07-.19.11-.03.02-.06.05-.09.08-.02.02-.04.04-.06.06-.04.03-.08.05-.13.07-.06.01-.1.02-.13,0h0s.04-.01.06-.02c.03,0,.07-.02.1-.04.03-.02.07-.07.11-.13.03-.04.06-.08.09-.11Z"/>
        <path class="cls-1" d="M10.73,13.27l.57-.52s.03.02.04.03l-1.07.98s-.02,0-.02,0c0,0,0-.01,0-.02l.98-1.07s.02.03.04.04l-.52.56Z"/>
        <path class="cls-1" d="M11.46,12.87c-.07.16-.16.34-.29.48-.02.02-.04.04-.07.06-.02.02-.05.04-.07.06-.05.05-.09.11-.13.17-.02.03-.03.07-.05.11,0,.03-.02.06-.04.08-.02.04-.05.08-.09.11-.05.03-.09.05-.11.05h0s.03-.02.05-.04c.03-.02.06-.04.08-.07s.04-.09.05-.16c.01-.05.03-.1.04-.14.03-.07.12-.19.22-.29.07-.07.13-.15.18-.25.02-.04.05-.09.07-.14.02-.05.05-.09.07-.13h0s.02.01.03.02c0,.02-.02.04-.03.06-.02.03-.03.07-.05.11-.02.04-.03.08-.05.12-.02.04-.04.08-.07.11s-.05.06-.07.09c-.02.02-.04.04-.05.06,0,.01-.02.02-.02.02,0,0,.01-.01.02-.02.01-.01.04-.03.06-.06.02-.02.05-.05.08-.09.03-.03.05-.07.07-.11.02-.04.04-.08.06-.12.02-.04.04-.07.06-.1.01-.02.03-.04.04-.06.01,0,.02.01.03.02Z"/>
        <path class="cls-1" d="M11.31,13.66l.32-.7s.03.01.05.02l-.61,1.31s-.02.01-.02,0c0,0-.02,0,0-.02l.49-1.36s.03.02.05.02l-.27.72Z"/>
        <path class="cls-1" d="M11.49,14.39s.02-.03.03-.05c.02-.03.04-.06.04-.09,0-.04,0-.1-.01-.17,0-.05-.01-.1-.01-.14,0-.07.04-.22.09-.35.04-.09.06-.19.07-.3,0-.05,0-.1,0-.16,0-.05,0-.11.02-.14h0s.02,0,.03,0c0,.02,0,.04,0,.07,0,.03,0,.07,0,.12,0,.04,0,.09,0,.13,0,.04-.01.09-.02.13-.01.04-.02.08-.03.11,0,.03-.02.06-.03.08,0,.01,0,.02-.01.03,0,0,0-.01.01-.03,0-.02.02-.04.03-.07.01-.03.03-.07.04-.11s.02-.08.03-.13c0-.05,0-.09,0-.13,0-.04.01-.08.01-.11,0-.03,0-.05.01-.07.01,0,.02,0,.03,0,0,.17-.01.38-.08.56-.01.03-.03.06-.04.08-.01.03-.03.06-.04.08-.03.07-.05.14-.06.21,0,.04,0,.08,0,.12,0,.03,0,.06,0,.09,0,.05-.02.09-.04.14-.03.05-.06.08-.08.09h0Z"/>
        <path class="cls-1" d="M11.98,14.47l-.07-1.45s.04,0,.05,0l.03.77.03-.77s.03,0,.05,0l-.07,1.45s-.01.02-.02.02-.02,0-.02-.02Z"/>
        <path class="cls-1" d="M12.16,13.16s-.03-.1-.03-.14h0s.02,0,.03,0c0,.02.01.04.02.07.01.03.02.07.04.11.02.04.03.08.05.12s.02.08.03.13c0,.04.01.08.01.11,0,.03,0,.06,0,.08s0,.03,0,.03v-.03s0-.05,0-.08c0-.03,0-.07,0-.12,0-.04-.01-.09-.03-.13s-.03-.09-.04-.13c-.01-.04-.02-.08-.03-.11,0-.03-.01-.05-.01-.07.01,0,.02,0,.03,0,.06.16.13.35.14.55,0,.03,0,.06,0,.09,0,.03,0,.06,0,.09,0,.07.01.15.03.22.01.04.03.07.04.11.01.03.03.06.03.08.02.05.02.1.01.14,0,.06-.02.1-.04.12h0s0-.04,0-.06c0-.03.01-.07,0-.1,0-.04-.04-.09-.07-.15-.03-.05-.05-.09-.07-.13-.03-.07-.05-.22-.05-.36,0-.09-.01-.2-.05-.31-.01-.05-.03-.1-.05-.15Z"/>
        <path class="cls-1" d="M12.93,14.29l-.62-1.31s.03-.01.05-.02l.32.7-.27-.72s.03-.01.05-.02l.49,1.36s0,.02-.01.02-.02,0-.02,0Z"/>
        <path class="cls-1" d="M12.59,13.01s-.07-.08-.08-.12h0s.02-.01.03-.02c.01.01.03.03.04.06.02.03.05.06.08.09.03.03.06.06.09.09.03.03.05.07.08.1.02.04.04.07.06.1s.03.05.03.07c0,.01,0,.02.01.02,0,0,0,0,0,0,0,0,0,0,0,0,0,0,0-.01,0-.02,0-.02-.02-.04-.03-.08-.01-.03-.03-.07-.05-.1s-.04-.07-.07-.11c-.03-.04-.06-.07-.09-.1-.03-.03-.05-.06-.07-.09-.02-.02-.03-.04-.04-.06.01,0,.02-.01.03-.02.12.12.26.28.34.45.01.03.02.06.03.09.01.03.02.06.03.09.03.07.07.13.11.19.02.03.05.06.08.09.02.02.04.04.06.06.03.04.05.08.07.13.01.05.02.1,0,.12,0-.02-.01-.04-.02-.06,0-.03-.01-.07-.03-.1-.02-.03-.07-.07-.13-.11-.04-.03-.08-.06-.11-.09-.05-.05-.13-.18-.18-.32-.04-.09-.09-.17-.16-.26-.03-.04-.06-.08-.11-.12Z"/>
        <path class="cls-1" d="M13.27,13.27l-.52-.56s.02-.03.03-.04l.98,1.07s0,.02,0,.02c0,0-.01.01-.02,0l-1.07-.98s.03-.02.04-.03l.57.52Z"/>
        <path class="cls-1" d="M12.93,12.7s-.09-.05-.13-.07h0s.01-.02.02-.03c.02.01.04.02.06.04.03.01.07.03.11.05.04.02.08.03.12.05.04.02.08.04.11.06.03.02.06.05.09.07.02.02.04.04.06.05.01,0,.02.01.02.02,0,0-.01-.01-.02-.02-.01-.01-.03-.03-.06-.06-.02-.02-.05-.05-.09-.08-.03-.03-.07-.05-.11-.07-.04-.02-.08-.04-.12-.06-.04-.02-.07-.04-.1-.05-.02-.01-.04-.03-.06-.04,0,0,.01-.02.02-.03.16.06.34.16.48.29.02.02.04.05.06.07s.04.05.06.07c.05.05.11.1.17.13.03.02.07.04.11.05.03.01.06.02.08.03.04.02.08.05.11.09.03.04.05.08.05.11-.01-.01-.02-.03-.04-.05-.02-.03-.04-.06-.07-.07-.03-.02-.09-.04-.16-.05-.05-.01-.1-.02-.14-.04-.07-.03-.19-.12-.29-.22-.07-.07-.15-.13-.25-.18-.04-.02-.09-.04-.14-.07Z"/>
        <path class="cls-1" d="M14.29,12.93s.01.02,0,.02c0,0,0,.01-.02.01l-1.37-.49.02-.05.72.27-.7-.32s.01-.03.02-.05l1.31.62Z"/>
        <path class="cls-1" d="M14.3,12.43c.05.03.08.06.09.08,0,0,0,0,0,0-.02,0-.03-.02-.05-.03-.03-.02-.06-.04-.09-.04-.04,0-.1,0-.17.01-.05,0-.11.02-.14.02-.08,0-.22-.04-.35-.09-.09-.04-.19-.06-.3-.07-.05,0-.1,0-.16,0-.05,0-.1,0-.14-.02h0s0-.02.01-.03c.02,0,.04,0,.07,0,.03,0,.07,0,.12,0,.04,0,.09,0,.13,0,.04,0,.09,0,.13.02.04,0,.08.02.11.03.03.01.06.02.08.03.01,0,.02,0,.03.01,0,0-.01,0-.03-.01-.02,0-.04-.02-.07-.03-.03-.01-.07-.03-.11-.04s-.08-.02-.13-.03c-.05,0-.09,0-.13-.01-.04,0-.08,0-.11-.01-.03,0-.05,0-.07-.01,0-.01,0-.02,0-.03.17,0,.38.01.56.08.03.01.06.03.08.04.03.01.06.03.08.04.07.03.14.05.21.06.04,0,.08,0,.12,0,.03,0,.06,0,.09,0,.05,0,.1.02.14.04Z"/>
        <path class="cls-1" d="M14.47,11.98s.02.01.02.02,0,.02-.02.02l-1.45.07s0-.04,0-.05l.77-.03-.77-.03s0-.04,0-.05l1.45.07Z"/>
        <path class="cls-1" d="M14.41,11.56s-.04,0-.06,0c-.03,0-.07-.01-.1,0-.04,0-.09.04-.15.07-.04.03-.09.05-.13.07-.07.03-.22.05-.36.05-.09,0-.19.02-.31.05-.05.01-.09.03-.15.05-.05.02-.1.03-.14.04h0s0-.02,0-.04c.02,0,.04-.01.07-.02.03-.01.07-.02.11-.04.04-.01.08-.03.12-.05.04-.02.08-.03.13-.03.04,0,.08-.01.11-.01s.06,0,.08,0h.03s-.01,0-.03,0h-.08s-.07,0-.12,0-.09.01-.13.02-.09.03-.13.04c-.04.01-.08.02-.11.03-.03,0-.05.01-.07.01,0-.01,0-.02,0-.03.16-.06.35-.13.55-.14.03,0,.06,0,.09,0,.03,0,.06,0,.09,0,.07,0,.15-.01.22-.03.04-.01.08-.03.11-.04.03-.01.06-.02.09-.03.05-.01.09-.02.14-.01.06,0,.1.02.12.04h0Z"/>
        <path class="cls-1" d="M14.27,11.04s.02,0,.02.01c0,0,0,.02,0,.02l-1.31.61s-.01-.03-.02-.05l.7-.32-.72.27-.02-.05,1.36-.49Z"/>
        <path class="cls-1" d="M12.89,11.49h0l-.02-.03s.03-.03.06-.05c.03-.02.06-.05.09-.08s.06-.06.09-.09c.03-.03.07-.06.1-.08.04-.02.07-.04.1-.05.03-.02.06-.03.07-.03.01,0,.02-.01.03-.01,0,0-.01,0-.03.01-.02,0-.04.02-.07.03-.03.01-.07.03-.11.05s-.07.05-.11.07c-.04.03-.07.06-.1.08-.03.03-.06.05-.09.07-.02.02-.04.03-.06.04,0-.01-.01-.02-.02-.03.12-.12.28-.25.45-.33.03-.01.06-.02.09-.03.03,0,.06-.02.09-.03.07-.03.13-.06.19-.11.03-.02.06-.05.09-.08.02-.02.04-.05.06-.06.04-.03.08-.06.13-.07.05-.02.1-.02.12-.01h0s-.04.01-.06.02c-.03,0-.07.02-.1.04s-.07.07-.11.13c-.03.04-.06.08-.09.11-.05.05-.18.13-.32.18-.09.04-.17.09-.26.16-.04.03-.08.07-.12.11-.04.04-.08.07-.12.09Z"/>
        <path class="cls-1" d="M13.27,10.73l-.57.52s-.03-.02-.04-.04l1.07-.98s.02,0,.02,0c0,0,.01.01,0,.02l-.98,1.07s-.02-.03-.03-.04l.52-.57Z"/>
        <path class="cls-1" d="M12.6,11.09s-.03.04-.04.06l-.03-.02c.07-.16.16-.34.29-.48.02-.02.04-.04.07-.06.02-.02.05-.04.07-.06.05-.05.1-.11.14-.17.02-.03.03-.07.05-.11.01-.03.02-.06.03-.08.02-.04.05-.08.09-.11.04-.04.08-.06.11-.06h0s-.03.03-.05.04c-.03.02-.05.04-.07.07-.02.03-.04.09-.05.16-.01.05-.02.1-.04.14-.03.07-.12.19-.22.29-.07.07-.13.15-.18.25-.02.04-.05.09-.07.14-.02.05-.05.09-.07.13h0s-.02-.01-.03-.02c.01-.02.02-.04.04-.06.02-.03.03-.07.05-.11.02-.04.03-.08.05-.12.02-.04.04-.08.07-.11.02-.03.05-.06.07-.09.02-.03.04-.05.05-.06.01-.01.02-.02.02-.02,0,0-.01,0-.02.02-.01.01-.03.03-.06.06-.02.02-.05.05-.08.09s-.05.07-.07.11c-.02.04-.04.08-.06.12-.02.04-.04.07-.06.1Z"/>
        <path class="cls-3" d="M12.93,13.41s0,0,0,0c0,0,0,0,0,0Z"/>
        <path class="cls-1" d="M12.37,11.8c.07.02.11.07.11.07-.04.03-.07.05-.12.06.03,0,.05-.04.05-.07,0-.03-.01-.05-.03-.06Z"/>
        <path class="cls-1" d="M12.22,11.87s.04-.06.09-.07c-.03.01-.05.03-.05.06,0,.03.01.05.04.06-.06-.02-.08-.05-.08-.05Z"/>
        <path class="cls-3" d="M12.34,11.78c-.11,0-.17.09-.17.09,0,0,.14.17.37.01,0,0-.08-.11-.19-.11ZM12.3,11.93c-.06-.02-.08-.05-.08-.05,0,0,.04-.06.09-.07-.03.01-.04.04-.04.07,0,.03.01.05.03.06ZM12.36,11.93s.05-.03.05-.07c0-.03-.01-.05-.03-.06.07.02.11.07.11.07-.04.03-.07.05-.12.05Z"/>
        <path class="cls-3" d="M12.13,11.91s.02-.02.03-.01c0,0,.01.01.02.01,0,0,.01.01.02.02,0,0,.17.12.32-.01,0,0-.04.08-.19.07-.06,0-.13-.02-.18-.05,0,0-.03-.02-.03-.03Z"/>
        <path class="cls-3" d="M12.15,11.86s-.02,0-.03,0c0,0-.02,0-.02-.01,0-.02.04-.02.05-.02.02,0,.03-.03.05-.04.06-.05.14-.06.21-.04.05.01.09.04.13.07.01.01.02.02.04.03,0,0,.01.01.01.01,0,0,0,.01-.02,0-.01,0-.02-.02-.03-.03-.01,0-.02-.01-.03-.02-.04-.03-.1-.05-.15-.05-.03,0-.05,0-.08.01-.03.01-.05.03-.07.05-.01,0-.02.01-.03.02,0,0-.01.01-.02.02Z"/>
        <path class="cls-3" d="M12.04,11.89s0,.07.01.11c0,.02.01.05.03.07,0,.01.01.02.02.02,0,0,.02.01.02.02,0,0,0,0,0,0-.02.01-.04,0-.05-.01-.05-.08-.04-.18-.04-.27,0-.04,0-.09.03-.13.01-.03.04-.04.06-.06.05-.03.12-.05.18-.05.08,0,.16.04.23.08.03.02.07.05.1.09-.01,0-.02-.02-.03-.02-.01,0-.02-.01-.04-.02-.02-.01-.04-.02-.06-.03-.13-.06-.3-.06-.4.04-.02.02-.03.03-.04.05,0,.03-.01.07-.01.1Z"/>
        <path class="cls-3" d="M12,12.61c-.07,0-.13.05-.14.12v-.02c0-.07.06-.14.14-.14s.14.06.14.14c0,0,0,.01,0,.02,0-.07-.06-.12-.14-.12Z"/>
        <path class="cls-1" d="M11.88,12.48s-.05-.03-.07-.03h0c.09-.01.14,0,.17,0,.02,0,.04,0,.06,0,.03-.01.08-.02.17-.01h0s-.05.02-.07.03c-.01.01-.02.02-.04.03-.02.02-.06.03-.09.03-.03,0-.06-.01-.09-.03-.01-.01-.02-.02-.03-.03Z"/>
        <path class="cls-3" d="M11.82,12.28c-.05,0-.06-.09,0-.14,0,0-.03.07.02.09.04.02.06-.04.06-.04,0,0,.04.05.1.05s.1-.05.1-.05c0,0,.02.06.06.04.05-.02.02-.09.02-.09.06.05.05.13,0,.14-.07,0-.07-.02-.08-.05,0,0,0,0,0,0,0,0,0,0,0,0h-.01s-.02.02-.03.03c-.01,0-.03.01-.04.01h0s-.03,0-.05-.01c-.02,0-.03-.02-.04-.04-.01.03-.02.06-.09.05Z"/>
        <path class="cls-3" d="M11.8,12.45s.09-.04.17-.01c.02,0,.03,0,.05,0,.09-.02.18.01.18.01-.09-.01-.14,0-.17.01-.02,0-.04,0-.06,0-.03-.01-.08-.02-.17-.01Z"/>
        <path class="cls-1" d="M11.8,12.45s-.03,0-.05,0c.02,0,.05-.01.09-.05.02-.01.04-.02.06-.03.04,0,.07.02.1.02.02,0,.06-.02.1-.02.02,0,.04.01.06.03.04.04.08.05.09.05-.02,0-.03,0-.05,0h0s-.09-.04-.18-.02c-.01,0-.03,0-.05,0-.08-.02-.17.01-.17.01h0Z"/>
        <path class="cls-3" d="M11.74,12.45h.01s.03,0,.05,0c.03,0,.05.01.07.03.01.01.02.02.03.03.03.02.06.03.09.03.03,0,.06-.01.09-.03.01-.01.02-.02.04-.03.02-.02.05-.03.07-.03.02,0,.03,0,.05,0h.01s-.09.01-.13.07c-.04.06-.12.05-.12.05,0,0-.08,0-.12-.05-.04-.06-.13-.07-.13-.07Z"/>
        <path class="cls-3" d="M11.74,12.45s.04,0,.06-.05c.03-.05.08-.07.11-.07.02,0,.04,0,.05.02.01,0,.03.02.03.02,0,0,.04-.03.08-.03.03,0,.08.02.11.07.03.05.06.05.06.05h-.01s-.05-.01-.09-.05c-.01-.01-.03-.02-.06-.03-.04,0-.07.02-.1.02-.03,0-.06-.02-.1-.02-.02,0-.04.01-.06.03-.04.04-.07.05-.09.05h-.01Z"/>
        <path class="cls-1" d="M11.73,11.86s-.02-.05-.05-.06c.06.01.1.07.1.07,0,0-.03.04-.08.05.02-.01.03-.03.03-.06Z"/>
        <path class="cls-3" d="M11.67,11.99c-.15.01-.19-.07-.19-.07.15.13.32.01.32.01,0,0,.01-.01.02-.02,0,0,.01-.01.02-.01.01,0,.03,0,.03.01,0,.01-.02.02-.03.03-.05.03-.12.05-.18.05Z"/>
        <path class="cls-1" d="M11.52,11.88s.04-.05.11-.07c-.02.01-.03.03-.03.06,0,.03.02.06.05.07-.05,0-.08-.02-.12-.06Z"/>
        <path class="cls-3" d="M11.66,11.78c-.11,0-.19.11-.19.11.23.16.37-.01.37-.01,0,0-.07-.09-.18-.09ZM11.52,11.88s.04-.05.11-.07c-.02.01-.03.03-.03.06,0,.03.02.06.05.07-.05,0-.08-.02-.12-.05ZM11.7,11.93s.03-.03.03-.06c0-.03-.02-.06-.04-.07.06.01.09.07.09.07,0,0-.03.04-.08.05Z"/>
        <path class="cls-3" d="M11.37,11.77s.06-.07.1-.09c.07-.05.14-.08.22-.08.06,0,.13.02.18.05.03.02.05.03.06.06.02.04.03.08.03.13,0,.09.01.19-.04.27-.01.02-.03.03-.05.01,0,0,0,0,0,0,0,0,.01-.02.02-.02,0,0,.01-.01.02-.02.01-.02.02-.04.03-.07,0-.03.01-.07.01-.11,0-.03,0-.07-.01-.1,0-.02-.02-.03-.03-.05-.11-.1-.27-.1-.4-.04-.02.01-.04.02-.06.03-.01,0-.02.01-.04.02-.01,0-.02.02-.03.02Z"/>
        <path class="cls-1" d="M12,11.03c-.54,0-.97.43-.97.97s.43.97.97.97.97-.43.97-.97-.43-.97-.97-.97ZM12.1,12.19s.02.06.06.04c.04-.02.02-.08.02-.09.06.05.05.13,0,.14-.07,0-.07-.02-.08-.05,0,0,0,0,0,0,0,0,0,0,0,0,0,0,0,0-.01.01,0,0-.02.01-.03.02-.01,0-.03,0-.04,0h0s-.03,0-.05-.01c-.02,0-.03-.02-.04-.04-.01.03-.02.06-.09.05-.05,0-.06-.09,0-.14,0,0-.02.07.02.09.04.02.06-.04.06-.04,0,0,.04.05.1.05s.1-.05.1-.05ZM11.37,11.77s.06-.07.1-.09c.07-.05.14-.08.22-.08.06,0,.13.02.18.05.03.02.05.03.06.06.02.04.03.08.03.13,0,.09.01.19-.04.27-.01.02-.03.03-.05.01,0,0,0,0,0,0,0,0,.01-.02.02-.02,0,0,.01-.01.02-.02.01-.02.02-.04.03-.07,0-.03.01-.07.01-.11,0-.03,0-.07-.01-.1,0-.02-.02-.03-.03-.05-.11-.11-.28-.1-.4-.04-.02.01-.04.02-.06.03-.01,0-.02.01-.04.02-.01,0-.02.02-.03.02ZM11.42,11.86s.01-.01.01-.01l.03-.03s.08-.06.13-.07c.07-.02.16-.01.22.04.01.01.03.04.05.04.01,0,.05,0,.05.02,0,0-.01.01-.02.01-.01,0-.02,0-.03,0,0,0-.01-.01-.02-.02-.01,0-.02-.01-.03-.02-.02-.02-.04-.04-.07-.05-.02-.01-.05-.01-.08-.01-.05,0-.1.03-.15.05-.01,0-.02.01-.03.02-.01,0-.02.02-.03.03-.02.01-.02,0-.02,0ZM11.66,11.78c.11,0,.18.09.18.09,0,0-.14.17-.37.01,0,0,.09-.11.19-.11ZM11.48,11.92c.15.12.32,0,.32,0,0,0,.01-.01.02-.02,0,0,.01-.01.02-.01.01,0,.03,0,.03.01,0,.01-.02.02-.03.03-.05.03-.12.05-.18.05-.14.01-.18-.06-.19-.07ZM12.14,12.74c0-.07-.06-.12-.14-.12s-.13.05-.14.12c0,0,0-.01,0-.02,0-.07.06-.14.14-.14s.14.06.14.14c0,0,0,.01,0,.02ZM12.12,12.52c-.04.06-.12.06-.12.06,0,0-.08,0-.12-.06-.04-.06-.13-.07-.13-.07,0,0,.04,0,.06-.05.03-.05.08-.07.11-.07.02,0,.04,0,.05.01.01.01.03.02.03.02,0,0,.04-.03.08-.03.03,0,.08.02.11.07.03.05.06.05.06.05,0,0-.09.01-.13.07ZM12.33,11.99c-.06,0-.13-.02-.18-.05,0,0-.03-.02-.03-.03,0-.01.02-.02.03-.01,0,0,.01.01.02.01,0,0,.01.01.02.02,0,0,.16.12.32,0,0,0-.05.08-.19.07ZM12.16,11.87s.07-.09.17-.09.19.11.19.11c-.23.16-.37-.01-.37-.01ZM12.56,11.86s-.02-.02-.03-.03c-.01,0-.02-.01-.03-.02-.04-.03-.09-.05-.15-.05-.03,0-.05,0-.08.01-.03.01-.05.03-.07.05-.01,0-.02.01-.03.02,0,0-.01.01-.02.02-.01,0-.02,0-.03,0,0,0-.02,0-.02-.01,0-.02.04-.02.05-.02.02,0,.03-.03.04-.04.06-.05.14-.06.22-.04.05.01.09.04.13.07.01.01.02.02.04.03,0,0,.01.01.01.01,0,0,0,.01-.02,0ZM12.59,11.75s-.02-.01-.04-.02c-.02-.01-.04-.02-.06-.03-.13-.06-.3-.06-.4.04-.02.02-.03.03-.04.05,0,.03-.01.07-.01.1,0,.03,0,.07,0,.11,0,.02.02.05.03.07,0,.01.01.02.02.02,0,0,.02.01.02.02,0,0,0,0,0,0-.02.01-.04,0-.05-.01-.05-.08-.04-.18-.04-.27,0-.04,0-.09.03-.13.01-.03.04-.04.06-.06.05-.03.12-.05.18-.05.08,0,.16.04.23.08.03.02.07.05.1.09-.01,0-.02-.02-.03-.02Z"/>
        <path class="cls-3" d="M11.47,11.83s-.02.02-.03.03c-.02.01-.02,0-.02,0,0,0,.01-.01.01-.01.01-.01.02-.02.03-.03.04-.03.08-.06.13-.07.07-.02.16-.01.22.04.01.01.03.04.04.04.01,0,.05,0,.05.02,0,0-.01.01-.02.01-.01,0-.02,0-.03,0,0,0-.01-.01-.02-.02-.01,0-.02-.01-.03-.02-.02-.02-.04-.04-.07-.05-.02-.01-.05-.01-.08-.01-.05,0-.1.03-.15.05-.01,0-.02.01-.03.02Z"/>
        <path class="cls-3" d="M10.34,11.66s0,0,0,0c0,0,0,0,0,0Z"/>
        <path class="cls-3" d="M14.47,11.94l-1.31-.06s0,0,0,0c.05-.02.1-.04.14-.05.11-.03.2-.05.29-.05.12,0,.29-.01.38-.05.04-.02.08-.04.13-.07.05-.03.11-.06.14-.07s.06,0,.09,0c.02,0,.04,0,.07,0,.02,0,.04-.01.04-.03,0-.01,0-.02,0-.04-.02-.03-.07-.05-.15-.06-.05,0-.11,0-.16.02-.03,0-.06.02-.09.04-.04.02-.07.03-.11.04-.07.02-.14.03-.21.03-.03,0-.06,0-.09,0-.03,0-.07,0-.1,0-.16,0-.32.05-.46.1l1.23-.57s.04-.05.03-.08-.04-.05-.07-.03l-1.23.44s0,0,0,0c.04-.04.07-.07.11-.1.08-.07.17-.12.25-.15.11-.05.26-.13.33-.19.03-.03.06-.07.09-.12.04-.05.07-.1.1-.12.02-.02.05-.02.08-.03.02,0,.04,0,.06-.02.02-.01.03-.03.03-.05,0-.01-.01-.02-.02-.03-.03-.02-.09-.02-.16,0-.05.01-.1.04-.14.08-.02.02-.05.04-.07.07-.03.03-.05.06-.08.08-.06.04-.12.08-.18.1-.03.01-.06.02-.08.03-.03,0-.06.02-.1.03-.15.06-.28.17-.39.27l.91-1s.02-.06,0-.08c-.02-.02-.05-.03-.08,0l-.96.88s0,0,0,0c.02-.05.04-.09.07-.14.05-.1.11-.18.17-.24.09-.09.19-.22.23-.3.02-.04.03-.09.04-.14.02-.06.03-.12.05-.15.01-.02.04-.04.06-.06.02-.01.03-.02.05-.04.02-.02.02-.04.01-.05,0-.01-.02-.02-.03-.02-.04,0-.09.02-.15.06-.04.03-.07.07-.1.13-.01.03-.03.06-.04.09-.01.04-.03.07-.04.1-.04.06-.08.12-.13.17-.02.02-.04.04-.07.06-.03.02-.05.04-.07.07-.11.12-.19.26-.26.4l.46-1.27s0-.06-.03-.08c-.03-.01-.06,0-.08.03l-.55,1.18h0c0-.06,0-.11,0-.16.01-.11.03-.2.07-.29.05-.11.09-.27.1-.37,0-.04,0-.09-.02-.15,0-.06-.02-.12-.01-.15,0-.03.02-.05.04-.08.01-.02.02-.04.03-.06.01-.02,0-.04-.01-.05-.01,0-.02-.01-.04,0-.04.01-.07.05-.11.12-.03.04-.04.1-.05.15,0,.03,0,.07,0,.1,0,.04,0,.08,0,.11-.01.07-.03.14-.06.2-.01.03-.02.05-.04.08-.02.03-.03.06-.04.09-.06.15-.08.32-.09.46l-.06-1.35s-.03-.06-.06-.06c-.01,0-.03,0-.04.01-.01.01-.02.02-.02.04l-.06,1.31s0,0,0,0c-.02-.05-.04-.1-.05-.14-.03-.11-.05-.2-.05-.29,0-.12-.02-.29-.05-.37-.02-.04-.04-.08-.07-.13-.03-.05-.06-.11-.07-.14,0-.03,0-.06,0-.09,0-.02,0-.04,0-.06,0-.02-.01-.04-.03-.05-.01,0-.03,0-.04,0-.03.03-.05.07-.06.15,0,.05,0,.11.02.16.01.03.02.06.04.09.02.04.03.07.04.11.02.07.02.14.03.21,0,.03,0,.06,0,.09,0,.03,0,.06,0,.1,0,.16.05.32.1.46l-.57-1.22s-.05-.04-.08-.03c-.03.01-.05.04-.03.08l.44,1.23s0,0,0,0c-.04-.04-.07-.08-.1-.12-.07-.08-.12-.17-.15-.25-.05-.12-.13-.26-.19-.33-.03-.03-.07-.06-.12-.09-.05-.04-.1-.07-.12-.1-.02-.02-.02-.05-.03-.08,0-.02-.01-.04-.02-.06s-.03-.03-.04-.03c-.01,0-.03.01-.03.02-.02.03-.02.09,0,.16.01.05.04.1.08.14.02.02.04.05.07.07.03.03.06.05.08.08.04.06.08.12.11.18.01.03.02.06.03.08.01.03.02.06.03.09.07.15.17.28.27.39l-1-.91s-.06-.02-.08,0-.03.05,0,.08l.88.97s0,0,0,0c-.05-.02-.09-.04-.14-.07-.1-.05-.18-.11-.24-.17-.09-.09-.21-.19-.3-.23-.04-.01-.09-.03-.14-.04-.06-.01-.12-.03-.15-.05s-.04-.04-.06-.06c-.01-.02-.02-.04-.04-.05-.01-.02-.04-.02-.05-.01-.01,0-.02.02-.02.03,0,.04.02.09.06.15.03.04.07.08.12.1.03.01.06.03.09.04.04.01.07.03.1.04.06.04.12.08.17.13.02.02.04.04.06.07s.04.05.07.07c.12.11.26.19.4.26l-1.27-.46s-.06,0-.08.03c-.01.03,0,.06.03.08l1.18.55h0c-.05,0-.11,0-.15,0-.11-.01-.2-.03-.29-.07-.12-.05-.27-.09-.37-.1-.04,0-.09,0-.15.02-.06,0-.12.02-.15.01-.03,0-.05-.02-.08-.04-.02-.01-.04-.02-.06-.03s-.04,0-.05.01c0,.01-.01.02,0,.04.01.04.05.07.11.11.04.03.1.04.15.05.03,0,.06,0,.1,0,.04,0,.08,0,.11,0,.07.01.14.03.2.05.03.01.05.03.08.04.03.02.06.03.09.04.15.06.32.08.46.08l-1.35.06s-.06.03-.06.06.02.06.06.06l1.31.06s0,0,0,0c-.05.02-.1.04-.15.05-.11.03-.2.05-.29.05-.12,0-.29.02-.37.05-.04.01-.08.04-.13.07-.05.03-.11.06-.14.07-.03,0-.06,0-.09,0-.02,0-.04,0-.06,0s-.04.01-.05.03c0,.01,0,.03.01.04.02.03.07.05.15.06.01,0,.03,0,.04,0,.04,0,.08,0,.12-.02.03-.01.06-.02.09-.04.04-.02.07-.03.11-.04.07-.02.14-.03.21-.03.03,0,.06,0,.09,0,.03,0,.07,0,.1,0,.16,0,.32-.05.46-.1l-1.23.57s-.04.05-.03.08c.01.02.03.04.05.04,0,0,.02,0,.02,0l1.23-.44s0,0,0,0c-.04.04-.07.07-.11.1-.09.07-.17.12-.25.16-.11.05-.26.12-.33.19-.03.03-.06.07-.09.12-.04.05-.07.1-.1.12-.02.02-.05.02-.08.03-.02,0-.04.01-.06.02-.02,0-.03.03-.03.04,0,.01.01.02.02.03.02,0,.04.01.06.01.03,0,.06,0,.09-.02.05-.01.1-.04.14-.07.02-.02.05-.05.07-.07.03-.03.05-.06.08-.08.06-.04.12-.08.18-.1.03-.01.06-.02.08-.03.03,0,.06-.02.09-.03.15-.06.28-.17.39-.27l-.91,1s-.02.06,0,.08c0,.01.03.02.04.02.01,0,.03,0,.04-.02l.97-.88s0,0,0,0c-.02.05-.04.09-.07.14-.05.1-.11.18-.17.24-.09.09-.19.21-.23.3-.02.04-.03.09-.04.14-.01.06-.03.12-.05.15-.02.02-.04.04-.06.06-.02.01-.04.03-.05.04-.02.02-.02.04-.01.05,0,.01.02.02.03.02h0s.08-.02.14-.06c.04-.03.08-.07.1-.13.01-.03.02-.06.04-.09.01-.04.03-.07.04-.1.04-.06.08-.12.13-.17.02-.02.04-.04.07-.06.02-.02.05-.04.07-.07.11-.12.19-.26.25-.4l-.46,1.27s0,.06.03.08c0,0,.02,0,.02,0,.02,0,.04-.01.05-.03l.55-1.18h0c0,.06,0,.11,0,.16,0,.11-.03.2-.07.29-.05.12-.1.27-.1.37,0,.04,0,.09.01.15,0,.06.02.12.01.15,0,.03-.02.05-.04.08-.01.02-.02.04-.03.06-.01.02,0,.04,0,.05,0,0,.02,0,.02,0,0,0,.01,0,.01,0,.04-.01.07-.05.11-.11.03-.05.04-.1.05-.15,0-.03,0-.06,0-.1,0-.04,0-.08,0-.11.01-.07.03-.14.05-.2.01-.03.03-.05.04-.08.01-.03.03-.06.04-.09.06-.15.08-.32.08-.46l.06,1.35s.03.06.06.06c.01,0,.03,0,.04-.01.01-.01.02-.02.02-.04l.06-1.31s0,0,0,0c.02.05.04.1.05.14.03.11.05.2.05.29,0,.12.02.29.05.38.01.04.04.08.07.13.03.05.06.11.07.14,0,.03,0,.06,0,.09,0,.02,0,.04,0,.06,0,.02.01.04.03.05,0,0,0,0,.01,0,0,0,.02,0,.03-.01.03-.02.05-.07.06-.15,0-.05,0-.11-.02-.16-.01-.03-.02-.06-.04-.09-.02-.03-.03-.07-.04-.1-.02-.07-.02-.14-.03-.21,0-.03,0-.06,0-.09,0-.03,0-.07,0-.1,0-.16-.05-.32-.1-.46l.57,1.22s.03.03.05.03c0,0,.02,0,.02,0,.03-.01.05-.04.03-.08l-.44-1.23s0,0,0,0c.04.04.07.07.1.11.07.08.12.17.16.25.05.11.13.26.19.33.03.03.07.06.12.09.05.04.1.07.12.1.01.02.02.05.03.08,0,.02.01.04.02.06,0,.02.02.03.04.03h0s.02-.01.03-.02c.02-.03.02-.09,0-.16-.01-.05-.04-.1-.08-.14-.02-.02-.04-.05-.07-.07-.03-.03-.05-.05-.08-.08-.04-.06-.08-.12-.11-.18-.01-.03-.02-.06-.03-.08,0-.03-.02-.06-.03-.09-.06-.15-.17-.28-.27-.39l1,.91s.03.02.04.02c.02,0,.03,0,.04-.02.02-.02.03-.05,0-.08l-.88-.96s0,0,0,0c.05.02.09.04.14.06.1.05.18.11.24.17.09.09.21.19.3.23.04.02.09.03.14.04.06.01.12.03.15.05.02.02.04.04.06.06.01.02.03.04.04.05.01.01.02.02.04.02,0,0,.01,0,.02,0,.01,0,.02-.02.02-.03,0-.04-.02-.09-.06-.15-.03-.04-.07-.07-.13-.1-.03-.01-.06-.03-.09-.04-.04-.01-.07-.03-.1-.05-.06-.04-.12-.08-.17-.13-.02-.02-.04-.04-.06-.07-.02-.03-.04-.05-.07-.07-.12-.11-.26-.19-.4-.26l1.27.46s.01,0,.02,0c.03,0,.05-.02.05-.04.01-.03,0-.06-.03-.08l-1.18-.55h0c.05,0,.11,0,.15,0,.11.01.2.03.29.07.12.05.27.09.37.1.04,0,.09,0,.15-.02.06,0,.12-.02.15-.01.03,0,.05.02.08.04.02.01.04.02.06.03,0,0,.01,0,.02,0,.01,0,.03,0,.03-.01,0-.01.01-.02,0-.04-.01-.04-.05-.07-.11-.11-.05-.03-.1-.04-.15-.05-.03,0-.06,0-.1,0-.04,0-.08,0-.11,0-.07-.01-.14-.03-.2-.05-.03-.01-.05-.02-.08-.04-.03-.02-.06-.03-.09-.04-.15-.06-.32-.08-.46-.09l1.35-.06s.06-.03.06-.06-.02-.06-.06-.06ZM13.55,11.63s.06,0,.09,0c.03,0,.06,0,.09,0,.07,0,.15-.01.22-.03.04-.01.08-.03.11-.04.03-.01.06-.02.08-.03.05-.02.1-.02.14-.01.06,0,.1.02.12.04h0s-.04,0-.06,0c-.03,0-.07-.01-.1,0-.04,0-.09.04-.15.07-.04.03-.09.05-.13.07-.07.03-.22.05-.36.05-.09,0-.19.02-.31.05-.05.01-.09.03-.15.05-.05.02-.1.03-.14.04,0-.01,0-.02,0-.04.02,0,.04-.01.07-.02.03-.01.07-.02.11-.04.04-.01.08-.03.12-.05.04-.01.08-.03.13-.03.04,0,.08-.01.11-.01s.06,0,.08,0h.03s-.01,0-.03,0h-.08s-.07,0-.12,0c-.04,0-.09.01-.13.02s-.09.03-.13.04c-.04.01-.08.02-.11.03-.03,0-.05.01-.07.01,0-.01,0-.02,0-.03.16-.06.35-.13.55-.14ZM14.27,11.04s.02,0,.02.01c0,0,0,.02,0,.02l-1.31.61s-.01-.03-.02-.05l.7-.32-.72.27-.02-.05,1.36-.49ZM13.28,11.06s.06-.02.09-.03c.03,0,.06-.02.09-.03.07-.03.13-.06.19-.11.03-.02.06-.05.09-.08.02-.02.04-.05.06-.06.04-.03.08-.06.13-.07.05-.01.1-.02.12,0-.02,0-.04.01-.06.02-.03,0-.07.02-.1.04-.03.02-.07.07-.11.13-.03.04-.06.09-.09.11-.05.05-.18.13-.32.18-.09.04-.17.09-.26.16-.04.03-.08.07-.12.11-.04.04-.08.07-.12.09l-.02-.03s.03-.03.06-.05c.03-.02.06-.05.09-.08s.06-.06.09-.09c.03-.03.07-.06.1-.08.04-.02.07-.04.1-.05.03-.02.05-.03.07-.04.01,0,.02,0,.02,0,0,0-.01,0-.02,0-.02,0-.04.02-.08.03-.03.01-.06.03-.1.05-.04.02-.07.05-.11.07-.03.03-.07.06-.1.08-.03.03-.06.05-.09.07-.02.02-.04.03-.06.04,0-.01-.01-.02-.02-.03.12-.12.28-.25.45-.33ZM13.73,10.24s.02,0,.02,0c0,0,.01.01,0,.02l-.98,1.07s-.02-.03-.03-.04l.52-.57-.56.52s-.03-.02-.04-.04l1.07-.98ZM12.83,10.64s.05-.04.07-.06.05-.04.07-.06c.05-.05.1-.11.14-.17.02-.03.03-.07.05-.11.01-.03.02-.06.03-.08.02-.04.05-.08.09-.11.04-.04.09-.05.11-.06h0s-.03.02-.04.04c-.03.02-.06.04-.08.07s-.04.09-.05.16c-.01.05-.02.1-.04.14-.03.07-.12.19-.22.29-.07.07-.13.15-.18.25-.02.04-.04.09-.07.14-.02.05-.05.09-.07.12h0s-.02-.01-.03-.02c.01-.02.02-.04.04-.06.02-.03.03-.07.05-.11.02-.04.03-.08.05-.12.02-.04.04-.08.07-.11.02-.03.05-.06.07-.09.02-.03.04-.05.05-.06.01-.01.02-.02.02-.02,0,0-.01,0-.02.02-.01.01-.03.03-.06.06-.02.02-.05.05-.08.09-.03.03-.05.07-.07.11-.02.04-.04.08-.06.12-.02.04-.04.07-.05.1-.01.02-.03.04-.04.06l-.03-.02c.06-.16.16-.34.29-.48ZM12.93,9.71s.02-.01.02,0c0,0,.01,0,.01.02l-.49,1.36s-.03-.02-.05-.02l.27-.72-.32.7s-.03-.01-.05-.02l.62-1.31ZM12.25,10.43s.03-.06.04-.08c.01-.03.03-.05.04-.08.03-.07.05-.14.06-.21,0-.04,0-.08,0-.12,0-.03,0-.06,0-.09,0-.05.02-.09.04-.14.03-.05.06-.08.08-.09h0s-.02.04-.03.05c-.02.03-.04.06-.04.09,0,.04,0,.1.01.17,0,.05.01.11.01.14,0,.07-.04.22-.09.35-.04.09-.06.19-.07.3,0,.05,0,.1,0,.16,0,.05,0,.11-.02.15-.01,0-.02,0-.04-.01,0-.02,0-.04,0-.07,0-.03,0-.07,0-.12,0-.04,0-.09,0-.13,0-.04,0-.09.02-.13s.02-.08.03-.11c.01-.03.02-.06.03-.08,0,0,0-.01,0-.02,0,0,0,.01,0,.02,0,.02-.02.04-.03.07-.01.03-.03.07-.04.11-.01.04-.02.09-.03.13,0,.04,0,.09-.01.13,0,.04,0,.08-.01.11,0,.03-.01.05-.01.07-.01,0-.02,0-.04,0,0-.17.01-.38.08-.56ZM11.98,9.53s.01-.02.02-.02.02,0,.02.02l.07,1.45s-.03,0-.05,0l-.03-.77-.03.77s-.04,0-.05,0l.06-1.45ZM11.63,10.45s0-.06,0-.09,0-.06,0-.09c0-.07-.01-.15-.03-.22-.01-.04-.03-.08-.04-.11-.01-.03-.03-.06-.04-.08-.01-.05-.02-.09-.01-.14,0-.06.02-.1.04-.12h0s0,.04,0,.06c0,.03-.01.07,0,.11,0,.03.04.09.07.15.03.04.05.09.07.13.03.07.05.22.05.36,0,.09.02.2.05.31.02.05.03.1.05.15.02.05.03.1.04.14h0s-.02,0-.04,0c0-.02,0-.04-.02-.07,0-.03-.02-.07-.04-.11-.02-.04-.03-.08-.05-.12-.01-.04-.03-.08-.03-.13,0-.04-.01-.08-.01-.12,0-.03,0-.06,0-.08,0-.02,0-.03,0-.03v.03s0,.05,0,.08c0,.03,0,.07,0,.12,0,.04.01.09.03.13.01.04.03.09.04.13.01.04.02.08.03.11,0,.03.01.05.02.07-.01,0-.02,0-.04,0-.06-.16-.13-.35-.13-.55ZM11.04,9.72s0-.02,0-.02c0,0,.02,0,.02,0l.62,1.31s-.04.01-.05.02l-.32-.7.27.72s-.03.01-.05.02l-.49-1.36ZM11.06,10.71s-.02-.06-.03-.09c0-.03-.02-.06-.03-.09-.03-.07-.06-.13-.11-.19-.02-.03-.05-.06-.08-.09-.02-.02-.05-.04-.06-.06-.03-.04-.06-.08-.07-.12-.01-.05-.02-.1,0-.12,0,.02.01.04.01.06,0,.03.02.07.04.1s.07.07.13.11c.04.03.08.06.11.09.05.05.13.18.18.31.04.09.09.17.16.26.03.04.07.08.1.12.04.04.07.08.09.12h0s-.02.01-.03.02c-.01-.02-.03-.04-.05-.06-.02-.03-.05-.05-.08-.09-.03-.03-.06-.06-.09-.09-.03-.03-.05-.07-.08-.11-.02-.04-.04-.07-.05-.1-.02-.03-.03-.06-.03-.07,0-.01,0-.02-.01-.02,0,0,0,.01.01.02,0,.02.02.05.03.08.01.03.03.07.05.1.02.04.05.08.07.11.03.04.06.07.08.1.03.03.05.06.07.09.02.02.03.04.04.06-.01,0-.02.01-.03.02-.12-.12-.25-.28-.33-.46ZM10.24,10.26s0-.02,0-.02c0,0,.01-.01.02,0l1.07.98s-.03.02-.04.04l-.57-.52.52.57s-.02.02-.04.04l-.98-1.07ZM10.64,11.17s-.04-.05-.06-.07c-.02-.02-.04-.05-.06-.07-.05-.05-.11-.1-.17-.13-.03-.02-.07-.04-.11-.05-.03-.01-.06-.02-.08-.03-.04-.02-.08-.05-.11-.09-.03-.04-.05-.08-.05-.11.01.01.02.03.03.05.02.03.04.06.07.08.03.02.09.04.16.05.05.01.1.03.14.04.07.03.19.12.29.22.07.07.15.13.25.18.05.02.09.04.14.07.05.02.09.05.12.07h0s-.02.02-.02.03c-.02-.01-.04-.02-.06-.03-.03-.02-.06-.03-.11-.05-.04-.02-.08-.03-.12-.05-.04-.02-.08-.04-.11-.06s-.06-.05-.09-.07c-.02-.02-.05-.04-.06-.05,0,0,0,0-.01-.01,0,0,0,0,0,.01.01.01.03.03.06.06.02.02.05.05.09.08s.07.05.11.07.08.04.12.06c.04.02.07.04.1.05.02.01.04.03.06.04,0,.01-.01.02-.02.03-.16-.07-.34-.16-.48-.29ZM9.71,11.07s-.01-.02-.01-.02c0,0,0-.01.02-.01l1.37.49-.02.05-.72-.27.7.32s-.01.03-.02.05l-1.31-.61ZM10.43,11.75s-.06-.03-.09-.04c-.03-.02-.05-.03-.08-.04-.07-.03-.14-.05-.21-.06-.04,0-.08,0-.12,0-.03,0-.06,0-.09,0-.05,0-.09-.02-.14-.04-.05-.03-.08-.06-.09-.08.02,0,.03.02.05.03.03.02.06.04.09.04.04,0,.1,0,.17-.01.05,0,.11-.02.14-.01.07,0,.22.04.35.09.09.04.19.06.3.07.05,0,.1,0,.16,0,.05,0,.11.01.14.02h0s0,.02-.01.03c-.02,0-.04,0-.07,0-.03,0-.07,0-.12,0-.04,0-.09,0-.13,0-.04,0-.09,0-.13-.02-.04-.01-.08-.02-.11-.03-.03-.01-.06-.02-.07-.03-.01,0-.02,0-.03,0,0,0,.01,0,.03.01.02,0,.04.02.07.03.03.01.07.03.11.04.04.01.08.02.13.03s.09,0,.13.01c.04,0,.08,0,.11.01.03,0,.05,0,.07.01,0,.01,0,.02,0,.03-.17,0-.38-.01-.56-.08ZM9.53,12.02s-.02-.01-.02-.02,0-.02.02-.02l1.45-.07s0,.04,0,.05l-.77.03.77.03s0,.03,0,.05l-1.45-.07ZM10.45,12.37s-.06,0-.09,0c-.03,0-.06,0-.09,0-.07,0-.15.01-.22.03-.04,0-.08.03-.11.04-.03.01-.06.02-.08.03-.05.02-.09.02-.14.01-.06,0-.1-.02-.12-.04.02,0,.04,0,.06,0,.03,0,.07.01.1,0s.09-.04.15-.07c.04-.03.09-.05.13-.07.07-.03.22-.05.36-.05.1,0,.2-.02.31-.05.05-.01.1-.03.15-.05.05-.02.1-.03.14-.04h0v.04s-.04.01-.06.02c-.03.01-.07.02-.11.04-.04.01-.08.03-.12.05-.04.01-.08.02-.13.03-.04,0-.08.01-.11.01-.03,0-.06,0-.08,0h-.03s.01,0,.03,0c.02,0,.05,0,.08,0s.07,0,.12,0c.04,0,.09-.01.13-.02.04-.01.09-.03.13-.04.04-.01.08-.02.11-.03.03,0,.05-.01.07-.01,0,.01,0,.02,0,.03-.16.06-.35.13-.55.14ZM9.72,12.96s-.02,0-.02-.01c0,0,0-.02,0-.02l1.32-.62s.01.03.02.05l-.7.32.72-.27s.02.03.02.05l-1.37.49ZM10.71,12.94s-.06.02-.09.03c-.03.01-.06.02-.09.03-.07.03-.13.06-.19.11-.03.02-.06.05-.09.08-.02.02-.04.05-.07.06-.04.03-.08.06-.12.07-.05.01-.1.02-.12,0,.02,0,.04-.01.06-.02.03,0,.07-.02.1-.03.03-.02.07-.07.11-.13.03-.04.06-.09.09-.11.05-.05.18-.13.31-.18.09-.04.18-.09.26-.16.04-.03.08-.06.12-.11.04-.04.08-.07.12-.08h0s.01.02.02.03c-.02.01-.04.03-.06.04-.03.02-.05.05-.09.08-.03.03-.06.06-.09.09-.03.03-.07.05-.11.08s-.07.04-.1.05c-.03.02-.06.03-.07.04,0,0-.01,0-.02,0,0,0,0,0,.02,0,.02,0,.04-.02.07-.03.03-.01.07-.03.11-.05.04-.02.07-.04.11-.07.03-.03.07-.06.1-.08.03-.03.06-.05.09-.07.02-.02.04-.03.06-.04,0,0,.01.02.02.03-.12.12-.28.26-.46.34ZM10.26,13.76s-.02,0-.02,0c0,0,0-.01,0-.02l.98-1.07s.02.03.04.04l-.52.56.57-.52s.03.02.04.03l-1.07.98ZM11.17,13.36s-.04.04-.07.06c-.02.02-.05.04-.07.06-.05.05-.1.11-.13.17-.02.03-.04.07-.05.11,0,.03-.02.06-.04.08-.02.04-.05.08-.09.11-.05.04-.09.06-.11.06h0s.03-.02.05-.04c.03-.02.06-.04.08-.07s.04-.09.05-.16c.01-.05.03-.1.04-.14.03-.07.12-.19.22-.29.07-.07.13-.15.18-.25.02-.04.04-.09.07-.14.02-.05.05-.09.07-.13.01,0,.02.01.03.02,0,.02-.02.04-.03.06-.02.03-.03.07-.05.11-.02.04-.03.08-.05.12-.02.04-.04.08-.07.11s-.05.06-.07.09c-.02.03-.04.05-.05.06,0,.01-.02.02-.02.02,0,0,.01-.01.02-.02.02-.01.04-.03.06-.06.02-.02.05-.05.08-.09.02-.03.05-.07.07-.11.02-.04.04-.08.06-.12.02-.04.04-.07.05-.1.02-.02.03-.04.04-.06.01,0,.02.01.03.02-.07.16-.16.34-.29.48ZM11.07,14.29s-.02.01-.02,0c0,0-.01,0,0-.02l.49-1.36s.03.02.05.02l-.27.72.32-.7s.03.01.05.02l-.62,1.31ZM11.75,13.57s-.03.06-.04.08c-.02.03-.03.06-.04.08-.03.07-.05.14-.06.21,0,.04,0,.08,0,.12,0,.03,0,.06,0,.09,0,.05-.02.09-.04.14-.03.05-.06.08-.08.09h0s.02-.04.03-.05c.02-.03.04-.06.04-.09,0-.04,0-.1-.01-.17,0-.05-.01-.11-.01-.14,0-.08.04-.22.09-.35.04-.09.06-.19.07-.3,0-.05,0-.1,0-.16,0-.05,0-.11.02-.14.01,0,.02,0,.03,0,0,.02,0,.04,0,.07,0,.03,0,.07,0,.12,0,.04,0,.09,0,.13,0,.04-.01.09-.02.13-.01.04-.02.08-.03.11,0,.03-.02.06-.03.08,0,.01,0,.02,0,.02,0,0,0-.01.01-.02,0-.02.02-.04.03-.07.01-.03.03-.07.04-.11s.02-.08.03-.13c0-.04,0-.09,0-.13,0-.04.01-.08.01-.11,0-.03,0-.05.01-.07.01,0,.02,0,.03,0,0,.17-.01.38-.08.56ZM12.02,14.47s-.01.02-.02.02-.02,0-.02-.02l-.06-1.45s.03,0,.05,0l.03.77.03-.77s.03,0,.05,0l-.07,1.45ZM12,12.97c-.54,0-.97-.43-.97-.97s.43-.97.97-.97.97.43.97.97-.43.97-.97.97ZM12.37,13.55s0,.06,0,.09c0,.03,0,.06,0,.09,0,.07.01.15.03.22.01.04.03.07.04.11.01.03.03.05.04.08.01.05.02.1.01.14,0,.06-.02.1-.04.12h0s0-.04,0-.06c0-.03.01-.07,0-.1,0-.04-.04-.09-.08-.15-.03-.04-.05-.09-.07-.12-.03-.07-.05-.22-.05-.36,0-.09-.01-.19-.05-.31-.01-.05-.03-.1-.05-.15-.02-.05-.03-.1-.04-.14.01,0,.03,0,.04,0,0,.02.01.04.02.07.01.03.02.07.04.11.01.04.03.08.05.12s.02.08.03.13c0,.04.01.08.01.12,0,.03,0,.06,0,.08s0,.03,0,.03v-.03s0-.05,0-.08,0-.07,0-.12c0-.04-.01-.09-.03-.13s-.03-.09-.04-.13c-.01-.04-.02-.07-.03-.11,0-.03-.01-.05-.02-.07.01,0,.02,0,.03,0,.06.16.13.35.14.55ZM12.96,14.27s0,.02-.01.02c0,0-.02,0-.02,0l-.62-1.31s.03-.01.05-.02l.32.7-.27-.72s.03-.02.05-.02l.49,1.36ZM12.94,13.28s.02.06.03.09.02.06.03.09c.03.07.06.13.11.19.02.03.05.06.08.09.02.02.04.04.06.06.03.04.05.08.07.13.01.05.02.09,0,.12,0-.02-.01-.04-.02-.06,0-.03-.01-.07-.03-.1-.02-.03-.07-.07-.13-.11-.04-.03-.08-.06-.11-.09-.05-.05-.13-.18-.18-.32-.04-.09-.09-.17-.16-.26-.03-.04-.07-.08-.11-.12-.04-.04-.07-.08-.08-.12.01,0,.02-.01.03-.02.01.01.03.03.04.06.02.03.05.06.08.09.03.03.06.06.09.09.03.03.05.07.08.1.02.04.04.07.06.1s.03.05.03.07c0,.01,0,.02.01.03,0,0,0-.01,0-.03,0-.02-.02-.04-.03-.08-.01-.03-.03-.07-.05-.1s-.04-.08-.07-.11c-.03-.04-.06-.07-.09-.1-.03-.03-.05-.06-.07-.09-.02-.02-.03-.04-.04-.06.01,0,.02-.01.03-.02.12.12.26.28.34.45ZM13.76,13.73s0,.02,0,.02c0,0-.01.01-.02,0l-1.07-.98s.03-.02.04-.03l.56.52-.52-.56s.02-.03.03-.04l.98,1.07ZM13.36,12.83s.04.05.06.07c.02.02.04.05.06.07.05.05.11.1.17.14.03.02.07.03.11.05.03.01.06.02.08.03.04.02.08.05.11.09.03.04.05.08.05.11-.01-.01-.02-.03-.04-.05-.02-.03-.04-.05-.07-.07-.03-.02-.09-.04-.16-.05-.05-.01-.1-.03-.14-.04-.07-.03-.19-.12-.29-.22-.07-.07-.15-.13-.25-.18-.04-.02-.09-.04-.14-.07-.05-.02-.09-.05-.13-.07h0s.02-.02.02-.03c.02.01.04.02.06.04.03.01.07.03.11.05.04.02.08.03.12.05.04.02.08.04.11.06s.06.05.09.07c.02.02.05.04.06.05,0,0,.01,0,.01.01,0,0,0,0,0-.01-.01-.01-.03-.03-.06-.06-.02-.02-.05-.05-.08-.08-.03-.03-.07-.05-.11-.07-.04-.02-.08-.04-.12-.06-.04-.02-.07-.04-.1-.05-.02-.01-.04-.03-.06-.04,0,0,.01-.02.02-.03.16.06.34.16.48.29ZM14.29,12.93s.01.02,0,.02c0,0,0,.01-.02.01l-1.36-.49s.02-.03.02-.05l.72.27-.7-.32s.01-.03.02-.05l1.31.62ZM13.57,12.25s.06.03.09.04c.03.02.05.03.08.04.07.03.14.05.21.06.04,0,.08,0,.12,0,.03,0,.06,0,.09,0,.05,0,.1.02.14.04.05.03.08.06.09.08h0s-.03-.02-.05-.03c-.03-.02-.06-.04-.09-.04-.04,0-.1,0-.17.01-.05,0-.11.02-.14.01-.08,0-.22-.04-.35-.09-.09-.04-.19-.06-.3-.07-.05,0-.1,0-.16,0-.05,0-.1,0-.14-.02h0s0-.02.01-.04c.02,0,.04,0,.07,0,.03,0,.07,0,.12,0,.04,0,.09,0,.13,0,.05,0,.09,0,.13.02.04,0,.08.02.11.03.03.01.06.02.08.03.01,0,.02,0,.03.01,0,0-.01,0-.03-.01-.02,0-.04-.02-.07-.03-.03-.01-.07-.03-.11-.04s-.08-.02-.13-.03c-.04,0-.09,0-.13-.01-.04,0-.08,0-.12-.01-.03,0-.05-.01-.07-.01,0-.01,0-.02,0-.03.17,0,.38.01.56.08ZM14.47,12.02l-1.45.07s0-.04,0-.05l.77-.03-.77-.03s0-.04,0-.05l1.45.07s.02.01.02.02,0,.02-.02.02Z"/>
      </g>
    </g>
  </g>
</svg>