<?xml version="1.0" encoding="UTF-8"?>
<svg id="Layer_1" data-name="Layer 1" xmlns="http://www.w3.org/2000/svg" viewBox="0 0 24 24">
  <defs>
    <style>
      .cls-1 {
        fill: #000;
      }

      .cls-1, .cls-2, .cls-3, .cls-4, .cls-5 {
        stroke-width: 0px;
      }

      .cls-2 {
        fill: #1d83db;
      }

      .cls-3 {
        fill: none;
      }

      .cls-4 {
        fill: #fc9633;
      }

      .cls-5 {
        fill: #fff;
      }
    </style>
  </defs>
  <rect class="cls-3" width="24" height="24"/>
  <g>
    <path class="cls-1" d="M16.71,7.34c2.92,2.92,3.18,7.42.57,10.03-2.61,2.61-7.11,2.36-10.03-.57-2.92-2.92-3.18-7.42-.57-10.03s7.11-2.36,10.03.57Z"/>
    <g>
      <path class="cls-5" d="M20.28,15.52c-.16.37-.34.72-.54,1.06l-.63-.69-6.28-2.86h-4.62l2.17-1.44-4.07-4.14-1.57-.76c.38-.53.83-1.01,1.32-1.44l.38.46,4.55,5.56,2.62-.36-.42,1.72,6.77,1.96.35.93Z"/>
      <path class="cls-2" d="M19.41,6.9l-.2.45.37.33-.49-.05-.2.45-.1-.49-.49-.05.43-.25-.1-.49.37.34.43-.25c-.29-.42-.61-.81-.97-1.18-1.63-1.68-3.92-2.72-6.44-2.72-2.28,0-4.37.85-5.96,2.26l.38.46h0l4.55,5.56,2.62-.36-.42,1.72,6.77,1.96.35.93c.46-1.08.72-2.27.72-3.52,0-1.89-.59-3.65-1.59-5.1ZM15.25,10.1l-.21.45-.1-.49-.49-.05.43-.25-.1-.49.37.34.43-.25-.2.45.37.33-.49-.05ZM16.03,7.24l-.21.45-.1-.49-.49-.05.43-.25-.1-.48.37.33.43-.25-.2.45.37.33-.49-.05ZM18.53,9.14l.19.17.22-.13-.11.24.19.17-.26-.03-.11.24-.05-.25-.26-.03.22-.13-.05-.25ZM19.19,13.6l-.2.45-.1-.49-.49-.05.43-.24-.1-.49.37.33.43-.24-.2.45.37.33-.49-.05Z"/>
      <path class="cls-4" d="M19.74,16.59c-.37.62-.8,1.18-1.3,1.69-1.63,1.68-3.92,2.72-6.44,2.72s-4.81-1.04-6.44-2.72c-1.58-1.62-2.56-3.84-2.56-6.28,0-1.98.64-3.81,1.73-5.3l1.57.76,4.07,4.14-2.17,1.44h4.62l6.28,2.86.63.69Z"/>
      <polygon class="cls-5" points="19.69 13.66 19.19 13.6 18.99 14.06 18.89 13.57 18.4 13.52 18.83 13.27 18.73 12.78 19.1 13.12 19.53 12.87 19.32 13.33 19.69 13.66"/>
      <polygon class="cls-5" points="19.57 7.68 19.08 7.63 18.87 8.08 18.77 7.6 18.28 7.54 18.71 7.3 18.61 6.81 18.98 7.15 19.41 6.9 19.21 7.35 19.57 7.68"/>
      <polygon class="cls-5" points="19.03 9.59 18.77 9.57 18.66 9.8 18.61 9.55 18.35 9.52 18.58 9.39 18.53 9.14 18.72 9.31 18.94 9.18 18.84 9.42 19.03 9.59"/>
      <polygon class="cls-5" points="16.53 7.3 16.03 7.24 15.83 7.7 15.73 7.21 15.23 7.16 15.66 6.91 15.56 6.42 15.93 6.76 16.36 6.51 16.16 6.97 16.53 7.3"/>
      <polygon class="cls-5" points="15.74 10.16 15.25 10.1 15.04 10.56 14.94 10.07 14.45 10.01 14.88 9.77 14.78 9.28 15.15 9.62 15.58 9.37 15.38 9.82 15.74 10.16"/>
      <polygon class="cls-2" points="10.97 11.28 6.42 5.72 6.42 5.72 10.97 11.28"/>
    </g>
  </g>
</svg>