<?xml version="1.0" encoding="UTF-8"?>
<svg id="Layer_1" data-name="Layer 1" xmlns="http://www.w3.org/2000/svg" viewBox="0 0 24 24">
  <defs>
    <style>
      .cls-1 {
        fill: #4289db;
      }

      .cls-1, .cls-2, .cls-3, .cls-4, .cls-5, .cls-6 {
        stroke-width: 0px;
      }

      .cls-2 {
        fill: #000;
      }

      .cls-3 {
        fill: #d11133;
      }

      .cls-4 {
        fill: #f8d523;
      }

      .cls-5 {
        fill: none;
      }

      .cls-6 {
        fill: #fff;
      }
    </style>
  </defs>
  <rect class="cls-5" width="24" height="24"/>
  <g>
    <path class="cls-2" d="M16.71,7.34c2.92,2.92,3.18,7.42.57,10.03-2.61,2.61-7.11,2.35-10.03-.57-2.92-2.92-3.18-7.42-.57-10.03,2.61-2.61,7.11-2.36,10.03.57Z"/>
    <g>
      <g>
        <path class="cls-1" d="M21,12c0,1.05-.18,2.06-.52,3H3.52c-.33-.94-.52-1.95-.52-3,0-1.64.44-3.18,1.21-4.5,1.56-2.69,4.47-4.5,7.79-4.5s6.23,1.81,7.79,4.5c.77,1.32,1.21,2.86,1.21,4.5Z"/>
        <path class="cls-4" d="M19.48,17c-.24.35-.49.69-.78,1H5.29c-.28-.31-.54-.65-.78-1h14.96Z"/>
        <path class="cls-1" d="M18.7,18c-1.65,1.84-4.04,3-6.7,3s-5.06-1.16-6.71-3h13.41Z"/>
        <path class="cls-1" d="M20.06,16c-.08.17-.17.34-.27.5-.1.17-.2.34-.31.5H4.52c-.11-.16-.21-.33-.31-.5-.09-.16-.18-.33-.27-.5h16.12Z"/>
        <path class="cls-4" d="M20.48,15c-.12.34-.26.68-.42,1H3.94c-.16-.32-.3-.65-.42-1h16.97Z"/>
      </g>
      <g>
        <polygon class="cls-6" points="8.18 7.7 5.92 6.99 8.18 6.28 8.88 4.03 9.59 6.28 11.85 6.99 9.59 7.7 8.88 9.96 8.18 7.7"/>
        <polygon class="cls-3" points="8.88 4.7 9.43 6.45 11.18 6.99 9.43 7.54 8.88 9.28 8.34 7.54 6.59 6.99 8.34 6.45 8.88 4.7"/>
      </g>
    </g>
  </g>
</svg>