<?xml version="1.0" encoding="UTF-8"?>
<svg id="Layer_1" data-name="Layer 1" xmlns="http://www.w3.org/2000/svg" viewBox="0 0 24 24">
  <defs>
    <style>
      .cls-1 {
        fill: #000;
      }

      .cls-1, .cls-2, .cls-3, .cls-4, .cls-5, .cls-6 {
        stroke-width: 0px;
      }

      .cls-2 {
        fill: #f8e21a;
      }

      .cls-3 {
        fill: none;
      }

      .cls-4 {
        fill: #0739a4;
      }

      .cls-5 {
        fill: #fff;
      }

      .cls-6 {
        fill: #ec2938;
      }
    </style>
  </defs>
  <rect class="cls-3" width="24" height="24"/>
  <g>
    <path class="cls-1" d="M16.71,7.34c2.92,2.92,3.18,7.42.57,10.03-2.61,2.61-7.11,2.35-10.03-.57-2.92-2.92-3.18-7.42-.57-10.03,2.61-2.61,7.11-2.36,10.03.57Z"/>
    <g>
      <path class="cls-4" d="M21,12c0,1.64-.44,3.18-1.21,4.5-1.56,2.69-4.47,4.5-7.79,4.5s-6.23-1.81-7.79-4.5c-.77-1.33-1.21-2.86-1.21-4.5s.44-3.18,1.21-4.5c1.56-2.69,4.47-4.5,7.79-4.5s6.23,1.81,7.79,4.5c.77,1.32,1.21,2.86,1.21,4.5Z"/>
      <g>
        <path class="cls-5" d="M17.41,12c0,2.99-2.42,5.41-5.41,5.41s-5.41-2.42-5.41-5.41,2.42-5.4,5.41-5.4,5.41,2.42,5.41,5.4Z"/>
        <path class="cls-6" d="M17.15,12c0,2.84-2.3,5.15-5.15,5.15s-5.15-2.31-5.15-5.15,2.31-5.15,5.15-5.15,5.15,2.31,5.15,5.15Z"/>
      </g>
      <g>
        <g>
          <path class="cls-2" d="M11.52,9.31c0,1.79.27,2.69.27,2.69,0,0-.27.9-.27,2.69h.4v-5.38h-.4Z"/>
          <path class="cls-2" d="M11.64,12c-.29-1.39-.27-2.69-.27-2.69h-.4c0,1.79.53,2.69.53,2.69,0,0-.53.9-.53,2.69h.4s-.02-1.29.27-2.69Z"/>
          <path class="cls-2" d="M11.34,12c-.59-1.45-.52-2.69-.52-2.69h-.4c0,1.79.78,2.69.78,2.69,0,0-.78.9-.78,2.69h.4s-.07-1.24.52-2.69Z"/>
          <path class="cls-2" d="M11.04,12c-.81-1.19-.78-2.69-.78-2.69h-.4c0,1.79,1.05,2.69,1.05,2.69,0,0-1.05.9-1.05,2.69h.4s-.03-1.5.78-2.69Z"/>
          <path class="cls-2" d="M10.75,12c-1.1-1.1-1.04-2.69-1.04-2.69h-.4s-.07,1.9,1.31,2.69c-1.37.79-1.31,2.69-1.31,2.69h.4s-.06-1.59,1.04-2.69Z"/>
        </g>
        <g>
          <path class="cls-2" d="M12.48,9.31c0,1.79-.27,2.69-.27,2.69,0,0,.27.9.27,2.69h-.4v-5.38h.4Z"/>
          <path class="cls-2" d="M12.37,12c.29-1.39.27-2.69.27-2.69h.4c0,1.79-.53,2.69-.53,2.69,0,0,.53.9.53,2.69h-.4s.02-1.29-.27-2.69Z"/>
          <path class="cls-2" d="M12.67,12c.59-1.45.51-2.69.51-2.69h.4c0,1.79-.78,2.69-.78,2.69,0,0,.78.9.78,2.69h-.4s.08-1.24-.51-2.69Z"/>
          <path class="cls-2" d="M12.96,12c.81-1.19.78-2.69.78-2.69h.4c0,1.79-1.05,2.69-1.05,2.69,0,0,1.05.9,1.05,2.69h-.4s.03-1.5-.78-2.69Z"/>
          <path class="cls-2" d="M13.25,12c1.1-1.1,1.04-2.69,1.04-2.69h.4s.07,1.9-1.3,2.69c1.37.79,1.3,2.69,1.3,2.69h-.4s.06-1.59-1.04-2.69Z"/>
        </g>
      </g>
    </g>
  </g>
</svg>