<?xml version="1.0" encoding="UTF-8"?>
<svg id="Layer_1" data-name="Layer 1" xmlns="http://www.w3.org/2000/svg" viewBox="0 0 24 24">
  <defs>
    <style>
      .cls-1 {
        fill: #000;
      }

      .cls-1, .cls-2, .cls-3, .cls-4, .cls-5 {
        stroke-width: 0px;
      }

      .cls-2 {
        fill: none;
      }

      .cls-3 {
        fill: #032774;
      }

      .cls-4 {
        fill: #fff;
      }

      .cls-5 {
        fill: #df0333;
      }
    </style>
  </defs>
  <rect class="cls-2" width="24" height="24"/>
  <g>
    <path class="cls-1" d="M16.71,7.34c2.92,2.92,3.18,7.42.57,10.03-2.61,2.61-7.11,2.36-10.03-.57-2.92-2.92-3.18-7.42-.57-10.03,2.61-2.61,7.11-2.36,10.03.57Z"/>
    <g>
      <path class="cls-3" d="M19.14,6.53c-1.65-2.14-4.23-3.53-7.14-3.53s-5.49,1.38-7.14,3.53c-.11.15-.22.29-.33.45-.1.15-.2.31-.29.46-.06.11-.12.21-.18.32-.03.05-.06.11-.09.16-.07.14-.14.28-.21.43-.05.12-.11.24-.15.36-.14.35-.26.72-.35,1.09-.03.12-.06.24-.08.36-.06.29-.11.59-.14.9-.02.21-.04.42-.04.63,0,.1,0,.2,0,.3,0,2.06.69,3.96,1.86,5.47,1.65,2.14,4.23,3.53,7.14,3.53s5.49-1.38,7.14-3.53c1.17-1.52,1.86-3.42,1.86-5.47s-.69-3.96-1.86-5.47Z"/>
      <g>
        <path class="cls-3" d="M4.84,10.17l-1.79.9c.03-.3.08-.6.14-.9h1.66Z"/>
        <path class="cls-3" d="M6.97,6.53v1.67l-2.44-1.22c.1-.15.21-.3.33-.45h2.11Z"/>
        <path class="cls-3" d="M4.84,8.35h-1.07c.06-.15.13-.29.21-.43l.86.43Z"/>
        <polygon class="cls-3" points="13.36 8.35 13.36 7.13 10.93 8.35 13.36 8.35"/>
        <polygon class="cls-3" points="12.13 6.52 8.8 6.52 8.8 8.19 12.13 6.52"/>
        <polygon class="cls-3" points="13.36 11.39 13.36 10.17 10.93 10.17 13.36 11.39"/>
        <polygon class="cls-3" points="3.64 12 6.97 12 6.97 10.33 3.64 12"/>
        <polygon class="cls-3" points="8.8 12 12.13 12 8.8 10.33 8.8 12"/>
        <path class="cls-4" d="M13.36,7.13l-2.43,1.22h2.43v1.82h-2.43l2.43,1.22v.21l-2.84-1.42h-.82l3.65,1.83h-1.22l-3.34-1.67v1.67h-1.82v-1.67l-3.34,1.67h-.41l3.65-1.83h-.82l-3.05,1.53c0-.21.02-.42.04-.63l1.79-.9h-1.66c.03-.12.05-.24.08-.36.09-.38.21-.74.35-1.09.05-.12.1-.24.15-.36h1.07l-.86-.43c.03-.05.05-.11.09-.16l1.18.59h.82l-1.82-.91c.09-.16.19-.31.29-.46l2.44,1.22v-1.67h1.82v1.67l3.34-1.67h.41l-3.65,1.83h.82l3.65-1.83h0v.61Z"/>
        <path class="cls-5" d="M6.06,8.35h-.82l-1.18-.59c.06-.11.12-.22.18-.32l1.82.91Z"/>
        <polygon class="cls-5" points="9.7 10.17 13.35 12 13.36 12 13.36 11.6 10.52 10.17 9.7 10.17"/>
        <polygon class="cls-5" points="8.89 8.35 9.71 8.35 13.36 6.52 12.54 6.52 8.89 8.35"/>
        <path class="cls-5" d="M6.88,10.17l-3.65,1.83h-.23c0-.1,0-.2,0-.3l3.05-1.53h.82Z"/>
        <path class="cls-5" d="M13.36,8.72v1.09h-4.93v2.19h-1.09v-2.19H3.27c.09-.38.21-.74.35-1.09h3.72v-2.19h1.09v2.19h4.93Z"/>
      </g>
      <polygon class="cls-4" points="7.88 15.48 7.17 16.22 7.3 15.2 6.28 15.1 7.16 14.57 6.6 13.72 7.56 14.07 7.88 13.1 8.21 14.07 9.17 13.72 8.61 14.57 9.48 15.1 8.47 15.2 8.6 16.22 7.88 15.48"/>
      <polygon class="cls-4" points="16.85 16.01 16.51 16.36 16.58 15.87 16.09 15.83 16.51 15.57 16.24 15.16 16.7 15.33 16.85 14.87 17.01 15.33 17.47 15.16 17.2 15.57 17.62 15.83 17.13 15.87 17.2 16.36 16.85 16.01"/>
      <polygon class="cls-4" points="14.91 11.67 14.57 12.02 14.63 11.54 14.14 11.49 14.56 11.24 14.3 10.83 14.76 11 14.91 10.53 15.06 11 15.53 10.83 15.26 11.24 15.68 11.49 15.19 11.54 15.25 12.02 14.91 11.67"/>
      <polygon class="cls-4" points="16.85 8.71 16.51 9.06 16.57 8.57 16.09 8.53 16.51 8.27 16.24 7.86 16.7 8.03 16.85 7.57 17.01 8.03 17.47 7.86 17.2 8.27 17.62 8.53 17.13 8.57 17.19 9.06 16.85 8.71"/>
      <polygon class="cls-4" points="19.28 10.94 18.94 11.29 19 10.81 18.52 10.76 18.94 10.51 18.67 10.1 19.13 10.26 19.28 9.8 19.44 10.26 19.9 10.1 19.63 10.51 20.05 10.76 19.56 10.81 19.62 11.29 19.28 10.94"/>
      <polygon class="cls-4" points="17.95 12.65 17.67 12.84 17.76 12.52 17.5 12.31 17.83 12.3 17.95 11.99 18.06 12.3 18.4 12.31 18.14 12.52 18.23 12.84 17.95 12.65"/>
    </g>
  </g>
</svg>