<?xml version="1.0" encoding="UTF-8"?>
<svg id="Layer_1" data-name="Layer 1" xmlns="http://www.w3.org/2000/svg" viewBox="0 0 24 24">
  <defs>
    <style>
      .cls-1 {
        fill: #000;
      }

      .cls-1, .cls-2, .cls-3, .cls-4 {
        stroke-width: 0px;
      }

      .cls-2 {
        fill: none;
      }

      .cls-3 {
        fill: #fff;
      }

      .cls-4 {
        fill: #ec2938;
      }
    </style>
  </defs>
  <rect class="cls-2" width="24" height="24"/>
  <g>
    <path class="cls-1" d="M16.71,7.34c2.92,2.92,3.18,7.42.57,10.03-2.61,2.61-7.11,2.35-10.03-.57-2.92-2.92-3.18-7.42-.57-10.03,2.61-2.61,7.11-2.35,10.03.57Z"/>
    <g>
      <path class="cls-3" d="M21,12c0-1.05-.18-2.06-.51-3H3.52c-.33.94-.52,1.95-.52,3s.18,2.06.52,3h16.97c.33-.94.51-1.95.51-3Z"/>
      <path class="cls-4" d="M12,3c-3.91,0-7.25,2.51-8.48,6h16.97c-1.24-3.49-4.57-6-8.48-6Z"/>
      <path class="cls-4" d="M3.52,15c1.24,3.49,4.57,6,8.48,6s7.25-2.51,8.48-6H3.52Z"/>
    </g>
  </g>
</svg>