<?xml version="1.0" encoding="UTF-8"?>
<svg id="Layer_1" data-name="Layer 1" xmlns="http://www.w3.org/2000/svg" viewBox="0 0 24 24">
  <defs>
    <style>
      .cls-1 {
        fill: #05037e;
      }

      .cls-1, .cls-2, .cls-3, .cls-4, .cls-5, .cls-6 {
        stroke-width: 0px;
      }

      .cls-2 {
        fill: #000;
      }

      .cls-3 {
        fill: #12dd9c;
      }

      .cls-4 {
        fill: none;
      }

      .cls-5 {
        fill: #ff0302;
      }

      .cls-6 {
        fill: #fff;
      }
    </style>
  </defs>
  <rect class="cls-4" width="24" height="24"/>
  <g>
    <path class="cls-2" d="M16.71,7.34c2.92,2.92,3.18,7.42.57,10.03-2.61,2.61-7.11,2.35-10.03-.57-2.92-2.92-3.18-7.42-.57-10.03,2.61-2.61,7.11-2.36,10.03.57Z"/>
    <g>
      <path class="cls-1" d="M21,12s0,.09,0,.14v.06s0,0,0,.01c0,0,0,.01,0,.02,0,.35-.04.71-.09,1.05,0,.04-.01.07-.02.11-.02.12-.04.23-.06.34,0,.02,0,.03-.01.05h0s0,.04-.01.05c-.2.95-.55,1.85-1.02,2.67-.23.39-.49.77-.77,1.13-1.65,2.06-4.18,3.37-7.02,3.37s-5.38-1.32-7.02-3.37c-.28-.36-.54-.73-.77-1.13-.45-.79-.79-1.64-.99-2.56,0-.02-.01-.03-.01-.05,0-.02,0-.03-.01-.05-.07-.33-.12-.66-.15-1,0-.03,0-.06,0-.09h0c-.02-.17-.03-.35-.03-.53,0,0,0-.02,0-.02,0,0,0-.01,0-.02,0-.04,0-.09,0-.13,0,0,0-.01,0-.02v-.03c0-.06,0-.12,0-.18,0,0,0-.01,0-.02,0,0,0-.01,0-.02,0-.18.01-.36.03-.54,0,0,0-.02,0-.02s0-.02,0-.02c0-.06.01-.12.02-.18,0,0,0-.02,0-.02h0s0-.02,0-.02c.14-1.25.54-2.42,1.14-3.46.23-.39.48-.77.77-1.13,1.65-2.06,4.18-3.38,7.02-3.38s5.38,1.32,7.02,3.38c.28.35.54.73.77,1.13.44.75.77,1.58.97,2.45,0,0,0,.02,0,.03,0,0,0,.01,0,.02.05.21.08.41.12.63,0,0,0,.01,0,.02s0,.01,0,.02c.05.36.08.73.09,1.11,0,0,0,.01,0,.02,0,0,0,.01,0,.02,0,.06,0,.12,0,.18Z"/>
      <g>
        <g>
          <path class="cls-6" d="M18.28,12c0,3.47-2.81,6.29-6.28,6.29s-6.29-2.81-6.29-6.29,2.81-6.28,6.29-6.28,6.28,2.81,6.28,6.28Z"/>
          <path class="cls-3" d="M12,17.76c-1.54,0-2.98-.6-4.07-1.68-1.09-1.09-1.69-2.53-1.69-4.07s.6-2.98,1.69-4.07c1.09-1.09,2.53-1.69,4.07-1.69s2.98.6,4.07,1.69,1.69,2.53,1.69,4.07-.6,2.98-1.69,4.07c-1.09,1.09-2.53,1.68-4.07,1.68Z"/>
          <path class="cls-6" d="M13.03,9.27l-1.03-.55-1.03.55-.24,1.81.02-.03.29-.29.32-.19.03-.02.4-.11h.41l.39.11.04.02.32.18.29.29.02.03-.24-1.81ZM16.69,12.62l1.07-.62-1.07-.62.87-.87-1.19-.32.62-1.07h-1.23l.32-1.19-1.19.32v-1.23l-1.07.62-.32-1.19-.87.87-.62-1.07-.62,1.07-.87-.87-.32,1.19-1.07-.62v1.23l-1.19-.32.32,1.19h-1.23l.62,1.07-1.19.32.87.87-1.07.62,1.07.62-.87.87,1.19.32-.62,1.07h1.23l-.32,1.19,1.19-.32v1.23l1.07-.62.32,1.19.87-.87.62,1.07.62-1.07.87.87.32-1.19,1.07.62v-1.23l1.19.32-.32-1.19h1.23l-.62-1.07,1.19-.32-.87-.87ZM11.8,13.55l-.4-.11-.11-.06-.25-.14-.29-.29-.2-.35v-.03s-.11-.36-.11-.36v-.41l.11-.39.18-.32.02-.03.29-.29.32-.19.03-.02.4-.11h.41l.39.11.04.02.32.18.29.29.02.03.18.32.11.39v.41l-.1.36v.03s-.21.35-.21.35l-.29.29-.25.14-.11.06-.39.11h-.41Z"/>
          <path class="cls-2" d="M12,16.5c-1.2,0-2.33-.47-3.18-1.32-.85-.85-1.32-1.98-1.32-3.18s.47-2.33,1.32-3.18c.85-.85,1.98-1.32,3.18-1.32s2.33.47,3.18,1.32c.85.85,1.32,1.98,1.32,3.18s-.47,2.33-1.32,3.18c-.85.85-1.98,1.32-3.18,1.32Z"/>
        </g>
        <g>
          <path class="cls-6" d="M12.85,15.18c-.17.08-.24.1-.66.1h.02c.53-.01.54-.08.67-.33.07-.15.11-.4.43-.88.32-.48.83-.96.83-.96l-.71-3.85-1.44-.55,1.76.55.85,3.86s-.49.36-.85.76c-.36.4-.5.65-.6.87-.1.23-.12.33-.31.42Z"/>
          <path class="cls-6" d="M11.79,15.28h.02c-.42,0-.49-.02-.66-.1-.2-.09-.21-.19-.32-.42-.1-.23-.24-.47-.6-.87-.36-.4-.85-.76-.85-.76l.85-3.86,1.77-.55-1.44.55-.7,3.85s.51.47.83.96c.32.48.36.74.43.88.13.24.14.31.67.33Z"/>
          <path class="cls-6" d="M11.6,14.44c.09.73.07.84.38.84h-.05c-.05,0-.1,0-.14,0-.12-.01-.26-.04-.32-.09-.08-.08-.12-.2-.15-.3-.05-.22-.11-.43-.19-.63-.22-.53-.67-1.11-.67-1.11l.5-3.88,1.03-.55-.55.54-.24,3.9s.35.9.4,1.28Z"/>
          <path class="cls-6" d="M12.52,15.19c-.06.05-.19.08-.32.09h-.06s-.04,0-.06,0h-.08c.32,0,.3-.11.4-.84.05-.39.4-1.28.4-1.28l-.24-3.9-.55-.54,1.03.55.5,3.88s-.45.58-.67,1.11c-.08.21-.14.42-.19.63-.02.11-.06.23-.14.3Z"/>
          <path class="cls-5" d="M12.21,15.28c.12-.01.26-.04.32-.09.08-.08.12-.2.14-.3.05-.22.11-.43.19-.63.22-.53.67-1.11.67-1.11l-.5-3.88-1.03-.55,1.44.55.71,3.85s-.51.47-.83.96c-.32.48-.36.74-.43.88-.13.24-.14.31-.67.33Z"/>
          <path class="cls-5" d="M11.48,15.19c.06.05.19.08.32.09-.53-.01-.55-.08-.67-.33-.08-.15-.11-.4-.43-.88-.32-.48-.83-.96-.83-.96l.7-3.85,1.44-.55-1.03.55-.5,3.88s.45.58.67,1.11c.08.21.14.42.19.63.02.11.06.23.15.3Z"/>
          <path class="cls-5" d="M12.55,9.26l.24,3.9s-.35.9-.4,1.28c-.09.74-.07.84-.4.84h-.01c-.31,0-.29-.12-.38-.84-.05-.39-.4-1.28-.4-1.28l.24-3.9.55-.54.55.54Z"/>
        </g>
      </g>
    </g>
  </g>
</svg>