<?xml version="1.0" encoding="UTF-8"?>
<svg id="Layer_1" data-name="Layer 1" xmlns="http://www.w3.org/2000/svg" viewBox="0 0 24 24">
  <defs>
    <style>
      .cls-1 {
        fill: #000;
      }

      .cls-1, .cls-2, .cls-3, .cls-4, .cls-5, .cls-6 {
        stroke-width: 0px;
      }

      .cls-2 {
        fill: #3d9b37;
      }

      .cls-3 {
        fill: none;
      }

      .cls-4 {
        fill: #fff;
      }

      .cls-5 {
        fill: #ec2938;
      }

      .cls-6 {
        fill: #06b8e3;
      }
    </style>
  </defs>
  <rect class="cls-3" width="24" height="24"/>
  <g>
    <path class="cls-1" d="M16.71,7.34c2.92,2.92,3.18,7.42.57,10.03-2.61,2.61-7.11,2.35-10.03-.57-2.92-2.92-3.18-7.42-.57-10.03,2.61-2.61,7.11-2.35,10.03.57Z"/>
    <g>
      <g>
        <path class="cls-6" d="M20.49,9H3.51c1.24-3.49,4.57-6,8.49-6s7.25,2.51,8.49,6Z"/>
        <path class="cls-2" d="M20.49,15c-1.24,3.49-4.57,6-8.49,6s-7.25-2.51-8.49-6h16.97Z"/>
        <path class="cls-5" d="M21,12c0,1.05-.18,2.06-.51,3H3.51c-.33-.94-.51-1.95-.51-3s.18-2.06.51-3h16.97c.33.94.51,1.95.51,3Z"/>
      </g>
      <g>
        <path class="cls-4" d="M11.68,14.25c-1.24,0-2.25-1.01-2.25-2.25s1.01-2.25,2.25-2.25c.64,0,1.22.27,1.63.7-.49-.7-1.3-1.15-2.21-1.15-1.49,0-2.7,1.21-2.7,2.7s1.21,2.7,2.7,2.7c.92,0,1.72-.46,2.21-1.15-.41.43-.99.7-1.63.7Z"/>
        <polygon class="cls-4" points="14.09 10.48 14.38 11.3 15.16 10.93 14.79 11.71 15.61 12 14.79 12.29 15.16 13.07 14.38 12.7 14.09 13.52 13.8 12.7 13.02 13.07 13.39 12.29 12.58 12 13.39 11.71 13.02 10.93 13.8 11.3 14.09 10.48"/>
      </g>
    </g>
  </g>
</svg>