<?xml version="1.0" encoding="UTF-8"?>
<svg id="Layer_1" data-name="Layer 1" xmlns="http://www.w3.org/2000/svg" viewBox="0 0 24 24">
  <defs>
    <style>
      .cls-1 {
        fill: #f9df47;
      }

      .cls-1, .cls-2, .cls-3, .cls-4 {
        stroke-width: 0px;
      }

      .cls-2 {
        fill: #000;
      }

      .cls-3 {
        fill: none;
      }

      .cls-4 {
        fill: #03aac8;
      }
    </style>
  </defs>
  <rect class="cls-3" width="24" height="24"/>
  <g>
    <path class="cls-2" d="M16.72,7.34c2.92,2.92,3.18,7.42.57,10.03-2.61,2.61-7.11,2.35-10.03-.57-2.92-2.92-3.17-7.42-.57-10.03,2.61-2.61,7.11-2.35,10.03.57Z"/>
    <g>
      <g>
        <path class="cls-4" d="M20.49,15c-1.24,3.49-4.58,6-8.49,6-2.8,0-5.31-1.29-6.96-3.3-.65-.8-1.17-1.71-1.52-2.7h16.97Z"/>
        <path class="cls-1" d="M21,12c0,1.05-.18,2.06-.51,3H3.51c-.33-.94-.51-1.95-.51-3s.18-2.06.51-3h16.97c.34.94.51,1.95.51,3Z"/>
        <path class="cls-4" d="M20.49,9H3.51c.35-.99.87-1.9,1.52-2.7,1.65-2.02,4.16-3.3,6.96-3.3,3.91,0,7.25,2.51,8.48,6Z"/>
      </g>
      <path class="cls-2" d="M16.43,12l-6,3-5.4,2.7c-.65-.8-1.17-1.71-1.52-2.7-.33-.94-.51-1.95-.51-3s.18-2.06.51-3c.35-.99.87-1.9,1.52-2.7l5.39,2.7,6,3Z"/>
    </g>
  </g>
</svg>