<?xml version="1.0" encoding="UTF-8"?>
<svg id="Layer_1" data-name="Layer 1" xmlns="http://www.w3.org/2000/svg" viewBox="0 0 24 24">
  <defs>
    <style>
      .cls-1 {
        fill: #000;
      }

      .cls-1, .cls-2, .cls-3, .cls-4 {
        stroke-width: 0px;
      }

      .cls-2 {
        fill: none;
      }

      .cls-3 {
        fill: #cd1225;
      }

      .cls-4 {
        fill: #fff;
      }
    </style>
  </defs>
  <rect class="cls-2" width="24" height="24"/>
  <g>
    <path class="cls-1" d="M16.72,7.34c2.92,2.92,3.17,7.42.57,10.03-2.61,2.61-7.11,2.35-10.03-.57-2.92-2.92-3.18-7.42-.57-10.03,2.61-2.61,7.11-2.35,10.03.57Z"/>
    <g>
      <path class="cls-3" d="M21,12c0,4.96-4.04,9-9,9-1.07,0-2.09-.19-3.04-.53-3.47-1.25-5.96-4.58-5.96-8.47s2.49-7.22,5.96-8.47c.95-.34,1.97-.53,3.04-.53,4.96,0,9,4.04,9,9Z"/>
      <path class="cls-4" d="M7.61,6.6l4.6-1.8-3.25-1.27c-3.47,1.25-5.96,4.58-5.96,8.47s2.49,7.22,5.96,8.47l3.25-1.27-4.6-1.8,4.6-1.8-4.6-1.8,4.6-1.8-4.6-1.8,4.6-1.8-4.6-1.8Z"/>
    </g>
  </g>
</svg>