<?xml version="1.0" encoding="UTF-8"?>
<svg id="Layer_1" data-name="Layer 1" xmlns="http://www.w3.org/2000/svg" viewBox="0 0 24 24">
  <defs>
    <style>
      .cls-1 {
        fill: #000;
      }

      .cls-1, .cls-2, .cls-3, .cls-4 {
        stroke-width: 0px;
      }

      .cls-2 {
        fill: #04267d;
      }

      .cls-3 {
        fill: none;
      }

      .cls-4 {
        fill: #fec62d;
      }
    </style>
  </defs>
  <rect class="cls-3" width="24" height="24"/>
  <g>
    <path class="cls-1" d="M16.71,7.34c2.92,2.92,3.18,7.42.57,10.03-2.61,2.61-7.11,2.36-10.03-.57-2.92-2.92-3.18-7.42-.57-10.03,2.61-2.61,7.11-2.35,10.03.57Z"/>
    <g>
      <g>
        <path class="cls-2" d="M7.5,4.21v15.58c-2.69-1.56-4.5-4.47-4.5-7.79s1.81-6.23,4.5-7.79Z"/>
        <path class="cls-4" d="M16.5,4.21v15.58c-1.33.77-2.86,1.21-4.5,1.21s-3.18-.44-4.5-1.21V4.21c1.32-.77,2.86-1.21,4.5-1.21s3.18.44,4.5,1.21Z"/>
        <path class="cls-2" d="M21,12c0,3.32-1.81,6.23-4.5,7.79V4.21c2.69,1.56,4.5,4.47,4.5,7.79Z"/>
      </g>
      <path class="cls-1" d="M15.83,8.88c-.25.04-1.31.27-1.99,1.01-.01.01,0,.03.01.02.1-.03.26-.07.37-.09.04-.01.07.03.06.07-.09.26-.19.52-.29.78-.16.42-.2.6-.3,1.03-.05.22-.1.44-.14.67-.02.11-.04.22-.06.34-.01.08-.05.34-.07.49,0,.04-.04.07-.08.06l-.87-.13v-3.35c.24,0,.41.03.76.1-.54-.4-1.21-2.25-1.21-2.25,0,0-.67,1.85-1.22,2.25.36-.07.52-.09.76-.1v3.35l-.87.13s-.08-.02-.08-.06c-.02-.15-.06-.42-.07-.49-.02-.11-.04-.22-.06-.34-.04-.22-.09-.45-.14-.67-.1-.43-.14-.61-.3-1.03-.1-.26-.2-.52-.29-.78-.01-.04.02-.08.06-.07.1.02.27.06.37.09.01,0,.02-.01.01-.02-.68-.74-1.75-.97-1.99-1.01-.02,0-.04.02-.02.04.44.75.85,1.53,1.16,2.35.25.66.4,1.35.52,2.04.05.3.08.61.09.92h0l1.63-.24v2.38h.91v-2.38l1.63.24h0c.01-.31.04-.61.09-.92.11-.69.26-1.39.52-2.04.31-.82.72-1.59,1.16-2.35.01-.02,0-.04-.03-.04Z"/>
    </g>
  </g>
</svg>