<?xml version="1.0" encoding="UTF-8"?>
<svg id="Layer_1" data-name="Layer 1" xmlns="http://www.w3.org/2000/svg" viewBox="0 0 24 24">
  <defs>
    <style>
      .cls-1 {
        fill: #000;
      }

      .cls-1, .cls-2, .cls-3, .cls-4, .cls-5 {
        stroke-width: 0px;
      }

      .cls-2 {
        fill: none;
      }

      .cls-3 {
        fill: #48a558;
      }

      .cls-4 {
        fill: #c7313d;
      }

      .cls-5 {
        fill: #fff;
      }
    </style>
  </defs>
  <rect class="cls-2" width="24" height="24"/>
  <g>
    <path class="cls-1" d="M16.71,7.34c2.92,2.92,3.18,7.42.57,10.03-2.61,2.61-7.11,2.36-10.03-.57-2.92-2.92-3.18-7.42-.57-10.03,2.61-2.61,7.11-2.36,10.03.57Z"/>
    <g>
      <path class="cls-4" d="M12,3c-1.85,0-3.57.56-5,1.53v.55h0v.29h0v2.04h0v.32h0v1.76h0v.32h0v4.39h0v.32h0v.48h13.49c.33-.94.51-1.95.51-3,0-4.96-4.04-9-9-9Z"/>
      <path class="cls-3" d="M7,15.1v1.18h0v.32h0v2.04h0v.29h0v.55c1.43.96,3.15,1.53,5,1.53,3.91,0,7.25-2.51,8.49-6H7v.1Z"/>
      <path class="cls-5" d="M3.17,13.04v-.29h.18v-.28h.18v-.28h.16v-.36h-.16v-.28h-.18v-.28h-.18v-.29h-.11c-.04.34-.06.69-.06,1.04s.02.69.06,1.04h.11Z"/>
      <path class="cls-5" d="M3.33,10.37v.31h.19v.29h.15v-.29h.18v-.29h.18v-.29h.18v-.29h.2v-.33h.18v-.31h-.17v-.27h-.21v-.31h-.52v.31h.35v.27h-.15v.31h-.18v.3h-.18v-.3h-.16c-.08.26-.14.52-.19.78v.1h.16Z"/>
      <path class="cls-5" d="M5.42,5.87s-.06.07-.09.1h.09v-.1Z"/>
      <rect class="cls-5" x="5.42" y="6.25" width=".19" height=".29"/>
      <polygon class="cls-5" points="6.83 13.63 6.67 13.63 6.67 13.32 6.48 13.32 6.48 13.04 6.32 13.04 6.32 13.32 6.15 13.32 6.15 13.61 5.97 13.61 5.97 13.9 5.8 13.9 5.8 14.19 5.59 14.19 5.59 14.52 5.41 14.52 5.41 14.82 5.58 14.82 5.58 15 5.97 15 5.97 14.82 6.12 14.82 6.12 14.52 6.3 14.52 6.3 14.21 6.48 14.21 6.48 14.52 6.65 14.52 6.65 14.82 6.81 14.82 6.81 15 7 15 7 14.52 6.83 14.52 6.83 14.19 7 14.19 7 13.92 6.83 13.92 6.83 13.63"/>
      <path class="cls-5" d="M5.27,10.1h-.18v-.29h-.19v.29h-.18v.29h-.18v.29h-.18v.29h-.17v.29h-.18v1.5h.18v.29h.17v.29h.18v.29h.18v.29h.18v.29h.19v-.29h.18v-.29h.18v-.29h.18v-.29h.17v-.29h.18v-1.5h-.18v-.29h-.17v-.29h-.18v-.29h-.18v-.29ZM4.39,12.15h-.19v-.29h.19v.29ZM5.61,11.85h.19v.29h-.19v-.29ZM4.9,10.38h.19v.29h-.19v-.29ZM5.09,13.62h-.19v-.29h.19v.29ZM5.41,10.97v.59h-.18v.27h-.16v.33h.16v.27h.18v.59h-.16v-.32h-.18v-.27h-.16v.27h-.18v.32h-.16v-.59h.18v-.27h.16v-.33h-.16v-.27h-.18v-.59h.16v.32h.18v.27h.16v-.27h.18v-.32h.16Z"/>
      <polygon class="cls-5" points="6.83 11.25 6.64 11.25 6.64 11.54 6.47 11.54 6.47 11.82 6.31 11.82 6.31 12.18 6.47 12.18 6.47 12.46 6.64 12.46 6.64 12.75 6.83 12.75 6.83 13.04 7 13.04 7 10.96 6.83 10.96 6.83 11.25"/>
      <rect class="cls-5" x="6.47" y="6.25" width=".19" height=".29"/>
      <path class="cls-5" d="M6.82,4.76h-.16s0,0-.01.01v.28h-.18v.29h-.15v.3h-.17v.31h-.21v-.31h-.17v-.13c-.05.05-.11.1-.16.15h0v.3h.16v.29h.18v.28h-.18v.29h-.16v.3h-.2v-.3h-.16v-.29h-.18v-.28h.18v-.22c-.12.14-.24.28-.35.42v.07h-.06c-.04.05-.08.11-.12.17v.12h-.09s-.05.07-.07.1v.2h-.13c-.06.1-.12.19-.18.29h.14v.31h.17v.28h.17v.29h.17v.29h.17v-.29h.17v-.29h.17v-.28h.17v-.31h.17v-.31h.19v-.28h.17v.28h.19v.31h.17v.31h.17v.28h.17v.29h.17v-.57h-.17v-.32h.17v-.87h-.18v.29h-.15v.3h-.2v-.3h-.16v-.29h-.18v-.28h.18v-.29h.16v-.3h.2v.3h.15v.29h.18v-.89h-.17v-.29h.17v-.55c-.06.04-.12.08-.17.12v.12ZM5.08,7.72h-.17v-.61h.17v.61Z"/>
      <polygon class="cls-5" points="6.81 9.17 6.65 9.17 6.65 9.48 6.48 9.48 6.48 9.79 6.3 9.79 6.3 9.48 6.12 9.48 6.12 9.17 5.97 9.17 5.97 8.9 6.32 8.9 6.32 8.59 5.79 8.59 5.79 8.9 5.58 8.9 5.58 9.17 5.41 9.17 5.41 9.48 5.59 9.48 5.59 9.81 5.8 9.81 5.8 10.1 5.97 10.1 5.97 10.39 6.15 10.39 6.15 10.67 6.32 10.67 6.32 10.96 6.48 10.96 6.48 10.67 6.67 10.67 6.67 10.37 6.83 10.37 6.83 10.07 7 10.07 7 9.8 6.83 9.8 6.83 9.48 7 9.48 7 8.9 6.81 8.9 6.81 9.17"/>
      <path class="cls-5" d="M3.52,14.21h.18v.3h.18v.31h.15v.18h.39v-.18h.17v-.31h-.18v-.33h-.21v-.29h-.18v-.29h-.18v-.29h-.18v-.29h-.15v.29h-.19v.31h-.16v.11c.05.26.12.53.19.78h.16v-.3Z"/>
      <rect class="cls-5" x="6.81" y="15" width=".19" height=".1"/>
      <polygon class="cls-5" points="5.79 15.1 5.79 15.41 6.32 15.41 6.32 15.1 5.97 15.1 5.97 15 5.58 15 5.58 15.1 5.79 15.1"/>
      <polygon class="cls-5" points="4.03 15.1 3.68 15.1 3.68 15.41 4.21 15.41 4.21 15.1 4.42 15.1 4.42 15 4.03 15 4.03 15.1"/>
      <path class="cls-5" d="M6.83,18.92v-.29h.17v-.89h-.18v.29h-.15v.3h-.2v-.3h-.16v-.29h-.18v-.28h.18v-.29h.16v-.3h.2v.3h.15v.29h.18v-.87h-.17v-.32h.17v-.57h-.17v.29h-.17v.28h-.17v.31h-.17v.31h-.19v.28h-.17v-.28h-.19v-.31h-.17v-.31h-.17v-.28h-.17v-.29h-.17v-.29h-.17v.29h-.17v.29h-.17v.28h-.17v.31h-.14c.06.1.12.2.18.29h.14v.2s.05.06.07.1h.09v.12c.04.06.08.11.12.17h.06v.07c.11.14.23.28.35.42v-.22h-.18v-.28h.18v-.29h.16v-.3h.2v.3h.16v.29h.18v.28h-.18v.29h-.16v.3h0c.05.05.11.1.16.16v-.13h.17v-.31h.21v.31h.17v.3h.15v.29h.18v.28s0,0,.01,0h.16v.12c.06.04.11.08.17.12v-.55h-.17ZM5.09,16.89h-.17v-.61h.17v.61Z"/>
      <rect class="cls-5" x="6.47" y="17.46" width=".19" height=".29"/>
      <path class="cls-5" d="M5.33,18.03s.06.07.09.1v-.1h-.09Z"/>
      <rect class="cls-5" x="5.42" y="17.46" width=".19" height=".29"/>
      <rect class="cls-4" x="6.83" y="7.4" width=".17" height=".32"/>
      <rect class="cls-4" x="6.83" y="9.48" width=".17" height=".32"/>
      <rect class="cls-4" x="4.91" y="7.11" width=".17" height=".61"/>
      <path class="cls-4" d="M4.73,6.82v-.12s-.06.08-.09.12h.09Z"/>
      <path class="cls-4" d="M4.91,6.53v-.07s-.04.05-.06.07h.06Z"/>
      <path class="cls-4" d="M4.57,6.92c-.05.06-.09.13-.13.2h.13v-.2Z"/>
      <path class="cls-4" d="M5.09,6.25v.28h.18v.29h.16v.3h.2v-.3h.16v-.29h.18v-.28h-.18v-.29h-.16v-.3h0c-.07.06-.13.13-.19.2v.1h-.09s-.04.05-.06.07v.22h-.18ZM5.42,6.25h.19v.29h-.19v-.29Z"/>
      <path class="cls-4" d="M6.81,5.97h-.15v-.3h-.2v.3h-.16v.29h-.18v.28h.18v.29h.16v.3h.2v-.3h.15v-.29h.18v-.28h-.18v-.29ZM6.66,6.54h-.19v-.29h.19v.29Z"/>
      <rect class="cls-4" x="6.83" y="5.07" width=".17" height=".29"/>
      <path class="cls-4" d="M5.94,5.64v.31h.21v-.31h.17v-.3h.15v-.29h.18v-.28c-.31.23-.6.48-.88.74v.13h.17Z"/>
      <path class="cls-4" d="M6.82,4.64c-.05.04-.11.07-.16.12h.16v-.12Z"/>
      <path class="cls-4" d="M4.03,14.82h-.15v-.31h-.18v-.3h-.18v.3h-.16c.05.16.1.33.16.48h.52v-.18Z"/>
      <path class="cls-4" d="M6.83,8h-.17v-.28h-.17v-.31h-.17v-.31h-.19v-.28h-.17v.28h-.19v.31h-.17v.31h-.17v.28h-.17v.29h-.17v.29h-.17v-.29h-.17v-.29h-.17v-.28h-.17v-.31h-.14c-.38.64-.69,1.33-.9,2.07h.16v.3h.18v-.3h.18v-.31h.15v-.27h-.35v-.31h.52v.31h.21v.27h.17v.31h-.18v.33h-.2v.29h-.18v.29h-.18v.29h-.18v.29h-.15v-.29h-.19v-.31h-.16v-.1c-.04.23-.08.46-.11.69h.11v.29h.18v.28h.18v.28h.16v.36h-.16v.28h-.18v.28h-.18v.29h-.11c.03.23.06.47.11.7v-.11h.16v-.31h.19v-.29h.15v.29h.18v.29h.18v.29h.18v.29h.21v.33h.18v.31h-.17v.18h1.16v-.18h-.17v-.31h.18v-.33h.2v-.29h.18v-.29h.18v-.29h.18v-.29h.15v.29h.19v.31h.16v.29h.17v-.89h-.17v-.29h-.18v-.28h-.18v-.28h-.16v-.36h.16v-.28h.18v-.28h.18v-.29h.17v-.89h-.17v.29h-.16v.31h-.19v.29h-.15v-.29h-.18v-.29h-.18v-.29h-.18v-.29h-.21v-.33h-.18v-.31h.17v-.27h.21v-.31h.53v.31h-.35v.27h.15v.31h.18v.3h.18v-.3h.18v-.31h.15v-.27h.19v-.6h-.17v-.29ZM5.45,10.39v.29h.18v.29h.17v.29h.18v1.5h-.18v.29h-.17v.29h-.18v.29h-.18v.29h-.18v.29h-.19v-.29h-.18v-.29h-.18v-.29h-.18v-.29h-.17v-.29h-.18v-1.5h.18v-.29h.17v-.29h.18v-.29h.18v-.29h.18v-.29h.19v.29h.18v.29h.18Z"/>
      <polygon class="cls-4" points="6.81 14.82 6.65 14.82 6.65 14.52 6.48 14.52 6.48 14.21 6.3 14.21 6.3 14.52 6.12 14.52 6.12 14.82 5.97 14.82 5.97 15 6.81 15 6.81 14.82"/>
      <path class="cls-4" d="M6.81,15h-.84v.1h.35v.31h-.52v-.31h-.21v-.1h-1.16v.1h-.21v.31h-.53v-.31h.35v-.1h-.52c.2.55.45,1.08.74,1.58h.14v-.31h.17v-.28h.17v-.29h.17v-.29h.17v.29h.17v.29h.17v.28h.17v.31h.17v.31h.19v.28h.17v-.28h.19v-.31h.17v-.31h.17v-.28h.17v-.29h.17v-.6h-.19v-.1Z"/>
      <rect class="cls-4" x="6.83" y="16.27" width=".17" height=".32"/>
      <rect class="cls-4" x="6.83" y="14.19" width=".17" height=".32"/>
      <rect class="cls-4" x="4.92" y="16.27" width=".17" height=".61"/>
      <path class="cls-4" d="M6.81,17.18h-.15v-.3h-.2v.3h-.16v.29h-.18v.28h.18v.29h.16v.3h.2v-.3h.15v-.29h.18v-.28h-.18v-.29ZM6.66,17.75h-.19v-.29h.19v.29Z"/>
      <path class="cls-4" d="M5.42,18.03v.1c.06.07.13.13.19.2h0v-.3h.16v-.29h.18v-.28h-.18v-.29h-.16v-.3h-.2v.3h-.16v.29h-.18v.28h.18v.22s.04.05.06.07h.09ZM5.42,17.46h.19v.29h-.19v-.29Z"/>
      <path class="cls-4" d="M4.73,17.18h-.09s.06.08.09.12v-.12Z"/>
      <path class="cls-4" d="M4.91,17.46h-.06s.04.05.06.07v-.07Z"/>
      <path class="cls-4" d="M4.57,16.87h-.14c.04.07.09.14.14.2v-.2Z"/>
      <rect class="cls-4" x="6.83" y="18.63" width=".17" height=".29"/>
      <path class="cls-4" d="M6.65,18.95h-.18v-.29h-.15v-.3h-.17v-.31h-.21v.31h-.17v.13c.28.27.57.52.88.74v-.28Z"/>
      <path class="cls-4" d="M6.82,19.24h-.16c.05.04.11.08.16.12v-.12Z"/>
      <rect class="cls-4" x="4.2" y="11.85" width=".19" height=".29"/>
      <rect class="cls-4" x="5.61" y="11.85" width=".19" height=".29"/>
      <rect class="cls-4" x="4.9" y="13.33" width=".19" height=".29"/>
      <rect class="cls-4" x="4.9" y="10.38" width=".19" height=".29"/>
      <polygon class="cls-4" points="5.25 11.29 5.08 11.29 5.08 11.56 4.92 11.56 4.92 11.29 4.74 11.29 4.74 10.97 4.58 10.97 4.58 11.29 4.58 11.56 4.76 11.56 4.76 11.83 4.92 11.83 4.92 12.16 4.76 12.16 4.76 12.44 4.58 12.44 4.58 12.71 4.58 13.03 4.74 13.03 4.74 12.71 4.92 12.71 4.92 12.44 5.08 12.44 5.08 12.71 5.25 12.71 5.25 13.03 5.41 13.03 5.41 12.71 5.41 12.44 5.24 12.44 5.24 12.16 5.08 12.16 5.08 11.83 5.24 11.83 5.24 11.56 5.41 11.56 5.41 11.29 5.41 10.97 5.25 10.97 5.25 11.29"/>
    </g>
  </g>
</svg>