<?xml version="1.0" encoding="UTF-8"?>
<svg id="Layer_1" data-name="Layer 1" xmlns="http://www.w3.org/2000/svg" viewBox="0 0 24 24">
  <defs>
    <style>
      .cls-1 {
        fill: #000;
      }

      .cls-1, .cls-2, .cls-3, .cls-4, .cls-5 {
        stroke-width: 0px;
      }

      .cls-2 {
        fill: #d42b1e;
      }

      .cls-3 {
        fill: #fedf19;
      }

      .cls-4 {
        fill: none;
      }

      .cls-5 {
        fill: #007835;
      }
    </style>
  </defs>
  <rect class="cls-4" width="24" height="24"/>
  <g>
    <path class="cls-1" d="M16.71,7.34c2.92,2.92,3.18,7.42.57,10.03-2.61,2.61-7.11,2.35-10.03-.57-2.92-2.92-3.18-7.42-.57-10.03,2.61-2.61,7.11-2.36,10.03.57Z"/>
    <g>
      <path class="cls-5" d="M20.49,15c-.19.52-.42,1.03-.69,1.5-1.56,2.69-4.47,4.5-7.79,4.5s-6.23-1.81-7.79-4.5c-.27-.47-.51-.98-.69-1.5h16.97Z"/>
      <path class="cls-3" d="M21,12c0,1.05-.18,2.06-.51,3H3.52c-.34-.94-.52-1.95-.52-3s.18-2.06.52-3h16.97c.33.94.51,1.95.51,3Z"/>
      <path class="cls-2" d="M20.49,9H3.52c.18-.52.42-1.03.69-1.5,1.56-2.69,4.47-4.5,7.79-4.5s6.23,1.81,7.79,4.5c.27.47.51.98.69,1.5Z"/>
    </g>
  </g>
</svg>