<?xml version="1.0" encoding="UTF-8"?>
<svg id="Layer_1" data-name="Layer 1" xmlns="http://www.w3.org/2000/svg" viewBox="0 0 24 24">
  <defs>
    <style>
      .cls-1 {
        fill: #000;
      }

      .cls-1, .cls-2, .cls-3, .cls-4, .cls-5 {
        stroke-width: 0px;
      }

      .cls-2 {
        fill: #fdca16;
      }

      .cls-3 {
        fill: #062493;
      }

      .cls-4 {
        fill: none;
      }

      .cls-5 {
        fill: #fff;
      }
    </style>
  </defs>
  <rect class="cls-4" width="24" height="24"/>
  <g>
    <path class="cls-1" d="M16.71,7.34c2.92,2.92,3.18,7.42.57,10.03-2.61,2.61-7.11,2.35-10.03-.57-2.92-2.92-3.18-7.42-.57-10.03,2.61-2.61,7.11-2.35,10.03.57Z"/>
    <g>
      <path class="cls-3" d="M21,12c0,2.4-.94,4.58-2.48,6.2-.46.48-.97.91-1.52,1.28-.43.29-.88.54-1.36.75-.44.2-.91.36-1.39.48-.72.19-1.47.29-2.25.29-4.96,0-9-4.04-9-9,0-.38.02-.75.07-1.12.01-.08.02-.16.03-.24.05-.33.12-.65.2-.96.06-.23.13-.45.2-.66.14-.39.3-.77.49-1.13l.02-.05h0c.15-.28.32-.57.51-.84,1.6-2.39,4.32-3.97,7.4-3.99h.16c2.53.02,4.82,1.09,6.44,2.8,1.54,1.62,2.48,3.8,2.48,6.2Z"/>
      <path class="cls-2" d="M18.52,5.8v12.39c-.46.48-.97.91-1.52,1.28L4.53,6.99c1.6-2.39,4.32-3.97,7.4-3.99.03,0,.05,0,.08,0,.03,0,.05,0,.08,0,2.53.02,4.82,1.09,6.44,2.8Z"/>
      <g>
        <path class="cls-5" d="M15.64,20.23c-.44.2-.91.36-1.39.48l-.6-.44h1.24l.38-1.18.37,1.13Z"/>
        <polygon class="cls-5" points="13.02 16.84 13.4 18.02 14.65 18.02 13.64 18.75 14.03 19.94 13.02 19.21 12.02 19.94 12.4 18.75 11.4 18.02 12.64 18.02 13.02 16.84"/>
        <polygon class="cls-5" points="10.77 14.59 11.15 15.77 12.39 15.77 11.39 16.5 11.77 17.68 10.77 16.95 9.77 17.68 10.15 16.5 9.15 15.77 10.39 15.77 10.77 14.59"/>
        <polygon class="cls-5" points="8.52 12.34 8.9 13.52 10.14 13.52 9.14 14.25 9.52 15.43 8.52 14.7 7.51 15.43 7.9 14.25 6.89 13.52 8.13 13.52 8.52 12.34"/>
        <polygon class="cls-5" points="6.27 10.09 6.65 11.27 7.89 11.27 6.89 12 7.27 13.18 6.27 12.45 5.26 13.18 5.65 12 4.64 11.27 5.88 11.27 6.27 10.09"/>
        <path class="cls-5" d="M4.63,9.75l.38,1.18-1-.73-.94.69c.01-.08.02-.16.03-.24l.29-.89-.09-.06c.06-.23.13-.45.2-.66h.12l.37-1.13.02-.05h0s.38,1.18.38,1.18h1.24l-1,.73Z"/>
      </g>
    </g>
  </g>
</svg>