<?xml version="1.0" encoding="UTF-8"?>
<svg id="Layer_1" data-name="Layer 1" xmlns="http://www.w3.org/2000/svg" viewBox="0 0 24 24">
  <defs>
    <style>
      .cls-1 {
        fill: #000;
      }

      .cls-1, .cls-2, .cls-3, .cls-4 {
        stroke-width: 0px;
      }

      .cls-2 {
        fill: none;
      }

      .cls-3 {
        fill: #75aada;
      }

      .cls-4 {
        fill: #fff;
      }
    </style>
  </defs>
  <rect class="cls-2" width="24" height="24"/>
  <g>
    <path class="cls-1" d="M16.71,7.34c2.92,2.92,3.18,7.42.57,10.03-2.61,2.61-7.11,2.35-10.03-.57-2.92-2.92-3.18-7.42-.57-10.03,2.61-2.61,7.11-2.36,10.03.57Z"/>
    <g>
      <path class="cls-3" d="M21,12c0,.51-.04,1.01-.13,1.49-.04.26-.09.51-.16.76-1,3.87-4.53,6.75-8.72,6.75s-7.71-2.87-8.71-6.75c-.06-.25-.12-.5-.16-.76-.08-.48-.13-.98-.13-1.49s.04-1.01.13-1.49c.04-.26.09-.51.16-.76,1-3.87,4.53-6.75,8.71-6.75s7.71,2.87,8.72,6.75c.06.25.12.5.16.76.08.49.13.98.13,1.49Z"/>
      <path class="cls-4" d="M21,12c0,.51-.04,1.01-.13,1.49-.04.26-.09.51-.16.76H3.29c-.06-.25-.12-.5-.16-.76-.08-.48-.13-.98-.13-1.49s.04-1.01.13-1.49c.04-.26.09-.51.16-.76h17.43c.06.25.12.5.16.76.08.49.13.98.13,1.49Z"/>
      <path class="cls-1" d="M21,12c0,.51-.04,1.01-.13,1.49H3.13c-.08-.48-.13-.98-.13-1.49s.04-1.01.13-1.49h17.75c.08.49.13.98.13,1.49Z"/>
    </g>
  </g>
</svg>