<?xml version="1.0" encoding="UTF-8"?>
<svg id="Layer_1" data-name="Layer 1" xmlns="http://www.w3.org/2000/svg" viewBox="0 0 24 24">
  <defs>
    <style>
      .cls-1 {
        fill: #000;
      }

      .cls-1, .cls-2, .cls-3, .cls-4, .cls-5, .cls-6 {
        stroke-width: 0px;
      }

      .cls-2 {
        fill: #009b3a;
      }

      .cls-3 {
        fill: none;
      }

      .cls-4 {
        fill: #fedf00;
      }

      .cls-5 {
        fill: #fff;
      }

      .cls-6 {
        fill: #002776;
      }
    </style>
  </defs>
  <rect class="cls-3" width="24" height="24"/>
  <g>
    <path class="cls-1" d="M16.72,7.34c2.92,2.92,3.17,7.42.57,10.03-2.61,2.61-7.11,2.35-10.03-.57-2.92-2.92-3.18-7.42-.57-10.03,2.61-2.61,7.11-2.35,10.03.57Z"/>
    <g>
      <g>
        <path class="cls-2" d="M21,12c0,4.96-4.04,9-9,9S3,16.96,3,12,7.04,3,12,3s9,4.04,9,9Z"/>
        <polygon class="cls-4" points="12 17.47 3.42 12 12 6.53 20.58 12 12 17.47"/>
        <g>
          <g>
            <circle class="cls-6" cx="12" cy="12" r="3.61"/>
            <path class="cls-5" d="M8.69,10.54c-.08.18-.14.36-.19.55.23-.05,3.87-.79,6.94,1.99.06-.18.1-.37.13-.57-2.95-2.54-6.39-2.06-6.88-1.97Z"/>
          </g>
          <path class="cls-2" d="M9.05,10.7s-.02-.04-.03-.05c-.01-.02-.03-.03-.05-.03-.02-.01-.04-.01-.07-.01s-.05,0-.07.01c-.02,0-.04.02-.05.03-.01.01-.03.03-.03.05,0,.02-.01.04-.01.07s0,.05.01.07c0,.02.02.04.03.05.01.02.03.03.05.04.02,0,.04.01.07.01s.05,0,.07-.01c.02-.01.04-.02.05-.04.01-.01.02-.03.03-.05,0-.02.01-.04.01-.07s0-.05-.01-.07ZM8.99,10.82s-.01.03-.02.04-.02.02-.03.03c-.01,0-.02,0-.04,0-.02,0-.03,0-.04,0-.01,0-.02-.02-.03-.03s-.01-.02-.02-.04c0-.02,0-.03,0-.05s0-.03,0-.05c0-.01.01-.03.02-.04,0-.01.02-.02.03-.02.01,0,.03-.01.04-.01.02,0,.03,0,.04.01.01,0,.02.01.03.02.01.01.01.02.02.04s0,.03,0,.05,0,.03,0,.05Z"/>
          <path class="cls-2" d="M9.46,10.81s-.02-.03-.02-.04c0-.01-.02-.02-.03-.02h0s.04-.02.05-.03c.01-.02.02-.04.02-.06,0-.02,0-.04-.02-.06,0,0-.01-.01-.02-.02,0,0-.02,0-.02-.01,0,0-.02,0-.03,0h-.18s.02.34.02.34h.06s0-.14,0-.14h.06s.01,0,.02,0c0,0,.01,0,.02.01s.01.01.02.01c0,0,0,.01,0,.02l.03.08h.07s-.04-.09-.04-.09ZM9.39,10.71s-.01,0-.02.01-.02,0-.03,0h-.08s0-.1,0-.1h.09s.03,0,.04,0,.02.02.02.04c0,.01,0,.02,0,.02,0,0,0,.01-.01.02Z"/>
          <path class="cls-2" d="M9.88,10.59s-.07-.04-.13-.04h-.11v.34h.11c.12,0,.18-.06.18-.17,0-.05-.02-.1-.04-.13ZM9.83,10.8s-.02.02-.03.02c-.01,0-.03,0-.05,0h-.05v-.23h.05s.04,0,.05,0c.01,0,.02.01.03.02.02.02.02.05.02.08,0,.04,0,.06-.02.08Z"/>
          <path class="cls-2" d="M10.15,10.83v-.09h.17s0-.05,0-.05h-.17s0-.08,0-.08h.18s0-.05,0-.05h-.25s0,.33,0,.33h.25s0-.05,0-.05h-.19Z"/>
          <path class="cls-2" d="M10.77,10.58l-.09.26-.07-.26h-.09s-.02.33-.02.33h.06s0-.14,0-.14v-.13s.08.27.08.27h.06s.09-.26.09-.26v.13s-.01.14-.01.14h.06s.02-.33.02-.33h-.09Z"/>
          <path class="cls-2" d="M11.5,10.76v-.05s-.22-.03-.22-.03l-.04.3.23.03v-.05s-.17-.03-.17-.03v-.08s.17.02.17.02v-.05s-.15-.02-.15-.02v-.07s.18.02.18.02Z"/>
          <path class="cls-2" d="M12.2,10.9s0-.02-.01-.03c0,0-.01-.01-.02-.02,0,0-.02-.01-.03-.02-.01,0-.02,0-.04-.01l-.12-.04-.1.32.06.02.04-.12.06.02s.04,0,.05,0c.02,0,.03,0,.05,0s.02-.01.03-.02c0-.01.02-.03.02-.04,0-.01,0-.02,0-.03,0,0,0-.02,0-.03ZM12.13,10.94s0,.02-.01.02,0,.01-.01.01c0,0-.01,0-.02,0s-.02,0-.03,0c0,0,0,0-.01,0,0,0,0,0-.01,0h-.04s.03-.11.03-.11h.04s.02.02.03.02c.01,0,.02,0,.02.01h.01s0,.02,0,.02c0,0,0,.01,0,.01,0,0,0,.01,0,.02Z"/>
          <path class="cls-2" d="M12.64,11.02s0-.02-.01-.02c0,0-.01-.01-.02-.02,0,0-.02-.01-.02-.01-.01,0-.02-.01-.03-.01l-.14-.05-.11.32.06.02.04-.13.06.02s.01,0,.02.01c0,0,.01.01.01.01,0,0,0,.01,0,.02,0,0,0,.01,0,.02v.09s.07.02.07.02v-.09s0-.03-.01-.05c0-.01-.01-.02-.02-.03h0s.04,0,.06-.01c.02-.01.03-.03.04-.05,0-.02,0-.04,0-.06ZM12.57,11.06s0,.02-.01.02c0,0-.01,0-.02.01,0,0-.01,0-.02,0s-.02,0-.03,0l-.07-.03.03-.09.08.03s.03.01.04.02c0,.01,0,.02,0,.04Z"/>
          <path class="cls-2" d="M13.06,11.17s-.02-.03-.03-.05c-.02-.02-.04-.03-.06-.03-.02,0-.04-.01-.07-.01s-.04,0-.06.02-.03.02-.05.04-.03.04-.03.06c0,.02-.01.05-.01.07,0,.02,0,.04.01.06,0,.02.02.03.04.05s.03.03.06.03c.02,0,.05.01.07.01.02,0,.04,0,.06-.02.02-.01.03-.02.05-.04.01-.02.02-.04.03-.06,0-.02.01-.05.01-.07,0-.02,0-.04-.01-.06ZM13,11.28s-.01.03-.02.04c-.01.01-.02.02-.03.03,0,0-.02.01-.04.01-.01,0-.03,0-.04,0-.01,0-.03-.01-.03-.02-.01-.01-.02-.02-.02-.03,0-.01,0-.03,0-.04,0-.02,0-.03.01-.05s.01-.03.02-.04c0-.01.02-.02.03-.03.01,0,.02-.01.04-.01.01,0,.03,0,.04,0,.01,0,.03.01.03.02.01.01.02.02.02.03,0,.01,0,.02,0,.04,0,.02,0,.03,0,.05Z"/>
          <path class="cls-2" d="M13.49,11.42s0-.03,0-.05c0-.02,0-.03-.01-.04,0-.01-.02-.03-.03-.04-.01-.01-.03-.02-.05-.03-.02-.01-.04-.02-.07-.02s-.04,0-.06.01c-.02,0-.03.02-.05.04-.01.02-.03.04-.04.06-.01.02-.02.05-.02.07,0,.02,0,.04,0,.06,0,.02.02.04.03.05.02.02.03.03.06.04.02,0,.04.01.06.01.02,0,.03,0,.05,0v.03s.03.02.03.02l.07-.16-.13-.06-.02.05.07.03-.02.04s-.03.01-.04.01c-.02,0-.03,0-.05-.01-.01,0-.03-.01-.03-.02-.01-.01-.01-.02-.02-.03,0-.01,0-.02,0-.04s0-.03.01-.05c0-.02.02-.03.03-.04.01-.01.02-.02.03-.03.01,0,.02-.01.04-.01.01,0,.02,0,.04,0,.01,0,.02.01.03.02s.01.01.02.02c0,0,0,.01,0,.02,0,0,0,.02,0,.02l.06.03Z"/>
          <path class="cls-2" d="M13.88,11.52s0-.01-.01-.02c0,0-.01-.01-.02-.02,0,0-.02-.01-.03-.02l-.13-.07-.16.29.06.03.06-.12.05.03s.01,0,.02.01c0,0,0,.01.01.02,0,0,0,.01,0,.02,0,0,0,.01,0,.02v.09s.05.03.05.03v-.09s.02-.03.01-.05c0-.01-.01-.03-.02-.04.02,0,.04,0,.06,0,.02,0,.03-.02.04-.04.01-.02.02-.04.01-.06,0-.01,0-.02,0-.03ZM13.82,11.58s-.01.01-.01.02c0,0-.01,0-.02,0,0,0-.01,0-.02,0s-.02,0-.03-.01l-.07-.04.05-.09.07.04s.03.02.03.03c0,.01,0,.02,0,.04Z"/>
          <path class="cls-2" d="M14.28,11.77l.03-.05-.22-.12-.17.29.22.13.03-.05-.17-.09.04-.08.15.08.03-.05-.15-.08.04-.07.16.09Z"/>
          <path class="cls-2" d="M14.66,11.97s-.01-.03-.02-.04c-.01-.01-.02-.02-.04-.04-.02-.01-.03-.02-.05-.02s-.03,0-.04,0c-.01,0-.03,0-.04,0-.01,0-.02.01-.03.02,0,0,0,0,0,.01s0,0,0,.01c0,.01-.01.02-.01.04,0,.01,0,.02.01.03,0,.01.01.02.02.03.01.01.02.03.04.04,0,.01.01.02.02.03,0,0,0,.02.01.02,0,0,0,.01,0,.02s0,.01,0,.02c0,0-.01.01-.02.01,0,0-.01,0-.02,0,0,0-.01,0-.02,0,0,0-.02,0-.03-.01s-.02-.01-.02-.02-.01-.01-.01-.02c0,0,0-.02,0-.03,0-.01,0-.02,0-.03l-.05-.03s-.02.06-.02.09c.01.03.03.06.07.08.02.01.03.02.05.02s.03,0,.05,0c.02,0,.03,0,.04-.01.01,0,.02-.02.03-.03,0,0,.01-.02.01-.03,0-.01,0-.02,0-.03,0,0,0-.02,0-.03,0-.01-.01-.02-.02-.03,0-.01-.01-.02-.02-.03s-.02-.02-.02-.03c0-.01-.02-.02-.02-.02,0,0,0-.01-.01-.02,0,0,0-.01,0-.02,0,0,0-.01,0-.02,0,0,0,0,.01-.01,0,0,.01,0,.02,0,0,0,.01,0,.02,0,0,0,.02,0,.02.01.04.02.05.05.03.08l.05.03s.01-.03.01-.04,0-.03,0-.04Z"/>
          <path class="cls-2" d="M15.04,12.22s-.01-.03-.02-.04c-.01-.01-.02-.02-.04-.04-.02-.01-.03-.02-.05-.02-.01,0-.03,0-.04,0s-.03,0-.04,0c-.01,0-.02.01-.03.02,0,0,0,0,0,.01,0,0,0,0,0,.01,0,.01,0,.02,0,.03,0,.01,0,.02,0,.03,0,.01.01.02.02.04s.02.02.03.04c0,.01.02.02.02.03s.01.01.01.02c0,0,0,.01,0,.02,0,0,0,.01,0,.02,0,0,0,.01-.01.01,0,0-.01,0-.02,0,0,0-.01,0-.02,0-.01,0-.02,0-.03-.01s-.02-.01-.02-.02c0,0,0-.02-.01-.02,0,0,0-.02,0-.03,0-.01,0-.02,0-.03l-.05-.03s-.02.06-.01.09c0,.03.03.06.07.08.01.01.03.02.05.02.02,0,.03,0,.05,0,.01,0,.03,0,.04-.01.01,0,.02-.02.03-.03,0-.01.01-.02.01-.03,0-.01,0-.02,0-.03,0,0,0-.02,0-.03,0,0-.01-.02-.02-.03,0,0-.01-.02-.02-.02,0-.01-.01-.02-.02-.03,0-.01-.02-.02-.02-.03s-.01-.01-.01-.02c0,0,0-.01,0-.02,0,0,0-.01,0-.01,0,0,0-.01.01-.01,0,0,.01,0,.02,0,0,0,.01,0,.02,0,0,0,.02,0,.02.01.04.03.05.05.03.08l.05.03s.01-.03.01-.04c0-.01,0-.03,0-.04Z"/>
          <path class="cls-2" d="M15.39,12.51s-.01-.04-.02-.06c-.01-.02-.03-.03-.05-.04-.02-.01-.04-.02-.06-.02-.02,0-.04,0-.06,0s-.04.02-.06.03c-.02.02-.03.03-.05.06-.01.02-.02.04-.03.06,0,.02,0,.04,0,.06,0,.02.01.04.03.06.01.02.03.03.05.05.02.01.04.02.06.02.02,0,.04,0,.06,0s.04-.01.06-.03c.02-.01.03-.03.05-.05.01-.02.02-.05.03-.07,0-.02,0-.04,0-.06ZM15.33,12.56s-.01.03-.02.04c0,.02-.02.03-.03.04-.01.01-.02.02-.03.02-.01,0-.03,0-.04,0-.01,0-.03,0-.04-.01-.01,0-.02-.02-.03-.03,0-.01-.01-.02-.01-.04,0-.01,0-.03,0-.04,0-.02.01-.03.02-.04,0-.02.02-.03.03-.04.01-.01.02-.02.03-.02.01,0,.03,0,.04,0,.01,0,.02,0,.04.01.01,0,.02.02.03.03,0,.01.01.02.01.04,0,.01,0,.03,0,.04Z"/>
        </g>
      </g>
      <g>
        <polygon class="cls-5" points="13.12 10.72 13.16 10.83 13.27 10.83 13.18 10.9 13.21 11 13.12 10.93 13.04 11 13.07 10.9 12.98 10.83 13.09 10.83 13.12 10.72"/>
        <polygon class="cls-5" points="12.98 11.69 13.01 11.78 13.1 11.78 13.03 11.83 13.05 11.91 12.98 11.86 12.91 11.91 12.94 11.83 12.87 11.78 12.96 11.78 12.98 11.69"/>
        <polygon class="cls-5" points="12 12.45 12.03 12.54 12.13 12.54 12.05 12.6 12.08 12.69 12 12.63 11.92 12.69 11.95 12.6 11.87 12.54 11.97 12.54 12 12.45"/>
        <polygon class="cls-5" points="10.63 12 10.66 12.1 10.76 12.1 10.68 12.16 10.71 12.26 10.63 12.2 10.55 12.26 10.58 12.16 10.49 12.1 10.6 12.1 10.63 12"/>
        <polygon class="cls-5" points="9.37 12.71 9.4 12.82 9.52 12.82 9.42 12.88 9.46 12.99 9.37 12.92 9.28 12.99 9.31 12.88 9.22 12.82 9.33 12.82 9.37 12.71"/>
        <polygon class="cls-5" points="8.92 13.05 8.95 13.15 9.05 13.15 8.97 13.21 9 13.3 8.92 13.24 8.84 13.3 8.87 13.21 8.79 13.15 8.89 13.15 8.92 13.05"/>
        <polygon class="cls-5" points="10.55 13.77 10.59 13.88 10.7 13.88 10.61 13.94 10.64 14.04 10.55 13.98 10.46 14.04 10.5 13.94 10.41 13.88 10.52 13.88 10.55 13.77"/>
        <polygon class="cls-5" points="10.02 13.48 10.04 13.55 10.12 13.55 10.06 13.6 10.08 13.68 10.02 13.63 9.95 13.68 9.98 13.6 9.91 13.55 9.99 13.55 10.02 13.48"/>
        <polygon class="cls-5" points="10.12 13.1 10.15 13.19 10.24 13.19 10.17 13.25 10.19 13.33 10.12 13.28 10.05 13.33 10.07 13.25 10 13.19 10.09 13.19 10.12 13.1"/>
        <polygon class="cls-5" points="9.72 12.56 9.74 12.62 9.81 12.62 9.76 12.66 9.78 12.72 9.72 12.68 9.67 12.72 9.69 12.66 9.64 12.62 9.7 12.62 9.72 12.56"/>
        <polygon class="cls-5" points="9.05 11.17 9.09 11.29 9.21 11.29 9.11 11.36 9.15 11.48 9.05 11.41 8.95 11.48 8.99 11.36 8.88 11.29 9.01 11.29 9.05 11.17"/>
        <polygon class="cls-5" points="12.42 12.78 12.45 12.87 12.55 12.87 12.47 12.93 12.5 13.02 12.42 12.96 12.34 13.02 12.37 12.93 12.29 12.87 12.39 12.87 12.42 12.78"/>
        <polygon class="cls-5" points="12 13.48 12.04 13.58 12.15 13.58 12.06 13.65 12.09 13.75 12 13.69 11.91 13.75 11.95 13.65 11.86 13.58 11.97 13.58 12 13.48"/>
        <polygon class="cls-5" points="13.09 14.29 13.12 14.39 13.23 14.39 13.14 14.46 13.17 14.56 13.09 14.5 13 14.56 13.03 14.46 12.95 14.39 13.05 14.39 13.09 14.29"/>
        <polygon class="cls-5" points="14.53 13.13 14.57 13.23 14.67 13.23 14.59 13.29 14.62 13.39 14.53 13.33 14.45 13.39 14.48 13.29 14.39 13.23 14.5 13.23 14.53 13.13"/>
        <polygon class="cls-5" points="14.69 13.46 14.71 13.55 14.81 13.55 14.73 13.6 14.76 13.69 14.69 13.64 14.61 13.69 14.64 13.6 14.56 13.55 14.66 13.55 14.69 13.46"/>
        <polygon class="cls-5" points="15.04 13.19 15.07 13.27 15.15 13.27 15.08 13.31 15.11 13.4 15.04 13.34 14.97 13.4 15 13.31 14.93 13.27 15.01 13.27 15.04 13.19"/>
        <polygon class="cls-5" points="14.46 13.75 14.49 13.84 14.58 13.84 14.51 13.89 14.54 13.98 14.46 13.93 14.39 13.98 14.42 13.89 14.34 13.84 14.44 13.84 14.46 13.75"/>
        <polygon class="cls-5" points="13.82 14.21 13.85 14.31 13.95 14.31 13.87 14.36 13.9 14.46 13.82 14.4 13.73 14.46 13.76 14.36 13.68 14.31 13.79 14.31 13.82 14.21"/>
        <polygon class="cls-5" points="13.39 14 13.42 14.08 13.5 14.08 13.43 14.13 13.46 14.21 13.39 14.16 13.32 14.21 13.35 14.13 13.28 14.08 13.37 14.08 13.39 14"/>
        <polygon class="cls-5" points="13.8 13.88 13.82 13.95 13.89 13.95 13.83 14 13.86 14.07 13.8 14.03 13.74 14.07 13.76 14 13.7 13.95 13.77 13.95 13.8 13.88"/>
        <polygon class="cls-5" points="14.17 13.95 14.2 14.03 14.27 14.03 14.21 14.07 14.23 14.14 14.17 14.1 14.11 14.14 14.14 14.07 14.08 14.03 14.15 14.03 14.17 13.95"/>
        <polygon class="cls-5" points="13.81 14.61 13.83 14.68 13.9 14.68 13.84 14.73 13.87 14.8 13.81 14.75 13.75 14.8 13.77 14.73 13.71 14.68 13.78 14.68 13.81 14.61"/>
        <polygon class="cls-5" points="12.8 13.91 12.82 13.99 12.9 13.99 12.84 14.04 12.86 14.12 12.8 14.07 12.73 14.12 12.75 14.04 12.68 13.99 12.77 13.99 12.8 13.91"/>
        <polygon class="cls-5" points="12 14.78 12.02 14.82 12.06 14.82 12.02 14.84 12.04 14.88 12 14.86 11.97 14.88 11.98 14.84 11.95 14.82 11.99 14.82 12 14.78"/>
        <polygon class="cls-5" points="11.63 12.79 11.66 12.87 11.74 12.87 11.67 12.92 11.7 13 11.63 12.95 11.56 13 11.59 12.92 11.52 12.87 11.6 12.87 11.63 12.79"/>
        <polygon class="cls-5" points="11.82 13.07 11.84 13.13 11.9 13.13 11.85 13.17 11.87 13.23 11.82 13.19 11.77 13.23 11.79 13.17 11.74 13.13 11.8 13.13 11.82 13.07"/>
      </g>
    </g>
  </g>
</svg>