<?xml version="1.0" encoding="UTF-8"?>
<svg id="Layer_1" data-name="Layer 1" xmlns="http://www.w3.org/2000/svg" viewBox="0 0 24 24">
  <defs>
    <style>
      .cls-1 {
        fill: #000;
      }

      .cls-1, .cls-2, .cls-3, .cls-4, .cls-5 {
        stroke-width: 0px;
      }

      .cls-2 {
        fill: #f6df25;
      }

      .cls-3 {
        fill: none;
      }

      .cls-4 {
        fill: #ce1225;
      }

      .cls-5 {
        fill: #fff;
      }
    </style>
  </defs>
  <rect class="cls-3" width="24" height="24"/>
  <g>
    <path class="cls-1" d="M16.71,7.34c2.92,2.92,3.18,7.42.57,10.03-2.61,2.61-7.11,2.36-10.03-.57-2.92-2.92-3.18-7.42-.57-10.03,2.61-2.61,7.11-2.36,10.03.57Z"/>
    <g>
      <g>
        <path class="cls-2" d="M20.73,9.82l-8.17-1.7-.44-.09h-.05s-.16-.04-.16-.04h-.05s-.25-.06-.25-.06l-6.76-1.41c1.65-2.14,4.23-3.52,7.13-3.52,3.32,0,6.23,1.81,7.79,4.5.42.72.74,1.49.94,2.32Z"/>
        <path class="cls-2" d="M19.14,17.47c-1.64,2.14-4.23,3.53-7.14,3.53-3.33,0-6.23-1.81-7.79-4.5-.42-.72-.74-1.5-.94-2.33l3.49.73.81.17,1.13.24,1.17.24.3.06.21.04h0l.21.04,1.91.4.45.09.68.14.11.02h0l.31.06.1.02,1.05.22,3.93.82Z"/>
        <path class="cls-5" d="M21,12c0,.71-.08,1.41-.24,2.07l-3.71-.77-.9-.19-.67-.14-.55-.12-2.56-.53-.71-.15-2.73-.57-.25-.05-1.82-.38-.13-.03h-.06s-.17-.05-.17-.05h-.07s-.15-.05-.15-.05h-.06s-.19-.05-.19-.05l-2.88-.6c.19-1.04.55-2.02,1.07-2.91.2-.34.42-.67.66-.98l6.76,1.41.25.05h.05s.16.04.16.04h.05s.44.1.44.1l8.17,1.7c.17.7.27,1.43.27,2.18Z"/>
        <path class="cls-1" d="M20.76,14.07c-.2.86-.53,1.68-.97,2.43-.2.34-.42.66-.65.97l-3.93-.82-1.05-.22-.1-.02-.31-.06h0l-.11-.02-.68-.14-.45-.09-1.91-.4-.21-.04h0l-.21-.04-.3-.06-1.17-.24-1.13-.24-.81-.17-3.49-.73c-.17-.7-.26-1.42-.26-2.17,0-.54.05-1.08.14-1.59l2.88.6.19.04h.06s.15.04.15.04h.07s.17.05.17.05h.06s.13.04.13.04l1.82.38.25.05,2.73.57.71.15,2.56.53.55.12.67.14.9.19,3.71.77Z"/>
      </g>
      <g>
        <g>
          <g>
            <path class="cls-4" d="M9.46,10.17c.13,0,.39-.09.46-.13.07-.04.27-.13.39-.15.12-.02.18,0,.13.02-.05.03-.26.05-.37.11-.11.06-.42.19-.55.22-.13.03-.06.08-.03.11.05.05.13.1.2.12.09.02.21-.01.29-.04.09-.04.16-.1.23-.15.07-.05.14-.09.22-.13.06-.03.14-.07.21-.07.14,0,.17,0,.14.03-.03.03-.25.08-.38.15-.13.06-.37.22-.43.28-.06.06.12.14.15.15.12.05.26,0,.37-.06.1-.06.19-.15.29-.22.1-.07.2-.14.32-.17,0,0,.02,0,.02,0,0,0,0,.01-.01.02-.1.07-.2.15-.29.22-.08.06-.16.13-.25.19-.15.1.03.23.14.24.12.02.26-.06.36-.12.22-.15.56-.5.56-.5,0,0-.01.02-.1.18-.09.16.02.23.07.23s.13-.03.16,0c-.08.18-.09.38.09.49.02-.05.04-.09.08-.13,0,0,.05-.03.05-.03,0,0,.05.03.05.03.04.04.06.08.08.13.18-.12.18-.31.1-.49.03-.03.11,0,.16,0s.17-.07.07-.23c-.09-.16-.1-.18-.1-.18,0,0,.34.34.56.5.1.07.24.14.36.12.12-.02.29-.14.14-.24-.09-.06-.16-.13-.24-.19-.1-.07-.2-.15-.29-.22,0,0-.01-.01,0-.02,0,0,.01,0,.02,0,.12.02.22.09.32.17.09.07.18.16.29.22.11.06.25.11.37.06.04-.01.22-.09.16-.15-.06-.06-.3-.22-.43-.28-.13-.06-.35-.11-.38-.15-.02-.02,0-.03.14-.03.07,0,.15.04.21.07.07.04.15.08.22.13.08.05.15.12.24.15.08.03.2.07.29.04.07-.02.15-.06.2-.12.03-.03.09-.08-.03-.11-.13-.03-.44-.16-.55-.22s-.32-.09-.37-.11c-.06-.02.01-.05.13-.02.12.02.32.11.39.15.07.04.33.13.46.13s.31,0,.47-.23c.16-.23.08-.19-.11-.18-.18.01-.31.06-.6-.03-.29-.1-.42-.2-.58-.3-.08-.05-.16-.12-.24-.17-.36-.23-.88-.23-1.24.01-.03.02-.07.05-.1.08l-.02.02v-.58l-.11.12-.12-.12v.58s-.02-.02-.02-.02c-.03-.03-.06-.06-.1-.08-.36-.24-.88-.25-1.24-.01-.08.05-.16.12-.24.17-.16.1-.29.2-.59.3-.29.1-.42.05-.6.03-.18-.01-.27-.05-.1.18.16.23.35.23.47.23Z"/>
            <path class="cls-4" d="M12.43,11.21s-.12,0-.15.01c-.04.02-.08.04-.11.07-.01.01-.06.09-.08.07-.02-.02-.02-.22-.09-.22s-.07.2-.09.22-.07-.06-.08-.07c-.03-.03-.06-.06-.11-.07-.03-.01-.12-.04-.15-.01-.03.03.05.1.13.18.08.08.1.18.1.33s-.05.25-.11.39c-.06.15-.09.39-.03.52.06.13.1.13.14.14.04.01.07-.02.1-.11.02-.05.05-.08.08-.09.01-.01.03-.01.05,0,.02.01.05.04.07.09.03.08.06.12.1.11.04-.01.07-.01.14-.14.06-.13.03-.37-.03-.52-.06-.15-.11-.24-.11-.39s.01-.25.09-.33c.08-.08.16-.16.13-.18Z"/>
            <path class="cls-4" d="M11.49,14.22c.02.1.13.25.17.27.06.03.07-.06.08-.1.03-.07.06-.14.11-.21.02-.03.05-.07.07-.1.01-.02.03-.03.04-.05,0,0,.02-.02.03-.03,0,0,.01,0,.01,0,.01.01.03.02.03.03.01.01.03.03.04.05.03.03.05.06.07.1.04.06.08.13.11.21.01.04.02.13.08.1.04-.02.15-.17.17-.27.02-.09.04-.3-.06-.57-.11-.27-.14-.37-.14-.48s.02-.22.06-.26c.02-.02.09-.06.09-.1,0-.01-.01-.02-.02-.02-.01,0-.03,0-.05,0-.06,0-.11.03-.15.07-.02.02-.07.08-.1.04,0-.01,0-.02-.01-.04,0-.01,0-.02,0-.03,0-.02-.02-.04-.03-.06-.02-.03-.04-.08-.08-.08s-.07.04-.09.08c-.01.02-.02.04-.03.06,0,.01,0,.02,0,.03,0,.01,0,.03-.01.04-.03.04-.08-.02-.1-.04-.04-.04-.09-.07-.14-.07-.02,0-.04,0-.05,0-.01,0-.02.01-.02.02,0,.04.07.08.09.1.03.03.06.14.06.26s-.03.21-.14.48-.08.47-.06.57Z"/>
            <path class="cls-4" d="M11.36,14.38c-.06-.02-.12-.04-.16-.09,0,0-.01-.01-.02-.01-.02-.01-.02.02-.02.03.24.63.84.59.84.59,0,0,.6.04.84-.59,0-.01,0-.04-.02-.03,0,0-.01.01-.02.01-.04.05-.1.07-.15.09-.04.01-.08.02-.11.04-.03.02-.05.04-.08.07-.05.05-.12.11-.19.13-.14.04-.07-.04-.06-.07.01-.03.04-.12-.03-.21-.05-.07-.12-.15-.15-.19,0-.01-.02-.01-.03,0-.03.03-.09.12-.15.19-.07.1-.04.18-.03.21s.07.11-.06.07c-.07-.02-.14-.07-.19-.13-.03-.03-.05-.05-.08-.07-.03-.02-.07-.02-.11-.04Z"/>
            <path class="cls-4" d="M12,16.13c1.93,0,3.49-1.56,3.49-3.49,0-.83-.29-1.59-.77-2.18.23.43.36.92.36,1.44,0,1.7-1.38,3.08-3.08,3.08s-3.08-1.38-3.08-3.08c0-.52.13-1.01.36-1.44-.48.6-.77,1.36-.77,2.18,0,1.93,1.56,3.49,3.49,3.49Z"/>
            <path class="cls-4" d="M16.19,16.56c0-.05-.03-.1-.06-.14-.04-.06-.1-.09-.17-.12-.03-.01-.1-.02-.12-.05-.02-.04.04-.13.05-.17.02-.12-.03-.22-.13-.28-.09-.05-.21-.08-.31-.07-.06,0-.13.03-.19.04-.02,0-.09.04-.11.02-.02-.02.03-.08.13-.24.1-.16,0-.48-.26-.52-.11-.01-.21,0-.3.07-.05.04-.11.08-.16.12-.37.28-.73.59-1.15.8-.62.31-1.41.29-1.41.29,0,0-.79.02-1.41-.29-.42-.21-.78-.52-1.15-.8-.05-.04-.11-.08-.16-.12-.09-.07-.18-.08-.3-.07-.25.04-.36.36-.25.52.1.16.15.22.13.24-.02.02-.09-.01-.11-.02-.06-.02-.13-.04-.19-.04-.1,0-.22.02-.31.07-.1.06-.16.17-.13.28,0,.05.07.14.05.17-.02.03-.09.04-.12.05-.07.03-.13.06-.17.12-.03.04-.05.09-.06.14,0,.01,0,.13,0,.13.09-.04.18-.09.28-.12.1-.03.22-.03.32-.02.29.02.55.17.77.35.19.15.4.26.65.2.07-.02.13-.05.15-.13.02-.04,0-.19.03-.22.01-.01.01-.03.17.08.16.12.52.26.77.31.24.05.59.13,1.04.13s.8-.07,1.04-.13c.24-.05.61-.19.77-.31.16-.12.16-.09.17-.08.03.03.02.17.03.22.03.07.08.11.15.13.25.06.46-.05.65-.2.23-.18.48-.32.77-.35.1-.01.22,0,.32.02.1.03.19.08.28.12.01,0,.01-.12,0-.13Z"/>
            <path class="cls-4" d="M11.61,8.86l.22-.22.17.19.17-.19.22.22.17-.21.27.22s-.19-.37-.22-.74c-.1.09-.36.14-.61.14s-.52-.04-.62-.14c-.03.36-.22.74-.22.74l.27-.22.17.21Z"/>
            <path class="cls-4" d="M12,8.23c.33,0,.61-.08.61-.17,0-.08-.2-.15-.48-.17v.23h-.26v-.23c-.27.02-.48.09-.48.17,0,.09.27.17.61.17Z"/>
            <path class="cls-4" d="M11.92,6.86v1.21h.16v-.59l.53.26-.28-.39.4-.16-.64-.34s.07-.04.07-.06c0-.04-.06-.08-.15-.08s-.15.04-.15.08c0,.03.03.05.07.06Z"/>
          </g>
          <g>
            <path class="cls-2" d="M9.16,13.65c-.06.02-.12.05-.14.07-.04.03-.05.07-.06.1-.03.08-.01.15,0,.19,0,.02.02.1.08.17.03.04.09.1.15.09.01,0,.03,0,.03-.01.03-.03-.03-.1-.01-.19,0-.02,0-.05.03-.06.06-.06.21,0,.24.01.11.05.2.13.2.2,0,0,0,.03,0,.05,0,.01-.01.02-.07.06-.04.02-.05.03-.06.03-.01,0,0-.03,0-.09,0-.04.01-.06,0-.07-.01-.07-.11-.1-.12-.11,0,0-.1-.03-.13,0-.02.03.02.06.02.15,0,.03,0,.06-.02.09-.03.03-.07.03-.08.04-.03,0-.06,0-.13-.03-.08-.04-.13-.1-.15-.13-.07-.08-.13-.15-.14-.25,0-.02-.02-.15.07-.25.05-.05.11-.07.15-.09.04-.01.09-.03.14,0,0,0,.03.02.03.03,0,.01-.02.02-.04.02Z"/>
            <path class="cls-2" d="M10.33,14.58s-.03,0-.07.03c-.04.04-.04.07-.08.12-.03.04-.06.07-.11.11-.06.05-.1.06-.11.06,0,0-.07.01-.08-.01,0-.02.01-.04.02-.05.02-.02.03-.02.06-.05.03-.02.05-.04.05-.06,0-.02-.03-.04-.05-.05-.01,0-.04-.01-.13.02-.05.02-.07.03-.13.05-.07.02-.08.02-.09.02-.02-.02.01-.08.01-.08.02-.04.05-.05.1-.09.11-.08.13-.13.13-.15s.01-.05,0-.07c-.02-.02-.05-.01-.08,0-.04.03-.03.07-.09.14-.03.04-.05.05-.06.06-.01,0-.04.02-.07.02-.06,0-.13-.02-.15-.07,0-.01,0-.03,0-.06,0-.03-.01-.03-.02-.04-.02-.01-.06,0-.08.02-.02.03-.01.06-.01.08.01.04.04.07.05.07.03.02.05.01.09.04.02.01.04.02.05.04.01.02,0,.04.01.07,0,0,.01.02.03.04.02.01.03,0,.05.02.02.01.03.03.03.04.02.05-.03.08-.04.17,0,.02,0,.04,0,.05.01,0,.03-.04.08-.08.04-.02.07-.03.09-.03.06-.01.08,0,.15,0,.02,0,.07,0,.13-.02.03-.01.04-.02.16-.13,0,0,.05-.05.14-.15,0,0,.03-.03.02-.05,0-.01-.02-.03-.03-.03ZM9.76,14.9s-.02,0-.03,0c0,0-.03-.01-.03-.02,0-.01.02-.02.04-.02,0,0,.02.01.02.02,0,0,0,.01,0,.01ZM9.85,14.81s-.04,0-.05,0c0,0-.03,0-.03-.02,0-.01.02-.02.04-.02.02-.01.04-.02.05,0,0,.01,0,.03-.01.05Z"/>
            <path class="cls-2" d="M10.43,14.66s.07,0,.08.02c0,.02-.03.04-.07.08-.15.13-.11.18-.23.27-.01.01-.04.03-.04.05,0,.03.04.08.08.07.03,0,.05-.02.07-.05.03-.03.03-.05.05-.06.03-.01.06,0,.08.02.02.02,0,.04.02.05.01,0,.02-.02.04-.04.03-.02.06-.04.07-.03.01.01-.05.05-.06.13,0,.02-.01.06,0,.09.03.06.12.09.19.06.06-.02.1-.09.11-.14.01-.05,0-.09.03-.11.01,0,.03-.01.04,0,.04.02.02.14.02.15,0,.03-.01.07-.05.11-.04.05-.08.06-.12.07-.04.01-.15.05-.23,0-.02-.01-.06-.04-.08-.08-.02-.06.01-.12-.02-.14-.01,0-.02,0-.04,0-.11.03-.13.06-.18.06s-.1-.04-.12-.08c-.02-.05,0-.09.05-.16.08-.14.19-.21.24-.28.02-.02.03-.03.05-.05.02-.01.02-.02.03-.02Z"/>
            <path class="cls-2" d="M10.08,15.26s-.02.02-.01.03c0,.01.01.02.03.02.02,0,.03-.01.03-.03,0,0,0-.02,0-.03-.01-.01-.03-.01-.04,0Z"/>
            <path class="cls-2" d="M10.83,14.96s-.05,0-.06-.02c0-.02.01-.03.03-.04.02,0,.04,0,.05.01,0,.01,0,.02,0,.03,0,0,0,.02-.01.02Z"/>
            <path class="cls-2" d="M11.35,15.13s-.01.03,0,.04c.01.02.05.03.06.01.01,0,.01-.02.01-.02,0,0,0-.02-.01-.03-.01-.01-.04-.01-.05,0Z"/>
            <path class="cls-2" d="M12.75,15.38c-.12-.02-.09-.02-.17-.04-.09-.02-.14-.02-.18,0-.03.01-.03.03-.03.03,0,.01,0,.04,0,.05.03.02.08-.03.13-.01.02,0,.02.02.05.04s.05.02.05.03c0,.02-.07.05-.11.07-.06.02-.12.04-.19.03-.06-.01-.08-.04-.13-.03-.03,0-.04.03-.06.02-.02,0-.02-.01-.07-.03-.03-.02-.05-.03-.06-.03-.04,0-.04.02-.1.03-.01,0-.07.02-.1-.01,0,0,0-.01-.01-.02-.03-.05-.21.05-.28-.02,0,0-.03-.03-.04-.06,0-.02.01-.04,0-.05,0,0-.02-.01-.07,0s-.06,0-.09,0c-.02,0-.04,0-.06-.01-.01,0-.03-.02-.05-.07-.03-.07-.03-.09-.05-.11-.02-.02-.05-.01-.07-.01-.05,0-.08.03-.1.04-.01.01-.05.04-.06.09,0,.02-.02.06,0,.09.02.04.06.04.06.07,0,.02-.02.04-.04.05-.09.06-.19.07-.21.07-.07,0-.14.01-.22-.03-.04-.02-.07-.05-.14-.05-.02,0-.06,0-.08.01-.01.02.02.06.04.08.01.01.03.02.04.03h0s.07.03.15.04c.02,0,.04,0,.06,0,.09.01.16.01.25-.02.07-.02.13-.04.18-.1.03-.04.05-.08.11-.1.02-.01.04-.01.07-.02.05,0,.14-.02.16.02.01.02-.01.04,0,.07.01.03.06.03.09.04.03,0,.05,0,.08,0,.15,0,.18,0,.19.02,0,.01,0,.02.01.03.02.03.08.01.14,0,.01,0,.16-.03.3,0,.03,0,.07.01.12.02.02,0,.06,0,.11,0,.02,0,.09-.02.17-.08.08-.06.07-.08.12-.1.03-.01.06-.01.12-.04.03-.01.04-.02.04-.02,0-.01-.04-.02-.1-.04ZM11.11,15.35s-.03.02-.05.02c-.02,0-.03-.01-.04-.03,0,0,0-.02.02-.04.01-.02.01-.02.01-.02.02,0,.04.02.04.02,0,0,.02.03.02.05Z"/>
            <path class="cls-2" d="M13.37,15.21c-.03-.08-.04-.07-.06-.16-.02-.08-.03-.15-.08-.18,0,0-.03-.02-.05-.01-.03,0-.03.04-.03.05,0,.03.01.06.02.07.02.04.04.08.07.17.03.07,0,.05.04.18.02.07.03.1.02.14,0,0-.02.06-.07.08-.05.02-.08-.01-.19,0-.05,0-.09,0-.14.03-.03.01-.05.03-.08.02-.02,0-.03-.02-.06-.03-.02,0-.03,0-.04,0-.03.01-.03.06-.03.07,0,.02,0,.03.01.04.02.02.04,0,.08,0,.02,0,.05,0,.07.04.02.03,0,.05.02.08.02.03.07.04.1.04.03,0,.06,0,.09-.02.02-.02,0-.03.03-.07,0-.01.02-.04.05-.05.02-.02.05-.02.06-.02.06-.01.15-.07.18-.13.05-.09.02-.2-.02-.33ZM13.02,15.74s-.03,0-.04-.01c0,0-.02-.01-.02-.03,0-.02.02-.04.04-.04.02,0,.04.01.04.03s0,.04-.02.05Z"/>
            <path class="cls-2" d="M13.56,14.66s.01.05.04.05c.02,0,.04-.01.05-.03,0-.02,0-.04,0-.04,0,0,0,0-.02,0-.03,0-.05,0-.05.02Z"/>
            <path class="cls-2" d="M14.76,14.15s-.02-.04-.04-.04c-.02,0-.02.07-.02.08,0,.06.02.07,0,.1,0,.01-.01.02-.06.05-.07.03-.11.02-.16.04-.07.03-.12.08-.13.09-.05.06-.04.1-.11.16-.04.04-.05.04-.06.04-.04,0-.04-.05-.09-.07-.04-.01-.08-.01-.11,0-.05.03-.07.09-.07.1,0,.02,0,.03-.02.03-.01,0,0-.05-.04-.06-.02,0-.04,0-.06.02-.03.03-.02.08-.02.09,0,.04.03.04.04.07.03.06.01.15-.04.19-.03.02-.07.02-.1.02-.03,0-.08,0-.1-.04-.02-.03,0-.07-.01-.08-.01,0-.02.03-.05.04-.02,0-.04,0-.05-.01-.01-.01-.01-.02-.01-.06,0-.05,0-.07-.02-.08-.02-.01-.06,0-.08.03,0,0-.02.02-.02.05-.01.05.03.07.07.14.01.02.02.08.04.21.01.08.02.13.03.13s.01-.03.03-.11c.01-.04.02-.06.02-.07.04-.04.12.01.22-.02.08-.03.13-.09.15-.11.02-.03.06-.09.05-.15,0-.04-.03-.07,0-.09,0,0,.02-.01.04-.01.05-.01.09,0,.14.02.04.01.04.02.05.03.02.03,0,.06-.02.09-.09.19-.08.18-.09.19-.05.07-.08.09-.11.16,0,.01-.02.06,0,.07.02.01.08-.05.11-.08.09-.1.14-.14.16-.21.04-.13-.04-.23.03-.31.02-.02.04-.03.05-.04.07-.04.12.01.19-.02.05-.02.08-.08.08-.09.02-.06-.01-.08,0-.13.03-.07.13-.05.19-.14.02-.03.03-.06.03-.09,0-.03.02-.1,0-.15ZM14.1,14.75s-.04,0-.05,0c-.02-.01-.04-.03-.04-.05,0,0,.01-.01.03-.02.01,0,.02-.01.03,0,.02,0,.03.02.03.03,0,.01.01.04,0,.05ZM14.45,14.61s-.02.03-.04.03c0,0-.02-.01-.02-.02,0-.01,0-.03,0-.04,0,0,.02-.03.04-.03,0,0,.02,0,.03.01.01.01,0,.04-.01.05Z"/>
            <path class="cls-2" d="M14.49,13.89s.03-.02.04-.04c0-.02,0-.04-.03-.05-.02,0-.03,0-.05.01-.02.01-.04.02-.05.04,0,0-.02.03-.01.06,0,.02.01.04.03.06.03.04.04.03.05.05.01.03-.02.06,0,.07,0,0,.02,0,.03,0,.03-.01.02-.04.05-.08.02-.03.03-.04.05-.07.01-.03,0-.03,0-.03,0,0-.03.01-.06.02-.01,0-.04,0-.05,0s0-.04,0-.04Z"/>
            <path class="cls-2" d="M14.57,13.78c.03.06.13.11.21.18.08.08.07.16.14.17.04,0,.07-.01.08-.02.05-.03.04-.07.08-.13.05-.07.1-.06.14-.12.05-.07.03-.16.03-.17-.02-.09-.06-.07-.23-.27-.01-.02-.07-.08-.15-.11-.03-.01-.05-.01-.06,0-.02.02-.01.09.02.13.03.04.06.03.13.05.01,0,.1.04.16.13.02.02.07.1.05.18,0,0-.01.04-.03.04-.02,0-.03-.01-.09-.07-.25-.24-.06-.06-.1-.09-.04-.04-.05-.05-.06-.05-.02,0-.03.06-.02.1,0,.03.04.06.09.13.03.04.04.05.05.07,0,.03-.01.06-.04.08,0,0-.02.01-.04.01-.03,0-.05-.04-.08-.08-.02-.03-.08-.12-.15-.18-.02-.02-.02-.01-.07-.05-.03-.03-.04-.04-.05-.03-.02,0-.02.06,0,.09,0,.01,0,.02,0,.03Z"/>
            <path class="cls-2" d="M14.88,13.12s-.02.05,0,.09c.01.02.03.03.04.04.04.03.06.04.12.07.12.06.15.19.17.18.01,0,0-.04,0-.05-.02-.1-.11-.12-.26-.27-.03-.03-.06-.06-.07-.05Z"/>
          </g>
          <g>
            <path class="cls-2" d="M9.64,15.77s-.06-.05-.07-.06c-.06-.02-.13.01-.14.02-.04.02-.03.04-.07.06-.07.04-.15,0-.16,0-.04-.02-.07-.04-.09-.06-.07-.07-.05-.12-.11-.16-.03-.02-.08-.03-.1-.01,0,.01,0,.03,0,.04,0,.03.04.04.08.07.03.03.02.03.05.07.02.02.06.06.12.08.03.02.07.02.11.03.07.01.09,0,.11.03.02.02.03.04.04.07.02.04.01.05.02.06.03.01.08-.03.1-.05.06-.05.14-.12.11-.18ZM9.51,15.85s-.03,0-.03,0c-.01-.01,0-.05.02-.05.02,0,.04.02.04.04,0,.01-.02.02-.02.02Z"/>
            <path class="cls-2" d="M9.93,15.8s-.02.04-.03.07c0,.03-.02.1-.05.16-.03.06-.08.08-.07.12,0,.01.01.02.02.02.03,0,.08-.07.11-.13.05-.09.03-.1.07-.15.02-.02.03-.04.03-.07,0-.02-.01-.04-.03-.05-.03-.01-.06.01-.06.01Z"/>
            <path class="cls-2" d="M9.55,16.12c.1.06.14.14.22.17.02.01.08.04.14.02.05-.02.1-.06.12-.11.02-.06-.01-.08.01-.15.02-.05.05-.08.06-.09,0,0,.07-.05.1-.03.02.01.02.05.02.05,0,.04-.04.05-.07.1-.04.06,0,.09-.05.16-.03.05-.06.06-.06.1,0,.03.02.06.03.07.08.12.29.13.3.13.12,0,.19-.03.23.02.01.02.02.04.05.06.02.01.03.02.07.02.11.02.13,0,.15.02.02.03,0,.07.03.09.02.01.04.01.06,0,.06,0,.08-.05.12-.05.02,0,.04.02.07.04.05.04.05.07.08.07.03,0,.06-.03.07-.04.05-.06.05-.13.06-.16,0-.09-.03-.12,0-.16.01-.02.02-.01.09-.07.01-.01.02-.02.03-.01.02,0,.02.08.02.1,0,.12-.02.38-.18.46,0,0-.11.05-.19,0-.06-.03-.05-.08-.11-.1-.07-.02-.12.05-.17.01-.02-.01-.04-.04-.06-.07,0-.02,0-.03-.02-.03-.02-.02-.05.01-.1.01,0,0-.07,0-.09-.04-.02-.03,0-.07-.03-.09s-.06,0-.07,0c-.11.03-.3,0-.41-.08-.07-.06-.07-.11-.16-.15-.04-.02-.05,0-.11-.02-.04-.01-.12-.04-.2-.12-.01-.01-.05-.05-.07-.12,0-.01-.01-.04,0-.05s.03,0,.05.01Z"/>
            <path class="cls-2" d="M11.31,17.03c.1,0,.18,0,.21,0,.06,0,.13,0,.21-.01.02,0,.06-.01.09-.04.01,0,.04-.03.05-.06.02-.04,0-.05.01-.11,0-.03.01-.07.05-.09.01,0,.04-.02.05,0,.01.01.01.04,0,.09-.02.11-.04.16-.06.19-.04.06-.1.08-.13.09-.07.03-.08,0-.24.02-.12,0-.16.02-.22-.01-.03-.02-.08-.05-.07-.06,0-.01.03-.01.05-.01Z"/>
            <path class="cls-2" d="M11.65,16.48c-.03.07,0,.11,0,.23,0,.06,0,.12,0,.2,0,.03-.02.06-.01.06,0,0,.03-.04.05-.08.03-.06.04-.11.05-.18.02-.08.01-.09.02-.17,0-.02,0-.05.01-.08,0-.03,0-.04,0-.05-.02-.02-.06,0-.09.02-.02.02-.03.04-.03.05Z"/>
            <path class="cls-2" d="M12.07,16.47c-.02.06.02.08.03.17s-.01.11,0,.26c0,.04,0,.11.02.11.02,0,.04-.08.05-.14,0-.03,0-.05.01-.15,0-.04,0-.13,0-.26,0-.06,0-.08-.02-.09-.02,0-.08.04-.09.1Z"/>
            <path class="cls-2" d="M12.38,16.67c.02.05.07.04.11.09.04.05.04.13.02.15-.02.01-.03,0-.08,0-.04,0-.07.02-.1.04-.04.03-.08.05-.08.08,0,.01.02.03.03.03.04.01.07-.03.15-.07.08-.03.1,0,.14-.04.06-.05.05-.15.05-.18,0-.01,0-.07-.04-.14-.02-.04-.05-.1-.11-.11-.03,0-.06.01-.08.04-.02.03-.02.06-.01.09Z"/>
            <path class="cls-2" d="M13.15,16.56s-.07.05-.09.09c-.01.02-.04.09-.01.14.03.05.1.06.18.06.03,0,.12,0,.23-.03.05-.02.16-.05.24-.15.05-.05.07-.09.1-.14.04-.08.04-.1.03-.11,0-.02-.02-.02-.08-.06-.02-.01-.03-.02-.04-.03-.03-.04,0-.08,0-.16,0-.02,0-.08-.03-.08-.02,0-.04.02-.05.04-.02.04,0,.06,0,.14,0,.05,0,.07-.02.1-.02.03-.05.03-.07.07-.01.02-.02.05-.01.06.02.01.07-.07.13-.06.03,0,.06.02.07.05,0,.03,0,.06-.02.07-.02.04-.06.06-.08.07-.2.1-.2.13-.29.14-.05,0-.11,0-.15-.03-.05-.06-.01-.16-.04-.18Z"/>
            <path class="cls-2" d="M13.46,16.13s-.04.02-.04.04c0,.02.05.04.07.02.01-.01,0-.03,0-.04,0,0-.01-.03-.03-.03Z"/>
            <path class="cls-2" d="M13.56,16.86s-.05.02-.05.03c0,.01.02.02.04.02.03,0,.05-.03.05-.04,0-.01-.03-.01-.04-.01Z"/>
            <path class="cls-2" d="M13.36,16.92s0,.05.03.06c.02,0,.03-.01.04-.03,0-.01,0-.03-.01-.04-.02-.01-.05,0-.06.01Z"/>
            <path class="cls-2" d="M14.42,15.73s-.03-.07-.08-.09-.11,0-.14.03c-.01.01-.02.02-.03.16,0,.08,0,.12.01.13.01,0,.03,0,.05,0,.04,0,.05-.02.07-.01.03.01.03.05.03.06,0,.04-.01.08-.05.14s-.08.11-.14.16c-.03.02-.06.06-.11.11,0,0-.01.02-.02.03-.04.04-.05.06-.04.07,0,.01.06,0,.1-.03.02-.01.04-.02.07-.04.02-.02.05-.04.08-.08.06-.07.09-.1.12-.14.05-.08.06-.15.08-.27.02-.14,0-.18,0-.21ZM14.35,15.84s-.04.05-.06.05c-.02,0-.02-.05-.02-.06,0-.05.03-.1.05-.1s.05.07.03.11Z"/>
            <path class="cls-2" d="M14.69,15.64c-.06.03-.08.05-.1.07-.03.03-.03.06-.04.11-.01.06,0,.08-.01.16-.01.07-.01.11-.03.14-.01.03-.04.08-.07.12-.02.03-.03.04-.03.05,0,.01.06,0,.11-.03.05-.03.06-.08.09-.15.02-.06.04-.12.04-.2,0-.06,0-.1.02-.15.01-.02.02-.03.04-.04.08-.06.11-.05.17-.11.02-.02.05-.05.04-.09,0,0,0-.03-.02-.03-.02,0-.05.06-.14.11-.02.01-.02,0-.07.04Z"/>
            <path class="cls-2" d="M14.82,15.8s-.03.04-.02.06c.01.02.05.01.07-.01,0-.01.01-.03,0-.04-.01-.02-.04-.02-.06,0Z"/>
          </g>
        </g>
        <g>
          <g>
            <g>
              <path class="cls-4" d="M6,10.76s.1,1.03.34,1.27c.23.24.55.49.59.66.03.15.04,1.18.04,1.43,0,.04.02.07.05.09.07.04.22.11.41.11s.31-.05.38-.09c.04-.02.06-.05.06-.09l-.02-1.92s.02-.16-.33-.39c-.19-.15-.36-.38-.44-.46-.05-.05-.11-.13-.19-.11-.11.03,0,.2.04.26.05.09.12.18.15.27.02.08.06.16.07.24,0,.02,0,.05,0,.07,0,.01,0,.03-.02.05,0,0-.02,0-.02,0-.01-.01-.02-.02-.04-.04-.03-.03-.06-.05-.09-.08,0,0,0,0,0,0-.14-.1-.32-.17-.44-.29-.03-.03-.04-.07-.05-.12-.05-.17-.09-.37-.24-.49-.01-.01,0-.1,0-.12,0-.14-.04-.27-.12-.38,0-.01-.02-.02-.03-.03-.11-.06-.08.13-.08.17Z"/>
              <path class="cls-4" d="M6.23,10.72s.01.04.02.06c.01.05.02.11.03.16,0,.03,0,.06,0,.09,0,.03,0,.06.02.08.07.1.14.2.18.32.04.14.03.19.06.24.03.05.14.12.19.14.05.02.31.2.33.22.01,0,0-.02,0-.02,0-.02,0-.04-.01-.05-.02-.07-.07-.13-.12-.18-.05-.05-.11-.09-.18-.11,0,0-.01,0-.01,0-.01,0-.02-.04-.02-.06,0-.02,0-.03-.01-.05-.01-.04-.03-.09-.05-.13-.04-.09-.09-.19-.17-.26-.01-.01-.02-.02-.03-.03,0,0-.01,0-.02-.01,0-.01,0-.03,0-.05v-.05s0-.07,0-.11c0-.09-.03-.17-.07-.24-.02-.04-.11-.13-.13-.04,0,.02,0,.05,0,.07Z"/>
              <path class="cls-4" d="M6.46,10.72s.01.09.01.11c0,.05.02.11.02.16,0,.03,0,.1.02.13.05.05.09.12.13.18.03.05.06.11.09.17.01.03.02.06.03.09,0,.03.01.06.05.07.05.03.11.06.15.1-.02-.02-.03-.07-.04-.09-.02-.04-.04-.08-.06-.13-.03-.06-.06-.13-.1-.19-.01-.03-.03-.06-.04-.08-.01-.01-.04-.05-.04-.07,0-.17,0-.35-.1-.45-.02-.02-.04-.04-.06-.04-.03,0-.04.02-.05.04Z"/>
              <path class="cls-4" d="M6.67,10.77s0,.02,0,.03c.02.06.04.13.05.19,0,.03,0,.07,0,.1,0,.02,0,.03,0,.05,0,.02,0,.03,0,.04.01.02.02.04.03.05.01.02.02,0,.03-.02,0,0,.02-.01.03-.02,0,0,.03,0,.03,0,0,0,0,0,0,0,0-.05,0-.11-.01-.16,0-.08-.02-.17-.05-.24-.02-.04-.05-.07-.09-.06-.03,0-.04.04-.03.06Z"/>
            </g>
            <g>
              <path class="cls-4" d="M7.33,14.4s-.08-.01-.13-.04c-.07-.03-.08-.05-.15-.08-.04-.02-.1-.05-.14-.01-.04.04-.02.12.02.15.1.08.23.13.33.15.11.03.22.03.33,0,.1-.02.23-.07.33-.15.04-.03.06-.11.02-.15-.04-.04-.1-.01-.14.01-.06.04-.07.05-.15.08-.06.03-.11.03-.13.04-.04,0-.11.01-.19,0Z"/>
              <path class="cls-4" d="M7.31,14.64s-.09-.01-.15-.04c-.09-.03-.1-.05-.17-.09-.05-.02-.11-.05-.16-.01-.05.04-.03.12.02.15.12.08.26.13.38.15.13.02.26.02.39,0,.12-.02.26-.07.38-.15.05-.03.07-.11.02-.15-.05-.03-.11-.01-.16.01-.07.04-.08.05-.17.09-.07.03-.12.03-.15.04-.05,0-.13.01-.22,0Z"/>
              <path class="cls-4" d="M7.29,14.89s-.1-.01-.17-.04c-.1-.03-.11-.05-.19-.09-.05-.02-.13-.05-.18-.01-.06.04-.03.12.02.15.13.08.3.13.43.15.14.03.29.03.44,0,.13-.02.3-.07.43-.15.05-.03.08-.11.02-.15-.05-.03-.13-.01-.18.01-.08.04-.1.05-.19.09-.07.03-.14.03-.17.04-.06,0-.14.01-.25,0Z"/>
            </g>
          </g>
          <g>
            <g>
              <path class="cls-4" d="M18,10.76s-.1,1.03-.34,1.27c-.23.24-.55.49-.59.66-.03.15-.04,1.18-.04,1.43,0,.04-.02.07-.05.09-.07.04-.22.11-.41.11-.18,0-.31-.05-.38-.09-.03-.02-.06-.05-.06-.09l.02-1.92s-.02-.16.33-.39c.19-.15.36-.38.44-.46.05-.05.11-.13.19-.11.11.03,0,.2-.03.26-.05.09-.12.18-.15.27-.02.08-.06.16-.07.24,0,.02,0,.05,0,.07,0,.01,0,.03.02.05,0,0,.02,0,.02,0,.01-.01.02-.02.03-.04.03-.03.06-.05.09-.08,0,0,0,0,0,0,.14-.1.32-.17.44-.29.03-.03.04-.07.05-.12.05-.17.09-.37.24-.49.01-.01,0-.1,0-.12,0-.14.03-.27.12-.38.01-.01.02-.02.03-.03.1-.06.08.13.08.17Z"/>
              <path class="cls-4" d="M17.77,10.72s-.01.04-.02.06c-.01.05-.02.11-.03.16,0,.03,0,.06,0,.09,0,.03,0,.06-.02.08-.07.1-.14.2-.18.32-.04.14-.03.19-.06.24-.03.05-.14.12-.19.14-.05.02-.31.2-.32.22-.01,0,0-.02,0-.02,0-.02,0-.04.01-.05.02-.07.07-.13.12-.18.05-.05.11-.09.18-.11,0,0,.01,0,.02,0,.01,0,.02-.04.02-.06v-.05s.04-.09.06-.13c.04-.09.09-.19.17-.26.01-.01.02-.02.03-.03,0,0,.01,0,.01-.01,0-.01,0-.03,0-.05v-.05s0-.07,0-.11c0-.09.03-.17.07-.24.02-.04.11-.13.13-.04,0,.02,0,.05,0,.07Z"/>
              <path class="cls-4" d="M17.54,10.72s-.01.09-.01.11c0,.05-.02.11-.02.16,0,.03,0,.1-.02.13-.05.05-.09.12-.13.18-.03.05-.06.11-.09.17-.01.03-.02.06-.03.09-.01.03-.01.06-.05.07-.05.03-.11.06-.15.1.02-.02.03-.07.04-.09.02-.04.04-.08.06-.13.03-.06.07-.13.1-.19.01-.03.03-.06.05-.08,0-.01.04-.05.04-.07,0-.17,0-.35.1-.45.02-.02.04-.04.06-.04.03,0,.05.02.05.04Z"/>
              <path class="cls-4" d="M17.33,10.77s0,.02,0,.03c-.03.06-.04.13-.05.19,0,.03,0,.07,0,.1,0,.02,0,.03,0,.05,0,.02,0,.03,0,.04,0,.02-.02.04-.03.05-.01.02-.02,0-.03-.02,0,0-.02-.01-.03-.02,0,0-.03,0-.03,0,0,0,0,0,0,0,0-.05,0-.11,0-.16.01-.08.02-.17.05-.24.02-.04.05-.07.09-.06.03,0,.04.04.03.06Z"/>
            </g>
            <g>
              <path class="cls-4" d="M16.67,14.4s.07-.01.13-.04c.07-.03.08-.05.15-.08.04-.02.09-.05.14-.01s.02.12-.02.15c-.1.08-.23.13-.33.15-.11.03-.22.03-.33,0-.1-.02-.23-.07-.33-.15-.04-.03-.06-.11-.02-.15s.1-.01.14.01c.06.04.07.05.15.08.06.03.11.03.13.04.04,0,.11.01.19,0Z"/>
              <path class="cls-4" d="M16.69,14.64s.09-.01.15-.04c.09-.03.1-.05.17-.09.05-.02.11-.05.16-.01.05.04.03.12-.02.15-.12.08-.26.13-.38.15-.13.02-.26.02-.39,0-.12-.02-.26-.07-.38-.15-.05-.03-.07-.11-.02-.15.05-.03.11-.01.16.01.07.04.09.05.17.09.06.03.12.03.15.04.05,0,.13.01.22,0Z"/>
              <path class="cls-4" d="M16.7,14.89s.1-.01.17-.04c.1-.03.11-.05.2-.09.05-.02.13-.05.18-.01.06.04.03.12-.02.15-.13.08-.3.13-.43.15-.14.03-.29.03-.44,0-.13-.02-.3-.07-.43-.15-.05-.03-.08-.11-.02-.15.05-.03.13-.01.18.01.08.04.1.05.2.09.07.03.14.03.17.04.05,0,.14.01.24,0Z"/>
            </g>
          </g>
        </g>
      </g>
    </g>
  </g>
</svg>