<?xml version="1.0" encoding="UTF-8"?>
<svg id="Layer_1" data-name="Layer 1" xmlns="http://www.w3.org/2000/svg" viewBox="0 0 24 24">
  <defs>
    <style>
      .cls-1 {
        fill: #000;
      }

      .cls-1, .cls-2, .cls-3, .cls-4, .cls-5 {
        stroke-width: 0px;
      }

      .cls-2 {
        fill: none;
      }

      .cls-3 {
        fill: #cd1225;
      }

      .cls-4 {
        fill: #19b43d;
      }

      .cls-5 {
        fill: #fff;
      }
    </style>
  </defs>
  <rect class="cls-2" width="24" height="24"/>
  <g>
    <path class="cls-1" d="M16.71,7.34c2.92,2.92,3.18,7.42.57,10.03-2.61,2.61-7.11,2.35-10.03-.57-2.92-2.92-3.18-7.42-.57-10.03,2.61-2.61,7.11-2.35,10.03.57Z"/>
    <g>
      <path class="cls-4" d="M21,12c0,1.25-.26,2.45-.72,3.54l-3.39-2.03c.15-.47.22-.98.22-1.5s-.08-1.03-.22-1.5l3.39-2.03c.46,1.09.72,2.28.72,3.54Z"/>
      <path class="cls-3" d="M19.01,17.64c-1.65,2.05-4.18,3.36-7.01,3.36s-5.36-1.31-7.01-3.36l3.39-2.03h0c.93.93,2.21,1.51,3.63,1.51s2.7-.58,3.63-1.51l3.38,2.03Z"/>
      <path class="cls-4" d="M6.89,12c0,.52.08,1.03.22,1.5l-3.39,2.03c-.47-1.08-.72-2.28-.72-3.53s.26-2.45.72-3.54l3.39,2.03c-.15.47-.22.98-.22,1.5Z"/>
      <path class="cls-3" d="M19.01,6.36l-3.38,2.03h0c-.93-.93-2.21-1.51-3.62-1.51s-2.7.58-3.63,1.51l-3.38-2.03c1.65-2.05,4.18-3.36,7.01-3.36s5.36,1.31,7.01,3.36Z"/>
      <path class="cls-5" d="M20.28,15.54c-.33.76-.75,1.47-1.27,2.1l-3.38-2.03c-.93.93-2.21,1.51-3.63,1.51s-2.7-.58-3.63-1.51h0l-3.39,2.03c-.51-.64-.94-1.34-1.26-2.1l3.39-2.03c-.15-.47-.22-.98-.22-1.5s.08-1.03.22-1.5l-3.39-2.03c.33-.76.75-1.47,1.27-2.1l3.38,2.03c.93-.93,2.21-1.51,3.63-1.51s2.7.58,3.62,1.51h0l3.38-2.03c.51.63.94,1.34,1.27,2.1l-3.39,2.03c.15.47.22.98.22,1.5s-.08,1.03-.22,1.5l3.39,2.03Z"/>
      <g>
        <path class="cls-5" d="M20.28,15.54c-.33.76-.75,1.47-1.27,2.1l-3.38-2.03-3.63-2.18-1.23-.74h-.02s-1.14-.69-1.14-.69l-2.5-1.5-3.39-2.03c.33-.76.75-1.47,1.27-2.1l3.38,2.03,2.57,1.54h0s0,0,0,0l1.04.62,2.38,1.43,2.51,1.5,3.39,2.03Z"/>
        <path class="cls-5" d="M20.28,8.46l-3.39,2.03-2.51,1.5-1.14.68h-.01s-1.23.75-1.23.75l-3.63,2.18h0l-3.39,2.03c-.51-.64-.94-1.34-1.26-2.1l3.39-2.03,2.5-1.5,2.39-1.43,1.04-.62h.01s0,0,0,0l2.57-1.54h0l3.38-2.03c.51.63.94,1.34,1.27,2.1Z"/>
        <path class="cls-5" d="M17.11,12c0,.52-.08,1.03-.22,1.5-.25.81-.68,1.53-1.26,2.11-.93.93-2.21,1.51-3.63,1.51s-2.7-.58-3.63-1.51h0c-.58-.58-1.01-1.3-1.26-2.11-.15-.47-.22-.98-.22-1.5s.08-1.03.22-1.5c.25-.8.69-1.52,1.26-2.1.93-.93,2.21-1.51,3.63-1.51s2.7.58,3.62,1.51h0c.58.58,1.02,1.3,1.26,2.1.15.47.22.98.22,1.5Z"/>
      </g>
      <g>
        <g>
          <g>
            <polygon class="cls-4" points="9.36 13.91 8.66 13.91 9.01 13.29 8.66 12.68 9.36 12.68 9.72 12.07 10.07 12.68 10.77 12.68 10.42 13.29 10.77 13.91 10.07 13.91 9.72 14.52 9.36 13.91"/>
            <polygon class="cls-3" points="9.72 12.35 9.99 12.82 10.54 12.82 10.26 13.29 10.54 13.77 9.99 13.77 9.72 14.24 9.44 13.77 8.89 13.77 9.17 13.29 8.89 12.82 9.44 12.82 9.72 12.35"/>
          </g>
          <g>
            <polygon class="cls-4" points="13.93 13.91 13.22 13.91 13.58 13.29 13.22 12.68 13.93 12.68 14.28 12.07 14.64 12.68 15.34 12.68 14.99 13.29 15.34 13.91 14.64 13.91 14.28 14.52 13.93 13.91"/>
            <polygon class="cls-3" points="14.28 12.35 14.56 12.82 15.11 12.82 14.83 13.29 15.11 13.77 14.56 13.77 14.28 14.24 14.01 13.77 13.46 13.77 13.74 13.29 13.46 12.82 14.01 12.82 14.28 12.35"/>
          </g>
        </g>
        <g>
          <polygon class="cls-4" points="11.65 9.94 10.94 9.94 11.29 9.33 10.94 8.72 11.65 8.72 12 8.11 12.35 8.72 13.06 8.72 12.71 9.33 13.06 9.94 12.35 9.94 12 10.55 11.65 9.94"/>
          <polygon class="cls-3" points="12 8.38 12.27 8.86 12.82 8.86 12.55 9.33 12.82 9.81 12.27 9.81 12 10.28 11.73 9.81 11.18 9.81 11.45 9.33 11.18 8.86 11.73 8.86 12 8.38"/>
        </g>
      </g>
    </g>
  </g>
</svg>