<?xml version="1.0" encoding="UTF-8"?>
<svg id="Layer_1" data-name="Layer 1" xmlns="http://www.w3.org/2000/svg" viewBox="0 0 24 24">
  <defs>
    <style>
      .cls-1 {
        fill: #0a2f9f;
      }

      .cls-1, .cls-2, .cls-3, .cls-4, .cls-5, .cls-6 {
        stroke-width: 0px;
      }

      .cls-2 {
        fill: #000;
      }

      .cls-3 {
        fill: #df0324;
      }

      .cls-4 {
        fill: none;
      }

      .cls-5 {
        fill: #231f20;
      }

      .cls-6 {
        fill: #fff;
      }
    </style>
  </defs>
  <rect class="cls-4" width="24" height="24"/>
  <g>
    <path class="cls-2" d="M16.71,7.34c2.92,2.92,3.18,7.42.57,10.03-2.61,2.61-7.11,2.36-10.03-.57-2.92-2.92-3.18-7.42-.57-10.03,2.61-2.61,7.11-2.36,10.03.57Z"/>
    <g>
      <g>
        <path class="cls-1" d="M19.79,7.5H4.21c1.56-2.69,4.47-4.5,7.79-4.5s6.23,1.81,7.79,4.5Z"/>
        <path class="cls-1" d="M19.79,16.5c-1.56,2.69-4.47,4.5-7.79,4.5s-6.23-1.81-7.79-4.5h15.59Z"/>
        <path class="cls-3" d="M21,12c0,1.64-.44,3.18-1.21,4.5H4.21c-.77-1.32-1.21-2.86-1.21-4.5s.44-3.18,1.21-4.5h15.59c.77,1.33,1.21,2.86,1.21,4.5Z"/>
      </g>
      <path class="cls-6" d="M17.8,15.16h-.26v-.53s-.01-.03-.03-.03h-.25v-.46s-.01-.03-.03-.03h-.25v-.34s-.01-.03-.03-.03h-.16v-.26s-.01-.03-.03-.03h-.22c-.06-.01-.13-.09-.17-.15v-1l.18-.2s0-.01,0-.02v-.87s0-.02-.01-.02c0,0-.02,0-.02,0,0,0-.07.03-.14.09v-.25s0-.01,0-.02c0,0-.03-.04-.07-.04-.03,0-.05.01-.08.04,0,0,0,.01,0,.02v.06h-.16v-.37s-.01-.03-.03-.03c-.01,0-.03.01-.03.02h0s0,0,0,.01c0,0,0,0,0,0,0,.02-.02.04-.03.05-.03.05-.07.08-.11.08,0,0,0,0,0,0,0,0,0-.01,0-.04,0-.01.01-.02.02-.04,0,0,.01-.02.01-.02.04-.07.04-.13.04-.19,0-.04,0-.09-.03-.12,0,0-.02-.01-.03,0-.01,0-.02.01-.02.02,0,.03-.03.06-.05.07,0,0-.01,0-.01,0,0,0-.01-.02.04-.12h0c.03-.06.03-.16,0-.21,0,0-.02-.01-.03-.01-.01,0-.02.01-.02.02-.01.04-.03.07-.04.08,0-.02.01-.06.01-.09.01-.05.02-.1.02-.14,0-.09-.02-.14-.03-.14,0-.01-.02-.02-.03-.01-.01,0-.02.01-.02.02,0,.03-.02.07-.03.1,0-.02,0-.06,0-.11,0-.08-.05-.27-.18-.31-.01-.07-.03-.14-.11-.14s-.09.07-.11.14c-.14.03-.18.22-.18.31,0,.04,0,.08-.01.11-.01-.03-.02-.06-.03-.1,0-.01-.01-.02-.02-.02-.01,0-.02,0-.03.01,0,0-.03.05-.03.14,0,.04.01.09.02.14,0,.03.01.06.02.09-.01-.02-.03-.04-.04-.08,0-.01-.01-.02-.02-.02-.01,0-.02,0-.03.01-.02.05-.03.15,0,.2h0c.05.1.05.12.04.12,0,0,0,0-.02,0-.02-.01-.04-.04-.04-.07,0-.01-.01-.02-.02-.02-.01,0-.02,0-.03,0-.03.03-.03.08-.03.12,0,.06,0,.12.04.19,0,0,0,.02.01.02,0,.01.01.02.02.04.01.03,0,.04,0,.04,0,0,0,0-.01,0-.04,0-.08-.02-.11-.08-.01-.02-.02-.03-.03-.05,0,0,0,0,0,0,0,0,0,0,0,0,0-.02-.01-.03-.03-.03-.01,0-.03.01-.03.03v.66h-.21s-.08-.04-.08-.04c0,0-.02,0-.02,0,0,0-.01.01-.01.02v.03h-1.08v-.63s0-.02-.02-.02c-.01,0-.02,0-.03,0l-.14.13s-.01.01-.01.02v.11h-.07s-.07-.08-.06-.14c0-.04.05-.08.12-.12.01,0,.02-.01.02-.03v-.22s-.01-.03-.03-.03c-.01,0-.09,0-.2.13-.01-.02-.03-.03-.06-.03-.02,0-.04,0-.06.04,0,0,0,.01,0,.02v.24h-.03v-.28s.02-.02.03-.02c0,0,.01-.01.02-.01,0,0,.02-.02.02-.02.03-.03.06-.06.07-.11.01-.07,0-.16-.02-.22,0-.01-.01-.02-.02-.02-.01,0-.02,0-.03.02,0,.01-.01.02-.02.03-.01.03-.02.05-.04.07-.01.02-.02.02-.03.03h0v-.08s.03-.07.05-.11h0c.04-.05.07-.1.09-.14.03-.07.03-.2-.03-.28,0-.01-.02-.02-.03-.01-.01,0-.02.01-.02.02,0,.04-.02.1-.04.15-.01.02-.02.03-.03.03s-.02,0-.03,0v-.14s.09-.13.09-.2-.02-.16-.05-.19c0,0-.02-.01-.03,0,0,0-.02.01-.02.02,0,.03-.01.05-.02.08-.01.04-.02.09-.03.09h-.04v-.12s.09-.13.09-.2c0-.08-.03-.11-.03-.12,0,0-.02-.01-.03,0,0,0-.02.01-.02.02-.02.05-.04.1-.05.12h-.05v-.06s.09-.09.09-.16c0-.03-.02-.06-.04-.09-.01-.01-.03,0-.04,0l-.06.06h-.01l.05-.2s0-.02,0-.02-.01-.01-.02-.01h-.03l.02-.12s0-.02,0-.02-.01-.01-.02-.01h-.04v-.08s.01-.01,0-.02c0,0-.01-.01-.02-.01h-.08l.02-.09s0-.02,0-.02c0,0-.01-.01-.02-.01h-.08s0-.09-.02-.14c-.02-.03-.05-.05-.1-.06,0,0,0,0-.01,0,0,0,0,0,0,0-.04,0-.08.03-.1.06-.03.04-.03.1-.02.14h-.08s-.02,0-.02.01,0,.01,0,.02l.02.09h-.09s-.02,0-.02.01c0,0,0,.01,0,.02v.08s-.02,0-.02,0c0,0-.02,0-.02.01,0,0,0,.02,0,.02l.02.12h-.03s-.02,0-.02.01,0,.02,0,.02l.05.2h-.01l-.06-.06s-.03-.01-.04,0c-.03.02-.04.05-.04.09,0,.07.07.13.09.16v.06h-.05s-.04-.06-.05-.12c0-.01,0-.02-.02-.02,0,0-.02,0-.03,0s-.03.04-.03.12c0,.07.07.17.09.2v.12h-.04s-.02-.05-.03-.09c0-.02-.01-.05-.02-.08,0-.01-.01-.02-.02-.02-.01,0-.02,0-.03,0-.03.03-.05.13-.05.19s.07.17.09.2v.14s-.02,0-.03,0c-.01,0-.01,0-.03-.03-.03-.05-.03-.11-.04-.15,0-.01-.01-.02-.02-.02-.01,0-.02,0-.03.01-.05.08-.06.22-.02.28.02.04.05.08.09.13h0s.06.08.05.12v.08s-.02-.01-.03-.03c-.02-.02-.03-.05-.04-.07,0-.01,0-.02-.01-.03,0-.01-.02-.02-.03-.02s-.02,0-.02.02c-.02.07-.03.16-.02.22.01.05.04.08.07.11,0,0,.02.02.02.02,0,0,0,0,.01.01s.02.02.03.02v.28h-.03v-.24s0-.01,0-.02c-.02-.03-.05-.04-.06-.04-.02,0-.05.01-.06.03-.11-.13-.19-.13-.19-.13-.02,0-.03.01-.03.03v.22s0,.02.02.03c.07.03.11.07.12.12.01.06-.04.12-.06.14h-.07v-.11s0-.02-.01-.02l-.14-.13s-.02-.01-.03,0c-.01,0-.02.01-.02.02v.63h-1.08v-.03s0-.02-.01-.02c0,0-.02,0-.02,0,0,0-.04.01-.08.04h-.21v-.66s-.01-.03-.03-.03c-.01,0-.03.01-.03.02h0s0,0,0,.01c0,0,0,0,0,0,0,.02-.02.04-.03.05-.03.05-.07.08-.11.08,0,0,0,0,0,0,0,0,0-.01,0-.04,0-.01.01-.02.02-.04,0,0,.01-.02.01-.02.04-.07.04-.13.04-.19,0-.04,0-.09-.03-.12,0,0-.02-.01-.03,0-.01,0-.02.01-.02.02,0,.03-.03.06-.05.07,0,0-.01,0-.01,0,0,0-.01-.02.04-.12h0c.03-.06.03-.16,0-.21,0,0-.02-.01-.03-.01-.01,0-.02.01-.02.02-.01.04-.03.07-.04.08,0-.02.01-.06.02-.09.01-.05.02-.1.02-.14,0-.09-.03-.14-.03-.14,0-.01-.02-.02-.03-.01-.01,0-.02.01-.02.02,0,.03-.02.07-.03.1,0-.02-.01-.06-.01-.11,0-.08-.05-.27-.18-.31-.01-.07-.03-.14-.11-.14s-.1.07-.11.14c-.13.03-.18.22-.18.31,0,.04,0,.08-.01.11,0-.03-.02-.06-.03-.1,0-.01-.01-.02-.02-.02-.01,0-.02,0-.03.01,0,0-.03.05-.03.14,0,.04.01.09.02.14,0,.03.01.06.02.09-.01-.02-.03-.04-.04-.08,0-.01-.01-.02-.02-.02-.01,0-.02,0-.03.01-.02.05-.03.15,0,.2h0c.05.1.05.12.04.12,0,0,0,0-.01,0-.02-.01-.04-.04-.05-.07,0-.01,0-.02-.02-.02-.01,0-.02,0-.03,0-.03.03-.03.08-.03.12,0,.06,0,.12.04.19,0,0,.01.02.01.02,0,.01.02.02.02.04.01.03,0,.04,0,.04,0,0,0,0,0,0-.04,0-.08-.02-.11-.08-.01-.02-.02-.03-.03-.05,0,0,0,0,0,0,0,0,0,0,0,0,0-.02-.01-.03-.03-.03-.02,0-.03.01-.03.03v.37h-.16v-.06s0-.01,0-.02c-.02-.03-.05-.04-.08-.04-.04,0-.07.04-.07.04s0,.01,0,.02v.25c-.06-.07-.13-.09-.14-.09-.01,0-.02,0-.03,0,0,0-.01.01-.01.02v.87s0,.01,0,.02l.18.2v1c-.04.06-.11.14-.17.15h-.22s-.03.01-.03.03v.26h-.16s-.03.01-.03.03v.34h-.25s-.03.01-.03.03v.46h-.25s-.03.01-.03.03v.53h-.26s-.03.01-.03.03v.56s.01.03.03.03h11.6s.03-.01.03-.03v-.56s-.01-.03-.03-.03Z"/>
      <path class="cls-5" d="M17.8,15.16h-.26v-.53s-.01-.03-.03-.03h-.25v-.46s-.01-.03-.03-.03h-.25v-.34s-.01-.03-.03-.03h-.16v-.26s-.01-.03-.03-.03h-.22c-.06-.01-.13-.09-.17-.15v-1l.18-.2s0-.01,0-.02v-.87s0-.02-.01-.02c0,0-.02,0-.02,0,0,0-.07.03-.14.09v-.25s0-.01,0-.02c0,0-.03-.04-.07-.04-.03,0-.05.01-.08.04,0,0,0,.01,0,.02v.06h-.16v-.37s-.01-.03-.03-.03c-.01,0-.03.01-.03.02h0s0,0,0,.01c0,0,0,0,0,0,0,.02-.02.04-.03.05-.03.05-.07.08-.11.08,0,0,0,0,0,0,0,0,0-.01,0-.04,0-.01.01-.02.02-.04,0,0,.01-.02.01-.02.04-.07.04-.13.04-.19,0-.04,0-.09-.03-.12,0,0-.02-.01-.03,0-.01,0-.02.01-.02.02,0,.03-.03.06-.05.07,0,0-.01,0-.01,0,0,0-.01-.02.04-.12h0c.03-.06.03-.16,0-.21,0,0-.02-.01-.03-.01-.01,0-.02.01-.02.02-.01.04-.03.07-.04.08,0-.02.01-.06.01-.09.01-.05.02-.1.02-.14,0-.09-.02-.14-.03-.14,0-.01-.02-.02-.03-.01-.01,0-.02.01-.02.02,0,.03-.02.07-.03.1,0-.02,0-.06,0-.11,0-.08-.05-.27-.18-.31-.01-.07-.03-.14-.11-.14s-.09.07-.11.14c-.14.03-.18.22-.18.31,0,.04,0,.08-.01.11-.01-.03-.02-.06-.03-.1,0-.01-.01-.02-.02-.02-.01,0-.02,0-.03.01,0,0-.03.05-.03.14,0,.04.01.09.02.14,0,.03.01.06.02.09-.01-.02-.03-.04-.04-.08,0-.01-.01-.02-.02-.02-.01,0-.02,0-.03.01-.02.05-.03.15,0,.2h0c.05.1.05.12.04.12,0,0,0,0-.02,0-.02-.01-.04-.04-.04-.07,0-.01-.01-.02-.02-.02-.01,0-.02,0-.03,0-.03.03-.03.08-.03.12,0,.06,0,.12.04.19,0,0,0,.02.01.02,0,.01.01.02.02.04.01.03,0,.04,0,.04,0,0,0,0-.01,0-.04,0-.08-.02-.11-.08-.01-.02-.02-.03-.03-.05,0,0,0,0,0,0,0,0,0,0,0,0,0-.02-.01-.03-.03-.03-.01,0-.03.01-.03.03v.66h-.21s-.08-.04-.08-.04c0,0-.02,0-.02,0,0,0-.01.01-.01.02v.03h-1.08v-.63s0-.02-.02-.02c-.01,0-.02,0-.03,0l-.14.13s-.01.01-.01.02v.11h-.07s-.07-.08-.06-.14c0-.04.05-.08.12-.12.01,0,.02-.01.02-.03v-.22s-.01-.03-.03-.03c-.01,0-.09,0-.2.13-.01-.02-.03-.03-.06-.03-.02,0-.04,0-.06.04,0,0,0,.01,0,.02v.24h-.03v-.28s.02-.02.03-.02c0,0,.01-.01.02-.01,0,0,.02-.02.02-.02.03-.03.06-.06.07-.11.01-.07,0-.16-.02-.22,0-.01-.01-.02-.02-.02-.01,0-.02,0-.03.02,0,.01-.01.02-.02.03-.01.03-.02.05-.04.07-.01.02-.02.02-.03.03h0v-.08s.03-.07.05-.11h0c.04-.05.07-.1.09-.14.03-.07.03-.2-.03-.28,0-.01-.02-.02-.03-.01-.01,0-.02.01-.02.02,0,.04-.02.1-.04.15-.01.02-.02.03-.03.03s-.02,0-.03,0v-.14s.09-.13.09-.2-.02-.16-.05-.19c0,0-.02-.01-.03,0,0,0-.02.01-.02.02,0,.03-.01.05-.02.08-.01.04-.02.09-.03.09h-.04v-.12s.09-.13.09-.2c0-.08-.03-.11-.03-.12,0,0-.02-.01-.03,0,0,0-.02.01-.02.02-.02.05-.04.1-.05.12h-.05v-.06s.09-.09.09-.16c0-.03-.02-.06-.04-.09-.01-.01-.03,0-.04,0l-.06.06h-.01l.05-.2s0-.02,0-.02-.01-.01-.02-.01h-.03l.02-.12s0-.02,0-.02-.01-.01-.02-.01h-.04v-.08s.01-.01,0-.02c0,0-.01-.01-.02-.01h-.08l.02-.09s0-.02,0-.02c0,0-.01-.01-.02-.01h-.08s0-.09-.02-.14c-.02-.03-.05-.05-.1-.06,0,0,0,0-.01,0,0,0,0,0,0,0-.04,0-.08.03-.1.06-.03.04-.03.1-.02.14h-.08s-.02,0-.02.01,0,.01,0,.02l.02.09h-.09s-.02,0-.02.01c0,0,0,.01,0,.02v.08s-.02,0-.02,0c0,0-.02,0-.02.01,0,0,0,.02,0,.02l.02.12h-.03s-.02,0-.02.01,0,.02,0,.02l.05.2h-.01l-.06-.06s-.03-.01-.04,0c-.03.02-.04.05-.04.09,0,.07.07.13.09.16v.06h-.05s-.04-.06-.05-.12c0-.01,0-.02-.02-.02,0,0-.02,0-.03,0s-.03.04-.03.12c0,.07.07.17.09.2v.12h-.04s-.02-.05-.03-.09c0-.02-.01-.05-.02-.08,0-.01-.01-.02-.02-.02-.01,0-.02,0-.03,0-.03.03-.05.13-.05.19s.07.17.09.2v.14s-.02,0-.03,0c-.01,0-.01,0-.03-.03-.03-.05-.03-.11-.04-.15,0-.01-.01-.02-.02-.02-.01,0-.02,0-.03.01-.05.08-.06.22-.02.28.02.04.05.08.09.13h0s.06.08.05.12v.08s-.02-.01-.03-.03c-.02-.02-.03-.05-.04-.07,0-.01,0-.02-.01-.03,0-.01-.02-.02-.03-.02s-.02,0-.02.02c-.02.07-.03.16-.02.22.01.05.04.08.07.11,0,0,.02.02.02.02,0,0,0,0,.01.01s.02.02.03.02v.28h-.03v-.24s0-.01,0-.02c-.02-.03-.05-.04-.06-.04-.02,0-.05.01-.06.03-.11-.13-.19-.13-.19-.13-.02,0-.03.01-.03.03v.22s0,.02.02.03c.07.03.11.07.12.12.01.06-.04.12-.06.14h-.07v-.11s0-.02-.01-.02l-.14-.13s-.02-.01-.03,0c-.01,0-.02.01-.02.02v.63h-1.08v-.03s0-.02-.01-.02c0,0-.02,0-.02,0,0,0-.04.01-.08.04h-.21v-.66s-.01-.03-.03-.03c-.01,0-.03.01-.03.02h0s0,0,0,.01c0,0,0,0,0,0,0,.02-.02.04-.03.05-.03.05-.07.08-.11.08,0,0,0,0,0,0,0,0,0-.01,0-.04,0-.01.01-.02.02-.04,0,0,.01-.02.01-.02.04-.07.04-.13.04-.19,0-.04,0-.09-.03-.12,0,0-.02-.01-.03,0-.01,0-.02.01-.02.02,0,.03-.03.06-.05.07,0,0-.01,0-.01,0,0,0-.01-.02.04-.12h0c.03-.06.03-.16,0-.21,0,0-.02-.01-.03-.01-.01,0-.02.01-.02.02-.01.04-.03.07-.04.08,0-.02.01-.06.02-.09.01-.05.02-.1.02-.14,0-.09-.03-.14-.03-.14,0-.01-.02-.02-.03-.01-.01,0-.02.01-.02.02,0,.03-.02.07-.03.1,0-.02-.01-.06-.01-.11,0-.08-.05-.27-.18-.31-.01-.07-.03-.14-.11-.14s-.1.07-.11.14c-.13.03-.18.22-.18.31,0,.04,0,.08-.01.11,0-.03-.02-.06-.03-.1,0-.01-.01-.02-.02-.02-.01,0-.02,0-.03.01,0,0-.03.05-.03.14,0,.04.01.09.02.14,0,.03.01.06.02.09-.01-.02-.03-.04-.04-.08,0-.01-.01-.02-.02-.02-.01,0-.02,0-.03.01-.02.05-.03.15,0,.2h0c.05.1.05.12.04.12,0,0,0,0-.01,0-.02-.01-.04-.04-.05-.07,0-.01,0-.02-.02-.02-.01,0-.02,0-.03,0-.03.03-.03.08-.03.12,0,.06,0,.12.04.19,0,0,.01.02.01.02,0,.01.02.02.02.04.01.03,0,.04,0,.04,0,0,0,0,0,0-.04,0-.08-.02-.11-.08-.01-.02-.02-.03-.03-.05,0,0,0,0,0,0,0,0,0,0,0,0,0-.02-.01-.03-.03-.03-.02,0-.03.01-.03.03v.37h-.16v-.06s0-.01,0-.02c-.02-.03-.05-.04-.08-.04-.04,0-.07.04-.07.04s0,.01,0,.02v.25c-.06-.07-.13-.09-.14-.09-.01,0-.02,0-.03,0,0,0-.01.01-.01.02v.87s0,.01,0,.02l.18.2v1c-.04.06-.11.14-.17.15h-.22s-.03.01-.03.03v.26h-.16s-.03.01-.03.03v.34h-.25s-.03.01-.03.03v.46h-.25s-.03.01-.03.03v.53h-.26s-.03.01-.03.03v.56s.01.03.03.03h11.6s.03-.01.03-.03v-.56s-.01-.03-.03-.03ZM17.49,14.66v.5h-1.73v-.5h1.73ZM11.6,12.12v-.24s.06.04.1.09c0,0,.02.01.03.01.01,0,.02-.01.02-.02.02-.08.06-.32.24-.43.18.11.23.35.24.43,0,.01.01.02.02.02.01,0,.02,0,.03-.01.04-.05.07-.08.1-.09v.24h-.79ZM12.35,12.17l-.05.07s0,.01,0,.02v.99h-.08v-1.08h.13ZM12.16,12.17v1.08h-.35v-1.08h.35ZM8.23,12.12v-.23c.05.02.14.07.18.15,0,.01.02.02.03.01.01,0,.02-.01.02-.02.01-.09.07-.26.16-.32.09.06.15.23.16.32,0,.01.01.02.02.02.01,0,.02,0,.03-.01.04-.07.13-.13.18-.15v.23h-.78ZM8.79,12.17v1.08h-.34v-1.08h.34ZM8.08,13.31c-.01.05-.05.14-.14.17h-.28c.05-.05.08-.13.08-.17h.33ZM7.89,13.25v-.69h.11v.69h-.11ZM8.14,13.31h.13c-.04.1-.1.15-.12.17h-.1c.05-.05.08-.13.09-.17ZM8.18,12.14s0,0,0,.01h0s0,0,0,0l.1.13v.96h-.13v-1.04s0-.01,0-.02l-.12-.12h.15v.07h0ZM8.33,13.31h.07v.17h-.17s.07-.09.1-.17ZM8.34,13.25v-.97s0-.01,0-.02l-.07-.09h.14v1.08h-.06ZM8.55,10.25s.05-.08.07-.1c.02.02.06.06.07.1,0,.01.01.02.02.02.01,0,.02,0,.03,0,0,0,.02-.01.04-.02v.06l-.04.05s-.07-.06-.1-.07t0,0h-.01s-.07.03-.1.07l-.04-.05v-.06s.03.02.04.02c0,0,.02,0,.03,0s.02,0,.02-.02ZM8.48,10.09v-.04s.02.01.03.01c0,0,.02.01.03,0,0,0,.02,0,.02-.02.01-.03.03-.08.07-.11.04.03.06.07.07.11,0,0,.01.01.02.02,0,0,.02,0,.03,0,0,0,.01,0,.02-.01v.04l-.07.06s-.06-.06-.06-.06c0,0,0,0,0,0,0,0,0,0,0,0t0,0h-.01s0,0,0,0t0,0s0,0,0,0-.03.03-.06.06l-.07-.06ZM8.49,10.47c.02-.05.09-.13.13-.14.04.01.11.09.13.14,0,0,.01.01.02.02.01,0,.02,0,.03-.01.01-.02.03-.04.05-.05v.09l-.07.07c-.03-.05-.07-.1-.15-.13h0s0,0,0,0,0,0,0,0,0,0,0,0h0s0,0,0,0c-.07.03-.12.08-.15.13l-.07-.07v-.09s.04.02.05.05c0,0,.01.01.02.01.01,0,.02,0,.02-.02ZM8.47,10.73h0s.01-.04.02-.06c.02-.06.06-.12.13-.15.07.03.11.09.13.15,0,.02.01.04.02.05h0s.01.02.02.02c.01,0,.02,0,.03-.01.03-.04.07-.06.1-.07v.13l-.11.12c-.04-.1-.11-.19-.18-.24,0,0,0,0,0,0s0,0,0,0h-.01s0,0,0,0,0,0,0,0c-.08.04-.14.14-.18.24l-.11-.12v-.13s.07.03.1.07c0,.01.02.02.03.01,0,0,.02,0,.02-.02ZM8.62,10.74c.12.09.19.32.22.41,0,.01.01.02.03.02.01,0,.02,0,.03-.02.04-.08.1-.12.14-.14v.23l-.09.13s-.05.04-.07.07c-.04-.16-.1-.28-.23-.37h0s0,0,0,0c0,0,0,0,0,0h-.01s0,0,0,0h0s0,0,0,0c-.14.09-.2.2-.23.37-.02-.03-.05-.05-.07-.07l-.09-.13v-.23s.1.05.14.14c0,.01.02.02.03.02s.02-.01.02-.02c.03-.1.1-.33.22-.41ZM8.36,11.55s.02.02.03.02c.01,0,.02-.01.03-.02.04-.19.08-.31.21-.4.13.09.18.21.21.4,0,.01.01.02.03.02.01,0,.02,0,.03-.02.02-.08.1-.13.15-.15v.2l-.14.17c-.05-.11-.14-.25-.26-.29h0s0,0,0,0,0,0,0,0h0c-.06.02-.11.07-.15.12-.04.05-.08.12-.1.17l-.14-.17v-.2s.12.07.14.15ZM8.89,11.89s-.04.04-.06.06c-.02-.11-.08-.25-.19-.31h0s0,0,0,0c0,0,0,0,0,0,0,0,0,0,0,0,0,0,0,0,0,0h0c-.1.06-.16.2-.19.31-.02-.02-.04-.04-.06-.06.03-.07.13-.3.26-.37.14.06.24.3.26.37ZM8.85,12.17h.14l-.07.09s0,.01,0,.02v.97h-.06v-1.08ZM8.97,12.29l.1-.13s0,0,0,0c0,0,0,0,0,0,0,0,0,0,0-.01v-.07h.15l-.12.12s0,.01,0,.02v1.04h-.13v-.96ZM9.1,13.31s.03.11.08.17h-.1s-.07-.06-.12-.17h.13ZM9.16,13.31h.33s.03.11.09.17h-.28c-.09-.02-.12-.12-.14-.17ZM9.24,13.25v-.69h.11v.69h-.11ZM11.55,12.15s0,0,0,0c0,0,0,0,0,0l.08.11v.98h-.25v-1.21s0,0,0,0h0s0,0,0,0h0s-.08-.08-.08-.08h.25v.2s0,0,0,.01ZM11.55,11.71v.08c-.06-.03-.13-.06-.19-.08h.19ZM11.19,11.65v-.33c.06.03.18.11.29.29v.04h-.29ZM11.89,9.24s.02-.03.02-.04c.02-.05.04-.09.08-.12.03.03.05.07.08.12,0,.01.01.03.02.04,0,0,.01.01.02.01,0,0,.02,0,.02,0,.02-.02.06-.03.09-.05v.08l-.12.1c-.03-.05-.06-.09-.08-.12,0,0-.02-.01-.03,0,0,0-.02,0-.02,0-.03.02-.06.07-.09.12l-.12-.1v-.08s.07.03.09.05c0,0,.02.01.02,0,0,0,.02,0,.02-.01ZM11.85,9.1v-.1s.02.01.03.02c.01.01.03.01.04,0,.02-.02.03-.04.04-.05,0-.01.01-.02.03-.03.02.01.02.02.03.03,0,.01.02.03.04.05.01.01.03.01.04,0,0,0,.02-.02.03-.02v.1l-.04.02s-.05-.07-.08-.09h0s0,0,0,0c0,0,0,0,0,0,0,0,0,0,0,0h-.01s0,0,0,0t0,0h0s-.06.06-.08.1l-.04-.02ZM11.88,9.55c.02-.09.07-.18.11-.23.04.05.09.14.11.23,0,.01.01.02.02.02.01,0,.02,0,.03-.01.02-.04.07-.06.1-.07v.17l-.09.09c-.05-.08-.1-.13-.15-.16,0,0-.01,0-.02,0,0,0-.01,0-.02,0-.05.03-.1.09-.15.16l-.09-.09v-.17s.07.03.1.07c0,.01.02.02.03.01.01,0,.02-.01.02-.02ZM11.99,9.62c.07.05.15.16.22.32,0,.01.01.02.02.02.01,0,.02,0,.03-.02.02-.03.06-.07.1-.09v.18h-.3s-.03-.03-.05-.04c0,0-.02,0-.02,0,0,0-.02,0-.02,0-.02.01-.03.03-.05.04h-.3v-.18s.08.06.1.09c0,.01.01.02.02.02.01,0,.02,0,.03-.02.07-.16.15-.27.22-.32ZM12.25,10.09s-.04.06-.06.08c-.02-.03-.04-.05-.07-.08h.12ZM11.87,10.09s-.05.06-.07.08c-.01-.03-.03-.06-.06-.08h.13ZM11.99,10.04c.13.11.16.17.21.27.01.02.02.04.04.07,0,0,.01.01.02.01s.02,0,.02-.01c.03-.05.09-.08.13-.1v.18h-.31s-.06-.05-.09-.06c0,0-.01,0-.02,0,0,0-.01,0-.01,0-.03.01-.06.03-.09.06h-.31v-.18s.09.05.12.1c0,0,.02.01.02.01.01,0,.02,0,.02-.01.01-.02.03-.05.04-.07.05-.09.08-.15.21-.27ZM12.35,10.52c-.05.05-.07.11-.09.16-.03-.05-.07-.11-.1-.16h.19ZM11.84,10.52s-.07.1-.11.16c-.01-.05-.04-.11-.09-.16h.19ZM11.99,10.45c.12.05.28.36.3.45,0,.01.01.02.02.02.01,0,.02,0,.03-.01.06-.09.12-.12.16-.13v.22h-.33c-.04-.07-.1-.13-.17-.16,0,0-.01,0-.02,0,0,0-.01,0-.02,0-.07.03-.12.08-.17.16h-.33v-.22s.1.04.15.13c0,.01.02.01.03.01s.02-.01.02-.02c.02-.09.18-.4.3-.45ZM12.46,11.05c-.09.12-.1.35-.1.4,0,.01-.02.02-.02.03-.02-.1-.06-.28-.13-.43h.25ZM11.78,11.05c-.07.15-.11.33-.13.43,0-.01-.02-.02-.02-.03,0-.05,0-.28-.1-.4h.25ZM11.64,11.57s.02.02.03.02c.01,0,.02-.01.02-.03.03-.23.13-.6.3-.67.17.08.27.44.3.67,0,.01.01.02.02.03.01,0,.03,0,.03-.02.02-.05.06-.1.1-.13v.21h-.26c-.04-.07-.09-.13-.17-.17,0,0-.01,0-.02,0,0,0-.01,0-.02,0-.08.04-.13.11-.17.17h-.26v-.21s.02.02.04.04c.02.03.05.06.06.09ZM12.63,11.71c-.07.02-.14.05-.2.08v-.08h.2ZM12.51,11.65v-.02s0,0,0,0c.11-.19.23-.27.29-.3v.33h-.3ZM12.38,11.71v.11s-.06.04-.1.08c-.01-.05-.03-.12-.06-.18h.16ZM11.77,11.71c-.03.07-.05.13-.06.18-.04-.04-.08-.06-.1-.08v-.11h.16ZM11.32,12.07v.43h-.1s-.03.01-.03.03v.72h-.25v-1.07s0-.02-.01-.02l-.1-.09h.49ZM11.32,12.56v.69h-.07v-.69h.07ZM10.88,12.18h0v.17h-1.35v-.17h1.34ZM10.89,12.41v.09h-.11s-.03.01-.03.03v.72h-.13v-.72s-.01-.03-.03-.03h-.13s-.03.01-.03.03v.72h-.13v-.72s-.01-.03-.03-.03h-.13s-.03.01-.03.03v.72h-.13v-.72s-.01-.03-.03-.03h-.13s-.03.01-.03.03v.72h-.13v-.72s-.01-.03-.03-.03h-.11v-.09h1.35ZM10.89,12.56v.69h-.08v-.69h.08ZM10.57,12.56v.69h-.08v-.69h.08ZM10.25,12.56v.69h-.08v-.69h.08ZM9.94,12.56v.69h-.08v-.69h.08ZM9.62,12.56v.69h-.08v-.69h.08ZM9.55,13.31h1.34s-.04.14-.14.17h-1.05c-.09-.01-.13-.11-.15-.17ZM10.94,13.31h.37s-.05.12-.16.17h-.3c.05-.05.08-.12.08-.17ZM11.38,13.31h.24s-.05.12-.13.17h-.22c.07-.06.1-.13.11-.17ZM11.68,13.31h.08v.17h-.18c.06-.06.08-.13.09-.17ZM11.68,13.25v-.99s0-.01,0-.02l-.05-.07h.13v1.08h-.08ZM12.37,12.26l.08-.11s0-.02,0-.03c0,0,0,0,0,0v-.18h.26l-.08.08h0s0,0,0,0,0,0,0,0h0s0,0,0,.01v1.21h-.25v-.98ZM14.35,12.5s-.03.01-.03.03v.72h-.13v-.72s-.01-.03-.03-.03h-.13s-.03.01-.03.03v.72h-.13v-.72s-.01-.03-.03-.03h-.13s-.03.01-.03.03v.72h-.13v-.72s-.01-.03-.03-.03h-.13s-.03.01-.03.03v.72h-.13v-.72s-.01-.03-.03-.03h-.11v-.09h1.35v.09h-.1ZM14.46,12.56v.69h-.08v-.69h.08ZM14.14,12.56v.69h-.08v-.69h.08ZM13.82,12.56v.69h-.08v-.69h.08ZM13.51,12.56v.69h-.08v-.69h.08ZM13.19,12.56v.69h-.08v-.69h.08ZM13.11,12.36v-.17h0s1.34,0,1.34,0v.17h-1.35ZM13.06,12.16s-.01.01-.01.02v1.07h-.25v-.72s-.01-.03-.03-.03h-.1v-.43h.49l-.11.09ZM12.75,12.56v.69h-.07v-.69h.07ZM12.62,13.31s.03.11.1.17h-.21c-.09-.04-.12-.12-.13-.17h.24ZM12.68,13.31h.37c0,.05.03.12.08.17h-.3c-.11-.05-.14-.12-.15-.17ZM13.11,13.31h1.34c-.01.05-.05.15-.14.17h-1.05c-.1-.03-.13-.12-.14-.17ZM14.51,13.31h.33c-.01.05-.05.14-.14.17h-.28c.05-.05.08-.13.08-.17ZM14.65,13.25v-.69h.11v.69h-.11ZM14.9,13.31h.13c-.04.1-.1.15-.12.17h-.1c.05-.05.08-.13.09-.17ZM14.9,13.25v-1.04s0-.01,0-.02l-.11-.12h.15v.07s0,0,0,.01h0s0,0,0,0l.1.13v.96h-.13ZM15.31,10.25s.05-.08.07-.1c.02.02.06.06.07.1,0,.01.01.02.02.02,0,0,.02,0,.03,0,0,0,.02-.01.04-.02v.06l-.04.05s-.07-.06-.1-.07t0,0h-.01s-.07.03-.1.07l-.04-.05v-.06s.03.02.04.02c0,0,.02,0,.03,0,.01,0,.02,0,.02-.02ZM15.23,10.09v-.04s.02.01.03.01c0,0,.02.01.03,0,0,0,.02,0,.02-.02.01-.03.03-.08.07-.11.04.03.06.07.07.11,0,0,.01.01.02.02,0,0,.02,0,.03,0,0,0,.01,0,.03-.01v.04l-.07.06s-.05-.06-.06-.06,0,0,0,0c0,0,0,0,0,0,0,0,0,0,0,0h-.01s0,0,0,0c0,0,0,0,0,0t0,0s-.03.03-.06.06l-.07-.06ZM15.24,10.47c.02-.05.09-.13.13-.14.04.01.11.09.13.14,0,0,.01.01.02.02.01,0,.02,0,.03-.01.01-.02.03-.04.05-.05v.09l-.07.07c-.03-.05-.07-.1-.15-.13h0s0,0,0,0h0s0,0,0,0,0,0,0,0h0c-.07.03-.12.08-.15.13l-.07-.07v-.09s.04.02.05.05c0,0,.02.01.03.01,0,0,.02,0,.02-.02ZM15.22,10.73h0s.01-.04.02-.06c.03-.06.06-.12.13-.15.07.03.11.09.13.15,0,.02.01.04.02.05h0s.01.02.02.02c.01,0,.02,0,.03-.01.02-.04.07-.06.1-.07v.13l-.11.12c-.04-.1-.11-.19-.18-.24,0,0,0,0,0,0,0,0,0,0,0,0h-.01s0,0,0,0t0,0c-.08.04-.14.14-.18.24l-.11-.12v-.13s.07.03.1.07c0,.01.02.02.03.01.01,0,.02,0,.02-.02ZM15.38,10.74c.12.09.19.32.22.41,0,.01.01.02.02.02s.02,0,.03-.02c.04-.08.1-.12.14-.14v.23l-.09.13s-.05.04-.07.07c-.04-.16-.1-.28-.24-.37h0s0,0,0,0c0,0,0,0,0,0h-.01s0,0,0,0h0s0,0,0,0c-.14.09-.2.2-.23.37-.02-.03-.05-.05-.07-.07l-.09-.13v-.23s.1.05.14.14c0,.01.02.02.03.02s.02-.01.03-.02c.02-.1.1-.33.22-.41ZM15.11,11.55s.02.02.03.02c.01,0,.02-.01.03-.02.03-.19.08-.31.21-.4.13.09.18.21.21.4,0,.01.01.02.03.02.01,0,.03,0,.03-.02.02-.08.1-.13.15-.15v.2l-.14.17c-.05-.11-.14-.25-.26-.29h0s0,0,0,0,0,0,0,0h0c-.06.02-.11.07-.15.12-.04.05-.08.12-.11.17l-.14-.17v-.2s.12.07.15.15ZM15.64,11.89s-.04.04-.06.06c-.03-.11-.08-.25-.19-.31h0s0,0,0,0c0,0,0,0,0,0s0,0,0,0c0,0,0,0,0,0h0c-.1.06-.16.2-.19.31-.02-.02-.04-.04-.06-.06.03-.07.13-.3.26-.37.14.06.24.3.26.37ZM15.17,12.04s.02.02.03.01.02-.01.02-.02c.01-.09.06-.26.16-.32.09.06.15.23.16.32,0,.01.01.02.02.02.01,0,.02,0,.03-.01.04-.07.13-.13.18-.15v.23h-.78v-.23c.05.02.14.07.18.15ZM16.24,13.31s.03.11.09.17h-.28c-.09-.02-.12-.12-.14-.17h.33ZM15.99,13.25v-.69h.11v.69h-.11ZM15.94,13.47h-.09s-.07-.06-.12-.17h.13s.03.11.08.17ZM15.85,12.2v1.04h-.13v-.96l.1-.13h0s0-.01,0-.02v-.07h.15l-.12.12s0,.01,0,.02ZM15.67,12.26s0,.01,0,.02v.97h-.06v-1.08h.14l-.07.09ZM15.6,13.31h.07c.03.08.06.13.09.17h-.17v-.17ZM17.2,14.18v.43h-1.45v-.43h1.45ZM16.92,13.81v.31h-1.17v-.31h1.17ZM16.74,13.53v.23h-.98v-.23h.98ZM16.43,13.47c-.08-.02-.11-.11-.13-.16h0s.06.11.12.16ZM16.39,12.06s0,0,0,0h0s0,0,0-.01h0v-.65c.03-.06.08-.1.12-.12v.81l-.18.2s0,.01,0,.02v.94h-.03v-1.09l.09-.09ZM16.29,11.06s.02-.01.03-.01.02,0,.02.01v.62s-.03.01-.05.02v-.64ZM16.34,11.74v.27h-.26c.07-.17.2-.24.26-.27ZM16.07,11.17h.16v.08h-.16v-.08ZM16.07,11.31h.16v.43c-.05.04-.11.09-.16.18v-.61ZM16.05,12.07h.24l-.05.05s0,.01,0,.02v1.11h-.08v-.72s-.01-.03-.03-.03h-.17s-.03.01-.03.03v.72h-.03v-1.03l.15-.15ZM14.74,10.86c.04.06.09.09.15.09.02,0,.04-.01.05-.03.01-.02.01-.05,0-.09,0-.02-.02-.03-.02-.05,0,0,0-.01-.01-.02-.03-.05-.03-.11-.03-.16,0,0,0-.02,0-.02.02.02.04.04.06.05.02,0,.05,0,.06-.01.04-.04,0-.13-.03-.18h0s-.01-.05-.01-.07c.01.02.03.04.06.05.01,0,.03,0,.04-.01.02-.02.01-.06,0-.15,0-.04-.02-.09-.02-.12h0s.02.02.03.03c.01.01.03.02.04,0,.05-.02.05-.14.05-.18,0-.08.04-.24.15-.25.01,0,.02-.01.02-.02v-.02c.02-.07.02-.09.06-.09s.04.02.06.09v.02s.01.02.03.02c.11.01.15.17.15.25,0,.04,0,.16.05.18.01,0,.03,0,.04,0,.01-.01.02-.03.03-.05h0s-.01.09-.02.14c-.02.09-.03.13,0,.15.01.01.03.02.04.01.02,0,.04-.03.06-.05,0,.03,0,.05-.01.07h0c-.03.06-.08.15-.03.19.02.02.04.02.06.01.02,0,.04-.03.06-.05v.02c0,.05,0,.11-.03.16,0,0,0,.01-.01.02-.01.01-.02.03-.02.05-.02.04-.02.07,0,.09.01.02.03.02.05.03.06,0,.11-.03.15-.09v1.15h-.19v-.17s0-.02-.01-.02c0,0-.02,0-.03,0,0,0-.04.02-.09.04,0-.01-.01-.03-.02-.04l.17-.2s0-.01,0-.02v-.25s0-.02-.01-.02c0,0-.02,0-.02,0,0,0,0,0,0,0l.04-.05s0-.01,0-.01v-.28s0-.02-.01-.02c0,0-.01,0-.02,0,0,0-.11.02-.18.12-.01-.03-.02-.06-.03-.1l.13-.15s0-.01,0-.02v-.18s0-.02,0-.02c0,0-.01,0-.02,0,0,0-.08,0-.14.06,0,0,0,0,0-.01l.09-.09s.01-.01.01-.02v-.15s0-.02-.01-.02c0,0-.01,0-.02,0,0,0-.05,0-.09.05,0,0-.01-.02-.02-.03l.06-.06s0-.01,0-.02v-.11s0-.02-.01-.02c0,0-.02,0-.03,0-.02,0-.04.02-.06.03l.08-.08s0-.01,0-.02v-.09s0-.02,0-.02c0,0-.02,0-.03,0s-.03.01-.05.02c-.02-.04-.05-.08-.09-.11h0s0,0,0,0c0,0,0,0,0,0h-.01s0,0,0,0c0,0,0,0,0,0h0s-.08.07-.09.11c-.02-.01-.05-.02-.05-.02,0,0-.02,0-.03,0s-.01.01-.01.02v.09s0,.02.01.02l.08.08s-.04-.02-.06-.03c-.01,0-.02,0-.03,0,0,0-.01.01-.01.02v.11s0,.01,0,.02l.06.06s-.01.02-.02.03c-.04-.04-.09-.05-.09-.05,0,0-.02,0-.02,0,0,0-.01.01-.01.02v.15s0,.01,0,.02l.09.09s0,0,0,.01c-.06-.06-.14-.06-.14-.06,0,0-.01,0-.02,0,0,0,0,.01,0,.02v.18s0,.01,0,.02l.13.15s-.03.07-.03.1c-.07-.1-.18-.12-.18-.12,0,0-.02,0-.02,0,0,0-.01.01-.01.02v.28s0,.01,0,.01l.03.05h0s-.02,0-.03,0c0,0-.01.01-.01.02v.25s0,.01,0,.02l.17.2s-.01.03-.02.04c-.05-.03-.09-.04-.09-.04,0,0-.02,0-.03,0,0,0-.01.01-.01.02v.17h-.19v-1.15ZM14.7,12.07l.15.15v1.03h-.03v-.72s-.01-.03-.03-.03h-.17s-.03.01-.03.03v.72h-.08v-.72h0v-.14h0v-.23h0s0-.03,0-.03l-.05-.05h.25ZM14.49,11.46h.19v.46c-.06-.1-.13-.16-.19-.2v-.26ZM14.41,11.55h0v-.1h0s.01,0,.02,0v.25s-.02,0-.02,0v-.14ZM14.41,11.84h0v-.1c.06.03.18.1.26.27h-.26v-.17ZM13.27,11.47h1.08v.04h-1.08v-.04ZM13.27,11.57h1.08v.13h-1.08v-.13ZM13.27,11.76h1.08v.06h-1.08v-.06ZM13.27,11.87h1.08v.14h-1.08v-.14ZM13.25,12.07h1.12l.06.06h-1.25l.07-.06ZM13.1,11.94s.03-.01.03-.03v-.99l.09-.08v1.16h-.5l.07-.07h.31ZM13.02,11.08h.05v.57h-.05v-.57ZM12.86,10.69c.07-.09.13-.13.16-.14v.17c-.08.04-.13.09-.14.15-.01.09.05.16.08.19v.59h-.1v-.96ZM13.07,11.71v.18h-.63v-.03c.13-.08.37-.14.39-.15h.23ZM12.75,10.94s.03-.01.03-.03v-.26s.01-.01.01-.01c0,0,.02,0,.03.02,0,0,0,0,0,0,0,0,0,.01,0,.02v.58s-.18.08-.3.27v-.14s0-.02-.01-.02c-.01,0-.02,0-.03,0,0,0-.02.01-.04.03,0-.12.04-.29.13-.35,0,0,0,0,0,0t0,0s0,0,0,0c0,0,0,0,0,0,0,0,0,0,0-.01h0v-.08h.19ZM12.75,10.35s.02-.03.02-.04c0,.04,0,.08,0,.12,0,.03-.03.05-.06.08,0,0-.02.02-.03.03h-.01s-.05.05-.05.07v.28h-.07v-.14s0-.02,0-.02c0,0-.01,0-.02,0,0,0-.11,0-.2.12,0-.02-.02-.05-.03-.07,0-.03.01-.19.15-.25t0,0s0,0,0,0t0,0s0,0,0,0,0,0,0,0h0s0,0,0-.01v-.08h.17s.07,0,.11-.05ZM12.68,9.98s.05-.03.07-.06c.01-.02.02-.05.03-.07.01.06,0,.12-.01.15-.02.04-.04.07-.08.12h0s-.07.09-.07.15v.08h-.14v-.11s0-.02-.01-.02c0,0-.02,0-.03,0,0,0-.1.03-.16.1,0,0-.01-.02-.02-.03-.01-.02-.02-.04-.03-.05.02-.05.07-.12.1-.14h.07s.03-.01.03-.03v-.07h.19s.01,0,.02,0c.01,0,.03,0,.05,0ZM12.58,9.64s0,0,0,0c.04-.01.06-.06.07-.13,0,.02.01.05.01.08,0,.04-.05.13-.08.17,0,0,0,.01,0,.02v.15h-.17v-.12s0-.02-.01-.02-.02,0-.03,0c0,0-.09.04-.14.1-.02-.04-.03-.07-.05-.09l.11-.11s0-.01,0-.02v-.02h.27ZM12.5,9.34s.04,0,.07-.07h0c0,.06-.06.15-.08.18,0,0,0,.01,0,.02v.13h-.17v-.14s0-.02-.01-.02c0,0-.01,0-.02,0,0,0-.08.01-.13.07,0-.02-.01-.03-.02-.05l.14-.11s.04,0,.15,0h.09ZM12.41,9.09s.01,0,.02,0l.04-.04s0,.01,0,.02c0,.05-.06.1-.08.12,0,0-.01.01-.01.02v.07c-.06,0-.09,0-.1,0v-.11s0-.02-.01-.02c0,0-.02,0-.02,0s-.07.02-.12.05c0,0,0,0,0-.01,0,0,0,0,0,0l.06-.03s.01-.01.01-.02v-.03s0,0,0,0h.21ZM11.94,8.32s.03-.03.06-.03h0s.05.01.06.03c.02.03.02.07.01.11h-.15s0-.07.01-.11ZM12.18,8.48v.07h-.35v-.07s.35,0,.35,0ZM12.28,8.6v.05h-.55v-.05s.55,0,.55,0ZM12.33,8.71l-.02.09h-.62l-.02-.09h.66ZM11.99,8.86s0,0,0,0t0,0h.36l-.04.18h-.13v-.07s0-.02-.01-.02c0,0-.02,0-.02,0,0,0-.04.01-.07.03,0-.01-.01-.02-.02-.02-.01-.02-.02-.03-.06-.06,0,0,0,0,0,0,0,0,0,0,0,0,0,0,0,0,0,0,0,0,0,0,0,0t0,0s0,0,0,0c-.04.02-.05.04-.06.06,0,0,0,.01-.02.02-.03-.02-.07-.03-.07-.03,0,0-.02,0-.02,0s-.01.01-.01.02v.07h-.12l-.04-.18h.36ZM11.52,9.07s0-.02,0-.02l.04.04s.01,0,.02,0h.2v.02s0,.02.01.02l.06.03h0s0,.01,0,.01c-.05-.03-.11-.05-.12-.05s-.02,0-.02,0c0,0-.01.01-.01.02v.11s-.04,0-.09,0v-.07s0-.02,0-.02c-.02-.02-.08-.07-.08-.12ZM11.43,9.27h0c.03.07.06.07.07.07h.08c.08,0,.12,0,.14,0l.14.11s-.01.03-.02.05c-.05-.05-.13-.07-.13-.07,0,0-.02,0-.02,0,0,0-.01.01-.01.02v.14h-.16v-.13s0-.01,0-.02c-.02-.03-.08-.12-.08-.17ZM11.33,9.59s0-.06.01-.08c.02.07.03.12.08.13,0,0,0,0,0,0h.26v.02s0,.01,0,.02l.11.11s-.03.06-.05.09c-.05-.06-.14-.09-.14-.1,0,0-.02,0-.03,0s-.01.01-.01.02v.12h-.15v-.15s0-.01,0-.02c-.03-.04-.08-.13-.08-.17ZM11.32,10.12h0c-.04-.05-.06-.09-.08-.13-.01-.03-.02-.09-.01-.15,0,.02.02.05.03.07.01.02.03.05.07.06.02,0,.03,0,.05,0,0,0,.01,0,.02,0h.18v.07s.01.03.03.03h.07s.08.09.1.14c-.01.02-.02.03-.03.05,0,.01-.01.02-.02.03-.06-.07-.16-.1-.16-.1,0,0-.02,0-.03,0s-.01.01-.01.02v.11h-.13s0-.05,0-.08c0-.06-.04-.11-.07-.15ZM11.31,10.53l-.03-.03s-.05-.04-.05-.08c0-.03,0-.07,0-.12,0,.01.02.03.03.04.03.05.07.05.11.05h.01s.01,0,.02,0h.13v.08h0s0,0,0,.01c0,0,0,0,0,0,0,0,0,0,0,0h0s0,0,0,0t0,0h0c.14.05.15.21.15.25-.01.03-.02.05-.03.07-.09-.11-.19-.12-.2-.12,0,0-.02,0-.02,0,0,0,0,.01,0,.02v.14h-.06v-.28s-.02-.03-.05-.06c0,0-.01,0-.01-.01ZM11.21,10.64s0,0,.01.01v.26s.01.03.03.03h.18v.08h0s0,0,0,.01c0,0,0,0,0,0,0,0,0,0,0,0,0,0,0,0,0,0h0c.09.06.12.24.12.35-.02-.02-.04-.03-.04-.03,0,0-.02,0-.03,0,0,0-.01.01-.01.02v.12c-.12-.17-.24-.23-.29-.25v-.58s0-.01,0-.02c0,0,0,0,0,0,0,0,.02-.02.02-.02ZM11.04,11.06s.09-.1.08-.19c0-.06-.05-.11-.14-.15v-.17s.08.05.16.14v.96h-.1v-.59ZM10.93,11.08h.06v.57h-.06v-.57ZM10.93,11.71h.24s.25.06.38.14v.04h-.62v-.18ZM10.78,10.85l.08.08v.99s.01.03.03.03h.31l.07.07h-.5v-1.16ZM9.64,11.47h1.08v.04h-1.08v-.04ZM9.64,11.57h1.08v.13h-1.08v-.13ZM9.64,11.76h1.08v.06h-1.08v-.06ZM9.64,11.87h1.08v.14h-1.08v-.14ZM9.63,12.07h1.12l.07.06h-1.25l.06-.06ZM9.57,11.44s.01,0,.02-.01v.25s-.01,0-.02,0v-.25ZM9.59,11.74v.27h-.26c.07-.17.2-.24.26-.27ZM9.32,11.46h.19v.26c-.06.04-.13.1-.19.2v-.46ZM9.3,12.07h.24l-.05.05s0,.01,0,.02v1.11h-.08v-.72s-.01-.03-.03-.03h-.17s-.03.01-.03.03v.72h-.03v-1.03l.15-.15ZM7.98,10.86c.04.06.09.09.15.09.02,0,.04-.01.05-.03.01-.02.01-.05,0-.09,0-.02-.02-.03-.02-.05,0,0-.01-.01-.01-.02-.03-.05-.03-.11-.03-.16v-.02s.04.04.06.05.05,0,.06-.01c.04-.04,0-.13-.03-.18h0s-.01-.05-.01-.07c.02.02.03.04.06.05.02,0,.03,0,.04-.01.02-.02.01-.06,0-.15,0-.04-.02-.09-.02-.12h0s.02.02.03.03c.01.01.03.02.04,0,.05-.02.05-.14.05-.18,0-.08.04-.24.15-.25.01,0,.02-.01.02-.02v-.02c.02-.07.02-.09.06-.09.03,0,.04.02.06.09v.02s.01.02.03.02c.11.01.15.17.15.25,0,.04,0,.16.05.18.02,0,.03,0,.04,0,.01-.01.02-.03.03-.05h0s-.01.09-.02.14c-.02.09-.03.13,0,.15.01.01.03.02.04.01.02,0,.04-.03.06-.05,0,.03,0,.05-.01.07h0c-.03.06-.08.15-.03.19.02.02.04.02.06.01.02,0,.04-.03.06-.05v.02c0,.05,0,.11-.03.16,0,0,0,.01-.01.02-.01.01-.02.03-.03.05-.01.04-.01.07,0,.09.01.02.03.02.05.03.06,0,.11-.03.15-.09v1.15h-.19v-.17s0-.02-.01-.02c0,0-.02,0-.02,0,0,0-.05.02-.1.04,0-.01-.01-.03-.02-.04l.17-.2s0-.01,0-.02v-.25s0-.02-.01-.02c0,0-.02,0-.03,0,0,0,0,0,0,0l.04-.05s0-.01,0-.01v-.28s0-.02,0-.02c0,0-.01,0-.02,0,0,0-.11.02-.18.12-.01-.03-.02-.06-.03-.1l.13-.15s0-.01,0-.02v-.18s0-.02,0-.02c0,0-.01,0-.02,0,0,0-.08,0-.14.06,0,0,0,0,0-.01l.09-.09s0-.01,0-.02v-.15s0-.02-.01-.02c0,0-.01,0-.02,0,0,0-.05,0-.09.05,0,0-.01-.02-.02-.03l.05-.06s0-.01,0-.02v-.11s0-.02-.01-.02c0,0-.02,0-.03,0-.02,0-.04.02-.06.03l.08-.08s0-.01,0-.02v-.09s0-.02-.01-.02c0,0-.02,0-.02,0,0,0-.03.01-.05.02-.02-.04-.05-.08-.09-.11h0s0,0,0,0c0,0,0,0,0,0h-.02s0,0,0,0h0s-.07.07-.09.11c-.02-.01-.04-.02-.05-.02-.01,0-.02,0-.03,0,0,0-.01.01-.01.02v.09s0,.02.01.02l.08.08s-.04-.02-.06-.03c0,0-.02,0-.03,0,0,0-.01.01-.01.02v.11s0,.01,0,.02l.06.06s-.01.02-.02.03c-.04-.04-.09-.05-.09-.05,0,0-.02,0-.02,0,0,0,0,.01,0,.02v.15s0,.01,0,.02l.09.09s0,0,0,.01c-.06-.06-.14-.06-.14-.06,0,0-.01,0-.02,0,0,0,0,.01,0,.02v.18s0,.01,0,.02l.13.15s-.02.07-.03.1c-.07-.1-.18-.12-.18-.12,0,0-.02,0-.02,0,0,0-.01.01-.01.02v.28s0,.01,0,.01l.03.05h0s-.02,0-.03,0c0,0-.01.01-.01.02v.25s0,.01,0,.02l.17.2s-.01.03-.02.04c-.05-.03-.09-.04-.09-.04,0,0-.02,0-.03,0,0,0-.01.01-.01.02v.17h-.19v-1.15ZM7.95,12.07l.15.15v1.03h-.03v-.72s-.01-.03-.03-.03h-.17s-.03.01-.03.03v.72h-.08v-1.11s0-.02-.01-.02l-.05-.05h.25ZM7.77,11.17h.16v.08h-.16v-.08ZM7.77,11.31h.16v.61c-.05-.08-.11-.14-.16-.18v-.43ZM7.66,11.06s.01-.01.02-.01.02,0,.03.01v.64s-.04-.02-.05-.02v-.62ZM7.66,11.74c.06.03.18.1.26.27h-.26v-.27ZM7.48,12.09v-.81s.08.06.12.12v.64h0s0,.01,0,.01c0,0,0,0,0,0l.09.09v1.09h-.03v-.94s0-.01,0-.02l-.19-.2ZM7.69,13.31h0c-.01.05-.05.14-.13.16.06-.05.1-.13.12-.16ZM8.25,15.72h-2.02v-.5h2.02v.5ZM8.25,15.16h-1.73v-.5h1.73v.5ZM8.25,14.61h-1.45v-.43h1.45v.43ZM8.25,14.12h-1.17v-.31h1.17v.31ZM8.25,13.76h-.98v-.23h.98v.23ZM8.4,15.72h-.1v-.5h.1v.5ZM8.4,15.16h-.1v-.5h.1v.5ZM8.4,14.61h-.1v-.43h.1v.43ZM8.4,14.12h-.1v-.31h.1v.31ZM8.4,13.76h-.1v-.23h.1v.23ZM8.45,13.31h.34v.17h-.34v-.17ZM8.8,15.72h-.35v-.22h.35v.22ZM8.8,15.44h-.35v-.22h.35v.22ZM8.8,15.16h-.35v-.22h.35v.22ZM8.8,14.88h-.35v-.22h.35v.22ZM8.8,14.61h-.35v-.23h.35v.23ZM8.8,14.32h-.35v-.14h.35v.14ZM8.8,14.12h-.35v-.03h.35v.03ZM8.8,14.03h-.35v-.22h.35v.22ZM8.8,13.76h-.35v-.23h.35v.23ZM8.96,15.72h-.1v-.5h.1v.5ZM8.96,15.16h-.1v-.5h.1v.5ZM8.96,14.61h-.1v-.43h.1v.43ZM8.96,14.12h-.1v-.31h.1v.31ZM8.96,13.76h-.1v-.23h.1v.23ZM8.85,13.47v-.17h.06c.03.08.06.13.09.17h-.16ZM11.61,15.72h-2.6v-.5h2.6v.5ZM11.61,15.16h-2.6v-.5h2.6v.5ZM11.61,14.61h-2.6v-.43h2.6v.43ZM11.61,14.12h-2.6v-.31h2.6v.31ZM11.61,13.76h-2.6v-.23h2.6v.23ZM11.77,15.72h-.1v-.5h.1v.5ZM11.77,15.16h-.1v-.5h.1v.5ZM11.77,14.61h-.1v-.43h.1v.43ZM11.77,14.12h-.1v-.31h.1v.31ZM11.77,13.76h-.1v-.23h.1v.23ZM11.82,13.31h.35v.17h-.35v-.17ZM12.17,15.72h-.35v-.22h.35v.22ZM12.17,15.44h-.35v-.22h.35v.22ZM12.17,15.16h-.35v-.22h.35v.22ZM12.17,14.88h-.35v-.22h.35v.22ZM12.17,14.61h-.35v-.23h.35v.23ZM12.17,14.32h-.35v-.14h.35v.14ZM12.17,14.12h-.35v-.03h.35v.03ZM12.17,14.03h-.35v-.22h.35v.22ZM12.17,13.76h-.35v-.23h.35v.23ZM12.22,13.31h.11s.03.11.09.17h-.2v-.17ZM12.33,15.72h-.1v-.5h.1v.5ZM12.33,15.16h-.1v-.5h.1v.5ZM12.33,14.61h-.1v-.43h.1v.43ZM12.33,14.12h-.1v-.31h.1v.31ZM12.33,13.76h-.1v-.23h.1v.23ZM14.98,15.72h-2.6v-.5h2.6v.5ZM14.98,15.16h-2.6v-.5h2.6v.5ZM14.98,14.61h-2.6v-.43h2.6v.43ZM14.98,14.12h-2.6v-.31h2.6v.31ZM14.98,13.76h-2.6v-.23h2.6v.23ZM15.14,15.72h-.1v-.5h.1v.5ZM15.14,15.16h-.1v-.5h.1v.5ZM15.14,14.61h-.1v-.43h.1v.43ZM15.14,14.12h-.1v-.31h.1v.31ZM15.14,13.76h-.1v-.23h.1v.23ZM15.15,13.47h-.16s.07-.09.09-.17h.06v.17ZM15.15,13.25h-.06v-.97s0-.01,0-.02l-.07-.09h.14v1.08ZM15.54,15.72h-.35v-.22h.35v.22ZM15.54,15.44h-.35v-.22h.35v.22ZM15.54,15.16h-.35v-.22h.35v.22ZM15.54,14.88h-.35v-.22h.35v.22ZM15.54,14.61h-.35v-.23h.35v.23ZM15.54,14.32h-.35v-.14h.35v.14ZM15.54,14.12h-.35v-.03h.35v.03ZM15.54,14.03h-.35v-.22h.35v.22ZM15.54,13.76h-.35v-.23h.35v.23ZM15.54,13.47h-.34v-.17h.34v.17ZM15.54,13.25h-.34v-1.08h.34v1.08ZM15.7,15.72h-.1v-.5h.1v.5ZM15.7,15.16h-.1v-.5h.1v.5ZM15.7,14.61h-.1v-.43h.1v.43ZM15.7,14.12h-.1v-.31h.1v.31ZM15.7,13.76h-.1v-.23h.1v.23ZM17.77,15.72h-2.02v-.5h2.02v.5Z"/>
    </g>
  </g>
</svg>