<?xml version="1.0" encoding="UTF-8"?>
<svg id="Layer_1" data-name="Layer 1" xmlns="http://www.w3.org/2000/svg" viewBox="0 0 24 24">
  <defs>
    <style>
      .cls-1 {
        fill: #000;
      }

      .cls-1, .cls-2, .cls-3, .cls-4 {
        stroke-width: 0px;
      }

      .cls-2 {
        fill: #d42b1e;
      }

      .cls-3 {
        fill: none;
      }

      .cls-4 {
        fill: #fff;
      }
    </style>
  </defs>
  <rect class="cls-3" width="24" height="24"/>
  <g>
    <path class="cls-1" d="M16.71,7.34c2.92,2.92,3.18,7.42.57,10.03-2.61,2.61-7.11,2.35-10.03-.57-2.92-2.92-3.18-7.42-.57-10.03,2.61-2.61,7.11-2.35,10.03.57Z"/>
    <g>
      <g>
        <path class="cls-2" d="M5.3,6.01v11.99c-1.43-1.59-2.3-3.69-2.3-5.99s.87-4.4,2.3-5.99Z"/>
        <path class="cls-4" d="M18.71,6.01v11.99c-1.65,1.84-4.04,3-6.71,3s-5.06-1.16-6.71-3V6.01c1.65-1.84,4.04-3,6.71-3s5.06,1.16,6.71,3.01Z"/>
        <path class="cls-2" d="M21,12c0,2.3-.87,4.4-2.29,5.99V6.01c1.43,1.59,2.29,3.69,2.29,5.99Z"/>
      </g>
      <path class="cls-2" d="M14.71,14.09l2.54-2.06-.59-.25c-.08-.03-.13-.13-.1-.21l.47-1.69-1.52.33c-.1.02-.19-.04-.21-.14l-.17-.72-1.23,1.37c-.15.17-.42.03-.38-.19l.57-2.78-.82.42c-.12.06-.27.02-.34-.1l-.92-1.7-.92,1.7c-.07.12-.21.17-.34.1l-.82-.42.57,2.78c.05.22-.23.36-.38.19l-1.24-1.37-.17.72c-.02.09-.12.16-.21.14l-1.53-.33.47,1.69c.02.09-.02.18-.1.21l-.59.25,2.54,2.06c.12.09.16.25.11.39l-.23.65,2.46-.33c.12-.02.23.08.22.2l-.07,2.63h.44l-.07-2.63c0-.12.1-.22.22-.2l2.46.33-.23-.65c-.05-.14,0-.29.11-.39Z"/>
    </g>
  </g>
</svg>