<?xml version="1.0" encoding="UTF-8"?>
<svg id="Layer_1" data-name="Layer 1" xmlns="http://www.w3.org/2000/svg" viewBox="0 0 24 24">
  <defs>
    <style>
      .cls-1 {
        fill: #000;
      }

      .cls-1, .cls-2, .cls-3, .cls-4, .cls-5, .cls-6 {
        stroke-width: 0px;
      }

      .cls-2 {
        fill: none;
      }

      .cls-3 {
        fill: #053891;
      }

      .cls-4 {
        fill: #f6d023;
      }

      .cls-5 {
        fill: #fff;
      }

      .cls-6 {
        fill: #ce2026;
      }
    </style>
  </defs>
  <rect class="cls-2" width="24" height="24"/>
  <g>
    <path class="cls-1" d="M16.71,7.34c2.92,2.92,3.18,7.42.57,10.03-2.61,2.61-7.11,2.36-10.03-.57-2.92-2.92-3.18-7.42-.57-10.03,2.61-2.61,7.11-2.36,10.03.57Z"/>
    <g>
      <path class="cls-3" d="M21,12c0,.49-.04.97-.12,1.43-.08.52-.21,1.02-.38,1.51-.18.53-.41,1.03-.69,1.51-1.55,2.71-4.47,4.55-7.82,4.55s-6.27-1.83-7.82-4.55c-.27-.48-.51-.98-.69-1.51-.17-.49-.3-.99-.38-1.51-.08-.47-.12-.95-.12-1.43,0-.03,0-.05,0-.08.04-4.93,4.06-8.92,9-8.92s8.96,4,9,8.92c0,.02,0,.05,0,.08Z"/>
      <g>
        <path class="cls-5" d="M21,12c0,.49-.04.97-.12,1.43H3.12c-.08-.47-.12-.95-.12-1.43,0-.03,0-.05,0-.08h18s0,.05,0,.08Z"/>
        <path class="cls-6" d="M20.88,13.43c-.08.52-.21,1.02-.38,1.51H3.49c-.17-.49-.3-.99-.38-1.51h17.77Z"/>
        <path class="cls-5" d="M20.51,14.94c-.18.53-.41,1.03-.69,1.51H4.18c-.27-.48-.51-.98-.69-1.51h17.01Z"/>
      </g>
      <g>
        <g>
          <polygon class="cls-4" points="6.11 12 6.3 12.61 6.94 12.61 6.42 12.98 6.62 13.58 6.11 13.21 5.59 13.58 5.79 12.98 5.28 12.61 5.91 12.61 6.11 12"/>
          <polygon class="cls-4" points="14.72 12 14.92 12.61 15.55 12.61 15.04 12.98 15.23 13.58 14.72 13.21 14.2 13.58 14.4 12.98 13.89 12.61 14.52 12.61 14.72 12"/>
        </g>
        <g>
          <polygon class="cls-4" points="6.11 14.77 6.3 15.37 6.94 15.37 6.42 15.75 6.62 16.35 6.11 15.98 5.59 16.35 5.79 15.75 5.28 15.37 5.91 15.37 6.11 14.77"/>
          <polygon class="cls-4" points="14.72 14.77 14.92 15.37 15.55 15.37 15.04 15.75 15.23 16.35 14.72 15.98 14.2 16.35 14.4 15.75 13.89 15.37 14.52 15.37 14.72 14.77"/>
        </g>
        <g>
          <polygon class="cls-4" points="7.76 9.75 7.96 10.35 8.59 10.35 8.08 10.73 8.27 11.33 7.76 10.96 7.24 11.33 7.44 10.73 6.93 10.35 7.56 10.35 7.76 9.75"/>
          <polygon class="cls-4" points="13.07 9.75 13.26 10.35 13.9 10.35 13.38 10.73 13.58 11.33 13.07 10.96 12.55 11.33 12.75 10.73 12.24 10.35 12.87 10.35 13.07 9.75"/>
        </g>
        <g>
          <polygon class="cls-4" points="7.76 17.04 7.96 17.64 8.59 17.64 8.08 18.02 8.27 18.62 7.76 18.25 7.24 18.62 7.44 18.02 6.93 17.64 7.56 17.64 7.76 17.04"/>
          <polygon class="cls-4" points="13.07 17.04 13.26 17.64 13.9 17.64 13.38 18.02 13.58 18.62 13.07 18.25 12.55 18.62 12.75 18.02 12.24 17.64 12.87 17.64 13.07 17.04"/>
        </g>
        <g>
          <polygon class="cls-4" points="10.41 8.88 10.61 9.49 11.24 9.49 10.73 9.86 10.93 10.47 10.41 10.09 9.9 10.47 10.09 9.86 9.58 9.49 10.22 9.49 10.41 8.88"/>
          <polygon class="cls-4" points="10.41 17.91 10.61 18.51 11.24 18.51 10.73 18.89 10.93 19.49 10.41 19.12 9.9 19.49 10.09 18.89 9.58 18.51 10.22 18.51 10.41 17.91"/>
        </g>
      </g>
    </g>
  </g>
</svg>