<?xml version="1.0" encoding="UTF-8"?>
<svg id="Layer_1" data-name="Layer 1" xmlns="http://www.w3.org/2000/svg" viewBox="0 0 24 24">
  <defs>
    <style>
      .cls-1 {
        fill: #000;
      }

      .cls-1, .cls-2, .cls-3, .cls-4 {
        stroke-width: 0px;
      }

      .cls-2 {
        fill: #d91219;
      }

      .cls-3 {
        fill: none;
      }

      .cls-4 {
        fill: #fbdc1d;
      }
    </style>
  </defs>
  <rect class="cls-3" width="24" height="24"/>
  <g>
    <path class="cls-1" d="M16.71,7.34c2.92,2.92,3.18,7.42.57,10.03-2.61,2.61-7.11,2.36-10.03-.57-2.92-2.92-3.18-7.42-.57-10.03,2.61-2.61,7.11-2.36,10.03.57Z"/>
    <g>
      <path class="cls-2" d="M20.95,13c-.01.09-.02.18-.04.27,0,.04-.01.07-.02.11-.02.11-.04.23-.06.34,0,.02,0,.03-.01.05h0s0,.04-.01.05c-.08.4-.19.79-.33,1.17H3.51c-.12-.34-.22-.69-.3-1.06,0-.02-.01-.04-.01-.05,0-.02,0-.03-.01-.05-.06-.28-.1-.56-.13-.84h17.89Z"/>
      <path class="cls-4" d="M20.49,15c-.19.52-.42,1.02-.69,1.5-.1.17-.2.34-.31.5H4.52c-.11-.16-.21-.33-.31-.5-.27-.47-.51-.98-.69-1.5h16.97Z"/>
      <path class="cls-2" d="M19.48,17c-.14.21-.3.42-.46.62-.4.51-.86.97-1.37,1.37H6.34c-.5-.41-.96-.87-1.37-1.37-.16-.2-.32-.41-.46-.62h14.97Z"/>
      <path class="cls-4" d="M17.66,19c-1.55,1.25-3.52,2-5.66,2s-4.11-.75-5.66-2h11.32Z"/>
      <path class="cls-2" d="M19.48,7H4.52c.14-.22.29-.42.46-.62.41-.51.87-.97,1.37-1.38h11.31c.51.41.96.87,1.37,1.38.16.2.32.41.46.62Z"/>
      <path class="cls-4" d="M17.65,5H6.34c1.55-1.25,3.51-2,5.66-2s4.11.75,5.65,2Z"/>
      <path class="cls-4" d="M20.49,9H3.51c.18-.52.42-1.03.69-1.5.1-.17.2-.34.31-.5h14.97c.11.16.21.33.31.5.27.47.51.98.69,1.5Z"/>
      <path class="cls-2" d="M20.94,11H3.05s0-.01,0-.02h0s0-.02,0-.02c.08-.68.23-1.33.45-1.96h16.97c.11.31.2.63.28.95,0,0,0,.02,0,.02v.02c.05.21.09.41.13.62,0,0,0,.01,0,.02,0,0,0,.01,0,.02.02.11.03.22.04.33Z"/>
      <path class="cls-4" d="M21,12s0,.09,0,.13v.06s0,0,0,.01c0,0,0,.01,0,.02,0,.26-.02.52-.05.78H3.06c0-.05-.01-.11-.02-.16,0-.03,0-.06,0-.09h0c-.02-.17-.03-.35-.03-.53v-.04s0-.08,0-.13v-.05c0-.06,0-.12,0-.18v-.04c0-.18.01-.36.03-.54,0,0,0-.02,0-.02s0-.02,0-.02c0-.06.01-.12.02-.18h0s17.89,0,17.89,0c.03.25.05.51.05.78,0,0,0,.01,0,.02,0,0,0,.01,0,.02,0,.06,0,.12,0,.18Z"/>
    </g>
  </g>
</svg>