<?xml version="1.0" encoding="UTF-8"?>
<svg id="Layer_1" data-name="Layer 1" xmlns="http://www.w3.org/2000/svg" viewBox="0 0 24 24">
  <defs>
    <style>
      .cls-1 {
        fill: #000;
      }

      .cls-1, .cls-2, .cls-3, .cls-4, .cls-5, .cls-6, .cls-7 {
        stroke-width: 0px;
      }

      .cls-2 {
        fill: #fecd17;
      }

      .cls-3 {
        fill: #d11133;
      }

      .cls-4 {
        fill: #043080;
      }

      .cls-5 {
        fill: none;
      }

      .cls-6 {
        fill: #25962b;
      }

      .cls-7 {
        fill: #fff;
      }
    </style>
  </defs>
  <rect class="cls-5" width="24" height="24"/>
  <g>
    <path class="cls-1" d="M16.71,7.34c2.92,2.92,3.18,7.42.57,10.03-2.61,2.61-7.11,2.36-10.03-.57-2.92-2.92-3.18-7.42-.57-10.03,2.61-2.61,7.11-2.36,10.03.57Z"/>
    <g>
      <g>
        <g>
          <path class="cls-7" d="M21,12H3c0-1.64.44-3.17,1.21-4.5h15.58c.77,1.33,1.21,2.86,1.21,4.5Z"/>
          <path class="cls-4" d="M19.79,7.5H4.21h0c.51-.89,1.17-1.68,1.95-2.34.14-.12.29-.24.44-.35.21-.16.44-.31.66-.45.16-.1.33-.2.5-.29.62-.33,1.29-.6,1.99-.78.72-.19,1.47-.28,2.25-.28s1.53.1,2.25.28c2.36.61,4.35,2.15,5.54,4.21h0Z"/>
          <path class="cls-6" d="M21,12h0c0,1.64-.44,3.18-1.21,4.5H4.21c-.77-1.33-1.21-2.86-1.21-4.5h0s18,0,18,0Z"/>
          <path class="cls-2" d="M19.79,16.5c-1.19,2.06-3.18,3.61-5.54,4.22-.72.19-1.47.28-2.25.28s-1.53-.1-2.25-.28c-2.36-.61-4.35-2.16-5.54-4.22h15.58Z"/>
        </g>
        <path class="cls-3" d="M14.25,3.28v17.43c-.72.19-1.47.28-2.25.28s-1.53-.1-2.25-.28V3.28c.72-.19,1.47-.28,2.25-.28s1.53.1,2.25.28Z"/>
      </g>
      <path class="cls-2" d="M8.28,5.65l.45,1.37-1.17-.85-1.17.85.44-1.37-.68-.49c.14-.12.29-.24.44-.35h.52l.15-.45c.16-.1.33-.2.5-.29l.24.75h1.44l-1.17.85Z"/>
    </g>
  </g>
</svg>