<?xml version="1.0" encoding="UTF-8"?>
<svg id="Layer_1" data-name="Layer 1" xmlns="http://www.w3.org/2000/svg" viewBox="0 0 24 24">
  <defs>
    <style>
      .cls-1 {
        fill: #000;
      }

      .cls-1, .cls-2, .cls-3, .cls-4, .cls-5 {
        stroke-width: 0px;
      }

      .cls-2 {
        fill: none;
      }

      .cls-3 {
        fill: #fcca16;
      }

      .cls-4 {
        fill: #fff;
      }

      .cls-5 {
        fill: #0c0aca;
      }
    </style>
  </defs>
  <rect class="cls-2" width="24" height="24"/>
  <g>
    <path class="cls-1" d="M16.71,7.34c2.92,2.92,3.18,7.42.57,10.03-2.61,2.61-7.11,2.35-10.03-.57-2.92-2.92-3.18-7.42-.57-10.03,2.61-2.61,7.11-2.36,10.03.57Z"/>
    <g>
      <path class="cls-5" d="M17.57,4.94c-1.53-1.21-3.47-1.94-5.57-1.94s-4.04.73-5.57,1.94c-2.09,1.65-3.43,4.2-3.43,7.06,0,1.4.33,2.74.9,3.92l.76-.78,2.01,2.08,2.01-2.08,2.01,2.08,2.01-2.08,2.01,2.08,2.01-2.08,2.01,2.08,1.51-1.57c.5-1.12.77-2.35.77-3.65,0-2.86-1.34-5.41-3.43-7.06ZM5.82,12.27l-.41.73-.09-.83-.82-.17.76-.35-.09-.83.57.62.76-.35-.41.73.57.62-.82-.17ZM8.29,7.69l-.41.73-.09-.83-.82-.17.76-.35-.1-.83.57.62.76-.35-.41.73.57.62-.82-.17ZM10.98,13.5l-.41.73-.1-.83-.82-.17.76-.35-.09-.83.57.62.76-.35-.41.73.57.62-.82-.17ZM12.12,8.62l-.21.38-.05-.43-.42-.08.39-.18-.05-.43.29.32.39-.18-.21.38.29.32-.42-.09ZM16.56,7.33l-.41.73-.1-.83-.82-.17.76-.35-.09-.83.57.62.76-.35-.41.73.57.62-.82-.17Z"/>
      <path class="cls-4" d="M18.68,18.03l-.37-.39-1.6-1.65-1.6,1.65-.41.42-.41-.42-1.6-1.65-1.6,1.65-.41.42-.41-.42-1.6-1.65-1.6,1.65-.41.42-.41-.42-1.6-1.65-.47.48c-.1-.18-.2-.36-.29-.55l.76-.78,2.01,2.08,2.01-2.08,2.01,2.08,2.01-2.08,2.01,2.08,2.01-2.08,2.01,2.08,1.51-1.57c-.39.87-.91,1.67-1.55,2.38Z"/>
      <path class="cls-3" d="M18.31,17.64l.37.39c-1.65,1.83-4.03,2.97-6.68,2.97-3.34,0-6.25-1.83-7.81-4.53l.47-.48,1.6,1.65.41.42.41-.42,1.6-1.65,1.6,1.65.41.42.41-.42,1.6-1.65,1.6,1.65.41.42.41-.42,1.6-1.65,1.6,1.65Z"/>
      <polygon class="cls-4" points="16.81 6.88 17.38 7.49 16.56 7.33 16.14 8.06 16.05 7.22 15.23 7.06 15.99 6.71 15.89 5.88 16.46 6.49 17.22 6.15 16.81 6.88"/>
      <polygon class="cls-4" points="12.25 8.39 12.54 8.71 12.12 8.62 11.91 9 11.86 8.57 11.43 8.48 11.83 8.3 11.78 7.87 12.07 8.19 12.46 8.01 12.25 8.39"/>
      <polygon class="cls-4" points="11.24 13.05 11.81 13.67 10.98 13.5 10.57 14.23 10.48 13.4 9.65 13.23 10.42 12.88 10.32 12.05 10.89 12.67 11.65 12.32 11.24 13.05"/>
      <polygon class="cls-4" points="8.55 7.23 9.11 7.85 8.29 7.69 7.88 8.42 7.78 7.58 6.96 7.42 7.72 7.07 7.63 6.24 8.19 6.85 8.96 6.51 8.55 7.23"/>
      <polygon class="cls-4" points="6.07 11.82 6.64 12.44 5.82 12.27 5.41 13 5.31 12.17 4.49 12 5.25 11.65 5.16 10.82 5.72 11.43 6.49 11.09 6.07 11.82"/>
    </g>
  </g>
</svg>