<?xml version="1.0" encoding="UTF-8"?>
<svg id="Layer_1" data-name="Layer 1" xmlns="http://www.w3.org/2000/svg" viewBox="0 0 24 24">
  <defs>
    <style>
      .cls-1 {
        fill: #000;
      }

      .cls-1, .cls-2, .cls-3, .cls-4 {
        stroke-width: 0px;
      }

      .cls-2 {
        fill: #fedd19;
      }

      .cls-3 {
        fill: none;
      }

      .cls-4 {
        fill: #dd2911;
      }
    </style>
  </defs>
  <rect class="cls-3" width="24" height="24"/>
  <g>
    <path class="cls-1" d="M16.71,7.34c2.92,2.92,3.18,7.42.57,10.03-2.61,2.61-7.11,2.35-10.03-.57-2.92-2.92-3.18-7.42-.57-10.03,2.61-2.61,7.11-2.35,10.03.57Z"/>
    <g>
      <circle class="cls-4" cx="12" cy="12" r="9"/>
      <g>
        <polygon class="cls-2" points="8.15 6.24 8.67 7.84 10.35 7.84 8.99 8.82 9.51 10.42 8.15 9.43 6.79 10.42 7.31 8.82 5.95 7.84 7.63 7.84 8.15 6.24"/>
        <polygon class="cls-2" points="12.27 5.54 12.22 6.1 12.74 6.32 12.19 6.44 12.14 7 11.86 6.52 11.31 6.64 11.68 6.22 11.39 5.74 11.91 5.96 12.27 5.54"/>
        <polygon class="cls-2" points="14.06 7.25 13.8 7.75 14.18 8.15 13.64 8.05 13.37 8.54 13.3 7.99 12.75 7.89 13.25 7.65 13.17 7.1 13.56 7.5 14.06 7.25"/>
        <polygon class="cls-2" points="14.23 9.83 13.79 10.17 13.97 10.69 13.51 10.38 13.07 10.72 13.23 10.18 12.77 9.87 13.33 9.85 13.48 9.32 13.67 9.84 14.23 9.83"/>
        <polygon class="cls-2" points="12.74 11.66 12.21 11.81 12.18 12.36 11.87 11.9 11.34 12.04 11.68 11.61 11.38 11.14 11.9 11.34 12.25 10.91 12.22 11.46 12.74 11.66"/>
      </g>
    </g>
  </g>
</svg>