<?xml version="1.0" encoding="UTF-8"?>
<svg id="Layer_1" data-name="Layer 1" xmlns="http://www.w3.org/2000/svg" viewBox="0 0 24 24">
  <defs>
    <style>
      .cls-1 {
        fill: #0923ab;
      }

      .cls-1, .cls-2, .cls-3, .cls-4, .cls-5, .cls-6 {
        stroke-width: 0px;
      }

      .cls-2 {
        fill: #000;
      }

      .cls-3 {
        fill: none;
      }

      .cls-4 {
        fill: #fff;
      }

      .cls-5 {
        fill: #fec53d;
      }

      .cls-6 {
        fill: #198943;
      }
    </style>
  </defs>
  <rect class="cls-3" width="24" height="24"/>
  <g>
    <path class="cls-2" d="M16.71,7.34c2.92,2.92,3.18,7.42.57,10.03-2.61,2.61-7.11,2.35-10.03-.57-2.92-2.92-3.18-7.42-.57-10.03,2.61-2.61,7.11-2.36,10.03.57Z"/>
    <g>
      <g>
        <path class="cls-6" d="M19.53,7.08c-1.61-2.45-4.38-4.08-7.53-4.08s-5.92,1.62-7.53,4.08c-.19.29-.36.59-.52.9l6.45,3.22c.29-.59.9-.99,1.6-.99.53,0,1,.22,1.32.59.29.32.46.74.46,1.2,0,.29-.07.56-.19.8l6.45,3.22c.61-1.21.95-2.58.95-4.02,0-1.82-.54-3.51-1.47-4.92Z"/>
        <path class="cls-1" d="M13.6,12.8c-.29.59-.9.99-1.6.99-.99,0-1.79-.8-1.79-1.79,0-.29.07-.56.19-.8l-6.45-3.22c-.61,1.21-.95,2.58-.95,4.02,0,1.82.54,3.51,1.47,4.93,1.61,2.45,4.38,4.07,7.53,4.07s5.92-1.62,7.53-4.07c.19-.29.36-.59.52-.9l-6.45-3.22ZM7.89,11.61l.33.1.13-.32.13.32.33-.1-.17.3.28.19-.34.05.02.35-.25-.23-.25.23.03-.35-.34-.05.29-.19-.17-.3ZM7.07,12.88l.1.31h.33l-.26.19.1.31-.26-.19-.26.19.1-.31-.27-.19h.33l.1-.31ZM6.51,16.13l-.25-.23-.25.23.03-.34-.34-.05.29-.2-.17-.3.33.1.13-.32.13.32.33-.1-.17.3.28.2-.34.05.03.34ZM5.75,9.94l.33.1.13-.32.13.32.33-.1-.17.3.28.2-.34.05.02.35-.25-.24-.25.24.02-.35-.34-.05.28-.2-.17-.3ZM4.25,13.26l-.25-.23-.25.23.02-.35-.34-.05.28-.2-.17-.3.33.1.13-.32.13.32.33-.1-.17.3.28.2-.34.05.03.35Z"/>
        <path class="cls-5" d="M13.32,10.8c.29.32.46.74.46,1.2,0,.29-.07.56-.19.8l-.85-.43c0-.06-.06-.09-.04-.15.01-.05.06-.06.13-.12.13-.11.08-.18.19-.26.12-.09.28-.08.29-.15,0-.03-.02-.06,0-.09.02-.03.05-.02.06-.03,0-.02-.12-.04-.15-.12-.01-.03,0-.05.01-.12.01-.11-.02-.14-.03-.28,0-.09.02-.13,0-.15,0,0-.02,0-.03,0l.15-.08Z"/>
        <path class="cls-5" d="M11.8,12.3c.05.03.1-.01.17-.01.08,0,.14.06.16.09.09.09.09.21.09.26,0,.14-.04.3-.06.37-.02.06-.03.1-.01.13.01.02.04.04.18.05.16.01.24.01.26-.03.02-.03-.02-.05-.02-.13,0-.05.01-.06.05-.16.02-.07.05-.14.05-.24,0-.04,0-.05,0-.08.02-.09.06-.1.07-.16,0-.01,0-.02,0-.03l.85.43c-.29.59-.9.99-1.6.99-.99,0-1.79-.8-1.79-1.79,0-.29.07-.56.19-.8l.63.32c0,.06,0,.12-.04.16-.04.04-.07.02-.1.06-.04.05,0,.09-.03.17-.01.03-.03.05-.08.09-.07.07-.11.06-.13.11,0,.01-.04.07-.01.12.01.02.03.05.06.05.03,0,.04-.05.08-.09.04-.04.09-.06.13-.07.1-.03.12.02.26.01.11,0,.16-.03.19,0,.03.03.01.07.05.09.03.02.04,0,.11,0,.06,0,.05.02.12.02.06,0,.08,0,.11.01.03.02.02.03.04.04Z"/>
        <path class="cls-6" d="M11.61,11.63c.08.04.18.02.38-.04.04-.01.21-.06.39-.18.12-.08.18-.12.22-.2.03-.09.02-.18.05-.19.03,0,.06.07.11.06.02,0,.03-.01.08-.1.06-.12.07-.17.09-.17.03,0,.03.05.09.08.06.03.12,0,.16,0,.01,0,.02,0,.03,0,.02.02,0,.06,0,.15.01.14.04.18.03.28,0,.07-.02.08-.01.12.03.08.16.1.15.12,0,.01-.04,0-.06.03-.02.03,0,.06,0,.09-.01.07-.17.05-.29.15-.11.08-.06.15-.19.26-.07.06-.12.07-.13.12-.01.06.04.09.04.15l-1.72-.86s0-.02,0-.04c-.03-.09-.13-.09-.15-.17-.01-.05,0-.11.04-.12.04-.02.1.06.21.18.11.12.14.18.21.19.04,0,.05-.01.1,0,.09.01.14.05.18.08Z"/>
        <path class="cls-5" d="M10.87,11.31c.02.09.12.08.15.17,0,.01,0,.02,0,.04l-.63-.32c.29-.59.9-.99,1.6-.99.53,0,1,.22,1.32.59l-.15.08s-.1.04-.16,0c-.05-.03-.06-.08-.09-.08-.03,0-.03.05-.09.17-.04.09-.06.1-.08.1-.04,0-.07-.07-.11-.06-.03,0-.02.1-.05.19-.03.08-.09.12-.22.2-.19.12-.36.17-.39.18-.19.06-.29.08-.38.04-.04-.02-.09-.07-.18-.08-.05,0-.06.01-.1,0-.08-.01-.11-.07-.21-.19-.11-.12-.17-.2-.21-.18-.03.01-.05.07-.04.12Z"/>
        <path class="cls-6" d="M12.13,12.38s-.08-.09-.16-.09c-.07,0-.12.04-.17.01-.02-.01-.02-.02-.04-.04-.03-.02-.05-.01-.11-.01-.07,0-.07-.02-.12-.02-.07,0-.09.02-.11,0-.03-.02-.02-.06-.05-.09-.03-.03-.09,0-.19,0-.14,0-.16-.04-.26-.01-.04.01-.08.02-.13.07-.04.04-.05.08-.08.09-.03,0-.05-.03-.06-.05-.02-.05,0-.11.01-.12.03-.05.06-.04.13-.11.04-.04.06-.06.08-.09.03-.07,0-.12.03-.17.03-.04.06-.02.1-.06.04-.04.05-.1.04-.16l1.72.86s0,.02,0,.03c-.01.06-.05.07-.07.16,0,.03,0,.03,0,.08,0,.1-.03.17-.05.24-.03.1-.05.11-.05.16,0,.07.04.09.02.13-.02.04-.1.04-.26.03-.14-.01-.17-.03-.18-.05-.02-.03,0-.07.01-.13.02-.07.07-.23.06-.37,0-.06,0-.18-.09-.26Z"/>
        <polygon class="cls-4" points="8.92 12.11 8.58 12.16 8.6 12.51 8.35 12.27 8.1 12.51 8.12 12.16 7.78 12.11 8.07 11.91 7.89 11.61 8.22 11.72 8.35 11.39 8.48 11.72 8.81 11.61 8.64 11.91 8.92 12.11"/>
        <polygon class="cls-4" points="7.5 13.19 7.24 13.38 7.34 13.69 7.07 13.5 6.81 13.69 6.91 13.38 6.64 13.19 6.97 13.19 7.07 12.88 7.17 13.19 7.5 13.19"/>
        <polygon class="cls-4" points="6.83 15.73 6.49 15.78 6.51 16.13 6.26 15.89 6 16.13 6.03 15.78 5.69 15.73 5.97 15.54 5.8 15.24 6.13 15.34 6.26 15.02 6.39 15.34 6.72 15.24 6.54 15.54 6.83 15.73"/>
        <polygon class="cls-4" points="6.77 10.44 6.43 10.49 6.46 10.84 6.2 10.6 5.95 10.84 5.98 10.49 5.63 10.44 5.92 10.24 5.75 9.94 6.08 10.04 6.2 9.72 6.33 10.04 6.66 9.94 6.49 10.24 6.77 10.44"/>
        <polygon class="cls-4" points="4.57 12.86 4.22 12.91 4.25 13.26 4 13.02 3.74 13.26 3.77 12.91 3.43 12.86 3.71 12.67 3.54 12.37 3.87 12.47 4 12.15 4.12 12.47 4.45 12.37 4.28 12.67 4.57 12.86"/>
      </g>
      <path class="cls-5" d="M20.22,10.61c-.17.01-.21.1-.33.08-.15-.03-.23-.2-.28-.34-.24-.6-.05-.89-.24-1.37-.08-.2-.24-.38-.57-.75-.11-.12-.71-.79-.84-.71-.07.05.05.34.19.68.18.41.26.62.45.79.09.08.17.14.21.25.03.09,0,.21-.05.44-.04.18-.06.2-.07.21-.12.07-.36-.17-.59-.34-.6-.42-1.39-.45-1.45-.31-.03.08.14.22.39.44.23.19.39.3.74.52.65.43.71.49.75.6.13.35-.11.72-.14.78-.1.15-.25.32-.87.57-.6.25-.99.41-1.55.45-.8.05-1.42-.19-1.44-.13-.01.04.23.17.49.25,1.4.43,3.13-.59,3.79-.97.04-.02.14-.08.29-.15.38-.18.63-.3.93-.3.1,0,.22.01.31-.06.06-.05.08-.11.16-.15.07-.04.11,0,.17-.05.03-.02.08-.07.08-.12,0-.13-.26-.32-.52-.3ZM20.14,10.93s-.07-.05-.07-.08c0-.03.05-.04.1-.03.05.01.08.05.07.08,0,.03-.05.04-.1.03Z"/>
    </g>
  </g>
</svg>