<?xml version="1.0" encoding="UTF-8"?>
<svg id="Layer_1" data-name="Layer 1" xmlns="http://www.w3.org/2000/svg" viewBox="0 0 24 24">
  <defs>
    <style>
      .cls-1 {
        fill: #000;
      }

      .cls-1, .cls-2, .cls-3, .cls-4, .cls-5 {
        stroke-width: 0px;
      }

      .cls-2 {
        fill: #fedf19;
      }

      .cls-3 {
        fill: #007f0a;
      }

      .cls-4 {
        fill: none;
      }

      .cls-5 {
        fill: #7f1f01;
      }
    </style>
  </defs>
  <rect class="cls-4" width="24" height="24"/>
  <g>
    <path class="cls-1" d="M16.71,7.34c2.92,2.92,3.18,7.42.57,10.03-2.61,2.61-7.11,2.36-10.03-.57-2.92-2.92-3.18-7.42-.57-10.03,2.61-2.61,7.11-2.36,10.03.57Z"/>
    <g>
      <path class="cls-3" d="M21,12c0,2.03-.68,3.91-1.82,5.42-1.64,2.17-4.25,3.58-7.18,3.58s-5.54-1.41-7.18-3.58c-1.14-1.51-1.82-3.39-1.82-5.42s.68-3.91,1.82-5.42c1.64-2.17,4.25-3.58,7.18-3.58s5.54,1.41,7.18,3.58c1.14,1.51,1.82,3.39,1.82,5.42Z"/>
      <g>
        <path class="cls-2" d="M12.72,13.86c-1.03,0-1.86-.83-1.86-1.86s.83-1.86,1.86-1.86c.27,0,.53.06.77.17-.4-.35-.92-.56-1.49-.56-1.25,0-2.26,1.01-2.26,2.26s1.01,2.26,2.26,2.26c.57,0,1.09-.21,1.49-.56-.23.11-.49.17-.77.17Z"/>
        <polygon class="cls-2" points="18.5 11.97 18.61 12.3 18.95 12.3 18.67 12.5 18.78 12.83 18.5 12.62 18.22 12.83 18.33 12.5 18.05 12.3 18.39 12.3 18.5 11.97"/>
        <polygon class="cls-2" points="19.83 9.83 20 10.24 20.42 10.11 20.2 10.5 20.57 10.75 20.13 10.82 20.16 11.26 19.83 10.96 19.51 11.26 19.54 10.82 19.1 10.75 19.47 10.5 19.24 10.11 19.67 10.24 19.83 9.83"/>
        <polygon class="cls-2" points="14.7 10.57 14.87 10.98 15.29 10.85 15.07 11.24 15.44 11.49 15 11.56 15.03 12 14.7 11.7 14.38 12 14.41 11.56 13.97 11.49 14.34 11.24 14.12 10.85 14.54 10.98 14.7 10.57"/>
        <polygon class="cls-2" points="17.42 7.63 17.58 8.04 18.01 7.92 17.79 8.3 18.15 8.55 17.71 8.62 17.75 9.06 17.42 8.76 17.09 9.06 17.13 8.62 16.69 8.55 17.05 8.3 16.83 7.92 17.26 8.04 17.42 7.63"/>
        <polygon class="cls-2" points="17.42 14.86 17.58 15.27 18.01 15.14 17.79 15.53 18.15 15.78 17.71 15.85 17.75 16.29 17.42 15.99 17.09 16.29 17.13 15.85 16.69 15.78 17.05 15.53 16.83 15.14 17.26 15.27 17.42 14.86"/>
      </g>
      <g>
        <circle class="cls-2" cx="6.35" cy="9.74" r="2.36"/>
        <g>
          <path class="cls-5" d="M6.86,9.43c-.05.55.03,1.13-.13,1.66-.02.08-.07.21-.02.28.02.04.07.03.09.07.01.02.02.06,0,.08-.02.04-.08.05-.49,0-.07,0-.12-.01-.14-.04-.02-.05.06-.12.12-.19.11-.13.16-.27.26-.57.07-.21.09-.37.12-.51.03-.19.06-.44.05-.75l.14-.04Z"/>
          <path class="cls-3" d="M5.87,9.13s-.1,0-.22.04c0,0-.07.02-.14.03-.05,0-.04,0-.08,0-.11,0-.13.05-.22.04-.05,0-.05-.02-.08-.01-.07.02-.06.12-.15.16-.06.03-.11.01-.14.05-.02.03,0,.04-.01.09-.02.07-.08.09-.07.11.01.03.14-.02.16.02.02.03-.04.09-.03.1.01,0,.07-.1.18-.12.08-.01.1.03.16.01.09-.03.11-.14.16-.14.05,0,.05.1.11.11.07.02.11-.09.23-.1.05,0,.05.03.11.02.09,0,.1-.08.21-.11.05-.01.2-.02.15-.02-.15.05-.19.11-.2.15,0,.03,0,.04,0,.08-.02.08-.08.11-.06.15s.08.02.09.05c.01.03-.05.06-.08.13-.03.09.05.13.03.23-.02.08-.09.1-.08.15.01.04.09.07.15.07.04,0,.08-.02.09-.03.08-.04.14-.13.12-.15-.01-.02-.04,0-.06-.01-.03-.02-.02-.09.06-.34.03-.1.05-.15.08-.2.03-.05.09-.15.11-.14.02,0,0,.08-.03.25-.03.21-.03.27,0,.33.03.05.08.11.12.1.04-.01,0-.14.07-.33.04-.11.08-.16.09-.18.04-.05.14-.13.21-.1.06.03.02.11.09.2.08.11.22.08.25.18.01.05-.01.07.01.12.02.04.06.05.12.08.14.07.17.14.2.13.04-.02-.05-.15,0-.25.02-.04.04-.04.05-.08,0-.04,0-.1-.04-.14-.04-.04-.08-.01-.13-.05s-.06-.12-.03-.17c.03-.05.08-.06.1-.07.08-.02.11.03.22.02.09,0,.1-.05.17-.04.11.02.15.17.19.16.04-.01.06-.23-.06-.33-.03-.02-.07-.02-.08-.05-.02-.04.02-.07,0-.11-.01-.05-.11-.09-.19-.08-.12.01-.17.13-.24.1-.03-.01-.06-.05-.06-.08,0-.02.01-.03.08-.09.05-.04.05-.05.05-.06,0-.05-.18-.06-.18-.08s.19-.03.2-.07c0-.04-.1-.11-.19-.09-.08.02-.1.11-.18.12-.05,0-.06-.03-.11-.03-.1.01-.12.17-.19.17-.04,0-.09-.06-.08-.11,0-.04.07-.04.16-.13.06-.05.06-.08.06-.08,0-.05-.1-.06-.09-.08,0-.03.22,0,.25-.06.02-.04-.04-.06-.03-.12.01-.08.13-.12.12-.14-.01-.03-.15.02-.23-.04,0,0-.05-.04-.05-.1,0-.06.04-.08.03-.11-.02-.05-.21-.06-.31.03-.05.05-.05.11-.08.11-.05,0-.07-.16-.11-.16-.03,0-.01.1-.07.2-.05.08-.11.09-.11.14,0,.08.12.12.1.16,0,.02-.05.01-.11.05-.04.02-.09.04-.09.08,0,.05.09.08.16.19.06.08.09.2.06.23-.03.02-.09-.02-.14-.05-.16-.12-.09-.29-.23-.46-.09-.11-.2-.14-.24-.16-.21-.07-.46,0-.47.06,0,.05.13.12.24.15.11.03.2.02.21.04,0,.02-.07.03-.07.07,0,.05.19.07.19.14,0,.02-.02.04-.03.05-.06.03-.13-.09-.3-.15-.12-.04-.22-.03-.25-.02-.07,0-.13.03-.17.04-.06.02-.12.05-.18.1-.05.04-.08.1-.07.11.02.02.13-.09.19-.06.04.02.03.1.06.11.04.01.11-.15.16-.14.03,0,.02.06.07.09.06.04.12-.02.23.01.06.02.12.06.12.08Z"/>
        </g>
      </g>
    </g>
  </g>
</svg>