<?xml version="1.0" encoding="UTF-8"?>
<svg id="Layer_1" data-name="Layer 1" xmlns="http://www.w3.org/2000/svg" viewBox="0 0 24 24">
  <defs>
    <style>
      .cls-1 {
        fill: #000;
      }

      .cls-1, .cls-2, .cls-3, .cls-4, .cls-5, .cls-6, .cls-7 {
        stroke-width: 0px;
      }

      .cls-2 {
        fill: #3b75c2;
      }

      .cls-3 {
        fill: #3b8d35;
      }

      .cls-4 {
        fill: none;
      }

      .cls-5 {
        fill: #fec527;
      }

      .cls-6 {
        fill: #cd1225;
      }

      .cls-7 {
        fill: #fff;
      }
    </style>
  </defs>
  <rect class="cls-4" width="24" height="24"/>
  <g>
    <path class="cls-1" d="M16.71,7.34c2.92,2.92,3.18,7.42.57,10.03-2.61,2.61-7.11,2.36-10.03-.57-2.92-2.92-3.18-7.42-.57-10.03s7.11-2.36,10.03.57Z"/>
    <g>
      <g>
        <g>
          <path class="cls-2" d="M5.54,18.25c1.63,1.69,3.93,2.75,6.46,2.75,3.33,0,6.23-1.81,7.79-4.5H4.21c.37.64.81,1.23,1.33,1.75Z"/>
          <path class="cls-6" d="M3,12c0,1.05.18,2.06.52,3,.19.52.42,1.03.69,1.5h15.58c.28-.47.51-.98.69-1.5.34-.94.52-1.95.52-3H3Z"/>
          <path class="cls-5" d="M12,3c-2.54,0-4.83,1.05-6.46,2.75-.51.53-.96,1.12-1.33,1.75h15.58c-1.56-2.69-4.46-4.5-7.79-4.5Z"/>
          <path class="cls-7" d="M19.79,7.5H4.21c-.28.47-.51.98-.69,1.5-.33.94-.52,1.95-.52,3h18c0-1.05-.18-2.06-.52-3-.19-.52-.42-1.03-.69-1.5Z"/>
        </g>
        <path class="cls-3" d="M13.85,12l-3.99,3-4.33,3.25c-.89-.92-1.59-2.02-2.02-3.25-.33-.94-.52-1.95-.52-3s.18-2.06.52-3c.43-1.23,1.13-2.34,2.02-3.25l4.33,3.25,3.99,3Z"/>
      </g>
      <g>
        <path class="cls-7" d="M5.77,12c0-1.44,1.01-2.64,2.35-2.95-.22-.05-.44-.08-.67-.08-1.67,0-3.03,1.36-3.03,3.03s1.36,3.03,3.03,3.03c.23,0,.46-.03.67-.08-1.35-.31-2.35-1.51-2.35-2.95Z"/>
        <polygon class="cls-7" points="8.12 9.28 8.25 9.67 8.66 9.67 8.33 9.91 8.45 10.3 8.12 10.06 7.79 10.3 7.92 9.91 7.59 9.67 7.99 9.67 8.12 9.28"/>
        <polygon class="cls-7" points="8.12 13.6 8.25 13.99 8.66 13.99 8.33 14.23 8.45 14.62 8.12 14.38 7.79 14.62 7.92 14.23 7.59 13.99 7.99 13.99 8.12 13.6"/>
        <polygon class="cls-7" points="8.12 12.16 8.25 12.55 8.66 12.55 8.33 12.79 8.45 13.18 8.12 12.94 7.79 13.18 7.92 12.79 7.59 12.55 7.99 12.55 8.12 12.16"/>
        <polygon class="cls-7" points="8.12 10.72 8.25 11.11 8.66 11.11 8.33 11.35 8.45 11.74 8.12 11.5 7.79 11.74 7.92 11.35 7.59 11.11 7.99 11.11 8.12 10.72"/>
      </g>
    </g>
  </g>
</svg>