<?xml version="1.0" encoding="UTF-8"?>
<svg id="Layer_1" data-name="Layer 1" xmlns="http://www.w3.org/2000/svg" viewBox="0 0 24 24">
  <defs>
    <style>
      .cls-1 {
        fill: #000;
      }

      .cls-1, .cls-2, .cls-3, .cls-4, .cls-5 {
        stroke-width: 0px;
      }

      .cls-2 {
        fill: none;
      }

      .cls-3 {
        fill: #032774;
      }

      .cls-4 {
        fill: #fff;
      }

      .cls-5 {
        fill: #df0333;
      }
    </style>
  </defs>
  <rect class="cls-2" width="24" height="24"/>
  <g>
    <path class="cls-1" d="M16.71,7.34c2.92,2.92,3.18,7.42.57,10.03-2.61,2.61-7.11,2.35-10.03-.57-2.92-2.92-3.18-7.42-.57-10.03,2.61-2.61,7.11-2.35,10.03.57Z"/>
    <g>
      <g>
        <path class="cls-3" d="M19.14,6.53c-1.65-2.14-4.23-3.53-7.14-3.53s-5.49,1.38-7.14,3.53c-.11.15-.22.29-.32.45-.1.15-.2.31-.29.46-.06.11-.12.21-.18.32-.03.05-.06.11-.08.16-.07.14-.14.29-.2.43-.05.12-.11.24-.16.36-.14.36-.25.72-.35,1.09-.03.12-.06.24-.08.36-.06.29-.11.59-.14.9-.02.21-.03.42-.04.63,0,.1,0,.2,0,.3,0,2.06.69,3.96,1.86,5.48,1.65,2.14,4.23,3.52,7.14,3.52s5.49-1.38,7.14-3.52c1.17-1.52,1.86-3.42,1.86-5.48s-.69-3.96-1.86-5.47Z"/>
        <g>
          <path class="cls-3" d="M4.84,10.17l-1.79.9c.03-.31.08-.6.14-.9h1.65Z"/>
          <path class="cls-3" d="M6.97,6.53v1.67l-2.44-1.22c.1-.16.21-.31.32-.45h2.11Z"/>
          <path class="cls-3" d="M4.84,8.35h-1.07c.06-.15.13-.29.2-.43l.86.43Z"/>
          <polygon class="cls-3" points="13.36 8.35 13.36 7.13 10.93 8.35 13.36 8.35"/>
          <polygon class="cls-3" points="12.13 6.53 8.8 6.53 8.8 8.19 12.13 6.53"/>
          <polygon class="cls-3" points="13.36 11.39 13.36 10.17 10.93 10.17 13.36 11.39"/>
          <polygon class="cls-3" points="3.64 12 6.97 12 6.97 10.33 3.64 12"/>
          <polygon class="cls-3" points="8.8 12 12.13 12 8.8 10.33 8.8 12"/>
          <path class="cls-4" d="M13.36,7.13l-2.43,1.22h2.43v1.82h-2.43l2.43,1.22v.21l-2.84-1.42h-.82l3.65,1.83h-1.22l-3.34-1.67v1.67h-1.82v-1.67l-3.34,1.67h-.41l3.65-1.83h-.82l-3.05,1.53c0-.21.02-.42.04-.63l1.79-.9h-1.65c.02-.12.05-.24.08-.36.09-.37.21-.74.35-1.09.05-.12.1-.24.16-.36h1.07l-.86-.43c.03-.05.06-.11.08-.16l1.18.59h.82l-1.82-.91c.09-.16.19-.32.29-.46l2.44,1.22v-1.67h1.82v1.67l3.34-1.67h.41l-3.65,1.83h.82l3.65-1.83h0v.61Z"/>
          <path class="cls-5" d="M6.06,8.35h-.82l-1.18-.59c.06-.11.12-.21.18-.32l1.82.91Z"/>
          <polygon class="cls-5" points="9.7 10.17 13.35 12 13.36 12 13.36 11.6 10.52 10.17 9.7 10.17"/>
          <polygon class="cls-5" points="8.89 8.35 9.71 8.35 13.35 6.53 12.54 6.53 8.89 8.35"/>
          <path class="cls-5" d="M6.88,10.17l-3.65,1.83h-.23c0-.1,0-.2,0-.3l3.05-1.53h.82Z"/>
          <path class="cls-5" d="M13.36,8.72v1.09h-4.93v2.19h-1.09v-2.19H3.27c.09-.37.21-.74.35-1.09h3.72v-2.19h1.09v2.19h4.93Z"/>
        </g>
      </g>
      <g>
        <polygon class="cls-4" points="17.2 7.74 17.34 8.19 17.82 8.19 17.43 8.47 17.58 8.92 17.2 8.64 16.81 8.92 16.96 8.47 16.57 8.19 17.05 8.19 17.2 7.74"/>
        <polygon class="cls-4" points="15.73 8.05 16.05 8.41 16.48 8.21 16.25 8.62 16.56 8.98 16.1 8.88 15.86 9.29 15.81 8.82 15.35 8.72 15.78 8.53 15.73 8.05"/>
        <polygon class="cls-4" points="14.53 8.93 14.96 9.13 15.27 8.77 15.22 9.24 15.66 9.44 15.19 9.54 15.15 10.01 14.91 9.6 14.44 9.69 14.76 9.34 14.53 8.93"/>
        <polygon class="cls-4" points="13.78 10.23 14.25 10.23 14.4 9.78 14.54 10.23 15.02 10.23 14.63 10.51 14.78 10.96 14.4 10.68 14.01 10.96 14.16 10.51 13.78 10.23"/>
        <polygon class="cls-4" points="13.62 11.71 14.05 11.52 14 11.05 14.32 11.4 14.76 11.21 14.52 11.62 14.83 11.97 14.37 11.87 14.13 12.28 14.08 11.81 13.62 11.71"/>
        <polygon class="cls-4" points="14.08 13.13 14.4 12.78 14.16 12.37 14.6 12.56 14.91 12.21 14.86 12.68 15.3 12.87 14.83 12.97 14.78 13.44 14.55 13.03 14.08 13.13"/>
        <polygon class="cls-4" points="15.08 14.24 15.23 13.79 14.85 13.52 15.32 13.52 15.47 13.06 15.61 13.52 16.09 13.52 15.7 13.79 15.85 14.24 15.47 13.97 15.08 14.24"/>
        <polygon class="cls-4" points="16.45 14.85 16.4 14.38 15.94 14.28 16.37 14.09 16.32 13.62 16.63 13.97 17.07 13.78 16.83 14.19 17.15 14.54 16.68 14.44 16.45 14.85"/>
        <polygon class="cls-4" points="17.94 14.85 17.71 14.44 17.24 14.54 17.56 14.19 17.32 13.78 17.76 13.97 18.07 13.62 18.02 14.09 18.45 14.28 17.99 14.38 17.94 14.85"/>
        <polygon class="cls-4" points="19.31 14.24 18.92 13.97 18.54 14.24 18.69 13.79 18.3 13.52 18.78 13.52 18.92 13.06 19.07 13.52 19.54 13.52 19.16 13.79 19.31 14.24"/>
        <polygon class="cls-4" points="20.31 13.13 19.84 13.03 19.61 13.44 19.56 12.97 19.09 12.87 19.53 12.68 19.48 12.21 19.79 12.56 20.23 12.37 19.99 12.78 20.31 13.13"/>
        <polygon class="cls-4" points="20.77 11.71 20.31 11.81 20.26 12.28 20.02 11.87 19.56 11.97 19.87 11.62 19.63 11.21 20.07 11.4 20.39 11.05 20.34 11.52 20.77 11.71"/>
        <polygon class="cls-4" points="20.61 10.23 20.23 10.51 20.38 10.96 19.99 10.68 19.61 10.96 19.76 10.51 19.37 10.23 19.85 10.23 19.99 9.78 20.14 10.23 20.61 10.23"/>
        <polygon class="cls-4" points="19.86 8.93 19.63 9.34 19.95 9.69 19.48 9.6 19.24 10.01 19.2 9.54 18.73 9.44 19.17 9.24 19.12 8.77 19.43 9.13 19.86 8.93"/>
        <polygon class="cls-4" points="18.66 8.05 18.61 8.53 19.04 8.72 18.58 8.82 18.53 9.29 18.29 8.88 17.83 8.98 18.14 8.62 17.91 8.21 18.34 8.41 18.66 8.05"/>
      </g>
    </g>
  </g>
</svg>