<?xml version="1.0" encoding="UTF-8"?>
<svg id="Layer_1" data-name="Layer 1" xmlns="http://www.w3.org/2000/svg" viewBox="0 0 24 24">
  <defs>
    <style>
      .cls-1 {
        fill: #000;
      }

      .cls-1, .cls-2, .cls-3, .cls-4, .cls-5 {
        stroke-width: 0px;
      }

      .cls-2 {
        fill: none;
      }

      .cls-3 {
        fill: #cd1225;
      }

      .cls-4 {
        fill: #fff;
      }

      .cls-5 {
        fill: #042b7d;
      }
    </style>
  </defs>
  <rect class="cls-2" width="24" height="24"/>
  <g>
    <path class="cls-1" d="M16.71,7.34c2.92,2.92,3.18,7.42.57,10.03-2.61,2.61-7.11,2.36-10.03-.57-2.92-2.92-3.18-7.42-.57-10.03,2.61-2.61,7.11-2.36,10.03.57Z"/>
    <g>
      <path class="cls-5" d="M18.7,6H5.3c1.65-1.84,4.04-3,6.7-3s5.05,1.16,6.7,3Z"/>
      <path class="cls-4" d="M20.48,15c-.39,1.12-1.01,2.13-1.78,3H5.3c-.78-.87-1.39-1.88-1.78-3h16.97Z"/>
      <path class="cls-5" d="M18.7,18c-1.65,1.84-4.04,3-6.7,3s-5.05-1.16-6.7-3h13.41Z"/>
      <path class="cls-3" d="M21,12c0,1.05-.18,2.06-.52,3H3.52c-.33-.94-.52-1.95-.52-3s.18-2.06.52-3h16.97c.33.94.52,1.95.52,3Z"/>
      <path class="cls-4" d="M20.48,9H3.52c.4-1.12,1.01-2.13,1.78-3h13.41c.78.87,1.39,1.88,1.78,3Z"/>
    </g>
  </g>
</svg>