<?xml version="1.0" encoding="UTF-8"?>
<svg id="Layer_1" data-name="Layer 1" xmlns="http://www.w3.org/2000/svg" viewBox="0 0 24 24">
  <defs>
    <style>
      .cls-1 {
        fill: #000;
      }

      .cls-1, .cls-2, .cls-3, .cls-4, .cls-5, .cls-6, .cls-7 {
        stroke-width: 0px;
      }

      .cls-2 {
        fill: #0993db;
      }

      .cls-3 {
        fill: none;
      }

      .cls-4 {
        fill: #191994;
      }

      .cls-5 {
        fill: #ff0302;
      }

      .cls-6 {
        fill: #f6da24;
      }

      .cls-7 {
        fill: #fff;
      }
    </style>
  </defs>
  <rect class="cls-3" width="24" height="24"/>
  <g>
    <path class="cls-1" d="M16.71,7.34c2.92,2.92,3.18,7.42.57,10.03-2.61,2.61-7.11,2.36-10.03-.57-2.92-2.92-3.18-7.42-.57-10.03,2.61-2.61,7.11-2.36,10.03.57Z"/>
    <g>
      <g>
        <path class="cls-5" d="M20.48,9H3.52c.91-2.55,2.93-4.58,5.48-5.48.94-.33,1.95-.52,3-.52s2.06.18,3,.52c2.55.91,4.58,2.93,5.48,5.48Z"/>
        <path class="cls-4" d="M20.48,15c-.91,2.55-2.93,4.58-5.48,5.48-.94.33-1.95.52-3,.52s-2.06-.18-3-.52c-2.55-.91-4.58-2.93-5.48-5.48h16.97Z"/>
        <path class="cls-7" d="M21,12c0,1.05-.18,2.06-.52,3H3.52c-.33-.94-.52-1.95-.52-3s.18-2.06.52-3h16.97c.34.94.52,1.95.52,3Z"/>
      </g>
      <g>
        <g>
          <path class="cls-5" d="M8.69,9.19v3.97c0,.13,0,.27.02.4.04.31.12.61.24.89.08.2.18.38.3.56,0,0,0,0,0,0h.76v-2.91h2.64v-1.45h2.64v-1.45h-6.61ZM8.69,9.19v3.97c0,.13,0,.27.02.4.04.31.12.61.24.89.08.2.18.38.3.56,0,0,0,0,0,0,.12.17.25.34.4.49.11.11.23.21.36.31.21.16.45.29.69.4.2.09.41.15.63.2v-1.39h-1.32v-2.91h2.64v-1.45h2.64v-1.45h-6.61ZM11.91,16.46h.19-.19ZM8.69,9.19v3.97c0,.13,0,.27.02.4.04.31.12.61.24.89.08.2.18.38.3.56,0,0,0,0,0,0,.12.17.25.34.4.49.11.11.23.21.36.31.21.16.45.29.69.4.2.09.41.15.63.2.19.04.38.06.57.06h.19c.19,0,.38-.03.57-.06v-1.39h-2.64v-2.91h2.64v-1.45h2.64v-1.45h-6.61ZM8.69,9.19v3.97c0,.13,0,.27.02.4.04.31.12.61.24.89.08.2.18.38.3.56,0,0,0,0,0,0,.12.17.25.34.4.49.11.11.23.21.36.31.21.16.45.29.69.4.2.09.41.15.63.2.19.04.38.06.57.06h.19c.19,0,.38-.03.57-.06.21-.04.42-.11.62-.2.25-.11.48-.24.7-.4.13-.09.24-.2.35-.31.15-.15.28-.31.4-.49,0,0,0,0,0,0,.12-.18.22-.36.3-.56.12-.28.2-.58.24-.89.02-.13.02-.26.02-.4v-3.97h-6.61ZM8.69,9.19v3.97c0,.13,0,.27.02.4.04.31.12.61.24.89.08.2.18.38.3.56,0,0,0,0,0,0,.12.17.25.34.4.49.11.11.23.21.36.31.21.16.45.29.69.4.2.09.41.15.63.2.19.04.38.06.57.06h.19c.19,0,.38-.03.57-.06.21-.04.42-.11.62-.2.25-.11.48-.24.7-.4.13-.09.24-.2.35-.31.15-.15.28-.31.4-.49,0,0,0,0,0,0,.12-.18.22-.36.3-.56.12-.28.2-.58.24-.89.02-.13.02-.26.02-.4v-3.97h-6.61ZM8.69,9.19v3.97c0,.13,0,.27.02.4.04.31.12.61.24.89.08.2.18.38.3.56,0,0,0,0,0,0,.12.17.25.34.4.49.11.11.23.21.36.31.21.16.45.29.69.4.2.09.41.15.63.2.19.04.38.06.57.06h.19c.19,0,.38-.03.57-.06.21-.04.42-.11.62-.2.25-.11.48-.24.7-.4.13-.09.24-.2.35-.31.15-.15.28-.31.4-.49,0,0,0,0,0,0,.12-.18.22-.36.3-.56.12-.28.2-.58.24-.89.02-.13.02-.26.02-.4v-3.97h-6.61ZM8.69,9.19v3.97c0,.13,0,.27.02.4.04.31.12.61.24.89.08.2.18.38.3.56,0,0,0,0,0,0,.12.17.25.34.4.49.11.11.23.21.36.31.21.16.45.29.69.4.2.09.41.15.63.2.19.04.38.06.57.06h.19c.19,0,.38-.03.57-.06.21-.04.42-.11.62-.2.25-.11.48-.24.7-.4.13-.09.24-.2.35-.31.15-.15.28-.31.4-.49,0,0,0,0,0,0,.12-.18.22-.36.3-.56.12-.28.2-.58.24-.89.02-.13.02-.26.02-.4v-3.97h-6.61ZM8.69,9.19v3.97c0,.13,0,.27.02.4.04.31.12.61.24.89.08.2.18.38.3.56,0,0,0,0,0,0,.12.17.25.34.4.49.11.11.23.21.36.31.21.16.45.29.69.4.2.09.41.15.63.2.19.04.38.06.57.06h.19c.19,0,.38-.03.57-.06.21-.04.42-.11.62-.2.25-.11.48-.24.7-.4.13-.09.24-.2.35-.31.15-.15.28-.31.4-.49,0,0,0,0,0,0,.12-.18.22-.36.3-.56.12-.28.2-.58.24-.89.02-.13.02-.26.02-.4v-3.97h-6.61ZM8.69,9.19v3.97c0,.13,0,.27.02.4.04.31.12.61.24.89.08.2.18.38.3.56,0,0,0,0,0,0,.12.17.25.34.4.49.11.11.23.21.36.31.21.16.45.29.69.4.2.09.41.15.63.2.19.04.38.06.57.06h.19c.19,0,.38-.03.57-.06.21-.04.42-.11.62-.2.25-.11.48-.24.7-.4.13-.09.24-.2.35-.31.15-.15.28-.31.4-.49,0,0,0,0,0,0,.12-.18.22-.36.3-.56.12-.28.2-.58.24-.89.02-.13.02-.26.02-.4v-3.97h-6.61ZM8.69,9.19v3.97c0,.13,0,.27.02.4.04.31.12.61.24.89.08.2.18.38.3.56,0,0,0,0,0,0,.12.17.25.34.4.49.11.11.23.21.36.31.21.16.45.29.69.4.2.09.41.15.63.2.19.04.38.06.57.06h.19c.19,0,.38-.03.57-.06.21-.04.42-.11.62-.2.25-.11.48-.24.7-.4.13-.09.24-.2.35-.31.15-.15.28-.31.4-.49,0,0,0,0,0,0,.12-.18.22-.36.3-.56.12-.28.2-.58.24-.89.02-.13.02-.26.02-.4v-3.97h-6.61ZM8.69,9.19v3.97c0,.13,0,.27.02.4.04.31.12.61.24.89.08.2.18.38.3.56,0,0,0,0,0,0,.12.17.25.34.4.49.11.11.23.21.36.31.21.16.45.29.69.4.2.09.41.15.63.2.19.04.38.06.57.06h.19c.19,0,.38-.03.57-.06.21-.04.42-.11.62-.2.25-.11.48-.24.7-.4.13-.09.24-.2.35-.31.15-.15.28-.31.4-.49,0,0,0,0,0,0,.12-.18.22-.36.3-.56.12-.28.2-.58.24-.89.02-.13.02-.26.02-.4v-3.97h-6.61ZM8.69,9.19v3.97c0,.13,0,.27.02.4.04.31.12.61.24.89.08.2.18.38.3.56,0,0,0,0,0,0,.12.17.25.34.4.49.11.11.23.21.36.31.21.16.45.29.69.4.2.09.41.15.63.2.19.04.38.06.57.06h.19c.19,0,.38-.03.57-.06.21-.04.42-.11.62-.2.25-.11.48-.24.7-.4.13-.09.24-.2.35-.31.15-.15.28-.31.4-.49,0,0,0,0,0,0,.12-.18.22-.36.3-.56.12-.28.2-.58.24-.89.02-.13.02-.26.02-.4v-3.97h-6.61ZM8.69,9.19v3.97c0,.13,0,.27.02.4.04.31.12.61.24.89.08.2.18.38.3.56,0,0,0,0,0,0,.12.17.25.34.4.49.11.11.23.21.36.31.21.16.45.29.69.4.2.09.41.15.63.2.19.04.38.06.57.06h.19c.19,0,.38-.03.57-.06v-1.39h-2.64v-2.91h2.64v-1.45h2.64v-1.45h-6.61ZM8.69,9.19v3.97c0,.13,0,.27.02.4.04.31.12.61.24.89.08.2.18.38.3.56,0,0,0,0,0,0,.12.17.25.34.4.49.11.11.23.21.36.31v-3.7h2.64v-1.45h2.64v-1.45h-6.61ZM8.69,9.19v3.97c0,.13,0,.27.02.4h1.3v-1.45h2.64v-1.45h2.64v-1.45h-6.61Z"/>
          <path class="cls-5" d="M8.5,9v4.16c0,.4.07.79.19,1.15.08.24.2.47.33.69,0,0,0,0,0,0,.25.41.59.76.99,1.03.25.17.53.32.83.42.36.13.75.2,1.16.2s.8-.07,1.16-.2c.29-.11.57-.25.83-.42.4-.27.73-.63.99-1.03,0,0,0,0,0,0,.14-.22.24-.45.33-.69.13-.36.19-.75.19-1.15v-4.16h-7ZM15.44,13.16c0,.32-.04.64-.13.94-.04.13-.09.27-.14.4-.07.18-.16.34-.26.51,0,0,0,0,0,0-.14.21-.29.4-.47.58-.14.14-.29.26-.44.38-.2.14-.42.26-.65.36-.13.05-.26.1-.39.14-.31.09-.62.13-.94.13s-.64-.04-.94-.13c-.13-.04-.27-.08-.4-.14-.23-.1-.44-.22-.64-.36-.16-.11-.31-.24-.45-.38-.18-.18-.33-.37-.47-.58,0,0,0,0,0,0-.1-.16-.19-.33-.26-.51-.05-.13-.1-.26-.14-.4-.08-.3-.13-.62-.13-.94v-4.09h6.87v4.09Z"/>
          <path class="cls-7" d="M8.57,9.06v4.09c0,.32.04.64.13.94.04.13.09.27.14.4.07.18.16.34.26.51,0,0,0,0,0,0,.13.21.29.4.47.58.14.14.29.26.45.38.2.14.42.26.64.36.13.05.26.1.4.14.31.09.62.13.94.13s.64-.04.94-.13c.13-.04.26-.08.39-.14.23-.1.44-.22.65-.36.16-.11.31-.24.44-.38.18-.18.33-.37.47-.58,0,0,0,0,0,0,.1-.16.19-.33.26-.51.05-.13.1-.26.14-.4.08-.3.13-.62.13-.94v-4.09h-6.87ZM15.31,13.16c0,.13,0,.27-.02.4-.04.31-.12.61-.24.89-.08.2-.18.38-.3.56,0,0,0,0,0,0-.12.17-.25.34-.4.49-.11.11-.23.21-.35.31-.21.16-.45.29-.7.4-.2.09-.41.15-.62.2-.19.04-.38.06-.57.06h-.19c-.19,0-.38-.03-.57-.06-.21-.04-.42-.11-.63-.2-.25-.11-.48-.24-.69-.4-.13-.09-.24-.2-.36-.31-.15-.15-.28-.31-.4-.49,0,0,0,0,0,0-.12-.18-.22-.36-.3-.56-.12-.28-.2-.58-.24-.89-.02-.13-.02-.26-.02-.4v-3.97h6.61v3.97Z"/>
          <path class="cls-7" d="M15.31,9.19v3.97c0,.13,0,.27-.02.4-.04.31-.12.61-.24.89-.08.2-.19.39-.3.56-.12.17-.25.34-.4.49-.11.11-.23.21-.35.31-.21.16-.45.3-.7.4-.2.08-.41.15-.62.19-.19.04-.38.06-.57.06h-.19c-.19,0-.38-.03-.57-.06-.21-.04-.42-.11-.62-.19-.25-.11-.48-.24-.7-.4-.13-.09-.24-.2-.36-.31-.15-.15-.28-.31-.4-.49-.12-.18-.22-.37-.31-.56-.12-.28-.2-.58-.24-.89-.02-.13-.02-.26-.02-.4v-3.97h6.61Z"/>
          <path class="cls-7" d="M15.31,9.19v3.97c0,.13,0,.27-.02.4-.04.31-.12.61-.24.89-.08.2-.19.39-.3.56-.12.17-.25.34-.4.49-.11.11-.23.21-.35.31-.21.16-.45.3-.7.4-.2.08-.41.15-.62.19-.19.04-.38.06-.57.06h-.19c-.19,0-.38-.03-.57-.06-.21-.04-.42-.11-.62-.19-.25-.11-.48-.24-.7-.4-.13-.09-.24-.2-.36-.31-.15-.15-.28-.31-.4-.49-.12-.18-.22-.37-.31-.56-.12-.28-.2-.58-.24-.89-.02-.13-.02-.26-.02-.4v-3.97h6.61Z"/>
          <g>
            <rect class="cls-5" x="8.69" y="9.19" width="1.32" height="1.45"/>
            <rect class="cls-7" x="10.02" y="9.19" width="1.32" height="1.45"/>
            <rect class="cls-5" x="11.34" y="9.19" width="1.32" height="1.45"/>
            <rect class="cls-7" x="12.66" y="9.19" width="1.32" height="1.45"/>
            <rect class="cls-5" x="13.98" y="9.19" width="1.32" height="1.45"/>
          </g>
          <g>
            <rect class="cls-7" x="8.69" y="10.65" width="1.32" height="1.45"/>
            <rect class="cls-5" x="10.02" y="10.65" width="1.32" height="1.45"/>
            <rect class="cls-7" x="11.34" y="10.65" width="1.32" height="1.45"/>
            <rect class="cls-5" x="12.66" y="10.65" width="1.32" height="1.45"/>
            <rect class="cls-7" x="13.98" y="10.65" width="1.32" height="1.45"/>
          </g>
          <g>
            <path class="cls-5" d="M10.02,12.1v1.45h-1.3c-.02-.13-.02-.26-.02-.4v-1.06h1.32Z"/>
            <rect class="cls-7" x="10.02" y="12.1" width="1.32" height="1.45"/>
            <rect class="cls-5" x="11.34" y="12.1" width="1.32" height="1.45"/>
            <rect class="cls-7" x="12.66" y="12.1" width="1.32" height="1.45"/>
            <path class="cls-5" d="M15.31,12.1v1.06c0,.13,0,.27-.02.4h-1.3v-1.45h1.32Z"/>
          </g>
          <g>
            <path class="cls-7" d="M10.02,13.55v1.45h-.76c-.12-.18-.22-.37-.31-.56-.12-.28-.2-.58-.24-.89h1.3Z"/>
            <rect class="cls-5" x="10.02" y="13.55" width="1.32" height="1.45"/>
            <rect class="cls-7" x="11.34" y="13.55" width="1.32" height="1.45"/>
            <rect class="cls-5" x="12.66" y="13.55" width="1.32" height="1.45"/>
            <path class="cls-7" d="M15.28,13.55c-.04.31-.12.61-.24.89-.08.2-.19.39-.3.56h-.76v-1.45h1.3Z"/>
          </g>
          <g>
            <path class="cls-5" d="M10.02,15.01v.79c-.13-.09-.24-.2-.36-.31-.15-.15-.28-.31-.4-.49h.76Z"/>
            <path class="cls-7" d="M11.34,15.01v1.39c-.21-.04-.42-.11-.62-.19-.25-.11-.48-.24-.7-.4v-.79h1.32Z"/>
            <path class="cls-5" d="M12.66,15.01v1.39c-.19.04-.38.06-.57.06h-.19c-.19,0-.38-.03-.57-.06v-1.39h1.32Z"/>
            <path class="cls-7" d="M13.98,15.01v.79c-.21.16-.45.3-.7.4-.2.08-.41.15-.62.19v-1.39h1.32Z"/>
            <path class="cls-5" d="M14.74,15.01c-.12.17-.25.34-.4.49-.11.11-.23.21-.35.31v-.79h.76Z"/>
          </g>
        </g>
        <g>
          <g>
            <g>
              <path class="cls-7" d="M14.39,7.34h-.09s-.03.11-.03.11h.08c.46.08.9.22,1.32.43l.06.03.05-.11-.08-.04c-.41-.2-.85-.35-1.3-.41Z"/>
              <path class="cls-2" d="M15.5,6.1l-1.01.39-.2.83h.09c.45.08.89.22,1.3.43l.08.04.32-.79-.59-.9Z"/>
              <path class="cls-2" d="M14.18,7.89h0s-.14.57-.14.57c.23.06.45.12.66.19.22.08.43.16.63.24l.23-.57h0c-.43-.22-.9-.37-1.38-.44Z"/>
              <path class="cls-5" d="M14.35,7.45h-.08s-.08.32-.08.32h.03c.47.07.93.22,1.36.44h.02s.13-.31.13-.31l-.06-.03c-.41-.21-.86-.35-1.32-.42Z"/>
              <path class="cls-7" d="M14.22,7.78h-.03s-.03.12-.03.12h0c.48.07.95.22,1.38.44h0l.05-.11h-.02c-.43-.23-.89-.38-1.36-.44Z"/>
            </g>
            <g>
              <polygon class="cls-4" points="10.23 5.69 9.51 6.49 10.35 6.36 11.16 6.23 10.23 5.69"/>
              <path class="cls-5" d="M11.16,6.23h0s-.24.01-.24.01c-.39.02-.78.08-1.16.18l-.25.06h0l.12.5.81-.13.77-.12-.04-.51Z"/>
              <path class="cls-4" d="M11.2,6.74h-.16c-.41.03-.82.09-1.22.19l-.2.05.11.48.79-.12.72-.11-.04-.49Z"/>
              <path class="cls-5" d="M11.24,7.23h-.08c-.43.02-.86.09-1.28.2l-.14.04.11.47.76-.12.67-.11-.04-.49Z"/>
              <path class="cls-4" d="M11.28,7.72h0c-.46.02-.91.08-1.35.2l-.08.02.12.53c.23-.06.47-.11.72-.15.2-.03.41-.06.63-.07l-.04-.52Z"/>
            </g>
            <g>
              <path class="cls-4" d="M14.5,6.49l-.46,1.97c-.42-.11-.87-.18-1.35-.22l.16-2.01.93-.54.72.8Z"/>
              <path class="cls-2" d="M12.84,6.23l-.16,2.01c-.22-.02-.45-.03-.68-.03s-.46.01-.68.03l-.16-2.01.84-.68.84.68Z"/>
              <path class="cls-2" d="M9.97,8.46c-.48.12-.92.27-1.29.44l-.77-1.9.59-.9,1.01.39.46,1.97Z"/>
            </g>
            <path class="cls-7" d="M16.13,6.98l-.59-.9s-.03-.02-.04-.01l-.98.38-.71-.78s-.03-.02-.04,0l-.91.53-.82-.66s-.03-.01-.05,0l-.82.66-.91-.53s-.03,0-.04,0l-.71.78-.98-.38s-.03,0-.04.01l-.59.9s0,.02,0,.03l.77,1.9h0s0,0,0,0h0s0,0,0,0c0,0,0,0,0,0h0s0,0,0,0t0,0h0s0,0,0,0h0s0,0,0,0h0s0,0,0,0h0s0,0,0,0h0c.4-.18.84-.32,1.29-.43.44-.11.89-.19,1.34-.22h0c.23-.02.45-.03.68-.03s.45.01.68.03c.45.04.9.11,1.34.22.45.11.88.26,1.29.44h0s0,0,0,0h.02s0,0,0,0h0s0,0,0,0c0,0,0,0,0,0h0s0,0,0,0h0s0,0,0,0h0s0,0,0,0h0l.77-1.9s0-.02,0-.03ZM15.57,8.21l-.05.11-.22.54c-.4-.17-.82-.32-1.26-.43h0c-.45-.11-.9-.19-1.35-.22h0c-.23-.02-.46-.03-.69-.03s-.46,0-.68.03h0c-.45.04-.91.11-1.35.22h0c-.44.11-.86.25-1.26.42l-.75-1.85.57-.86.98.38s0,0,0,0h.01s0,0,0,0h0s0,0,0,0h0s0,0,0,0h0l.03-.03h0s.66-.75.66-.75l.86.5h.01s.04.03.04.03h0s0,0,0,0t0,0h.02s0,0,0,0c0,0,0,0,0,0h0s0,0,0,0c0,0,0,0,0,0l.81-.66.82.66h0s0,0,0,0c0,0,0,0,0,0h0s0,0,0,0h.02s0,0,0,0c0,0,0,0,0,0h0l.91-.53.71.78h0s0,0,0,0c0,0,0,0,0,0h0s0,0,0,0h.01s0,0,0,0l.98-.38.57.86-.31.77-.05.11-.13.32Z"/>
          </g>
          <g>
            <path class="cls-6" d="M9.09,7.02l-.13-.11.03-.17s0,0,0,0h0l-.16.06-.13-.12s0,0-.01,0l-.03.17-.16.06s0,0,0,0,0,0,0,0l.13.12-.03.17s0,0,0,0h0l.16-.06.13.12s0,0,0,0c0,0,0,0,0,0l.03-.17.17-.06h0s0,0,0-.01Z"/>
            <g>
              <path class="cls-1" d="M9.09,7.02l-.13-.11.03-.17s0,0,0,0h0l-.16.06-.13-.12s0,0-.01,0l-.03.17-.16.06s0,0,0,0,0,0,0,0l.13.12-.03.17s0,0,0,0h0l.16-.06.13.12s0,0,0,0c0,0,0,0,0,0l.03-.17.17-.06h0s0,0,0-.01ZM8.95,6.91l-.15.05.18-.21-.03.16ZM8.82,6.8l.15-.05-.18.21.03-.16ZM8.81,6.8l-.03.16-.09-.26.12.11ZM8.69,6.7l.09.26-.12-.11.03-.16ZM8.65,6.86l.12.11-.28-.05.15-.05ZM8.5,6.92l.27.05-.15.05-.12-.11ZM8.63,7.03l.15-.06-.18.21.03-.16ZM8.75,7.14h0l-.15.05.18-.21-.03.16ZM8.76,7.14l.03-.16.09.26-.12-.11ZM8.88,7.24l-.09-.26.12.11-.03.16ZM8.92,7.08l-.12-.11.27.05-.15.05ZM8.8,6.97l.15-.05.12.11-.28-.05Z"/>
              <path class="cls-7" d="M9.46,7.4s0,.05,0,.08c0,.28-.22.51-.5.52-.19,0-.37-.11-.45-.27.04.24.25.42.51.42.28,0,.51-.23.5-.51,0-.08-.02-.16-.06-.23Z"/>
            </g>
          </g>
          <g>
            <path class="cls-6" d="M15.55,6.91s0,0,0,0l-.16-.06-.03-.17s0,0,0,0l-.13.12-.16-.06h0s0,0,0,0l.03.17-.13.11s0,0,0,0t0,0l.17.06.03.17s0,0,0,0c0,0,0,0,0,0l.13-.12.17.06h0s-.03-.18-.03-.18l.13-.12s0,0,0,0Z"/>
            <path class="cls-1" d="M15.55,6.91s0,0,0,0l-.16-.06-.03-.17s0,0,0,0l-.13.12-.16-.06h0s0,0,0,0l.03.17-.13.11s0,0,0,0t0,0l.17.06.03.17s0,0,0,0c0,0,0,0,0,0l.13-.12.17.06h0s-.03-.18-.03-.18l.13-.12s0,0,0,0ZM15.53,6.91l-.27.05.12-.11.15.05ZM15.34,6.7l.03.16-.12.11.09-.26ZM15.33,6.69l-.09.26-.03-.16.12-.11ZM15.2,6.8h0l.03.16-.18-.21.15.05ZM15.05,6.75l.18.21-.15-.05-.03-.16ZM15.08,6.92l.15.05-.27.05.12-.11ZM14.96,7.03l.27-.05-.12.11-.15-.05ZM15.14,7.24l-.03-.16.12-.11-.09.26ZM15.15,7.24l.09-.26.03.16-.12.11ZM15.27,7.14l-.03-.16.18.21-.15-.05ZM15.43,7.19l-.18-.21.15.06.03.16ZM15.4,7.02l-.15-.05.27-.05-.12.11Z"/>
          </g>
          <g>
            <path class="cls-1" d="M14.56,7.53s-.04.01-.05.01c0,0-.04,0-.03.02,0,.01.06.05.1.05.02.01.06.06.05.08-.03,0-.07.02-.09.01-.02,0-.04-.01-.05,0,0,.01.02.05.05.05.02-.01.07-.02.12-.01.04.01.1.04.1.05-.03.01-.05.02-.07.01-.02-.01-.05-.02-.05,0,0,.02.02.04.05.04.03,0,.01.01.02.01.01,0,.14.01.17-.01s.08.03.12.03c.03,0,.02,0,.02,0,0,0,0,.02-.03.02-.02,0-.07-.02-.07,0s.03.04.06.04c.03,0,.05-.02.05-.02,0,0,.05,0,.07,0,.02,0,.05-.01.07,0,.02,0,.09.07.13.08.03.02.02.04,0,.04-.01,0-.04.02,0,.04.02,0,.05-.01.05-.02,0-.01.02,0,.02-.02s-.03-.02-.03-.04c0-.02,0-.04-.04-.06-.03-.02-.03-.04-.03-.05,0-.01,0-.03-.01-.05.02,0,.04,0,.09.03.04.03.09.06.14.06.05,0,.06-.03.05-.05s-.06-.05-.14-.06c-.07,0-.12-.02-.16-.05-.04-.02-.06-.05-.15-.04-.08,0-.17-.01-.21-.04-.05-.02-.12-.05-.16-.06s-.05-.03-.05-.04c0-.01,0-.04-.02-.04-.02,0-.04-.03-.06-.03-.02,0-.02.02-.02.02Z"/>
            <path class="cls-7" d="M14.89,7.8s.06-.01.08,0,.08.01.12.07c-.04,0-.11-.01-.13-.02s-.07-.04-.08-.04c0,0,0,0,0,0Z"/>
          </g>
          <g>
            <g>
              <g>
                <g>
                  <path class="cls-6" d="M11.88,6.85s-.01-.04-.04-.05c.08-.02.08-.07.08-.08s0,0,0,0t0,0s-.03,0-.06,0c.04-.04.06-.09.06-.14,0,0,0,0,0,0,0,0,0,0,0,0,0,0-.02,0-.04.01-.02,0-.03,0-.06.01,0-.03.04-.09.07-.13.01-.01.02-.03.02-.03,0,0,0-.01,0-.02,0,0-.02,0-.04.01,0,0-.01,0-.02,0-.03,0-.04,0-.06.03-.03-.01-.05,0-.07.03,0-.01,0-.02-.01-.02,0,0,0,0-.01,0,0-.01,0-.02,0-.03h0l-.07-.07h0s0,0,0,0h0l-.07.07h0s0,.02,0,.03c0,0,0,0-.01,0,0,0-.01.01-.01.02-.02-.03-.04-.04-.07-.03-.02-.02-.03-.03-.06-.03,0,0-.01,0-.02,0-.02-.01-.04-.02-.04-.01,0,0,0,.01,0,.02,0,0,.01.02.02.03.03.04.07.1.07.13-.02,0-.04-.01-.06-.01-.02,0-.03,0-.04-.01,0,0,0,0,0,0,0,0,0,0,0,0,0,.04.02.1.06.14-.03,0-.06,0-.06,0t0,0s0,0,0,0,0,.05.08.08c-.02.02-.03.04-.03.05,0,.02,0,.02-.02.03,0,0,0,0,0,0,0,0,0,0,0,.01.01.01.06.02.1,0-.01.02-.02.03-.02.07t0,0h0s.05,0,.06,0c0,.01,0,.03-.01.04,0,.01,0,.02,0,.02s0,0,0,0c0,0,0,0,0,0,.04,0,.07,0,.08-.01,0,.03,0,.04,0,.06,0,0,0,0,0,0s0,0,0,0c0,0,0,0,0,0,.01-.01.02-.03.03-.04.01.01.02.03.02.04,0,0,0,0,0,0,0,0,0,0,0,0,0-.01.01-.03.02-.04,0,0,.02.02.03.04,0,0,0,0,0,0,0,0,0,0,0,0s0,0,0,0c0-.01,0-.03,0-.06.02,0,.04.01.08.01,0,0,0,0,0,0,0,0,0,0,0,0s0-.01,0-.02c0-.01,0-.03-.01-.04.01,0,.03,0,.06,0h0s0,0,0,0c0-.04,0-.05-.02-.07.04.01.08,0,.1,0,0,0,0,0,0-.01,0,0,0,0,0,0,0,0-.01-.01-.02-.03Z"/>
                  <g>
                    <path class="cls-1" d="M11.88,6.85s-.01-.04-.04-.05c.08-.02.08-.07.08-.08s0,0,0,0t0,0s-.03,0-.06,0c.04-.04.06-.09.06-.14,0,0,0,0,0,0,0,0,0,0,0,0,0,0-.02,0-.04.01-.02,0-.03,0-.06.01,0-.03.04-.09.07-.13.01-.01.02-.03.02-.03,0,0,0-.01,0-.02,0,0-.02,0-.04.01,0,0-.01,0-.02,0-.03,0-.04,0-.06.03-.03-.01-.05,0-.07.03,0-.01,0-.02-.01-.02,0,0,0,0-.01,0,0-.01,0-.02,0-.03h0l-.07-.07h0s0,0,0,0h0l-.07.07h0s0,.02,0,.03c0,0,0,0-.01,0,0,0-.01.01-.01.02-.02-.03-.04-.04-.07-.03-.02-.02-.03-.03-.06-.03,0,0-.01,0-.02,0-.02-.01-.04-.02-.04-.01,0,0,0,.01,0,.02,0,0,.01.02.02.03.03.04.07.1.07.13-.02,0-.04-.01-.06-.01-.02,0-.03,0-.04-.01,0,0,0,0,0,0,0,0,0,0,0,0,0,.04.02.1.06.14-.03,0-.06,0-.06,0t0,0s0,0,0,0,0,.05.08.08c-.02.02-.03.04-.03.05,0,.02,0,.02-.02.03,0,0,0,0,0,0,0,0,0,0,0,.01.01.01.06.02.1,0-.01.02-.02.03-.02.07t0,0h0s.05,0,.06,0c0,.01,0,.03-.01.04,0,.01,0,.02,0,.02s0,0,0,0c0,0,0,0,0,0,.04,0,.07,0,.08-.01,0,.03,0,.04,0,.06,0,0,0,0,0,0s0,0,0,0c0,0,0,0,0,0,.01-.01.02-.03.03-.04.01.01.02.03.02.04,0,0,0,0,0,0,0,0,0,0,0,0,0-.01.01-.03.02-.04,0,0,.02.02.03.04,0,0,0,0,0,0,0,0,0,0,0,0s0,0,0,0c0-.01,0-.03,0-.06.02,0,.04.01.08.01,0,0,0,0,0,0,0,0,0,0,0,0s0-.01,0-.02c0-.01,0-.03-.01-.04.01,0,.03,0,.06,0h0s0,0,0,0c0-.04,0-.05-.02-.07.04.01.08,0,.1,0,0,0,0,0,0-.01,0,0,0,0,0,0,0,0-.01-.01-.02-.03ZM11.86,6.9s-.04,0-.06-.02c0,0,0,0,0,0s0,0,0,0c0,0,0,.01.01.02.01.02.02.03.02.06-.05,0-.05-.01-.06-.02h0s0,0,0,0c.01.02.01.04.02.05,0,0,0,.02,0,.02-.06,0-.07-.01-.08-.02,0,0,0,0,0,0,0,0,0,0,0,0,0,.03,0,.05,0,.07-.01-.02-.03-.03-.03-.03,0,0,0,0,0,0h0s-.02.02-.03.04c0-.02-.02-.03-.03-.04h0s0,0,0,0c0,0-.01.02-.03.03,0-.02,0-.03,0-.07,0,0,0,0,0,0,0,0,0,0,0,0,0,0-.02.02-.08.02,0,0,0-.01,0-.02,0-.02,0-.04.02-.05,0,0,0,0,0,0h0s-.01.01-.06.02c0-.03,0-.04.02-.06,0,0,0-.01.01-.02,0,0,0,0,0,0s0,0,0,0c-.04.03-.09.02-.11.01.02,0,.02-.02.03-.04,0-.02.01-.04.04-.05,0,0,0,0,0,0s0,0,0,0c-.07-.01-.08-.05-.08-.06.01,0,.04,0,.07,0,0,0,0,0,0,0,0,0,0,0,0,0-.04-.03-.06-.09-.06-.13.01,0,.02,0,.03,0,.02,0,.04,0,.06.01h0s0,0,0,0c0-.03-.04-.1-.07-.15-.01-.01-.02-.03-.02-.03,0,0,0,0,0,0,0,0,.02,0,.03.01,0,0,.01,0,.02.01h0s.03,0,.06.03c0,0,0,0,0,0,.02-.01.04,0,.07.03,0,0,0,0,0,0,0,0,0,0,0,0,0-.02,0-.03,0-.03,0,0,.01,0,.02,0,0,0,0,0,0,0,0,0,0,0,0,0-.01-.01-.01-.02,0-.03l.06-.07.06.07s0,.02,0,.03c0,0,0,0,0,0,0,0,0,0,0,0,0,0,.01,0,.02,0,0,0,0,.01,0,.03,0,0,0,0,0,0,0,0,0,0,0,0,.03-.04.05-.05.07-.03,0,0,0,0,0,0,.02-.02.03-.03.06-.03h0s.01,0,.02-.01c.01,0,.02-.01.03-.01,0,0,0,0,0,0,0,0-.01.02-.02.03-.04.06-.08.11-.07.15,0,0,0,0,0,0h0s.05-.01.06-.01c.02,0,.03,0,.04,0,0,.04-.02.1-.06.13,0,0,0,0,0,0,0,0,0,0,0,0,.02,0,.06,0,.07,0,0,.01-.01.05-.08.06,0,0,0,0,0,0,0,0,0,0,0,0,.03.01.03.04.04.05,0,.02,0,.03.03.04,0,0-.02,0-.04,0Z"/>
                    <path class="cls-1" d="M11.59,6.7s0,0,0,0t0,0s0,0,0,0c-.02-.03-.08-.04-.08-.04,0,0,0,0,0,0,0,0,0,0,0,0,0,0,.05,0,.07.03Z"/>
                    <path class="cls-1" d="M11.61,6.77s0,0,0,0c0,0,0,0,0,0,0,0-.02.02-.01.05,0,0,0,0,0,0h0s0,0,0,0c0-.03.01-.04.01-.04Z"/>
                    <path class="cls-1" d="M11.6,6.93s0,0,0,0c0,0,0,0,0,0,0,0-.05-.03-.05-.03,0,0,0,0,0,0,0,0,0,0,0,0,0,0,.03.02.05.03h0Z"/>
                    <path class="cls-1" d="M11.6,6.95s0,0,0,0c0,0,0,0,0,0l-.04-.02s0,0,0,0c0,0,0,0,0,0l.04.02h0Z"/>
                    <path class="cls-1" d="M11.64,6.7s0,0,0,0c0,0,0,0,0,0,.02-.03.07-.03.07-.03,0,0,0,0,0,0,0,0,0,0,0,0,0,0-.06,0-.08.04,0,0,0,0,0,0Z"/>
                    <path class="cls-1" d="M11.76,6.68s-.02.02-.04.03c-.02.01-.04.02-.05.02-.02,0-.03,0-.03,0,0,0,0-.01,0-.02,0-.03.02-.06.02-.06,0,0,0,0,0,0,0,0,0,0,0,0,0,0-.01.02-.01.03,0-.02-.01-.03-.01-.03,0,0,0,0,0,0,0,0,0,0,0,0,0,0,.02.03.01.06,0,.01,0,.02,0,.02,0,0-.01,0-.03,0-.01,0-.03-.01-.05-.02-.01-.01-.03-.02-.04-.03,0,0,0,0,0,0s0,0,0,0c.01,0,.02.02.04.03,0,0,0,0,0,0,0,.02.02.04.04.05h0s.02,0,.03-.02c0,0,.02,0,.02,0,0,0,0,0,0-.01,0,0,0,0,0,.01,0,0,.01,0,.02,0,0,.02.02.02.03.02h0s.04-.03.04-.05c0,0,0,0,0,0,.01-.01.03-.02.04-.03,0,0,0,0,0,0s0,0,0,0ZM11.55,6.75s-.01-.01-.02-.02c0,0,.01,0,.02.01h0ZM11.69,6.75s0-.01,0-.01c0,0,.02,0,.02-.01,0,.01-.01.02-.02.02Z"/>
                    <path class="cls-1" d="M11.67,6.96s-.03,0-.04,0c0,0,0,0,0-.01h0v-.04s0,0,0,0h0s.03,0,.04-.03c0-.01,0-.02,0-.02,0,0-.02,0-.03,0,0,0,0,0,0,0,0,0,0,0,0,0,0,0,.02,0,.02,0,0,0,0,0,0,.01,0,.01-.02.01-.03.02h0s-.04,0-.04-.01c0,0,0-.01,0-.02,0,0,0,0,0,0,0,0,0,0,0,0,0,.01,0,.02,0,.03s.01.02.04.02h0s0,.04,0,.04h0s0,0,0,.01c0,0-.03,0-.04,0,0,0,0,0,0,0,0,0,0,0,0,0h.01s.02,0,.03-.01h0s0,0,0,0c0,0,0,0,.01,0h0s-.01.01-.03.01h0s0,0,0,0c0,0,0,0,0,0h0s.03,0,.03-.02h0s0,0,.01,0h.01s0,0,0,0c0,0,0,0,0,0Z"/>
                    <path class="cls-1" d="M11.69,6.89s-.04.02-.05.03c0,0,0,0,0,0,0,0,0,0,0,0h0s.05-.03.05-.03c0,0,0,0,0,0,0,0,0,0,0,0Z"/>
                    <path class="cls-1" d="M11.68,6.92l-.04.02s0,0,0,0c0,0,0,0,0,0h0s.04-.02.04-.02c0,0,0,0,0,0,0,0,0,0,0,0Z"/>
                    <path class="cls-1" d="M11.77,6.6c-.05,0-.11-.01-.16-.01-.05,0-.1,0-.15.02,0,0,0,0,0,0,0,0,0,0,0,0h0c.05,0,.1-.01.15-.01.05,0,.11,0,.16,0,0,0,0,0,0,0s0,0,0,0Z"/>
                    <path class="cls-1" d="M11.79,6.59c-.05-.01-.11-.02-.17-.02-.05,0-.11,0-.16.02,0,0,0,0,0,0,0,0,0,0,0,0h0c.05-.01.11-.02.16-.02.06,0,.11,0,.17.02,0,0,0,0,0,0h0Z"/>
                    <path class="cls-1" d="M11.8,6.53s0,0,0,0c-.06-.01-.13-.01-.2-.01-.06,0-.12,0-.17.02,0,0,0,0,0,0s0,0,0,0h0c.06-.01.12-.02.17-.02.06,0,.13,0,.2.01,0,0,0,0,0,0Z"/>
                    <path class="cls-1" d="M11.78,6.54s0,0,0,0c0,0,0,0,0,0-.05,0-.11,0-.16,0-.06,0-.12,0-.17.02,0,0,0,0,0,0,0,0,0,0,0,0h0c.06-.01.11-.02.17-.02.05,0,.1,0,.16,0Z"/>
                    <path class="cls-1" d="M11.62,6.42s0,0,0,0c0,0,0,0,0,0l-.02.03s0,0,0,0l.03.03s0,0,0,0h0s.02-.03.02-.03c0,0,0,0,0,0l-.03-.02ZM11.62,6.47l-.02-.02.02-.02.02.02v.02Z"/>
                  </g>
                </g>
                <g>
                  <path class="cls-1" d="M11.82,6.7s0,0,0,0h0s.02-.02.03-.04c.01-.01.02-.02.02-.03t0,0h0s-.02.02-.02.03c-.01.01-.02.02-.03.03h0Z"/>
                  <g>
                    <path class="cls-1" d="M11.45,6.64h0s-.01,0-.02-.01c-.02-.01-.04-.02-.06-.02,0,0,0,0,0,0,0,0,0,0,0,0,.02,0,.04,0,.06.02,0,0,.01,0,.02.01,0,0,0,0,0,0h0Z"/>
                    <path class="cls-1" d="M11.43,6.66h0s-.02-.01-.03-.02l-.03-.02h0s0,0,0,0c.01,0,.02.01.03.02s.02.01.03.01h0s0,0,0,0Z"/>
                    <path class="cls-1" d="M11.43,6.7h0s-.02,0-.03-.01c-.02-.01-.02-.03-.03-.03,0,0,0,0,0,0h0s.01.02.03.03c.01,0,.02.01.03.01,0,0,0,0,0,0t0,0Z"/>
                    <path class="cls-1" d="M11.36,6.75h0s0,0,0,0c.02,0,.04,0,.06,0,.01,0,.02,0,.03,0t0,0h0s-.02,0-.03,0c-.02,0-.04,0-.06,0h0Z"/>
                    <path class="cls-1" d="M11.4,6.77h0s0,0,0,0c.01,0,.02,0,.03,0,0,0,.02,0,.03,0h0s0,0,0,0c0,0-.02,0-.03,0s-.02,0-.03,0h0Z"/>
                    <path class="cls-1" d="M11.41,6.84h0s0,0,0,0c0-.01.01-.02.02-.03,0-.01.01-.02.02-.03,0,0,0,0,0,0h0s-.02.02-.02.04c0,0-.01.02-.02.03,0,0,0,0,0,0Z"/>
                    <path class="cls-1" d="M11.37,6.87h0s0,0,0,0c.02,0,.04-.02.06-.03.01,0,.02-.02.03-.03,0,0,0,0,0,0,0,0,0,0,0,0,0,.01-.02.02-.03.03-.02.02-.04.03-.06.03h0Z"/>
                    <path class="cls-1" d="M11.42,6.88h0s0,0,0,0c.02-.01.03-.02.05-.03.01,0,.02-.01.04-.01,0,0,0,0,0,0h0s-.02.01-.04.02c-.02,0-.03.02-.05.03h0Z"/>
                    <path class="cls-1" d="M11.44,6.94h0s.02-.02.03-.04l.02-.02h0s-.02.02-.02.03c-.01.01-.02.02-.03.03h0Z"/>
                    <path class="cls-1" d="M11.47,6.94h0s.02-.02.03-.03c0,0,.01-.02.01-.02,0,0,0,0,0,0,0,0,0,0,0,0,0,0,0,.02-.01.02,0,.01-.02.02-.03.03h0Z"/>
                    <path class="cls-1" d="M11.49,6.99h0s0,0,0,0c0-.01,0-.03.01-.04,0,0,0-.01.01-.02h0s0,.01,0,.02c0,.01-.01.03-.01.04,0,0,0,0,0,0Z"/>
                    <path class="cls-1" d="M11.51,7h0s0-.02.01-.03c0-.01,0-.02,0-.03t0,0h0s0,.02-.01.03c0,.01,0,.02-.01.03h0Z"/>
                    <path class="cls-1" d="M11.51,7.02h0s0,0,0,0c.01,0,.02,0,.03-.01,0,0,.01-.01.01-.02t0,0h0s0,.01-.01.02c0,0-.02.01-.03.01h0Z"/>
                    <path class="cls-1" d="M11.79,6.63h0s0,0,0,0c.01,0,.02-.01.04-.02s.03,0,.05,0h0s0,0,0,0c-.02,0-.03,0-.05,0-.01,0-.02,0-.04.02,0,0,0,0,0,0Z"/>
                    <path class="cls-1" d="M11.8,6.66h0s.02-.02.03-.03c.02-.01.04-.02.06-.02h0s0,0,0,0c-.02,0-.04,0-.06.02-.01,0-.02.01-.03.02h0Z"/>
                    <polygon class="cls-1" points="11.87 6.74 11.81 6.74 11.81 6.74 11.81 6.74 11.87 6.74 11.87 6.74 11.87 6.74"/>
                    <path class="cls-1" d="M11.81,6.76s0,0,0,0t0,0s.02,0,.02,0c.01,0,.03,0,.04-.01h0s-.03.01-.04.01c0,0-.02,0-.02,0h0Z"/>
                    <path class="cls-1" d="M11.8,6.79h0s.03,0,.04-.02c0,0,.01,0,.01-.01h0s-.01.01-.02.02c-.02.01-.03.01-.04.01Z"/>
                    <path class="cls-1" d="M11.85,6.88h0s-.03,0-.04-.02c0,0-.02-.01-.02-.02t0,0h0s.01.01.02.02c.01,0,.02.01.04.01,0,0,0,0,0,0h0Z"/>
                    <path class="cls-1" d="M11.85,6.88h0s-.03,0-.04,0c-.02,0-.03,0-.04-.02,0,0,0,0,0,0,0,0,0,0,0,0,.01,0,.03.01.04.02s.03,0,.04,0c0,0,0,0,0,0t0,0Z"/>
                    <path class="cls-1" d="M11.8,6.95h0s-.01-.01-.02-.02c-.01-.01-.01-.02-.02-.03h0s0,0,0,0c0,0,0,.02.02.03,0,0,.01.01.02.01h0s0,0,0,0Z"/>
                    <path class="cls-1" d="M11.79,6.96h0s-.02,0-.03-.02c0,0,0,0-.01-.01h0s0,0,0,0c0,0,0,0,.01.01.01,0,.02.01.03.01,0,0,0,0,0,0h0Z"/>
                    <path class="cls-1" d="M11.86,6.86h0s-.02-.02-.03-.03c-.01,0-.02-.01-.03-.02,0,0,0,0,0,0,0,0,0,0,0,0,.01,0,.02,0,.04.02s.02.02.03.03h0Z"/>
                    <path class="cls-1" d="M11.76,7.02h0s-.01-.02-.02-.03c0-.01-.01-.03-.02-.04h0s0,0,0,0c0,.01.01.03.02.04,0,.01.01.02.02.03t0,0h0Z"/>
                    <path class="cls-1" d="M11.74,7.02h0s-.02-.02-.03-.03c0-.01-.01-.02-.01-.03t0,0h0s0,.02.01.03c0,.01.02.02.03.03,0,0,0,0,0,0h0Z"/>
                    <path class="cls-1" d="M11.73,7.02h0s-.01,0-.02-.01c0,0-.02-.01-.02-.02h0s0,0,0,0c0,0,.01.01.02.02,0,0,.01,0,.02.01,0,0,0,0,0,0h0Z"/>
                    <path class="cls-1" d="M11.67,7.06h0s0-.01,0-.02c0-.01,0-.02-.01-.03h0s0,0,0,0c0,.01,0,.02,0,.03,0,0,0,.01,0,.02h0Z"/>
                    <path class="cls-1" d="M11.62,7.06h0s0,0,0,0c0,0,0-.01,0-.02,0,0,0-.02,0-.02h0s0,0,0,0c0,0,0,.02,0,.03,0,0,0,.01,0,.02,0,0,0,0,0,0Z"/>
                    <path class="cls-1" d="M11.57,7.06h0s0,0,0,0c0,0,0-.01,0-.02,0,0,0-.02,0-.02t0,0h0s0,0,0,0c0,0,0,.02,0,.02,0,0,0,.01,0,.02h0Z"/>
                    <path class="cls-1" d="M11.61,7.06s0,0,0,0c0,0,0-.01,0-.02,0,0,0-.01,0-.02,0,0,0,0,0,0h0s0,.01,0,.02c0,0,0,.01,0,.02t0,0h0Z"/>
                  </g>
                </g>
              </g>
              <g>
                <g>
                  <path class="cls-6" d="M12.64,6.85s-.01-.04-.03-.05c.08-.02.08-.07.08-.08s0,0,0,0t0,0s-.03,0-.06,0c.04-.04.06-.09.06-.14,0,0,0,0,0,0,0,0,0,0,0,0,0,0-.02,0-.04.01-.02,0-.04,0-.06.01,0-.03.04-.09.07-.13.01-.01.02-.03.02-.03,0,0,0-.01,0-.02,0,0-.02,0-.04.01,0,0-.01,0-.02,0-.03,0-.04,0-.06.03-.03-.01-.05,0-.07.03,0-.01,0-.02-.01-.02,0,0,0,0-.01,0,0-.01,0-.02,0-.03h0l-.07-.07h0s0,0,0,0h0l-.07.07h0s0,.02,0,.03c0,0,0,0-.01,0,0,0,0,.01-.01.02-.02-.03-.04-.04-.07-.03-.02-.02-.03-.03-.06-.03,0,0-.01,0-.02,0-.02-.01-.04-.02-.04-.01,0,0,0,.01,0,.02,0,0,.01.02.02.03.03.04.07.1.07.13-.02,0-.04-.01-.06-.01-.02,0-.03,0-.04-.01,0,0,0,0,0,0,0,0,0,0,0,0,0,.04.02.1.06.14-.03,0-.06,0-.06,0,0,0,0,0,0,0,0,0,0,0,0,0s0,.05.08.08c-.02.02-.03.04-.04.05,0,.02,0,.02-.02.03,0,0,0,0,0,0,0,0,0,0,0,.01.01.01.06.02.1,0-.01.02-.02.03-.02.07,0,0,0,0,0,0h0s.05,0,.06,0c0,.01,0,.03-.01.04,0,.01,0,.02,0,.02,0,0,0,0,0,0,0,0,0,0,0,0,.04,0,.07,0,.08-.01,0,.03,0,.04,0,.06,0,0,0,0,0,0s0,0,0,0c0,0,0,0,0,0,.01-.01.02-.03.03-.04.01.01.02.03.02.04,0,0,0,0,0,0,0,0,0,0,0,0,0-.01.01-.03.02-.04,0,0,.02.02.03.04,0,0,0,0,0,0,0,0,0,0,0,0,0,0,0,0,0,0,0-.01.01-.03,0-.06.02,0,.05.01.09.01,0,0,0,0,0,0,0,0,0,0,0,0s0-.01,0-.02c0-.01,0-.03-.01-.04.01,0,.02,0,.06,0h0s0,0,0,0c0-.04,0-.05-.02-.07.04.01.08,0,.1,0,0,0,0,0,0-.01,0,0,0,0-.01,0-.01,0-.01-.01-.02-.03Z"/>
                  <g>
                    <path class="cls-1" d="M12.64,6.85s-.01-.04-.03-.05c.08-.02.08-.07.08-.08s0,0,0,0t0,0s-.03,0-.06,0c.04-.04.06-.09.06-.14,0,0,0,0,0,0,0,0,0,0,0,0,0,0-.02,0-.04.01-.02,0-.04,0-.06.01,0-.03.04-.09.07-.13.01-.01.02-.03.02-.03,0,0,0-.01,0-.02,0,0-.02,0-.04.01,0,0-.01,0-.02,0-.03,0-.04,0-.06.03-.03-.01-.05,0-.07.03,0-.01,0-.02-.01-.02,0,0,0,0-.01,0,0-.01,0-.02,0-.03h0l-.07-.07h0s0,0,0,0h0l-.07.07h0s0,.02,0,.03c0,0,0,0-.01,0,0,0,0,.01-.01.02-.02-.03-.04-.04-.07-.03-.02-.02-.03-.03-.06-.03,0,0-.01,0-.02,0-.02-.01-.04-.02-.04-.01,0,0,0,.01,0,.02,0,0,.01.02.02.03.03.04.07.1.07.13-.02,0-.04-.01-.06-.01-.02,0-.03,0-.04-.01,0,0,0,0,0,0,0,0,0,0,0,0,0,.04.02.1.06.14-.03,0-.06,0-.06,0,0,0,0,0,0,0,0,0,0,0,0,0s0,.05.08.08c-.02.02-.03.04-.04.05,0,.02,0,.02-.02.03,0,0,0,0,0,0,0,0,0,0,0,.01.01.01.06.02.1,0-.01.02-.02.03-.02.07,0,0,0,0,0,0h0s.05,0,.06,0c0,.01,0,.03-.01.04,0,.01,0,.02,0,.02,0,0,0,0,0,0,0,0,0,0,0,0,.04,0,.07,0,.08-.01,0,.03,0,.04,0,.06,0,0,0,0,0,0s0,0,0,0c0,0,0,0,0,0,.01-.01.02-.03.03-.04.01.01.02.03.02.04,0,0,0,0,0,0,0,0,0,0,0,0,0-.01.01-.03.02-.04,0,0,.02.02.03.04,0,0,0,0,0,0,0,0,0,0,0,0,0,0,0,0,0,0,0-.01.01-.03,0-.06.02,0,.05.01.09.01,0,0,0,0,0,0,0,0,0,0,0,0s0-.01,0-.02c0-.01,0-.03-.01-.04.01,0,.02,0,.06,0h0s0,0,0,0c0-.04,0-.05-.02-.07.04.01.08,0,.1,0,0,0,0,0,0-.01,0,0,0,0-.01,0-.01,0-.01-.01-.02-.03ZM12.62,6.9s-.04,0-.06-.02c0,0,0,0,0,0s0,0,0,0c0,0,0,.01.01.02.01.02.02.03.02.06-.05,0-.05-.01-.06-.02h0s0,0,0,0c0,.02.01.04.01.05,0,0,0,.02,0,.02-.06,0-.08-.01-.08-.02,0,0,0,0,0,0,0,0,0,0,0,0,0,.03,0,.05,0,.07-.01-.02-.03-.03-.03-.03t0,0h0s-.02.02-.03.04c0-.02-.02-.03-.03-.04h0s0,0,0,0c0,0-.01.02-.02.03,0-.02,0-.03,0-.07,0,0,0,0,0,0,0,0,0,0,0,0,0,0-.02.02-.08.02,0,0,0-.01,0-.02,0-.02,0-.04.02-.05,0,0,0,0,0,0h0s-.01.01-.06.02c0-.03,0-.04.02-.06,0,0,0-.01.01-.02,0,0,0,0,0,0s0,0,0,0c-.04.03-.09.02-.11.01.02,0,.02-.02.03-.04,0-.02.01-.04.04-.05,0,0,0,0,0,0s0,0,0,0c-.07-.01-.08-.05-.08-.06.01,0,.05,0,.07,0,0,0,0,0,0,0,0,0,0,0,0,0-.04-.03-.06-.09-.06-.13,0,0,.02,0,.03,0,.02,0,.04,0,.06.01h0s0,0,0,0c0-.03-.04-.1-.07-.15-.01-.01-.02-.03-.02-.03,0,0,0,0,0,0,0,0,.02,0,.03.01,0,0,.01,0,.02.01h0s.04,0,.06.03c0,0,0,0,0,0,.02-.01.04,0,.07.03,0,0,0,0,0,0,0,0,0,0,0,0,0-.02,0-.03,0-.03,0,0,.01,0,.02,0,0,0,0,0,0,0,0,0,0,0,0,0-.02-.01-.01-.02,0-.03l.06-.07.06.07s0,.02,0,.03c0,0,0,0,0,0,0,0,0,0,0,0,0,0,.01,0,.02,0,0,0,0,.01,0,.03,0,0,0,0,0,0,0,0,0,0,0,0,.03-.04.05-.05.07-.03,0,0,0,0,0,0,.02-.02.03-.03.06-.03h0s.01,0,.02-.01c.01,0,.02-.01.03-.01,0,0,0,0,0,0,0,0-.01.02-.02.03-.04.06-.08.11-.07.15,0,0,0,0,0,0h0s.05-.01.06-.01c.01,0,.03,0,.04,0,0,.04-.02.1-.06.13,0,0,0,0,0,0,0,0,0,0,0,0,.02,0,.06,0,.07,0,0,.01-.01.05-.08.06,0,0,0,0,0,0s0,0,0,0c.03.01.04.04.04.05,0,.02.01.03.03.04,0,0-.02,0-.04,0Z"/>
                    <path class="cls-1" d="M12.35,6.7s0,0,0,0,0,0,0,0c0,0,0,0,0,0-.02-.03-.08-.04-.08-.04,0,0,0,0,0,0,0,0,0,0,0,0,0,0,.05,0,.07.03Z"/>
                    <path class="cls-1" d="M12.37,6.77s0,0,0,0c0,0,0,0,0,0,0,0-.02.02-.02.05,0,0,0,0,0,0h0s0,0,0,0c0-.03,0-.04.01-.04Z"/>
                    <path class="cls-1" d="M12.36,6.93s0,0,0,0c0,0,0,0,0,0,0,0-.05-.03-.05-.03,0,0,0,0,0,0,0,0,0,0,0,0,0,0,.03.02.05.03h0Z"/>
                    <path class="cls-1" d="M12.36,6.95s0,0,0,0c0,0,0,0,0,0l-.04-.02s0,0,0,0c0,0,0,0,0,0l.04.02s0,0,0,0Z"/>
                    <path class="cls-1" d="M12.41,6.7s0,0,0,0c0,0,0,0,0,0,.02-.03.07-.03.07-.03s0,0,0,0c0,0,0,0,0,0,0,0-.06,0-.08.04,0,0,0,0,0,0Z"/>
                    <path class="cls-1" d="M12.52,6.68s-.02.02-.04.03c-.02.01-.04.02-.05.02-.02,0-.03,0-.03,0,0,0,0-.01,0-.02,0-.03.02-.06.02-.06,0,0,0,0,0,0s0,0,0,0c0,0,0,.02-.01.03,0-.02-.01-.03-.01-.03,0,0,0,0,0,0,0,0,0,0,0,0,0,0,.02.03.02.06,0,.01,0,.02,0,.02,0,0-.02,0-.03,0-.01,0-.03-.01-.05-.02-.01-.01-.03-.02-.03-.03,0,0,0,0,0,0,0,0,0,0,0,0,0,0,.02.02.04.03,0,0,0,0,0,0,0,.02.02.04.04.05h0s.02,0,.03-.02c0,0,.02,0,.02,0,0,0,0,0,0-.01,0,0,0,0,0,.01,0,0,.01,0,.02,0,0,.02.02.02.03.02h0s.04-.03.04-.05c0,0,0,0,0,0,.02-.01.03-.02.04-.03,0,0,0,0,0,0s0,0,0,0ZM12.32,6.75s-.02-.01-.02-.02c0,0,.02,0,.02.01,0,0,0,.01,0,.01ZM12.45,6.75s0-.01,0-.01c0,0,.01,0,.02-.01,0,.01-.01.02-.02.02Z"/>
                    <path class="cls-1" d="M12.43,6.96s-.03,0-.03,0c0,0,0,0,0-.01h0v-.04s0,0,0,0h0s.04,0,.04-.03c0-.01,0-.02,0-.02-.01,0-.02,0-.03,0,0,0,0,0,0,0,0,0,0,0,0,0,0,0,.02,0,.02,0,0,0,0,0,0,.01,0,.01-.01.01-.03.02h0s-.04,0-.04-.01c0,0,0-.01,0-.02,0,0,0,0,0,0,0,0,0,0,0,0,0,.01,0,.02,0,.03,0,0,.01.02.04.02h0s0,.04,0,.04h0s0,0,0,.01c-.01,0-.03,0-.04,0,0,0,0,0,0,0,0,0,0,0,0,0h.01s.02,0,.03-.01c0,0,0,0,0,0h0s0,0,.01.01h0s-.01.01-.03.01h0s0,0,0,0c0,0,0,0,0,0h0s.03,0,.04-.02h0s0,0,.01,0h.01s0,0,0,0c0,0,0,0,0,0Z"/>
                    <path class="cls-1" d="M12.45,6.89s-.04.02-.05.03c0,0,0,0,0,0,0,0,0,0,0,0h0s.05-.03.05-.03c0,0,0,0,0,0,0,0,0,0,0,0Z"/>
                    <path class="cls-1" d="M12.45,6.92l-.04.02s0,0,0,0c0,0,0,0,0,0s0,0,0,0l.04-.02s0,0,0,0c0,0,0,0,0,0Z"/>
                    <path class="cls-1" d="M12.53,6.6c-.05,0-.11-.01-.16-.01-.05,0-.1,0-.15.02,0,0,0,0,0,0t0,0h0c.05,0,.1-.01.15-.01.05,0,.11,0,.16,0t0,0s0,0,0,0Z"/>
                    <path class="cls-1" d="M12.55,6.59c-.05-.01-.11-.02-.17-.02-.05,0-.11,0-.16.02,0,0,0,0,0,0,0,0,0,0,0,0h0c.05-.01.1-.02.16-.02.06,0,.11,0,.17.02,0,0,0,0,0,0,0,0,0,0,0,0Z"/>
                    <path class="cls-1" d="M12.57,6.53s0,0,0,0c-.06-.01-.13-.01-.2-.01-.06,0-.12,0-.17.02t0,0s0,0,0,0h0c.06-.01.12-.02.17-.02.06,0,.13,0,.19.01,0,0,0,0,0,0Z"/>
                    <path class="cls-1" d="M12.54,6.54s0,0,0,0c0,0,0,0,0,0-.05,0-.11,0-.16,0-.06,0-.12,0-.17.02,0,0,0,0,0,0,0,0,0,0,0,0h0c.06-.01.12-.02.17-.02.05,0,.11,0,.16,0Z"/>
                    <path class="cls-1" d="M12.38,6.42s0,0,0,0,0,0,0,0l-.02.03s0,0,0,0l.03.03s0,0,0,0c0,0,0,0,0,0l.02-.03s0,0,0,0l-.02-.02ZM12.38,6.47l-.02-.02.02-.02.02.02v.02Z"/>
                  </g>
                </g>
                <g>
                  <path class="cls-1" d="M12.58,6.7h0s0,0,0,0c.01-.01.02-.02.03-.03l.02-.03s0,0,0,0t0,0s-.01.02-.02.03c0,.01-.02.02-.03.03,0,0,0,0,0,0Z"/>
                  <g>
                    <path class="cls-1" d="M12.21,6.64h0s-.01,0-.02-.01c-.02-.01-.04-.02-.06-.02,0,0,0,0,0,0t0,0s.04,0,.06.02c0,0,.01,0,.02.01h0s0,0,0,0Z"/>
                    <path class="cls-1" d="M12.2,6.66h0s-.02-.01-.03-.02c-.01,0-.02-.01-.03-.02,0,0,0,0,0,0t0,0s.02.01.03.02c.01,0,.02.01.03.01t0,0h0Z"/>
                    <path class="cls-1" d="M12.19,6.7h0s-.02,0-.04-.01c-.02-.01-.02-.03-.03-.03h0s.01.02.03.03c.01,0,.03.01.03.01h0s0,0,0,0Z"/>
                    <path class="cls-1" d="M12.13,6.75s0,0,0,0c0,0,0,0,0,0,.02,0,.04,0,.06,0,0,0,.02,0,.03,0h0s-.02,0-.03,0c-.02,0-.04,0-.06,0h0Z"/>
                    <path class="cls-1" d="M12.16,6.77s0,0,0,0t0,0s.02,0,.03,0,.02,0,.03,0h0s0,0,0,0c0,0-.02,0-.03,0-.01,0-.02,0-.03,0h0Z"/>
                    <path class="cls-1" d="M12.17,6.84h0s.01-.02.02-.03c0-.01.02-.02.02-.03t0,0h0s-.02.02-.02.04c0,0-.01.02-.02.03h0Z"/>
                    <path class="cls-1" d="M12.14,6.87h0s.05-.02.06-.04c0,0,.02-.02.03-.03t0,0h0s-.02.02-.03.03c-.02.02-.04.03-.06.03h0Z"/>
                    <path class="cls-1" d="M12.18,6.88h0s.03-.02.05-.03c.01,0,.02-.01.04-.01,0,0,0,0,0,0t0,0s-.02.01-.03.01c-.02,0-.03.02-.05.03h0Z"/>
                    <path class="cls-1" d="M12.2,6.94h0s0,0,0,0c.01-.01.02-.02.03-.03l.02-.02h0s0,0,0,0c0,0-.02.02-.02.02-.01.01-.02.02-.03.03h0Z"/>
                    <path class="cls-1" d="M12.23,6.94h0s0,0,0,0c.01,0,.02-.02.03-.03,0,0,.01-.02.01-.02,0,0,0,0,0,0h0s0,.02-.01.03c0,.01-.02.02-.03.03h0Z"/>
                    <path class="cls-1" d="M12.26,6.99h0s0,0,0,0c0-.01,0-.03.01-.04,0,0,0-.01.01-.02h0s0,0,0,0c0,0,0,.01-.01.02,0,.01-.01.03-.01.04h0Z"/>
                    <path class="cls-1" d="M12.27,7h0s0,0,0,0c0,0,.01-.02.01-.03,0-.01,0-.02,0-.03t0,0h0s0,.02,0,.03c0,.01,0,.02-.01.03h0Z"/>
                    <path class="cls-1" d="M12.27,7.02h0s.02-.01.03-.02.01-.01.01-.02c0,0,0,0,0,0t0,0s-.01.01-.02.02-.02.01-.03.01h0Z"/>
                    <path class="cls-1" d="M12.55,6.63s0,0,0,0c0,0,0,0,0,0,.01,0,.02-.01.04-.02.02,0,.03,0,.05,0,0,0,0,0,0,0h0s-.03,0-.05,0c-.01,0-.03,0-.04.02,0,0,0,0,0,0Z"/>
                    <path class="cls-1" d="M12.56,6.66h0s0,0,0,0c0-.01.02-.02.03-.02.02-.01.04-.02.06-.02,0,0,0,0,0,0t0,0s-.04,0-.06.02c0,0-.02.01-.03.02h0Z"/>
                    <polygon class="cls-1" points="12.63 6.74 12.57 6.74 12.57 6.74 12.57 6.74 12.63 6.74 12.63 6.74 12.63 6.74"/>
                    <path class="cls-1" d="M12.57,6.76h0s0,0,0,0c0,0,.02,0,.03,0,.01,0,.03,0,.04-.01h0s0,0,0,0c-.01,0-.03,0-.04,0,0,0-.02,0-.03,0h0Z"/>
                    <path class="cls-1" d="M12.56,6.79h0s0,0,0,0c0,0,0,0,0,0,0,0,.03,0,.04-.01,0,0,.01,0,.01-.01h0s0,0,0,0c0,0-.01.01-.02.01-.01.01-.03.01-.04.01Z"/>
                    <path class="cls-1" d="M12.61,6.88h0s-.03,0-.04-.02c0,0-.02-.01-.02-.02h0s0,0,0,0c0,0,.01.01.02.02.01,0,.02.01.04.01t0,0s0,0,0,0Z"/>
                    <path class="cls-1" d="M12.61,6.88h0s-.03,0-.04,0-.03,0-.04-.02h0s0,0,0,0c.01,0,.03.01.04.02.01,0,.03,0,.04,0h0s0,0,0,0Z"/>
                    <path class="cls-1" d="M12.56,6.95h0s-.02-.01-.02-.02c0-.01-.01-.02-.02-.03,0,0,0,0,0,0,0,0,0,0,0,0,0,0,0,.02.02.03,0,0,.01.01.02.01,0,0,0,0,0,0,0,0,0,0,0,0Z"/>
                    <path class="cls-1" d="M12.55,6.96h0s-.02,0-.03-.02c0,0-.01,0-.01-.01,0,0,0,0,0,0,0,0,0,0,0,0,0,0,0,0,.01.01,0,0,.02.01.03.01h0s0,0,0,0Z"/>
                    <path class="cls-1" d="M12.62,6.86h0s-.02-.02-.03-.03c-.01,0-.02-.01-.03-.02h0s0,0,0,0c.01,0,.02,0,.03.02.01,0,.02.02.03.03,0,0,0,0,0,0h0Z"/>
                    <path class="cls-1" d="M12.52,7.02s0,0,0,0c0-.01-.01-.02-.02-.03,0-.01-.01-.03-.02-.04,0,0,0,0,0,0h0s.01.03.02.04.01.02.02.03c0,0,0,0,0,0h0Z"/>
                    <path class="cls-1" d="M12.5,7.02h0s-.02-.02-.03-.03c0-.01,0-.02-.01-.03,0,0,0,0,0,0t0,0s0,.02.01.03c0,.01.02.02.03.03,0,0,0,0,0,0,0,0,0,0,0,0Z"/>
                    <path class="cls-1" d="M12.48,7.02h0s-.01,0-.02-.01c0,0-.01-.01-.02-.02h0s0,0,0,0l.02.02s.01,0,.02.01h0s0,0,0,0Z"/>
                    <path class="cls-1" d="M12.44,7.06s0,0,0,0c0,0,0-.01,0-.02,0-.01,0-.02,0-.03,0,0,0,0,0,0,0,0,0,0,0,0,0,.01,0,.02,0,.03,0,0,0,.01,0,.02,0,0,0,0,0,0h0Z"/>
                    <path class="cls-1" d="M12.38,7.06h0s0-.01,0-.02c0,0,0-.02,0-.02,0,0,0,0,0,0,0,0,0,0,0,0,0,0,0,.02,0,.03s0,.01,0,.02h0Z"/>
                    <path class="cls-1" d="M12.33,7.06h0s0-.01,0-.02v-.02s0,0,0,0h0s0,0,0,0v.02s0,.01,0,.02h0Z"/>
                    <path class="cls-1" d="M12.37,7.06h0s0-.01,0-.02c0,0,0-.01,0-.02h0s0,0,0,0c0,0,0,.01,0,.02,0,0,0,.01,0,.02h0s0,0,0,0Z"/>
                  </g>
                </g>
              </g>
            </g>
            <g>
              <g>
                <path class="cls-6" d="M12.26,7.73s-.01-.04-.04-.05c.08-.02.08-.07.08-.08s0,0,0,0c0,0,0,0,0,0,0,0-.03,0-.06,0,.04-.03.06-.09.06-.14,0,0,0,0,0,0,0,0,0,0,0,0,0,0-.02,0-.04.01-.02,0-.04,0-.06.01,0-.03.04-.09.07-.13,0-.01.02-.02.02-.03,0,0,0-.01,0-.02,0,0-.02,0-.04.01,0,0-.01,0-.02,0-.03,0-.04,0-.06.03-.03-.01-.05,0-.07.03,0-.01,0-.02,0-.02s0,0-.01,0c0-.01,0-.02,0-.03,0,0,0,0,0,0l-.07-.07h0s0,0,0,0h0s0,0,0,0h0l-.07.07s0,0,0,0c0,0,0,.02,0,.03,0,0,0,0-.01,0,0,0,0,.01-.01.02-.02-.03-.04-.04-.07-.03-.02-.02-.03-.03-.06-.03,0,0-.01,0-.02,0-.02-.01-.04-.02-.04-.01s0,.01,0,.02c0,0,.01.02.02.03.03.04.07.1.07.13-.02,0-.04-.01-.06-.01-.02,0-.03,0-.04-.01,0,0,0,0,0,0,0,0,0,0,0,0,0,.05.02.11.06.14-.03,0-.06,0-.06,0,0,0,0,0,0,0,0,0,0,0,0,0,0,0,0,.05.08.08-.02.02-.03.04-.04.05,0,.02,0,.03-.02.03,0,0-.01,0-.01,0,0,0,0,0,0,.01.01.01.06.02.1,0-.01.02-.02.03-.02.07,0,0,0,0,0,0,0,0,0,0,0,0,.03,0,.05,0,.06-.01,0,.01,0,.03-.01.04,0,.01,0,.02,0,.02,0,0,0,0,0,0,0,0,0,0,0,0,.04,0,.07,0,.08-.01,0,.03,0,.04,0,.06,0,0,0,0,0,0,0,0,0,0,0,0,0,0,0,0,0,0,.01-.01.02-.03.03-.04.01.01.03.03.03.04,0,0,0,0,0,0,0,0,0,0,0,0,0,0,.01-.03.02-.04,0,0,.02.02.03.04,0,0,0,0,0,0,0,0,0,0,0,0,0,0,0,0,0,0,0-.02.01-.03,0-.06.02.01.05.01.08.01,0,0,0,0,0,0s0,0,0,0c0,0,0-.01,0-.02,0-.01,0-.03,0-.04,0,0,.02,0,.06.01,0,0,0,0,0,0,0,0,0,0,0,0,0-.04,0-.05-.02-.07.04.01.08,0,.09,0,0,0,0,0,0-.01,0,0,0,0-.01,0-.01,0-.01-.01-.02-.03Z"/>
                <g>
                  <path class="cls-1" d="M12.26,7.73s-.01-.04-.04-.05c.08-.02.08-.07.08-.08s0,0,0,0c0,0,0,0,0,0,0,0-.03,0-.06,0,.04-.03.06-.09.06-.14,0,0,0,0,0,0,0,0,0,0,0,0,0,0-.02,0-.04.01-.02,0-.04,0-.06.01,0-.03.04-.09.07-.13,0-.01.02-.02.02-.03,0,0,0-.01,0-.02,0,0-.02,0-.04.01,0,0-.01,0-.02,0-.03,0-.04,0-.06.03-.03-.01-.05,0-.07.03,0-.01,0-.02,0-.02s0,0-.01,0c0-.01,0-.02,0-.03,0,0,0,0,0,0l-.07-.07h0s0,0,0,0h0s0,0,0,0h0l-.07.07s0,0,0,0c0,0,0,.02,0,.03,0,0,0,0-.01,0,0,0,0,.01-.01.02-.02-.03-.04-.04-.07-.03-.02-.02-.03-.03-.06-.03,0,0-.01,0-.02,0-.02-.01-.04-.02-.04-.01s0,.01,0,.02c0,0,.01.02.02.03.03.04.07.1.07.13-.02,0-.04-.01-.06-.01-.02,0-.03,0-.04-.01,0,0,0,0,0,0,0,0,0,0,0,0,0,.05.02.11.06.14-.03,0-.06,0-.06,0,0,0,0,0,0,0,0,0,0,0,0,0,0,0,0,.05.08.08-.02.02-.03.04-.04.05,0,.02,0,.03-.02.03,0,0-.01,0-.01,0,0,0,0,0,0,.01.01.01.06.02.1,0-.01.02-.02.03-.02.07,0,0,0,0,0,0,0,0,0,0,0,0,.03,0,.05,0,.06-.01,0,.01,0,.03-.01.04,0,.01,0,.02,0,.02,0,0,0,0,0,0,0,0,0,0,0,0,.04,0,.07,0,.08-.01,0,.03,0,.04,0,.06,0,0,0,0,0,0,0,0,0,0,0,0,0,0,0,0,0,0,.01-.01.02-.03.03-.04.01.01.03.03.03.04,0,0,0,0,0,0,0,0,0,0,0,0,0,0,.01-.03.02-.04,0,0,.02.02.03.04,0,0,0,0,0,0,0,0,0,0,0,0,0,0,0,0,0,0,0-.02.01-.03,0-.06.02.01.05.01.08.01,0,0,0,0,0,0s0,0,0,0c0,0,0-.01,0-.02,0-.01,0-.03,0-.04,0,0,.02,0,.06.01,0,0,0,0,0,0,0,0,0,0,0,0,0-.04,0-.05-.02-.07.04.01.08,0,.09,0,0,0,0,0,0-.01,0,0,0,0-.01,0-.01,0-.01-.01-.02-.03ZM12.24,7.77s-.04,0-.06-.02c0,0,0,0,0,0s0,0,0,0c0,0,0,.01.01.02.01.02.02.03.02.06-.05,0-.05-.01-.06-.02h0s0,0,0,0c0,.02.01.04.01.05,0,0,0,.02,0,.02-.06,0-.07-.01-.08-.02,0,0,0,0,0,0,0,0,0,0,0,0,0,.03,0,.05,0,.07-.01-.02-.03-.03-.03-.03,0,0,0,0,0,0,0,0,0,0,0,0,0,0-.02.02-.03.03,0-.02-.02-.03-.03-.03t0,0s0,0,0,0c0,0-.01.02-.03.03,0-.02,0-.03,0-.07,0,0,0,0,0,0,0,0,0,0,0,0,0,0-.02.02-.08.02,0,0,0-.01,0-.02,0-.02,0-.04.02-.05,0,0,0,0,0,0h0s-.01.01-.06.02c0-.03,0-.04.02-.06,0,0,0-.01.01-.02,0,0,0,0,0,0,0,0,0,0,0,0-.04.03-.09.02-.1.01.01,0,.02-.02.02-.03,0-.02.01-.04.04-.06,0,0,0,0,0,0,0,0,0,0,0,0-.07-.01-.08-.05-.08-.06.01,0,.04,0,.07,0,0,0,0,0,0,0,0,0,0,0,0,0-.04-.03-.06-.08-.06-.13,0,0,.02,0,.03,0,.02,0,.04,0,.06.02,0,0,0,0,0,0,0,0,0,0,0,0,0-.03-.04-.1-.07-.15-.01-.01-.02-.02-.02-.03,0,0,0,0,0,0,0,0,.02.01.03.01,0,0,.01,0,.02,0h0s.03,0,.06.03c0,0,0,0,0,0,.02-.01.04,0,.07.03,0,0,0,0,0,0,0,0,0,0,0,0,0-.02,0-.03,0-.03,0,0,.01,0,.02,0,0,0,0,0,0,0,0,0,0,0,0,0-.02-.01-.01-.02,0-.03l.06-.07.06.07s0,.02,0,.03c0,0,0,0,0,0,0,0,0,0,0,0,0,0,.01,0,.02,0,0,0,0,.01,0,.03,0,0,0,0,0,0,0,0,0,0,0,0,.03-.04.05-.05.07-.03,0,0,0,0,0,0,.02-.02.03-.03.06-.03h0s.01,0,.02,0c0,0,.02-.01.03-.01,0,0,0,0,0,0,0,0-.01.02-.02.03-.04.06-.08.12-.07.15h0s0,0,0,0c.02,0,.04-.01.06-.02.01,0,.03,0,.03,0,0,.04-.02.1-.06.13,0,0,0,0,0,0,0,0,0,0,0,0,.02,0,.06,0,.07,0,0,.01-.01.05-.08.06t0,0s0,0,0,0c.03.02.04.04.04.06,0,.02.01.03.02.03,0,0-.02,0-.04,0Z"/>
                  <path class="cls-1" d="M11.97,7.57s0,0,0,0h0s0,0,0,0c-.02-.03-.08-.04-.08-.04s0,0,0,0c0,0,0,0,0,0s.05,0,.07.03Z"/>
                  <path class="cls-1" d="M11.99,7.64s0,0,0,0c0,0,0,0,0,0,0,0-.02.01-.02.05,0,0,0,0,0,0h0s0,0,0,0c0-.03.01-.04.01-.04Z"/>
                  <path class="cls-1" d="M11.98,7.8s0,0,0,0c0,0,0,0,0,0,0,0-.05-.03-.05-.03,0,0,0,0,0,0,0,0,0,0,0,0,0,0,.03.02.05.03h0Z"/>
                  <path class="cls-1" d="M11.98,7.82s0,0,0,0c0,0,0,0,0,0l-.04-.02s0,0,0,0c0,0,0,0,0,0l.04.02h0Z"/>
                  <path class="cls-1" d="M12.02,7.58h0s0,0,0,0c.02-.03.07-.03.07-.03,0,0,0,0,0,0,0,0,0,0,0,0s-.06,0-.08.04c0,0,0,0,0,0Z"/>
                  <path class="cls-1" d="M12.14,7.55s-.02.02-.04.03c-.02.01-.04.02-.05.02-.02,0-.03,0-.03,0,0,0,0-.01,0-.02,0-.03.02-.06.02-.06,0,0,0,0,0,0,0,0,0,0,0,0,0,0,0,.02-.01.04,0-.02-.01-.03-.01-.04,0,0,0,0,0,0,0,0,0,0,0,0,0,0,.02.03.02.06,0,.01,0,.02,0,.02,0,0-.01,0-.03,0-.01,0-.04-.01-.05-.02-.01,0-.03-.02-.04-.03,0,0,0,0,0,0s0,0,0,0c.01.01.02.02.04.03,0,0,0,0,0,0,0,.02.02.04.04.05h0s.02,0,.03-.02c.01,0,.02,0,.02,0,0,0,0,0,0-.01,0,0,0,0,0,.01,0,0,.01,0,.02,0,0,.01.02.02.03.02h0s.04-.03.04-.05c0,0,0,0,0,0,.01-.01.03-.02.04-.03,0,0,0,0,0,0s0,0,0,0ZM11.93,7.62s-.01-.02-.02-.03c0,0,.01,0,.02.01,0,0,0,.01,0,.02ZM12.07,7.62s0-.01,0-.02c0,0,.01,0,.02-.01,0,.01-.01.02-.02.03Z"/>
                  <path class="cls-1" d="M12.05,7.83s-.03,0-.04,0c0,0,0,0,0-.01h0v-.04h0s.03,0,.04-.03c0-.01,0-.02,0-.02,0,0-.02,0-.03,0,0,0,0,0,0,0,0,0,0,0,0,0,0,0,.02,0,.02,0,0,0,0,0,0,.01,0,.01-.01.02-.03.02h0s-.04,0-.04-.01c0,0,0-.01,0-.02,0,0,0,0,0,0,0,0,0,0,0,0,0,.01,0,.02,0,.03,0,.01.01.02.04.02h0v.04h0s0,0,0,.01c0,0-.03,0-.03,0,0,0,0,0,0,0,0,0,0,0,0,0h.01s.02,0,.03,0c0,0,0,0,0,0h0s0,0,.01.01h0s-.01.01-.02.01h0s0,0,0,0c0,0,0,0,0,0h0s.03,0,.03-.01c0,0,0,0,0,0h.02s0,0,0,0c0,0,0,0,0,0Z"/>
                  <path class="cls-1" d="M12.07,7.76s-.04.02-.05.03c0,0,0,0,0,0,0,0,0,0,0,0h0s.05-.03.05-.03c0,0,0,0,0,0s0,0,0,0Z"/>
                  <path class="cls-1" d="M12.07,7.79l-.04.02s0,0,0,0c0,0,0,0,0,0h0l.04-.02s0,0,0,0c0,0,0,0,0,0Z"/>
                  <path class="cls-1" d="M12.15,7.47c-.05,0-.11-.01-.16-.01-.05,0-.1,0-.15.02,0,0,0,0,0,0,0,0,0,0,0,0h0c.05-.01.1-.01.15-.02.05,0,.11,0,.16.01,0,0,0,0,0,0,0,0,0,0,0,0Z"/>
                  <path class="cls-1" d="M12.17,7.46c-.05-.01-.11-.02-.17-.02-.05,0-.11,0-.16.02t0,0s0,0,0,0h0c.05-.01.1-.02.16-.02.06,0,.11,0,.17.02,0,0,0,0,0,0,0,0,0,0,0,0Z"/>
                  <path class="cls-1" d="M12.18,7.4s0,0,0,0c-.06,0-.13-.01-.2-.01-.06,0-.12,0-.17.02,0,0,0,0,0,0t0,0h0c.06-.01.12-.02.17-.02.07,0,.13,0,.2,0,0,0,0,0,0,0Z"/>
                  <path class="cls-1" d="M12.16,7.42s0,0,0,0c0,0,0,0,0,0-.05,0-.1,0-.16,0-.06,0-.12,0-.17.02t0,0s0,0,0,0h0c.06-.01.11-.02.17-.02.05,0,.11,0,.16,0Z"/>
                  <path class="cls-1" d="M12,7.29s0,0,0,0c0,0,0,0,0,0l-.02.03s0,0,0,0l.03.02s0,0,0,0,0,0,0,0l.02-.03s0,0,0,0l-.02-.02ZM12,7.34l-.02-.02.02-.02.02.02v.02Z"/>
                </g>
              </g>
              <g>
                <path class="cls-1" d="M12.2,7.57h0s.02-.03.03-.04l.02-.03s0,0,0,0h0s-.02.02-.02.03c0,.01-.02.02-.03.04h0Z"/>
                <g>
                  <path class="cls-1" d="M11.83,7.52h0s-.01-.01-.02-.01c-.02-.01-.04-.02-.06-.02,0,0,0,0,0,0h0s.05,0,.06.02h.02s0,.02,0,.02Z"/>
                  <path class="cls-1" d="M11.82,7.53h0s-.02,0-.03-.01c0,0-.02-.01-.03-.02h0s0,0,0,0l.03.02s.02.01.03.02t0,0h0Z"/>
                  <path class="cls-1" d="M11.81,7.57h0s-.02,0-.04-.01c-.02-.01-.02-.03-.03-.03,0,0,0,0,0,0,0,0,0,0,0,0,0,0,.01.02.03.03.01,0,.02.01.03.01h0Z"/>
                  <path class="cls-1" d="M11.75,7.62h0s0,0,0,0c.02,0,.04,0,.06,0,0,0,.02,0,.03,0,0,0,0,0,0,0t0,0s-.02,0-.03,0c-.02,0-.04,0-.06,0h0Z"/>
                  <path class="cls-1" d="M11.78,7.64s0,0,0,0h0s.02,0,.03,0c.01,0,.02,0,.03,0t0,0h0s-.02,0-.03.01c-.01,0-.02,0-.03,0h0Z"/>
                  <path class="cls-1" d="M11.79,7.71h0s0,0,0,0c0-.01,0-.02.02-.03,0-.01.02-.02.02-.03,0,0,0,0,0,0,0,0,0,0,0,0,0,.01-.02.02-.02.03,0,.01-.01.02-.02.03h0Z"/>
                  <path class="cls-1" d="M11.75,7.74h0s0,0,0,0c.02,0,.04-.02.06-.03.01,0,.02-.02.03-.03h0s-.02.02-.03.03c-.02.02-.04.03-.06.03h0Z"/>
                  <path class="cls-1" d="M11.8,7.75h0s.03-.02.05-.03c.01,0,.02-.01.03-.01h0s0,0,0,0c-.01,0-.02,0-.04.01-.02,0-.03.02-.05.03h0Z"/>
                  <path class="cls-1" d="M11.82,7.81h0s0,0,0,0l.03-.03s.02-.02.02-.02c0,0,0,0,0,0h0s-.02.02-.02.03c-.01.01-.02.02-.03.03,0,0,0,0,0,0Z"/>
                  <path class="cls-1" d="M11.85,7.81h0s0,0,0,0c.01,0,.02-.02.03-.03v-.02h.01s0,0,0,0c0,0,0,.02-.01.02,0,.01-.02.02-.03.03,0,0,0,0,0,0Z"/>
                  <path class="cls-1" d="M11.87,7.86h0s0,0,0,0c0-.01,0-.03.01-.04,0,0,0-.01.01-.02h0s0,0,0,0c0,0,0,.01,0,.02,0,.01-.01.02-.01.04,0,0,0,0,0,0Z"/>
                  <path class="cls-1" d="M11.89,7.87h0s0,0,0,0c0,0,0-.02.01-.03s0-.02,0-.03c0,0,0,0,0,0,0,0,0,0,0,0,0,.01,0,.02,0,.03,0,0,0,.02-.01.03h0Z"/>
                  <path class="cls-1" d="M11.89,7.89h0s0,0,0,0c.01,0,.02,0,.03-.01,0,0,0-.01.01-.02h0s0,0,0,0c0,0,0,.01-.01.02,0,0-.02.01-.03.01h0Z"/>
                  <path class="cls-1" d="M12.17,7.51s0,0,0,0h0s.02-.02.04-.02c.02,0,.03,0,.05,0t0,0s0,0,0,0c-.01,0-.03,0-.05,0-.01,0-.02.01-.04.02h0Z"/>
                  <path class="cls-1" d="M12.18,7.54s0,0,0,0h0s.02-.02.03-.02c.02-.01.04-.02.06-.02h0s0,0,0,0c-.02,0-.04.01-.06.02,0,0-.02.01-.02.02h0Z"/>
                  <polygon class="cls-1" points="12.25 7.61 12.19 7.61 12.19 7.61 12.19 7.61 12.25 7.61 12.25 7.61 12.25 7.61"/>
                  <path class="cls-1" d="M12.19,7.63h0s0,0,0,0c0,0,.02,0,.02,0,.01,0,.03,0,.04-.01t0,0h0s-.03.01-.04.01c0,0-.02,0-.03,0h0Z"/>
                  <path class="cls-1" d="M12.18,7.66h0s0,0,0,0c0,0,0,0,0,0,.01,0,.03,0,.04-.01,0,0,.01,0,.02-.01h0s-.01.01-.02.02c-.02.01-.03.01-.04.01Z"/>
                  <path class="cls-1" d="M12.23,7.75h0s-.03,0-.04-.01c-.01,0-.02-.01-.02-.02h0s0,0,0,0c0,0,.01.01.02.02.01,0,.02.01.04.01,0,0,0,0,0,0h0Z"/>
                  <path class="cls-1" d="M12.23,7.75h0s-.03,0-.04,0-.03-.01-.04-.02t0,0h0s.03.01.04.02.03,0,.04,0h0s0,0,0,0Z"/>
                  <path class="cls-1" d="M12.18,7.82h0s-.01,0-.02-.01c-.01-.01-.01-.02-.02-.03t0,0h0s0,.02.01.03c0,0,.01.01.02.01h0,0Z"/>
                  <path class="cls-1" d="M12.17,7.83h0s-.02,0-.03-.01c0,0,0,0-.01-.01h0s0,0,0,0c0,0,0,0,.01.01.01,0,.02.01.03.01h0s0,0,0,0Z"/>
                  <path class="cls-1" d="M12.24,7.74h0s-.02-.02-.03-.03c-.01,0-.02-.01-.03-.02,0,0,0,0,0,0,0,0,0,0,0,0,.01,0,.02,0,.03.01.01.01.02.02.03.03h0s0,0,0,0Z"/>
                  <path class="cls-1" d="M12.14,7.89h0s-.01-.02-.02-.03-.01-.02-.02-.04c0,0,0,0,0,0,0,0,0,0,0,0,0,.01.01.02.02.04,0,.01.01.02.02.03h0s0,0,0,0Z"/>
                  <path class="cls-1" d="M12.12,7.89h0s-.02-.02-.03-.03c0-.01-.01-.02-.01-.03,0,0,0,0,0,0,0,0,0,0,0,0,0,.01,0,.02.01.03,0,.01.02.02.03.03h0s0,0,0,0Z"/>
                  <path class="cls-1" d="M12.11,7.89h0s-.01,0-.02-.01c0,0-.01-.01-.02-.02,0,0,0,0,0,0,0,0,0,0,0,0,0,0,.01.01.02.02h.02s0,.01,0,.01h0Z"/>
                  <path class="cls-1" d="M12.06,7.93s0,0,0,0c0,0,0-.01,0-.02,0-.01,0-.02,0-.03h0s0,0,0,0c0,.01,0,.02.01.03,0,0,0,.01,0,.02,0,0,0,0,0,0h0Z"/>
                  <path class="cls-1" d="M12,7.93h0s0,0,0,0c0,0,0-.01,0-.02,0-.01,0-.02,0-.03t0,0h0s0,.02,0,.03c0,0,0,.01,0,.02h0Z"/>
                  <path class="cls-1" d="M11.95,7.93h0s0-.01,0-.02v-.02h0s0,0,0,0c0,0,0,.02,0,.02,0,0,0,.01,0,.02t0,0Z"/>
                  <path class="cls-1" d="M11.99,7.93h0s0-.01,0-.02c0,0,0-.01,0-.02h0s0,0,0,0c0,0,0,.01,0,.02,0,0,0,.01,0,.02t0,0h0Z"/>
                </g>
              </g>
            </g>
          </g>
          <g>
            <g>
              <path class="cls-5" d="M13.11,7.67s-.01,0-.02,0c0,0-.01,0-.02,0-.03.01-.04.02-.04.03,0,0,0,0,0,.01s.01,0,.01,0h0s0,0,0,0c0,0,0,.01,0,.02.01.01.04.01.06.01.02,0,.04-.01.04-.03,0,0,0-.02,0-.03h0s-.02,0-.03-.01c-.01,0-.02,0-.02-.01Z"/>
              <path class="cls-5" d="M13.21,7.76s0,0,0,0c-.04.03-.05.05-.05.06,0,0,0,.01.02.02,0,0,0,0,.01,0h0s0,0,.01.01c.01,0,.03,0,.05,0s.03-.03.04-.04h0s0-.02,0-.03c-.01,0-.02-.02-.04-.02-.02,0-.03,0-.03,0Z"/>
              <path class="cls-5" d="M13.46,7.78s-.02-.01-.02-.02c0,0-.01,0-.02,0-.02,0-.03,0-.03.03,0,0,0,.01,0,.02,0,.01,0,.02,0,.03,0,0,.02.01.03.01.04,0,.06,0,.08-.01,0,0,0-.01,0-.02,0-.01,0-.01,0-.01,0,0,0,0,0,0,0,0,0,0,0,0-.01-.01-.02-.01-.04-.02Z"/>
              <path class="cls-6" d="M14.16,7.18s-.02,0-.04,0c-.01,0-.02,0-.04,0-.01,0-.02,0-.03,0,0,0-.02,0-.04,0-.02,0-.04,0-.05,0-.02,0-.03,0-.04,0-.01,0-.01,0-.02-.01,0,0-.01-.01-.03-.01-.03-.01-.05,0-.07,0h0s-.08,0-.12,0h-.01s0,0-.01,0c0,0,0,0,0,0,0,0,0,0,0,0-.02-.03-.06-.03-.09-.03h-.03s-.03,0-.04,0c0,0-.01-.01-.01-.02,0,0,0-.02-.02-.03-.01-.01-.02-.02-.03-.02,0,0-.02-.01-.02-.02,0,0,0,0,0-.01,0,0,0-.01,0-.03,0-.02-.01-.03-.02-.04,0-.01-.01-.02-.01-.03,0-.01,0-.02.01-.02,0,0,0,0,0,0,0,0,0,0,0,0,.02.02.06,0,.08-.01.02-.01.05-.03.05-.04,0,0,0,0,0,0,0,0,0,0-.02,0h-.02s-.04-.01-.05-.03c0,0,0,0-.01,0s-.01,0-.02,0c-.02,0-.02,0-.04.02,0,0-.01,0-.02,0-.01,0-.02.01-.02.01-.01,0-.01-.01-.02-.03-.02-.01-.04,0-.05-.02,0,0,0,0,0-.01,0-.01-.03,0-.03-.01,0,0,0,0,0-.01h0s-.02-.03-.03-.03c-.03-.02-.09-.03-.1,0,0,0,0,0,0,.01,0,.01,0,.03.03.06.01,0,.02.01.03.02,0,.02-.02.04-.04.06-.02.02-.02.03-.03.05,0,0,0,0,0,0,0,0,0,0,0,.01,0,.01,0,.02.02.03,0,0,.01.01.01.02,0,.01,0,.02.03.02.02,0,.03,0,.03-.01,0,0,0,0,.01,0,.01,0,.02,0,.02,0,0,0,0,0,0,0s0,0-.01.01c-.02.02-.04.03-.03.06,0,0,0,.01,0,.02,0,0,0,.01,0,.03,0,0,.01,0,.02,0,0,0,0,.01,0,.01,0,.02,0,.03,0,.04,0,0,0,.01-.01.03,0,.01,0,.02-.01.02,0,0-.01,0-.02.03-.01.03-.01.05,0,.06,0,0,.01,0,.01,0h0s0,.01,0,.02c0,.02,0,.03.01.05,0,0,0,.01,0,.02-.01.02,0,.04,0,.04,0,0,0,.01,0,.02h0s0,.02,0,.02c0,0,0,0,0,.02-.02.04-.03.07-.03.09,0,.02-.01.03-.02.04,0,0,0,0,0,.01,0,.01-.01.02-.03.03.01,0,.02,0,.02,0,0,0,.01,0,.02.01.01,0,.02,0,.03.01,0,0,0,0,.01,0,0,0,.01-.01.01-.03,0-.02,0-.02,0-.03,0,0,0,0,0-.01,0,0,0-.01,0-.01,0,0,0,0,.02-.03.02-.05.04-.07.05-.06.01,0,.02.02.01.04,0,0,0,.01,0,.02-.01.02-.02.04-.02.08,0,.05,0,.05-.02.07h0s-.02.03-.02.04h0s0,0,0,0c0,0,.02,0,.03,0,.02,0,.03.02.04.02,0,0,0,0,0-.01,0,0,0,0,0,0,0,0,.01,0,.01-.02,0-.01,0-.02,0-.03,0-.02,0-.03.02-.05,0-.01,0-.02.01-.03,0-.02.01-.05.04-.06.03-.02.05-.01.06-.01,0,0,.01,0,.02,0s.01,0,.02,0c0,0,0,0,0,0s0,0,0,.01c0,0,0,0,0,.01,0,0,0,0,.03,0,.02,0,.03-.01.04-.02t0,0h0s0,.03,0,.04c0,0,0,.01,0,.02,0,0,0,.01-.01.02,0,.01-.02.02-.02.05,0,.03-.02.04-.04.05,0,0-.01,0-.02.01,0,0,0,0-.01,0,0,0,.01,0,.02.02.02.01.03.01.04.02,0,0,0,0,0,0h0s0,0,0,0c.02,0,.03-.02.03-.04h0s.02-.06.06-.08c.01,0,.02,0,.03,0,.02,0,.02,0,.04-.04h0s0-.02.01-.03c0,0,0,0,0-.01,0,0,0,0,.01.01h0s.02.02.03.02c.03.02.04.03.03.05-.01.04-.06.08-.08.09,0,0,0,0-.01,0-.01,0-.03,0-.03.03v.02s0,0,0,0c.01,0,.03,0,.05,0,.01,0,.03,0,.05.02,0-.01.01-.02.02-.04,0,0,.01-.01.02-.02.01-.02.02-.03.03-.04s0-.01.02-.02c.01-.01.02-.02.04-.03,0,0,0,0,.01,0,.03-.02.05-.03.06-.06,0-.01,0-.02,0-.02,0,0,0-.01,0-.02,0,0,0-.01.01-.02,0,0,.01-.01.02-.02,0-.02,0-.03.01-.03,0-.02,0-.03,0-.05,0-.01,0-.02,0-.03s0,0,0-.02c0-.01,0-.03,0-.04,0,0,0-.01.01-.02,0,0,.01-.01.01-.02,0,0,0-.01,0-.02,0,0,0,0,0,0,0,0,0,0,.02,0,0,0,.02,0,.03-.01.02-.01.03-.02.04-.04,0-.01.01-.02.01-.03,0,0,0-.01,0-.02,0,0,.01,0,.02,0,0,0,.02,0,.02-.01.01-.01.02-.03.01-.05Z"/>
              <path class="cls-5" d="M13.66,7.84s0,0,0,.01c0,0-.01,0-.02,0-.01,0-.03.01-.03.02,0,0,0,.02.02.02,0,0,0,0,.01,0t0,0s-.01,0-.01,0c0,0,0,.01,0,.01,0,0,.02,0,.04,0,.01,0,.03,0,.04,0,.02,0,.04-.02.05-.03,0,0,0-.01,0-.02,0,0,0,0,0-.01h0s-.03-.02-.05-.02c-.02,0-.04,0-.05,0Z"/>
              <path class="cls-5" d="M13.19,6.76s0,.01,0,.01c0,.01.02,0,.03.01,0,0,0,0,0,.01,0,.01.03,0,.05.02.01.01.01.03.02.03,0,0,0,0,.02-.01,0,0,.01,0,.02,0,.02,0,.03-.01.04-.02,0,0,.01,0,.02,0s0,0,.01,0c0,0,0,0,0,0,.11-.02.18.03.26.09.04.03.09.07.14.08.05.01.09.02.13.02.06,0,.09-.02.11-.04,0,0,0,0,0,0s0,0,0,0c-.16.02-.26-.06-.35-.14.04.02.09.03.15.02.04,0,.07-.02.1-.04,0,0,0,0,0,0,0,0,0,0,0,0,0,0-.11,0-.17-.01-.02,0-.04-.02-.07-.03-.05-.03-.12-.07-.23-.07-.14,0-.24.08-.26.1,0,0,0,0,0,0h0Z"/>
            </g>
            <g>
              <path class="cls-1" d="M13.22,6.78s0,0,0,0t0,0s0,0,0,0c0,0,0,0,0,0ZM14.16,7.18s-.02,0-.04,0c-.01,0-.02,0-.04,0-.01,0-.02,0-.03,0,0,0-.02,0-.04,0-.02,0-.04,0-.05,0-.02,0-.03,0-.04,0-.01,0-.02,0-.02-.01,0,0-.01-.01-.03-.01-.03-.01-.05,0-.07,0h0s-.08,0-.12,0h-.01s0,0,0,0,0,0,0,0c0,0,0,0,0,0-.02-.03-.06-.03-.09-.03h-.03s-.03,0-.04,0c0,0,0-.01-.01-.02,0,0,0-.02-.02-.03-.01-.01-.02-.02-.03-.02,0,0-.01-.01-.02-.02,0,0,0-.01,0-.02,0,0,0-.01,0-.03,0-.02-.01-.03-.02-.04,0-.01-.01-.02-.01-.03,0-.01,0-.02.01-.02h0s0,0,0,.01c.02.02.06,0,.08-.01.02-.01.05-.03.05-.04,0,0,0,0,0,0,0,0,0,0-.02,0h-.02s-.01,0-.02,0c0,0-.01,0-.02-.01,0,0-.01,0-.01-.01.11-.02.18.03.26.09.04.03.09.07.14.08.05.01.09.02.13.02.06,0,.09-.02.11-.04,0,0,0,0,0,0,0,0,0,0,0,0-.16.02-.26-.06-.35-.14.04.02.09.03.15.02.04,0,.07-.02.1-.04,0,0,0,0,0,0,0,0,0,0,0,0,0,0-.11,0-.17-.01-.02,0-.04-.02-.07-.03-.05-.03-.12-.07-.23-.07-.14,0-.24.08-.26.1,0,0,0,0,0,0-.01,0-.02-.01-.03-.02-.03-.02-.09-.03-.1,0,0,0,0,0,0,.01,0,.01,0,.03.03.06.01,0,.02.01.03.02,0,.02-.02.04-.04.06-.02.02-.02.04-.03.05,0,0,0,0,0,0s0,0,0,.01c0,.01,0,.02.02.03,0,0,.01.01.01.02,0,.01,0,.02.03.02.02,0,.03,0,.03-.01,0,0,0,0,.01,0,.01,0,.02,0,.02,0,0,0,0,0,0,0,0,0,0,0-.01.01-.02.02-.04.04-.03.06,0,0,0,.01,0,.02,0,0,0,.01,0,.03,0,0,.01,0,.02,0,0,0,0,.01,0,.01,0,.02,0,.03,0,.04,0,0,0,.01-.01.03,0,.01,0,.02-.01.02,0,0-.01,0-.02.03-.01.03,0,.05,0,.06,0,0,.01,0,.01,0h0v.02s0,.03.01.05c0,0,0,.01,0,.02-.01.02,0,.04,0,.05,0,0,0,.01,0,.02h0s0,.02,0,.02c0,0,0,0,0,.02-.02.04-.03.07-.03.09,0,.02-.01.03-.02.04,0,0,0,.01,0,.01s0,.01,0,.01c0,0-.01,0-.02.01,0,0-.01,0-.02.01-.03.01-.04.02-.04.03,0,0,0,0,0,.01s.01,0,.01,0h0s0,.02,0,.03c.01,0,.04.01.06.01.02,0,.04-.01.04-.03,0,0,0-.02,0-.03h0s0,0,0,0c.01,0,.01-.01.02-.03,0-.02,0-.02,0-.03,0,0,0,0,0-.01t0-.01s0,0,.02-.03c.02-.05.04-.07.05-.06.01,0,.02.02.01.04,0,0,0,.01,0,.02-.01.02-.02.04-.02.08,0,.05,0,.05-.02.07h0s-.02.03-.02.03t0,0s0,0,0,0c0,0,0,0,0,0-.04.03-.05.05-.05.06,0,0,0,.01.02.02,0,0,0,0,.01,0h0s0,.01.01.01c.01,0,.03,0,.05,0,.02,0,.04-.03.04-.04h0s0-.02,0-.03c0,0,0,0,0-.01,0,0,0,0,0,0,0,0,.01,0,.01-.02v-.03s.01-.03.02-.05c0-.01,0-.02.01-.03,0-.02.01-.05.04-.06.03-.01.05-.01.06-.01,0,0,.01,0,.02,0s.01,0,.02,0c0,0,0,0,0,0,0,0,0,0,0,0,0,0,0,.01,0,.01,0,0,0,0,.03,0,.02,0,.03-.01.03-.02h0s0,.04,0,.05c0,0,0,.01,0,.02,0,0,0,.01-.01.02,0,.01-.02.02-.02.05-.01.03-.02.04-.04.05,0,0-.01,0-.02.01,0,0,0,0-.01,0,0,0-.01,0-.02,0-.01,0-.03,0-.03.03,0,0,0,.01,0,.01,0,.01,0,.02,0,.03,0,0,.02.01.03.01.04,0,.06,0,.08-.01,0,0,0-.01,0-.02,0-.01,0-.01,0-.01,0,0,0,0,0,0h0s.03-.02.03-.05h0s.02-.06.06-.08c.01,0,.02,0,.03,0,.02,0,.02,0,.04-.04h0s0-.02.01-.03c0,0,0,0,0-.01,0,0,0,0,.01.01h0s.02.02.03.02c.02.02.04.03.03.05-.01.04-.06.08-.08.09,0,0,0,0-.01,0-.01,0-.03,0-.03.03,0,.01,0,.02,0,.02h0s0,.01-.01.01c0,0,0,0-.01,0-.02,0-.03.01-.03.02,0,0,0,.02.02.02,0,0,0,0,.01,0t0,0s-.01,0-.01,0c0,0,0,.01,0,.01,0,0,.02,0,.04,0,.01,0,.03,0,.04,0,.02,0,.04-.02.05-.03,0,0,0-.01,0-.02,0,0,0,0,0-.01h0s0,0,0,0c0,0,0,0,0,0,0,0,0,0,0-.01,0,0,0-.01.01-.02,0,0,.01-.01.02-.02.01-.02.02-.03.03-.04,0,0,0-.01.02-.02.01-.01.02-.02.04-.03,0,0,0,0,.01,0,.03-.02.05-.03.06-.06,0-.01,0-.02,0-.02s0,0,0-.02c0,0,0-.01.01-.02,0,0,.01-.01.02-.02,0-.01.01-.03.01-.03,0-.02,0-.03,0-.05,0-.01,0-.02,0-.03s0,0,0-.02c0-.01,0-.03,0-.04,0,0,0-.01.01-.02,0,0,.01-.01.01-.02,0,0,0-.01,0-.02s0,0,0,0c0,0,0,0,.02,0,0,0,.02,0,.03-.01.02-.01.03-.02.04-.04,0-.01.01-.02.01-.03,0,0,0-.01,0-.02,0,0,.01,0,.02,0,0,0,.01,0,.02-.01.01-.01.02-.03.01-.05ZM13.47,6.78s.02-.03.01-.04c0-.01-.01-.02-.02-.03.04,0,.07,0,.11.02,0,0,0,.02,0,.03,0,.02-.03.03-.03.04-.02,0-.05-.01-.07-.02ZM13.55,6.8s.03-.02.03-.04c0,0,0-.01,0-.02.02,0,.04.02.06.03t0,0h0s.01,0,.02.01c0,0,0,.02,0,.02-.01.01-.04.02-.05.02-.02-.01-.03-.02-.05-.03ZM14.02,6.96s-.04.02-.09.03c0,0,.02-.01.02-.03.02,0,.05,0,.07,0ZM13.94,6.95s-.01.02-.02.03c-.02,0-.04,0-.07,0,.01,0,.03-.02.03-.03.02,0,.04.01.06.01ZM13.88,6.94s-.02.03-.03.03c-.01,0-.03,0-.04-.01-.01,0-.03-.01-.04-.02.01,0,.03,0,.04-.01,0,0,.01-.01.01-.02.02,0,.04.02.06.02ZM13.82,6.91s0,.01,0,.02c-.01.01-.04.01-.05.01-.02-.01-.04-.03-.06-.04,0,0,.02,0,.03-.01,0,0,.01-.02.01-.03.03.02.05.04.08.05ZM13.73,6.85s0,.02-.01.03c-.01.01-.02.01-.03.01,0,0-.01,0-.02-.01-.02-.02-.04-.03-.06-.05.01,0,.03,0,.04-.02,0,0,0-.01,0-.02,0,0,.01.01.02.02.02.01.03.03.05.04ZM13.86,6.78h.06s-.04.02-.06.03c0-.01,0-.02,0-.03ZM13.85,6.78s0,.02,0,.03c0,0-.01,0-.02,0-.01,0-.02,0-.03,0,0-.01.01-.03.01-.04.01,0,.03,0,.04,0ZM13.76,6.76s.03,0,.05.01c0,.01,0,.03-.01.04-.03,0-.06,0-.09-.01.02-.01.03-.03.03-.05,0,0,.02,0,.03.01ZM13.69,6.73s.03.02.04.02c0,.01-.01.04-.03.04-.02,0-.04-.02-.05-.03.03,0,.03-.03.03-.04,0,0,0,0,0,0ZM13.67,6.72s0,.04-.03.04c-.02-.01-.03-.02-.05-.03.01,0,.02-.02.02-.05.03.01.05.02.07.03ZM13.6,6.68s-.01.04-.02.05c-.02-.01-.04-.02-.06-.02,0,0,0,0,0-.01,0-.01,0-.03-.01-.04.03,0,.06.01.09.02ZM13.46,6.66s.03,0,.05,0c0,0,.02.02.02.04,0,0,0,0-.01.01-.03,0-.05,0-.07,0h0s-.01-.03-.02-.04c.01,0,.03,0,.04,0ZM13.41,6.66s.02.02.02.03c0,0,0,0,0,0-.02,0-.04,0-.06.01,0-.01-.03-.02-.04-.03.02,0,.05-.02.08-.02ZM13.1,6.78s-.02-.04-.02-.05t0,0s.05,0,.08.01c.01,0,.02.01.03.02-.02,0-.05.01-.06.04,0,0,0,0,0,0-.01,0-.02,0-.03-.02ZM14.14,7.22s-.01,0-.02,0c0,0-.02,0-.02.01s-.01.02-.01.02c0,0,0,.01,0,.02,0,.01-.02.02-.03.03-.01,0-.02.01-.03.01-.01,0-.02,0-.02.02,0,0,0,.01,0,.02,0,0,0,0,0,.01,0,0,0,0,0,.01,0,0,0,0-.01.02,0,.01-.01.03-.01.05,0,.01,0,.01,0,.02,0,0,0,.01,0,.02,0,.02,0,.03,0,.04,0,0,0,.02,0,.03,0,.01-.01.01-.02.02,0,0-.01.01-.01.02,0,.01,0,.02,0,.02s0,0,0,.02c0,.02-.03.04-.05.05,0,0,0,0-.01,0-.01,0-.03.02-.04.03-.01.01-.02.02-.02.03,0,0-.01.02-.02.04,0,0-.01.01-.02.02-.01.02-.02.03-.03.04h0s0,.02,0,.02h0s-.02.03-.04.04c-.03.01-.07,0-.08,0,0,0,.01,0,.01,0,0,0,0-.01-.02-.02s-.01-.01-.01-.01c0,0,.01-.01.02-.01,0,0,.01,0,.02,0,.01,0,.02-.01.02-.02t0,0s0-.01,0-.02c0-.02.01-.02.02-.02,0,0,.01,0,.01,0,.02-.01.07-.06.08-.1,0-.03-.01-.04-.04-.06,0,0-.02-.01-.03-.02h0s-.02-.02-.02-.02c0,0,0,0-.01.02,0,0,0,.01-.01.02h0s-.02.03-.03.03c0,0-.02,0-.03,0-.05.02-.06.05-.07.07h0s-.01.04-.03.05c0,0,0,0,0,0,0,0,0,0-.01,0,0,0,0,0,0,0,0,0,0,.01,0,.02,0,0,0,0,0,.01,0,0-.04,0-.07,0-.01,0-.02,0-.02,0s0-.01,0-.02c0,0,0-.01,0-.02,0-.01,0-.02.02-.02.01,0,.02,0,.03-.01,0,0,0,0,0,0,0,0,.01,0,.02-.01.02-.01.04-.02.05-.06,0-.02.01-.03.02-.04,0,0,.01-.01.01-.02s0-.02,0-.03c0-.01,0-.02,0-.04h0s0-.02,0-.02,0,0-.01,0c0,0-.02.02-.04.02,0,0,0,0-.01,0,0,0,0-.01,0-.01,0,0,0-.01,0-.02,0,0-.01,0-.03,0,0,0-.01,0-.02,0-.01,0-.03,0-.07.01-.04.02-.04.04-.05.07,0,.01,0,.02-.01.03-.01.02-.02.04-.02.05,0,.01,0,.02,0,.03,0,0,0,.01,0,.01,0,0,0,0-.01,0,0,0,0,0,0,.01,0,.01,0,.03,0,.04,0,.01-.02.03-.03.03-.01,0-.03,0-.04,0,0,0,0,0,0,0h0s0-.01-.02-.02c0,0-.01,0-.01-.01,0-.01.01-.03.05-.05,0,0,0,0,.01,0h0s0,0,0,0,0,0,.02-.03h0s.02-.03.02-.08c0-.04,0-.05.02-.07,0,0,0-.01,0-.02.01-.03,0-.05-.02-.06-.03-.01-.06.05-.07.07-.01.02-.02.03-.02.03,0,0,0,0,0,.01,0,0,0,.01,0,.01,0,.01,0,.01,0,.03,0,.02,0,.02,0,.02,0,0-.01,0-.01.01,0,0,0,0,0,0,0,.01,0,.02,0,.03,0,.01-.02.02-.04.02-.02,0-.04,0-.05,0,0,0,0,0,0-.01,0-.01,0-.02-.01-.02,0,0,0,0-.01,0,0,0,.01-.01.03-.02.01,0,.02-.01.03-.02.01,0,.02-.01.02-.02,0,0,0,0,0-.01,0-.01.02-.02.02-.05,0-.02.01-.05.03-.09.01-.02,0-.02,0-.03,0,0,0,0,0-.01h0s0-.03-.01-.04c0,0-.01-.02,0-.03,0-.01,0-.02,0-.03,0-.01-.01-.02-.01-.04,0-.02,0-.02,0-.03,0,0,0,0,0,0s0,0,0,0c-.01-.01-.02-.02,0-.05,0-.01.01-.02.02-.02,0,0,.01-.01.02-.03,0-.01,0-.02.01-.03,0-.01.01-.02,0-.04,0-.02,0-.02,0-.02,0,0,0,0,0,0,0,0,0,0-.01,0,0,0,0,0,0-.01,0,0,0-.01,0-.03,0-.01,0-.03.02-.04,0,0,.01-.01.01-.01,0,0,0-.01,0-.02,0,0-.02,0-.03,0-.02,0-.02,0-.02.01,0,0,0,0-.02,0s-.02,0-.02-.02c0,0,0-.02-.02-.02-.02-.01-.02-.02-.02-.03,0,0,0,0,0-.01,0-.01.01-.03.03-.04.02-.02.04-.04.04-.07,0,0,0,0,0-.01,0-.02.04-.03.05-.03h0s.02-.02.05-.04c0,0,.02,0,.03.01h0s0,0,0,0c0,0-.02-.01-.03-.01.02-.01.04-.02.06-.03.01,0,.03.01.04.03-.08.02-.14.06-.14.06,0,0,0,0,0,0t0,0s0,0,0,0h0s.02-.02.06-.03c.02,0,.04.02.04.02h0s0,0,0,0c0,0,0,0,0,0,0,0-.02-.02-.03-.02.02,0,.04-.02.07-.02.02,0,.03.04.03.04,0,0,0,0,0,0s0,0,0,0c0,0-.01-.03-.03-.05.02,0,.05-.01.07-.01.02,0,.02.02.03.03,0,.02,0,.04-.01.04-.02,0-.04,0-.06,0-.03,0-.05.02-.08.03,0,0,0,0,0,0,0,0,0,0,0,0,.03-.01.05-.02.07-.03.02.02.04.04.07.04,0,0,.01,0,.02,0h0s-.02.02-.05.03c-.04.02-.06.02-.06.01h0s0-.01-.01-.01c0,0-.02.02-.02.03,0,.02,0,.03.01.04,0,.01.01.02.02.04,0,.01,0,.02,0,.02,0,0,0,.01,0,.02.01.01.02.02.03.02,0,0,.02.01.03.02.01.01.01.02.02.02,0,0,0,.01.01.02.01.01.03.01.05.01h.03s.06,0,.08.02c0,0,0,0,0,0,0,0,0,.01,0,.01,0,0,0,0,.01,0h.01s.08.01.13,0h0s.04,0,.06,0c.01,0,.02,0,.02.01,0,0,.01.01.03.01.02,0,.03,0,.05,0,.01,0,.03,0,.05,0,.02,0,.03,0,.04,0s.01,0,.03,0c.01,0,.03,0,.04,0,.02,0,.03,0,.03,0,0,0,0,.02,0,.03ZM13.22,6.78s0,0,0,0t0,0s0,0,0,0c0,0,0,0,0,0Z"/>
              <path class="cls-1" d="M13.23,6.82s-.02,0-.03,0c-.01,0-.02,0-.02.01,0,0,0,0,0,0,0,0,0,0,0,0,0,0,0,0,.01.01,0,0,0,0,.01,0,0,0,.02,0,.02,0,0,0,.04-.01.03-.03,0,0-.01,0-.03-.01ZM13.19,6.85s0,0-.01,0c0,0,0,0,0,0,0,0,0,0,.02,0,0,0,0,0,0,.01,0,0,0,.01,0,.02,0,0,0,0-.01,0ZM13.22,6.85h0s0,0,0-.01,0-.01,0-.01h.01s.03,0,.03,0c0,0-.02.01-.03.02Z"/>
              <path class="cls-1" d="M13.14,6.76s0,0,0,0h0s0,0,0,0c0,0-.02-.02-.02-.02,0,0,0,0,0,0t0,0s.01.01.02.01Z"/>
              <polygon class="cls-1" points="13.16 6.82 13.16 6.82 13.14 6.84 13.14 6.84 13.15 6.84 13.15 6.84 13.16 6.82 13.16 6.82"/>
              <polygon class="cls-1" points="13.13 6.89 13.13 6.88 13.13 6.87 13.13 6.86 13.13 6.87 13.13 6.88 13.13 6.89 13.13 6.89"/>
              <polygon class="cls-1" points="13.16 6.86 13.15 6.87 13.15 6.87 13.15 6.87 13.16 6.87 13.16 6.86 13.16 6.86 13.16 6.86"/>
              <polygon class="cls-1" points="13.17 6.82 13.17 6.82 13.19 6.8 13.19 6.8 13.19 6.8 13.17 6.82 13.17 6.82 13.17 6.82"/>
              <polygon class="cls-1" points="13.2 6.82 13.2 6.82 13.21 6.8 13.21 6.8 13.21 6.8 13.2 6.81 13.2 6.82 13.2 6.82"/>
              <polygon class="cls-1" points="13.24 6.81 13.24 6.81 13.25 6.8 13.25 6.79 13.25 6.79 13.24 6.81 13.24 6.81 13.24 6.81"/>
              <path class="cls-1" d="M13.29,6.9h0s.01,0,.02-.01,0-.02,0-.02t0,0s0,0,0,0c0,0,0,.01,0,.02,0,0-.01,0-.02,0,0,0,0,0,0,0s0,0,0,0Z"/>
              <path class="cls-1" d="M13.22,6.89s0,0,0,0h0s0,.01-.01.02c0,0,0,.01,0,.01,0,0,0,0,0,0h0s0,0,0,0c0,0,0,0,0-.01,0,0,0-.01,0-.02Z"/>
              <path class="cls-1" d="M13.24,6.87s0,0,0,0c0,0,0,0,0,0t0,0s0,0,.01.01c0,0,0,0,0,0,0,0,.01,0,.01,0,0,0,0,0,0,0,0,0,0,0,0,0,0,0,0,0-.01,0Z"/>
              <path class="cls-1" d="M13.36,6.85h0s0,0,0,0c0,0,0-.01.01-.02,0,0,0,0,.01-.01,0,0,0,0,0,0,0,0,0,0,0,0,0,0,0,0-.01.01,0,0-.01.02-.01.02,0,0,0,0,0,0Z"/>
              <path class="cls-1" d="M13.41,6.84s.01,0,.02,0c0,0,0,0,0,0h0s0,0,0,0c0,0,0,0,0,0s0,0-.01,0c-.01,0-.02,0-.02,0t0,0s0,0,0,0Z"/>
              <path class="cls-1" d="M13.24,6.96s0,0,0,0c0,0,0,0,0,0,0,0,.01,0,.02,0,0,0,0,0,.01,0,0,0,0,0,0,0,0,0,0,0,0,0,0,0,0,0,0,0,0,0,0,0,0,0,0,0-.02,0-.02,0Z"/>
              <path class="cls-1" d="M13.17,6.92s-.01,0,0,.02c0,0,0,0,0,.01t0,0h0s0,0,0,0c0,0,0,0,0-.01,0,0,0-.01,0-.01h0s0,0,0,0Z"/>
              <path class="cls-1" d="M13.14,6.93s0-.02,0-.02c0,0,0,0,0,0t0,0s0,.01,0,.02c0,0,0,0,0,.01h0s0-.01,0-.01Z"/>
              <path class="cls-1" d="M13.26,7.07s0,0,0,0h0s0,0,0,0c0-.01,0-.02,0-.03,0,0,.01-.01.02-.02,0,0,.01-.01.02-.02,0-.01,0-.02,0-.04,0,0,0,0,0,0,0,0,0,0,0,0,0,.01,0,.02,0,.03,0,0,0,.01-.01.02,0,0-.01.01-.02.02,0,.01,0,.02-.01.03Z"/>
              <path class="cls-1" d="M13.2,7.02s.01,0,.02-.01c0,0,0,0,0,0,0,0,0,0,0,0,0,0,0,0-.01.01-.01,0-.02,0-.03,0,0,0,0,0,0,0,0,0,0,0,0,0h0s.02,0,.03-.01Z"/>
              <path class="cls-1" d="M13.22,7.03s0,0-.05.03h0s0,0,0,0h0s.03-.02.03-.02c0,0,0,0,0,0,0,0,0,0,0,0,0,0,0,0,0,0Z"/>
              <path class="cls-1" d="M13.32,7.04h0s0-.01,0-.02c0-.01,0-.03,0-.03,0,0,0,0,0,0h0s0,.02,0,.03c0,.01,0,.02,0,.02,0,0,0,0,0,0h0Z"/>
              <path class="cls-1" d="M13.22,7.16s0-.01,0-.02c0,0,.01-.01.01-.01s0,0,0,0c0,0,0-.02,0-.03,0,0,0,0,0,0,0,0,0,0,0,0,0,.01,0,.02,0,.03,0,0,0,0,0,0,0,0,0,0-.01.02,0,.01-.01.01-.01.02,0,0,0,0,0,.01,0,0,0,0,0,0h0s0,0,0,0h0Z"/>
              <path class="cls-1" d="M13.24,7.26s0,0,0,0c0,0,0,0,0,0,0-.01.01-.02.01-.03,0-.01,0-.02,0-.02,0,0,0-.01,0-.02,0-.01,0-.02,0-.04,0,0,0,0,0,0,0,0,0,0,0,0,0,.01-.01.03,0,.04,0,0,0,.01,0,.02,0,0,0,.01,0,.02,0,.01,0,.02-.01.03,0,0,0,0,0,0Z"/>
              <path class="cls-1" d="M13.21,7.21s0,0,0,0t0,0s-.01.01-.01.03v.02s0,0,0,0h0s0,0,0,0c0,0,0-.01,0-.01,0-.01,0-.02.01-.02Z"/>
              <path class="cls-1" d="M13.21,7.28s0,0,0,0c0,.01-.01.02-.02.03,0,0,0,.01-.01.01t0,0h0s0,0,0,0c0,0,.01,0,.01-.01.01-.01.02-.02.02-.03t0,0Z"/>
              <path class="cls-1" d="M13.29,7.05s0,.02-.01.03c0,.01,0,.02-.01.03t0,0h0s0,0,0,0c0,0,0-.02.01-.03,0,0,0-.02.01-.03,0,0,0,0,0,0,0,0,0,0,0,0Z"/>
              <path class="cls-1" d="M13.31,7.07s0,0,0,0c0,.01-.01.03-.02.04,0,0,0,0-.01.01,0,0,0,0,0,.01,0,0,0,.01,0,.04,0,.01,0,.02.01.03h0s0,0,0,0c0-.01,0-.02-.01-.03,0-.02,0-.03,0-.04,0,0,0,0,.01-.01,0,0,0,0,.01-.01.01-.01.02-.02.02-.04,0,0,0,0,0,0Z"/>
              <path class="cls-1" d="M13.31,7.11s0,0,0,0c0,0,.01.03,0,.04,0,0,0,0,0,0t0,0s0,0,0,0c0,0,0,0,0,0,0,0,0,0,0,0,.01-.02,0-.05,0-.05t0,0Z"/>
              <path class="cls-1" d="M13.34,7.23s0,0,0,.01c0,.02,0,.03-.02.05,0,0,0,0,0,0h0s0,0,0,0c0-.02.02-.03.02-.05h0s0-.02,0-.03c0-.02,0-.03,0-.05,0-.02,0-.03,0-.04,0-.02.02-.03.04-.05,0,0,0,0,0,0,0,0,0,0,0,0-.02.02-.03.03-.04.05,0,0,0,.02,0,.04,0,.01,0,.03,0,.05v.02Z"/>
              <path class="cls-1" d="M13.28,7.27s-.03.02-.04.04c0,0-.01.02,0,.04,0,.01,0,.02,0,.02,0,0,0,.01,0,.02,0,0,0,.01,0,.02,0,0,0,0,0,0h0s0,0,0,0c0,0,0-.01,0-.02,0-.01,0-.02,0-.03,0,0,0-.01,0-.02,0-.02,0-.04,0-.04.01-.02.03-.03.04-.03,0,0,0,0,0,0,0,0,0,0,0,0Z"/>
              <path class="cls-1" d="M13.27,7.47s0-.04,0-.04c0,0,0,0,0,0,0,0,0,0,0,0,0,0-.02.02,0,.05,0,0,0,.01.01.01,0,0,0,0,0,0,0,0,0,0,0,0h0s0-.01,0-.02Z"/>
              <path class="cls-1" d="M13.2,7.46s0,0,0,0c0,0,0-.02,0-.03,0,0,0,0,0,0,0,0,0,0,0,0,0,.02,0,.03,0,.04,0,0,0,0,0,0,0,0,0,0,0,.01,0,0,0,0,0,.01,0,0,0,0,0,0h0s0-.01,0-.02c0,0,0,0,0-.01Z"/>
              <path class="cls-1" d="M13.38,7.49s-.01,0-.02,0c0,0,0,0-.01.01,0,0,0,.01-.01.02,0,0,0,0-.01,0h0s-.02-.02-.02-.04c0,0,0,0,0,0t0,0s.01.04.03.04h0s.01,0,.01,0c0,0,.01-.01.01-.02s0,0,0-.01c0,0,0,0,.01,0,0,0,0,0,0,0,0,0,0,0,0,0Z"/>
              <path class="cls-1" d="M13.32,7.57s0,0,0,0c0,.03,0,.05-.02.05,0,0,0,0-.01,0s-.01,0-.01,0c0,0,0,.01.02.02h0s0,0,0,0c0,0,0,0,0,0-.02-.01-.02-.02-.02-.02,0,0,0,0,0,0,0,0,0,0,.01,0,.01,0,.02-.03.02-.06,0,0,0,0,0,0Z"/>
              <path class="cls-1" d="M13.28,7.69h0s0,.02,0,.03c0,0-.01.01-.02.01,0,0,0,0,0,0t0,0h0s.01,0,.02-.02c0-.01,0-.03,0-.03,0,0,0,0,0,0Z"/>
              <path class="cls-1" d="M13.16,7.63s0,0,0,0c0,0,0,.01,0,.01h0s0,.02,0,.02h0s0,0,0,0c0,0,0,0,0-.01,0,0,0-.01,0-.01,0,0,0,0,0,0Z"/>
              <path class="cls-1" d="M13.46,7.39s0,0,0,0c0,.01,0,.02-.01.03,0,.01-.01.03-.02.04,0,0,0,0,0,0h0s.02-.03.02-.04c0-.01,0-.02,0-.03,0,0,0,0,0,0Z"/>
              <path class="cls-1" d="M13.46,7.35s0,0,0,0c0,.01-.02.03-.03.04-.01.02-.02.03-.03.03,0,0,0-.02,0-.04,0,0,0,0,0-.01,0,0,0,0,0,0,0-.01,0-.03,0-.04,0,0,0,0,0,0h0s0,.03,0,.05c0,0,0,0,0,0,0,0,0,0,0,.01,0,0,0,.04.01.05h0s.02-.01.03-.03c0-.01.02-.03.03-.04,0,0,0,0,0,0Z"/>
              <path class="cls-1" d="M13.39,7.22s0,0,0,0h0s-.01.02-.02.03c0,0,0,.01,0,.02,0,0,0,.01,0,.02,0,.01,0,.02-.02.03,0,0,0,0,0,0t0,0h0s.02-.02.02-.03c0,0,0-.01,0-.02,0,0,0-.01,0-.02,0,0,0-.02.01-.03Z"/>
              <path class="cls-1" d="M13.33,7.32s0,0,0,0c-.01.02-.02.03-.02.05,0,0,0,.01.01.02s0,.01.01.02,0,.02,0,.03c0,0,0,0,0,0h0s0,0,0,0c0-.01,0-.02,0-.04,0-.01-.01-.02-.01-.02s0-.01,0-.02c0-.01,0-.03.02-.04,0,0,0,0,0,0Z"/>
              <path class="cls-1" d="M13.36,7.44s0,0,0,0h0s0,0,0,0c0,0,0,0,0-.01,0-.02,0-.03,0-.04,0,0,0,0,0,0,0,0,0,0,0,0,0,0,.01.02,0,.03,0,0,0,0,0,.01Z"/>
              <path class="cls-1" d="M13.44,7.25s0,.02-.01.02h0s0,0,0,0c0-.01,0-.03-.01-.05h0s.01.03.01.05h0s0,.01,0,.01h0s0,0,0,0c0,0,.01-.01.01-.03,0-.01,0-.02,0-.03,0,0,0,0,0,0,0,0,0,0,0,0,0,0,0,.02,0,.03Z"/>
              <path class="cls-1" d="M13.38,7.12s0,0,0,0c0,0,0,.02,0,.02,0,0,0,0,0,.01,0,0,0,0,0,0,0,0,0,0,0,0,0,0,.02-.01.02-.02.01-.01.02-.02.02-.03,0,0,0,0,0,0,0,0,0,0,0,0,0,.01-.01.02-.02.03,0,0-.02.01-.02.01h0s0,0,0-.01c0-.01,0-.02,0-.03,0,0,0,0,0,0Z"/>
              <path class="cls-1" d="M13.53,7.29s-.02,0-.02,0c0,0,0-.01,0-.02,0,0,0-.02,0-.02,0-.02-.01-.04-.03-.05,0,0,0,0,0,0,0,0,0,0,0,0,.02.02.02.04.03.05v.02s0,.02,0,.03c0,0,.01,0,.02,0,0,0,0,0,.01,0,0,0,0,0,0,0s0,0,0,0Z"/>
              <path class="cls-1" d="M13.53,7.35s0,0,0,0c-.01.02-.02.04-.02.05,0,0,0,.01,0,.01,0,0,0,.01,0,.02,0,0,0,0-.02.01,0,0,0,0,0,0t0,0h0s.02,0,.02-.01c0,0,0-.02,0-.02,0,0,0,0,0-.01,0-.02,0-.03.01-.05t0,0Z"/>
              <path class="cls-1" d="M13.5,7.36h0s0,0,0,0c0,0,0-.01,0-.01,0-.01-.01-.02-.02-.03h0s0,0,0,0c0,0,.01.02.02.03,0,0,0,0,0,.01Z"/>
              <path class="cls-1" d="M13.56,7.32s0,.01,0,.01h0s0,0,0,0c0-.01,0-.03.02-.03,0,0,.01,0,.02,0,0,0,.01,0,.01,0,0,0,0,0,.01,0,0,0,0,0,.01-.03,0,0,0,0,0,0h0s0,0,0-.01t0,.02s0,.02,0,.03c0,0,0,0,0,0s0,0-.01,0c-.01,0-.02,0-.03,0,0,0-.01.01-.02.02h0s0-.05-.02-.07h0s0,0,0,0c.01.02.02.04.02.06,0,0,0,.01,0,.02Z"/>
              <path class="cls-1" d="M13.66,7.39s0,0,0,0h0s-.01.01-.02.01c-.02.01-.04.02-.05.03,0,0,0,0,.01-.01.02-.02.03-.04.03-.06,0,0,0,0,0,0,0,0,0,0,0,0,0,.03-.01.05-.03.06,0,0-.01,0-.01.01,0,0,0,0,0,0h0s0,0,0,0c0,0,.04-.01.06-.03,0,0,.01-.01.02-.02Z"/>
              <path class="cls-1" d="M13.69,7.36s0,0,0,0c0,.02,0,.04-.01.06,0,.01,0,.02-.01.03,0,0,0,0,0,0h0s0-.02.01-.03c0-.02.01-.04.01-.06,0,0,0,0,0,0Z"/>
              <path class="cls-1" d="M13.77,7.34s0,0,0,0c0,.01-.01.03-.02.04,0,.01-.02.02-.03.03,0,0,0,0,0,0h0s0,0,0,0c.01,0,.02-.02.03-.03s.02-.03.02-.04c0,0,0,0,0,0Z"/>
              <path class="cls-1" d="M13.74,7.45s0,0,0,0c0,0,0,0,0,0,0,.02.01.03.02.05,0,.02,0,.04,0,.04,0,0,0,0,0-.01,0,0,0-.02-.02-.04,0,0-.01-.01-.01-.02,0,0,0,0,0,0,0,0,0,0,0,0,0,0,.01.01.01.02.01.02.02.03.02.04,0,.01,0,.01.01.01h0s.01-.03,0-.05c0-.02,0-.03-.02-.05Z"/>
              <path class="cls-1" d="M13.55,7.47h0s.02.04.03.06c0,.01,0,.02,0,.03,0,0,0,0,0,0h0s0,0,0,0c0-.01,0-.02,0-.03,0-.02-.01-.04-.03-.06Z"/>
              <path class="cls-1" d="M13.61,7.59s-.01.01-.01.02c0,.01,0,.02,0,.03,0,0,0,0,0,0h0s0,0,0,0c0,0,0-.01,0-.02,0-.01.01-.02.01-.02h0s0,0,0,0Z"/>
              <path class="cls-1" d="M13.67,7.59s0,0,0,0c0,.01-.01.02-.02.03,0,0-.01,0-.01.01,0,0,0,0,0,0h0s0,0,.01-.01c0,0,.01-.02.02-.03,0,0,0,0,0,0Z"/>
              <path class="cls-1" d="M13.51,7.75s0,0,0,0c0,.01,0,.02-.01.03,0,0-.02,0-.02,0h0s0,0,0,0c0,0,.01,0,.02,0,0,0,0,0,.01,0,.01,0,.02-.02.02-.03,0,0,0,0,0,0Z"/>
              <path class="cls-1" d="M13.85,7.42s.02-.03.02-.05c0-.01,0-.03,0-.03,0,0,0-.01,0-.01s.01,0,.01.01c0,0,.01.01.01.01,0,0,0,0,0-.03,0-.02-.01-.03-.02-.05t0,0s0,0,0,0c.01.02.02.03.03.05,0,.01,0,.02,0,.02,0,0,0,0,0,0,0,0-.01-.02-.02-.01s0,0,0,.02c0,0,0,.02,0,.03,0,.02,0,.04-.01.04,0,0-.01,0-.02,0,0,0,0,0,0-.01,0-.01,0-.02,0-.02,0,0-.01,0-.02,0,0,0,0,0,0,0s0,0,0,0c0,0,.01,0,.01,0,0,0,0,.01,0,.02s0,.02,0,.02c0,0,0,0,0,0,0,0,.01,0,.01,0Z"/>
              <path class="cls-1" d="M13.81,7.31s0,0,0,0c0,.01-.01.02-.01.03,0,0,0,0,0,.01,0,0,0,.01,0,.01,0,0,0,0,0,0,0,0,0,0,0,0s0,0,0,0c0,0,0,.01.01.01h0s0,0,.01-.02c0,0,0,0,0-.01,0-.01,0-.02.01-.03,0,0,0,0,0,0Z"/>
              <path class="cls-1" d="M13.71,7.28s0,.02,0,.02c0,0,0,0,0,0h0s0,0,0,0c0,0,0-.02,0-.03,0-.01,0-.03-.01-.03h0s0,0,0,0c0,0,.01.02.01.03Z"/>
              <polygon class="cls-1" points="13.61 7.21 13.61 7.21 13.61 7.21 13.61 7.17 13.61 7.17 13.61 7.17 13.6 7.21 13.61 7.21"/>
              <path class="cls-1" d="M13.62,7.25h0s.01,0,.02-.01c0-.01,0-.02,0-.03,0,0,0,0,0,0,0,0,0,0,0,0,0,.01,0,.02,0,.03,0,0-.01,0-.01,0,0,0,0,0,0,0t0,0Z"/>
              <path class="cls-1" d="M13.78,7.25s0,0,0,0c0,0-.01,0-.02,0,0,0,0-.01,0-.02,0,0,0,0,0,0,0,0,0,0,0,0,0,.01,0,.02,0,.03,0,0,.01,0,.02,0h0s0,0,0,0Z"/>
              <path class="cls-1" d="M13.95,7.24h0s.01.04,0,.05c0,0,0,0-.01,0,0,0,0,0,0,0,0,0,0,0,0,0,0,0,0,0,0,0,0,0,.01,0,.01,0,0,0,.01-.03,0-.05,0,0,0,0,0,0Z"/>
              <path class="cls-1" d="M14,7.23s0,0,0,0c0,0,0,0,0,0,0,0,.01.01.01.02s0,.01,0,.01h0s0,0,0-.01,0-.02-.01-.02Z"/>
              <path class="cls-1" d="M14.04,7.22s0,0,0,0c0,0,0,.01,0,.02,0,0,0,0,0,0,0,0,0,0,0,0,0,0,0,0,0,0h0s0,0,0,0c0,0,0-.02,0-.02,0,0,0,0,0,0Z"/>
              <polygon class="cls-1" points="14.11 7.21 14.1 7.21 14.1 7.21 14.11 7.23 14.11 7.23 14.11 7.23 14.12 7.22 14.11 7.21"/>
              <path class="cls-1" d="M13.92,7.4s0,0,0,0c0,0,0,0,0,0,0,.02,0,.03,0,.04,0,0,0,0,0,0,0,0,0,.01,0,.02h0s0,0-.02-.03c0,0,0,0,0,0,0,0,0,0,0,0,.01.03.02.04.02.04h0s0,0,0,0h0s0-.02,0-.03c0,0,0,0,0,0,0-.01,0-.03,0-.04Z"/>
              <path class="cls-1" d="M13.93,7.52s0,0,0,0c0,.01,0,.03,0,.04,0,.01,0,.02,0,.03t0,0h0s0,0,0,0c0,0,0-.02,0-.03,0-.01,0-.03,0-.04,0,0,0,0,0,0Z"/>
              <path class="cls-1" d="M13.86,7.55s0,.01.01.02c0,0,0,0,0,.01,0,0,0,0,0,0h0s0,0,0,0h0s0-.03-.02-.03c0,0,0,0-.01.01,0-.01,0-.02-.02-.03,0,0,0,0,0,0,0,0,0,0,0,0,0,.01.02.03.01.04,0,0,0,0,0,0,0,0,0,0,0,0,0,0,0,0,0,0,0,0,0-.02.01-.02Z"/>
              <path class="cls-1" d="M13.89,7.66s0,0,0,0c0,0,0,.01-.01.02-.01,0-.02,0-.02,0t0,0s0,0,0,0h0s.01,0,.02,0c.01,0,.02-.02.02-.03,0,0,0,0,0,0Z"/>
              <path class="cls-1" d="M13.82,7.72s0,0,0,0c0,0,0,.01,0,.02,0,0-.01,0-.01,0,0,0,0,0,0,0s0,0,0,0c0,0,0,0,0,0,0,0,0,0,.01,0,.01,0,.01-.02.01-.02,0,0,0,0,0,0Z"/>
              <path class="cls-1" d="M13.79,7.77s-.01.01-.02.02c0,0-.01,0-.02,0,0,0,0,0,0,0,0,0,0,0,0,0h0s.01,0,.02-.01c0,0,.01-.01.02-.02,0,0,0,0,0,0h0Z"/>
              <polygon class="cls-1" points="13.82 7.6 13.82 7.6 13.82 7.63 13.82 7.63 13.82 7.63 13.82 7.6 13.82 7.6"/>
              <polygon class="cls-1" points="13.64 7.52 13.64 7.51 13.63 7.5 13.63 7.51 13.63 7.52 13.63 7.52 13.64 7.52"/>
              <polygon class="cls-1" points="13.47 7.49 13.47 7.49 13.47 7.49 13.48 7.5 13.48 7.5 13.48 7.5 13.48 7.5 13.47 7.49"/>
            </g>
          </g>
        </g>
      </g>
    </g>
  </g>
</svg>