<?xml version="1.0" encoding="UTF-8"?>
<svg id="Layer_1" data-name="Layer 1" xmlns="http://www.w3.org/2000/svg" viewBox="0 0 24 24">
  <defs>
    <style>
      .cls-1 {
        fill: #000;
      }

      .cls-1, .cls-2, .cls-3, .cls-4, .cls-5 {
        stroke-width: 0px;
      }

      .cls-2 {
        fill: #052a8d;
      }

      .cls-3 {
        fill: none;
      }

      .cls-4 {
        fill: #ce152a;
      }

      .cls-5 {
        fill: #fff;
      }
    </style>
  </defs>
  <rect class="cls-3" width="24" height="24"/>
  <g>
    <path class="cls-1" d="M16.71,7.34c2.92,2.92,3.18,7.42.57,10.03-2.61,2.61-7.11,2.35-10.03-.57-2.92-2.92-3.18-7.42-.57-10.03,2.61-2.61,7.11-2.35,10.03.57Z"/>
    <g>
      <g>
        <g>
          <path class="cls-2" d="M12,3c-2.8,0-5.31,1.29-6.96,3.3-.08.1-.16.2-.23.3h14.39c-1.64-2.18-4.26-3.6-7.19-3.6Z"/>
          <path class="cls-2" d="M5.04,17.7c1.65,2.02,4.16,3.3,6.96,3.3s5.55-1.42,7.19-3.6H4.81c.08.1.15.2.23.3Z"/>
          <path class="cls-5" d="M3.51,15c.31.87.75,1.68,1.29,2.4h14.39c.54-.72.98-1.53,1.29-2.4.14-.39.25-.79.33-1.2H3.18c.08.41.19.81.33,1.2Z"/>
          <path class="cls-5" d="M3.52,9c-.14.39-.25.79-.33,1.2h17.63c-.08-.41-.19-.81-.33-1.2-.31-.87-.75-1.68-1.29-2.4H4.81c-.55.72-.98,1.53-1.29,2.4Z"/>
          <path class="cls-2" d="M3,12c0,.62.06,1.22.18,1.8h17.63c.12-.58.18-1.18.18-1.8s-.06-1.22-.18-1.8H3.18c-.12.58-.18,1.19-.18,1.8Z"/>
        </g>
        <path class="cls-4" d="M16.43,12l-6,3-5.39,2.7c-.65-.8-1.17-1.71-1.52-2.7-.33-.94-.51-1.95-.51-3s.18-2.06.52-3c.35-.99.87-1.9,1.52-2.7l5.39,2.7,6,3Z"/>
      </g>
      <polygon class="cls-5" points="7.3 10.01 7.8 11.53 9.39 11.53 8.1 12.47 8.59 13.99 7.3 13.05 6.01 13.99 6.51 12.47 5.22 11.53 6.81 11.53 7.3 10.01"/>
    </g>
  </g>
</svg>