<?xml version="1.0" encoding="UTF-8"?>
<svg id="Layer_1" data-name="Layer 1" xmlns="http://www.w3.org/2000/svg" viewBox="0 0 24 24">
  <defs>
    <style>
      .cls-1 {
        fill: #000;
      }

      .cls-1, .cls-2, .cls-3, .cls-4, .cls-5 {
        stroke-width: 0px;
      }

      .cls-2 {
        fill: none;
      }

      .cls-3 {
        fill: #f8e724;
      }

      .cls-4 {
        fill: #fff;
      }

      .cls-5 {
        fill: #042b7d;
      }
    </style>
  </defs>
  <rect class="cls-2" width="24" height="24"/>
  <g>
    <path class="cls-1" d="M16.71,7.34c2.92,2.92,3.18,7.42.57,10.03-2.61,2.61-7.11,2.36-10.03-.57s-3.18-7.42-.57-10.03c2.61-2.61,7.11-2.35,10.03.57Z"/>
    <g>
      <g>
        <path class="cls-3" d="M20.72,14.25c-.21.8-.52,1.55-.92,2.25H4.21c-.4-.7-.72-1.45-.92-2.25h17.43Z"/>
        <g>
          <path class="cls-5" d="M19.79,16.5c-1.56,2.69-4.47,4.5-7.79,4.5s-6.23-1.81-7.79-4.5h15.58Z"/>
          <path class="cls-5" d="M21,12c0,.78-.1,1.53-.28,2.25H3.28c-.19-.72-.28-1.47-.28-2.25C3,7.04,7.04,3,12,3s9,4.04,9,9Z"/>
        </g>
      </g>
      <g>
        <polygon class="cls-4" points="10.4 8.02 10.85 9.42 12.32 9.42 11.13 10.28 11.59 11.67 10.4 10.81 9.22 11.67 9.67 10.28 8.49 9.42 9.95 9.42 10.4 8.02"/>
        <polygon class="cls-4" points="7.39 5.58 7.72 6.6 8.79 6.6 7.93 7.23 8.26 8.24 7.39 7.62 6.53 8.24 6.86 7.23 6 6.6 7.06 6.6 7.39 5.58"/>
      </g>
    </g>
  </g>
</svg>