<?xml version="1.0" encoding="UTF-8"?>
<svg id="Layer_1" data-name="Layer 1" xmlns="http://www.w3.org/2000/svg" viewBox="0 0 24 24">
  <defs>
    <style>
      .cls-1 {
        fill: #000;
      }

      .cls-1, .cls-2, .cls-3, .cls-4, .cls-5 {
        stroke-width: 0px;
      }

      .cls-2 {
        fill: none;
      }

      .cls-3 {
        fill: #4d5a31;
      }

      .cls-4 {
        fill: #d4770a;
      }

      .cls-5 {
        fill: #fff;
      }
    </style>
  </defs>
  <rect class="cls-2" width="24" height="24"/>
  <g>
    <path class="cls-1" d="M16.71,7.34c2.92,2.92,3.18,7.42.57,10.03-2.61,2.61-7.11,2.36-10.03-.57-2.92-2.92-3.18-7.42-.57-10.03,2.61-2.61,7.11-2.36,10.03.57Z"/>
    <g>
      <path class="cls-5" d="M21,12c0,4.96-4.04,9-9,9S3,16.96,3,12,7.04,3,12,3c3.17,0,5.97,1.65,7.57,4.13.06.09.12.19.18.28.8,1.34,1.25,2.91,1.25,4.58Z"/>
      <g>
        <path class="cls-4" d="M19.75,7.42c-.06.02-.13.04-.13.04,0,0-.11.05-.14.07-.02.03-.11.05-.11.09s-.09.08-.09.1c0,.02,0,.11-.02.13-.02.02-.35.14-.36.15,0,0-.1.06-.13.08-.02.02-.06.06-.1.1-.04.04-.07.09-.15.12-.07.02-.33.08-.33.1,0,.02-.08.05-.11.08-.03.03-.16.03-.22.05-.05.02-.1.03-.12.08-.02.05-.17.05-.21.09-.04.04-.1.08-.13.11-.03.03-.12.03-.12.09s-.11.13-.12.15c-.02.02-.06.04-.04.06.02.02.01.08-.02.11-.03.03-.04.12-.09.12s-.17.02-.21.02c-.03,0-.18.03-.21,0-.03-.03-.14-.04-.17-.02-.03.03-.18.08-.21.15-.03.06-.07.17-.11.17-.03,0-.04.01-.08.05-.04.04-.09.12-.09.18s.04.1.02.18c-.02.08-.08.09-.08.12,0,.03,0,.12.03.14.02.02.02.07.02.1s0,.04.04.08c.04.03.04.03.07.06.03.03.09.19.11.21.02.02.06.04.06.06s0,.09.04.13c.03.03.11.09.11.12,0,.02-.05.06,0,.09.04.04.05.09.07.11.02.02.07.04.1.07l.07.08s-.01.08.03.13c.04.04.14.13.14.17,0,.04.06.11.06.15s-.06.06-.04.08c.02.02,0,.07.05.09.06.02.02.06.02.06l-.12-.02s-.06,0-.08-.03c-.03-.03-.22-.12-.24-.13-.02-.02-.1-.07-.14-.07-.04,0-.09,0-.17.01-.08.02-.18.06-.2.06s-.13-.02-.15,0c-.02.02-.08.08-.1.1s-.01.01-.05.05c-.04.04-.05.05-.13.01-.08-.04-.19-.12-.19-.14s-.06-.06-.12-.08-.2-.08-.22-.1-.17,0-.17,0c0,0-.2-.02-.24-.01-.05.01-.22.01-.22.01l-.08.17s-.07.07-.06.09c.02.02.05.06.04.07-.02.02-.09.1-.09.12,0,.02-.03.17-.04.18-.01.01.02.11,0,.14-.02.03-.12.13-.13.14,0,0-.06,0-.06.03s-.02.1-.02.12c0,.03.04.05-.03.05s-.09-.02-.18-.04c-.08-.02-.03-.05-.13-.02-.1.03-.28.14-.31.17-.03.03-.08.07-.09.09-.02.02-.11,0-.14.03-.02.02-.09.04-.09.04h-.14s-.07-.02-.09.03c-.02.05-.1.04-.12.06-.02.02-.09.12-.12.12h-.09c-.05,0-.14.02-.14.02,0,0-.07.05-.11.05s-.09-.02-.17-.03c-.08-.02-.19.04-.22.07-.03.03-.16,0-.2,0s-.13-.03-.19-.03-.11.02-.18,0c-.07-.03-.06-.04-.17-.04s-.2.01-.27.02c-.07.01-.11.02-.23.07s-.14,0-.16.06c-.02.06-.13.14-.14.15-.01.01-.09-.02-.09.06s-.02.14-.04.16c-.02.02-.04.1,0,.14.04.04.04.08.08.13.05.05.09.14.09.16s-.04.02-.09.02-.15-.05-.19-.05c-.04,0-.11-.04-.12-.02-.02.02-.07.01-.1.01-.02,0-.09,0-.09-.03,0-.04.02-.1,0-.17-.02-.06-.14-.22-.14-.29s-.04-.14-.08-.18c-.04-.04-.18-.11-.21-.11-.03,0-.03-.04-.1-.02-.06.02-.13.02-.15,0s-.07-.02-.07-.02c0,0-.08-.03-.11,0-.03.04-.08.03-.13.03s-.09.07-.12.07c-.03,0-.06-.09-.1-.04s-.02.07-.07.09c-.05.02-.18-.06-.22-.09-.03-.03-.11-.03-.14-.07l-.13-.13s-.15-.05-.17-.07c-.01-.02-.04-.04-.07-.07-.03-.03-.11-.05-.11-.05l-.05-.07s-.01-.02-.05-.02-.11.02-.16-.03c-.05-.05-.07-.08-.11-.08-.04,0-.06.03-.09,0-.03-.03-.04-.06-.07-.06-.02,0-.05-.05-.08-.08-.03-.03-.07-.06-.09-.08-.02-.02-.08-.02-.13-.06s-.06-.08-.06-.09-.11,0-.11-.03c0-.03.02-.09.02-.09,0,0,.02-.15,0-.21-.03-.06-.04-.11-.04-.15s.02-.03.02-.08-.02-.07-.02-.1c0-.03-.02-.04-.04-.06-.02-.02-.05-.08-.05-.08h-.04s-.04,0-.04,0c0,0-.15-.24-.17-.26-.02-.02-.06-.11-.05-.12.01,0,.07-.04.1-.07.03-.03-.04-.19-.04-.21,0-.02,0-.03-.03-.06s-.03-.07-.03-.07v-.02s.03,0,.03-.02.05-.16.06-.17c0-.01-.07-.24-.09-.27-.03-.03-.1-.21-.1-.3s.01-.2.03-.22c.02-.02.09-.12.09-.12,0,0,.02-.05.05,0,.03.05.07.12.09.14.02.02.03.05.06.07.02.02.04.03.07.06s.02.07.06.12.1.02.13.05c.04.04.06.07.12.07s.12.02.18,0c.06-.02.22-.05.25-.08.03-.02.05-.05.09-.09s.14-.04.17-.15c.03-.11.08-.21.11-.23.03-.03.12-.12.17-.15.06-.03.09-.1.09-.1,0,0,0-.07.08-.03.04.01.07,0,.07,0,.13-.03.32-.09.32-.09,0,0,.09-.07.15-.05.06.03.14.01.17.04.03.03.1.06.12.08.02.02.15.03.17.05.02.02.09.03.13.06.03.03.08.09.13.09s.06.01.09.05c.04.04.09.04.13.08s.07.05.09.07c.02.02.07.03.11,0,.04-.04.12-.02.18-.08.06-.06.09-.01.16-.12.08-.1.12-.15.15-.18s.02-.16.06-.2c.04-.04.08-.12.08-.12,0,0,0-.14.03-.18.04-.04.05-.07.05-.12v-.14s-.04-.11-.02-.14,0-.04.02-.06c0-.02,0-.08,0-.1,0-.02-.04-.05-.04-.07s0-.09,0-.11v-.17c0-.07.01-.14.04-.11.03.03.09.11.14.11s.13.04.14.05c.02.02.09.12.11.14.02.02.12.01.12.01,0,0,.11,0,.12.01.01.01.07.06.13.08.05.02.23.06.25.03.03-.02.05-.06.12-.04.07.02.13.06.21.08.07.02.19.04.22.04s.06-.03.11-.01c.05.02.1.06.22.08.11.03.16.03.19.03s.02.01.09.01.07-.02.1.01c.04.04.06.08.12.08s.13,0,.18,0,.11,0,.14.02c.03.03.05.03.11.03s.12-.01.14.01c.02.02.03,0,.11,0s.16.05.23.05.17-.04.22-.04.05-.02.12-.02.14.02.2.02.13-.03.18-.03.1.02.13.02c.03,0,.11-.01.17-.03.05-.01.06-.07.12-.05.06.02.03.04.11,0,.08-.03.14-.09.18-.09s.06,0,.09-.04.12-.11.19-.11.21-.04.23-.02.07-.02.11-.02c.03,0,.1.05.1.05,0,0,.13,0,.16-.04.03-.03.14.02.24,0,.09-.03.11-.05.17-.05s.07-.02.14-.04c.07-.02.04-.03.12-.03s.22-.08.29-.08.05.05.12-.01c.07-.06.1-.03.13-.06s.12-.05.14-.05.09-.08.09-.08c0,0,0,0,.08-.01.07-.02.19-.01.23-.04.03-.03.05-.09.07-.11.02-.02.07-.04.09-.06.02-.02,0-.1.03-.1s.09-.01.11-.03c.02-.02-.02-.06.03-.08.05-.01.11.02.16.02s.13-.02.15,0,.07.01.11.01.08-.08.13-.08.06-.05.13-.05.12-.03.18-.05c.06-.02.08-.1.11-.1.03,0,.03.04.05.02.02-.02.04-.05.04-.07,0-.02-.01-.07.03-.07s.09,0,.13-.04c.04-.04.09-.04.15-.04s.15-.02.21-.04c.07-.03.12-.08.14-.07,0,0,0,0,.01.01.06.09.12.19.18.28Z"/>
        <g>
          <path class="cls-3" d="M12.21,17.67s.19-.11.19-.11l-.14-.1-.26.13-.26-.13-.14.1s.19.1.19.11c-.02.02-.42.27-.42.27l.25.25.38-.48.38.48.25-.25s-.4-.25-.42-.27Z"/>
          <g>
            <g>
              <path class="cls-3" d="M12.55,17.32s.3-.68.86-.68c-.02.2-.05.6-.86.68Z"/>
              <path class="cls-3" d="M12.65,17.58s.64-.39,1.1-.02c-.36.16-.55.27-1.1.02Z"/>
              <path class="cls-3" d="M13.26,17.22s.37-.42.9-.27c-.06.15-.17.36-.9.27Z"/>
              <path class="cls-3" d="M14.02,16.67s.19-.67.82-.58c-.04.13-.12.47-.82.58Z"/>
              <path class="cls-3" d="M14.57,16.73s.31-.52.93-.47c-.07.13-.19.52-.93.47Z"/>
              <path class="cls-3" d="M14.36,17.06s.38-.34,1.02-.13c-.09.14-.75.56-1.02.13Z"/>
              <path class="cls-3" d="M16.05,15.18s-.45-.1-.74.88c.31-.19.77-.58.74-.88Z"/>
              <path class="cls-3" d="M15.63,16.47s.14-.41,1-.28c-.03.11-.29.47-1,.28Z"/>
              <path class="cls-3" d="M15.77,16.05s.17-.63.7-.67c-.04.21-.15.57-.7.67Z"/>
              <path class="cls-3" d="M16.63,15.62c-.06-.01.09-.47.72-.4-.04.16-.03.52-.72.4Z"/>
              <path class="cls-3" d="M16.32,15.22s-.08-.42.01-.56c.1-.14.21-.18.21-.18,0,0,.07.49-.22.74Z"/>
              <path class="cls-3" d="M16.62,15.17s.13-.78.79-.94c.05.22.14.73-.79.94Z"/>
              <path class="cls-3" d="M13.61,16.76s0-.27.18-.24c.05.08.02.28-.18.24Z"/>
              <path class="cls-3" d="M14.19,17.26s-.21-.01-.2.26c.12,0,.29.03.2-.26Z"/>
              <path class="cls-3" d="M16.32,16.01s.07-.27.32-.18c-.02.12-.04.31-.32.18Z"/>
              <path class="cls-3" d="M15.19,15.93s-.25.03-.16.28c.1-.01.22-.08.16-.28Z"/>
              <path class="cls-3" d="M15.49,16.58s-.22.05-.08.25c.09-.07.17-.09.08-.25Z"/>
            </g>
            <g>
              <path class="cls-3" d="M11.45,17.32s-.3-.68-.86-.68c.02.2.05.6.86.68Z"/>
              <path class="cls-3" d="M11.35,17.58s-.64-.39-1.1-.02c.37.16.55.27,1.1.02Z"/>
              <path class="cls-3" d="M10.74,17.22s-.37-.42-.91-.27c.06.15.17.36.91.27Z"/>
              <path class="cls-3" d="M9.98,16.67s-.19-.67-.82-.58c.04.13.12.47.82.58Z"/>
              <path class="cls-3" d="M9.43,16.73s-.31-.52-.93-.47c.07.13.19.52.93.47Z"/>
              <path class="cls-3" d="M9.64,17.06s-.38-.34-1.02-.13c.1.14.75.56,1.02.13Z"/>
              <path class="cls-3" d="M7.95,15.18s.45-.1.74.88c-.31-.19-.77-.58-.74-.88Z"/>
              <path class="cls-3" d="M8.37,16.47s-.14-.41-1-.28c.03.11.29.47,1,.28Z"/>
              <path class="cls-3" d="M8.23,16.05s-.17-.63-.7-.67c.04.21.15.57.7.67Z"/>
              <path class="cls-3" d="M7.37,15.62c.06-.01-.09-.47-.72-.4.04.16.03.52.72.4Z"/>
              <path class="cls-3" d="M7.68,15.22s.08-.42-.01-.56c-.1-.14-.21-.18-.21-.18,0,0-.07.49.22.74Z"/>
              <path class="cls-3" d="M7.38,15.17s-.13-.78-.8-.94c-.05.22-.14.73.8.94Z"/>
              <path class="cls-3" d="M10.39,16.76s0-.27-.18-.24c-.05.08-.02.28.18.24Z"/>
              <path class="cls-3" d="M9.81,17.26s.21-.01.2.26c-.12,0-.29.03-.2-.26Z"/>
              <path class="cls-3" d="M7.68,16.01s-.07-.27-.32-.18c.02.12.04.31.32.18Z"/>
              <path class="cls-3" d="M8.81,15.93s.25.03.16.28c-.1-.01-.22-.08-.16-.28Z"/>
              <path class="cls-3" d="M8.51,16.58s.22.05.09.25c-.1-.07-.17-.09-.09-.25Z"/>
            </g>
          </g>
        </g>
      </g>
    </g>
  </g>
</svg>