<?xml version="1.0" encoding="UTF-8"?>
<svg id="Layer_1" data-name="Layer 1" xmlns="http://www.w3.org/2000/svg" viewBox="0 0 24 24">
  <defs>
    <style>
      .cls-1 {
        fill: #000;
      }

      .cls-1, .cls-2, .cls-3, .cls-4, .cls-5 {
        stroke-width: 0px;
      }

      .cls-2 {
        fill: #d7141a;
      }

      .cls-3 {
        fill: none;
      }

      .cls-4 {
        fill: #11457e;
      }

      .cls-5 {
        fill: #fff;
      }
    </style>
  </defs>
  <rect class="cls-3" width="24" height="24"/>
  <g>
    <path class="cls-1" d="M16.71,7.34c2.92,2.92,3.18,7.42.57,10.03-2.61,2.61-7.11,2.36-10.03-.57-2.92-2.92-3.18-7.42-.57-10.03,2.61-2.61,7.11-2.35,10.03.57Z"/>
    <g>
      <path class="cls-2" d="M21,12h-7.54l-8.47,5.64c1.65,2.04,4.17,3.35,7,3.36h.01c4.96,0,8.99-4.04,8.99-9Z"/>
      <path class="cls-5" d="M4.99,6.36l8.47,5.64h7.54c0-4.96-4.04-9-9-9h0c-2.83,0-5.35,1.31-7,3.36Z"/>
      <path class="cls-4" d="M13.46,12L4.99,6.36c-1.25,1.54-1.99,3.51-1.99,5.64h0c0,2.14.75,4.1,1.99,5.64l8.47-5.64h0Z"/>
    </g>
  </g>
</svg>