<?xml version="1.0" encoding="UTF-8"?>
<svg width="130px" height="43px" viewBox="0 0 130 43" version="1.1" xmlns="http://www.w3.org/2000/svg" xmlns:xlink="http://www.w3.org/1999/xlink">
    <title>Asset 1</title>
    <g id="Page-1" stroke="none" stroke-width="1" fill="none" fill-rule="evenodd">
        <g id="Home-Page-/-Language-drop-down" transform="translate(-82, -6)" fill="#FFFFFF" fill-rule="nonzero">
            <g id="Asset-1" transform="translate(82, 6)">
                <g id="CUSTOM-group" transform="translate(0, 6.2033)">
                    <path d="M28.2649558,18.3983672 C28.2649558,16.073519 26.6702854,14.1094232 24.5093914,13.5138956 L24.5093914,23.2771125 C26.6702854,22.6873111 28.2649558,20.7232153 28.2649558,18.3926409 L28.2649558,18.3983672 Z" id="Path"></path>
                    <path d="M18.0440427,18.3983672 C18.0440427,20.7232153 19.6387132,22.6930374 21.7996072,23.2828387 L21.7996072,13.5138956 C19.6387132,14.103697 18.0440427,16.0677928 18.0440427,18.3983672 L18.0440427,18.3983672 Z" id="Path"></path>
                    <polygon id="Path" points="0 25.258387 0 11.5383473 7.21646154 11.5383473 7.21646154 25.2526608 0 25.2526608"></polygon>
                    <path d="M24.5093914,10.7595804 C28.178289,11.4009178 30.97474,14.5789738 30.97474,18.3983672 C30.97474,22.2177605 28.178289,25.3958165 24.5093914,26.0371539 L24.5093914,36.7967343 L42.2356556,36.7967343 C44.4774387,36.7967343 46.3032208,34.9872466 46.3032208,32.7654705 L46.3032208,27.9497137 L37.7116449,27.9497137 C36.960532,27.9497137 36.3538639,27.3484599 36.3538639,26.6040504 L36.3538639,10.192684 C36.3538639,9.44827445 36.960532,8.84702062 37.7116449,8.84702062 L46.3032208,8.84702062 L46.3032208,4.03126376 C46.3032208,1.80948771 44.4774387,0 42.2356556,0 L24.5093914,0 L24.5093914,10.7595804 Z" id="Path"></path>
                    <path d="M21.7996072,26.0371539 C18.1307096,25.4015427 15.3342585,22.2177605 15.3342585,18.3983672 C15.3342585,14.5789738 18.1307096,11.4009178 21.7996072,10.7595804 L21.7996072,0 L4.06756519,0 C1.8257821,0 0,1.80948771 0,4.03126376 L0,8.84702062 L8.57424253,8.84702062 C9.32535542,8.84702062 9.93202352,9.44827445 9.93202352,10.192684 L9.93202352,26.5983241 C9.93202352,27.3427336 9.32535542,27.9439875 8.57424253,27.9439875 L0,27.9439875 L0,32.7597443 C0,34.9815204 1.8257821,36.7910081 4.06756519,36.7910081 L21.7938294,36.7910081 L21.7938294,26.0314277 L21.7996072,26.0371539 Z" id="Path"></path>
                    <polygon id="Path" points="39.0752037 25.258387 39.0752037 11.5383473 46.3089986 11.5383473 46.3089986 25.2526608 39.0752037 25.2526608"></polygon>
                </g>
                <path d="M126.360299,35.9910982 C126.360299,37.5200008 125.747853,38.9057477 124.759851,39.9078375 C123.771849,40.9099272 122.40829,41.5283597 120.906064,41.5283597 L51.6361223,41.5283597 L51.6361223,35.985372 L126.360299,35.985372 L126.360299,35.9910982 Z" id="CUSTOM"></path>
                <g id="Group" transform="translate(51.1228, 0)" font-family="Quicksand-Bold, Quicksand" font-size="21.8124384" font-weight="bold">
                    <text id="T">
                        <tspan x="-3.46944695e-18" y="22">T</tspan>
                    </text>
                    <text id="rip">
                        <tspan x="12.2379446" y="22">rip</tspan>
                    </text>
                    <text id="l">
                        <tspan x="40.3419164" y="22">l</tspan>
                    </text>
                    <text id="e-F">
                        <tspan x="45.9087058" y="22">e F</tspan>
                    </text>
                </g>
                <g id="Group" transform="translate(52.2563, 26.4569)" font-family="Poppins-Regular, Poppins" font-size="5.72329563" font-weight="normal">
                    <text id="Football-Future-Finder">
                        <tspan x="0" y="6">Football Future Finder</tspan>
                    </text>
                </g>
            </g>
        </g>
    </g>
</svg>