<?xml version="1.0" encoding="UTF-8"?>
<svg id="Layer_1" data-name="Layer 1" xmlns="http://www.w3.org/2000/svg" viewBox="0 0 24 24">
  <defs>
    <style>
      .cls-1 {
        fill: #000;
      }

      .cls-1, .cls-2, .cls-3, .cls-4, .cls-5 {
        stroke-width: 0px;
      }

      .cls-2 {
        fill: #cd1120;
      }

      .cls-3 {
        fill: #f6d524;
      }

      .cls-4 {
        fill: none;
      }

      .cls-5 {
        fill: #0f7ffd;
      }
    </style>
  </defs>
  <rect class="cls-4" width="24" height="24"/>
  <g>
    <path class="cls-1" d="M16.71,7.34c2.92,2.92,3.18,7.42.57,10.03-2.61,2.61-7.11,2.35-10.03-.57-2.92-2.92-3.18-7.42-.57-10.03,2.61-2.61,7.11-2.36,10.03.57Z"/>
    <g>
      <g>
        <path class="cls-3" d="M18.81,6.12L3.61,15.24c-.09-.24-.18-.48-.25-.73l14.92-8.96c.18.18.36.37.53.56Z"/>
        <path class="cls-5" d="M18.28,5.56L3.36,14.52c-.23-.8-.36-1.64-.36-2.52C3,7.04,7.04,3,12,3c2.44,0,4.65.98,6.28,2.56Z"/>
        <path class="cls-5" d="M21,12c0,4.96-4.04,9-9,9-2.44,0-4.66-.98-6.28-2.56l14.92-8.96c.23.8.36,1.64.36,2.51Z"/>
        <path class="cls-2" d="M20.4,8.76l-15.2,9.13c-.67-.78-1.21-1.67-1.59-2.64l15.2-9.13c.67.78,1.21,1.67,1.59,2.64Z"/>
        <path class="cls-3" d="M20.64,9.49l-14.92,8.96c-.18-.18-.36-.37-.53-.56l15.2-9.13c.09.24.18.48.25.73Z"/>
      </g>
      <polygon class="cls-3" points="8.03 4.68 8.7 6.74 10.87 6.74 9.12 8.02 9.79 10.08 8.03 8.81 6.28 10.08 6.95 8.02 5.19 6.74 7.36 6.74 8.03 4.68"/>
    </g>
  </g>
</svg>