<?xml version="1.0" encoding="UTF-8"?>
<svg id="Layer_1" data-name="Layer 1" xmlns="http://www.w3.org/2000/svg" viewBox="0 0 24 24">
  <defs>
    <style>
      .cls-1 {
        fill: #000;
      }

      .cls-1, .cls-2, .cls-3, .cls-4 {
        stroke-width: 0px;
      }

      .cls-2 {
        fill: none;
      }

      .cls-3 {
        fill: #c60c30;
      }

      .cls-4 {
        fill: #fff;
      }
    </style>
  </defs>
  <rect class="cls-2" width="24" height="24"/>
  <g>
    <path class="cls-1" d="M16.71,7.34c2.92,2.92,3.18,7.43.57,10.04-2.61,2.61-7.11,2.35-10.04-.57-2.92-2.92-3.18-7.43-.57-10.04,2.61-2.61,7.11-2.36,10.04.57Z"/>
    <g>
      <path class="cls-3" d="M21,12c0,.44-.03.87-.09,1.28-.63,4.36-4.38,7.72-8.91,7.72-.55,0-1.08-.05-1.61-.14-.91-.17-1.78-.47-2.57-.89-2.5-1.32-4.31-3.78-4.73-6.69-.06-.42-.09-.85-.09-1.28s.03-.87.09-1.28c.42-2.91,2.23-5.37,4.73-6.68.79-.42,1.66-.72,2.57-.89.52-.09,1.06-.15,1.61-.15,4.53,0,8.28,3.36,8.91,7.72.06.42.09.85.09,1.28Z"/>
      <path class="cls-4" d="M21,12c0,.44-.03.87-.09,1.28h-10.52v7.57c-.91-.17-1.78-.47-2.57-.89v-6.69H3.09c-.06-.42-.09-.85-.09-1.28s.03-.87.09-1.28h4.73v-6.68c.79-.42,1.66-.72,2.57-.89v7.57h10.52c.06.42.09.85.09,1.28Z"/>
    </g>
  </g>
</svg>