<?xml version="1.0" encoding="UTF-8"?>
<svg id="Layer_1" data-name="Layer 1" xmlns="http://www.w3.org/2000/svg" viewBox="0 0 24 24">
  <defs>
    <style>
      .cls-1 {
        fill: #000;
      }

      .cls-1, .cls-2, .cls-3, .cls-4, .cls-5, .cls-6 {
        stroke-width: 0px;
      }

      .cls-2 {
        fill: #6ab2e6;
      }

      .cls-3 {
        fill: #d6141a;
      }

      .cls-4 {
        fill: none;
      }

      .cls-5 {
        fill: #0bac2f;
      }

      .cls-6 {
        fill: #fff;
      }
    </style>
  </defs>
  <rect class="cls-4" width="24" height="24"/>
  <g>
    <path class="cls-1" d="M16.71,7.34c2.92,2.92,3.18,7.42.57,10.03-2.61,2.61-7.11,2.36-10.03-.57-2.92-2.92-3.18-7.42-.57-10.03,2.61-2.61,7.11-2.36,10.03.57Z"/>
    <g>
      <g>
        <g>
          <path class="cls-5" d="M12,21c4.96,0,9-4.04,9-9H3c0,4.96,4.04,9,9,9Z"/>
          <path class="cls-2" d="M12,3C7.04,3,3,7.04,3,12h18c0-4.96-4.04-9-9-9Z"/>
        </g>
        <path class="cls-6" d="M13.85,12l-3.99,3-4.33,3.25c-.89-.92-1.59-2.02-2.02-3.25-.33-.94-.52-1.95-.52-3s.18-2.06.52-3c.43-1.23,1.13-2.34,2.02-3.25l4.33,3.25,3.99,3Z"/>
      </g>
      <polygon class="cls-3" points="7.43 9.73 7.99 11.46 9.81 11.46 8.34 12.54 8.9 14.27 7.43 13.2 5.95 14.27 6.51 12.54 5.04 11.46 6.86 11.46 7.43 9.73"/>
    </g>
  </g>
</svg>