<?xml version="1.0" encoding="UTF-8"?>
<svg id="Layer_1" data-name="Layer 1" xmlns="http://www.w3.org/2000/svg" viewBox="0 0 24 24">
  <defs>
    <style>
      .cls-1 {
        fill: #000;
      }

      .cls-1, .cls-2, .cls-3, .cls-4, .cls-5, .cls-6, .cls-7, .cls-8 {
        stroke-width: 0px;
      }

      .cls-2 {
        fill: #9b4903;
      }

      .cls-3 {
        fill: none;
      }

      .cls-4 {
        fill: #d31c2f;
      }

      .cls-5 {
        fill: #fbd022;
      }

      .cls-6 {
        fill: #9461c7;
      }

      .cls-7 {
        fill: #fff;
      }

      .cls-8 {
        fill: #006a3f;
      }
    </style>
  </defs>
  <rect class="cls-3" width="24" height="24"/>
  <g>
    <path class="cls-1" d="M16.71,7.34c2.92,2.92,3.18,7.42.57,10.03-2.61,2.61-7.11,2.36-10.03-.57-2.92-2.92-3.18-7.42-.57-10.03,2.61-2.61,7.11-2.36,10.03.57Z"/>
    <g>
      <g>
        <g>
          <g>
            <path class="cls-8" d="M21,12s0,.09,0,.13v.06s0,0,0,.01c0,0,0,.01,0,.02,0,.18-.01.35-.03.53s-.03.35-.06.52c0,.04-.01.07-.02.11-.02.12-.04.23-.06.34,0,.02,0,.03-.01.05h0s0,.04-.01.05c-.03.14-.06.28-.1.42-.2.8-.51,1.55-.92,2.24-.23.4-.49.77-.77,1.13-1.2,1.49-2.86,2.6-4.77,3.09-.49.13-.99.21-1.51.26-.25.02-.5.03-.75.03s-.51-.01-.75-.03c-.51-.04-1.02-.13-1.5-.26-1.91-.49-3.57-1.59-4.77-3.09-.28-.36-.54-.73-.77-1.13-.4-.69-.71-1.45-.92-2.24-.03-.1-.05-.21-.07-.31,0-.02-.01-.03-.01-.05,0-.02,0-.03-.01-.05-.07-.33-.12-.66-.15-1,0-.03,0-.06,0-.09h0c-.02-.17-.02-.35-.03-.53,0,0,0-.02,0-.02,0,0,0-.01,0-.02,0-.04,0-.09,0-.13,0,0,0-.01,0-.02v-.03c0-.06,0-.12,0-.18,0,0,0-.01,0-.02,0,0,0-.01,0-.02,0-.18.01-.35.03-.53h0s0-.03,0-.04,0-.02,0-.02c0-.06.01-.12.02-.18,0,0,0-.02,0-.02h0s0-.02,0-.02c.05-.41.12-.82.23-1.21.2-.79.52-1.55.92-2.24.23-.4.48-.77.77-1.13,1.2-1.49,2.86-2.6,4.77-3.09.49-.13.99-.21,1.5-.26.25-.02.5-.03.75-.03s.5.01.75.03c.52.04,1.02.13,1.51.26,1.91.49,3.57,1.59,4.77,3.09.29.35.54.73.77,1.13.4.69.71,1.45.92,2.24.02.07.03.14.05.21v.02s.01.02.01.02c.05.21.08.41.12.62,0,0,0,.01,0,.02,0,0,0,.01,0,.02.03.19.05.38.06.58.01.17.02.35.03.53,0,0,0,.01,0,.02,0,0,0,.01,0,.02,0,.06,0,.12,0,.18Z"/>
            <g>
              <path class="cls-5" d="M20.97,11.25H3.03s0-.03,0-.04,0-.02,0-.02c0-.06.01-.12.02-.18,0,0,0-.02,0-.02h0s0-.02,0-.02c.05-.41.12-.82.23-1.21h17.43c.02.07.03.14.05.21v.02s.01.02.01.02c.05.21.08.41.12.62,0,0,0,.01,0,.02,0,0,0,.01,0,.02.03.19.05.38.06.58Z"/>
              <path class="cls-1" d="M21,12s0,.09,0,.13v.06s0,0,0,.01c0,0,0,.01,0,.02,0,.18-.01.35-.03.53H3.03c-.02-.17-.02-.35-.03-.53,0,0,0-.02,0-.02,0,0,0-.01,0-.02,0-.04,0-.09,0-.13,0,0,0-.01,0-.02v-.03c0-.06,0-.12,0-.18,0,0,0-.01,0-.02,0,0,0-.01,0-.02,0-.18.01-.35.03-.53h17.94c.01.17.02.35.03.53,0,0,0,.01,0,.02,0,0,0,.01,0,.02,0,.06,0,.12,0,.18Z"/>
              <path class="cls-7" d="M20.97,12.75c-.01.18-.03.35-.06.52,0,.04-.01.07-.02.11-.02.12-.04.23-.06.34,0,.02,0,.03-.01.05h0s0,.04-.01.05c-.03.14-.06.28-.1.42H3.29c-.03-.1-.05-.21-.07-.31,0-.02-.01-.03-.01-.05,0-.02,0-.03-.01-.05-.07-.33-.12-.66-.15-1,0-.03,0-.06,0-.09h17.94Z"/>
            </g>
            <g>
              <path class="cls-7" d="M14.26,3.29v17.43c-.49.13-.99.21-1.51.26V3.03c.52.04,1.02.13,1.51.26Z"/>
              <path class="cls-1" d="M12.75,3.03v17.94c-.25.02-.5.03-.75.03s-.51-.01-.75-.03V3.03c.25-.02.5-.03.75-.03s.5.01.75.03Z"/>
              <path class="cls-5" d="M11.25,3.03v17.94c-.51-.04-1.02-.13-1.5-.26V3.29c.49-.13.99-.21,1.5-.26Z"/>
            </g>
          </g>
          <circle class="cls-4" cx="12" cy="12" r="4.48"/>
        </g>
        <g>
          <g>
            <polygon class="cls-8" points="12 8 12.15 8.44 12.61 8.44 12.23 8.71 12.38 9.15 12 8.88 11.63 9.15 11.77 8.71 11.4 8.44 11.86 8.44 12 8"/>
            <path class="cls-1" d="M12.65,8.42h-.5l-.15-.47-.15.47h-.5l.4.29-.15.47.4-.29.4.29-.15-.47.4-.29ZM12,8.86l-.34.25.13-.41-.35-.25h.43l.13-.41.13.41h.43l-.34.25.13.41-.35-.25Z"/>
          </g>
          <g>
            <polygon class="cls-8" points="9.65 8.76 10.03 9.03 10.4 8.76 10.26 9.2 10.63 9.47 10.17 9.47 10.03 9.91 9.88 9.47 9.42 9.47 9.8 9.2 9.65 8.76"/>
            <path class="cls-1" d="M10.27,9.19l.15-.47-.4.29-.28-.21-.12-.09.12.37.03.11-.03.03-.37.27h.5l.08.26.07.22.07-.22.08-.26h.49l-.4-.29ZM10.03,9.86l-.04-.12-.09-.29h-.43l.27-.2.07-.05-.07-.21-.06-.19.06.05.28.2.35-.25-.13.41.35.25h-.43l-.09.29-.04.12Z"/>
          </g>
          <g>
            <polygon class="cls-8" points="8.2 10.76 8.66 10.76 8.8 10.32 8.94 10.76 9.4 10.76 9.03 11.03 9.17 11.47 8.8 11.2 8.43 11.47 8.57 11.03 8.2 10.76"/>
            <path class="cls-1" d="M8.8,11.18l-.09.07h.03l.07-.05.07.05h.03l-.09-.07ZM8.8,11.18l-.09.07h.03l.07-.05.07.05h.03l-.09-.07ZM8.8,11.18l-.09.07h.03l.07-.05.07.05h.03l-.09-.07ZM8.8,11.18l-.09.07h.03l.07-.05.07.05h.03l-.09-.07ZM9.05,11.04l.4-.29h-.5l-.15-.47-.15.47h-.49l.4.29-.07.21-.08.26.36-.26.04-.03.04.03.36.26-.08-.26-.07-.21ZM8.89,11.25l-.09-.07-.09.07-.25.18.06-.18.07-.22-.35-.25h.43l.13-.4.13.4h.42l-.34.25.07.22.06.18-.25-.18ZM8.8,11.18l-.09.07h.03l.07-.05.07.05h.03l-.09-.07ZM8.8,11.18l-.09.07h.03l.07-.05.07.05h.03l-.09-.07ZM8.8,11.18l-.09.07h.03l.07-.05.07.05h.03l-.09-.07Z"/>
          </g>
          <g>
            <polygon class="cls-8" points="8.19 13.23 8.57 12.96 8.42 12.52 8.8 12.79 9.17 12.52 9.03 12.96 9.4 13.23 8.94 13.23 8.8 13.67 8.65 13.23 8.19 13.23"/>
            <path class="cls-1" d="M9.05,12.96l.06-.2.09-.27-.37.27-.03.02-.03-.02-.37-.27.09.27.07.2-.4.29h.5l.15.47.15-.47h.5l-.4-.29ZM8.8,13.62l-.13-.41h-.43l.34-.25-.07-.21-.06-.19.26.19.08.06.08-.06.26-.19-.06.19-.07.21.35.25h-.43l-.13.41Z"/>
          </g>
          <g>
            <polygon class="cls-8" points="9.64 15.23 9.79 14.79 9.41 14.52 9.87 14.52 10.02 14.08 10.16 14.52 10.62 14.52 10.25 14.79 10.39 15.23 10.02 14.96 9.64 15.23"/>
            <path class="cls-1" d="M10.67,14.51h-.5l-.08-.25-.07-.22-.07.22-.08.25h-.5l.38.27.03.02-.03.08-.13.39.13-.09.27-.2.4.29-.16-.47.4-.29ZM10.02,14.94l-.27.2-.07.05.07-.22.06-.19-.06-.04-.28-.21h.43l.09-.28.04-.12.04.12.09.28h.43l-.35.25.13.4-.35-.25Z"/>
          </g>
          <g>
            <polygon class="cls-8" points="11.99 16 11.85 15.56 11.39 15.56 11.76 15.29 11.62 14.85 11.99 15.12 12.37 14.85 12.22 15.29 12.6 15.56 12.14 15.56 11.99 16"/>
            <path class="cls-1" d="M12.24,15.28l.15-.47-.4.29-.4-.29.16.47-.4.29h.5l.15.47.15-.47h.5l-.4-.29ZM11.99,15.95l-.13-.41h-.43l.35-.25-.13-.41.35.25.35-.25-.13.41.34.25h-.43l-.13.41Z"/>
          </g>
          <g>
            <polygon class="cls-8" points="14.35 15.24 13.97 14.97 13.6 15.24 13.74 14.8 13.37 14.53 13.83 14.53 13.97 14.09 14.12 14.53 14.58 14.53 14.2 14.8 14.35 15.24"/>
            <path class="cls-1" d="M14.22,14.81l.03-.02.37-.27h-.5l-.08-.26-.07-.21-.07.21-.08.26h-.5l.4.29-.15.47.4-.29.28.2.12.09-.12-.37-.03-.11ZM14.26,15.16l-.28-.21-.35.25.13-.4-.34-.25h.43l.09-.29.04-.12.04.12.09.29h.43l-.27.2-.07.05.07.21.06.19-.06-.04Z"/>
          </g>
          <g>
            <polygon class="cls-8" points="15.8 13.24 15.34 13.24 15.2 13.68 15.06 13.24 14.59 13.24 14.97 12.97 14.82 12.53 15.2 12.8 15.57 12.53 15.43 12.97 15.8 13.24"/>
            <path class="cls-1" d="M15.27,12.75l-.07.05-.07-.05h-.02l.09.07.09-.07h-.02ZM15.45,12.96l.07-.21.08-.26-.36.26-.04.03-.04-.03-.36-.26.08.26.07.21-.4.29h.5l.15.47.15-.47h.5l-.4-.29ZM15.2,13.63l-.13-.41h-.43l.35-.25-.07-.22-.06-.18.25.18.09.07.09-.07.25-.18-.06.18-.07.22.35.25h-.43l-.13.41ZM15.27,12.75l-.07.05-.07-.05h-.02l.09.07.09-.07h-.02Z"/>
          </g>
          <g>
            <polygon class="cls-8" points="15.81 10.77 15.43 11.04 15.57 11.48 15.2 11.21 14.83 11.48 14.97 11.04 14.6 10.77 15.06 10.77 15.2 10.33 15.34 10.77 15.81 10.77"/>
            <path class="cls-1" d="M15.45,11.05l.4-.29h-.5l-.15-.47-.15.47h-.5l.4.29-.07.2-.09.27.37-.27.03-.02.03.02.37.27-.09-.27-.06-.2ZM15.28,11.25l-.08-.06-.08.06-.26.19.06-.19.07-.21-.35-.25h.43l.13-.4.13.4h.43l-.35.25.07.21.06.19-.26-.19Z"/>
          </g>
          <g>
            <polygon class="cls-8" points="14.36 8.77 14.21 9.21 14.59 9.48 14.12 9.48 13.98 9.92 13.84 9.48 13.38 9.48 13.75 9.21 13.61 8.77 13.98 9.04 14.36 8.77"/>
            <path class="cls-1" d="M14.26,9.22l-.03-.02.03-.08.13-.39-.13.09-.27.2-.4-.29.15.47-.4.29h.5l.08.25.07.22.07-.22.08-.25h.49l-.37-.27ZM13.98,9.87l-.04-.12-.09-.28h-.43l.34-.25-.13-.41.35.25.27-.2.07-.05-.07.22-.06.19.06.04.28.21h-.43l-.09.28-.04.12Z"/>
          </g>
        </g>
      </g>
      <g>
        <path class="cls-2" d="M13.13,13.99s-.03,0-.04,0c-.11-.16-.02-.25,0-.27h.03s.02,0,.04.01c.04.02.07.06.07.13,0,.11-.04.12-.09.13Z"/>
        <path class="cls-2" d="M13.05,14h-.61s-.06-.08-.06-.11c0-.04.02-.09.07-.16h.6s-.08.14,0,.27Z"/>
        <path class="cls-2" d="M10.85,13.63c.03-.06.06-.14.23-.13.16.01.21.11.23.17.01.03.04.06.08.06h.38s-.03.09-.04.14,0,.09.02.14h-.79s-.17,0-.26-.27c.01,0,.03,0,.04,0,.03,0,.04,0,.08-.03.02-.01.03-.03.04-.06Z"/>
        <path class="cls-8" d="M13.13,13.4c0,.07,0,.16.01.27v.03s-.03,0-.03,0h-.11c0-.17,0-.35,0-.48.04.05.08.12.12.18Z"/>
        <path class="cls-8" d="M13.11,12.28c-.06-.1-.11-.17-.15-.21,0,0,0,0,0,0,.01-.03.02-.07.02-.14.05.08.11.2.12.35Z"/>
        <path class="cls-8" d="M13.02,14.29s-.05.05-.08.04c.02-.08.03-.19.04-.31h.09s0,0,0,0h0s.01,0,.02,0c0,0,0,0,.01,0-.02.12-.06.22-.09.27Z"/>
        <path class="cls-8" d="M12.83,14.55s-.04-.03-.09-.19c-.02-.09-.05-.2-.07-.34h.29c-.01.13-.03.24-.04.32-.02.14-.05.18-.07.2,0,0-.01,0-.02,0Z"/>
        <path class="cls-8" d="M13.11,12.35c.06.11.11.23.17.36,0,.06,0,.11,0,.17-.18-.33-.38-.57-.5-.69.01-.04.01-.09,0-.16.04.05.08.07.11.07h0s.02,0,.03-.01c.04.05.11.13.18.26Z"/>
        <path class="cls-8" d="M13.28,13.2c-.04-.1-.09-.19-.16-.28-.11-.15-.22-.31-.32-.45-.04-.06-.08-.11-.11-.16.02,0,.04-.01.06-.03.01-.01.02-.03.03-.05.12.13.33.38.51.73,0,.09,0,.17,0,.25Z"/>
        <path class="cls-8" d="M12.68,13.37s-.03-.06-.04-.12c.02-.02.04-.04.06-.08.02-.04.04-.1.05-.17.04.03.08.05.12.08h0c-.03.2-.08.3-.15.3-.02,0-.03,0-.05-.02Z"/>
        <path class="cls-8" d="M12.73,13.42h0c.13,0,.16-.24.17-.32,0,0,0,0,.02,0,0,0,0,0,0,0h0s.03.04.05.06c0,.14,0,.34,0,.52h-.36s0-.04,0-.05v-.03c.05-.06.09-.14.11-.2,0,0,0,0,0,0Z"/>
        <path class="cls-6" d="M12.17,10.16c.07.07.21.18.37.18.01,0,.02,0,.04,0,.05,0,.09-.01.13-.03.06.05.18.09.27.12-.03.03-.07.08-.16.1-.06.02-.14.02-.22,0-.2-.04-.39-.25-.48-.36.02,0,.03-.01.05-.02Z"/>
        <path class="cls-8" d="M12.67,11.41s0-.08,0-.13c.06.07.15.18.21.33.05.1.07.19.07.26h0c0,.08,0,.15-.02.17,0,0,0,0,0,.01h0s-.01.01-.02.01c-.03,0-.12-.04-.25-.34,0,0,.02,0,.03.01h0s.02,0,.02-.01c.01-.01.01-.04,0-.1,0-.08-.02-.15-.05-.22Z"/>
        <path class="cls-8" d="M12.54,13.23s-.05-.09-.05-.19c.03-.05.06-.12.07-.19.05.05.1.09.16.13-.01.07-.03.13-.05.17-.02.03-.03.05-.05.07-.02.02-.04.02-.06.01,0,0,0,0-.01,0h0Z"/>
        <path class="cls-8" d="M12.58,14.05s-.02-.01-.02-.02h0s.08,0,.08,0c.02.13.05.24.07.32-.04-.02-.08-.06-.12-.15,0,0,.01,0,.02,0,.02-.01.03-.03.03-.05,0-.04-.03-.07-.05-.09Z"/>
        <path class="cls-8" d="M12.65,11.23c-.03-.11-.07-.21-.11-.29.02.02.05.03.07.04.09.11.22.29.34.55.18.37.23.54.26.68,0,.02.01.05.02.07.01.05.03.19.04.35-.04-.1-.08-.19-.13-.27,0-.21-.09-.37-.16-.46,0-.07-.03-.16-.08-.27-.08-.18-.18-.31-.25-.38Z"/>
        <path class="cls-6" d="M12.74,10.03c-.14-.08-.25-.18-.37-.28,0,0-.01-.01-.02-.02-.04-.03-.07-.06-.11-.09-.08-.07-.18-.14-.3-.17-.14-.03-.32,0-.46.08-.07.04-.12.11-.13.2,0,0,0,.01,0,.02.02,0,.03,0,.05,0,.02,0,.03.01.05.02.03.02.06.06.06.09,0,.02,0,.04,0,.05.02.03.05.06.05.11,0,.03-.02.06-.04.08,0,0,.02.01.03.01.15.05.3.06.45.04h0c.09-.01.18-.04.26-.08.04-.02.08-.04.12-.07,0,0,.01,0,.02-.02.05-.04.05-.04.05-.04,0,0,0,0,0,0,.1.06.14.06.25.05h.06s-.01,0-.02,0ZM11.78,9.85c-.07,0-.12-.04-.12-.08,0,0,0-.01,0-.02.01-.04.06-.07.12-.07s.11.03.12.07c0,0,0,.01,0,.02,0,.05-.05.08-.13.08Z"/>
        <path class="cls-8" d="M12.52,11.53v-.02h-.01s0,0,0,0c.01,0,.02-.01.03-.03,0-.02,0-.04,0-.08.04.04.08.05.1.05,0,0,.01,0,.02,0,.02.06.04.12.04.2,0,.06,0,.08,0,.08-.02,0-.05-.03-.06-.04-.04-.04-.08-.09-.12-.15Z"/>
        <path class="cls-8" d="M12.59,12.62s-.05-.1-.07-.17c0,0,0,0,0,0h.01s.04,0,.05-.03c0-.01.03-.04-.01-.23.05.07.12.17.2.28.1.14.21.3.32.45.08.11.14.22.18.34h0c.04.15.04.28.03.41-.05-.15-.19-.42-.33-.56-.01-.02-.02-.03-.03-.05-.02-.03-.07-.09-.13-.16-.09-.11-.19-.23-.23-.29Z"/>
        <path class="cls-8" d="M12.49,13.65s-.05-.06-.06-.15c0-.02.01-.03.02-.05,0-.02.02-.05.02-.08.03-.02.06-.07.07-.12h0s.02.01.04.01.02,0,.04,0c0,.04.01.09.04.13,0,0,.02.01.03.02-.04.1-.1.21-.17.24-.02,0-.03,0-.03,0Z"/>
        <path class="cls-8" d="M12.56,12.13c-.02-.08-.05-.19-.09-.28.01,0,.02,0,.03.01,0,0,0,0,0,0,.01,0,.02,0,.03-.01.03-.04,0-.17-.01-.26.03.03.05.07.08.1,0,0,0,0,0,0,.05.14.1.23.14.29.02.13,0,.23-.03.27-.01.01-.03.02-.06.02-.04-.06-.08-.11-.11-.14Z"/>
        <path class="cls-6" d="M12.44,10.01s.09.04.12.05c.11.07.23.11.28.13-.02.02-.06.06-.14.09-.04.01-.08.02-.13.03-.15.02-.29-.08-.37-.15.02,0,.03-.02.05-.02.04-.02.08-.04.12-.07,0,0,.01-.01.02-.02.01,0,.03-.02.04-.03Z"/>
        <path class="cls-8" d="M12.42,12.68s.08.1.13.14c-.01.07-.04.15-.08.2-.02.02-.05.06-.08.06-.01,0-.02-.01-.03-.03-.02-.03-.03-.09-.04-.13.05-.06.09-.16.1-.24Z"/>
        <path class="cls-8" d="M12.47,13.07c0,.07.02.14.05.17-.02.06-.05.1-.07.12-.02,0-.03.01-.05,0-.05-.03-.07-.12-.07-.19,0-.03.01-.05.02-.08.01,0,.02.01.03.02h.01s.05-.01.07-.04Z"/>
        <path class="cls-8" d="M12.47,11.52c.05.15.07.29.04.32,0,0,0,0-.01,0-.05-.01-.11-.08-.13-.12-.01-.05-.02-.1-.04-.14,0-.04,0-.09-.01-.17.04.05.1.1.14.1h0Z"/>
        <path class="cls-8" d="M12.4,11.2c.03.05.06.1.08.14.04.08.03.11.03.12,0,0,0,.01-.01.01-.04.02-.11-.03-.19-.14,0-.03-.01-.05-.02-.07,0,0,0,0,0,0,.01-.02,0-.05,0-.1.04.03.07.05.11.05h0Z"/>
        <path class="cls-8" d="M12.49,10.9c.04.08.11.21.14.34,0,0,0,0,0,0,.01.06.02.12.02.17-.02.01-.06,0-.14-.08-.02-.04-.05-.09-.08-.14.03-.07-.13-.36-.16-.42,0,0,0,0-.01,0l.04-.04c.06.06.13.13.2.18Z"/>
        <path class="cls-5" d="M12.42,14.02s.04.02.06.02c.02,0,.03,0,.04,0h0s.02.02.02.02c.03.03.04.05.04.07,0,.01,0,.02-.02.03,0,0-.01,0-.02,0h-.01s-.08,0-.12-.02c-.04-.01-.08-.04-.11-.07-.03-.03-.05-.05-.06-.08-.03-.06-.04-.14-.03-.2,0,0,.01-.04.03-.08,0-.02.03-.06.04-.08h0s.04,0,.06-.02c.02-.01.03-.03.04-.05.01.05.03.09.05.11-.01.01-.02.02-.03.04-.06.08-.08.14-.08.19,0,.05.04.1.07.13h0Z"/>
        <path class="cls-8" d="M12.22,13.33s.06-.05.08-.1c.01.06.03.13.08.15.01,0,.02.01.04.01,0,0,0,0,.01,0,0,.02-.01.04-.02.05,0,.02-.01.03-.02.05-.01.03-.03.06-.05.09-.01.01-.03.02-.04.01,0,0-.01,0-.02,0h0s-.03-.03-.04-.05c-.03-.06-.03-.16-.02-.21Z"/>
        <path class="cls-6" d="M12.44,10.67c.1.05.24.11.37.11.03,0,.05,0,.08-.01.02.02.04.03.05.04.04.02.08.03.13.04.01,0,.02,0,.03,0-.02.03-.08.07-.15.09-.06.02-.19.05-.32-.01-.15-.07-.32-.26-.42-.37.01-.02.02-.05.02-.08.07.08.14.14.21.17Z"/>
        <path class="cls-8" d="M12.22,12.39c.05.09.1.18.17.26-.01.08-.05.2-.1.26-.02.02-.03.03-.05.04-.02,0-.03,0-.05,0-.02,0-.03-.03-.04-.07-.02-.07-.01-.18,0-.26.01-.09.05-.18.08-.23Z"/>
        <path class="cls-8" d="M12.53,12.42c-.05,0-.14-.09-.24-.29-.06-.14-.09-.27-.09-.35.05.08.12.15.18.15h0s0,0,.01,0c0,0,.02-.02,0-.14.01.01.03.03.04.04.04.11.07.22.1.32.04.17.05.25.03.27-.01.01-.02.02-.04.01Z"/>
        <path class="cls-6" d="M12.18,10.3c.1.11.25.23.41.26.04,0,.07.01.11.01.04,0,.08,0,.12-.02.07.05.14.07.18.09.01,0,.02,0,.03,0-.03.04-.08.07-.14.09h0c-.11.03-.26,0-.44-.1-.07-.04-.15-.1-.22-.19-.03-.03-.05-.06-.07-.09,0-.01-.01-.02-.02-.03.02,0,.03-.02.05-.04Z"/>
        <path class="cls-8" d="M12.14,13.51s-.02-.1-.02-.14c.02,0,.03-.02.05-.04.01.01.02.01.03.02,0,.07,0,.16.03.22.01.02.02.04.04.05-.02.01-.03.02-.05.01s-.03-.01-.04-.03c-.01-.02-.02-.05-.03-.09Z"/>
        <path class="cls-5" d="M12.26,13.64s-.02.05-.03.06c-.01.03-.03.08-.03.09-.01.08,0,.15.03.22.02.03.04.07.07.09.03.03.06.05.1.07-.02.01-.04.01-.06.01-.02,0-.04,0-.06-.01-.08-.03-.15-.08-.18-.17-.02-.03-.03-.07-.03-.12,0-.05,0-.11.03-.17.02-.04.04-.07.06-.09.01.02.03.02.05.03h.01s.03,0,.05-.01Z"/>
        <path class="cls-8" d="M12.12,10.6s-.02-.01-.03-.02c.03-.02.05-.04.06-.06.01-.02.02-.04.02-.06,0-.01,0-.02,0-.03.01.01.02.03.03.04,0,.05,0,.09-.02.11,0,.02-.02.03-.06.02Z"/>
        <path class="cls-8" d="M12.25,12.98s.03-.02.04-.03c0,.04.01.08.03.12,0,.03-.01.07-.02.1-.02.08-.06.13-.09.14,0,0-.01,0-.02,0,0,0,0,0,0,0h0s-.05-.07-.05-.12c0-.04,0-.08,0-.13,0-.03.01-.07.02-.11.01.02.02.03.04.04,0,0,.02,0,.03,0s.03,0,.04,0Z"/>
        <path class="cls-8" d="M12.16,10.28s-.03.03-.05.04c-.04.01-.08,0-.12,0,.02-.04.01-.07.01-.11.03,0,.06-.01.09-.02.02.03.04.06.07.09Z"/>
        <path class="cls-5" d="M12.02,13.62s.07-.03.1-.07c0,.02.01.04.02.05-.02.02-.05.06-.07.11-.03.06-.04.13-.03.19,0,.05.02.09.03.13.04.09.1.15.18.18-.05.03-.1.03-.15,0-.08-.05-.14-.16-.16-.19,0,0,0-.01,0-.02h0c-.04-.09-.03-.18.02-.27.02-.03.04-.06.07-.1Z"/>
        <path class="cls-8" d="M12.27,11.59c-.08-.03-.15-.16-.19-.27.03.03.07.05.11.06h0s.01,0,.02-.01c0-.03,0-.07-.01-.12.02.01.05.02.07.02,0,.02.02.05.02.07h0c.04.16.04.24.02.25,0,0-.02,0-.03,0Z"/>
        <path class="cls-4" d="M12.57,12.81c-.05-.05-.1-.11-.15-.16,0,0,0,0,0-.01-.07-.09-.13-.18-.18-.27,0,0,0-.01,0-.01-.12-.23-.19-.49-.23-.74.05.16.25.72.39.89v.02c.18.2.32.37.45.51-.1-.06-.18-.13-.26-.21,0,0,0,0,0,0Z"/>
        <path class="cls-8" d="M11.97,10.35s.05.01.08.01c.02,0,.03,0,.05,0,0,.01.02.02.03.03.01.03.01.06.01.08,0,.01-.01.03-.02.05-.01.02-.03.04-.06.06,0,0,0,0-.01,0-.05.02-.1.01-.16-.03.02-.02.03-.03.03-.05,0-.02.01-.05-.02-.08.02-.02.04-.04.05-.06,0,0,0-.01.01-.02Z"/>
        <path class="cls-8" d="M11.87,13.37s.06-.05.09-.1c.02.06.05.09.09.1.01,0,.02,0,.03,0h0s0,.09.02.13c-.04.08-.09.1-.14.07,0,0-.02-.01-.02-.02-.05-.04-.06-.13-.07-.2Z"/>
        <path class="cls-8" d="M11.95,11.15c0-.14,0-.27,0-.39.01,0,.02-.01.03-.02.05-.04.09-.08.1-.13.01,0,.02.01.03.02.01,0,.03,0,.04,0,.02,0,.04,0,.05-.02.03.03.06.07.09.1l-.04.04s0,0,0,0c0,0,0,.01,0,.02.11.19.18.38.16.4-.02,0-.06-.01-.13-.08-.03-.1-.09-.22-.13-.25,0,0-.02,0-.02,0,0,0,0,.02,0,.02.03.02.08.13.12.24h0s0,0,0,0c.03.09.03.13.03.13-.02,0-.05,0-.09-.03-.03-.09-.09-.19-.16-.23,0,0-.02,0-.02,0,0,0,0,.02,0,.02.1.07.18.25.17.35-.04-.01-.09-.05-.12-.1h0s-.06-.08-.07-.1c0,0-.01-.01-.02,0,0,0,0,0,0,.01h0Z"/>
        <path class="cls-8" d="M12.85,12.99c-.13-.14-.27-.3-.43-.5v-.02c-.16-.17-.36-.78-.4-.9,0,0,0,0,0,0,0,0,0,0,0-.03,0-.02-.02-.06-.04-.12-.01-.09-.02-.19-.02-.28h0s0,0,0,0c0,0,.03.05.07.1.05.14.13.31.24.36.01,0,.02,0,.03,0,.01,0,.02,0,.03-.01h0s.02.07.03.11c.02.11.02.15.02.17-.1-.02-.25-.31-.29-.42,0,0-.01-.01-.02,0,0,0-.01.01,0,.02.01.02.06.13.12.23,0,.08.02.23.1.41.07.15.15.26.22.3.02.08.05.15.08.19.04.06.14.19.23.29.02.02.04.04.05.06Z"/>
        <path class="cls-8" d="M11.94,13.07c.05.04.1.07.16.11.01.04.03.08.05.12-.01.02-.03.04-.05.04-.01,0-.03,0-.05,0-.03,0-.06-.05-.08-.12-.01-.04-.03-.09-.04-.15Z"/>
        <path class="cls-5" d="M11.8,13.72c.04-.07.1-.11.12-.13,0,0,.02.01.02.01.01,0,.02.01.03.01-.02.03-.04.06-.06.08-.06.1-.06.19-.02.29h0s0,.02,0,.02c.01.03.06.11.13.17-.16-.01-.23-.11-.26-.18-.02-.04-.02-.09-.02-.15,0-.05.02-.1.04-.14Z"/>
        <path class="cls-8" d="M11.87,10.73s-.05-.06-.07-.14c.02,0,.04-.02.06-.03.05.04.1.05.13.05.02,0,.03,0,.05,0-.01.04-.04.08-.09.11-.01.01-.03.02-.04.02h0s-.03,0-.04,0Z"/>
        <path class="cls-1" d="M11.73,9.76s.02-.03.04-.03c.03,0,.05.01.05.03s-.02.03-.05.03c-.02,0-.04-.01-.04-.03Z"/>
        <path class="cls-8" d="M11.78,10.57s-.07,0-.11-.01c.02-.03.03-.06.03-.09.02-.02.04-.04.05-.07.04,0,.07,0,.09,0,.01,0,.03.02.04.02.03.03.02.05.02.05s-.02.03-.04.05c-.02.02-.05.03-.07.04Z"/>
        <path class="cls-8" d="M11.85,10.38s-.07-.01-.1-.01h0s0-.02,0-.02c.04-.05.06-.09.07-.13h.02s.08,0,.12,0c0,.05,0,.09-.03.13-.02.02-.03.04-.05.06-.01,0-.02-.01-.03-.02Z"/>
        <path class="cls-4" d="M11.87,9.74s-.05-.04-.09-.04-.08.02-.09.04c0,0,0,.01,0,.02,0,.03.04.05.09.05s.09-.03.09-.05c0,0,0-.01,0-.02ZM11.78,9.79s-.04-.01-.04-.03c0,0,0,0,0,0t0,0h0s0,0,0,0h0s0,0,0,0c0,0,0,0,0,0,0,0,.01,0,.02,0,0,0,.01,0,.02,0,0,0,0,0,0,0,0,0,0,0,0,0,0,0,0,0,0,0,0,0,0,0,0,.01,0,.02-.02.03-.05.03Z"/>
        <path class="cls-8" d="M11.72,12.96s-.01-.04-.02-.07c.03.03.06.06.1.09.02.02.05.04.07.06-.05,0-.1-.01-.13-.04-.01,0-.02-.02-.02-.04Z"/>
        <path class="cls-8" d="M11.7,13.12c0-.05,0-.09,0-.12,0,0,.01.01.02.02.03.03.1.04.15.04h.02c.01.06.02.12.04.17-.03.06-.06.11-.09.12-.01,0-.03,0-.04,0-.05-.03-.09-.12-.1-.22Z"/>
        <path class="cls-1" d="M11.9,9.74s-.06-.07-.12-.07-.11.03-.12.07c0,0,0,.01,0,.02,0,.05.05.08.12.08s.13-.04.13-.08c0,0,0-.01,0-.02ZM11.78,9.82c-.05,0-.09-.03-.09-.05,0,0,0-.01,0-.02.01-.02.05-.04.09-.04s.08.02.09.04c0,0,0,.01,0,.02,0,.03-.04.05-.09.05Z"/>
        <path class="cls-8" d="M11.52,10.25s.01-.06.02-.08c.09.03.18.04.26.05,0,.03-.02.07-.06.11h-.01s-.08.04-.11.03c-.05-.01-.09-.05-.11-.07,0,0,0-.02,0-.03Z"/>
        <path class="cls-8" d="M11.54,10.51s.02,0,.03,0c.04,0,.07-.01.1-.03,0,.03-.01.05-.03.07-.04.03-.1.05-.14.05-.05,0-.1-.04-.11-.08,0-.01,0-.03,0-.04,0-.02.02-.06.06-.09.01.06.04.11.11.12Z"/>
        <path class="cls-8" d="M11.49,10.29s.07.08.13.09c.02,0,.03,0,.04,0,.02,0,.04,0,.06-.01h0s-.02.06-.05.07c-.03.02-.08.04-.13.03-.05,0-.08-.06-.09-.12h0s0-.06.03-.09c0,0,0,.01,0,.01Z"/>
        <path class="cls-6" d="M11.5,10.63s.11-.01.15-.05c.03.02.07.02.1.02,0,0,.02,0,.03,0,.01.06.03.13.08.15.01,0,.03.01.04.01h.01c0,.31,0,1,.3,1.59-.03.05-.07.16-.09.26,0,.04-.02.17,0,.26-.01.05-.02.11-.03.16,0,.04,0,.07,0,.1-.1-.06-.18-.13-.26-.19-.48-.41-.73-1.11-.63-1.77.03-.21.09-.42.18-.62.02.04.07.07.13.07Z"/>
        <path class="cls-5" d="M11.36,10.18s-.07,0-.1-.02c.03-.04.06-.06.09-.08.01-.01.03-.03.05-.04.03-.02.06-.04.09-.07,0,0,0,0,0,0,.02.02.04.05.03.08,0,.03-.02.05-.04.07-.03.03-.07.05-.12.06Z"/>
        <path class="cls-5" d="M11.42,9.81s-.02-.01-.04-.02c-.01,0-.02,0-.04,0-.03,0-.07.01-.1.02,0,0,0,0-.01,0-.05.02-.09.05-.11.1-.05.11,0,.27.03.36.02-.05.04-.09.06-.12,0,0,0,0,0,0,.01-.01.02-.02.03-.03.03-.03.05-.05.07-.07.02-.01.03-.03.05-.04.03-.02.06-.04.08-.07.02-.02.02-.04.02-.06,0-.03-.02-.05-.05-.07ZM11.35,9.91s-.03.02-.04,0c0,0,0-.03.01-.04.01-.01.03-.02.04,0,.01.01,0,.03-.01.04Z"/>
        <path class="cls-1" d="M11.31,9.92s0-.03.01-.04c.01-.01.03-.01.04,0,0,.01,0,.03-.01.04s-.03.01-.04,0Z"/>
        <path class="cls-1" d="M13.31,13.27c0-.09.01-.2.01-.33h0c0-.06,0-.13,0-.2,0-.01,0-.03,0-.04,0-.1-.01-.19-.02-.27,0-.08-.02-.14-.03-.18,0-.02,0-.04-.02-.06-.03-.14-.08-.31-.26-.68-.05-.1-.1-.19-.15-.27-.03-.05-.06-.09-.08-.13-.03-.04-.06-.08-.08-.12.03.01.06.02.08.02.02,0,.03,0,.05,0,.07,0,.12-.02.16-.03.08-.03.16-.08.18-.13,0,0,0,0,0-.01s0,0,0,0c-.02,0-.03-.01-.05-.01-.04-.01-.08-.02-.12-.04-.01,0-.02-.02-.03-.03.06-.02.1-.06.14-.11,0,0,0-.01,0-.01,0,0,0,0-.01-.01-.01,0-.03,0-.05-.01-.04-.01-.1-.03-.16-.07.08-.03.12-.08.15-.11,0,0,0-.01.01-.01,0,0,0-.01,0-.02,0,0,0,0,0-.01-.08-.02-.18-.05-.25-.09h-.02s.01-.02.02-.02c.1-.05.12-.11.12-.11s0,0,0-.01,0,0-.01,0c0,0-.05-.01-.11-.03-.04-.01-.08-.03-.13-.06.02,0,.04,0,.07,0h.13s.01,0,.01-.01,0-.01,0-.02c-.02,0-.05-.02-.08-.04h0c-.12-.07-.23-.16-.34-.26-.02-.01-.03-.02-.04-.04-.04-.03-.07-.06-.11-.09-.09-.07-.19-.15-.32-.18-.15-.03-.33,0-.48.08-.08.04-.13.13-.14.23,0,0,0,.01,0,.02-.02,0-.05,0-.07.02,0,0-.01,0-.02,0-.06.02-.11.06-.13.12-.06.13,0,.32.05.42,0,0,0,.01.01.01h0s.01,0,.01-.01c.01-.06.04-.11.06-.15,0,0,.01,0,.01.01.02.01.05.02.08.02.01,0,.02,0,.04,0,.04-.01.08-.03.12-.06.01,0,.02,0,.03.01-.01.02-.02.05-.02.08-.04.03-.05.06-.05.11-.04.03-.09.08-.08.13,0,.01,0,.03,0,.04-.04.09-.08.18-.11.28-.04.12-.07.24-.08.37,0,.03,0,.05,0,.08-.03.3,0,.6.09.87.08.23.19.45.35.63.03.03.05.06.08.09,0,.05,0,.08.02.11-.02.03-.03.08-.02.16.01.09.05.2.11.24.01,0,.03.01.04.01h0c0,.09.03.15.06.19-.03.02-.08.06-.13.13h-.4s-.04-.01-.05-.04c0-.04-.03-.09-.09-.14-.04-.03-.09-.05-.17-.06-.19-.01-.23.08-.26.15,0,.02-.02.04-.03.04-.03.02-.04.02-.07.03-.01,0-.03,0-.05.01,0,0,0,0-.01,0,0,0,0,0,0,.01.09.3.27.31.29.31h.8c.05.13.16.2.32.2h0s.06.03.09.03c.03,0,.06-.01.09-.03,0,0,.01,0,.02-.01.02,0,.04,0,.06.01.03,0,.07-.01.09-.03.03,0,.07.02.11.02h.01s.02.03.03.05c.04.07.08.11.13.12.01.05.03.08.04.11.03.07.05.08.07.09,0,0,0,0,.01,0,.01,0,.02,0,.03-.01.03-.03.06-.09.08-.2,0,0,0,0,.01,0,.03,0,.06-.01.09-.05.01-.02.02-.03.03-.06.03-.06.05-.14.07-.23.07-.01.11-.06.11-.16s-.04-.14-.08-.16v-.04c0-.08,0-.16,0-.22.07.13.12.26.13.31,0,0,0,.01.02.01,0,0,.01,0,.01-.01.02-.15.03-.31-.02-.49ZM13.01,13.21c.04.05.08.12.12.18,0,.07,0,.17.01.27v.03s-.03,0-.03,0h-.11c0-.17,0-.35,0-.48ZM13.05,13.73s-.08.14,0,.27h-.61s-.06-.07-.06-.11c0-.04.02-.09.07-.16h.6ZM12.39,12.79s0-.02.01-.03c0-.02.01-.05.02-.07.02.02.04.05.06.07.02.02.05.05.07.07-.01.07-.04.15-.08.2-.02.02-.05.06-.08.06-.01,0-.03-.01-.03-.03-.02-.03-.03-.09-.04-.13.01-.01.02-.03.03-.04,0,0,0-.02.01-.03,0-.01.01-.03.02-.04,0,0,0-.02.01-.03ZM12.35,13.1s.02.01.03.02h.01s.05-.01.07-.04c0,.06.02.13.05.17-.02.06-.05.1-.07.12-.02.01-.03.01-.05,0-.05-.03-.07-.12-.07-.19,0-.03.01-.05.02-.08ZM12.49,13.04c.03-.05.06-.12.07-.19.05.05.1.09.16.14-.01.07-.03.13-.05.17-.02.03-.03.05-.05.07-.02.02-.04.02-.06.01,0,0,0,0-.01,0h0s-.05-.09-.05-.19ZM12.67,12.9l-.02-.02h0s-.05-.05-.08-.07c0,0,0,0,0,0-.02-.02-.04-.04-.05-.06-.01-.01-.03-.03-.04-.04-.02-.02-.04-.04-.05-.06,0,0,0,0,0-.01-.07-.09-.13-.18-.18-.27,0,0,0-.01,0-.01-.12-.23-.19-.49-.24-.74.05.16.25.72.39.89v.02s.05.04.06.06.03.04.05.06l.02.02s.04.04.06.07c0,0,.01.02.02.03.05.06.11.13.16.18.03.03.05.06.08.09-.03-.02-.05-.04-.08-.06,0,0,0,0,0,0-.03-.02-.05-.04-.07-.06ZM12.39,12.65s-.01.07-.02.1c0,.02-.02.05-.03.07,0,.01-.01.02-.02.03,0,.01-.01.02-.02.03,0,0,0,0,0,0,0,0-.01.01-.02.02-.02.02-.03.03-.05.04-.02,0-.03.01-.05,0-.02,0-.03-.03-.04-.07-.01-.04-.01-.08-.01-.13,0-.03,0-.05,0-.08,0-.02,0-.04,0-.05.01-.09.05-.18.08-.23.05.09.1.18.17.26ZM12.18,12.98s.02,0,.03,0,.02,0,.04-.01c.01,0,.03-.01.04-.02,0,.04.01.08.03.12,0,.03-.01.07-.02.1-.02.08-.06.13-.09.14,0,0-.01,0-.02-.01,0,0,0,0,0,0h0s-.05-.07-.05-.12c0-.03,0-.08,0-.13,0-.03.01-.07.02-.11.01.02.02.03.04.04ZM12.14,13.3s-.03.04-.05.04c-.01,0-.03,0-.04,0-.03,0-.06-.05-.08-.12-.01-.04-.03-.09-.04-.15.05.04.1.07.16.11.01.04.03.08.05.12ZM12.17,13.32s.02.01.03.02c0,.07,0,.16.03.22.01.02.02.04.04.05-.02.01-.03.02-.05.01s-.03-.01-.04-.03c-.01-.02-.02-.05-.03-.09-.01-.05-.02-.1-.02-.14.02,0,.03-.02.05-.04ZM12.24,13.55c-.03-.06-.03-.16-.02-.21.03-.01.06-.05.08-.1.01.06.03.13.08.15.01,0,.02.01.04.01,0,0,0,0,.01,0,0,.02-.01.04-.02.05,0,.02-.01.03-.02.05-.01.03-.03.06-.05.09-.01.01-.03.02-.04.02,0,0-.01,0-.02,0,0,0,0,0,0,0-.01,0-.03-.03-.04-.05ZM12.45,13.46s.02-.05.02-.08c.03-.02.06-.07.07-.12,0,0,0,0,0,0,.01,0,.02,0,.04,0s.02,0,.04,0c0,.05.01.1.04.13,0,0,.02.01.03.02-.04.1-.1.21-.17.24-.02,0-.03,0-.03,0-.02-.01-.05-.06-.06-.15,0-.01.01-.03.02-.05ZM12.59,13.69h-.11s0,0,.01-.01c0,0,.01,0,.02,0,0,0,.02,0,.03,0,.02,0,.03-.02.05-.03h0s0,.03,0,.05ZM12.98,13.69h-.36s0-.03,0-.05v-.03c.05-.06.09-.14.11-.2,0,0,0,0,0,0h0s.02,0,.02,0h0s.01,0,.02,0c0,0,.01,0,.02-.01,0,0,.01-.01.02-.02,0,0,.01-.01.02-.02,0-.01.02-.03.02-.05v-.02s.02-.02.02-.03v-.04s.02-.02.02-.02c0,0,0-.01,0-.02,0,0,0-.02,0-.02h0s0-.04.01-.06c0,0,0,0,.02,0,0,0,0,0,0,0h0s.03.04.05.06c0,.14,0,.34,0,.52ZM12.88,13.09c-.01.06-.02.12-.04.16,0,0,0,.01,0,.02s0,.01,0,.02c0,.01,0,.02-.01.03h0s0,0,0,0c0,.01-.01.02-.02.03-.01.01-.02.02-.04.03,0,0-.01,0-.02,0-.02,0-.03,0-.05-.02-.02-.02-.03-.06-.04-.12.02-.02.04-.04.06-.08,0-.01.01-.03.02-.05,0,0,0-.02,0-.03,0-.01.01-.03.01-.04,0,0,0-.02,0-.03,0,0,0-.01,0-.02.04.03.08.05.12.08h0ZM12.75,12.89s-.08-.09-.12-.14c-.02-.02-.03-.04-.05-.06-.03-.03-.06-.07-.09-.11-.02-.03-.04-.05-.07-.08h-.01c-.14-.19-.35-.79-.39-.92,0,0,0,0,0,0,0,0,0,0-.01-.03,0-.02-.02-.06-.03-.12,0-.03,0-.07-.01-.1h0s0-.05,0-.08c0-.03,0-.06,0-.09,0-.14,0-.27,0-.39.01,0,.02-.01.03-.02.05-.04.09-.08.1-.13.01,0,.02.01.03.01.01,0,.03.01.04.01.02,0,.04,0,.05-.02.03.03.06.06.09.1.06.06.13.13.2.18.04.08.11.21.14.34,0,0,0,0,0,0h0s0,.03,0,.04c0,.02,0,.03,0,.05,0,.02,0,.03,0,.05v.03s-.07,0-.14-.08c0-.01-.01-.02-.02-.03,0-.01-.01-.02-.02-.03,0,0,0-.01-.01-.02l-.02-.03s-.01-.02-.02-.03c.03-.07-.13-.36-.16-.42,0,0,0,0-.01,0h0s-.01.01,0,.02c.11.19.18.38.16.4-.02,0-.06-.01-.13-.08-.03-.1-.09-.22-.13-.25,0,0-.02,0-.02,0,0,0,0,.02,0,.02.03.02.08.13.12.24h0c.03.1.03.13.03.13-.02,0-.05,0-.09-.03-.03-.09-.09-.19-.16-.23,0,0-.02,0-.02,0,0,0,0,.01,0,.02,0,0,.01.01.02.02,0,0,.01.01.01.01,0,0,.01.01.02.02,0,.01.01.02.02.03s.01.02.02.03c0,0,0,0,0,0,0,.01.01.02.01.03,0,.01.01.02.02.03.01.02.02.05.03.07,0,0,0,0,0,0,0,.01,0,.02,0,.03h0s0,.02,0,.03v.03s0,0-.01,0c0,0,0,0-.01,0,0,0-.02,0-.02-.01,0,0-.02-.01-.02-.02-.02-.02-.03-.03-.05-.05,0,0,0,0,0,0h0s-.05-.08-.07-.1c0,0-.01-.01-.02,0,0,0,0,0,0,.01,0,0,0,0,0,0s.03.04.06.09c0,0,0,0,.01.01.05.14.13.31.24.36.01,0,.02,0,.03,0,.01,0,.02,0,.03-.01.01.04.02.07.03.11.02.11.02.15.02.17-.1-.02-.25-.31-.29-.42,0,0-.01-.01-.02,0,0,0-.01.01,0,.02,0,.02.06.13.12.23,0,.08.02.23.1.41.07.16.15.26.22.3.03.08.05.15.08.2.02.03.05.07.09.12.03.04.06.08.1.12.01.02.03.03.04.05.02.02.04.04.05.06-.03-.03-.06-.06-.09-.1ZM12,10.21s.06-.01.09-.02c.02.02.04.06.08.09-.01.02-.03.03-.05.04-.04.01-.08,0-.12,0,.01-.04.01-.08.01-.11ZM12.06,10.36s.03,0,.05,0c0,.01.01.02.02.03.01.03.01.06.01.08,0,.01-.01.03-.02.05-.01.02-.03.04-.06.06,0,0,0,0-.01,0-.05.02-.1.01-.16-.03.02-.02.03-.03.04-.05,0-.02.01-.05-.02-.08.02-.02.04-.03.05-.06,0,0,0-.01.01-.02.02,0,.05.01.08.01ZM12.15,10.53s.02-.04.02-.06c0-.01,0-.02,0-.03.01.01.02.03.03.04,0,.05,0,.09-.02.11-.01.02-.02.03-.06.02-.01,0-.02-.01-.03-.02.03-.02.05-.04.06-.06ZM11.94,10.34s-.03.04-.05.06c-.01,0-.02-.01-.03-.02-.03-.02-.07-.01-.1-.01,0,0,0,0,0-.01,0,0,0,0,0,0,.04-.05.06-.09.07-.13,0,0,.01,0,.02,0,.04,0,.08,0,.12,0,0,.05,0,.09-.03.13ZM11.74,10.33h-.01s-.08.04-.11.03c-.05-.01-.09-.05-.11-.07,0,0,0-.02,0-.03,0-.03.01-.06.02-.08.09.03.18.04.26.05,0,.03-.02.07-.06.11ZM11.75,10.4s.07,0,.09,0c.01,0,.03.02.04.02.03.03.02.05.02.05s-.02.03-.04.05c-.02.02-.05.03-.07.04-.03,0-.07,0-.11-.01.02-.03.03-.06.03-.09.02-.02.04-.04.05-.07ZM11.87,10.56c.05.04.1.05.13.05.02,0,.03,0,.05,0,0,.04-.04.08-.09.11-.01.01-.03.02-.04.02h0s-.03,0-.04,0c-.03-.02-.05-.06-.06-.14.02,0,.04-.02.06-.03ZM12.93,12.06s0,0,0,0h0s-.02.01-.02.01c0,0,0,0-.01,0,0,0,0,0,0,0,0,0,0,0,0,0h0s-.01,0-.01,0c-.03-.02-.07-.06-.12-.14,0-.01-.01-.02-.02-.03,0-.02-.02-.04-.03-.06,0-.01-.01-.03-.02-.05,0-.02-.02-.04-.02-.06,0,0,.02,0,.03.01h0s.02,0,.02-.01c.01-.01.01-.04,0-.1,0-.08-.02-.15-.05-.22,0-.04,0-.08,0-.13.03.03.05.07.08.11.01.01.02.03.03.05,0,.02.02.03.03.05.01.02.02.03.03.05.01.02.02.05.04.07.05.1.07.19.07.26h0c0,.08,0,.15-.02.18ZM12.33,11.4c.04.05.1.1.15.1h0c.05.16.07.3.04.32,0,0,0,0-.01,0-.05-.01-.11-.08-.13-.11-.01-.05-.02-.1-.04-.14,0-.04,0-.09-.01-.17ZM12.18,11.38s.01,0,.02-.01c0-.03,0-.07-.01-.12.02.01.05.02.07.02,0,.02.02.05.02.07h0c.04.16.04.24.02.25,0,0-.01,0-.03,0-.08-.03-.15-.16-.19-.27.03.03.07.05.11.06h0ZM12.31,11.34s-.01-.05-.02-.07c0,0,0,0,0,0,0,0,0,0,0,0,0,0,0,0,0,0h0s0-.05-.01-.09c.04.03.07.05.11.05h0s0,0,0,0c.01.02.02.03.03.04,0,0,0,0,0,0,0,0,0,0,0,0,0,0,0,0,0,0,0,0,0,.01.01.02s0,.01.01.02c0,.01.01.03.02.04.04.08.04.11.03.12,0,0,0,0-.01.01-.04.02-.11-.03-.19-.14ZM12.5,11.51h0s0,0,0,0c.01,0,.02-.02.03-.03,0-.02,0-.04,0-.08.04.04.08.05.1.05,0,0,.01,0,.02,0,.02.06.03.12.04.2,0,.06,0,.07,0,.08-.02,0-.05-.03-.06-.04-.04-.04-.08-.09-.12-.15v-.02ZM12.29,12.13c-.06-.14-.09-.26-.09-.35.05.08.12.15.18.15,0,0,0,0,.01,0,0,0,.03-.02,0-.14.01.02.03.03.04.04.04.11.07.22.1.32.05.17.05.25.03.27-.01.01-.02.02-.04.01-.05,0-.14-.09-.24-.3ZM12.56,12.13c-.02-.08-.05-.19-.09-.28.01,0,.02,0,.03.01,0,0,0,0,0,0,.01,0,.02,0,.03-.01.03-.04,0-.17-.01-.26.03.03.05.07.08.1,0,0,0,0,0,0,.05.13.1.22.14.29,0,0,0,0,0,0,0,.05.01.1,0,.14v.02s0,.04-.01.06c0,.01,0,.02,0,.02,0,0,0,0,0,0,0,0,0,.01-.01.02-.01.01-.03.02-.06.02-.04-.06-.08-.11-.11-.14ZM12.75,12.27s0,0,0,0c.01-.01.02-.02.02-.04.1.1.25.28.4.53.04.06.08.13.11.2,0,.09,0,.17,0,.25-.04-.1-.09-.19-.16-.29-.04-.05-.08-.11-.12-.16-.07-.1-.14-.2-.2-.29-.02-.03-.03-.05-.05-.07-.02-.03-.04-.06-.06-.09.02,0,.04-.01.06-.03ZM13.28,12.75s0,.09,0,.13c-.03-.05-.05-.09-.08-.13,0,0,0,0,0,0,0,0,0,0,0,0-.01-.02-.03-.05-.04-.07-.02-.02-.03-.05-.05-.07-.13-.19-.25-.33-.33-.41.01-.04.01-.09,0-.16.04.05.08.07.11.07h0s.02,0,.03-.01c.04.05.11.13.18.26.06.11.11.23.16.36,0,.01,0,.02,0,.04ZM12.96,12.07s0,0,0,0c.01-.02.02-.07.02-.13.05.08.11.2.12.35-.06-.1-.11-.17-.15-.21ZM12.75,11.17s.03.05.05.07c0,.01.01.02.02.03.01.02.03.04.04.07.02.03.03.06.05.08.02.03.03.06.05.09.18.37.23.54.26.68,0,.02.01.04.02.07.01.05.03.19.04.35-.04-.1-.08-.19-.13-.27,0-.21-.08-.37-.16-.46,0-.07-.03-.16-.08-.27-.04-.08-.08-.15-.12-.21-.01-.02-.02-.04-.04-.05-.03-.04-.05-.07-.08-.1,0,0-.01-.01-.02-.02-.03-.11-.07-.21-.11-.29.02.02.05.03.07.04.01.01.02.03.04.04.03.04.07.09.11.15ZM12.95,10.82s.08.03.13.04c0,0,.02,0,.03,0-.02.03-.08.07-.15.1-.04.02-.12.03-.2.02-.02,0-.04,0-.06-.01,0,0-.02,0-.02,0-.01,0-.02,0-.03-.01-.15-.07-.32-.26-.42-.37.01-.02.02-.05.02-.08.07.08.14.13.21.17.09.04.2.09.31.11h.01s.03,0,.05,0c.03,0,.05,0,.08-.01.02.02.04.03.06.04ZM13,10.65s.02,0,.03,0c-.03.04-.08.07-.14.09h0s-.03,0-.04,0c-.03,0-.06,0-.09,0h0s-.01,0-.02,0c-.01,0-.03,0-.04,0-.06-.01-.12-.04-.19-.07-.02,0-.03-.02-.05-.03-.07-.04-.15-.1-.22-.19-.02-.03-.05-.06-.07-.09,0-.01-.01-.02-.02-.03.02,0,.04-.02.05-.04.1.11.25.23.41.26.04,0,.07.01.11.01.02,0,.03,0,.05,0,.02,0,.05,0,.07-.01.07.05.13.07.18.09ZM12.75,10.35s.04.02.06.03c.02,0,.03.01.05.02h0s.02,0,.03.01c0,0,.02,0,.03,0,.02,0,.04.01.06.02-.03.03-.07.08-.16.1-.01,0-.02,0-.04,0,0,0,0,0,0,0,0,0-.02,0-.02,0-.02,0-.03,0-.05,0-.03,0-.07,0-.11-.01-.2-.04-.39-.25-.48-.36.02,0,.03-.01.05-.02.07.07.21.18.37.18.01,0,.02,0,.04,0,.04,0,.08-.01.12-.03.01.01.03.02.05.03ZM12.66,10.12s.03.01.04.02c.02,0,.03.01.04.02.04.01.07.02.08.03-.01.02-.04.05-.08.07,0,0,0,0,0,0-.01,0-.03.01-.05.02-.04.01-.08.02-.13.03-.15.02-.29-.08-.37-.16.02,0,.03-.01.05-.02.04-.02.08-.04.12-.07,0,0,.01-.01.02-.02s.03-.02.04-.03c.05.03.09.04.12.05.02.01.04.03.06.04.01,0,.03.02.04.02ZM11.22,10.15s0,0,0,0c-.02.03-.05.07-.06.12-.03-.09-.08-.25-.03-.36.02-.05.06-.08.11-.1,0,0,0,0,.01,0,.03-.01.07-.02.1-.02.01,0,.03,0,.04,0,.01,0,.03,0,.04.02.03.02.05.04.05.07,0,.02,0,.04-.02.06-.02.03-.05.05-.08.07-.02.01-.04.02-.05.04-.02.02-.05.04-.07.07,0,.01-.02.02-.03.03ZM11.47,10.12s-.07.05-.12.06c-.04.01-.07,0-.1-.02.03-.03.06-.06.09-.08.01-.01.03-.03.05-.04.03-.02.06-.04.09-.07,0,0,0,0,0,0,.02.02.04.05.03.08,0,.03-.02.05-.04.07ZM11.51,10.13s.04-.05.04-.08c0-.05-.02-.09-.05-.11,0-.02.01-.03,0-.05,0-.03-.03-.07-.06-.09-.02-.01-.03-.02-.05-.02-.01,0-.03,0-.05,0,0,0,0-.01,0-.02.01-.09.06-.16.13-.2.15-.08.32-.11.46-.08.12.03.22.1.3.17.04.03.07.06.11.09,0,0,.01.01.02.02.12.1.23.2.37.28,0,0,.01,0,.02,0h-.06c-.11,0-.15,0-.25-.05,0,0,0,0,0,0,0,0,0,0-.05.04-.01,0-.02.01-.02.02-.04.03-.08.05-.12.07-.08.04-.17.06-.26.07h0c-.15.02-.3,0-.45-.04,0,0-.02,0-.03-.01ZM11.49,10.28s0,.01,0,.01c.02.04.07.08.13.09.02,0,.03,0,.04,0,.02,0,.04,0,.06-.01h0s-.02.06-.05.07c-.03.03-.08.04-.13.03-.05,0-.08-.06-.09-.12h0s0,0,0,0c0-.03,0-.06.03-.08ZM11.43,10.39c.01.06.04.12.11.12.01,0,.02,0,.03,0,.03,0,.07,0,.1-.02,0,.02-.01.05-.04.06-.04.03-.1.05-.14.05-.05,0-.1-.04-.11-.08,0-.01,0-.03,0-.04,0-.02.02-.06.06-.09ZM11.63,12.75h0s0,0,0,0c-.02-.02-.04-.04-.05-.07,0,0,0,0,0-.01-.01-.01-.02-.03-.03-.04-.01-.01-.02-.03-.03-.04-.01-.01-.02-.03-.03-.04,0-.01-.02-.03-.03-.05-.01-.01-.02-.03-.03-.04-.01-.01-.02-.03-.03-.05-.01-.03-.03-.06-.04-.09-.01-.02-.02-.04-.03-.06,0,0,0,0,0,0,0-.01-.01-.03-.02-.04,0,0,0-.01,0-.01-.01-.02-.02-.05-.03-.07h0s-.02-.06-.03-.09c0-.02-.01-.04-.02-.06t0,0s-.02-.09-.03-.13c0-.02,0-.05-.01-.07,0-.03,0-.06-.01-.08s0-.06,0-.09h0s0-.07,0-.11h0s0-.07,0-.11,0-.07,0-.11c0-.02,0-.05.01-.07,0-.03.01-.06.02-.1,0,0,0,0,0,0,0-.03.01-.06.02-.1,0-.02.01-.04.02-.06h0c.03-.12.07-.24.13-.36.02.04.07.07.13.07.04,0,.11-.01.15-.05.03.02.07.02.1.02,0,0,.02,0,.03,0,.01.06.03.13.08.15.01,0,.03.01.04.01h.01s0,.09,0,.14v.07h0c0,.05,0,.1,0,.15,0,.03,0,.07,0,.11h0s0,.09.01.13c0,.03,0,.07.01.1,0,0,0,.01,0,.02,0,0,0,.02,0,.03,0,.04.01.08.02.13,0,.05.02.09.03.14,0,.02.01.05.02.07.01.05.03.09.04.14,0,.02.01.05.02.07.02.05.04.1.06.15.01.02.02.04.03.06.01.02.02.05.03.07-.03.05-.07.16-.09.26,0,0,0,.01,0,.02v.02s0,.02,0,.03c0,.01,0,.03,0,.04,0,0,0,.01,0,.02,0,.04,0,.09.01.13-.01.05-.02.11-.03.16,0,.04,0,.07,0,.1-.1-.06-.19-.13-.26-.2-.02-.02-.05-.04-.07-.06,0,0-.01,0-.01-.01-.04-.04-.07-.08-.11-.12ZM11.88,13.03c-.05,0-.1-.01-.13-.04-.01,0-.02-.02-.02-.04,0-.02-.01-.04-.02-.07.03.03.06.06.1.09.02.02.05.04.07.06ZM11.8,13.34s-.09-.12-.1-.22c0-.05,0-.09,0-.12,0,0,.01.01.02.02.03.03.09.04.15.04h.03c.01.06.02.12.04.17-.03.06-.06.11-.09.12-.02,0-.03,0-.04,0ZM11.87,13.37s.06-.05.09-.1c.02.06.05.09.09.1.01,0,.02,0,.03,0,0,0,0,0,0,0,0,.04,0,.09.02.13-.04.08-.09.1-.14.07,0,0-.02-.01-.02-.02-.05-.04-.06-.13-.07-.2ZM11.74,13.99h-.79s-.17,0-.26-.27c.02,0,.03,0,.04,0,.03,0,.04,0,.08-.03.02-.01.03-.03.04-.06.03-.06.06-.14.23-.13.08,0,.13.03.17.07s.05.07.06.1c.01.03.04.06.08.06h.38s-.03.09-.04.13c0,.05,0,.09.02.13ZM11.78,14.01s-.02-.09-.02-.14c0-.05.02-.1.04-.14.04-.07.1-.11.12-.13,0,0,.01.01.02.01.01,0,.02.01.03.01-.02.03-.04.06-.06.08-.05.1-.06.19-.02.29h0s0,.02,0,.02c.01.03.06.11.13.17-.16-.01-.23-.11-.26-.18ZM12.09,14.19c-.08-.05-.14-.16-.16-.19,0,0,0-.01,0-.02h0c-.04-.09-.03-.18.02-.27.02-.03.04-.06.07-.1.04,0,.07-.03.1-.07,0,.02.01.04.02.05-.02.02-.05.06-.07.11-.03.06-.04.13-.03.19,0,.05.02.09.03.13.04.08.1.15.18.18-.05.03-.1.03-.15,0ZM12.34,14.19s-.04,0-.06-.01c-.08-.02-.15-.08-.18-.17-.02-.03-.03-.07-.03-.12,0-.05,0-.11.03-.17.02-.04.04-.07.06-.09.01.02.03.02.05.03h.01s.03,0,.05-.01c-.01.02-.02.05-.03.06-.01.03-.03.08-.03.09-.01.07,0,.15.03.22.02.03.04.07.07.09.03.03.06.05.1.07-.02.01-.04.01-.06.01ZM12.57,14.17s0,0,0,0h0s-.08,0-.12-.02-.08-.04-.11-.07c-.03-.03-.05-.05-.06-.09-.03-.06-.04-.13-.03-.2,0,0,.01-.04.03-.08,0-.02.03-.06.04-.08h0s.04,0,.06-.02.03-.04.04-.05c.01.05.03.09.05.11-.01.01-.02.02-.03.04-.06.08-.08.14-.08.19,0,.05.04.1.07.13.02.02.04.02.06.02.02,0,.03,0,.04,0h0s.02.02.02.02c.03.03.04.05.04.07,0,.01,0,.02-.02.03,0,0-.01,0-.02,0ZM12.68,14.33s-.01-.01-.02-.02h0s-.01-.01-.02-.02c0,0-.01-.01-.01-.02s0-.01-.01-.02c-.01-.02-.02-.04-.03-.06,0,0,.01,0,.01,0,.02-.01.03-.03.03-.05,0-.04-.03-.07-.05-.09-.01,0-.02-.01-.03-.02h0s.08,0,.08,0c.02.08.03.16.05.23,0,.03.02.06.02.09,0,0-.01,0-.02-.01ZM12.92,14.34c-.02.14-.05.18-.07.2,0,0-.01,0-.01,0,0,0,0,0-.01,0h0s0,0,0,0h0s0-.01-.01-.02c0,0,0,0,0-.01,0,0,0-.01,0-.02,0-.01-.01-.03-.02-.05,0-.01,0-.02-.01-.04,0-.01,0-.02-.01-.04,0-.03-.02-.07-.03-.11,0-.04-.02-.09-.03-.14,0-.01,0-.03,0-.05,0-.02,0-.03-.01-.05h.29s0,.06,0,.08c0,0,0,.01,0,.02,0,.03,0,.05,0,.07,0,0,0,0,0,0,0,.02,0,.04,0,.05,0,.03-.01.06-.02.09ZM13.11,14.07s0,.03-.01.04c-.01.06-.03.11-.05.15,0,.02-.01.03-.02.04-.02.03-.05.05-.07.04,0-.02,0-.04.01-.07,0,0,0-.01,0-.01,0-.07.02-.15.03-.23h.09s0,0,0,0c0,0,0,0,0,0h0s.01,0,.02,0c0,0,0,0,.01,0,0,.02,0,.03-.01.04ZM13.22,13.87c0,.11-.04.12-.09.13-.01,0-.03,0-.04,0-.11-.15-.02-.25,0-.27h.03s.02,0,.04,0c.04.02.07.06.07.13ZM13.3,13.68c-.05-.15-.19-.42-.33-.56-.01-.02-.02-.04-.03-.05-.02-.03-.07-.09-.13-.16-.02-.03-.04-.05-.06-.08-.02-.02-.04-.05-.06-.07-.01-.02-.02-.03-.03-.04-.02-.02-.03-.04-.04-.06,0-.01-.02-.02-.02-.03-.03-.04-.05-.1-.07-.17,0,0,0,0,0,0h.01s.04,0,.05-.03c0,0,.03-.04-.01-.23.02.02.04.05.06.08,0,0,.01.02.02.03.01.02.02.03.04.05.02.02.03.05.05.08,0,0,0,0,0,0,.01.01.02.02.02.03.06.09.12.18.19.27.04.06.09.12.13.18.08.11.14.22.18.34h0c.04.15.04.28.03.41Z"/>
      </g>
    </g>
  </g>
</svg>