<?xml version="1.0" encoding="UTF-8"?>
<svg id="Layer_1" data-name="Layer 1" xmlns="http://www.w3.org/2000/svg" viewBox="0 0 24 24">
  <defs>
    <style>
      .cls-1 {
        fill: #020202;
      }

      .cls-1, .cls-2, .cls-3, .cls-4, .cls-5, .cls-6, .cls-7, .cls-8, .cls-9, .cls-10, .cls-11, .cls-12, .cls-13, .cls-14 {
        stroke-width: 0px;
      }

      .cls-2 {
        fill: #006106;
      }

      .cls-3 {
        fill: #000;
      }

      .cls-4 {
        fill: #b21229;
      }

      .cls-5 {
        fill: #e9c015;
      }

      .cls-6 {
        fill: #0c750e;
      }

      .cls-7 {
        fill: none;
      }

      .cls-8 {
        fill: #cd1225;
      }

      .cls-9 {
        fill: #fff;
      }

      .cls-10 {
        fill: #006206;
      }

      .cls-11 {
        fill: #032344;
      }

      .cls-12 {
        fill: #e8c015;
      }

      .cls-13 {
        fill: #00853e;
      }

      .cls-14 {
        fill: #022d61;
      }
    </style>
  </defs>
  <rect class="cls-7" width="24" height="24"/>
  <g>
    <path class="cls-3" d="M16.71,7.34c2.92,2.92,3.18,7.42.57,10.03-2.61,2.61-7.11,2.35-10.03-.57-2.92-2.92-3.18-7.42-.57-10.03,2.61-2.61,7.11-2.36,10.03.57Z"/>
    <g>
      <g>
        <path class="cls-14" d="M10.2,3.18v7.02H3.18c.72-3.52,3.5-6.3,7.02-7.02Z"/>
        <path class="cls-8" d="M10.2,13.8v7.02c-3.52-.72-6.3-3.5-7.02-7.02h7.02Z"/>
        <path class="cls-8" d="M20.82,10.2h-7.02V3.18c3.52.72,6.3,3.5,7.02,7.02Z"/>
        <path class="cls-14" d="M20.82,13.8c-.72,3.52-3.5,6.3-7.02,7.02v-7.02h7.02Z"/>
        <path class="cls-9" d="M21,12c0,.62-.06,1.22-.18,1.8h-7.02v7.02c-.58.12-1.18.18-1.8.18s-1.22-.06-1.8-.18v-7.02H3.18c-.12-.58-.18-1.18-.18-1.8s.06-1.22.18-1.8h7.02V3.18c.58-.12,1.18-.18,1.8-.18s1.22.06,1.8.18v7.02h7.02c.12.58.18,1.18.18,1.8Z"/>
      </g>
      <g>
        <g>
          <g>
            <g>
              <g>
                <path class="cls-10" d="M10.63,12.42s-.11.1-.25,0c.04-.03.17-.08.25,0Z"/>
                <path class="cls-13" d="M10.61,12.42s-.09.07-.19,0c.06-.02.14-.05.2,0-.13,0-.13,0-.13,0h.13Z"/>
              </g>
              <g>
                <path class="cls-10" d="M11,13.03s-.07-.13.07-.24c.02.04.04.18-.07.24Z"/>
                <path class="cls-13" d="M11.01,13.01s-.04-.11.05-.19c0,.06.02.15-.04.19.02-.13.02-.13.02-.13l-.03.13Z"/>
              </g>
              <path class="cls-10" d="M10.8,11.48c-.01.05-.03.12-.05.21-.03.15-.05.25-.06.37,0,.07-.01.23.03.42.04.18.1.31.17.44.03.06.05.09.08.13.07.08.17.13.27.16.09.03.18.03.27.05.09.02.18.06.26.1.07.03.14.06.21.09.11.04.22.09.33.14.01,0,.03.01.03.03,0,.01,0,.02-.02.03-.03.02-.08-.02-.1-.03-.1-.07-.23-.1-.34-.16,0,0-.15-.08-.34-.15-.07-.02-.13-.04-.2-.06-.06-.02-.13-.03-.19-.05-.11-.04-.18-.12-.24-.22-.05-.08-.14-.24-.19-.45-.01-.06-.04-.14-.05-.26-.01-.15,0-.26.02-.38.01-.1.04-.24.09-.4,0,0,.04-.05.03-.02Z"/>
              <g>
                <path class="cls-10" d="M10.84,13.01s-.09.06-.18,0c-.09-.05-.13-.1-.13-.1,0,0,.2-.06.31.09Z"/>
                <path class="cls-13" d="M10.8,13s-.03-.04-.05-.05c-.03-.01-.06-.01-.1-.01-.02,0-.05,0-.07,0,0,0-.01,0-.01,0h0s.07.06.13.08c.05.02.12,0,.12,0h0l-.09-.02h-.04s.02,0,.02,0l-.04-.02.15.03"/>
              </g>
              <g>
                <path class="cls-10" d="M10.9,12.09s-.07-.08-.04-.18c.04-.1.07-.14.07-.14,0,0,.09.19-.04.32Z"/>
                <path class="cls-13" d="M10.91,12.05s.03-.04.04-.06c0-.03,0-.06,0-.1,0-.02,0-.05-.01-.07,0,0,0-.01,0-.01h0s-.05.08-.06.14c-.01.06.02.12.03.12h0v-.09s0-.04,0-.04v.02s.03-.05.03-.05v.16"/>
              </g>
              <g>
                <path class="cls-10" d="M10.66,12.15s0-.11.09-.16c.1-.05.15-.05.15-.05,0,0-.06.2-.24.21Z"/>
                <path class="cls-13" d="M10.69,12.13s.05,0,.07-.02c.03-.02.05-.05.06-.07.01-.02.03-.04.04-.06,0,0,0-.01,0-.01h0s-.09.03-.13.06c-.05.03-.06.1-.06.1h0l.06-.06.02-.04v.02s.04-.02.04-.02l-.12.11"/>
              </g>
              <g>
                <path class="cls-10" d="M10.72,11.75s.01-.11.11-.14.15-.03.15-.03c0,0-.09.19-.27.17Z"/>
                <path class="cls-13" d="M10.75,11.74s.05,0,.07-.01c.03-.01.05-.04.07-.07.01-.02.03-.04.05-.05,0,0,0-.01,0-.01h0s-.09.02-.14.04c-.05.03-.07.09-.07.09h0l.07-.05.02-.03v.02s.04-.02.04-.02l-.13.09"/>
              </g>
              <g>
                <path class="cls-10" d="M10.82,12.56s0-.11.05-.16c.06-.05.15-.08.16-.1,0,.03-.02.12-.05.16-.02.04-.08.08-.12.09-.04.01-.06.03-.06.03v-.02Z"/>
                <path class="cls-13" d="M10.84,12.54s0-.03.02-.07c.02-.04.02-.05.08-.07s.07-.04.07-.04c0,0,0,.04-.02.08-.02.03-.09.1-.12.11-.02,0-.04.02-.04.02,0,0,.08-.09.09-.1s.02-.04.02-.04l-.03.03v-.02s0,.03-.02.04c-.01.02-.05.06-.07.07Z"/>
              </g>
              <g>
                <path class="cls-10" d="M10.6,12.38s0-.11-.05-.16c-.06-.05-.15-.08-.16-.1,0,.03.03.12.05.16s.08.08.12.09.06.03.06.03v-.02Z"/>
                <path class="cls-13" d="M10.58,12.36s0-.03-.02-.07c-.02-.04-.02-.05-.08-.07-.06-.02-.08-.04-.08-.04,0,0,0,.04.02.08.02.04.09.11.12.11.02,0,.04.02.04.02,0,0-.08-.09-.09-.1s-.02-.04-.02-.04l.03.03v-.02s0,.03.02.04c.01.01.05.06.07.07Z"/>
              </g>
              <g>
                <path class="cls-10" d="M10.69,11.94s0-.09.05-.13c.05-.04.14-.07.14-.08,0,.02-.02.1-.04.13-.02.03-.07.07-.11.07s-.05.02-.05.02h0Z"/>
                <path class="cls-13" d="M10.71,11.92s0-.03.02-.06c.02-.03.02-.04.07-.06.05-.02.07-.04.07-.04,0,0,0,.03-.02.06-.02.03-.08.09-.1.09s-.04.01-.04.01c0,0,.07-.07.08-.08.01-.01.02-.03.02-.03l-.03.02v-.02s0,.02-.01.04c-.01.01-.04.05-.06.06Z"/>
              </g>
              <g>
                <path class="cls-10" d="M11.44,13.28s-.07,0-.11-.08c-.03-.07,0-.18.02-.2.02.03.02.08.05.09.02.02.09.07.04.19Z"/>
                <path class="cls-13" d="M11.43,13.26s-.05,0-.07-.04c-.02-.04,0-.16,0-.16,0,0,.01.06.05.07.04.01.04.14.04.14l-.03-.1v.02s-.03-.03-.03-.03l.02.04h0,.02s.02.06.02.06Z"/>
              </g>
              <g>
                <path class="cls-10" d="M10.9,12.95s0,.07-.06.12c-.06.04-.18.03-.2.02.03-.02.07-.04.08-.06.01-.03.05-.11.17-.08Z"/>
                <path class="cls-13" d="M10.88,12.96s0,.05-.03.08c-.04.03-.16.04-.16.04,0,0,.05-.02.06-.07,0-.04.13-.06.13-.06l-.09.05h.02s-.02.03-.02.03l.04-.03h0s0-.01,0-.01l.04-.03Z"/>
              </g>
              <g>
                <path class="cls-10" d="M10.77,12.68s0,.07-.05.12c-.06.05-.18.04-.2.02.02-.02.07-.04.08-.06.01-.03.05-.11.17-.08Z"/>
                <path class="cls-13" d="M10.76,12.7s.01.05-.03.08c-.04.03-.16.04-.16.04,0,0,.05-.02.06-.06,0-.04.13-.06.13-.06l-.09.05h.02l-.02.03.04-.02h0s0-.01,0-.01l.04-.03Z"/>
              </g>
              <g>
                <path class="cls-10" d="M11.21,13.21s-.02.07-.1.08c-.08.01-.18-.05-.19-.07.03,0,.08,0,.1-.02.02-.02.09-.07.19,0Z"/>
                <path class="cls-13" d="M11.19,13.22s-.01.05-.06.06c-.05,0-.16-.03-.16-.03,0,0,.06,0,.08-.03.02-.03.15,0,.15,0h-.1s.01.01.01.01h-.03s.05,0,.05,0h0s.01,0,.01,0h.05Z"/>
              </g>
              <g>
                <path class="cls-10" d="M11.07,13.16s-.07,0-.1-.08c-.03-.07,0-.18.01-.2.02.03.02.08.05.09.02.02.09.07.04.19Z"/>
                <path class="cls-13" d="M11.06,13.14s-.05,0-.07-.04c-.02-.04,0-.16,0-.16,0,0,.01.06.05.07.04.01.04.14.04.14l-.03-.1v.02s-.03-.03-.03-.03l.02.04h0,.02s.02.06.02.06Z"/>
              </g>
              <g>
                <path class="cls-10" d="M10.9,12.07s.04.06.12.06.16-.08.17-.11c-.03,0-.08.01-.11,0-.03-.01-.11-.05-.18.05Z"/>
                <path class="cls-13" d="M10.92,12.07s.02.05.07.05c.05,0,.15-.07.15-.07,0,0-.06.01-.09-.01-.03-.03-.14.03-.14.03l.1-.02h-.01s.03.02.03.02h-.05s0,.01,0,.01h-.02s-.05,0-.05,0Z"/>
              </g>
              <g>
                <path class="cls-10" d="M10.84,12.48s-.06-.04-.05-.12c.01-.08.1-.15.12-.16,0,.03-.02.08-.01.11.01.03.04.11-.06.18Z"/>
                <path class="cls-13" d="M10.84,12.45s-.04-.03-.04-.08c0-.05.08-.14.08-.14,0,0-.02.05,0,.09.02.03-.04.14-.04.14l.03-.1h-.01s0-.02,0-.02v.05s-.02,0-.02,0v.02s0,.05,0,.05Z"/>
              </g>
              <g>
                <path class="cls-10" d="M10.69,12.46s-.07,0-.1-.08c-.03-.07,0-.18.01-.2.02.03.02.07.05.09.02.02.09.07.04.18Z"/>
                <path class="cls-13" d="M10.67,12.44s-.05,0-.07-.04c-.02-.05,0-.16,0-.16,0,0,.01.06.05.07.04.01.04.14.04.14l-.03-.1v.02s-.02-.03-.02-.03l.02.04h-.01s.02,0,.02,0l.02.05Z"/>
              </g>
              <g>
                <path class="cls-10" d="M10.73,11.69s-.05-.01-.07-.06c-.02-.05.01-.13.02-.14,0,.02.01.05.03.07.01.02.06.06.02.13Z"/>
                <path class="cls-13" d="M10.72,11.67s-.04,0-.05-.04c-.01-.03,0-.11,0-.11,0,0,0,.04.03.05.03.01.02.1.02.1v-.07s-.02.01-.02.01v-.02s0,.03,0,.03h0,.01s.01.04.01.04Z"/>
              </g>
              <g>
                <path class="cls-10" d="M10.68,11.95s-.05,0-.08-.06c-.02-.05,0-.14.01-.15.01.02.02.06.04.07.02.01.07.05.03.14Z"/>
                <path class="cls-13" d="M10.67,11.93s-.04,0-.06-.03,0-.12,0-.12c0,0,.01.04.04.05.03.01.03.11.03.11l-.02-.07h0s-.02,0-.02,0v.03s0,0,0,0h.01s.01.04.01.04Z"/>
              </g>
              <g>
                <path class="cls-10" d="M10.7,11.79s-.07,0-.1-.08c-.03-.07,0-.18.01-.2.02.03.02.07.05.09.02.02.09.07.04.18Z"/>
                <path class="cls-13" d="M10.69,11.77s-.05,0-.07-.04c-.02-.04,0-.16,0-.16,0,0,.01.06.05.07.04.01.04.14.04.14l-.03-.1v.02s-.02-.03-.02-.03l.02.04h-.01.02s.02.06.02.06Z"/>
              </g>
              <g>
                <path class="cls-10" d="M10.79,12.69s0-.07-.04-.12-.15-.07-.15-.07c0,0,.02.09.06.14.04.05.14.06.14.06Z"/>
                <path class="cls-13" d="M10.77,12.67s0-.14-.16-.15c0,.05.07.16.15.16-.06-.05-.09-.08-.1-.11.04.03.06.05.06.05v-.03s.03.08.05.08Z"/>
              </g>
              <g>
                <path class="cls-10" d="M10.76,12.62s-.05-.05-.05-.12c0-.07.07-.16.07-.16,0,0,.05.08.05.14s-.07.13-.07.13Z"/>
                <path class="cls-13" d="M10.76,12.59s-.09-.11.02-.21c.02.04.05.17-.01.21.02-.07.01-.12.01-.15-.01.05-.01.08-.01.08l-.02-.02s.03.08.01.1Z"/>
              </g>
              <g>
                <path class="cls-10" d="M11.21,13.23s-.12-.09-.04-.24c.04.03.11.15.04.24Z"/>
                <path class="cls-13" d="M11.21,13.2s-.08-.08-.04-.19c.03.05.08.13.05.19-.03-.12-.04-.13-.04-.13l.02.13Z"/>
              </g>
              <g>
                <path class="cls-10" d="M11.08,13.17s-.07-.13.07-.24c.02.05.04.19-.07.24Z"/>
                <path class="cls-13" d="M11.09,13.14s-.04-.11.05-.19c0,.06.02.15-.04.19.02-.13.02-.13.02-.13l-.03.13Z"/>
              </g>
              <g>
                <path class="cls-10" d="M10.94,13s-.12-.09-.04-.24c.04.03.11.15.04.24Z"/>
                <path class="cls-13" d="M10.94,12.97s-.09-.08-.04-.19c.03.05.08.13.05.19-.03-.12-.04-.13-.04-.13l.03.13Z"/>
              </g>
              <g>
                <path class="cls-10" d="M10.87,12.91s-.15.04-.22-.12c.05-.01.19,0,.22.12Z"/>
                <path class="cls-13" d="M10.85,12.89s-.11.02-.17-.09c.06,0,.15.02.18.08-.12-.05-.12-.05-.12-.05l.12.06Z"/>
              </g>
              <g>
                <path class="cls-10" d="M10.77,11.5s.09-.12.24-.04c-.03.04-.15.11-.24.04Z"/>
                <path class="cls-13" d="M10.8,11.5s.08-.08.19-.04c-.05.03-.13.08-.19.05.12-.03.13-.03.13-.03l-.13.02Z"/>
              </g>
              <g>
                <path class="cls-10" d="M10.83,12.59s.09-.12.24-.04c-.03.04-.15.12-.24.04Z"/>
                <path class="cls-13" d="M10.86,12.58s.08-.08.19-.04c-.05.03-.13.08-.19.05.12-.03.13-.03.13-.03l-.13.02Z"/>
              </g>
              <g>
                <path class="cls-10" d="M10.77,11.53s0-.11.1-.15c.09-.04.15-.05.15-.05,0,0-.07.2-.25.2Z"/>
                <path class="cls-13" d="M10.8,11.51s.05,0,.07-.02c.03-.02.05-.04.06-.07.01-.02.03-.04.04-.06,0,0,0-.01,0-.01h0s-.09.03-.14.06c-.05.03-.06.1-.06.1h0l.07-.06.02-.04v.02s.04-.02.04-.02l-.12.11"/>
              </g>
              <g>
                <path class="cls-10" d="M10.76,11.54s-.05-.05-.05-.12.07-.16.07-.16c0,0,.05.08.05.14s-.07.13-.07.13Z"/>
                <path class="cls-13" d="M10.75,11.52s-.09-.11.02-.22c.02.04.05.17-.01.22.02-.07.01-.12,0-.15,0,.05-.01.08-.01.08l-.02-.02s.03.08.01.1Z"/>
              </g>
              <g>
                <path class="cls-10" d="M11.27,13.24s-.05-.05-.05-.12c0-.07.07-.16.07-.16,0,0,.04.08.04.14s-.07.13-.07.13Z"/>
                <path class="cls-13" d="M11.27,13.22s-.09-.11.02-.21c.02.04.05.17-.01.21.01-.07.01-.12.01-.15,0,.05-.01.08-.01.08l-.02-.02s.03.08.01.1Z"/>
              </g>
              <path class="cls-10" d="M10.66,12.27s-.01-.08-.03-.13c-.02-.05-.09-.11-.09-.11v-.02s.09.06.11.11c.02.05.04.13.04.14h-.02Z"/>
              <g>
                <path class="cls-10" d="M10.59,12.09s-.1-.05-.09-.15c0-.11.02-.16.02-.16,0,0,.15.15.07.31Z"/>
                <path class="cls-13" d="M10.58,12.05s.02-.05.01-.07c0-.03-.02-.06-.04-.09-.01-.02-.02-.04-.03-.06,0,0,0,0,0-.01h0s-.01.09,0,.15c0,.06.06.1.06.1h0l-.03-.09-.02-.03h.02s0-.04,0-.04l.04.15"/>
              </g>
              <g>
                <path class="cls-10" d="M10.49,11.97s-.07,0-.11-.08c-.03-.07,0-.18.02-.2.01.03.02.08.05.09s.09.07.04.18Z"/>
                <path class="cls-13" d="M10.48,11.94s-.05,0-.07-.04c-.02-.04,0-.16,0-.16,0,0,.01.05.05.07.04.01.04.14.04.14l-.03-.1v.02s-.03-.03-.03-.03l.02.04h-.01.02s.02.06.02.06Z"/>
              </g>
              <g>
                <path class="cls-10" d="M10.55,12.07s-.15.02-.21-.14c.05,0,.19.02.21.14Z"/>
                <path class="cls-13" d="M10.53,12.05s-.11,0-.16-.11c.06.01.15.03.17.1-.11-.06-.12-.06-.12-.06l.11.07Z"/>
              </g>
              <path class="cls-10" d="M10.7,12.47s0-.01,0-.02c0,0,0-.01,0-.02,0-.01,0-.02,0-.04,0-.01,0-.02,0-.04,0,0,0-.01,0-.02v-.02s.01-.02.02-.04c0,0,0-.01,0-.02,0,0,0-.01,0-.02,0-.01.01-.02.02-.03h0s0,0,0,0h0s0,0,0,0h0s0,0,0,0c0,0,0,0,0,0h0s0,0,0,0h0s0,0,0,0h0s0,0,0,0h0s.01-.01.01-.02h.01s.01-.03.01-.03c.02-.02.03-.04.05-.06.03-.04.06-.08.09-.12h0s-.05.09-.08.13c-.01.02-.03.04-.04.06v.02s-.02.01-.02.01c0,0,0,.01-.01.01h0s0,0,0,0h0s0,0,0,0h0s0,0,0,.01h0s0,0,0,0c0,0,0,0,0,0h0s0,0,0,0h0s-.01.03-.01.04c-.01.02-.02.05-.03.07v.03s-.02.02-.03.03c0,.02-.02.05-.03.07h0Z"/>
              <g>
                <path class="cls-10" d="M10.69,12.38s.07,0,.11-.08c.03-.07,0-.18-.01-.2-.02.03-.02.07-.05.09-.03.02-.09.07-.04.18Z"/>
                <path class="cls-13" d="M10.7,12.36s.05,0,.07-.04c.02-.04,0-.16,0-.16,0,0-.01.06-.05.07-.04.01-.04.14-.04.14l.03-.1v.02s.03-.03.03-.03l-.02.04h0-.02s-.02.06-.02.06Z"/>
              </g>
              <g>
                <path class="cls-10" d="M10.81,12.76s-.05-.05-.05-.12.07-.16.07-.16c0,0,.04.08.04.14s-.07.13-.07.13Z"/>
                <path class="cls-13" d="M10.81,12.73s-.09-.11.02-.21c.02.04.05.17-.01.21.01-.07.01-.12.01-.15,0,.05-.01.08-.01.08l-.02-.02s.03.08.01.1Z"/>
              </g>
              <g>
                <path class="cls-10" d="M10.94,12.04s-.02-.15.13-.21c0,.05-.02.19-.13.21Z"/>
                <path class="cls-13" d="M10.96,12.01s-.01-.11.1-.16c-.01.06-.03.15-.09.17.06-.12.06-.12.06-.12l-.07.11Z"/>
              </g>
            </g>
            <path class="cls-5" d="M12.32,13.63s0,.01,0,.02c-.01.01-.03,0-.04,0,0,0-.01-.01-.01-.02,0-.01.02-.02.03-.02.01,0,.03.01.03.03Z"/>
          </g>
          <path class="cls-2" d="M12.5,13.24s0,.01.02.02c0-.01.02-.03.03-.06,0,0,0,.01.01.01,0,0,0,0,0,0,0,.03.02.04.02.04h.01s.01.02.02.03c0,0,0-.02.01-.03.08,0,.24-.01.29.01-.03-.02-.09-.03-.15-.04.08,0,.17,0,.21.01-.04-.02-.12-.04-.2-.05.08,0,.2,0,.24.01-.03-.01-.07-.03-.12-.04.13,0,.31,0,.37.02-.07-.04-.21-.06-.34-.08.14,0,.34-.01.41.02-.07-.04-.22-.07-.35-.08.12-.06.31-.14.38-.14-.05,0-.13,0-.21.02,0,0,0,0,0,0,.2-.07.47-.19.53-.26-.11.07-.32.14-.48.18,0,0,0,0,0-.01.1-.05.22-.13.32-.2,0,0,.01.02.02.03,0-.02,0-.03,0-.05.08-.06.15-.12.17-.16-.04.04-.1.08-.17.12-.01-.09-.07-.07-.18-.01,0,0,0,0,0,0v-.02h0s0,0,0,0h0s.06-.08.09-.11c.12-.11.14-.05.18.03.02-.19-.05-.17-.18-.1-.03.01-.06.04-.09.06,0-.02.01-.05.02-.07.09-.06.21-.13.26-.15-.06,0-.15.05-.24.09.07-.15.2-.22.25-.26-.07,0-.12.03-.17.07.06-.07.14-.12.17-.14-.09,0-.16.05-.21.11-.03.02-.06.06-.09.1,0,0,0,0,0-.01.05-.09.13-.21.19-.29.02.01.04.05.06.09.02-.19-.05-.17-.18-.1-.02.01-.04.02-.06.04.05-.08.11-.17.16-.21-.05.02-.15.13-.23.24,0-.01-.01-.05-.01-.08.06-.11.14-.22.2-.28-.02.01-.06.04-.1.09.05-.08.11-.16.16-.21-.04.02-.1.08-.16.15-.02-.04-.04-.05-.06-.05.02-.05.04-.09.05-.11-.03.03-.08.11-.12.18,0,0,0,0,0,0,0,0,0,0,0,.01-.02.04-.04.09-.06.13,0,0-.01-.01-.02-.01.02-.07.1-.31.15-.37-.04.04-.09.13-.13.21.03-.1.08-.23.11-.27-.04.05-.1.15-.14.24,0-.1.02-.23.04-.28-.03.05-.06.17-.08.27-.03-.1-.06-.23-.06-.28-.01.07,0,.21.03.32-.01-.02-.02-.05-.03-.07-.03-.1-.06-.23-.06-.28,0,.04,0,.1,0,.16-.05-.1-.11-.21-.16-.25.07.1.13.27.15.36-.03-.05-.06-.1-.09-.13.01.02.02.04.04.06-.04-.06-.07-.12-.11-.15.03.03.07.12.11.2-.03-.05-.06-.09-.08-.12.03.05.06.12.09.18-.09-.06-.19-.13-.25-.15.1.05.21.15.28.22h0c-.05-.03-.11-.06-.14-.07.05.02.11.06.16.11,0,.01,0,.03.01.04-.09-.06-.19-.12-.25-.14.06.03.14.09.2.14-.09-.05-.19-.09-.24-.11.15.08.34.27.34.27h0s0,.03,0,.04h-.03c-.08-.09-.18-.17-.24-.2.06.04.12.11.17.16-.08-.03-.17-.05-.21-.06.08.02.18.07.26.11.02.03.05.06.06.08,0,.04,0,.07,0,.11-.04-.08-.09-.16-.13-.2.04.06.08.14.11.22,0,0,0,0-.01,0-.05-.09-.1-.17-.14-.21.04.05.07.13.1.2-.06-.02-.12-.03-.16-.03.05.01.11.03.17.06.04.09.06.18.06.18,0,0,.01,0,.04.02,0,.02-.01.03-.02.05,0-.01,0-.03,0-.04-.05-.14-.08-.2-.2-.05.09-.03.15-.05.16.11,0,.05,0,.11-.02.16-.05-.09-.11-.19-.15-.24.05.08.1.21.13.29,0,.02-.01.04-.02.06,0-.03,0-.06-.02-.09-.06-.22-.18-.04-.19-.02,0,0,0-.02-.01-.02.03.04.04.16.05.27-.03.11-.09.25-.12.29,0,0,0,0,0,0,.04-.09.11-.32.1-.43,0,.05-.04.16-.08.25,0-.03,0-.06,0-.08h0s-.03.09-.06.16c.01-.05.02-.1.02-.13,0,.04-.05.15-.09.22.02-.07.04-.14.04-.18,0,.04-.05.14-.09.22.03-.09.06-.2.05-.26,0,.08-.12.3-.17.38-.09.03-.2.08-.27.11-.07.03-.14.06-.21.09-.11.04-.22.09-.33.14-.01,0-.03.01-.03.03,0,.01,0,.02.02.03.03.02.08-.02.1-.03.11-.07.23-.1.34-.16,0,0,.2-.1.38-.16,0,0,.06-.03.07-.06ZM13.41,11.94c.05-.05.09-.06.11-.06-.06.05-.14.15-.2.24,0-.01-.01-.03-.02-.04.03-.05.07-.1.11-.14ZM13.35,12.62c.08-.08.12-.07.15-.03-.07.04-.16.09-.23.12.02-.03.05-.07.08-.09ZM13.27,11.68c.02-.09.05-.08.09-.06-.04.04-.07.08-.1.13,0-.02,0-.05,0-.07ZM12.89,12.9c-.02-.12-.06-.26-.1-.34.21-.18.13.22.1.34Z"/>
          <path class="cls-6" d="M13.21,12.88c.08-.05.19-.11.27-.18,0,0,0,.02.01.03,0-.01,0-.03,0-.04.07-.05.13-.1.15-.14-.04.03-.09.07-.15.11,0-.08-.06-.06-.15-.01,0,0,0,0,0,0v-.02s0,0,0,0h0s.05-.07.07-.09c.1-.09.12-.04.16.03.02-.16-.04-.14-.15-.08-.02.01-.05.03-.07.06,0-.02,0-.04.02-.06.07-.05.18-.12.22-.13-.05,0-.13.04-.2.08.06-.13.17-.19.21-.22-.06,0-.11.03-.15.06.06-.06.12-.1.15-.12-.08,0-.14.05-.18.1-.02.02-.05.05-.08.08,0,0,0,0,0-.01.04-.07.11-.18.16-.25.02.01.03.04.05.07.02-.16-.04-.14-.15-.08-.02,0-.03.02-.05.04.05-.07.1-.14.14-.18-.04.02-.13.11-.2.21,0-.01,0-.04-.01-.07.05-.09.12-.19.18-.24-.02.01-.05.04-.09.07.05-.07.1-.14.14-.18-.03.01-.08.07-.14.13-.02-.03-.04-.04-.05-.04.02-.04.03-.07.05-.09-.03.03-.07.09-.1.15,0,0,0,0,0,0s0,0,0,.01c-.02.04-.04.07-.05.11,0,0-.01,0-.02-.01.02-.06.09-.26.13-.32-.03.04-.08.11-.11.18.03-.08.07-.19.09-.23-.04.04-.08.13-.12.21,0-.09.02-.2.04-.24-.03.05-.05.14-.07.23-.02-.08-.05-.19-.05-.24-.01.06,0,.18.02.27,0-.02-.02-.04-.02-.06-.02-.08-.05-.2-.05-.24,0,.03,0,.08,0,.14-.04-.08-.1-.18-.14-.22.06.08.11.23.13.3-.03-.05-.05-.09-.07-.11.01.02.02.03.03.05-.03-.05-.06-.1-.09-.12.02.03.06.1.09.17-.03-.04-.05-.08-.07-.1.03.04.06.1.08.16-.08-.05-.17-.11-.22-.13.08.04.18.13.24.19h0s-.09-.05-.12-.06c.04.02.09.06.13.09,0,.01,0,.02.01.03-.08-.05-.16-.11-.21-.12.05.03.12.08.17.12-.07-.04-.16-.08-.21-.09.13.06.29.24.29.24h0s0,.02,0,.03c0,0-.02,0-.02-.01-.07-.07-.15-.14-.2-.16.05.04.1.09.15.14-.07-.02-.14-.05-.19-.05.07.02.16.06.22.09.02.03.04.05.05.07,0,.03,0,.06,0,.09-.04-.07-.08-.14-.11-.17.03.05.07.12.09.19,0,0,0,0,0,0-.04-.07-.08-.15-.12-.18.03.05.06.11.09.17-.05-.01-.11-.03-.14-.03.05.01.1.03.15.05.03.08.05.15.05.15,0,0,.01,0,.03.02,0,.02-.01.03-.02.04,0-.01,0-.02,0-.03-.04-.12-.06-.17-.17-.05.08-.02.13-.05.13.09,0,.04,0,.09-.02.14-.04-.08-.09-.17-.13-.2.05.07.09.18.12.25,0,.02-.01.03-.02.05,0-.02,0-.05-.01-.08-.05-.19-.16-.03-.16-.02,0,0,0-.01-.01-.02.02.04.03.14.04.23-.03.09-.08.22-.1.25h0c.03-.07.09-.28.09-.37,0,.04-.03.14-.06.21,0-.02,0-.05,0-.07h0s-.03.08-.05.13c.01-.04.02-.09.02-.11,0,.04-.04.13-.08.19.02-.06.03-.12.03-.16,0,.04-.04.12-.08.19.03-.08.05-.17.05-.22,0,.08-.16.35-.16.35,0,0,0,.02.03.04.01-.01.02-.04.04-.08,0,0,.01.01.02.02,0-.01.02-.03.03-.05,0,0,0,.01.01.01h0s.02.04.02.04h0s.01.02.02.02c0,0,0-.02.01-.03.07,0,.21-.01.25.01-.03-.02-.08-.03-.13-.04.07,0,.15,0,.18.01-.03-.02-.1-.03-.17-.04.07,0,.17,0,.21.01-.02-.01-.06-.02-.11-.03.12,0,.26,0,.31.02-.06-.03-.18-.05-.29-.07.12,0,.29,0,.35.02-.06-.03-.19-.06-.3-.07.11-.05.27-.12.33-.12-.04,0-.11,0-.18.02,0,0,0,0,0,0,.18-.06.4-.17.45-.23-.09.06-.27.12-.42.15,0,0,0,0,0,0ZM13.39,12.12s.07-.05.09-.05c-.05.04-.12.13-.17.2,0-.01-.01-.02-.02-.04.03-.04.06-.09.09-.12ZM13.34,12.71c.07-.06.1-.06.13-.02-.06.04-.13.07-.2.1.02-.03.04-.06.07-.08ZM13.27,11.9c.02-.08.04-.07.08-.05-.03.04-.06.07-.09.11,0-.02,0-.04,0-.06ZM12.94,12.95c-.02-.11-.05-.23-.09-.29.18-.15.11.18.09.29Z"/>
          <path class="cls-13" d="M13.14,12.92c.08-.03.17-.08.25-.13,0,0,0,.01.01.02,0-.01,0-.02,0-.03.06-.04.12-.08.13-.11-.03.02-.08.05-.13.08,0-.07-.05-.05-.13-.02,0,0,0,0,0,0,0,0,0-.01,0-.01h0s.05-.05.07-.07c.09-.07.11-.02.13.04.03-.13-.02-.12-.12-.08-.02,0-.04.02-.07.04,0-.02,0-.03.02-.05.07-.04.16-.08.2-.09-.04,0-.12.02-.18.05.06-.1.16-.15.2-.17-.05,0-.09.01-.13.04.05-.05.11-.08.14-.09-.07,0-.12.03-.17.06-.02.02-.05.04-.07.06,0,0,0,0,0,0,.04-.06.11-.15.16-.2.02.01.03.04.04.07.03-.14-.02-.13-.12-.09-.02,0-.03.02-.05.03.04-.06.09-.11.14-.14-.04.01-.12.08-.19.16,0-.01,0-.03,0-.06.05-.07.12-.15.17-.19-.02,0-.05.03-.08.06.04-.06.09-.11.13-.14-.03.01-.08.05-.13.1-.01-.03-.03-.04-.04-.04.02-.03.03-.06.05-.07-.03.02-.06.07-.1.12,0,0,0,0,0,0,0,0,0,0,0,0-.02.03-.04.06-.05.08,0,0,0,0-.01-.01.02-.05.1-.22.14-.26-.03.03-.07.08-.11.14.03-.07.07-.16.1-.19-.03.03-.08.1-.12.16.01-.07.03-.17.05-.2-.03.04-.06.12-.08.19-.01-.07-.03-.17-.02-.21-.01.05-.01.15,0,.23,0-.02-.01-.04-.01-.05-.01-.07-.03-.17-.02-.21,0,.03-.01.07-.01.12-.03-.08-.07-.16-.09-.2.04.08.07.21.08.27-.02-.04-.04-.08-.05-.1,0,.01.01.03.02.05-.02-.05-.05-.09-.07-.11.02.02.04.09.06.16-.02-.04-.04-.07-.05-.09.02.04.04.09.05.14-.06-.05-.13-.11-.17-.13.07.04.14.13.19.18h0s-.07-.05-.1-.06c.04.02.07.05.11.09,0,.01,0,.02,0,.03-.06-.05-.13-.11-.17-.12.05.03.09.07.14.12-.06-.04-.13-.08-.17-.1.1.06.23.22.23.22,0,0,0,0,0,0v.03s-.01,0-.02-.01c-.05-.06-.12-.13-.16-.16.04.03.08.08.11.13-.06-.03-.12-.05-.15-.06.06.02.13.06.18.1.02.02.03.05.04.06,0,.03,0,.05,0,.08-.03-.06-.06-.13-.08-.16.02.05.05.11.06.17,0,0,0,0,0,0-.03-.07-.06-.14-.08-.17.02.04.04.1.06.16-.05-.02-.09-.03-.12-.04.04.01.08.03.12.05.02.07.03.13.03.13,0,0,0,0,.02.02,0,.01-.01.02-.02.03,0-.01,0-.02,0-.03-.02-.11-.04-.15-.14-.05.07-.01.11-.03.11.09,0,.03-.01.07-.02.12-.03-.07-.06-.15-.09-.19.03.06.06.16.08.23,0,.01-.01.03-.02.04,0-.02,0-.05,0-.07-.02-.16-.13-.04-.14-.03,0,0,0-.01-.01-.02.02.03.02.12.02.2-.03.07-.09.18-.11.21h0c.03-.06.1-.23.1-.3,0,.03-.04.11-.07.18,0-.02,0-.04,0-.06h0s-.03.06-.06.11c.01-.04.02-.07.02-.09,0,.03-.05.11-.08.16.02-.05.04-.1.04-.13,0,.03-.04.1-.08.15.03-.07.06-.14.06-.18,0,.07-.16.28-.16.28,0,0,0,.02.02.04.01-.01.02-.03.04-.06,0,0,0,.01.01.02,0-.01.02-.02.03-.04,0,0,0,0,0,.01h0s.01.03.01.03h0s0,.01.01.02c0,0,0-.01.01-.02.06,0,.18.01.21.03-.02-.02-.06-.03-.11-.04.06,0,.13.01.15.02-.03-.02-.08-.04-.14-.05.06,0,.15.01.18.03-.02-.01-.05-.02-.09-.03.1,0,.22.02.27.04-.05-.03-.15-.06-.24-.08.1,0,.25.02.3.04-.05-.04-.16-.07-.25-.08.1-.03.24-.08.29-.07-.04,0-.09,0-.16,0,0,0,0,0,0,0,.15-.04.35-.11.4-.16-.08.04-.24.08-.37.1,0,0,0,0,0,0ZM13.36,12.28s.07-.04.09-.03c-.05.03-.11.1-.16.16,0-.01,0-.02-.01-.03.03-.04.06-.07.09-.09ZM13.26,12.77c.07-.05.09-.04.11,0-.06.03-.12.05-.18.07.02-.02.04-.05.06-.06ZM13.28,12.08c.02-.06.04-.06.07-.04-.03.03-.06.06-.08.09,0-.02,0-.04.01-.05ZM12.91,12.95c0-.09-.02-.2-.05-.26.17-.12.08.17.05.26Z"/>
          <path class="cls-5" d="M11.6,13.63s0,.01,0,.02c0,.01.03,0,.04,0,0,0,.01-.01.01-.02,0-.01-.02-.02-.03-.02-.01,0-.03.01-.03.03Z"/>
        </g>
        <g>
          <g>
            <g>
              <path class="cls-9" d="M12.11,11.81v-.73h-.3v.73h-.57v.3h.57v.75c.06.02.11.05.15.1.03-.03.06-.06.11-.08.01,0,.03-.01.05-.02v-.75h.57v-.3h-.57Z"/>
              <path class="cls-8" d="M12.88,11.07l-.09.08c-.07.06-.1.15-.1.24v.41h-.57v-.73h.76Z"/>
              <path class="cls-8" d="M11.81,12.11v.75s-.05-.01-.08-.01h-.2c-.16,0-.29-.13-.29-.29v-.45h.57Z"/>
              <path class="cls-14" d="M12.68,12.11v.45c0,.16-.13.29-.29.29h-.2s-.06,0-.08.01v-.75h.57Z"/>
              <path class="cls-14" d="M11.81,11.07v.73h-.57v-.41c0-.09-.04-.18-.11-.24l-.09-.08h.76Z"/>
            </g>
            <path class="cls-3" d="M12.11,11.07h-1.09l.1.09c.06.06.1.14.1.23v1.16c0,.08.03.15.09.21.06.06.13.09.21.09h.2s.05,0,.08.01h0c.06.02.11.05.15.1h0s0,0,0,0c.03-.03.06-.06.1-.08.01,0,.03-.01.05-.02v-.02s-.04.01-.05.02c-.04.02-.07.04-.1.08-.04-.04-.09-.08-.15-.09h0s0,0,0,0c-.03,0-.06-.01-.09-.01h-.2c-.15,0-.28-.13-.28-.28v-1.16c0-.09-.04-.18-.11-.24l-.07-.07h1.79l-.07.07c-.07.06-.11.15-.11.24v1.16c0,.15-.13.28-.28.28h-.2s-.06,0-.09.01v.02s.06-.01.09-.01h.2c.08,0,.15-.03.21-.09.05-.05.08-.13.08-.21v-1.16c0-.09.04-.17.1-.23l.1-.09h-.78Z"/>
          </g>
          <g>
            <g>
              <g>
                <g>
                  <path class="cls-9" d="M11.77,12.21s0,0,0,0l.03-.48-.1-.12-.04.52c-.08-.08-.19-.2-.23-.25,0,.05,0,.1,0,.15.04.06.09.11.14.16.03.03.05.06.09.08,0,.04,0,.12.06.14.04.02.1,0,.14-.02,0-.01.01-.02.02-.03,0,0,0,0,0,0-.11.03-.12-.04-.12-.05.06,0,.13-.06.17-.11v-.06c-.06.06-.09.09-.16.07Z"/>
                  <path class="cls-8" d="M11.85,12.4s-.04.07-.07.1c-.05.05-.14.07-.21.04-.09-.03-.15-.12-.16-.21,0-.01,0-.03,0-.04,0-.01,0-.12.02-.26.04.06.09.11.14.16.03.03.05.06.09.08,0,.04,0,.12.06.14.04.02.1,0,.14-.02Z"/>
                  <path class="cls-8" d="M11.95,11.91l-.02.23c-.06.06-.09.09-.17.07,0,0,0,0,0,0l.03-.48.16.18Z"/>
                  <path class="cls-14" d="M11.93,12.2h0c-.02.06-.03.11-.06.16-.11.03-.12-.04-.12-.05.06,0,.13-.06.17-.11Z"/>
                  <path class="cls-14" d="M11.69,11.61l-.04.52c-.08-.08-.19-.2-.23-.25.02-.26.03-.55.03-.55l.23.27Z"/>
                </g>
                <path class="cls-3" d="M11.62,12.56s-.03,0-.05-.01c-.09-.03-.16-.12-.17-.22,0-.01,0-.03,0-.04,0-.02,0-.15.02-.26,0-.05,0-.09,0-.15h0c.02-.26.04-.55.04-.55v-.02l.49.59-.02.31h0c-.02.06-.04.11-.06.15,0,0,0,0,0,0,0,.01-.01.02-.02.04-.02.03-.04.07-.08.1-.04.04-.11.06-.16.05ZM11.47,11.36c0,.07-.02.31-.03.53h0s0,.1,0,.14c0,.11-.02.24-.02.26,0,.01,0,.03,0,.04,0,.09.07.17.15.21.02,0,.03,0,.05.01.05,0,.11-.01.15-.05.03-.03.05-.07.07-.1,0-.01.01-.02.02-.03,0,0,0,0,0,0,.02-.05.04-.09.06-.15l.02-.3-.46-.55Z"/>
              </g>
              <g>
                <path class="cls-12" d="M11.44,11.27l.44.53h-.02s-.44-.51-.44-.51c0,0,0,0,.01,0,0,0,0,0,0-.01Z"/>
                <path class="cls-12" d="M11.44,11.26s0,0,0,.01,0,0,0,.01c0,0-.02,0-.02,0,0,0,0-.01,0-.02,0,0,.01,0,.01,0h0s0,0,0,0Z"/>
                <path class="cls-12" d="M11.43,11.22s0,.03,0,.03c0,0,0,0,0,0l-.08-.11s.08.06.09.07Z"/>
                <path class="cls-12" d="M11.33,11.16l.08.11h0s-.03,0-.04,0l-.04-.11Z"/>
                <path class="cls-3" d="M11.87,11.82h.02s-.44-.54-.44-.54c0,0,0,0,0,.01,0,0,0,0-.01,0l.44.53ZM11.43,11.22s-.07-.05-.09-.07l.08.11s0,0,0,0c0,0,0-.03,0-.03ZM11.41,11.27h0s-.08-.11-.08-.11l.04.11s.02,0,.04,0ZM11.41,11.29s0,0,0,0c0,0,0-.01,0-.02-.02,0-.04,0-.04,0h0l-.05-.12h0s.09.06.1.07h0s0,.02,0,.03c0,0,0,0,0,0,0,0,0,0,0,0,0,0,0,0,0,.01h0s.45.53.45.53l-.02.02-.45-.53h0ZM11.41,11.29s.01,0,.02,0c0,0,0,0,0-.01s0,0,0-.01,0,0,0,0h0s-.01,0-.01,0c0,0-.01.02,0,.02Z"/>
              </g>
              <g>
                <path class="cls-12" d="M11.58,11.25l.35.59h-.02s-.35-.58-.35-.58c0,0,0,0,.01,0s0,0,0,0Z"/>
                <path class="cls-12" d="M11.58,11.24s0,0,0,.01,0,0-.01.01c-.01,0-.02,0-.02,0s0-.01.01-.02c0,0,0,0,.01,0h0s0,0,0,0Z"/>
                <path class="cls-12" d="M11.57,11.2s-.01.02-.01.03c0,0,0,0,0,0l-.06-.12s.07.07.08.08Z"/>
                <path class="cls-12" d="M11.49,11.12l.06.12s0,0,0,0c-.02-.01-.03,0-.04,0l-.02-.11Z"/>
                <path class="cls-3" d="M11.91,11.86h.02s-.35-.61-.35-.61c0,0,0,0,0,0s0,0-.01,0l.35.59ZM11.57,11.2s-.06-.06-.08-.08l.06.12s0,0,0,0c0,0,0-.03.01-.03ZM11.55,11.24s0,0,0,0l-.06-.12.02.11s.02,0,.04,0ZM11.55,11.26s0,0,0,0,0-.01,0-.02c-.02-.01-.04,0-.04,0h0l-.03-.13h0s.07.08.09.09h0,0s-.01.02-.01.03c0,0,0,0,0,0,0,0,0,0,0,0s0,0,0,.01h0s.35.6.35.6h-.02s-.35-.58-.35-.58h0ZM11.54,11.26s.01,0,.02,0c0,0,0,0,.01-.01s0,0,0-.01c0,0,0,0,0,0h0s-.01,0-.01,0c-.01,0-.02.01-.01.02Z"/>
              </g>
              <g>
                <g>
                  <path class="cls-9" d="M11.75,12.28h0v-.48l-.11-.11v.53c-.09-.07-.2-.19-.24-.23v.15c.05.05.1.1.15.15.03.03.06.05.09.08,0,.04.01.12.07.14.05.02.1,0,.13-.03,0-.01.01-.02.02-.04,0,0,0,0,0,0-.11.04-.12-.04-.12-.05.06-.01.12-.07.17-.12v-.06c-.06.06-.09.1-.16.08Z"/>
                  <path class="cls-8" d="M11.85,12.47s-.04.08-.07.11c-.05.05-.14.07-.2.05-.09-.03-.16-.11-.17-.2,0-.01,0-.03,0-.04v-.26c.05.05.1.1.15.15.03.03.06.05.09.08,0,.04.01.12.07.14.05.02.1,0,.13-.03Z"/>
                  <path class="cls-8" d="M11.92,11.97v.23c-.06.06-.09.1-.16.08h0v-.48l.17.17Z"/>
                  <path class="cls-14" d="M11.92,12.26h0c-.01.06-.03.12-.05.17-.11.04-.12-.04-.12-.05.06-.01.12-.07.17-.12Z"/>
                  <path class="cls-14" d="M11.64,11.68v.53c-.09-.07-.2-.19-.24-.23,0-.26,0-.55,0-.55l.24.25Z"/>
                </g>
                <path class="cls-3" d="M11.63,12.64s-.04,0-.05,0c-.09-.03-.17-.11-.18-.21,0-.01,0-.03,0-.04v-.41h0c0-.26,0-.55,0-.55v-.02l.53.55v.31h0c-.01.06-.03.11-.05.16,0,0,0,0,0,0,0,.01-.01.02-.01.03-.02.04-.04.08-.07.11-.04.04-.1.06-.16.06ZM11.41,11.45c0,.07,0,.31,0,.53h0c0,.05,0,.1,0,.15v.26s0,.03,0,.04c.01.09.08.17.17.2.02,0,.03,0,.05,0,.05,0,.11-.02.15-.06.03-.03.05-.07.06-.11,0-.01.01-.02.02-.03,0,0,0,0,0,0,.02-.05.03-.1.05-.15v-.3l-.5-.52Z"/>
              </g>
              <g>
                <path class="cls-12" d="M11.4,11.41l.48.49-.02.02-.48-.49s0,0,.01,0c0,0,0,0,0,0Z"/>
                <path class="cls-12" d="M11.4,11.39s0,0,0,.01,0,.01,0,.01c0,0-.02.01-.02,0,0,0,0-.02,0-.02,0,0,0,0,.01,0,0,0,0,0,0,0,0,0,0,0,0,0Z"/>
                <path class="cls-12" d="M11.38,11.36s0,.03,0,.03h0s-.09-.09-.09-.09c.02.01.08.05.1.06Z"/>
                <path class="cls-12" d="M11.28,11.3l.09.1h0s-.03,0-.04,0l-.05-.11Z"/>
                <path class="cls-3" d="M11.86,11.92l.02-.02-.48-.49s0,0,0,0c0,0,0,0-.01,0l.48.49ZM11.38,11.36s-.08-.05-.1-.06l.09.1h0s0-.03,0-.04ZM11.37,11.4h0s-.09-.1-.09-.1l.05.11s.02-.01.04,0ZM11.38,11.42s0,0,0,0c0,0,0-.01,0-.02-.02,0-.04,0-.04,0h0l-.05-.12h0s.09.06.11.06h0s0,0,0,0c-.01,0,0,.02,0,.03,0,0,0,0,0,0,0,0,0,0,.01,0,0,0,0,0,0,.01h0s.48.5.48.5l-.02.02-.48-.5s0,0,0,0ZM11.37,11.42s.01,0,.02,0c0,0,0-.01,0-.01s0,0,0-.01c0,0,0,0,0,0,0,0,0,0,0,0,0,0,0,0-.01,0,0,0-.01.02,0,.02Z"/>
              </g>
            </g>
            <g>
              <g>
                <g>
                  <path class="cls-9" d="M12.16,12.21s0,0,0,0l-.03-.48.1-.12.03.52c.08-.08.19-.2.23-.25,0,.05,0,.1.01.15-.05.06-.09.11-.14.16-.03.03-.05.06-.09.08,0,.04,0,.12-.06.14-.05.02-.1,0-.14-.02,0-.01-.01-.02-.02-.03,0,0,0,0,0,0,.11.03.11-.04.11-.05-.06,0-.13-.06-.17-.11v-.06c.06.06.09.09.16.07Z"/>
                  <path class="cls-8" d="M12.07,12.4s.04.07.07.1c.05.05.14.07.21.04.09-.03.15-.12.16-.21,0-.01,0-.03,0-.04,0-.01,0-.12-.02-.26-.05.06-.09.11-.14.16-.03.03-.05.06-.09.08,0,.04,0,.12-.06.14-.05.02-.1,0-.14-.02Z"/>
                  <path class="cls-8" d="M11.98,11.91v.23c.08.06.11.09.18.07,0,0,0,0,0,0l-.03-.48-.16.18Z"/>
                  <path class="cls-14" d="M12,12.2h0c.02.06.03.11.06.16.11.03.11-.04.11-.05-.06,0-.13-.06-.17-.11Z"/>
                  <path class="cls-14" d="M12.23,11.61l.03.52c.08-.08.19-.2.23-.25-.02-.26-.03-.55-.03-.55l-.23.27Z"/>
                </g>
                <path class="cls-3" d="M12.14,12.51s-.06-.07-.08-.1c0-.01-.01-.02-.02-.04,0,0,0,0,0,0-.02-.05-.04-.09-.06-.15h0s-.02-.31-.02-.31l.49-.59v.02s.02.29.03.55h0c0,.05,0,.1.01.15,0,.11.01.24.02.26v.04c0,.1-.07.19-.17.22-.02,0-.03.01-.05.01-.06,0-.12-.02-.16-.05ZM11.98,11.91l.02.3c.02.05.03.1.06.15,0,0,0,0,0,0,0,.01.01.02.02.03.02.03.04.07.07.1.04.04.1.05.15.05.02,0,.03,0,.05-.01.09-.03.15-.11.16-.21,0-.01,0-.03,0-.04,0-.02-.01-.15-.02-.26,0-.04,0-.09-.01-.14h0c-.01-.22-.03-.46-.03-.53l-.46.55Z"/>
              </g>
              <g>
                <path class="cls-12" d="M12.48,11.27l-.45.53h.02s.44-.51.44-.51c0,0,0,0-.01,0,0,0,0,0,0-.01Z"/>
                <path class="cls-12" d="M12.48,11.26s0,0,0,.01c0,0,0,0,0,.01,0,0,.02,0,.02,0,0,0,0-.01,0-.02,0,0,0,0-.01,0h0s0,0,0,0Z"/>
                <path class="cls-12" d="M12.5,11.22s0,.03,0,.03c0,0,0,0,0,0l.08-.11s-.08.06-.09.07Z"/>
                <path class="cls-12" d="M12.59,11.16l-.08.11s0,0,0,0c.02,0,.03,0,.04,0l.04-.11Z"/>
                <path class="cls-3" d="M12.5,11.29s0,0-.01,0c0,0,0,0,0-.01l-.45.53h.02s.44-.51.44-.51ZM12.5,11.26s0,0,0,0l.08-.11s-.08.06-.09.07c.01,0,0,.03,0,.03ZM12.55,11.27l.04-.11-.08.11s0,0,0,0c.02,0,.03,0,.04,0ZM12.5,11.29l-.45.53-.02-.02.45-.53h0s0-.01,0-.01c0,0,0,0,.01,0,0,0,0,0,0,0,0-.01,0-.03,0-.03h0,0s.1-.07.1-.07h0s-.05.12-.05.12h0s-.02,0-.04,0c0,0,0,.02,0,.02,0,0,0,0,0,0h0ZM12.51,11.26s0,0-.01,0h0s0,0,0,0,0,0,0,.01c0,0,0,0,0,.01,0,0,.02,0,.02,0,0,0,0-.01,0-.02Z"/>
              </g>
              <g>
                <path class="cls-12" d="M12.35,11.25l-.35.59h.02s.35-.58.35-.58c0,0,0,0-.01,0,0,0,0,0-.01,0Z"/>
                <path class="cls-12" d="M12.35,11.24s0,0,0,.01,0,0,.01.01c.01,0,.02,0,.02,0,0,0,0-.01-.01-.02,0,0,0,0-.01,0h0s0,0,0,0Z"/>
                <path class="cls-12" d="M12.35,11.2s.01.02.01.03c0,0,0,0,0,0l.06-.12s-.07.07-.08.08Z"/>
                <path class="cls-12" d="M12.43,11.12l-.06.12s0,0,0,0c.01-.01.03,0,.04,0l.02-.11Z"/>
                <path class="cls-3" d="M12.37,11.26s0,0-.01,0c0,0,0,0-.01,0l-.35.59h.02s.35-.58.35-.58ZM12.36,11.23s0,0,0,0l.06-.12s-.07.07-.08.08c.01,0,.01.02.01.03ZM12.41,11.23l.02-.11-.06.12s0,0,0,0c.01-.01.03,0,.04,0ZM12.37,11.26l-.35.6h-.02s.35-.61.35-.61c0,0,0,0,0,0,0,0,0,0,0-.01s0,0,.01,0c0,0,0,0,0,0,0-.01,0-.03-.01-.03h0s.09-.09.09-.09h0s-.03.12-.03.12h0s-.02,0-.03,0c0,0,0,.01,0,.02s0,0,0,0h0ZM12.37,11.24s0,0-.01,0h0s0,0,0,0c0,0,0,0,0,.01s0,0,.01.01c.01,0,.02,0,.02,0,0,0,0-.01-.01-.02Z"/>
              </g>
              <g>
                <g>
                  <path class="cls-9" d="M12.17,12.28h0v-.48l.11-.11v.53c.09-.07.2-.19.24-.23v.15c-.05.05-.1.1-.15.15-.03.03-.06.05-.09.08,0,.04-.01.12-.07.14-.05.02-.09,0-.13-.03,0-.01-.01-.02-.02-.04,0,0,0,0,0,0,.11.04.12-.04.12-.05-.06-.01-.12-.07-.17-.12v-.06c.06.06.09.1.16.08Z"/>
                  <path class="cls-8" d="M12.07,12.47s.04.08.07.11c.05.05.14.07.2.05.09-.03.16-.11.17-.2,0-.01,0-.03,0-.04,0-.01,0-.12,0-.26-.05.05-.1.1-.15.15-.03.03-.06.05-.09.08,0,.04-.01.12-.07.14-.05.02-.09,0-.13-.03Z"/>
                  <path class="cls-8" d="M12.01,11.97v.23c.06.06.09.1.16.08h0v-.48l-.17.17Z"/>
                  <path class="cls-14" d="M12.01,12.26h0c.01.06.03.12.05.17.11.04.12-.04.12-.05-.06-.01-.12-.07-.17-.12Z"/>
                  <path class="cls-14" d="M12.28,11.68v.53c.09-.07.2-.19.24-.23,0-.26,0-.55,0-.55l-.24.25Z"/>
                </g>
                <path class="cls-3" d="M12.13,12.58s-.05-.07-.07-.11c0-.01,0-.02-.01-.03,0,0,0,0,0,0-.02-.05-.04-.1-.05-.16h0v-.31l.53-.55v.02s0,.29,0,.55h0v.15c0,.11,0,.24,0,.26,0,.01,0,.03,0,.04-.01.1-.08.18-.18.21-.02,0-.03,0-.05,0-.06,0-.12-.02-.16-.06ZM12.01,11.97v.3c.01.05.03.11.05.15,0,0,0,0,0,0,0,.01.01.02.01.03.02.03.04.08.06.11.04.04.1.06.15.06.02,0,.03,0,.05,0,.09-.03.15-.1.17-.2,0-.01,0-.03,0-.04,0-.02,0-.15,0-.26v-.15h0c0-.22,0-.46,0-.53l-.5.52Z"/>
              </g>
              <g>
                <path class="cls-12" d="M12.52,11.41l-.48.49.02.02.48-.49s0,0,0,0c0,0,0,0,0,0Z"/>
                <path class="cls-12" d="M12.53,11.39s0,0,0,.01c0,0,0,.01,0,.01,0,0,.02.01.02,0,0,0,0-.02,0-.02,0,0,0,0-.01,0,0,0,0,0,0,0s0,0,0,0Z"/>
                <path class="cls-12" d="M12.54,11.36s0,.03,0,.03c0,0,0,0,0,0l.09-.1s-.08.05-.1.06Z"/>
                <path class="cls-12" d="M12.64,11.3l-.09.1s0,0,0,0c.02,0,.03,0,.04,0l.05-.11Z"/>
                <path class="cls-3" d="M12.54,11.42s0,0,0,0c0,0,0,0,0,0l-.48.49.02.02.48-.49ZM12.54,11.39s0,0,0,0l.09-.1s-.08.05-.1.06c0,0,0,.03,0,.03ZM12.59,11.4l.05-.11-.09.1s0,0,0,0c.02,0,.03,0,.04,0ZM12.54,11.42l-.48.5-.02-.02.48-.5h0s0-.01,0-.01c0,0,0,0,.01,0,0,0,0,0,0,0,0-.01,0-.03,0-.03h0,0s.1-.06.11-.07h0l-.05.12h0s-.02-.01-.04,0c0,0,0,.01,0,.02,0,0,0,0,0,0s0,0,0,0ZM12.55,11.4s0,0-.01,0c0,0,0,0,0,0s0,0,0,0c0,0,0,0,0,.01,0,0,0,.01,0,.01,0,0,.02.01.02,0,0,0,0-.02,0-.02Z"/>
              </g>
            </g>
          </g>
          <g>
            <path class="cls-14" d="M11.89,12l-.02.36s0,0,0,0c-.02-.02-.01-.06-.01-.09l.03-.26h.01Z"/>
            <path class="cls-14" d="M11.98,12.62s0,.03-.01.05c-.01.01-.02.03-.04.03-.01,0-.03,0-.04,0,0,0-.02-.02-.02-.03h0s0-.01,0-.02c.02-.02.05-.03.07-.03,0,0,.02,0,.03,0,0,0,0,0,.01,0Z"/>
            <path class="cls-14" d="M11.99,12.51v.1s0,0,0,0c0,0-.01,0-.02,0-.01,0-.02,0-.03,0-.02,0-.03,0-.05,0-.01,0-.02.01-.03.02l.04-.61h.01l-.02.46s0,.03.01.04c0,.01.02.02.04.02.01,0,.03,0,.04-.01Z"/>
            <path class="cls-8" d="M11.86,12.38v.17s-.03,0-.03-.01c-.01-.01-.01-.03-.01-.03l.02-.15s0,.01.01.02c0,0,.01,0,.02.01Z"/>
            <path class="cls-8" d="M11.99,12.43v.06s-.05.02-.06,0c-.01-.01-.01-.02,0-.03,0-.02.03-.03.06-.03h0Z"/>
            <path class="cls-8" d="M11.96,12l.03.41h0s-.05,0-.06.02l.02-.43h.02Z"/>
            <path class="cls-8" d="M12.1,12.35s-.01.03-.03.04l-.03-.24s0-.04,0-.06c.03.11.07.24.07.26Z"/>
            <path class="cls-9" d="M12.07,12.53s0,.05-.01.07c-.01.01-.02.01-.04.01v-.18s-.01-.02-.01-.02l-.03-.41h.03s.01.1.02.15c.01.08.02.16.03.24v.02s0,.02,0,.03c0,.02,0,.05,0,.07,0,0,0,0,0,.01Z"/>
            <path class="cls-3" d="M12.12,12.35s-.02.04-.05.05c0,.01,0,.02,0,.03,0,.02,0,.05,0,.07,0,0,0,0,0,0,0,.03,0,.06-.02.08-.02.02-.05.02-.07.02,0,.02,0,.04-.01.05-.01.02-.03.03-.05.04,0,0-.01,0-.02,0-.01,0-.03,0-.04-.01-.01,0-.03-.02-.03-.04,0,0,0,0,0-.01h0s0-.09,0-.09c-.01,0-.03,0-.03-.02-.02-.02-.01-.04-.01-.05l.03-.24h0s.03-.27.03-.27h.15s.1.33.1.36ZM12.07,12.39s.03-.03.03-.04c0-.02-.04-.16-.07-.26,0,.02,0,.04,0,.06l.03.24ZM12.05,12.6s.02-.04.01-.07c0,0,0,0,0-.01,0-.02,0-.05,0-.07,0-.01,0-.02,0-.03v-.02c-.01-.08-.02-.16-.03-.24,0-.06-.01-.11-.02-.15h-.03l.03.41v.2s.04,0,.05-.01ZM12,12.61v-.1s-.04.01-.05.01c-.02,0-.03,0-.04-.02-.01-.01-.01-.02-.01-.04l.02-.46h-.01l-.04.61s.02-.01.03-.02c.01,0,.03,0,.05,0,0,0,.02,0,.03,0,0,0,.01,0,.02,0,0,0,.01,0,.02,0ZM11.99,12.49v-.06h-.01s-.06.01-.06.03c0,.01,0,.02,0,.03.02.02.05,0,.07,0ZM11.99,12.41l-.03-.41h-.02l-.02.43s.04-.02.06-.02h0ZM11.97,12.67s.01-.03.01-.05c0,0,0,0-.01,0-.01,0-.02,0-.03,0-.03,0-.06,0-.07.03,0,0,0,0,0,.01h0s.02.04.02.04c.01.01.03.01.04,0,.02,0,.03-.02.04-.03ZM11.87,12.36l.02-.36h-.01l-.03.26s0,.07.01.09c0,0,0,0,0,0ZM11.85,12.55v-.17s0,0,0-.01c0,0,0-.01-.01-.02l-.02.15s0,.02.01.03c0,0,.01.01.02.01Z"/>
          </g>
          <g>
            <path class="cls-12" d="M12,11.79h-.08v-.38h-.08v-.08h.08v-.08h.08v.08h.08v.08h-.08v.38Z"/>
            <path class="cls-1" d="M12,11.79h-.08v-.38h-.08v-.08h.08v-.08h.08v.08h.08v.08h-.08v.38ZM11.94,11.77h.05v-.38h.08v-.05h-.08v-.08h-.05v.08h-.08v.05h.08v.38Z"/>
          </g>
          <g>
            <g>
              <polygon class="cls-9" points="12.05 11.65 12.26 11.98 11.85 12.25 11.66 11.9 12.05 11.65"/>
              <path class="cls-3" d="M12.06,11.63l.23.35-.44.29-.21-.37.42-.27ZM12.26,11.98l-.21-.33-.4.26.19.34.41-.27Z"/>
            </g>
            <g>
              <path class="cls-9" d="M11.85,12.19v.03l-.18-.32v-.03c.03.06.17.3.18.32Z"/>
              <path class="cls-9" d="M12.02,11.63l.2.31s-.01.03-.05.05c-.07.02-.09.06-.1.09l-.18-.3s0-.02.01-.03c.01-.02.03-.04.08-.06.01,0,.03-.02.03-.03h0Z"/>
              <path class="cls-9" d="M11.88,11.77l.18.3s-.08.02-.12.05c0,0,0,.01-.01.01,0,0-.01.02-.02.02,0,0-.02.01-.03.02,0,0-.02,0-.02,0h0s-.16-.27-.18-.32c0,0,.02,0,.03,0,.02,0,.05-.01.07-.04.02-.02.04-.04.07-.04.02,0,.03,0,.04,0Z"/>
              <path class="cls-3" d="M12.23,11.94l.02.05-.39.25h0s-.19-.33-.19-.33v-.05s0,0,0,0h.01s.01,0,.03,0c.03,0,.05-.02.07-.04.02-.03.06-.04.08-.05.02,0,.03,0,.04,0,0,0,0-.02.01-.03.01-.02.03-.04.08-.06.01,0,.02-.01.03-.03v-.03s.22.32.22.32h0ZM12.22,11.94l-.2-.31h0s-.02.04-.03.04c-.05.02-.07.04-.08.06,0,.02-.01.03-.01.03l.18.3s.03-.07.1-.09c.03-.01.04-.04.05-.05ZM12.06,12.07l-.18-.3s-.02,0-.04,0c-.03,0-.05.02-.07.04-.02.03-.05.04-.07.04,0,0-.02,0-.03,0,.03.05.17.3.18.32h0s.02,0,.02,0c.01,0,.02-.01.03-.02,0,0,.01-.01.02-.02,0,0,0-.01.01-.01.03-.03.07-.06.12-.05ZM11.85,12.22v-.03s-.15-.25-.18-.32v.03l.18.32Z"/>
            </g>
          </g>
        </g>
        <g>
          <g>
            <path class="cls-11" d="M12.99,10.92s0,.01-.01.01c0,0-.01,0-.02,0-.02,0-.03-.02-.05-.03,0,0-.01,0-.02-.01-.01-.01-.05-.03-.07-.03v-.03s.06.02.08.03c.02.01.06.03.08.06,0,0,.01,0,.01.01Z"/>
            <path class="cls-11" d="M11.09,10.82l.02.03s-.05.02-.07.03h-.02s-.03.04-.05.05c0,0-.02,0-.03,0,0,0-.01,0-.01-.01,0,0,0-.01,0-.01.03-.03.06-.04.08-.06l.06-.03Z"/>
            <path class="cls-3" d="M11.63,10.68s.06,0,.1-.02c0,0,0,0,.01,0,.02-.01.04-.02.06-.01v-.07s-.04,0-.04,0c-.06,0-.13.01-.17.06-.02.02,0,.05.03.06ZM11.81,10.67s0,0,0-.02c-.01-.01-.03,0-.05,0,0,0-.01,0-.01,0-.03.01-.07.02-.11.02-.03,0-.04-.03-.05-.05h0s0-.04-.01-.05c0,0,0-.01,0-.02,0-.02-.01-.04-.02-.06-.04,0-.08,0-.13,0-.12,0-.24.04-.36.08h-.03c-.07.04-.16.07-.2.14-.01.03-.01.06.01.09.02.04.06.07.09.09,0,0,0-.01.01-.02.03-.03.06-.05.09-.06.08-.04.17-.08.26-.09.09-.02.19-.02.28-.01.06,0,.12,0,.17-.01.02,0,.07-.02.08-.04ZM12.2,10.66s.07.02.1.02c.03,0,.05-.03.03-.06-.04-.05-.11-.05-.17-.06,0,0-.02,0-.02,0l-.02.07s.05,0,.06.01c0,0,.01,0,.01,0ZM10.45,11.01s.11,0,.16,0h.02s-.01.01-.01.01c-.01.01-.05.07-.07.11.04-.02.09-.04.14-.06.08-.03.16-.05.2-.06.05-.01.11-.03.16-.06.06-.03.09-.06.09-.08,0,0,0-.01,0-.01-.01,0-.04.01-.07.03,0,0-.01,0-.02.01-.02.01-.03.03-.05.04,0,0-.02,0-.03,0,0,0,0,0,0,0h0s0,0,0,0h0s0,0,0,0c-.02-.01-.07-.05-.11-.1-.21.06-.33.14-.38.18ZM12.99,10.94s0,0,0,0h0s0,0,0,0c-.01,0-.03,0-.03,0-.02-.01-.04-.02-.05-.04,0,0-.01-.01-.02-.01-.02-.02-.06-.04-.07-.03,0,0,0,0,0,.01,0,.02.03.05.09.08.05.02.11.05.16.06.04.01.12.03.2.06.04.02.1.04.14.06-.02-.04-.06-.09-.07-.11h-.01s.02-.01.02-.01c.04,0,.11,0,.16,0-.05-.04-.17-.12-.38-.18-.03.05-.09.09-.11.1h0ZM13,10.92s.06-.05.09-.09c.02-.04.03-.07.01-.09-.04-.07-.12-.1-.19-.13-.01,0-.02,0-.03-.01-.12-.05-.24-.07-.36-.08-.04,0-.08,0-.13,0,0,.02,0,.04-.01.06,0,0,0,.01,0,.02,0,.01,0,.03-.01.04h0s-.02.06-.05.06c-.03,0-.07,0-.1-.02,0,0-.01,0-.01,0-.02-.01-.04-.02-.05,0-.01.01-.01.02,0,.02,0,.02.05.04.07.04.05.01.11.01.17.01.09,0,.19,0,.28.01.09.02.18.05.26.09.03.01.06.03.09.06,0,0,.01.01.01.02ZM12.13,10.55c.11,0,.17.02.19.05l.02.02s0-.02.01-.04c0,0,0-.01,0-.02,0-.02.01-.04.02-.06.01-.06-.01-.1-.05-.12-.01,0-.02,0-.03-.01-.03,0-.06,0-.09-.01,0,0-.01,0-.01,0-.03,0-.07,0-.1,0-.04,0-.08,0-.12,0h-.01s-.07,0-.11,0c-.04,0-.07,0-.1,0,0,0-.01,0-.01,0-.03,0-.06,0-.09.01-.01,0-.02,0-.03.01-.04.02-.06.07-.05.12,0,.02,0,.04.01.06,0,0,0,.01,0,.02,0,.01,0,.03.01.04,0,0,.01-.02.02-.02.02-.03.09-.04.19-.05.07,0,.14,0,.16,0h.01s.09,0,.16,0ZM13.52,11.03h-.02s-.11-.01-.16-.01c.02.03.06.1.08.13l.03.05-.04-.04s-.26-.12-.35-.13c-.05-.01-.11-.03-.16-.06-.04-.02-.09-.06-.09-.09,0,0,0-.01,0-.02,0,0,0-.02.01-.03v-.02c-.05-.02-.11-.04-.17-.05-.09-.02-.18-.01-.28-.01-.06,0-.12,0-.17-.01-.02,0-.08-.02-.09-.05,0,0,0-.01,0-.02l.02-.1c-.07,0-.13,0-.15,0h-.01s-.08,0-.15,0l.02.1s0,.01,0,.02c0,.03-.07.05-.09.05-.05.01-.11.01-.17.01-.09,0-.18,0-.28.01-.06.01-.12.03-.18.06l.02.04s0,.01,0,.02c0,.03-.05.07-.09.09-.05.02-.11.05-.16.06-.09.02-.31.09-.35.13l-.04.04.02-.05s.06-.1.08-.13c-.05,0-.13,0-.16,0h-.02s.02-.01.02-.01c.03-.03.15-.12.39-.19-.02-.04-.02-.07,0-.1.04-.07.13-.1.2-.13.01,0,.02,0,.03-.01.12-.05.24-.07.36-.08.04,0,.08,0,.13,0,0-.06.02-.1.06-.13.01,0,.02-.01.03-.01.03,0,.06-.01.09-.01,0,0,.01,0,.01,0,.03,0,.07,0,.11,0,.04,0,.08,0,.12,0,.04,0,.08,0,.12,0,.04,0,.07,0,.1,0,0,0,.01,0,.01,0,.03,0,.06,0,.09.01.01,0,.02,0,.03.01.05.02.07.07.06.13.04,0,.08,0,.13,0,.12,0,.24.04.36.08h.03c.07.04.16.07.2.14.02.03.01.06,0,.1.24.07.36.16.39.19h.02ZM12.97,10.93s.01,0,.01-.01,0-.01-.01-.01c-.03-.03-.06-.04-.08-.06-.02-.01-.05-.02-.07-.03v.03s.04.02.06.03c0,0,.01,0,.02.01.02.01.03.03.05.03.01,0,.02,0,.02,0ZM11.11,10.84l-.02-.03-.06.03s-.06.03-.08.06c0,0,0,0,0,.01,0,0,0,.01.01.01,0,0,.02,0,.03,0,.02,0,.03-.02.05-.03h.02s.04-.04.07-.05Z"/>
            <path class="cls-14" d="M13.1,10.73s.01.06-.01.09c-.02.04-.06.07-.09.09,0,0,0-.01-.01-.02-.03-.03-.06-.05-.09-.06-.08-.04-.17-.08-.26-.09-.09-.02-.19-.02-.28-.01-.06,0-.12,0-.17-.01-.02,0-.07-.02-.07-.04,0,0,0,0,0-.02.01-.01.03,0,.05,0,0,0,.01,0,.01,0,.03.01.07.02.1.02.03,0,.05-.03.05-.05h0s0-.04.01-.05c0,0,0-.01,0-.02,0-.02.01-.04.01-.06.04,0,.08,0,.13,0,.12,0,.24.04.36.08.01,0,.02,0,.03.01.07.03.16.06.19.13Z"/>
            <path class="cls-14" d="M12.81,10.86s.04.01.07.03c0,0,.01,0,.02.01.02.01.03.03.05.04,0,0,.02,0,.03,0,0,0,0,0,0,0h0s0,0,0,0h0s.07-.05.11-.1c.21.06.33.14.38.18-.04,0-.11,0-.16,0h-.02s.01.01.01.01c.01.01.04.07.07.11-.03-.02-.09-.04-.14-.06-.08-.03-.16-.05-.2-.06-.05-.01-.11-.03-.16-.06-.06-.03-.09-.06-.09-.08,0,0,0-.01,0-.01Z"/>
            <path class="cls-11" d="M12.16,10.57c.06,0,.13.01.17.06.02.02,0,.05-.03.06-.03,0-.06,0-.1-.02,0,0-.01,0-.01,0-.02-.01-.04-.02-.06-.01l.02-.07s.02,0,.02,0Z"/>
            <path class="cls-14" d="M12.2,10.36s.06,0,.09.01c.01,0,.02,0,.03.01.04.02.06.07.05.12,0,.02,0,.04-.02.06,0,0,0,.01,0,.02,0,.01,0,.03-.01.04l-.02-.02s-.09-.04-.19-.05c-.07,0-.14,0-.16,0h-.01s-.09,0-.16,0c-.11,0-.17.02-.19.05,0,0-.01.02-.02.02,0-.01,0-.02-.01-.04,0,0,0-.01,0-.02,0-.02-.01-.04-.01-.06-.01-.06,0-.1.05-.12.01,0,.02,0,.03-.01.03,0,.06,0,.09-.01,0,0,0,0,.01,0,.03,0,.07,0,.1,0,.04,0,.08,0,.11,0h.01s.07,0,.12,0c.03,0,.07,0,.1,0,0,0,.01,0,.01,0Z"/>
            <path class="cls-11" d="M11.79,10.57v.07s-.03,0-.05.01c0,0-.01,0-.01,0-.03.01-.07.02-.1.02-.03,0-.05-.03-.03-.06.04-.05.11-.05.17-.06,0,0,.02,0,.02,0Z"/>
            <path class="cls-14" d="M10.83,10.84s.09.09.11.1h0s0,0,0,0c.01,0,.03,0,.03,0,.02-.01.04-.02.05-.04,0,0,.01-.01.02-.01.02-.02.05-.04.07-.03,0,0,0,0,0,.01,0,.02-.03.05-.09.08-.05.02-.11.05-.16.06-.04.01-.12.03-.2.06-.05.02-.1.04-.14.06.02-.04.06-.09.07-.11h.01s-.02-.01-.02-.01c-.04,0-.11,0-.16,0,.05-.04.17-.12.38-.18Z"/>
            <path class="cls-14" d="M11.56,10.59s0,.03.01.04h0s.02.06.05.06c.03,0,.07,0,.11-.02,0,0,0,0,.01,0,.02-.01.04-.02.05,0,.01.01,0,.02,0,.02,0,.02-.05.04-.08.04-.05.01-.11.01-.17.01-.09,0-.19,0-.28.01-.09.02-.18.05-.26.09-.03.01-.06.03-.09.06,0,0-.01.01-.01.02-.02-.02-.06-.05-.09-.09-.02-.04-.03-.07-.01-.09.04-.07.12-.1.2-.13h.03c.12-.06.24-.09.36-.09.04,0,.09,0,.13,0,0,.02,0,.04.02.06,0,0,0,.01,0,.02Z"/>
          </g>
          <g>
            <path class="cls-12" d="M11.18,10.66s0,.06-.04.08h-.04s0,0,0,0h.01s-.04-.11-.04-.11h-.01s0,0,0,0h.04s.07-.01.08.02ZM11.16,10.66s-.01-.03-.02-.04c0,0-.02,0-.04,0h0s.04.11.04.11h0s.03-.02.03-.03c0-.01,0-.03,0-.04Z"/>
            <path class="cls-12" d="M11.25,10.7h-.04s0,0,0,0h0s-.03-.11-.03-.11h-.01s0,0,0,0h.04s0,0,0,0h-.01s.03.11.03.11h.01s0,0,0,0Z"/>
            <path class="cls-12" d="M11.35,10.62s0,.03,0,.05-.02.02-.03.02c-.02,0-.03,0-.04-.01-.01-.01-.02-.02-.02-.04,0-.02,0-.03,0-.05,0-.01.02-.02.04-.02.01,0,.03,0,.04.01s.02.02.02.04ZM11.33,10.63s0-.03-.01-.04-.02-.01-.03-.01c-.02,0-.03.02-.02.06,0,.02,0,.03.01.04,0,0,.02.01.03.01.01,0,.02,0,.02-.02s0-.03,0-.05Z"/>
            <path class="cls-12" d="M11.46,10.64s0,.02-.01.03c-.01,0-.02.01-.04.01-.02,0-.03,0-.04,0v-.04s0,0,0,0c0,.02.01.03.01.03,0,0,.01,0,.02,0,0,0,.02,0,.02-.01,0,0,.01-.01,0-.02,0,0,0-.01,0-.02,0,0-.01,0-.02,0-.02,0-.03-.01-.03-.01,0,0-.01-.01-.01-.02,0,0,0-.02.01-.02,0,0,.02-.01.03-.01.01,0,.02,0,.03,0v.03s0,0,0,0c0-.02-.01-.03-.01-.03,0,0-.01,0-.02,0-.01,0-.02,0-.02,0s0,0,0,.01,0,.01.01.02c0,0,.01,0,.03.01.01,0,.02.01.03.01,0,0,.01.01.01.02Z"/>
          </g>
          <g>
            <path class="cls-12" d="M11.79,10.43s0,.02-.01.02c0,0-.02,0-.04,0h-.01s0,.05,0,.05h.02s-.04,0-.04,0h0s.01,0,.01,0v-.11h-.02s.04,0,.04,0c.02,0,.03,0,.03,0,.01,0,.02.01.02.02ZM11.77,10.43s0-.01,0-.02c0,0-.01,0-.02,0h-.01s0,.05,0,.05h0s.02,0,.03,0c0,0,0-.01,0-.02Z"/>
            <path class="cls-12" d="M11.91,10.51h-.04s.01,0,.01,0v-.04h-.05v.04s0,0,0,0h0s-.03,0-.03,0h0s.01,0,.01,0l.04-.11h.01s.04.11.04.11h.01ZM11.86,10.46l-.02-.05-.02.05h.03Z"/>
            <path class="cls-12" d="M11.99,10.44h0s0-.03,0-.03c0,0,0,0-.01,0h-.01v.11h.01s-.04,0-.04,0h0s.01,0,.01,0v-.11h-.01s0,0-.01,0,0,.01,0,.03h0v-.04h.08v.04Z"/>
            <path class="cls-12" d="M12.1,10.51h-.03l-.04-.05s0,0,0,0v.05h.01s-.04,0-.04,0h0s.01,0,.01,0v-.11s-.01,0-.01,0h0s.05,0,.05,0c.03,0,.04,0,.04.03,0,0,0,.01-.01.02,0,0-.02,0-.03,0l.04.05h0ZM12.07,10.43s-.01-.02-.03-.02h-.01v.05h0s.04-.01.04-.03Z"/>
            <path class="cls-12" d="M12.14,10.52h-.04s.01,0,.01,0v-.11s0,0,0,0h0s.04,0,.04,0h0s-.01,0-.01,0v.11s0,0,0,0h0Z"/>
            <path class="cls-12" d="M12.25,10.53h-.04s0-.01,0-.01h.01s0-.04,0-.04h-.04s-.02.04-.02.04h.02s0,0,0,0h-.03s.01,0,.01,0l.05-.11h.01s.03.12.03.12h0ZM12.21,10.47v-.05s-.03.05-.03.05h.03Z"/>
          </g>
          <g>
            <path class="cls-12" d="M12.47,10.68h-.07s0,0,0,0h0s0-.1,0-.1h-.01s.04,0,.04,0h0s-.01,0-.01,0v.1h.03s0,0,0,0c0,0,0,0,0,0,0,0,0-.02,0-.03h0v.04Z"/>
            <path class="cls-12" d="M12.52,10.68h-.04s.01,0,.01,0v-.1h-.01s.04,0,.04,0h0s-.01,0-.01,0v.1h.01Z"/>
            <path class="cls-12" d="M12.62,10.66s-.01.03-.04.03h-.05s.01,0,.01,0v-.1s0,0,0,0h0s.03,0,.03,0c.01,0,.03,0,.03,0,.01,0,.02.01.02.02,0,.01-.01.02-.03.02.01,0,.02,0,.03.01,0,0,0,.01,0,.02ZM12.6,10.66s0-.02,0-.02-.01,0-.03,0h0v.05s0,0,0,0c.01,0,.02,0,.02,0,0,0,0-.01.01-.02ZM12.6,10.61s0-.02,0-.02c0,0-.01,0-.02,0h0v.04s0,0,0,0c.02,0,.03,0,.03-.02Z"/>
            <path class="cls-12" d="M12.7,10.7h-.08v-.02h.01s.02-.09.02-.09h0s.08,0,.08,0v.03s-.01,0-.01,0c0-.01,0-.02,0-.03,0,0,0,0,0,0,0,0,0,0,0,0h-.03s0,.04,0,.04h0s.01,0,.01,0c0,0,0,0,0-.02h0s0,.05,0,.05h0s0-.02,0-.02c0,0,0,0-.01,0h-.01s0,.05,0,.05h.03s0,0,0,0c0,0,0,0,0,0,0,0,0-.01.01-.03h0v.04Z"/>
            <path class="cls-12" d="M12.8,10.73h-.02s-.02-.07-.02-.07c0,0,0,0,0,0l-.02.05h.01s-.04,0-.04,0h0s.01,0,.01,0l.03-.09h0s.04,0,.04,0c.03,0,.04.02.03.04,0,0,0,.01-.01.01,0,0-.02,0-.03,0l.02.06h0ZM12.8,10.65s0-.02-.02-.03h-.01s-.01.04-.01.04h0s0,0,0,0c.02,0,.03,0,.04-.01Z"/>
            <path class="cls-12" d="M12.89,10.69h0s0-.02,0-.03c0,0,0,0,0,0h-.01s-.04.09-.04.09h.01s0,0,0,0l-.04-.02h0s.01,0,.01,0l.04-.09h0s0,0,0,0c0,0,0,0-.02.02h0s.01-.03.01-.03l.07.03v.03Z"/>
            <path class="cls-12" d="M12.95,10.81l-.03-.02h0s.01,0,.01,0v-.04s-.02-.02-.02-.02l-.03.03h.01s0,0,0,0h-.02s0-.01,0-.01h0s.08-.07.08-.07h0s-.02.11-.02.11h0s0,0,0,0ZM12.94,10.75v-.05s-.03.03-.03.03l.03.02Z"/>
            <path class="cls-12" d="M13.06,10.81s-.04.04-.08.02l-.03-.02h0s.01,0,.01,0l.05-.09h-.01s0,0,0,0l.03.02s.04.04.02.07ZM13.05,10.8s.01-.03.01-.04c0-.01,0-.02-.02-.03h0s-.05.08-.05.08h0s.02.01.03,0c0,0,.02-.01.03-.03Z"/>
          </g>
        </g>
        <g>
          <path class="cls-4" d="M12.02,13.47s0,.02,0,.02h0s0,0,0,.01h0s-.02,0-.05,0c-.03,0-.05,0-.05,0h0s0,0,0-.01c0,0,0,0,0,0,0,0,0-.01,0-.02,0,0,0-.02,0-.03h0s0-.02-.01-.02c0,0,0-.01,0-.02h0s0-.01,0-.01c0,0,0,0,.01-.01,0,0,.01,0,.04-.01.02,0,.03,0,.04,0,0,0,0,0,.01,0,0,0,.01.01.02.02,0,0,0,0,0,0h0s0,.01,0,.01c0,0,0,.02,0,.03,0,0,0,0,0,0h0s0,0,0,0c0,0,0,.01,0,.02Z"/>
          <path class="cls-3" d="M12.22,13.48s0,.02,0,.03c.06.02.12.04.14.05-.01-.02-.04-.07-.04-.07h0s0,0,0,0c0,0,.02,0,.05-.02-.04,0-.11-.03-.15-.04,0,0,0,.02,0,.02,0,0,0,0,0,0,0,0,0,0,0,.02,0,0,0,.01,0,.02,0,0,0,0,0,.01ZM12.04,13.49s.06.02.08.03c.01,0,.02,0,.02,0,0,0,0,0,0,0-.02-.02-.04-.02-.07-.03h0s-.02,0-.02,0v.02ZM12.03,13.44s.02,0,.03,0c.01,0,.02,0,.03,0,.02,0,.04.01.06.02.01,0,.02.02.03.03h0s-.02-.01-.03-.02c-.02-.01-.03-.01-.06-.02,0,0-.01,0-.02,0,0,0-.01,0-.02,0,0,0,0,0,0,0,0,0,.02,0,.03,0h0s.05.02.07.03c0,0,.01.02.01.02,0,0,0,0-.01,0,0,0-.01,0-.02,0-.02,0-.05-.01-.08-.03,0,0,0,0,0,0,0,0,.02,0,.03.01.06.02.09.03.12.02.01,0,.03-.02.03-.03,0,0,0-.02,0-.02,0,0,0,0,0,0,0,0,0-.01,0-.02,0,0,0-.01,0-.02h0s0-.02,0-.03c0-.01,0-.03-.01-.04-.02-.02-.04-.02-.06-.02-.02,0-.03,0-.04.01,0,0-.02.01-.04.02-.01,0-.03,0-.04.01h0s.02,0,.03,0c.06,0,.07,0,.09,0,.01,0,.03,0,.04-.01h0s-.03.02-.04.02c-.02,0-.03,0-.09,0h-.03s0,0,0,0c0,0,0,.01,0,.02,0,0,0,0,0,0h0s0,0,0,0ZM11.7,13.47s0-.01,0-.02c0,0,0-.01,0-.02,0,0,0,0,0,0,0,0,0-.01,0-.02-.04.01-.1.04-.15.04.03.02.05.02.05.02h0s0,0,0,0c0,0-.03.05-.04.07.03,0,.07-.02.14-.05,0-.01,0-.02,0-.03,0,0,0,0,0-.01ZM11.71,13.4s0,.02,0,.03c0,0,0,0,0,0,0,0,0,.01,0,.02,0,.01,0,.02,0,.02,0,0,0,0,0,0,0,0,0,.01,0,.02,0,.01.02.03.03.03.02.01.05,0,.12-.02.01,0,.02,0,.03-.01,0,0,0,0,0,0-.04.01-.07.02-.09.03-.01,0-.02,0-.02,0s-.01,0-.01,0c0,0,0-.02,0-.02.02-.02.04-.02.07-.03h0s.03,0,.05-.01h0s-.03,0-.04,0c-.01,0-.02,0-.03,0-.02,0-.04.01-.05.02-.01,0-.02.02-.03.03h-.01s.02-.03.03-.04c.02-.01.03-.01.06-.02,0,0,.02,0,.03,0,.01,0,.02,0,.04-.01,0,0,0-.01,0-.02,0,0,0-.01,0-.02h-.02c-.06,0-.08,0-.1,0-.01,0-.03,0-.04-.01h0s.02,0,.04,0c.02,0,.03,0,.09,0h.02s-.02-.01-.03-.02c-.02,0-.03-.01-.04-.02-.02,0-.03-.01-.04-.01-.01,0-.04,0-.06.02,0,0-.01.02-.01.04ZM12.4,13.44h-.01s-.04.04-.06.04c.01.02.04.06.04.08h0s-.01,0-.01,0c-.02,0-.11-.03-.16-.05,0,.02-.02.03-.04.04-.01,0-.02,0-.03,0-.02,0-.05-.01-.1-.03-.01,0-.02,0-.03-.01-.01,0-.03,0-.05,0h-.01s-.04,0-.05,0c-.01,0-.02.01-.04.01-.04.02-.07.03-.1.03-.01,0-.02,0-.03,0-.01,0-.03-.02-.04-.04-.05.02-.13.05-.16.05h-.01s0,0,0,0c0-.01.03-.06.04-.08-.01,0-.03-.01-.05-.03h-.01s.02-.01.02-.01c.04,0,.12-.03.16-.04,0-.02,0-.03.01-.04.02-.02.05-.02.07-.02.02,0,.03,0,.05.01,0,0,.02,0,.04.01.01,0,.02,0,.03.01,0,0,0,0,0-.01,0,0,.02-.01.04-.01.03,0,.05,0,.06,0,.01,0,.02.01.02.03.01,0,.03,0,.04-.01.02,0,.03-.01.04-.01.02,0,.03-.01.05-.01.02,0,.05,0,.07.02.01.01.01.02.01.04.04.01.12.04.16.04h.01ZM12.02,13.49s0-.01,0-.02c0,0,0-.01,0-.02,0,0,0,0,0,0h0s0,0,0-.01c0-.01,0-.02,0-.03,0,0,0,0,0,0h0s0,0,0-.01c0-.01,0-.02-.02-.02,0,0,0,0-.01,0,0,0-.02,0-.04,0-.03,0-.03,0-.04.01,0,0,0,0-.01.01,0,0,0,0,0,0h0s0,.01,0,.02c0,0,0,.01.01.02h0s0,.02,0,.03c0,0,0,.01,0,.02,0,0,0,0,0,0,0,0,0,.01,0,.01h0s.02,0,.05,0c.03,0,.04,0,.05,0h0s0,0,0-.01h0ZM11.9,13.48s0,0,0,0c-.01,0-.03,0-.04,0h0s-.05.02-.07.03c0,0,0,0,0,0,0,0,0,0,.02,0,.03,0,.06-.02.1-.03,0,0,0,0,0,0Z"/>
          <path class="cls-8" d="M12.23,13.41s.1.04.15.04c-.03.02-.05.02-.05.02h0s0,0,0,0c0,0,.03.05.04.07-.03,0-.08-.02-.14-.05,0-.01,0-.02,0-.03,0,0,0,0,0-.01,0,0,0-.01,0-.02,0,0,0-.01,0-.02,0,0,0,0,0,0,0,0,0-.01,0-.02Z"/>
          <path class="cls-8" d="M12.03,13.51s.06.02.08.03c0,0,.02,0,.02,0,0,0,.01,0,.01,0,0,0,0-.02-.01-.02-.02-.02-.04-.02-.07-.03h0s-.02,0-.03,0c0,0,0,0,0,0,0,0,.01,0,.02,0,0,0,.02,0,.02,0,.03,0,.04.01.06.02,0,0,.02.02.03.03h0s-.02-.03-.03-.04c-.02-.01-.03-.01-.06-.02,0,0-.02,0-.03,0-.01,0-.02,0-.03,0,0,0,0,0,0,0h0s0,0,0,0c0,0,0-.01,0-.02,0,0,0,0,0,0h.03c.06,0,.08,0,.09,0,.01,0,.03,0,.04-.01h0s-.03,0-.04,0c-.02,0-.03,0-.09,0h-.03s.03-.01.04-.02c.02,0,.03-.01.04-.02.02,0,.03-.01.04-.01.01,0,.04,0,.06.02,0,0,.01.02.01.04,0,.01,0,.02,0,.03h0s0,.02,0,.02c0,.01,0,.02,0,.02,0,0,0,0,0,0,0,0,0,.01,0,.02,0,.01-.02.03-.03.03-.02.01-.05,0-.12-.02-.01,0-.02,0-.03-.01,0,0,0,0,0,0Z"/>
          <path class="cls-8" d="M12.07,13.48s.05.01.07.03c0,0,0,0,0,0,0,0,0,0-.02,0-.02,0-.05-.01-.08-.03v-.02h.02s0,0,0,0Z"/>
          <path class="cls-8" d="M11.71,13.48s0-.01,0-.02c0,0,0-.01,0-.02,0,0,0,0,0,0,0,0,0-.02,0-.03,0-.01,0-.03.01-.04.02-.02.04-.02.06-.02.02,0,.03,0,.04.01.01,0,.02.01.04.02.01,0,.02,0,.03.01h0s-.01,0-.02,0c-.06,0-.07,0-.09,0-.01,0-.03,0-.04-.01h0s.03.02.04.02c.02,0,.04,0,.1,0h.02s0,.01,0,.02c0,0,0,.01,0,.02-.01,0-.02,0-.04.01-.01,0-.02,0-.03,0-.03,0-.04.01-.06.02-.01,0-.02.02-.03.03h.01s.02-.01.03-.02c.02-.01.03-.01.05-.02,0,0,.02,0,.03,0,.01,0,.03,0,.04-.01h0s-.03.01-.05.02h0s-.05.02-.07.03c0,0-.01.02,0,.02,0,0,0,0,.01,0s.01,0,.02,0c.02,0,.05-.02.09-.03,0,0,0,0,0,0-.01,0-.02.01-.03.01-.06.02-.09.03-.12.02-.01,0-.03-.02-.03-.03,0,0,0-.02,0-.02,0,0,0,0,0,0Z"/>
          <path class="cls-8" d="M11.86,13.48s.03,0,.04,0c0,0,0,0,0,0s0,0,0,0c-.04.02-.07.03-.1.03-.01,0-.02,0-.02,0,0,0,0,0,0,0,.02-.02.04-.02.07-.03h0Z"/>
          <path class="cls-8" d="M11.71,13.45s0,.01,0,.02c0,0,0,0,0,.01,0,0,0,.02,0,.03-.07.02-.12.04-.14.05.01-.02.04-.07.04-.07h0s0,0,0,0c0,0-.02,0-.05-.02.04,0,.11-.03.15-.04,0,0,0,.02,0,.02,0,0,0,0,0,0,0,0,0,0,0,.02Z"/>
        </g>
        <g>
          <g>
            <path class="cls-8" d="M13.55,12.93s-.05.06-.07.11c-.03.05-.05.12-.08.18-.02.05-.05.1-.11.14,0,0,0,0-.01,0-.02.02-.05.04-.08.05,0,0,0,0-.01,0h0s0-.04.02-.05c.01-.01.02-.02.03-.03.02-.02.05-.03.07-.06,0,0,.01-.02.02-.03,0-.02,0-.03,0-.03,0,0-.04-.09-.09-.13.03-.07.09-.16.18-.25-.01.04-.02.09-.03.16v.02s.01-.02.01-.02c.02-.02.08-.05.15-.07Z"/>
            <path class="cls-4" d="M13.31,13.21s0,.01,0,.02c0,0-.01.02-.02.02-.02.02-.05.04-.07.06-.01,0-.02.02-.03.02-.01.01-.03.03-.03.05l-.02-.02v-.03s.06-.09.1-.12c.01-.01.05-.02.06-.01Z"/>
            <path class="cls-8" d="M13.31,13.19s-.05,0-.06.01c-.05.03-.07.08-.09.12-.03.07-.06.13-.09.17-.01.02-.03.03-.04.05-.05.06-.11.09-.18.09-.12,0-.19-.03-.25-.11,0,0,0-.03,0-.03,0,0,.02,0,.02,0,.02,0,.03.02.06.04.07.06.11.08.14.08.02,0,.04,0,.05-.02.02-.02.06-.07.09-.12.03-.04.05-.1.04-.14,0-.02-.02-.03-.04-.05.14-.24.21-.25.25-.23,0,0,.01,0,.02.01.03.03.06.08.07.11Z"/>
            <path class="cls-4" d="M12.86,13.58s0,.01,0,.01c-.02.02-.04.02-.06.02-.03,0-.06-.03-.12-.07-.03-.02-.05-.03-.06-.04,0,0-.01,0-.02,0l.02-.05c.07.02.14.05.2.09.01,0,.04.03.04.05Z"/>
            <path class="cls-4" d="M11.31,13.44l.02.05s-.01,0-.02,0c-.02,0-.04.02-.06.04-.05.04-.09.07-.12.07-.02,0-.04,0-.06-.02,0,0,0-.01,0-.01,0-.02.03-.04.04-.05.06-.04.13-.07.2-.09Z"/>
            <path class="cls-8" d="M12.99,13.35s0,.07-.04.13c-.02.04-.05.08-.07.1,0-.02-.03-.04-.05-.05-.13-.09-.29-.12-.44-.15-.16-.03-.3-.04-.43-.04-.13,0-.26.01-.43.04-.15.03-.31.06-.44.15-.02.01-.04.03-.05.05-.02-.02-.05-.06-.07-.1-.03-.06-.05-.11-.04-.13,0-.02.02-.03.04-.04.02-.01.04-.02.06-.03,0,0,.01,0,.02,0,.06-.02.12-.05.17-.06.21-.07.44-.1.74-.09.29,0,.53.03.74.09.06.02.12.04.17.06,0,0,.01,0,.02,0,.02,0,.04.02.06.03.02.01.03.03.04.04Z"/>
            <path class="cls-4" d="M10.77,13.37l-.02.02s-.02-.04-.03-.05c-.01,0-.02-.02-.03-.02-.02-.02-.05-.03-.07-.06,0,0-.01-.01-.02-.02,0-.01,0-.02,0-.02.01-.01.05,0,.06.01.04.02.07.07.09.12,0,.01.01.02.01.03Z"/>
            <path class="cls-8" d="M11.34,13.51s0,.03,0,.03c-.05.07-.13.11-.24.11-.07,0-.13-.03-.18-.09-.01-.02-.02-.03-.04-.05-.03-.05-.06-.1-.09-.17-.02-.04-.05-.1-.09-.12-.01,0-.04-.02-.06-.01.01-.03.04-.08.07-.11,0,0,.01-.01.02-.01.04-.02.11-.01.25.23-.02.01-.03.03-.04.05-.01.04.01.1.04.14.03.05.06.1.09.12.02.01.04.02.06.02.03,0,.08-.02.14-.08.02-.02.04-.03.06-.04,0,0,.02,0,.02,0Z"/>
            <path class="cls-8" d="M10.72,13.35s.03.03.02.05h0s0,0,0,0c0,0,0,0-.01,0-.03,0-.06-.03-.08-.05,0,0,0,0-.01,0-.05-.04-.08-.08-.11-.14-.02-.06-.05-.13-.08-.18-.02-.05-.05-.08-.07-.11.07.02.12.04.14.07l.02.02v-.02c-.01-.07-.03-.12-.04-.16.09.09.15.17.18.25-.04.04-.08.12-.09.13,0,0,0,.02,0,.03,0,.01.01.02.02.03.02.02.05.04.07.06.01,0,.02.02.03.03Z"/>
            <path class="cls-3" d="M13.63,12.89l-.05.03c-.07.04-.13.2-.17.3-.02.05-.06.1-.11.14,0,0,0,0,0,0-.03.02-.06.04-.09.05,0,0-.02,0-.02,0h0s-.03-.03-.03-.03c-.02.05-.05.09-.08.13-.01.02-.03.04-.04.05-.06.06-.12.09-.19.1h-.01c-.05,0-.09,0-.13-.02-.05-.02-.08-.05-.11-.09,0,0-.01-.03,0-.05l.03-.07c-.07-.02-.15-.04-.22-.05-.16-.03-.3-.04-.42-.04h0c-.13,0-.26.01-.42.04-.07.01-.15.03-.22.05l.03.07s0,.04,0,.05c-.03.04-.07.07-.12.09-.04.01-.09.02-.14.02-.08,0-.14-.03-.19-.1-.01-.01-.03-.03-.04-.05-.03-.04-.05-.08-.08-.13l-.03.03h0s-.01,0-.02,0c-.03,0-.06-.03-.09-.05,0,0,0,0-.01,0-.05-.04-.09-.09-.11-.14-.04-.1-.1-.26-.17-.3l-.05-.03h.05s.12.04.17.08c-.01-.09-.03-.15-.05-.17l-.03-.05.04.04c.11.1.18.19.21.27,0,0,.01,0,.02-.01.02-.01.05-.02.1.01.05.03.1.11.17.22.02-.01.04-.02.05-.03,0,0,.01,0,.02,0,.06-.02.12-.05.18-.06.2-.06.43-.09.72-.09h.02c.29,0,.53.03.74.09.06.02.12.04.18.06,0,0,.01,0,.01,0,.02,0,.04.02.06.03.06-.11.12-.18.17-.22.05-.03.08-.02.1-.01,0,0,.01,0,.02.01.03-.08.11-.17.21-.27l.04-.04-.03.05s-.03.08-.05.17c.05-.03.13-.06.17-.07h.05ZM13.47,13.03s.05-.08.07-.11c-.07.02-.12.04-.15.07v.02s-.01-.02-.01-.02c.01-.07.02-.12.03-.16-.09.09-.15.17-.18.25.04.04.08.12.09.13,0,0,0,.02,0,.03,0,.01-.01.02-.02.03-.02.02-.05.04-.07.06-.01,0-.02.02-.03.03-.01,0-.03.03-.02.05h0s0,0,0,0c0,0,0,0,.01,0,.03,0,.06-.03.08-.05,0,0,0,0,.01,0,.05-.04.09-.08.11-.14.02-.06.05-.13.08-.18ZM13.32,13.23s0-.02,0-.02c-.01-.01-.05,0-.06.01-.04.02-.07.07-.09.12v.03s0,.02,0,.02c0-.02.02-.04.03-.05.01,0,.02-.02.03-.02.02-.02.05-.03.07-.06,0,0,.01-.01.02-.02ZM13.24,13.21s.04-.02.06-.01c-.01-.03-.04-.08-.07-.11,0,0-.02-.01-.02-.01-.04-.02-.11-.01-.25.23.02.01.03.03.04.05.01.04-.01.1-.04.14-.03.05-.07.1-.09.12-.02.01-.03.02-.05.02-.03,0-.08-.02-.14-.08-.02-.02-.04-.03-.06-.04,0,0-.02,0-.02,0,0,0,0,.03,0,.03.05.07.13.11.25.11.07,0,.13-.03.18-.09.01-.02.02-.03.04-.05.03-.05.06-.1.09-.17.02-.04.05-.1.09-.12ZM12.95,13.48c.03-.06.05-.11.04-.13,0-.02-.02-.03-.04-.04-.02-.01-.04-.02-.06-.03,0,0-.01,0-.02,0-.06-.02-.12-.05-.17-.06-.21-.07-.44-.1-.74-.09-.29,0-.53.03-.74.09-.06.02-.12.04-.17.06,0,0-.01,0-.02,0-.02,0-.04.02-.06.03-.02.01-.03.03-.04.04,0,.03,0,.07.04.13.02.04.05.08.07.1,0-.02.03-.04.05-.05.13-.09.29-.12.44-.15.16-.03.3-.04.43-.04.13,0,.26.01.43.04.15.03.31.06.44.15.02.01.04.03.05.05.02-.02.05-.06.07-.1ZM12.86,13.59s0-.01,0-.01c0-.02-.03-.04-.04-.05-.06-.04-.13-.07-.2-.09l-.02.05s.01,0,.02,0c.02,0,.04.02.06.04.05.04.09.07.12.07.02,0,.04,0,.06-.02ZM11.34,13.54s0-.03,0-.03c0,0-.02,0-.02,0-.02,0-.04.02-.06.04-.07.06-.11.08-.14.08-.02,0-.04,0-.06-.02-.02-.02-.06-.07-.09-.12-.03-.04-.05-.1-.04-.14,0-.02.02-.03.04-.05-.14-.24-.21-.25-.25-.23,0,0-.01,0-.02.01-.03.03-.06.08-.07.11.02,0,.05,0,.06.01.05.03.08.08.09.12.03.07.06.13.09.17.02.02.03.03.04.05.05.06.11.09.18.09.12,0,.19-.03.24-.11ZM11.33,13.49l-.02-.05c-.07.02-.14.05-.2.09-.01,0-.04.03-.04.05,0,0,0,.01,0,.01.02.02.04.02.06.02.03,0,.06-.03.12-.07.03-.02.05-.03.06-.04,0,0,.02,0,.02,0ZM10.76,13.38l.02-.02s0-.02-.01-.03c-.02-.04-.04-.09-.09-.12-.02-.01-.05-.02-.06-.01,0,0,0,.01,0,.02,0,0,.01.02.02.02.02.02.04.04.07.06.01,0,.02.02.03.02.01.01.03.03.03.05ZM10.74,13.4s0-.04-.02-.05c-.01-.01-.02-.02-.03-.03-.02-.02-.05-.03-.07-.06,0,0-.02-.02-.02-.03,0-.02,0-.03,0-.03,0,0,.04-.09.09-.13-.03-.07-.09-.16-.18-.25.01.04.02.09.03.16v.02s-.01-.02-.01-.02c-.02-.02-.07-.05-.14-.07.02.02.05.06.07.11.03.05.05.12.08.18.02.05.06.1.11.14,0,0,0,0,.01,0,.03.02.06.04.08.05,0,0,0,0,.01,0h0s0,0,0,0Z"/>
          </g>
          <g>
            <path class="cls-12" d="M11.21,13.39h-.02s-.05-.02-.05-.02c0,0,0,0,0,0l.02.05h.01s0,0,0,0h-.03s0,.01,0,.01h0s-.04-.09-.04-.09h0s0,0,0,0l.04-.02s.04,0,.05,0c0,0,0,.01,0,.02,0,0-.01.01-.02.02l.05.03h0s0,0,0,0ZM11.16,13.33s-.02-.02-.03,0h-.01s.02.04.02.04h0s.03-.02.02-.04Z"/>
            <path class="cls-12" d="M11.29,13.37l-.08.02h0s.01,0,.01,0l-.03-.09h-.01s0,0,0,0l.08-.02v.03s0,0,0,0c0-.01-.01-.02-.02-.02,0,0,0,0,0,0h-.03s.01.05.01.05h0s0,0,.01,0v-.02h0v.04s0,0,0,0c0,0,0-.01-.01-.02,0,0,0,0-.01,0h-.01s.02.05.02.05h.03s0-.01,0-.01,0,0,0,0,0-.01,0-.03h0s.01.04.01.04Z"/>
            <path class="cls-12" d="M11.36,13.26s0,.02,0,.02c0,0-.02.01-.03.01h0s.01.05.01.05h.01s0,0,0,0h-.04s0,0,0,0h.01s-.02-.1-.02-.1h-.01s0,0,0,0h.04s.02-.01.03-.01c.01,0,.02,0,.02.02ZM11.35,13.27s0-.01-.01-.02c0,0-.01,0-.02,0h-.01s.01.05.01.05h0s.02,0,.02-.01c0,0,0-.01,0-.02Z"/>
            <path class="cls-12" d="M11.46,13.22h-.01s.01.07.01.07c0,.02,0,.03-.03.04-.01,0-.02,0-.03,0,0,0-.01-.01-.01-.03v-.06s-.02,0-.02,0h0s.04-.01.04-.01h0s-.01,0-.01,0v.07s.02.02.02.02.01,0,.02,0c0,0,.01,0,.02-.01,0,0,0-.02,0-.03v-.06s-.02,0-.02,0h0s.03-.01.03-.01h0Z"/>
            <path class="cls-12" d="M11.56,13.28s0,.03-.03.03c0,0-.01,0-.02,0h-.03s0,0,0,0h.01s-.02-.1-.02-.1h-.01s0,0,0,0h.03s.02,0,.03,0c.01,0,.02.01.02.02,0,.01,0,.02-.03.03.01,0,.02,0,.03,0,0,0,.01,0,.01.02ZM11.53,13.23s0-.01-.01-.02c0,0-.01,0-.02,0h0s0,.04,0,.04h0s.03-.01.03-.03ZM11.55,13.28s0-.01-.01-.02c0,0-.02,0-.03,0h0v.05s.02,0,.02,0c.01,0,.02,0,.02-.01,0,0,0-.01,0-.02Z"/>
            <path class="cls-12" d="M11.65,13.29h-.07s0,0,0,0h.01s-.01-.1-.01-.1h-.01s0,0,0,0h.04s0,0,0,0h-.01s.02.1.02.1h.02s0,0,0,0c0,0,0,0,0,0,0,0,0-.02,0-.03h0v.04Z"/>
            <path class="cls-12" d="M11.7,13.29h-.04s0,0,0,0h.01s-.01-.1-.01-.1h-.01s.04,0,.04,0h0s-.01,0-.01,0v.1h.02Z"/>
            <path class="cls-12" d="M11.79,13.27s-.02,0-.03.01c-.01,0-.03,0-.04-.01-.01,0-.02-.02-.02-.04,0-.02,0-.03.01-.04,0-.01.02-.02.04-.02.01,0,.02,0,.03,0v.03s0,0,0,0c0-.01,0-.02-.01-.02,0,0,0,0-.01,0-.01,0-.02,0-.02.02,0,.01,0,.02,0,.04,0,.04.01.05.04.05,0,0,.01,0,.01-.01,0,0,0-.01,0-.03h0v.03Z"/>
            <path class="cls-12" d="M11.89,13.27h-.04s0,0,0,0h.01s-.01-.04-.01-.04h-.03s-.01.04-.01.04h.01s-.03,0-.03,0h0s0,0,0,0l.03-.11h.01s.04.1.04.1h0ZM11.85,13.23l-.02-.05v.05s.02,0,.02,0Z"/>
            <path class="cls-12" d="M12.04,13.22s-.02.05-.06.05h-.03s.01,0,.01,0v-.1s0,0,0,0h0s.03,0,.03,0c.04,0,.06.02.06.05ZM12.02,13.22s0-.03-.01-.04-.02-.01-.03-.01h0v.1h0s.02,0,.03-.01.01-.02.01-.04Z"/>
            <path class="cls-12" d="M12.15,13.23s0,.03-.02.04c0,.01-.02.01-.03.01-.01,0-.02,0-.03-.02,0-.01-.01-.02-.01-.04,0-.02,0-.03.02-.04.01,0,.02-.01.04-.01.01,0,.02,0,.03.02,0,.01.01.02,0,.04ZM12.13,13.22s0-.03,0-.04c0,0-.01-.01-.02-.01-.02,0-.03.02-.03.05,0,.02,0,.03,0,.04,0,0,0,.01.02.01s.02,0,.02-.01c0,0,0-.02.01-.04Z"/>
            <path class="cls-12" d="M12.26,13.29h-.04s.01,0,.01,0v-.09s-.03.09-.03.09h0l-.02-.1v.09s0,0,0,0h0s-.03,0-.03,0h0s.01,0,.01,0v-.1s0,0,0,0h0s.03,0,.03,0l.02.08.04-.08h.03s-.01,0-.01,0v.1s0,0,0,0h0Z"/>
            <path class="cls-12" d="M12.31,13.3h-.04s0,0,0,0h0v-.1s0,0,0,0h0s.04,0,.04,0h0s-.01,0-.01,0v.1s0,0,0,0h0Z"/>
            <path class="cls-12" d="M12.43,13.22h-.01s-.02.1-.02.1h-.01s-.04-.12-.04-.12l-.02.1h.02s0,0,0,0h-.03s0,0,0,0l.02-.09h-.01s0,0,0,0h.03s.04.1.04.1v-.08s0,0,0,0h0s.03,0,.03,0h0Z"/>
            <path class="cls-12" d="M12.46,13.33h-.04s.01,0,.01,0l.02-.1h0s.04,0,.04,0h0s-.01,0-.01,0l-.02.1h.01Z"/>
            <path class="cls-12" d="M12.55,13.34s-.02,0-.03,0c-.02,0-.03-.01-.03-.02s-.01-.03,0-.04c0-.02.01-.03.02-.04.01,0,.03-.01.04,0,0,0,.02,0,.03.01v.03s-.01,0-.01,0c0-.01,0-.02,0-.03,0,0,0,0-.01-.01-.01,0-.02,0-.03,0,0,0-.01.02-.02.04,0,.03,0,.05.02.06,0,0,.01,0,.02,0,0,0,0-.01.02-.03h0s0,.03,0,.03Z"/>
            <path class="cls-12" d="M12.65,13.37h-.04s.01-.01.01-.01v-.04s-.03,0-.03,0l-.02.03h.01s0,0,0,0h-.02s0,0,0,0l.06-.09h0s0,.11,0,.11h0ZM12.62,13.32v-.05s-.03.04-.03.04h.03Z"/>
            <path class="cls-12" d="M12.77,13.31h0s-.03.09-.03.09h-.01s-.02-.12-.02-.12l-.03.09h.01s0,0,0,0h-.03s0-.01,0-.01h.01s.03-.09.03-.09h0s0,0,0,0h.03s.02.11.02.11l.03-.08h-.02s0-.01,0-.01h.03s0,.01,0,.01Z"/>
            <path class="cls-12" d="M12.83,13.44l-.03-.02h0s.01,0,.01,0v-.04s-.03-.01-.03-.01l-.03.03h.01s0,.01,0,.01h-.02s0-.02,0-.02h0s.08-.07.08-.07h.01s-.01.11-.01.11h0s0,0,0,0ZM12.81,13.39v-.05s-.03.04-.03.04h.03Z"/>
          </g>
        </g>
      </g>
    </g>
  </g>
</svg>