<?xml version="1.0" encoding="UTF-8"?>
<svg id="Layer_1" data-name="Layer 1" xmlns="http://www.w3.org/2000/svg" viewBox="0 0 24 24">
  <defs>
    <style>
      .cls-1 {
        fill: #000;
      }

      .cls-1, .cls-2, .cls-3, .cls-4, .cls-5 {
        stroke-width: 0px;
      }

      .cls-2 {
        fill: #bf920d;
      }

      .cls-3 {
        fill: none;
      }

      .cls-4 {
        fill: #cd1225;
      }

      .cls-5 {
        fill: #fff;
      }
    </style>
  </defs>
  <rect class="cls-3" width="24" height="24"/>
  <g>
    <path class="cls-1" d="M16.71,7.34c2.92,2.92,3.18,7.42.57,10.03-2.61,2.61-7.11,2.36-10.03-.57-2.92-2.92-3.18-7.42-.57-10.03,2.61-2.61,7.11-2.36,10.03.57Z"/>
    <g>
      <g>
        <path class="cls-4" d="M20.48,9H3.52c.19-.53.42-1.03.69-1.5,1.56-2.69,4.47-4.5,7.79-4.5s6.23,1.81,7.79,4.5c.27.47.51.98.69,1.5Z"/>
        <path class="cls-1" d="M20.48,15c-.19.52-.42,1.02-.69,1.5-1.56,2.69-4.47,4.5-7.79,4.5s-6.23-1.81-7.79-4.5c-.27-.47-.51-.98-.69-1.5h16.97Z"/>
        <path class="cls-5" d="M21,12c0,1.05-.18,2.06-.52,3H3.52c-.33-.94-.52-1.95-.52-3s.18-2.06.52-3h16.97c.33.94.52,1.95.52,3Z"/>
      </g>
      <g>
        <path class="cls-2" d="M10.95,14.31s-.02,0-.02,0h-.04s-.02.03-.01.04c0,.01.01.02.02.02l-.02.06-.1-.03.04-.11s0-.02,0-.02-.02,0-.02,0h-.03s-.02.03-.02.04c0,.01.01.02.02.02l-.02.07-.07-.02.07-.24s0-.02-.01-.03c-.01,0-.02,0-.03,0,0,0-.05.01-.08,0-.01,0-.02,0-.03.02,0,.01,0,.02.02.03.01,0,.04,0,.07,0l-.03.11c-.08,0-.11.07-.11.07,0,0,0,.01,0,.02s0,.01.01.01l.08.03h0s.1.03.1.03c0,0,0,0,0,0h.01l.13.04h0s.02,0,.02-.02l.03-.13s0-.02,0-.02ZM10.63,14.35h-.03s.02-.03.04-.03v.03Z"/>
        <path class="cls-2" d="M11.44,14.25s-.02-.01-.03,0l-.02.02s0,.01,0,.02v.11c0,.09-.03.17-.04.18,0,0-.01,0-.02,0,0,0,0-.02,0-.04,0,0,0,0,0-.01,0-.01-.02-.03-.05-.03h0s0-.02-.01-.03l.06-.02s.01-.01.01-.02c0,0,0-.02,0-.02l-.04-.04-.04-.05s-.01,0-.02-.01c0,0-.01,0-.02,0l-.03.02s-.03.02-.06.03c0,0-.01.01-.01.02,0,0,0,.02,0,.02l.05.04s-.02.02-.04.02c-.02,0-.06,0-.09-.01,0-.04-.01-.08-.01-.09,0-.01-.02-.02-.03-.01-.01,0-.02.02-.01.03,0,0,.02.05,0,.08-.01.02-.04.04-.08.05-.01,0-.02.02-.02.03,0,.01.01.02.02.02t0,0c.05-.01.09-.03.11-.07.02,0,.07.02.11.01s.05-.03.07-.04c0,.01.01.02.01.02,0,.04.03.04.05.04h0s0,.06.02.07c0,0,.02,0,.02,0,.02,0,.04,0,.05-.02.02-.02.05-.12.05-.21v-.09h.01s.01-.03,0-.04ZM11.22,14.42l-.03-.03s.03-.02.04-.03h0s.02.02.02.02h0s.01.02.01.02l-.05.02Z"/>
        <path class="cls-2" d="M11.51,14.54l.02-.22s.02,0,.02,0c.01,0,.01-.02,0-.03l-.03-.03s-.02-.01-.02,0c-.01,0-.02.01-.02.02l-.02.27s0,.02.02.03h0s.02-.01.02-.02Z"/>
        <path class="cls-2" d="M12.21,14.57l-.02-.1s0-.01-.01-.01c0,0-.01,0-.02,0,0,0-.08.03-.09.1h-.03v-.06s-.02-.02-.03-.02h-.24v-.04s0-.01-.01-.02c0,0-.01,0-.02,0h-.03s-.02.03-.01.04c0,.01.02.02.03.01v.08h-.04s-.04-.07-.04-.08c-.01-.01-.02-.01-.03,0,0,.01-.01.02,0,.03,0,.01.04.05.03.08,0,.02-.05.04-.11.05-.01,0-.02.01-.02.03,0,.01.01.02.02.02h0c.08-.01.13-.04.15-.08t0,0l.22.02s0,.04.02.06c0,0,.02.02.04.02,0,0,0,0,.01,0,.04,0,.06-.04.06-.07h.16s.01,0,.02,0,0-.01,0-.02ZM11.95,14.62s-.01,0-.01,0c0,0-.01-.03-.01-.04,0-.01,0-.02-.02-.02h-.16v-.05h.21s0,.07,0,.07c0,0,0,.04-.02.05ZM12.1,14.55s.02-.03.04-.04v.04s-.04,0-.04,0Z"/>
        <path class="cls-2" d="M12.51,14.41s-.02,0-.02,0c-.01,0-.03.01-.03.01-.01,0-.02.01-.02.02,0,.01.01.02.02.02,0,0,0,0,.02,0v.06h-.07s-.03-.24-.03-.24c0,0,0-.02-.01-.02,0,0-.02,0-.03,0l-.02.02s-.01.02,0,.03c0,0,.01.01.02,0v.12s-.07.06-.07.11h0s0,.01,0,.02c0,0,0,.01.03.01.02,0,.04,0,.09,0l.11-.02s.02-.01.02-.02v-.12s0-.02-.01-.02ZM12.32,14.55s.01-.03.04-.04v.04s-.03,0-.04,0Z"/>
        <path class="cls-2" d="M12.6,14.43s-.02,0-.03,0,0,.02,0,.03c0,0,.06.05.04.1-.02.05-.07.05-.07.05-.01,0-.02.01-.02.03,0,.01.01.02.02.02h0s.08,0,.11-.09c.03-.08-.05-.15-.06-.15Z"/>
        <path class="cls-2" d="M13.46,14.35l-.09.02s-.04-.13-.06-.18c-.02-.04-.05-.06-.07-.06-.03,0-.06.01-.07.02-.01.01-.01.02,0,.03,0,0,.02.01.03,0,0,0,.02-.01.04,0s.03.02.04.03c.02.05.05.14.06.17l-.05.02s0,0,0,0c-.09-.04-.1-.03-.11-.02,0,0-.03.03-.04.05h-.02s-.03-.08-.07-.08c-.01,0-.03,0-.05,0,0-.02,0-.04-.01-.06,0-.01-.01-.02-.03-.02-.01,0-.02.01-.02.03,0,.02,0,.04.01.06,0,0-.01,0-.02.01-.02.01-.04.03-.04.1h-.03c0-.05-.01-.06-.03-.07,0,0-.02,0-.02,0l-.08.06s-.01.01-.01.02v.03s.02.02.04.02h.06s-.05.05-.06.05c-.01,0-.02.01-.02.02,0,.01,0,.02.02.02,0,0,.04-.01.07-.04.02-.02.03-.05.03-.07l.13-.02s.02.05.03.06c.01.01.03.02.04.02.01,0,.03,0,.04,0,.01,0,.04-.02.04-.04v-.04h.02s0,0,0,0c.02,0,.08.03.1.02.02,0,.03-.03.04-.05l.07-.03.11-.02s.02-.02.02-.03-.01-.02-.03-.02ZM12.75,14.5l.04-.03s0,.01,0,.02h-.04ZM12.92,14.47s.01-.05.02-.05h0s0,.03.01.05h-.03ZM12.98,14.4s.03,0,.04,0c.01,0,.02.02.03.05h-.05s0-.02-.01-.04ZM13.06,14.52s-.02.01-.03.01c0,0,0,0,0,0,0,0,0-.02-.01-.03h.05s0,.02,0,.02ZM13.22,14.45s-.03,0-.05-.01c0,0,.01-.02.02-.02.01,0,.03.01.04.02,0,0,0,.02,0,.02Z"/>
        <path class="cls-2" d="M12.29,14.33s-.01-.03-.03-.03c-.02,0-.03.01-.03.03,0,.01.01.03.03.03.01,0,.03-.01.03-.03Z"/>
        <path class="cls-2" d="M10.6,14.24s.03-.01.03-.03-.01-.03-.03-.03-.03.01-.03.03.01.03.03.03Z"/>
        <circle class="cls-2" cx="10.61" cy="14.45" r=".03"/>
        <circle class="cls-2" cx="10.69" cy="14.48" r=".03"/>
        <circle class="cls-2" cx="10.82" cy="14.51" r=".03"/>
        <path class="cls-2" d="M12.3,14.41s-.01-.03-.03-.03c-.02,0-.03.01-.03.03,0,.02.01.03.03.03.01,0,.03-.01.03-.03Z"/>
        <path class="cls-2" d="M12.36,14.62s-.03.01-.03.03.01.03.03.03c.01,0,.03-.01.03-.03s-.01-.03-.03-.03Z"/>
        <path class="cls-2" d="M12.43,14.61s-.03.01-.03.03.01.03.03.03c.01,0,.03-.01.03-.03s-.01-.03-.03-.03Z"/>
        <path class="cls-2" d="M13.37,14.46s-.03.01-.03.03c0,.01.01.03.03.03.02,0,.03-.01.03-.03,0-.02-.01-.03-.03-.03Z"/>
        <path class="cls-2" d="M14.1,13.99h0c0-.05,0-.1,0-.14v-.25c-.02-.11-.02-.22-.03-.33l-.08-1.72c0-.13-.01-.27-.02-.4l-.03-.67c0-.12-.07-.31-.23-.34-.25-.05-.47.07-.66.18-.04.02-.08.04-.12.06-.08.04-.25.06-.41.07-.02-.03-.04-.08-.06-.13s-.04-.11-.05-.17c-.03-.16-.02-.29-.02-.39,0-.04,0-.07,0-.1,0-.13-.02-.23-.06-.31,0,0,0-.01,0-.01-.04-.07-.1-.11-.18-.13-.07-.01-.12-.02-.15-.03-.09-.02-.11-.03-.13-.01-.02,0-.03.02-.03.03-.05-.01-.17-.04-.24-.03-.05.01-.11.03-.13.09,0,0,0,0,0,.01,0,0,0,0,0,.01-.01.03-.01.07,0,.13h0s0,0,0,0h0s0,0,0,0c0,0,0,0,0,0h0s0,0,0,0h.01s0,0,0,0h0s0,0,0,0c0,0,0,0,0,0h0s.01,0,.03-.01c.01,0,.02-.01.02-.01.02,0,.04,0,.05,0,.05.01.09.06.12.1.02.02.03.05.03.08,0,.02,0,.05.01.08,0,.07,0,.13-.01.19v.02c-.03.12-.1.39-.25.59-.17-.01-.34-.03-.43-.07-.04-.02-.08-.04-.12-.06-.19-.11-.41-.22-.66-.18-.16.03-.22.23-.23.34l-.03.67c0,.14-.01.27-.02.4l-.07,1.72c0,.11-.01.22-.01.33v.25s-.01.09-.02.13h0s0,.02,0,.03c0,0,.01,0,.01,0,0,0,.01,0,.01,0,0,0,0,0,0,0l.24-.22s.05-.05.08-.07h.01s.32-.3.32-.3h0s.01-.01.01-.01l.16-.14s.07-.06.11-.1c0,0,.01,0,.01-.01.04-.03.08-.07.12-.1l-.22.77s-.07-.03-.11-.04c-.03-.01-.06,0-.08.01h0s0,0,0,0c-.02,0-.12.02-.17.1-.02.04-.03.08-.01.13,0,.02-.01.04-.02.06-.04,0-.11.03-.17.15h-.05s-.02.01-.03.02c0,.01,0,.02.02.03h.04c0,.06.03.17.1.2,0,0,0,.02,0,.04,0,.05.02.12.11.16.11.04.83.17,1.43.16h.33c.59,0,1.28-.12,1.39-.16.09-.04.1-.11.11-.16,0-.01,0-.03,0-.04.07-.04.09-.15.1-.19h.04s.02-.03.02-.04c0-.01-.01-.02-.03-.02h-.05c-.06-.12-.13-.14-.17-.15,0-.02-.01-.04-.02-.06.01-.05,0-.1-.01-.13-.05-.08-.15-.1-.17-.1h0s0,0,0,0c-.02-.02-.05-.02-.08-.01-.04.01-.07.03-.11.04l-.22-.77s.09.08.13.12c.03.03.06.06.09.08,0,0,.01,0,.02.01l.17.16h0s.09.08.09.08l.24.22s.06.05.08.07l.25.22h0s0,0,.01,0c0,0,.01,0,.01,0,0,0,0-.01,0-.02ZM11.96,9.28s.04.02.04.04-.02.04-.04.04-.04-.02-.04-.04.02-.04.04-.04ZM11.5,10.49s.02-.03.03-.04c0-.01.02-.03.03-.04s.02-.03.02-.04c0,0,0-.01.01-.02,0,0,0-.01.01-.02,0-.02.01-.03.02-.04,0,0,0-.01,0-.01,0,0,0-.02.01-.02,0-.01,0-.02.01-.03t0,0s0-.01,0-.01c0-.01,0-.02.01-.03,0,0,0-.01,0-.02,0-.01,0-.02.01-.03,0-.02.01-.04.02-.06,0,0,0-.01,0-.01,0,0,0-.01,0-.02,0,0,0-.01,0-.02.02-.06.03-.11.04-.15v-.02c.02-.06.02-.12.02-.2,0-.03,0-.06-.01-.08,0,0,0-.01,0-.02.02-.02.06,0,.12,0-.13-.2-.21-.22-.28-.23-.06-.01-.09.03-.1.05,0,0-.01,0-.02,0,0,0,0,0,0,0,0-.02,0-.04,0-.06v-.02s0,0,0,0c0,0,0-.01.01-.02.01-.01.03-.02.05-.02.03,0,.05,0,.08,0,.02,0,.04,0,.06.02.03.03.07.06.11.08.03.02.06.04.09.04,0,0,.02.02.02.02.01.01.02.02.03.02.02,0,.04-.01.05-.03,0-.01.03-.02.04-.03.02,0,.04-.02.07-.02.03,0,.05-.01.08-.01.03,0,.07,0,.09.02,0,0,0,0,0,.01,0,.01.01.03.02.04,0,.02.01.04.02.06.01.05.02.11.02.17v.02s0,.06,0,.1c0,.11,0,.24.02.4.02.13.07.23.11.3,0,.01.01.03.02.04.01.01.02.03.03.04-.06,0-.1-.02-.13-.03-.03-.01-.04-.02-.05-.03,0,0,0,0,0,0,0-.01-.01-.03-.02-.05-.02-.05-.04-.11-.06-.16-.04-.14-.05-.38-.05-.38,0-.01-.01-.02-.02-.02s-.02.01-.02.02c0,.01.01.25.06.39.02.06.04.11.06.17,0,.01,0,.02.01.03,0,.01.01.03.02.04.01.03.02.06.03.09-.06-.01-.14-.05-.19-.09-.02-.01-.03-.02-.04-.03h0c-.03-.15-.03-.61-.03-.62,0-.01,0-.02-.02-.02-.01,0-.02,0-.02.02,0,.02,0,.45.03.61,0,0,0,0,0,.01,0,.01-.01.02-.02.03s-.03.03-.05.05c0,0-.01.02-.02.03,0,0-.01,0-.02-.01-.02-.02-.04-.04-.06-.07-.01-.01-.02-.03-.03-.04h0c.1-.15.11-.36.13-.62,0-.01,0-.02-.02-.02-.01,0-.02.01-.02.02-.01.27-.03.48-.14.63,0,.01-.02.03-.03.04-.03.03-.07.06-.11.08,0-.02.01-.05.02-.09,0-.01,0-.03,0-.04,0,0,0,0,0-.01.07-.1.15-.28.19-.59,0-.01,0-.02-.02-.02-.01,0-.02,0-.02.02-.05.35-.14.52-.22.61-.02.02-.03.03-.05.04-.02.02-.05.03-.07.04-.02,0-.05.01-.07.01.02-.02.03-.04.04-.05ZM11.22,12.97l.09.23s0,0,.01,0c0,0,.01,0,.01,0l.15-.2.07.37c-.07.11-.14.2-.17.24-.01-.04-.04-.13-.09-.25,0,0,0,0-.01-.01,0,0-.01,0-.01,0l-.16.23-.12-.4.22-.21ZM12.79,13.91l-.13-.17s0,0-.01,0-.01,0-.01.01l-.07.19c-.05,0-.09,0-.14,0l-.05-.22.06-.29q.17.25.19.24s.01,0,.01-.01c0-.01.05-.15.08-.24l.15.23-.08.29ZM12.89,13.66l.15.21c-.08.02-.15.03-.22.04l.07-.25ZM12.75,13.92c-.06,0-.11.01-.16.01l.06-.15.1.14ZM12.15,13.97s-.08.01-.1.04c-.01.01-.02.03-.02.05h-.06s0-.04-.02-.05c-.02-.03-.05-.04-.1-.04-.01-.02-.03-.04-.08-.04-.02,0-.05,0-.09,0-.02,0-.04,0-.07,0l.03-.16.07.11s.01.01.02,0l.11-.1s0,0,0,0l.09-.68-.04.69s0,0,0,.01l.1.12s.02,0,.02,0l.1-.12s0,0,0-.01l-.04-.69.09.68s0,0,0,0l.11.1s.02,0,.02,0l.07-.11.03.16s-.05,0-.07,0c-.04,0-.07,0-.09,0-.05,0-.07.03-.08.04ZM12.17,14.07h0s0,.01.01.02c0,.01.01.02.02.03,0,0,0,0,0,.01,0,.02-.03.03-.05.05,0,0-.02.01-.02.02-.02.01-.03.03-.04.04-.02-.04-.03-.08-.03-.11,0-.02,0-.04,0-.05s0-.03.01-.03c.02-.02.05-.03.07-.03,0,.02,0,.03.01.04,0,0,.01.02.02.03ZM11.94,14.12s-.01.06-.03.11c0-.01-.01-.03-.04-.04,0,0-.02-.01-.02-.02-.02-.01-.04-.03-.05-.05,0,0,0,0,0-.01,0,0,.02-.02.02-.03,0,0,0-.01,0-.02h0s.01-.02.02-.03c.01-.01.01-.02.01-.04.02,0,.05,0,.07.03,0,0,.01.02.01.03,0,.02,0,.03,0,.05ZM11.36,13.74s0-.01-.01-.01-.01,0-.01,0l-.13.17-.08-.29.15-.23c.03.1.08.23.08.24,0,0,0,.01.01.01.01,0,.01,0,.19-.24l.06.29-.05.22s-.09,0-.14,0l-.07-.19ZM11.41,13.93s-.11,0-.16-.01l.1-.14.06.15ZM11.18,13.91c-.07,0-.14-.02-.22-.04l.15-.21.07.25ZM11.58,13.38s0,0,0,0c.06-.08.11-.16.15-.22l-.1.48-.05-.26ZM11.74,12.6s.06.06.1.09l-.07.33-.1-.33.08-.09ZM11.51,12.83l-.02-.22s.09-.08.14-.12c.03.03.06.06.09.09l-.2.25ZM12.34,12.7l-.11.33-.07-.33s.07-.06.1-.09l.08.09ZM12.28,12.58s.06-.06.09-.1c.04.04.09.08.14.12l-.02.22-.2-.24ZM12.26,13.16c.04.05.09.14.15.22,0,0,0,0,0,0l-.05.26-.1-.48ZM12.42,13.34c-.06-.09-.12-.18-.18-.25l.12-.36.12.15s.01,0,.01,0c0,0,.01,0,.01-.01l.02-.23c.1.09.2.18.31.28.01.01.02.02.04.03.01.01.02.02.04.03h.01s.01.02.02.03l.03.12-.2-.2s0,0-.01,0c0,0,0,0-.01,0l-.09.23-.15-.2s0,0-.01,0c0,0-.01,0-.01.01l-.07.37ZM12.91,12.92s-.02-.02-.04-.03c0,0-.01,0-.02-.01l-.05-1.19c.03-.1.05-.21.07-.32l.06,1.59s-.02-.02-.03-.03ZM12.81,11.58c-.08.33-.24.62-.46.88-.06.07-.13.15-.21.21h0s-.01.01-.02.02c0,0-.01.01-.02.01-.01.01-.02.02-.03.03-.03.02-.05.04-.08.06-.03-.02-.05-.04-.08-.06-.01,0-.02-.02-.03-.03,0,0,0,0-.02-.01,0,0-.01-.01-.02-.01t0,0c-.07-.07-.14-.14-.21-.21-.22-.26-.38-.56-.46-.88-.03-.13-.06-.27-.07-.41v-.18c.5-.02.77-.18.85-.24.01,0,.02-.01.02-.02,0,0,.01.01.02.02.09.06.35.22.85.24v.18c0,.14-.02.28-.06.41ZM11.19,11.68l-.05,1.19s-.01.01-.01.01c-.01.01-.02.02-.04.03-.01.01-.02.02-.03.03l.06-1.59c.02.11.04.21.07.32ZM11.06,12.99h.01s.02-.03.04-.04.02-.02.04-.03c.11-.1.22-.19.32-.28l.02.23s0,.01.01.01c0,0,.01,0,.02,0l.12-.15.12.36c-.05.08-.12.17-.18.25l-.07-.37s0-.01-.01-.01c0,0-.01,0-.01,0l-.15.2-.09-.23s0,0-.01,0c0,0-.01,0-.01,0l-.2.2.03-.12s.01,0,.02-.01ZM10.98,13.23l.11.38-.16.24s-.08-.02-.12-.03l.17-.59ZM10.61,13.82h0s0,0,0,0c.02-.01.04-.01.05,0,.04.02.07.03.11.04.15.05.28.08.41.1.06,0,.11.01.17.01.02,0,.04,0,.06,0h.18s.05,0,.08,0c.04,0,.07,0,.09,0,.04,0,.06.03.07.04,0,.01,0,.03,0,.03,0,0-.01.02-.02.03,0,0,0,0-.01.01h0s-.01.02-.02.02c-.01,0-.03.01-.04.02-.08,0-.16,0-.25,0-.07,0-.14,0-.21-.02,0,0,0,0,0,0,0-.02,0-.04,0-.05,0-.04-.03-.06-.05-.08,0,0,0,0,0,0,0,0-.02-.01-.03-.01h0s-.01,0-.02,0h0s-.06.03-.07.07c0,0,0,0,0,.01,0,.02,0,.03,0,.04h0c-.06,0-.12-.02-.17-.03-.17-.03-.28-.07-.3-.08,0,0,0,0,0,0h0s0-.03,0-.04c0-.02,0-.04,0-.06,0,0,0-.02.01-.03ZM11.24,14.09s-.01.03-.02.04h0s-.01.01-.02.02c-.01.01-.03.03-.04.05,0-.01-.01-.02-.02-.03-.02-.03-.04-.06-.04-.09,0-.01,0-.02,0-.04,0,0,0-.01,0-.02,0-.02.02-.04.05-.04,0,0,0,0,.01,0s.01,0,.02,0c.02.02.04.03.04.05,0,.02,0,.04,0,.05ZM10.45,13.91s.08-.07.12-.08c0,0,0,.01,0,.02,0,.02,0,.04,0,.05,0,.02,0,.03,0,.05,0,0-.01,0-.02,0-.02,0-.03.01-.05.02-.04.02-.05.03-.07.04,0-.01,0-.03,0-.04,0-.02,0-.05.02-.07ZM13.44,13.83s.09.03.12.08c.01.02.02.05.02.07,0,.01,0,.03,0,.04-.02-.01-.03-.03-.07-.04-.01,0-.03-.01-.05-.02,0,0-.01,0-.02,0,0-.01,0-.03,0-.05,0-.02,0-.04,0-.05,0,0,0-.01,0-.02ZM13.41,13.98c.07.02.1.04.12.06.01.02.02.05.02.08,0,0,0,.01.01.02,0,0,.01,0,.02,0,0,0,.08,0,.15.13,0,0,0,0,0,0,0,.04-.02.14-.08.16,0,0-.01,0-.01.01,0,.02-.01.04-.01.06,0,.05-.01.09-.08.12-.09.04-.8.17-1.41.16h-.29c-.61,0-1.32-.12-1.41-.16-.06-.02-.07-.07-.08-.12,0-.02,0-.04-.01-.06,0,0,0-.01-.01-.01-.05-.02-.07-.12-.08-.16,0,0,0,0,0,0,.07-.14.15-.13.15-.13,0,0,.01,0,.02,0s.01-.01.01-.02c0-.03.01-.06.02-.08.02-.02.05-.04.12-.06,0,0,0,0,0,0,.01.02.23.08.49.12,0,.03.03.06.04.08.02.02.03.04.03.06,0,0,0,.01.01.02h0s.01,0,.01-.01c0-.03.03-.06.05-.07.01,0,.02-.02.02-.02h0s0-.02.01-.02c.11.01.21.02.31.02.06,0,.11,0,.17,0,.01,0,.02,0,.04-.01.01.03.04.05.07.07,0,0,.01,0,.02.01.02.02.02.02.03.04,0,0,0,.01.01.02,0,0,0,0,.01,0h0s.01,0,.01-.01c.03-.06.04-.11.04-.15h.06s.02.09.05.15c0,0,0,.01.01.01h0s.01,0,.01,0c0,0,.01-.02.01-.02,0-.01.01-.02.03-.04,0,0,.01,0,.02-.01.03-.02.06-.03.07-.07.01,0,.02,0,.04.01.05,0,.11,0,.17,0,.09,0,.2,0,.31-.02,0,0,0,.01.01.02h0s.01.02.02.03c.02.02.04.04.05.07,0,0,0,.01.01.01h0s.01,0,.01-.02c0-.02,0-.04.02-.06.02-.02.03-.05.04-.08.26-.04.48-.11.49-.12,0,0,0,0,0,0ZM12.76,14.04s.02-.04.04-.05c0,0,.02,0,.02,0,0,0,.01,0,.01,0,.02,0,.04.02.05.04,0,0,0,.01,0,.02,0,.01,0,.03,0,.04,0,.04-.02.07-.04.09,0,.01-.01.02-.02.03-.01-.02-.03-.03-.04-.05,0,0-.01-.01-.02-.02h0s-.01-.03-.02-.04c0-.02,0-.04,0-.05ZM13.22,13.85s.07-.02.11-.04c.02,0,.04,0,.05,0h0s0,0,0,0c0,.01.01.02.01.03,0,.02,0,.04,0,.06,0,.02,0,.03,0,.04h0s0,.01,0,.01c-.02,0-.13.04-.3.08-.05.01-.11.02-.17.03h0s0-.03,0-.04c0,0,0,0,0-.01-.01-.03-.03-.06-.07-.07h0s-.01,0-.02,0h-.01s-.02,0-.03.01c0,0,0,0,0,0-.02.02-.04.04-.05.08,0,.02,0,.03,0,.05h0c-.07.01-.14.02-.21.02-.09,0-.18,0-.25,0-.01,0-.03,0-.04-.02-.01,0-.02-.01-.02-.02,0,0,0,0,0,0,0,0,0-.01,0-.01,0-.01-.01-.02-.02-.03,0,0,0-.01,0-.03,0-.01.02-.03.07-.04.02,0,.05,0,.09,0,.02,0,.05,0,.07,0h.18s.04,0,.06,0c.05,0,.11,0,.17-.01.12-.02.26-.05.41-.1ZM13.18,13.83s-.08.02-.12.03l-.16-.24.11-.38.17.59ZM13,13.18l-.12.4-.16-.23s0,0-.01,0c0,0-.01,0-.01.01-.04.12-.07.21-.09.25-.03-.04-.09-.13-.17-.24l.07-.37.15.2s.01,0,.01,0c0,0,.01,0,.01,0l.09-.23.22.21ZM13.84,13.75s-.04-.04-.07-.06h-.01s-.14-3.23-.14-3.23c-.05.05-.12.12-.21.2l.12,2.82-.09-.08h-.02s-.11-2.66-.11-2.66c-.05.04-.1.07-.16.11l.1,2.37s-.06-.05-.09-.08c0,0-.01-.01-.01-.01l-.09-2.22s-.09.04-.14.06c0,0,0,0-.01,0-.54-.01-.82-.21-.88-.25,0,0,0,0-.01,0,0,0-.01,0-.02,0,0,0,0,0-.01,0-.05.04-.33.23-.88.25,0,0-.01,0-.01,0-.05-.02-.09-.04-.14-.06l-.09,2.22s0,0-.01.01c-.03.03-.06.05-.09.08l.1-2.37c-.06-.04-.12-.07-.16-.11l-.11,2.64h-.02s-.09.1-.09.1l.12-2.82c-.1-.08-.17-.15-.21-.2l-.14,3.22h-.01s-.05.05-.07.07l.14-3.35c-.06.02-.17.08-.21.11v-.02c0-.11.07-.28.2-.31.04,0,.07-.01.11-.01.19,0,.37.09.53.18.04.02.08.04.12.06.08.04.25.07.41.08-.02.02-.04.05-.06.07,0,0,0,.02,0,.03,0,0,.01.01.02.01t0,0s.02,0,.04,0c.05,0,.13-.01.21-.08,0,.04-.02.1-.02.12,0,0,0,.01,0,.02,0,0,0,0,.01,0,0,0,0,0,0,0,.08-.04.14-.08.18-.14h0s0,0,0,0c.03.04.08.09.12.12,0,0,.01,0,.01,0,0,0,0,0,0,0,0,0,.01,0,.02,0h0c.06-.07.08-.09.1-.11.06.05.19.12.26.12.01,0,.02-.01.02-.02,0-.02,0-.05-.02-.08.04.02.11.04.19.04,0,0,.01,0,.02-.01,0,0,0-.01,0-.02h0s-.02-.03-.03-.05c.08,0,.16-.02.23-.03.07-.01.13-.03.17-.05.04-.02.08-.04.12-.06.16-.09.33-.18.53-.18.03,0,.07,0,.1.01.13.02.19.19.2.31v.02s-.15-.09-.21-.11l.14,3.35Z"/>
        <path class="cls-2" d="M10.64,13.88s.1.02.14.05c0,0,0,0,0,0,0,0,.01,0,.01,0,0,0,0-.02,0-.02-.04-.03-.14-.05-.15-.05,0,0-.02,0-.02.01,0,0,0,.01.01.02Z"/>
        <path class="cls-2" d="M10.88,13.95s.12.02.15.04c0,0,0,0,0,0,0,0,.01,0,.01,0,0,0,0-.02,0-.02-.04-.02-.15-.04-.16-.04,0,0-.02,0-.02.01,0,0,0,.02.01.02Z"/>
        <path class="cls-2" d="M11.32,14.04s0,0,.02,0c.03,0,.09-.01.14,0,0,0,0,0,0,0,0,0,.01,0,.01-.01,0,0,0,0,0-.01,0,0,0,0-.01,0-.02,0-.04,0-.06,0-.04,0-.07,0-.09,0,0,0-.01,0-.01,0,0,0-.01,0-.01.01s0,.02.01.02Z"/>
        <path class="cls-2" d="M11.58,14.05h0s.1-.01.16-.01c0,0,.01,0,.01-.02s0-.01-.01-.01c-.05,0-.13.01-.15.01,0,0,0,0,0,0,0,0,0,0-.01,0,0,0,0,0,0,.01,0,0,0,.01.01.01Z"/>
        <path class="cls-2" d="M13.22,13.93s0,0,.01,0c.04-.03.13-.05.13-.05,0,0,.01,0,.01-.02s0-.01-.02-.01c0,0-.1.02-.15.05,0,0,0,.01,0,.02,0,0,0,0,.01,0Z"/>
        <path class="cls-2" d="M12.96,13.99s0,0,0,0c.03-.02.12-.03.15-.04,0,0,.01-.01.01-.02,0,0-.01-.01-.02-.01,0,0-.12.02-.16.04,0,0-.01.01,0,.02,0,0,0,0,.01,0Z"/>
        <path class="cls-2" d="M12.68,14.01s0,0-.01,0c-.02,0-.06,0-.09,0h0s-.04,0-.06,0c0,0,0,0,0,0,0,0,0,0,0,.01,0,0,0,.01.01.01,0,0,0,0,0,0,.05-.01.11,0,.14,0,0,0,.01,0,.02,0,0,0,.01,0,.01-.02s0-.01-.01-.01Z"/>
        <path class="cls-2" d="M12.43,14.03s0,0-.01,0c-.02,0-.1-.01-.15-.01,0,0-.01,0-.01.01s0,.02.01.02c.06,0,.16.01.16.01h0s.01,0,.01-.01c0,0,0,0,0-.01,0,0,0,0-.01,0Z"/>
        <path class="cls-2" d="M12.82,11.03s-.02,0-.03,0c-.02,0-.03,0-.04,0-.15-.01-.3-.04-.43-.08-.02,0-.05-.01-.07-.02-.1-.04-.18-.08-.23-.11,0,0,0,0-.01,0,0,0-.01,0-.02,0,0,0,0,0-.01,0-.06.04-.16.09-.29.14-.13.04-.27.07-.43.08-.01,0-.03,0-.04,0-.01,0-.02,0-.03,0,0,0-.01,0-.01.02,0,.11.01.22.03.33.06.39.22.74.48,1.04,0,0,0,.01,0,.01.03.04.06.07.1.11.03.03.05.05.08.08.04.04.08.07.12.11,0,0,0,0,0,0,0,0,0,0,.01,0,.04-.03.08-.07.12-.1.06-.06.12-.13.18-.19,0,0,0-.01.01-.01.16-.19.29-.4.37-.63.05-.13.08-.27.11-.41.02-.11.03-.21.03-.33,0,0,0-.02-.01-.02ZM12.31,12.39s0,.01-.01.01,0,0-.01.01c-.04.05-.08.09-.13.14-.01.01-.02.02-.03.03-.04.04-.08.07-.12.11-.04-.03-.08-.07-.12-.11-.02-.02-.05-.05-.07-.07-.03-.04-.07-.07-.1-.11,0,0,0,0-.01-.01s0,0-.01-.01v-1.41s0,0,0,0c.13-.04.22-.09.28-.13,0,0,.01-.01.02-.01,0,0,.01.01.02.01.05.03.12.07.22.11.02,0,.04.02.07.02,0,0,0,0,0,0v1.41Z"/>
      </g>
    </g>
  </g>
</svg>