<?xml version="1.0" encoding="UTF-8"?>
<svg id="Layer_1" data-name="Layer 1" xmlns="http://www.w3.org/2000/svg" viewBox="0 0 24 24">
  <defs>
    <style>
      .cls-1 {
        fill: #000;
      }

      .cls-1, .cls-2, .cls-3, .cls-4 {
        stroke-width: 0px;
      }

      .cls-2 {
        fill: #cd1223;
      }

      .cls-3 {
        fill: none;
      }

      .cls-4 {
        fill: #fff;
      }
    </style>
  </defs>
  <rect class="cls-3" width="24" height="24"/>
  <g>
    <path class="cls-1" d="M16.71,7.34c2.92,2.92,3.18,7.42.57,10.03-2.61,2.61-7.11,2.36-10.03-.57-2.92-2.92-3.18-7.42-.57-10.03,2.61-2.61,7.11-2.36,10.03.57Z"/>
    <g>
      <path class="cls-4" d="M21,12c0,.61-.06,1.2-.18,1.78-.71,3.54-3.51,6.33-7.04,7.04-.58.12-1.17.18-1.78.18s-1.21-.06-1.78-.18c-3.54-.71-6.33-3.51-7.04-7.04-.12-.58-.18-1.17-.18-1.78s.06-1.21.18-1.78c.71-3.54,3.51-6.33,7.04-7.04.58-.12,1.17-.18,1.78-.18s1.21.06,1.78.18c3.54.71,6.33,3.51,7.04,7.04.12.58.18,1.17.18,1.78Z"/>
      <path class="cls-2" d="M21,12c0,.61-.06,1.2-.18,1.78h-7.04v7.04c-.58.12-1.17.18-1.78.18s-1.21-.06-1.78-.18v-7.04H3.18c-.12-.58-.18-1.17-.18-1.78s.06-1.21.18-1.78h7.04V3.18c.58-.12,1.17-.18,1.78-.18s1.21.06,1.78.18v7.04h7.04c.12.58.18,1.17.18,1.78Z"/>
    </g>
  </g>
</svg>