<?xml version="1.0" encoding="UTF-8"?>
<svg id="Layer_1" data-name="Layer 1" xmlns="http://www.w3.org/2000/svg" viewBox="0 0 24 24">
  <defs>
    <style>
      .cls-1 {
        fill: #000;
      }

      .cls-1, .cls-2, .cls-3, .cls-4, .cls-5, .cls-6, .cls-7, .cls-8, .cls-9, .cls-10 {
        stroke-width: 0px;
      }

      .cls-2 {
        fill: #e22118;
      }

      .cls-3 {
        fill: none;
      }

      .cls-4 {
        fill: #3c990d;
      }

      .cls-5 {
        fill: #72442b;
      }

      .cls-6 {
        fill: #a2652a;
      }

      .cls-7 {
        fill: #fed618;
      }

      .cls-8 {
        fill: #0a73cc;
      }

      .cls-9 {
        fill: #fff;
      }

      .cls-10 {
        fill: #00993d;
      }
    </style>
  </defs>
  <rect class="cls-3" width="24" height="24"/>
  <g>
    <path class="cls-1" d="M16.71,7.34c2.92,2.92,3.18,7.42.57,10.03-2.61,2.61-7.11,2.35-10.03-.57-2.92-2.92-3.18-7.42-.57-10.03,2.61-2.61,7.11-2.36,10.03.57Z"/>
    <g>
      <g>
        <g>
          <path class="cls-4" d="M20.49,9H3.51c.04-.12.09-.24.14-.36.32-.8.76-1.56,1.32-2.26,0,0,0-.01.01-.02,0,0,0-.01.01-.02,0,0,0-.01.01-.01,0,0,.01-.02.02-.02,0,0,0,0,0-.01h0s.01-.02.02-.02c0,0,0,0,.01-.01,0,0,0-.01.01-.02,0,0,0,0,0,0,0,0,.01-.01.02-.02.05-.06.11-.13.17-.19.05-.05.09-.11.15-.16,0,0,0,0,.01-.01h0s.01-.02.02-.02c0,0,0,0,.01-.01,0,0,.01-.01.02-.02,0,0,0,0,.01-.01.01-.01.02-.03.04-.04,0,0,0-.01.02-.02,0,0,0-.01.02-.02,0,0,0-.01.02-.02.02-.02.04-.04.06-.06.06-.06.13-.13.2-.19.1-.1.21-.19.32-.28,0,0,0,0,.01-.01s0,0,.01-.01c0,0,0,0,.01-.01.11-.09.21-.17.32-.25,0,0,0,0,.01-.01,0,0,0,0,.01-.01s.01,0,.01-.01c.07-.05.14-.1.2-.15.21-.15.43-.3.66-.43,0,0,.01,0,.02-.01.04-.03.09-.05.13-.07,0,0,.02-.01.03-.02.03-.02.05-.03.08-.05,0,0,0,0,.01,0,.01,0,.02-.01.03-.02,1.04-.56,2.18-.91,3.33-1.03.29-.03.59-.05.89-.05h.15c1.45.01,2.9.37,4.21,1.08.33.18.65.38.97.6.39.28.77.6,1.12.95.88.88,1.55,1.91,1.98,3,.05.12.09.24.14.36Z"/>
          <path class="cls-2" d="M20.49,15c-.04.12-.09.24-.14.36-.44,1.09-1.1,2.12-1.98,3-.35.35-.73.67-1.12.95-.31.22-.63.42-.97.6-1.33.72-2.81,1.08-4.28,1.08-.32,0-.64-.02-.96-.05-1.15-.12-2.28-.47-3.33-1.03-.33-.18-.65-.38-.96-.6-.32-.23-.62-.48-.91-.76-.07-.06-.13-.13-.2-.19-.13-.13-.25-.26-.37-.39-.7-.79-1.24-1.67-1.62-2.61-.05-.12-.1-.24-.14-.36h16.98Z"/>
          <path class="cls-9" d="M21,12c0,.95-.15,1.89-.44,2.8-.02.07-.04.13-.07.2H3.51c-.02-.06-.04-.13-.06-.2-.3-.91-.45-1.85-.45-2.8s.15-1.89.45-2.8c.02-.07.04-.13.06-.2h16.98c.02.06.04.13.07.2.3.91.44,1.86.44,2.8Z"/>
        </g>
        <path class="cls-8" d="M9.75,12l-2.25,3-2.23,2.98c-.7-.79-1.24-1.67-1.62-2.61-.05-.12-.1-.24-.14-.36-.02-.06-.04-.13-.06-.2-.3-.91-.45-1.85-.45-2.8s.15-1.89.45-2.8c.02-.07.04-.13.06-.2.04-.12.09-.24.14-.36.32-.8.76-1.56,1.32-2.26,0,0,0-.01.01-.02,0,0,0-.01.01-.02,0,0,0-.01.01-.01,0,0,.01-.02.02-.02,0,0,0,0,0-.01h0s.01-.02.02-.02c0,0,0,0,.01-.01,0,0,0-.01.01-.02,0,0,0,0,0,0,0,0,.01-.01.02-.02.05-.06.11-.13.17-.19l2.23,2.98,2.25,3Z"/>
      </g>
      <g>
        <g>
          <path class="cls-10" d="M15.57,11.34s.04-.05.04-.09c0-.07-.05-.12-.16-.16,0,0,0,0,0,0,0-.06-.01-.11-.05-.14-.1-.07-.31,0-.32,0,0,0,0,0,0,0,0,0,0,0,0,0,0,0,.08-.03.15-.03,0-.04,0-.07-.01-.09-.03-.04-.09-.04-.11-.04,0,0,0,0,0,0-.03-.05-.07-.07-.11-.07-.03,0-.07.02-.1.05,0,0,0,0,0,0-.06-.03-.12,0-.15.03.01.07-.01.16-.01.16s0,0,0,0h0s0,0,0,0c0,0,.06-.2-.06-.25-.13-.05-.19.05-.24.14,0,0,0,0,0,0,0,0,0,0,0,0-.02-.02-.04-.04-.06-.04-.03,0-.05.02-.06.03,0,0,0,0,0,0,0,0,0,0,0,0,0,0,0,0,0,0,0,0,0,0,0,0,.01-.01.04-.04.07-.03.02,0,.04.01.06.04.03-.05.08-.14.16-.15,0-.06-.01-.11-.04-.15-.11-.13-.22-.11-.37-.02,0,0,0,0,0,0-.04-.01-.08,0-.1.02-.03.02-.04.07-.03.13h0s0,0,0,0h0s-.07.02-.08.06c.03,0,.06.02.09.06.04,0,.07-.01.1,0,.02.01.03.04.04.07,0,0,0,0,0,0,0,0,0,0,0,0,0-.03-.02-.05-.03-.07-.02-.02-.06-.01-.09,0,0,0,0,0,0,0-.05-.05-.09-.07-.14-.05-.06.02-.1.1-.11.17,0,0,0,0,0,0,0,0,0,0,0,0-.06,0-.09.03-.12.12,0,0,0,0,0,0-.04.02-.07.05-.08.08-.01.04,0,.08.02.11.03-.01.08-.02.14-.01,0,0,0,0,0,0,0,0,0,0,0,0-.17,0-.21.05-.25.11-.01.02-.02.03-.04.05,0,0,0,0,0,0-.09-.01-.13.03-.17.07,0,0-.01.02-.02.02,0,0,0,0,0,0-.02,0-.05,0-.06.02,0,.01,0,.03,0,.04,0,.02.02.04.04.05,0,0,.01,0,.02,0s.01,0,.02,0c.01,0,.02.01.03.02,0,0,0,0,.01,0,.03.03.08.04.12.03.04-.01.08-.05.09-.09,0,0,0,0,0,0,0,0,0,0,0,0,.02.05.11.07.15.06.01,0,.02,0,.03-.01,0-.02,0-.04.01-.06,0,0,.01-.01.02-.02,0-.04-.02-.09-.07-.08-.02,0-.05,0-.08.01,0,0,0,0,0,0,0,0,0,0,0,0,.03,0,.05-.01.08-.01.05,0,.07.03.08.09.02-.02.05-.03.08-.02,0,0,0,0,0,0,0,0,0,0,0,0,0,0-.01,0-.02,0-.02,0-.04.01-.06.03,0,0-.01.01-.02.02-.02.03-.01.06,0,.08.03.04.1.06.15.04.03-.01.06-.04.06-.08,0-.02,0-.08,0-.09,0,0,0,0,0,0,0,0,0,0,0,0,.05.02.09.01.12-.01.03-.02.03-.07.03-.1h0s0-.05,0-.05c0,0,0,0,0,0,0,0,0,0,0,0,0,0,0,.02,0,.04.02,0,.03,0,.05-.01.03-.01.05-.04.07-.08,0,0,0,0,0,0h0s.05.03.08.04c.03.01.06.01.1.01.04,0,.08-.02.13-.04,0-.06.01-.11.01-.11,0,0,0,0,0,0,0,0,0,0,0,0,0,0-.02.05-.01.11,0,.03.01.06.03.08.03.03.06.06.12.07,0,0,.02,0,.03,0,.04,0,.08,0,.12,0,0-.01,0-.02,0-.03,0-.02.01-.04.03-.05.03-.02.07-.01.09,0,0,0,0,0,0,0,0,0,0,0,0,0-.02,0-.05-.01-.08,0-.02.01-.03.03-.03.04,0,.02,0,.05.02.07.04.04.12.04.16.05.03,0,.1,0,.14-.05.04-.04.02-.09,0-.13,0,0,0,0,0,0,0,0,0,0,0,0,.02.04.02.08.01.11.07.01.23.02.27-.1-.01,0-.02,0-.03,0,0,0-.02,0-.02,0,0,0,0,0,0,0,0,0,0,0,0,0,.05,0,.09,0,.12-.03ZM13.92,11.09s0,0,0,0h0c-.04-.07-.11-.05-.11-.05,0,0,0,0,0,0,0,0,0,0,0,0,0,0,.07-.02.12.05.03-.05.07-.07.1-.08.02,0,.04,0,.05.01,0,0,0,0,0,0,0,0,0,0,0,0-.01,0-.03-.01-.04,0-.03,0-.07.04-.1.08ZM14.11,11.23s-.05.02-.06.06h0s0,.02,0,.02h0s-.08.01-.08.01t0,0s0,0,0,0,0,0,0,0c0,0,.05-.04.09-.02h0c.01-.05.02-.06.07-.07,0,0,0,0,0,0,0,0,0,0,0,0ZM14.55,11.1s-.08,0-.11.06c0,0,0,0,0,0h0s0,0,0,0c-.03-.13-.21-.14-.22-.14,0,0,0,0,0,0,0,0,0,0,0,0,.02,0,.19.01.23.14.04-.05.11-.05.11-.05,0,0,0,0,0,0,0,0,0,0,0,0ZM15.17,11.19s-.07,0-.14.05h0s0,0,0,0c-.04-.08-.1-.11-.18-.08,0,0,0,0,0,0,0,0,0,0,0,0,0,0,0,0,0,0,0,0,0,0,0,0,.08-.03.15,0,.19.08.06-.05.09-.07.15-.04,0,0,0,0,0,0,0,0,0,0,0,0ZM15.34,11.35h0s0,0,0,0c0,0,0,0,0,0,0-.05-.05-.08-.05-.08,0,0,0,0,0,0,0,0,0,0,0,0,0,0,.05.03.05.08.06-.02.07-.02.1-.01,0,0,0,0,0,0,0,0,0,0,0,0-.03,0-.04,0-.11.01Z"/>
          <path class="cls-1" d="M15.46,11.09c0-.06-.01-.11-.05-.14-.04-.03-.1-.04-.16-.03,0-.04,0-.07-.02-.09-.03-.04-.09-.05-.12-.05-.04-.05-.07-.07-.12-.07-.04,0-.07.02-.11.05-.07-.03-.12,0-.15.03-.01-.04-.03-.07-.08-.09-.03-.01-.05-.01-.08-.01,0-.06-.01-.12-.04-.16-.12-.14-.23-.11-.38-.02-.06-.02-.09,0-.11.02-.03.03-.04.07-.03.13-.05,0-.08.04-.09.07-.02,0-.03,0-.04,0-.07.02-.11.11-.12.17-.06,0-.09.03-.12.13-.05.02-.08.05-.09.09-.01.04,0,.09.02.12-.05.02-.08.06-.1.09-.01.02-.02.03-.03.05-.09-.02-.13.03-.17.07,0,0-.01.01-.02.02-.03,0-.05,0-.06.02,0,.01-.01.03,0,.05,0,.02.03.04.05.05,0,0,.01,0,.02,0,0,0,.01,0,.02,0,.01,0,.02.01.02.02,0,0,0,0,.01,0,.03.02.06.03.09.03.01,0,.03,0,.04,0,.04-.01.07-.04.09-.08.03.05.11.06.16.06.01,0,.03,0,.04-.01,0,0,0,.01.01.02.03.03.08.06.13.06.01,0,.02,0,.04,0,.04-.01.06-.05.07-.09,0,0,0-.06,0-.09.05.01.09,0,.11-.02,0,0,.01-.01.02-.02.06.06.13.17.14.35.02.29-.07,1.02-.14,1.2-.02.04-.04.09-.06.13-.05.12-.1.22-.08.27,0,.03.02.05.04.06.01,0,.02,0,.04,0,.02,0,.04,0,.06-.01.01.02.03.04.05.05.01,0,.02,0,.03,0,.03,0,.06-.01.08-.02.03-.02.05-.05.06-.06,0,0,0,0,0,0,0,.02.03.04.05.05.02.01.05.02.08.02.03,0,.06-.01.08-.03,0,0,0-.01.01-.02.02,0,.04.01.06.01.01,0,.03,0,.04,0,.02-.01.03-.03.04-.06.01-.05-.03-.15-.08-.27-.02-.04-.04-.09-.06-.13-.07-.17-.13-.82-.11-1.14.01-.22.18-.37.28-.44.01,0,.02,0,.03,0,.03,0,.05,0,.08,0,.02,0,.03,0,.05,0,0,.01.01.03.02.04.04.05.12.05.17.05h0c.06,0,.11-.02.15-.05,0,0,.01-.01.01-.02.02,0,.05,0,.09,0,.08,0,.17-.02.19-.12.02,0,.05-.01.06-.03.03-.02.04-.05.04-.09,0-.08-.05-.13-.16-.16ZM14.32,13.44s0,.04-.06.07c-.02.02-.07.03-.1.02-.02,0-.04-.02-.05-.05,0-.01,0-.03,0-.04,0-.03,0-.06.02-.1.03-.09.05-.15.07-.2.03-.08.05-.13.06-.21.02-.11.02-.2.02-.22h0s0-.01,0-.01c0,0,0,0,0,0,0,0,0,.1-.02.23-.01.07-.03.13-.06.21-.02.05-.04.12-.07.2-.02.06-.02.11-.01.15-.04.01-.07.01-.09,0-.02,0-.03-.03-.03-.05-.01-.04.03-.15.08-.26.02-.04.04-.09.06-.13.07-.18.16-.9.14-1.21-.01-.19-.08-.3-.14-.36.01-.02.01-.05.01-.08.02,0,.03,0,.05-.01.06.06.13.14.14.19v1.87ZM14.32,11.54c-.03-.05-.09-.12-.13-.17.03-.02.05-.04.06-.08.02.02.05.03.07.03v.21ZM14.42,11.9s0,.02,0,.03c-.01.31.05.94.12,1.12.02.04.04.09.06.13.05.12.09.22.08.26,0,.02-.02.04-.03.05-.02.01-.05,0-.09,0,.01-.03,0-.07,0-.1-.01-.05-.03-.09-.04-.14-.01-.03-.02-.06-.03-.08-.07-.23-.08-.47-.09-.67,0-.05,0-.1,0-.15,0-.14,0-.28,0-.42,0-.03,0-.06,0-.09,0,0,0,0,0,0,0,0,0,0,0,0,0,.08,0,.16,0,.24,0,.09,0,.18,0,.27,0,.05,0,.1,0,.15,0,.21.02.44.09.67,0,.03.02.06.03.08.01.05.03.09.04.14,0,.03.01.07,0,.1h0s0,.02-.01.02c-.03.04-.09.03-.14,0-.02-.02-.04-.03-.05-.05,0-.02,0-.03,0-.05v-2.08s.06.01.09.01v.07s0,.09,0,.16c0,0,0,0,0,0h0s0,0,0,0c.02-.07.1-.14.17-.18.02.03.06.05.11.07-.11.07-.27.23-.28.45ZM14.43,11.54c0-.05,0-.09,0-.13v-.07s.08-.02.13-.04c0,.03.01.05.03.07-.06.04-.13.1-.16.16ZM15.57,11.34s-.08.04-.12.03c0,0,0,0,0,0,0,0,0,0,0,0,0,0,.02,0,.02,0,.01,0,.02,0,.03,0-.04.12-.19.11-.27.1.01-.03,0-.07-.01-.11,0,0,0,0,0,0,0,0,0,0,0,0,.02.03.03.08,0,.13-.04.05-.11.05-.14.05-.04,0-.12,0-.16-.05-.02-.02-.03-.05-.02-.07,0-.01,0-.03.03-.04.03-.02.06-.01.08,0,0,0,0,0,0,0,0,0,0,0,0,0-.02,0-.06-.01-.09,0-.02.01-.03.03-.03.05,0,.01,0,.02,0,.03-.04,0-.08,0-.12,0-.01,0-.02,0-.03,0-.05-.01-.09-.04-.12-.07-.02-.02-.03-.05-.03-.08,0-.06.01-.11.01-.11,0,0,0,0,0,0,0,0,0,0,0,0,0,0-.02.05-.01.11-.05.02-.09.03-.13.04-.04,0-.07,0-.1-.01-.03-.01-.05-.02-.08-.04h0s0,0,0,0c-.02.04-.04.07-.07.08-.01,0-.03.01-.05.01,0-.02,0-.04,0-.04,0,0,0,0,0,0,0,0,0,0,0,0,0,0,0,.02,0,.04h0s0,.08-.03.11c-.03.02-.06.03-.12.01,0,0,0,0,0,0,0,0,0,0,0,0,0,0,0,.07,0,.09,0,.04-.03.07-.06.08-.04.02-.12,0-.15-.04-.01-.02-.03-.05,0-.08,0,0,.01-.02.02-.02.02-.01.04-.03.06-.03,0,0,.01,0,.02,0,0,0,0,0,0,0,0,0,0,0,0,0-.03,0-.06,0-.08.02,0-.06-.04-.09-.08-.09-.02,0-.05,0-.08.01,0,0,0,0,0,0,0,0,0,0,0,0,.03,0,.05-.01.08-.01.05,0,.07.04.07.08,0,0-.01.01-.02.02-.01.02-.02.04-.01.06-.01,0-.02.01-.03.01-.05,0-.13,0-.15-.06,0,0,0,0,0,0,0,0,0,0,0,0-.01.04-.05.07-.09.09-.04.01-.09,0-.12-.03,0,0,0,0-.01,0,0,0-.02-.02-.03-.02,0,0-.01,0-.02,0s-.01,0-.02,0c-.02-.01-.04-.03-.04-.05,0-.02,0-.03,0-.04.01-.01.03-.02.06-.02,0,0,0,0,0,0,0,0,.02-.02.02-.02.04-.05.08-.09.17-.07,0,0,0,0,0,0,.01-.01.03-.03.04-.05.04-.05.07-.11.25-.11,0,0,0,0,0,0,0,0,0,0,0,0-.06,0-.11,0-.14.01-.02-.03-.03-.07-.02-.11.01-.03.04-.06.08-.08,0,0,0,0,0,0,.03-.09.06-.13.12-.12,0,0,0,0,0,0,0,0,0,0,0,0,0-.06.05-.15.11-.17.04-.02.09,0,.14.05,0,0,0,0,0,0,.03,0,.07-.01.09,0,.02.01.03.03.03.07,0,0,0,0,0,0,0,0,0,0,0,0,0-.03-.02-.06-.04-.07-.03-.02-.06-.02-.1,0-.03-.04-.07-.05-.09-.06.02-.04.05-.06.08-.06h0s0,0,0,0h0c-.01-.06,0-.11.03-.13.02-.02.06-.03.1-.02,0,0,0,0,0,0,.15-.09.25-.12.37.02.03.04.05.09.04.15-.08.01-.13.09-.16.15-.02-.02-.04-.04-.06-.04-.03,0-.06.02-.07.03,0,0,0,0,0,0,0,0,0,0,0,0,0,0,0,0,0,0,0,0,0,0,0,0,.01-.01.04-.03.06-.03.02,0,.04.01.06.04,0,0,0,0,0,0,0,0,0,0,0,0,.05-.09.11-.19.24-.14.12.05.06.25.06.25,0,0,0,0,0,0h0s0,0,0,0,.03-.08.01-.16c.03-.03.08-.06.15-.03,0,0,0,0,0,0,.03-.04.06-.06.1-.05.04,0,.07.02.11.07,0,0,0,0,0,0,.02,0,.08,0,.11.04.02.02.02.05.01.09-.08,0-.15.03-.15.03,0,0,0,0,0,0,0,0,0,0,0,0,0,0,.22-.07.32,0,.03.03.05.07.05.14,0,0,0,0,0,0,.11.03.16.08.16.16,0,.04-.01.06-.04.09Z"/>
          <path class="cls-1" d="M15.45,11.32s0,0,0,0c0,0,0,0,0,0-.03,0-.04,0-.1.01h0s0,0,0,0c0-.05-.05-.08-.05-.08,0,0,0,0,0,0,0,0,0,0,0,0,0,0,.05.03.05.08.06-.02.07-.02.1-.01Z"/>
          <path class="cls-1" d="M15.17,11.18s0,0,0,0c0,0,0,0,0,0-.05-.02-.07,0-.14.05,0,0,0,0,0,0h0s0,0,0,0c-.04-.08-.1-.11-.18-.08,0,0,0,0,0,0,0,0,0,0,0,0,0,0,0,0,0,0h0c.08-.03.15,0,.19.08.06-.05.09-.07.15-.04Z"/>
          <path class="cls-5" d="M14.53,13.04c-.07-.17-.13-.8-.12-1.11,0,0,0-.02,0-.03.01-.22.18-.37.28-.45-.05-.02-.08-.04-.11-.07-.07.05-.15.12-.17.18,0,0,0,0,0,0h0s0,0,0,0c0-.06,0-.12,0-.16v-.07s-.06,0-.09-.01v2.08s0,.04,0,.05c0,.02.02.03.05.05.04.02.11.03.14,0,0,0,0-.01.01-.02h0s0-.07,0-.1c-.01-.05-.03-.09-.04-.14-.01-.03-.02-.05-.03-.08-.07-.23-.08-.47-.09-.67,0-.05,0-.1,0-.15,0-.09,0-.18,0-.27,0-.08,0-.16,0-.24,0,0,0,0,0,0,0,0,0,0,0,0,0,.03,0,.06,0,.09,0,.14,0,.28,0,.42,0,.05,0,.1,0,.15,0,.2.02.44.09.67.01.03.02.05.03.08.01.04.03.09.04.14,0,.03.01.07,0,.1.04.01.07.01.09,0,.02-.01.03-.03.03-.05.01-.04-.03-.15-.08-.26-.02-.04-.04-.09-.06-.14Z"/>
          <path class="cls-1" d="M14.55,11.08s0,0,0,0c0,0,0,0,0,0,0,0-.08,0-.11.06,0,0,0,0,0,0h0s0,0,0,0c-.03-.13-.21-.15-.22-.14,0,0,0,0,0,0,0,0,0,0,0,0,.02,0,.19.01.23.14.04-.05.11-.05.11-.05Z"/>
          <path class="cls-6" d="M14.18,11.38s-.03.01-.05.01c0,.02,0,.05-.01.08.06.06.13.17.14.36.02.3-.07,1.02-.14,1.2-.02.05-.04.09-.06.14-.05.12-.09.22-.08.26,0,.03.02.04.03.05.02.01.05,0,.09,0-.01-.04,0-.08.01-.15.03-.09.05-.15.07-.2.03-.08.05-.13.06-.21.02-.13.02-.23.02-.23,0,0,0,0,0,0,0,0,0,0,0,0h0s0,.12-.02.23c-.01.08-.03.13-.06.21-.02.05-.04.12-.07.2-.01.04-.02.07-.02.1,0,.02,0,.03,0,.04,0,.02.02.04.05.05.04.01.08,0,.1-.02.05-.04.06-.07.06-.07v-.03h0v-1.84s-.09-.13-.14-.19Z"/>
          <path class="cls-1" d="M14.12,11.22s0,0,0,0c-.04,0-.05.02-.06.06h0s0,.01,0,.02c0,0,0,0,0,0-.04-.03-.08.01-.08.01h0s0,0,0,0c0,0,.05-.04.09-.02h0c.01-.05.02-.06.07-.07,0,0,0,0,0,0Z"/>
          <path class="cls-1" d="M14.06,11.01s0,0,0,0c0,0,0,0,0,0-.01,0-.03-.01-.04,0-.03,0-.06.04-.1.08,0,0,0,0,0,0h0s0,0,0,0c-.04-.07-.11-.05-.11-.05,0,0,0,0,0,0,0,0,0,0,0,0,0,0,.07-.02.12.05.03-.05.07-.07.1-.08.02,0,.04,0,.05.01Z"/>
        </g>
        <g>
          <path class="cls-7" d="M16.43,9.91l-.12.08s0,0,0,.01v.15s-.12-.06-.12-.06c0,0,0,0-.01,0l-.12.08v-.15s-.01,0-.02,0l-.14-.06.12-.08s0,0,0-.01v-.15s.12.06.12.06c0,0,0,0,.01,0l.12-.08v.15s.02,0,.02,0l.14.06Z"/>
          <path class="cls-7" d="M15.72,9.64l-.09.11s0,0,0,.01l.05.14-.15-.03s0,0-.01,0l-.09.11-.05-.14s0,0,0,0l-.15-.03.09-.11s0,0,0-.01l-.05-.14.15.03s0,0,.01,0l.1-.11.05.14s0,0,0,0l.15.03Z"/>
          <path class="cls-7" d="M14.97,9.5l-.08.13s0,0,0,.01l.07.13h-.15s0,0-.01,0l-.08.13-.07-.13s0,0,0,0h-.15s.08-.13.08-.13c0,0,0,0,0-.01l-.07-.13h.15s0,0,0,0l.08-.13.07.13s0,0,.01,0h.15Z"/>
          <path class="cls-7" d="M14.18,9.63l.08.13h-.15s0,0-.01.01l-.07.13-.08-.13s0,0,0,0h-.15s.07-.13.07-.13c0,0,0,0,0-.01l-.08-.13h.15s0,0,0,0l.07-.13.08.13s0,0,.01,0h.15s-.07.13-.07.13c0,0,0,0,0,.01Z"/>
          <path class="cls-7" d="M13.44,9.71l.09.11-.15.03s0,0-.01,0l-.05.14-.09-.11s0,0,0,0h0l-.15.03.05-.14s0,0,0-.01l-.1-.11.15-.03s0,0,.01,0l.05-.14.09.11s0,0,.01,0l.15-.03-.05.14s0,0,0,.01Z"/>
          <path class="cls-7" d="M12.86,9.95l-.13.06s0,0,0,0v.15s-.14-.08-.14-.08c0,0,0,0,0,0h0l-.13.06v-.15s.01,0,0-.01l-.12-.08.14-.06s0,0,0,0v-.15s.14.08.14.08c0,0,0,0,.01,0l.14-.06v.15s-.01,0,0,.01l.12.08Z"/>
          <path class="cls-1" d="M16.46,9.91s0,0,0-.01l-.15-.07v-.16s-.02,0-.02-.01c0,0,0,0,0,0l-.13.09-.15-.07s0,0-.01,0c0,0,0,0,0,.01v.16s-.12.09-.12.09c0,0,0,0,0,.01s0,0,0,.01l.15.07v.16s.02,0,.02.01h0s0,0,0,0l.13-.09.15.07s0,0,.01,0,0,0,0-.01v-.16s.12-.09.12-.09c0,0,0,0,0-.01ZM16.31,9.99s0,0,0,.01v.15s-.12-.06-.12-.06c0,0,0,0-.01,0l-.12.08v-.15s-.01,0-.02-.01l-.14-.06.12-.08s0,0,0-.01v-.15s.12.06.12.06c0,0,0,0,.01,0l.12-.08v.15s.02,0,.02,0l.13.06-.12.08Z"/>
          <path class="cls-1" d="M15.76,9.63s0,0,0,0l-.16-.03-.05-.15s0,0,0,0c0,0,0,0-.01,0l-.1.12-.16-.03s0,0-.01,0,0,0,0,.01l.05.15-.1.13s0,0,0,.01c0,0,0,0,0,0l.16.03.06.15s0,0,0,0h0s0,0,0,0l.11-.12.16.03s0,0,0,0c0,0,0,0,0-.01l-.06-.15.11-.12s0,0,0-.01ZM15.63,9.76s0,0,0,.01l.05.14-.15-.03s0,0,0,0l-.1.11-.05-.14s0,0,0,0l-.15-.03.09-.11s0,0,0-.01l-.05-.14.15.03s0,0,.01,0l.1-.11.05.14s0,0,0,0l.15.03-.09.11Z"/>
          <path class="cls-1" d="M15,9.48s0,0-.01,0h-.16s-.08-.15-.08-.15c0,0,0,0-.01,0s0,0-.01,0l-.08.14h-.16s0,0,0,0c0,0,0,0,0,.01l.08.14-.08.14s0,0,0,.01,0,0,0,0h.16s.08.15.08.15c0,0,0,0,0,0,0,0,0,0,0,0l.08-.14h.16s0,0,0,0,0,0,0-.01l-.08-.14.08-.14s0,0,0-.01ZM14.9,9.63s0,0,0,.01l.07.13h-.15s0,0-.01,0l-.08.13-.07-.13s0,0,0,0h-.15s.08-.13.08-.13c0,0,0,0,0-.01l-.07-.13h.15s0,0,.01,0l.08-.13.07.13s0,0,.01,0h.15s-.08.13-.08.13Z"/>
          <path class="cls-1" d="M14.2,9.62l.08-.14s0,0,0-.01c0,0,0,0,0,0h-.16s-.08-.14-.08-.14c0,0,0,0-.01,0s0,0-.01,0l-.08.14h-.16s0,0,0,0c0,0,0,0,0,.01l.08.14-.08.14s0,0,0,.01,0,0,.01,0h.16s.08.13.08.13c0,0,0,0,.01,0s0,0,0,0l.08-.14h.16s0,0,.01-.01,0,0,0-.01l-.08-.14ZM14.11,9.76s0,0-.01,0l-.07.13-.08-.13s0,0-.01,0h-.15s.07-.13.07-.13c0,0,0,0,0-.01l-.08-.13h.15s0,0,0,0l.07-.13.08.13s0,0,.01,0h.15s-.07.13-.07.13c0,0,0,0,0,.01l.08.13h-.15Z"/>
          <path class="cls-1" d="M13.57,9.83l-.1-.13.05-.15s0,0,0-.01c0,0,0,0-.01,0l-.16.03-.11-.12s0,0-.01,0c0,0,0,0,0,0l-.06.15-.16.03s0,0,0,0c0,0,0,0,0,.01l.1.12-.05.15s0,0,0,.01c0,0,0,0,.01,0l.16-.03.1.12s0,0,0,0h0s0,0,.01,0l.05-.15.16-.03s0,0,.01,0c0,0,0,0,0-.01ZM13.39,9.85s0,0-.01,0l-.05.14-.09-.11s0,0,0,0h0l-.15.03.05-.14s0,0,0-.01l-.1-.11.15-.03s0,0,0,0l.05-.14.09.11s0,0,.01,0l.15-.03-.05.14s0,0,0,.01l.1.11-.15.03Z"/>
          <path class="cls-1" d="M12.89,9.95l-.13-.09v-.16s.01,0,0-.01c0,0,0,0-.01,0l-.15.07-.13-.09s0,0-.01,0c0,0,0,0,0,.01v.16s-.16.07-.16.07c0,0,0,0,0,.01,0,0,0,0,0,.01l.13.09v.16s-.01,0-.01.01c0,0,0,0,.01,0l.15-.07.13.09s0,0,0,0h0s0,0,0-.01v-.16s.16-.07.16-.07c0,0,0,0,0-.01,0,0,0,0,0-.01ZM12.73,10.02s0,0,0,.01v.15s-.13-.08-.13-.08c0,0,0,0,0,0h0l-.14.06v-.15s.01,0,0-.01l-.12-.08.13-.06s0,0,0,0v-.15s.13.08.13.08c0,0,0,0,.01,0l.14-.06v.15s-.01,0,0,.01l.12.08-.13.06Z"/>
        </g>
        <g>
          <path class="cls-1" d="M15.82,10.17h-2.88s-.01,0-.01.01v3.06c0,.29.23.52.53.52h.51c.1,0,.2.04.27.1l.14.12s0,0,0,0c0,0,0,0,0,0l.14-.12c.08-.06.17-.1.27-.1h.51c.29,0,.52-.23.52-.52v-3.06s0-.01-.01-.01ZM15.81,13.24c0,.28-.23.5-.5.5h-.51c-.11,0-.21.04-.29.1l-.13.11-.13-.11c-.08-.07-.18-.1-.29-.1h-.51c-.28,0-.5-.23-.5-.5v-3.05h2.86v3.05Z"/>
          <g>
            <path class="cls-1" d="M16.45,13.4c.2-.12.15-.31.12-.46,0-.01,0-.03-.01-.04-.04-.16-.09-.46-.09-.46,0,0,0-.01-.01-.01,0,0-.01,0-.01.01,0,0-.04.25-.27.45-.04.04-.08.09-.1.15-.01.03-.02.08-.01.1,0,0,.01.01.02.01l.17.28s-.03.04-.04.05c-.08.1-.16.17-.25.21-.02,0-.04.02-.05.02-.18.08-.35.16-.77.13-.17-.01-.23,0-.26.02-.02.02-.01.04,0,.07h0v.25c-.24.06-.48.04-.49.04h0s-.25.02-.49-.04v-.24h0s0-.06-.01-.08c-.02-.03-.08-.03-.26-.02-.41.03-.58-.04-.76-.13-.02,0-.04-.02-.05-.02-.09-.04-.17-.11-.25-.21-.01-.01-.03-.03-.04-.05l.17-.28s.02,0,.02-.01c.01-.02,0-.07-.01-.1-.02-.05-.05-.1-.1-.15-.23-.2-.27-.44-.27-.45,0,0,0-.01-.01-.01,0,0-.01,0-.01.01,0,0-.06.31-.09.46,0,.01,0,.03-.01.04-.04.14-.08.34.12.46-.02.06-.05.12-.08.18-.02.04-.02.09,0,.14.07.15.19.28.34.37.2.13.44.2.75.23.1,0,.19.01.28.02v.17h0s0,0,0,0h0s0,0,0,0h0s0,0,0,0c.2.14.52.16.68.16.05,0,.09,0,.09,0,0,0,.04,0,.09,0,.16,0,.47-.02.68-.16h0s0,0,0,0h0v-.17c.09,0,.18-.01.28-.02.31-.03.56-.1.75-.23.15-.09.27-.23.34-.37.02-.04.02-.09,0-.14-.03-.07-.06-.13-.08-.18ZM16.08,13.12s0,0,0,0c0-.01,0-.04.01-.08.02-.05.05-.1.09-.14.17-.15.24-.33.27-.41.02.09.06.29.08.41,0,.01,0,.03.01.04.03.14.08.32-.1.43-.03-.08-.05-.16-.05-.22h0s0-.01,0-.01c0-.01,0-.02,0-.03-.01-.04-.04-.06-.08-.07-.04-.01-.08.01-.12.03h0s-.02.01-.02.02c-.02.01-.03.02-.05.03,0,0-.01,0-.02,0ZM16.1,13.14s0,0,0,0c.02,0,.04-.02.06-.03,0,0,.02-.01.02-.02h0s.06-.04.1-.03c.03,0,.05.03.06.06,0,0,0,.01,0,.02,0,0,0,0,0,0h0s0,.05,0,.07c-.02.06-.05.12-.1.19l-.15-.26ZM12.5,13.4c-.05-.07-.08-.13-.1-.19,0-.02,0-.04,0-.06h0s0-.03,0-.04c0-.03.03-.05.06-.06.03-.01.07.01.1.03h0s.02.01.02.02c.02.01.03.02.06.03h0s-.15.26-.15.26ZM12.21,12.94s0-.03.01-.04c.03-.12.07-.32.08-.41.03.08.1.26.27.41.04.04.07.09.09.14.01.04.02.07.01.08,0,0,0,0,0,0,0,0-.01,0-.02,0-.02,0-.04-.02-.05-.03-.01,0-.02-.01-.02-.02h0s-.07-.05-.12-.03c-.04.01-.06.04-.08.07,0,0,0,.02,0,.03h0s0,.01,0,.01h0c0,.07-.02.14-.05.22-.18-.11-.14-.29-.1-.43ZM13.6,14.05h0v.26c-.08,0-.18-.01-.28-.02-.31-.03-.55-.1-.74-.23-.14-.09-.26-.22-.33-.37-.02-.04-.02-.08,0-.12.03-.07.06-.13.08-.2h0c.02-.06.04-.12.05-.17.02.06.05.13.11.2h0s.03.04.05.06c.09.1.17.17.26.22.02,0,.03.01.05.02.18.09.36.17.78.13.16-.01.22,0,.24.01,0,0,0,.02,0,.05-.12.02-.26.05-.27.13ZM13.87,13.94v.23c-.1-.03-.18-.06-.25-.1h0c.01-.08.17-.11.25-.12ZM15.13,14.5c-.27.18-.75.15-.75.15h0s-.48.03-.76-.15v-.41c.07.04.15.08.25.1.16.04.32.05.41.05.05,0,.08,0,.09,0,0,0,.04,0,.09,0,.1,0,.26,0,.41-.05.1-.02.19-.06.25-.1v.41ZM15.13,14.07c-.06.04-.15.08-.24.1v-.23c.08.01.23.04.24.11h0ZM16.51,13.71c-.07.14-.19.27-.33.37-.19.12-.44.2-.74.23-.1,0-.19.01-.28.02v-.26h0s-.04-.07-.09-.09c-.05-.02-.11-.03-.17-.04,0-.03,0-.04,0-.05.02-.02.08-.02.24-.01.42.03.59-.04.78-.13.02,0,.04-.02.05-.02.09-.04.18-.11.26-.22.01-.02.03-.04.05-.06.05-.07.09-.14.11-.2.01.05.03.11.05.17h0c.02.06.05.13.08.2.02.04.02.08,0,.12Z"/>
            <g>
              <path class="cls-1" d="M12.65,13.7l-.11.11s-.02.02-.02.02c-.01,0-.02,0-.03,0-.01-.01-.01-.02-.01-.03,0,0,0-.01.02-.02l.11-.12-.03-.03-.12.12s-.03.04-.03.06.01.04.03.05c.02.02.04.03.06.03.02,0,.03-.01.05-.03l.11-.12-.03-.03Z"/>
              <path class="cls-1" d="M12.8,13.81l-.03.04s0,.02-.02.03c0,0,0,.01-.01.01,0,0,0,0,0,0l-.03.06s0-.02,0-.02,0,0,0-.01c0,0,0,0,0-.01,0,0,0,0,0-.01,0,0,0-.01,0-.02,0,0,0-.01,0-.02l.02-.09-.04-.03-.13.19.04.03.03-.03.03-.06.03-.06s-.02.07-.02.1l-.02.09.04.03.13-.19-.04-.03Z"/>
              <path class="cls-1" d="M12.88,13.86l-.11.21.04.02.11-.21-.04-.02Z"/>
              <path class="cls-1" d="M13.07,13.94s-.01-.01-.02-.02l-.1-.03-.07.22.08.03h.02s.01,0,.02,0c.02,0,.03-.02.05-.04,0,0,0-.01.01-.03,0-.01.01-.02.01-.04,0,0,0,0,0-.01,0,0,0-.01,0-.01,0-.03,0-.06-.01-.08ZM13.03,14.04s-.02.06-.03.06c-.01.01-.02.01-.04,0h-.02s.05-.16.05-.16h.03s.02.03.02.05c0,0,0,.02-.01.05Z"/>
              <path class="cls-1" d="M13.24,13.97h-.06s-.1.21-.1.21h.05s.02-.05.02-.05h.05s0,.07,0,.07h.05s-.01-.23-.01-.23ZM13.2,14.02h0v.08s-.04,0-.04,0l.02-.06s0-.01,0-.02c0,0,0,0,0,0,0,0,0,0,0,0h0s0-.01,0-.01v.03Z"/>
              <path class="cls-1" d="M13.45,14s-.02-.01-.03-.01h-.1s-.02.22-.02.22h.09s.02.01.02.01c0,0,.01,0,.02,0,.02,0,.03-.02.04-.05,0,0,0-.02,0-.03,0-.01,0-.02,0-.04,0,0,0,0,0-.01,0,0,0,0,0-.01,0-.04,0-.06-.03-.07ZM13.42,14.1s0,.06-.01.07c0,.01-.02.02-.04.01h-.02s.02-.17.02-.17h.03s.03.01.03.03c0,0,0,.02,0,.05Z"/>
            </g>
            <g>
              <path class="cls-1" d="M15.34,13.99h-.05s0,.18,0,.18c0,.01,0,.01,0,.02,0,0,0,0-.01,0,0,0-.01,0-.01,0,0,0,0,0,0-.01v-.03h-.05s0,.03,0,.03c0,.01,0,.02,0,.02.01.02.03.02.05.02.01,0,.02,0,.03,0,.02,0,.03-.01.03-.03,0-.01,0-.02,0-.03v-.18Z"/>
              <path class="cls-1" d="M15.53,13.97h-.05s.02.16.02.16c0,.01,0,.02,0,.03,0,.01-.01.01-.03.02-.01,0-.03,0-.03-.01,0,0,0-.02,0-.03l-.02-.16h-.05s.02.17.02.17c0,.03,0,.05.02.06s.04.01.06.01c.03,0,.05-.01.06-.03.01-.01.01-.03.01-.06l-.02-.16Z"/>
              <path class="cls-1" d="M15.75,14.11s-.01-.03-.03-.04c-.01,0-.02-.01-.03-.01h-.03s-.02-.02-.02-.02c0,0-.01-.01-.01-.02,0,0,0-.01,0-.02s.01,0,.02,0c.02,0,.03,0,.04.04h.04s-.01-.04-.02-.05c-.01-.02-.04-.02-.07-.02-.05.01-.07.03-.06.07,0,.01,0,.02.02.03,0,0,.02,0,.02.01,0,0,.01,0,.02,0,.01,0,.02.01.03.01,0,0,.01,0,.01,0,.01,0,.02.01.02.03,0,.02,0,.03-.02.03-.01,0-.02,0-.02,0,0,0-.01-.01-.01-.03h0s-.05,0-.05,0v.02s.02.04.03.05c.02.01.04.01.06,0,.02,0,.04-.01.05-.03.01-.01.02-.03.01-.05Z"/>
              <path class="cls-1" d="M15.84,13.94l.05-.02v-.03s-.16.05-.16.05v.03s.06-.02.06-.02l.06.19h.05s-.06-.2-.06-.2Z"/>
              <path class="cls-1" d="M15.94,13.86l-.04.02.11.21.04-.02-.1-.21Z"/>
              <path class="cls-1" d="M16.19,13.89h0s-.04.02-.04.02c.01.01.02.02.02.03,0,.01,0,.02,0,.03-.01,0-.02.01-.04,0,0,0-.01-.01-.02-.02l-.04-.06s-.01-.02-.01-.03c0-.01,0-.02.01-.03,0,0,.02,0,.03,0,0,0,0,0,0,0,0,0,0,0,0,0h.01s.04-.01.04-.01h0s0,0,0,0h0s-.06-.04-.09-.01c-.03.02-.04.04-.04.06,0,.02.01.04.03.07l.02.03s.04.05.06.05c.02.01.04,0,.07-.02.02-.01.03-.03.03-.05,0-.01,0-.03-.02-.05Z"/>
              <path class="cls-1" d="M16.15,13.7l-.03.03.16.17.03-.03-.16-.17Z"/>
              <path class="cls-1" d="M16.25,13.6l-.04.05.13.2.03-.04-.03-.05.04-.04.05.03.03-.04-.21-.12ZM16.32,13.73l-.04-.06s0,0-.01-.01c0,0,0,0,0,0,0,0,0,0,0,0h0s0-.01,0-.01l.02.02s0,0,0,0c0,0,0,0,0,0l.06.04-.03.03Z"/>
            </g>
            <g>
              <path class="cls-1" d="M14.27,14.36s-.02-.02-.04-.03h-.1s-.02.22-.02.22h.05s0-.09,0-.09h.03s.02,0,.03,0c.02,0,.04-.01.04-.03,0-.01,0-.02,0-.03,0-.02,0-.04,0-.05ZM14.2,14.43h-.03s0-.07,0-.07h.02s.02,0,.03,0c0,0,0,.01,0,.03,0,.02-.02.03-.04.03Z"/>
              <path class="cls-1" d="M14.42,14.34h-.06l-.06.23h.05v-.06h.07v.06s.06,0,.06,0l-.06-.23ZM14.36,14.48v-.07s.02-.01.02-.01c0,0,0,0,0-.01h0s0-.02,0-.02c0,0,0,0,0,0v.03s0,0,0,.01h0s.01.07.01.07h-.04Z"/>
              <path class="cls-1" d="M14.65,14.52h-.08s-.01.01-.01.01l.08-.18v-.03s-.14.01-.14.01v.03s.08,0,.08,0h.01s-.08.17-.08.17v.03s.15-.02.15-.02v-.03Z"/>
            </g>
          </g>
        </g>
      </g>
    </g>
  </g>
</svg>