<?xml version="1.0" encoding="UTF-8"?>
<svg id="Layer_1" data-name="Layer 1" xmlns="http://www.w3.org/2000/svg" viewBox="0 0 24 24">
  <defs>
    <style>
      .cls-1 {
        fill: #4289db;
      }

      .cls-1, .cls-2, .cls-3, .cls-4, .cls-5, .cls-6 {
        stroke-width: 0px;
      }

      .cls-2 {
        fill: #000;
      }

      .cls-3 {
        fill: none;
      }

      .cls-4 {
        fill: #fec62d;
      }

      .cls-5 {
        fill: #e90736;
      }

      .cls-6 {
        fill: #0bac2f;
      }
    </style>
  </defs>
  <rect class="cls-3" width="24" height="24"/>
  <g>
    <path class="cls-2" d="M16.71,7.34c2.92,2.92,3.18,7.42.57,10.03-2.61,2.61-7.11,2.35-10.03-.57-2.92-2.92-3.18-7.42-.57-10.03,2.61-2.61,7.11-2.36,10.03.57Z"/>
    <g>
      <g>
        <path class="cls-6" d="M21,12L6.6,4.8c1.5-1.13,3.37-1.8,5.4-1.8,3.32,0,6.23,1.81,7.79,4.5.77,1.32,1.21,2.86,1.21,4.5Z"/>
        <path class="cls-1" d="M21,12c0,1.64-.44,3.18-1.21,4.5-1.56,2.69-4.47,4.5-7.79,4.5-2.02,0-3.89-.67-5.4-1.8l14.4-7.2Z"/>
        <path class="cls-5" d="M21,12l-14.4,7.2c-.97-.73-1.79-1.64-2.4-2.7-.77-1.33-1.21-2.86-1.21-4.5s.44-3.18,1.21-4.5c.61-1.05,1.43-1.97,2.4-2.7l14.4,7.2Z"/>
      </g>
      <path class="cls-4" d="M9.52,15.94c0-.3-.29-.55-.67-.58.71.02,1.43-.05,2.11-.28.26-.09.51-.19.74-.33.06-.04.11-.07.17-.12.02-.02.14-.1.14-.13,0-.05-.55-.1-.61-.07,1.67-.95,1.58-1.65,1.58-1.95-.08.32-.52.71-.89.95,1.05-1.45.81-1.77.6-2.17-.11.44-.16.52-.32.67.51-1.68.07-2.25-.09-2.41.08.6-.02.77-.09.9,0-.4-.12-1.04-.27-1.34-.16-.3-.25-.3-.43-.34.04.04.1.13.18.36.08.23.06.39.06.66-.06-.14-.14-.27-.23-.39-.1-.13-.22-.22-.34-.33-.13-.12-.21-.31-.32-.45-.1-.13-.22-.24-.34-.36-.2-.21-.58-.43-.58-.43,0,0,0,.14.1.43.11.29.35.47.45.58-.17-.02-.38-.24-.55-.41-.18-.18-.26-.07-.56,0-.31.07-.28.02-.39.02.06.11.06.1.19.23-.08.04-.2,0-.36-.06.13.31.58.39.8.39s.31-.03.5-.03.18.03.53.2c-.11.05-.42.03-.6-.02.18.26.51.31.78.31s.26-.16.4-.07c.14.09.37.54.51.77-.14.06-.33-.12-.42-.31-.09-.19-.15-.27-.26-.33-.03-.02-.03.21-.03.22,0,.09.02.18.04.26.04.16.11.34.22.47.11.12.25.2.37.31-.03.18.07.56.13.73.06.17.21.35.26.51.05.15.03.29.03.45-.03-.03-.18-.18-.28-.38-.11-.2-.09-.44-.09-.58,0,.01-.11.1-.12.12-.03.04-.06.09-.08.14-.04.11-.03.24,0,.36.03.12.09.24.11.37.02.11.01.21-.04.31-.04.07-.08.15-.09.23-.02.11-.05.26-.05.39s-.21.33-.21.33c.04-.04,0-.41,0-.41,0,.02-.08.09-.09.11-.05.06-.1.11-.16.17-.11.12-.21.25-.27.41-.05.13-.09.26-.16.38-.12.2-.36.25-.58.29-.31.06-.58.18-.77.28-.1.05-.2.07-.27.08,0-.53.11-.67.11-.67,0,0,.07-.14.2-.19.92-.17.79-.7.72-.81-.1.2-.17.2-.4.3.51-.45.45-.78.37-.91-.05.21-.26.36-.45.48.16-.46,0-.41-.08-.4-.27.16-.39.68-.46,1-.08-.66-.2-.86-.24-1.12-.05-.26.21-.35.35-.35.99.29,1-.34.98-.49-.24.27-.59.21-.73.18.66-.6.31-.87.21-.97,0,.32-.28.55-.5.69-.07-.15-.05-.56-.02-.69-.16.15-.23.47-.33.8.03-1.05.21-.97.34-.97.85.24.99-.29.97-.43-.3.23-.34.16-.48.16.59-.35.5-.67.44-.82-.2.29-.24.26-.44.32,0-.2.11-.33.28-.5-.51-.13-.62.33-.73.57-.03-.2-.07-.34-.12-.59.35-.59-.06-.76-.21-.81-.09.2-.03.36.01.48-.44-.22-.63-.12-.75,0,.23.24.36.21.69.14-.1.21-.3.19-.55.12.23.41.55.32.63.32.05.05.08.31.08.5s-.33.57-.33.57c0,0,0-.38-.06-.53-.06-.15-.24-.4-.37-.3-.13.09.03.32.12.51-.25-.11-.38-.48-.47-.64-.12.35.08.8.18.98-.09.09-.27-.15-.33-.21,0,.48.25.67.38.75.14.09.46-.03.46-.03,0,0,0,.71.02,1.34-.25-.41-.55-.61-.78-.71-.03.2.07.31.27.64-.13-.03-.39-.19-.59-.32,0,.28.33.56.69.78-.36-.05-.62-.22-.69-.29.03,1.07,1.26.63,1.26.63l.11,1.5c-.32-.07-.57-.16-.78-.19-.7-.14-1.24-1.38-1.24-1.38,0,0,0,.03-.07.24-.13-.42-.41-.78-.41-.78,0,0,.02.28,0,.59-.28-.51-.06-.72.03-1.04s-.21-.89-.21-.89c0,0-.1.44-.24.75-.06-.53.23-.99.26-1.08s.07-.31.02-.44c-.09.09-.11.21-.24.39,0-.53.5-.75.67-.92.33-.33.22-.55.17-.71-.14.07-.46.55-.56.65,0-.16.08-.28.27-.57s.52-.36,1.02-.41c.5-.06.41-.11.53-.23-.13.07-.55.04-.55.04,0,0-.07-.16.61-.19.68-.03.67-.19.72-.3-.5.08-.57.03-.87,0,.22-.03.91-.27,1.31-.47-.48-.33-1.49.26-1.79.42.18-.14.42-.44.48-.6-.28,0-.53.24-.71.43-.21.22-.4.47-.55.74-.05.09-.12.16-.2.22-.14.11-.24.23-.33.38.14-.29.16-.77.23-1.12-.49.22-.6.87-.6,1.3s0,.4-.1,1c0-.84-.07-.97-.2-1.21-.37.75-.11,1.84,0,2.39-.13-.13-.23-.39-.36-.76-.34.79.42,1.77.77,2.22-.35-.16-.78-.65-1-.98,0,.3.08.67.47,1.06.39.39.75.54,1.13.8-.73-.37-.93-.18-1.02-.08.02-.02.17.04.2.04.08.03.17.06.25.1.16.07.32.13.47.21.2.11.35.27.55.37.11.05.22.09.33.13.38.11.78.14,1.17.17.14,0,.28.01.42.02-.4.02-.72.27-.72.59h1.54Z"/>
    </g>
  </g>
</svg>