<?xml version="1.0" encoding="UTF-8"?>
<svg id="Layer_1" data-name="Layer 1" xmlns="http://www.w3.org/2000/svg" viewBox="0 0 24 24">
  <defs>
    <style>
      .cls-1 {
        fill: #028832;
      }

      .cls-1, .cls-2, .cls-3, .cls-4, .cls-5, .cls-6 {
        stroke-width: 0px;
      }

      .cls-2 {
        fill: #000;
      }

      .cls-3 {
        fill: none;
      }

      .cls-4 {
        fill: #d9131a;
      }

      .cls-5 {
        fill: #1447ad;
      }

      .cls-6 {
        fill: #fbdc1d;
      }
    </style>
  </defs>
  <rect class="cls-3" width="24" height="24"/>
  <g>
    <path class="cls-2" d="M16.71,7.34c2.92,2.92,3.18,7.42.57,10.03-2.61,2.61-7.11,2.36-10.03-.57-2.92-2.92-3.18-7.42-.57-10.03,2.61-2.61,7.11-2.36,10.03.57Z"/>
    <g>
      <g>
        <path class="cls-1" d="M20.48,9H3.51c1.24-3.49,4.57-6,8.48-6s7.25,2.51,8.48,6Z"/>
        <path class="cls-4" d="M20.48,15c-1.24,3.49-4.57,6-8.48,6s-7.25-2.51-8.48-6h16.97Z"/>
        <path class="cls-6" d="M21,12c0,1.05-.18,2.06-.52,3H3.51c-.34-.94-.51-1.95-.51-3s.18-2.06.51-3h16.97c.33.94.52,1.95.52,3Z"/>
      </g>
      <g>
        <path class="cls-5" d="M18,12c0,3.32-2.69,6-6,6s-6.01-2.69-6.01-6,2.69-6.01,6.01-6.01,6,2.69,6,6.01Z"/>
        <g>
          <g>
            <polygon class="cls-6" points="10.6 12.89 10.72 12.97 11.51 13.55 11.88 13.28 10.86 12.53 10.75 12.45 10.37 12.18 8.9 11.11 8.16 11.11 10.23 12.62 9.14 15.98 9.74 15.54 9.97 14.83 10.6 12.89"/>
            <polygon class="cls-6" points="14.03 14.83 12.37 13.63 12.49 13.55 13.28 12.97 13.14 12.53 12.11 13.28 12 13.36 11.63 13.63 10.16 14.7 9.93 15.41 12 13.9 14.86 15.98 14.63 15.27 14.03 14.83"/>
            <polygon class="cls-6" points="13.63 12.18 13.58 12.05 13.28 11.11 12.82 11.11 13.21 12.32 13.25 12.45 13.39 12.89 13.96 14.62 14.56 15.05 13.77 12.62 16.63 10.54 15.88 10.54 15.28 10.98 13.63 12.18"/>
            <polygon class="cls-6" points="12.63 10.54 12.49 10.54 11.51 10.54 11.37 10.98 12.63 10.98 12.77 10.98 13.23 10.98 15.05 10.98 15.65 10.54 13.09 10.54 12 7.17 11.77 7.89 12 8.59 12.63 10.54"/>
            <polygon class="cls-6" points="9.12 10.98 10.76 10.98 10.72 11.11 10.42 12.05 10.79 12.32 11.18 11.11 11.22 10.98 11.37 10.54 11.93 8.81 11.7 8.1 10.91 10.54 7.37 10.54 7.97 10.98 8.72 10.98 9.12 10.98"/>
          </g>
          <g>
            <rect class="cls-6" x="11.89" y="14.24" width=".21" height="2.59"/>
            <g>
              <polygon class="cls-6" points="14.73 8.11 14.9 8.23 13.38 10.33 13.21 10.2 14.73 8.11"/>
              <polygon class="cls-6" points="9.1 8.23 9.27 8.11 10.79 10.2 10.62 10.33 9.1 8.23"/>
            </g>
            <g>
              <polygon class="cls-6" points="16.6 13.42 16.53 13.63 14.07 12.83 14.14 12.62 16.6 13.42"/>
              <polygon class="cls-6" points="7.46 13.63 7.4 13.42 9.86 12.62 9.93 12.83 7.46 13.63"/>
            </g>
          </g>
        </g>
      </g>
    </g>
  </g>
</svg>