<?xml version="1.0" encoding="UTF-8"?>
<svg id="Layer_1" data-name="Layer 1" xmlns="http://www.w3.org/2000/svg" viewBox="0 0 24 24">
  <defs>
    <style>
      .cls-1 {
        fill: #063397;
      }

      .cls-1, .cls-2, .cls-3, .cls-4 {
        stroke-width: 0px;
      }

      .cls-2 {
        fill: #000;
      }

      .cls-3 {
        fill: none;
      }

      .cls-4 {
        fill: #fecb17;
      }
    </style>
  </defs>
  <rect class="cls-3" width="24" height="24"/>
  <g>
    <path class="cls-2" d="M16.71,7.34c2.92,2.92,3.18,7.42.57,10.03-2.61,2.61-7.11,2.36-10.03-.57-2.92-2.92-3.18-7.42-.57-10.03,2.61-2.61,7.11-2.36,10.03.57Z"/>
    <g>
      <path class="cls-1" d="M12,21c-4.96,0-9-4.04-9-9S7.04,3,12,3s9,4.04,9,9-4.04,9-9,9Z"/>
      <g>
        <g>
          <g>
            <polygon class="cls-4" points="9.39 15.73 9.59 16.33 10.22 16.33 9.71 16.7 9.9 17.3 9.39 16.93 8.88 17.3 9.08 16.7 8.57 16.33 9.2 16.33 9.39 15.73"/>
            <polygon class="cls-4" points="14.61 15.73 14.8 16.33 15.44 16.33 14.93 16.7 15.12 17.3 14.61 16.93 14.1 17.3 14.29 16.7 13.78 16.33 14.41 16.33 14.61 15.73"/>
          </g>
          <g>
            <polygon class="cls-4" points="9.39 6.7 9.59 7.3 10.22 7.3 9.71 7.67 9.9 8.27 9.39 7.9 8.88 8.27 9.08 7.67 8.57 7.3 9.2 7.3 9.39 6.7"/>
            <polygon class="cls-4" points="14.61 6.7 14.8 7.3 15.44 7.3 14.93 7.67 15.12 8.27 14.61 7.9 14.1 8.27 14.29 7.67 13.78 7.3 14.41 7.3 14.61 6.7"/>
          </g>
        </g>
        <g>
          <g>
            <polygon class="cls-4" points="16.52 8.6 16.71 9.21 17.34 9.21 16.83 9.58 17.03 10.18 16.52 9.81 16.01 10.18 16.2 9.58 15.69 9.21 16.32 9.21 16.52 8.6"/>
            <polygon class="cls-4" points="7.48 8.6 7.68 9.21 8.31 9.21 7.8 9.58 7.99 10.18 7.48 9.81 6.97 10.18 7.17 9.58 6.66 9.21 7.29 9.21 7.48 8.6"/>
          </g>
          <g>
            <polygon class="cls-4" points="16.52 13.82 16.71 14.42 17.34 14.42 16.83 14.79 17.03 15.39 16.52 15.02 16.01 15.39 16.2 14.79 15.69 14.42 16.32 14.42 16.52 13.82"/>
            <polygon class="cls-4" points="7.48 13.82 7.68 14.42 8.31 14.42 7.8 14.79 7.99 15.39 7.48 15.02 6.97 15.39 7.17 14.79 6.66 14.42 7.29 14.42 7.48 13.82"/>
          </g>
        </g>
        <g>
          <g>
            <polygon class="cls-4" points="12 6 12.19 6.6 12.82 6.6 12.31 6.97 12.51 7.57 12 7.2 11.49 7.57 11.68 6.97 11.17 6.6 11.8 6.6 12 6"/>
            <polygon class="cls-4" points="12 16.43 12.19 17.03 12.82 17.03 12.31 17.4 12.51 18 12 17.63 11.49 18 11.68 17.4 11.17 17.03 11.8 17.03 12 16.43"/>
          </g>
          <g>
            <polygon class="cls-4" points="17.21 11.21 17.41 11.81 18.04 11.81 17.53 12.18 17.73 12.78 17.21 12.41 16.7 12.78 16.9 12.18 16.39 11.81 17.02 11.81 17.21 11.21"/>
            <polygon class="cls-4" points="6.79 11.21 6.98 11.81 7.61 11.81 7.1 12.18 7.3 12.78 6.79 12.41 6.28 12.78 6.47 12.18 5.96 11.81 6.59 11.81 6.79 11.21"/>
          </g>
        </g>
      </g>
    </g>
  </g>
</svg>