<?xml version="1.0" encoding="UTF-8"?>
<svg id="Layer_1" data-name="Layer 1" xmlns="http://www.w3.org/2000/svg" viewBox="0 0 24 24">
  <defs>
    <style>
      .cls-1 {
        fill: #000;
      }

      .cls-1, .cls-2, .cls-3, .cls-4, .cls-5 {
        stroke-width: 0px;
      }

      .cls-2 {
        fill: #0865bb;
      }

      .cls-3 {
        fill: none;
      }

      .cls-4 {
        fill: #fff;
      }

      .cls-5 {
        fill: #ec2938;
      }
    </style>
  </defs>
  <rect class="cls-3" width="24" height="24"/>
  <g>
    <path class="cls-1" d="M16.71,7.34c2.92,2.92,3.18,7.42.57,10.03-2.61,2.61-7.11,2.36-10.03-.57-2.92-2.92-3.18-7.42-.57-10.03,2.61-2.61,7.11-2.36,10.03.57Z"/>
    <g>
      <path class="cls-4" d="M21,12c0,.33-.02.66-.05.98-.04.36-.1.71-.18,1.06-.93,3.98-4.51,6.96-8.77,6.96h-.45c-.36-.03-.71-.07-1.05-.13-.69-.12-1.35-.31-1.97-.57-.37-.15-.72-.33-1.06-.53-2.1-1.23-3.67-3.29-4.23-5.73-.08-.35-.14-.7-.18-1.06-.04-.32-.05-.65-.05-.98s.02-.66.05-.99c.04-.36.1-.71.18-1.05.57-2.44,2.13-4.5,4.23-5.73.34-.2.69-.37,1.06-.53.62-.26,1.28-.46,1.97-.57.35-.06.7-.1,1.05-.12h0s.45-.01.45-.01c4.26,0,7.84,2.98,8.77,6.96.08.34.14.69.18,1.05.04.32.05.65.05.99Z"/>
      <g>
        <path class="cls-2" d="M21,12c0,.33-.02.66-.05.98-.04.36-.1.71-.18,1.06h-9.22v6.95c-.36-.02-.71-.06-1.05-.12-.69-.12-1.35-.31-1.97-.57-.37-.15-.72-.33-1.06-.53v-5.73H3.23c-.08-.35-.14-.7-.18-1.06-.04-.32-.05-.65-.05-.98s.02-.66.05-.99c.04-.36.1-.71.18-1.05h4.23v-5.73c.34-.2.69-.37,1.06-.53.62-.26,1.28-.46,1.97-.57.35-.06.7-.1,1.05-.12v6.95h9.22c.08.34.14.69.18,1.05.04.32.05.65.05.99Z"/>
        <path class="cls-5" d="M21,12c0,.33-.02.66-.05.98h-10.45v7.89c-.69-.12-1.35-.31-1.97-.57v-7.32H3.05c-.04-.32-.05-.65-.05-.98s.02-.66.05-.99h5.47V3.7c.62-.26,1.28-.46,1.97-.57v7.89h10.45c.04.32.05.65.05.99Z"/>
      </g>
    </g>
  </g>
</svg>