<?xml version="1.0" encoding="UTF-8"?>
<svg id="Layer_1" data-name="Layer 1" xmlns="http://www.w3.org/2000/svg" viewBox="0 0 24 24">
  <defs>
    <style>
      .cls-1 {
        fill: #000;
      }

      .cls-1, .cls-2, .cls-3, .cls-4 {
        stroke-width: 0px;
      }

      .cls-2 {
        fill: none;
      }

      .cls-3 {
        fill: #04357f;
      }

      .cls-4 {
        fill: #fff;
      }
    </style>
  </defs>
  <rect class="cls-2" width="24" height="24"/>
  <g>
    <path class="cls-1" d="M16.71,7.34c2.92,2.92,3.18,7.42.57,10.03-2.61,2.61-7.11,2.36-10.03-.57-2.92-2.92-3.18-7.42-.57-10.03,2.61-2.61,7.11-2.36,10.03.57Z"/>
    <g>
      <path class="cls-4" d="M21,12c0,.85-.12,1.67-.34,2.45-1.04,3.67-4.36,6.4-8.32,6.54h0s-.34,0-.34,0c-1.66,0-3.22-.45-4.56-1.24-1.97-1.16-3.47-3.06-4.11-5.31-.22-.78-.34-1.6-.34-2.45s.12-1.67.34-2.45c.64-2.25,2.13-4.15,4.11-5.31,1.34-.79,2.89-1.24,4.56-1.24h.34c3.97.16,7.28,2.88,8.32,6.55.22.78.34,1.6.34,2.45Z"/>
      <path class="cls-3" d="M21,12c0,.85-.12,1.67-.34,2.45h-8.32v6.55h-.34c-1.66,0-3.22-.45-4.56-1.24v-5.31H3.34c-.22-.78-.34-1.6-.34-2.45s.12-1.67.34-2.45h4.11v-5.31c1.34-.79,2.89-1.24,4.56-1.24h.34v6.55h8.32c.22.78.34,1.6.34,2.45Z"/>
    </g>
  </g>
</svg>