<?xml version="1.0" encoding="UTF-8"?>
<svg id="Layer_1" data-name="Layer 1" xmlns="http://www.w3.org/2000/svg" viewBox="0 0 24 24">
  <defs>
    <style>
      .cls-1 {
        fill: #028832;
      }

      .cls-1, .cls-2, .cls-3, .cls-4, .cls-5 {
        stroke-width: 0px;
      }

      .cls-2 {
        fill: #000;
      }

      .cls-3 {
        fill: #d91219;
      }

      .cls-4 {
        fill: none;
      }

      .cls-5 {
        fill: #fbdc1d;
      }
    </style>
  </defs>
  <rect class="cls-4" width="24" height="24"/>
  <g>
    <path class="cls-2" d="M16.71,7.34c2.92,2.92,3.18,7.42.57,10.03-2.61,2.61-7.11,2.36-10.03-.57-2.92-2.92-3.18-7.42-.57-10.03,2.61-2.61,7.11-2.36,10.03.57Z"/>
    <g>
      <g>
        <path class="cls-1" d="M21,12c0,1.84-.56,3.56-1.52,4.99l-6.24-4.16-2.68-1.79-6.04-4.03c1.61-2.42,4.37-4.01,7.49-4.01,4.96,0,9,4.04,9,9Z"/>
        <path class="cls-5" d="M19.48,16.99c-1.61,2.42-4.37,4.01-7.48,4.01-4.96,0-9-4.04-9-9,0-1.84.56-3.56,1.52-4.99l6.04,4.03,2.68,1.79,6.24,4.16Z"/>
      </g>
      <polygon class="cls-3" points="12 9 12.66 11.04 14.8 11.04 13.07 12.3 13.73 14.33 12 13.07 10.27 14.33 10.93 12.3 9.2 11.04 11.34 11.04 12 9"/>
    </g>
  </g>
</svg>