<?xml version="1.0" encoding="UTF-8"?>
<svg id="Layer_1" data-name="Layer 1" xmlns="http://www.w3.org/2000/svg" viewBox="0 0 24 24">
  <defs>
    <style>
      .cls-1 {
        fill: #000;
      }

      .cls-1, .cls-2, .cls-3, .cls-4, .cls-5 {
        stroke-width: 0px;
      }

      .cls-2 {
        fill: #062493;
      }

      .cls-3 {
        fill: none;
      }

      .cls-4 {
        fill: #fff;
      }

      .cls-5 {
        fill: #ec2938;
      }
    </style>
  </defs>
  <rect class="cls-3" width="24" height="24"/>
  <g>
    <path class="cls-1" d="M16.71,7.34c2.92,2.92,3.18,7.42.57,10.03-2.61,2.61-7.11,2.35-10.03-.57-2.92-2.92-3.18-7.42-.57-10.03,2.61-2.61,7.11-2.36,10.03.57Z"/>
    <g>
      <g>
        <path class="cls-2" d="M21,12c0,4.96-4.04,9-9,9S3,16.96,3,12c0-.55.05-1.09.15-1.61.01-.06.02-.13.03-.19.45-2.19,1.69-4.09,3.42-5.39,1.05-.79,2.27-1.35,3.6-1.62.58-.12,1.19-.18,1.8-.18s1.21.06,1.8.18c.06.01.13.03.19.04,4.01.91,7.01,4.5,7.01,8.78Z"/>
        <g>
          <path class="cls-4" d="M13.99,3.22v7.17H3.15c.01-.06.02-.13.03-.19.45-2.19,1.69-4.09,3.42-5.39,1.05-.79,2.27-1.35,3.6-1.62.58-.12,1.19-.18,1.8-.18s1.21.06,1.8.18c.06.01.13.03.19.04Z"/>
          <g>
            <path class="cls-4" d="M10.2,3.18v7.02h-3.6v-5.39c1.05-.79,2.27-1.35,3.6-1.62Z"/>
            <path class="cls-2" d="M6.6,4.81v5.39h-3.42c.45-2.19,1.69-4.09,3.42-5.39Z"/>
            <path class="cls-5" d="M13.8,3.18v7.02h-3.6V3.18c.58-.12,1.19-.18,1.8-.18s1.21.06,1.8.18Z"/>
          </g>
        </g>
      </g>
      <g>
        <path class="cls-4" d="M15.48,15.45v-1.58h.68l.5-.83h-1.18v-.49h1.51l.5-.83h-4.85l.5.83h1.52v2.9l-1.14-1.76-1.48,2.35h.71l.15-.26h1.22l.95,1.69.95-1.69h1.22l.15.26h.71l-1.48-2.35-1.14,1.76ZM13.21,15.22l.3-.53.3.53h-.6ZM16.92,15.22h-.6l.3-.53.3.53Z"/>
        <polygon class="cls-4" points="12.05 13.58 12.54 13.22 11.94 13.22 11.75 12.64 11.56 13.22 10.95 13.22 11.44 13.58 11.26 14.15 11.75 13.8 12.24 14.15 12.05 13.58"/>
        <polygon class="cls-4" points="19.17 13.22 18.57 13.22 18.38 12.64 18.19 13.22 17.59 13.22 18.07 13.58 17.89 14.15 18.38 13.8 18.87 14.15 18.68 13.58 19.17 13.22"/>
        <polygon class="cls-4" points="13.45 17.26 13.27 16.68 13.08 17.26 12.47 17.26 12.96 17.62 12.78 18.19 13.27 17.84 13.76 18.19 13.57 17.62 14.06 17.26 13.45 17.26"/>
        <polygon class="cls-4" points="17.05 17.26 16.86 16.68 16.67 17.26 16.07 17.26 16.56 17.62 16.37 18.19 16.86 17.84 17.35 18.19 17.16 17.62 17.65 17.26 17.05 17.26"/>
        <polygon class="cls-4" points="15.25 18.61 15.06 18.03 14.87 18.61 14.27 18.61 14.76 18.96 14.57 19.54 15.06 19.18 15.55 19.54 15.37 18.96 15.86 18.61 15.25 18.61"/>
      </g>
    </g>
  </g>
</svg>