<?xml version="1.0" encoding="UTF-8"?>
<svg id="Layer_1" data-name="Layer 1" xmlns="http://www.w3.org/2000/svg" viewBox="0 0 24 24">
  <defs>
    <style>
      .cls-1 {
        fill: #000;
      }

      .cls-1, .cls-2, .cls-3, .cls-4 {
        stroke-width: 0px;
      }

      .cls-2 {
        fill: none;
      }

      .cls-3 {
        fill: #ff0302;
      }

      .cls-4 {
        fill: #fff;
      }
    </style>
  </defs>
  <rect class="cls-2" width="24" height="24"/>
  <g>
    <path class="cls-1" d="M16.72,7.34c2.92,2.92,3.17,7.42.57,10.03-2.61,2.61-7.11,2.35-10.03-.57-2.92-2.92-3.18-7.42-.57-10.03,2.61-2.61,7.11-2.35,10.03.57Z"/>
    <g>
      <path class="cls-4" d="M21,12c0,.62-.06,1.22-.18,1.81-.72,3.52-3.5,6.3-7.01,7.01-.58.12-1.19.18-1.81.18s-1.22-.06-1.8-.18c-3.52-.72-6.29-3.49-7.01-7.01-.12-.58-.18-1.19-.18-1.81s.06-1.22.18-1.8c.72-3.52,3.49-6.29,7.01-7.01.58-.12,1.19-.18,1.8-.18s1.22.06,1.81.18c3.52.72,6.29,3.5,7.01,7.01.12.58.18,1.19.18,1.8Z"/>
      <path class="cls-3" d="M21,12c0,.62-.06,1.22-.18,1.81h-7.01v7.01c-.58.12-1.19.18-1.81.18s-1.22-.06-1.8-.18v-7.01H3.18c-.12-.58-.18-1.19-.18-1.81s.06-1.22.18-1.8h7.01V3.18c.58-.12,1.19-.18,1.8-.18s1.22.06,1.81.18v7.01h7.01c.12.58.18,1.19.18,1.8Z"/>
      <g>
        <path class="cls-3" d="M9.05,7.54c0-.15.02-.61.02-.61,0,0-.72.09-1.27.14.05-.55.14-1.27.14-1.27,0,0-.45.02-.61.02s-.61-.02-.61-.02c0,0,.1.72.14,1.27-.55-.05-1.27-.14-1.27-.14,0,0,.02.45.02.61s-.02.61-.02.61c0,0,.72-.09,1.27-.14-.05.55-.14,1.27-.14,1.27,0,0,.46-.02.61-.02s.61.02.61.02c0,0-.09-.72-.14-1.27.55.05,1.27.14,1.27.14,0,0-.02-.45-.02-.61Z"/>
        <path class="cls-3" d="M9.05,16.41c0-.15.02-.61.02-.61,0,0-.72.09-1.27.14.05-.55.14-1.27.14-1.27,0,0-.45.02-.61.02s-.61-.02-.61-.02c0,0,.1.72.14,1.27-.55-.05-1.27-.14-1.27-.14,0,0,.02.46.02.61s-.02.61-.02.61c0,0,.72-.09,1.27-.14-.05.55-.14,1.27-.14,1.27,0,0,.46-.02.61-.02s.61.02.61.02c0,0-.09-.72-.14-1.27.55.05,1.27.14,1.27.14,0,0-.02-.45-.02-.61Z"/>
        <path class="cls-3" d="M18.38,16.41c0-.15.02-.61.02-.61,0,0-.72.09-1.27.14.05-.55.14-1.27.14-1.27,0,0-.45.02-.61.02s-.61-.02-.61-.02c0,0,.09.72.14,1.27-.55-.05-1.27-.14-1.27-.14,0,0,.02.46.02.61s-.02.61-.02.61c0,0,.72-.09,1.27-.14-.05.55-.14,1.27-.14,1.27,0,0,.46-.02.61-.02s.61.02.61.02c0,0-.09-.72-.14-1.27.55.05,1.27.14,1.27.14,0,0-.02-.45-.02-.61Z"/>
        <path class="cls-3" d="M18.38,7.54c0-.15.02-.61.02-.61,0,0-.72.09-1.27.14.05-.55.14-1.27.14-1.27,0,0-.45.02-.61.02s-.61-.02-.61-.02c0,0,.09.72.14,1.27-.55-.05-1.27-.14-1.27-.14,0,0,.02.45.02.61s-.02.61-.02.61c0,0,.72-.09,1.27-.14-.05.55-.14,1.27-.14,1.27,0,0,.46-.02.61-.02s.61.02.61.02c0,0-.09-.72-.14-1.27.55.05,1.27.14,1.27.14,0,0-.02-.45-.02-.61Z"/>
      </g>
    </g>
  </g>
</svg>