<?xml version="1.0" encoding="UTF-8"?>
<svg id="Layer_1" data-name="Layer 1" xmlns="http://www.w3.org/2000/svg" viewBox="0 0 24 24">
  <defs>
    <style>
      .cls-1 {
        fill: #ce1126;
      }

      .cls-1, .cls-2, .cls-3, .cls-4, .cls-5 {
        stroke-width: 0px;
      }

      .cls-2 {
        fill: #000;
      }

      .cls-3 {
        fill: #fcd116;
      }

      .cls-4 {
        fill: none;
      }

      .cls-5 {
        fill: #006b3f;
      }
    </style>
  </defs>
  <rect class="cls-4" width="24" height="24"/>
  <g>
    <path class="cls-2" d="M16.71,7.34c2.92,2.92,3.18,7.42.57,10.03-2.61,2.61-7.11,2.36-10.03-.57-2.92-2.92-3.18-7.42-.57-10.03,2.61-2.61,7.11-2.36,10.03.57Z"/>
    <g>
      <g>
        <path class="cls-1" d="M12,3c-3.91,0-7.25,2.51-8.48,6h16.97c-1.24-3.49-4.57-6-8.48-6Z"/>
        <path class="cls-3" d="M21,12c0-1.05-.18-2.06-.52-3H3.52c-.33.94-.52,1.95-.52,3s.18,2.06.52,3h16.97c.33-.94.52-1.95.52-3Z"/>
        <path class="cls-5" d="M3.52,15c1.24,3.49,4.57,6,8.48,6s7.25-2.51,8.48-6H3.52Z"/>
      </g>
      <polygon class="cls-2" points="12 9 12.74 11.29 15.15 11.29 13.2 12.71 13.95 15 12 13.58 10.05 15 10.79 12.71 8.84 11.29 11.25 11.29 12 9"/>
    </g>
  </g>
</svg>