<?xml version="1.0" encoding="UTF-8"?>
<svg id="Layer_1" data-name="Layer 1" xmlns="http://www.w3.org/2000/svg" viewBox="0 0 24 24">
  <defs>
    <style>
      .cls-1 {
        fill: #000;
      }

      .cls-1, .cls-2, .cls-3, .cls-4 {
        stroke-width: 0px;
      }

      .cls-2 {
        fill: none;
      }

      .cls-3 {
        fill: #115ead;
      }

      .cls-4 {
        fill: #fff;
      }
    </style>
  </defs>
  <rect class="cls-2" width="24" height="24"/>
  <g>
    <path class="cls-1" d="M16.71,7.34c2.92,2.92,3.18,7.43.57,10.03-2.61,2.61-7.11,2.36-10.04-.57-2.92-2.92-3.18-7.42-.57-10.03,2.61-2.61,7.11-2.36,10.04.57Z"/>
    <g>
      <g>
        <path class="cls-4" d="M20.95,13c-.08.69-.23,1.36-.46,2H3.52c-.23-.64-.38-1.31-.46-2h17.89Z"/>
        <path class="cls-3" d="M20.48,15c-.25.71-.59,1.38-1,2H4.52c-.42-.62-.76-1.29-1.01-2h16.97Z"/>
        <path class="cls-4" d="M19.48,17c-.51.76-1.12,1.43-1.83,2H6.35c-.71-.57-1.32-1.24-1.83-2h14.96Z"/>
        <path class="cls-3" d="M17.65,19c-1.55,1.25-3.51,2-5.65,2s-4.11-.75-5.65-2h11.3Z"/>
        <path class="cls-3" d="M17.65,5H6.35c.52-.42,1.09-.78,1.69-1.08,1.19-.59,2.54-.92,3.96-.92h.04c2.12.01,4.07.76,5.61,2Z"/>
        <path class="cls-3" d="M21,12c0,.34-.02.67-.05,1H3.05c-.04-.33-.05-.66-.05-1s.02-.67.05-1h17.89c.04.33.05.66.05,1Z"/>
        <path class="cls-4" d="M19.48,7H4.52c.43-.64.94-1.23,1.52-1.74.1-.09.2-.18.31-.26h11.3c.71.57,1.32,1.24,1.83,2Z"/>
        <path class="cls-3" d="M20.49,9H3.51c.25-.71.59-1.38,1.01-2h0s14.96,0,14.96,0c.41.62.75,1.29,1.01,2Z"/>
        <path class="cls-4" d="M20.95,11H3.05c.08-.69.23-1.36.46-2h16.97c.23.64.38,1.31.46,2Z"/>
      </g>
      <g>
        <path class="cls-3" d="M12.04,3v10H3.05c-.04-.33-.05-.66-.05-1s.02-.67.05-1c.08-.69.23-1.36.46-2,.25-.71.59-1.38,1.01-2h0c.43-.64.94-1.23,1.52-1.74.1-.09.2-.18.31-.26.52-.42,1.09-.78,1.69-1.08,1.19-.59,2.54-.92,3.96-.92h.04Z"/>
        <path class="cls-4" d="M12.04,7v2H3.51c.25-.71.59-1.38,1.01-2h7.52Z"/>
        <path class="cls-4" d="M8.04,3.92v9.08h-2v-7.74c.1-.09.2-.18.31-.26.52-.42,1.09-.78,1.69-1.08Z"/>
      </g>
    </g>
  </g>
</svg>