<?xml version="1.0" encoding="UTF-8"?>
<svg id="Layer_1" data-name="Layer 1" xmlns="http://www.w3.org/2000/svg" viewBox="0 0 24 24">
  <defs>
    <style>
      .cls-1 {
        fill: #cf0d32;
      }

      .cls-1, .cls-2, .cls-3, .cls-4 {
        stroke-width: 0px;
      }

      .cls-2 {
        fill: #000;
      }

      .cls-3 {
        fill: none;
      }

      .cls-4 {
        fill: #fff;
      }
    </style>
  </defs>
  <rect class="cls-3" width="24" height="24"/>
  <g>
    <path class="cls-2" d="M16.71,7.34c2.92,2.92,3.18,7.42.57,10.03-2.61,2.61-7.11,2.36-10.03-.57-2.92-2.92-3.18-7.42-.57-10.03,2.61-2.61,7.11-2.36,10.03.57Z"/>
    <g>
      <g>
        <path class="cls-4" d="M12,3C7.04,3,3,7.04,3,12h18c0-4.96-4.04-9-9-9Z"/>
        <path class="cls-1" d="M12,21c4.96,0,9-4.04,9-9H3c0,4.96,4.04,9,9,9Z"/>
      </g>
      <g>
        <path class="cls-1" d="M14.9,12c0-2.67-2.17-4.84-4.84-4.84s-4.84,2.17-4.84,4.84v.02h9.67v-.02Z"/>
        <path class="cls-4" d="M10.06,16.84c2.66,0,4.83-2.16,4.84-4.82H5.23c0,2.66,2.17,4.82,4.84,4.82Z"/>
      </g>
    </g>
  </g>
</svg>