<?xml version="1.0" encoding="UTF-8"?>
<svg id="Layer_1" data-name="Layer 1" xmlns="http://www.w3.org/2000/svg" viewBox="0 0 24 24">
  <defs>
    <style>
      .cls-1 {
        fill: #000;
      }

      .cls-1, .cls-2, .cls-3, .cls-4, .cls-5 {
        stroke-width: 0px;
      }

      .cls-2 {
        fill: #00795e;
      }

      .cls-3 {
        fill: #fbd023;
      }

      .cls-4 {
        fill: none;
      }

      .cls-5 {
        fill: #cd1225;
      }
    </style>
  </defs>
  <rect class="cls-4" width="24" height="24"/>
  <g>
    <path class="cls-1" d="M16.71,7.34c2.92,2.92,3.18,7.42.57,10.03-2.61,2.61-7.11,2.35-10.03-.57-2.92-2.92-3.18-7.42-.57-10.03,2.61-2.61,7.11-2.36,10.03.57Z"/>
    <g>
      <g>
        <g>
          <path class="cls-3" d="M17.06,6.94c-.06-.06-.12-.12-.19-.18-2.74-2.55-7.01-2.55-9.75,0-.06.06-.13.12-.19.18l5.06,5.06,5.06-5.06Z"/>
          <path class="cls-2" d="M6.94,6.94h0c-.53.53-.96,1.13-1.29,1.76-1.07,2.06-1.07,4.53,0,6.59.33.63.76,1.23,1.29,1.76l5.06-5.06-5.06-5.06Z"/>
          <path class="cls-2" d="M18.35,8.7c-.33-.63-.76-1.23-1.29-1.76h0l-5.06,5.06,5.06,5.06c.53-.53.96-1.13,1.29-1.76,1.07-2.06,1.07-4.53,0-6.59Z"/>
          <path class="cls-3" d="M6.94,17.06h0c.06.06.12.12.18.18,2.74,2.55,7.01,2.55,9.75,0,.06-.06.12-.12.18-.18h0s-5.06-5.06-5.06-5.06l-5.06,5.06Z"/>
        </g>
        <g>
          <path class="cls-5" d="M13.75,12c0,.29-.07.56-.2.8-.29.56-.88.94-1.55.94s-1.26-.38-1.55-.94c-.13-.24-.2-.52-.2-.81s.07-.56.2-.8c.29-.56.87-.94,1.55-.94s1.26.38,1.55.94c.13.24.2.51.2.8Z"/>
          <polygon class="cls-3" points="12 10.4 12.36 11.51 13.52 11.51 12.58 12.19 12.94 13.29 12 12.61 11.06 13.29 11.42 12.19 10.48 11.51 11.64 11.51 12 10.4"/>
        </g>
      </g>
      <g>
        <path class="cls-3" d="M7.83,12.59s-.08.2-.08.2c-.06-.03-.12-.14-.16-.19-.05-.07-.1-.15-.16-.22-.02-.03-.05-.05-.07-.08-.05-.06-.12-.11-.18-.15-.02-.01-.34-.17-.34-.16-.03.18,0,.37.03.55,0,.01,0,.03,0,.04.02.09.05.19.08.28.03.1.1.22.12.32-.19.02-.43-.1-.58-.2-.17-.11-.33-.25-.41-.44-.16-.38-.04-.86.02-1.25.02-.13.04-.25.05-.38,0-.02.03-.18.02-.19.14.08.29.15.44.22.32.14.66.27.93.52.31.28.46.72.31,1.12Z"/>
        <path class="cls-5" d="M7.42,13.01c-.2-.09-.4-.27-.55-.42,0-.01,0-.03,0-.04-.03-.18-.05-.37-.03-.55,0-.01.32.14.34.16.06.05.13.1.18.15.09.32.06.57.06.71Z"/>
      </g>
      <g>
        <path class="cls-5" d="M18.37,5.63c-3.51-3.51-9.22-3.51-12.73,0-3.51,3.51-3.51,9.22,0,12.73,3.51,3.51,9.22,3.51,12.73,0,3.51-3.51,3.51-9.22,0-12.73ZM18.35,15.3c-.33.64-.76,1.23-1.29,1.76-.06.06-.12.12-.18.18-2.74,2.55-7.01,2.55-9.75,0-.06-.06-.12-.12-.18-.18-.53-.53-.96-1.13-1.29-1.76-1.07-2.06-1.07-4.53,0-6.59.33-.63.76-1.23,1.29-1.76.06-.06.12-.12.19-.18,2.74-2.55,7.01-2.55,9.75,0,.06.06.13.12.19.18.53.53.96,1.13,1.29,1.76,1.07,2.06,1.07,4.54,0,6.59Z"/>
        <g>
          <polygon class="cls-3" points="12 3.08 12.21 3.73 12.9 3.73 12.34 4.13 12.56 4.79 12 4.38 11.44 4.79 11.66 4.13 11.1 3.73 11.79 3.73 12 3.08"/>
          <g>
            <polygon class="cls-3" points="6.1 5.29 6.69 5.65 7.21 5.2 7.06 5.87 7.65 6.22 6.96 6.28 6.81 6.95 6.54 6.32 5.85 6.38 6.37 5.93 6.1 5.29"/>
            <polygon class="cls-3" points="17.9 5.29 17.31 5.65 16.79 5.2 16.95 5.87 16.36 6.22 17.04 6.28 17.19 6.95 17.46 6.32 18.15 6.38 17.63 5.93 17.9 5.29"/>
          </g>
        </g>
        <g>
          <polygon class="cls-3" points="12 20.91 11.79 20.26 11.1 20.26 11.66 19.86 11.44 19.2 12 19.61 12.56 19.2 12.34 19.86 12.9 20.26 12.21 20.26 12 20.91"/>
          <g>
            <polygon class="cls-3" points="17.9 18.7 17.31 18.35 16.79 18.8 16.95 18.12 16.36 17.77 17.04 17.71 17.19 17.04 17.46 17.67 18.15 17.61 17.63 18.07 17.9 18.7"/>
            <polygon class="cls-3" points="6.1 18.7 6.69 18.35 7.21 18.8 7.06 18.12 7.65 17.77 6.96 17.71 6.81 17.04 6.54 17.67 5.85 17.61 6.37 18.07 6.1 18.7"/>
          </g>
        </g>
      </g>
    </g>
  </g>
</svg>