<?xml version="1.0" encoding="UTF-8"?>
<svg id="Layer_1" data-name="Layer 1" xmlns="http://www.w3.org/2000/svg" viewBox="0 0 24 24">
  <defs>
    <style>
      .cls-1 {
        fill: #000;
      }

      .cls-1, .cls-2, .cls-3, .cls-4, .cls-5 {
        stroke-width: 0px;
      }

      .cls-2 {
        fill: #007f0a;
      }

      .cls-3 {
        fill: none;
      }

      .cls-4 {
        fill: #052586;
      }

      .cls-5 {
        fill: #fbdc1d;
      }
    </style>
  </defs>
  <rect class="cls-3" width="24" height="24"/>
  <g>
    <path class="cls-1" d="M16.71,7.34c2.92,2.92,3.18,7.43.57,10.03-2.61,2.61-7.11,2.36-10.03-.57-2.92-2.92-3.18-7.42-.57-10.03,2.61-2.61,7.11-2.36,10.03.57Z"/>
    <g>
      <g>
        <path class="cls-1" d="M21,12c0,1.79-.53,3.46-1.43,4.87-.03.05-.07.1-.1.16-.04.06-.08.12-.12.17-.04.05-.07.1-.11.15-.05.06-.1.13-.15.19-.04.05-.07.1-.12.15-.05.06-.1.13-.16.19-.04.05-.08.09-.12.14-.05.06-.11.12-.16.18-.04.05-.08.09-.13.13-.05.05-.11.11-.16.16-.04.04-.09.08-.13.13-1.61,1.49-3.76,2.4-6.11,2.4-4.96,0-9-4.04-9-9,0-1.05.18-2.06.52-3h16.97c.34.94.52,1.95.52,3Z"/>
        <path class="cls-4" d="M20.48,9H3.52c.35-1,.88-1.92,1.54-2.72.09-.11.18-.21.27-.32.05-.05.09-.1.14-.15.31-.33.65-.63,1.01-.92,1.52-1.19,3.44-1.9,5.52-1.9s3.99.71,5.52,1.89c.36.28.7.59,1.01.92.05.05.09.1.14.15.09.1.19.21.28.32.66.8,1.19,1.72,1.54,2.72Z"/>
      </g>
      <g>
        <rect class="cls-5" x="5.19" y="7.05" width="1.35" height=".12"/>
        <path class="cls-5" d="M6.77,7.86c-.16-.1-.51-.35-.53-.59h-.75c-.02.24-.37.49-.53.59.46.08.51-.02.73-.07-.14.82.17.97.17.97,0,0,.32-.15.18-.97.22.05.27.15.73.07Z"/>
        <path class="cls-5" d="M6.48,4.89c-.13.67-.45,1.44-.45,2.07h-.35c0-.35-.1-.75-.21-1.15.31-.33.65-.63,1.01-.92Z"/>
        <g>
          <path class="cls-5" d="M5.57,6.96h-.24s-.05-.41-.27-.68c.09-.11.18-.21.27-.32.09.25.18.58.23,1Z"/>
          <path class="cls-5" d="M7.07,6.69s.88-.3.91-.97-.46-.75-.69-.68c-.23.06-.9.2-1.13,1.92h.24s.09-.69.53-.89c.4-.08.27.51.15.62Z"/>
        </g>
      </g>
      <g>
        <rect class="cls-5" x="11.33" y="7.05" width="1.35" height=".12"/>
        <path class="cls-5" d="M12.9,7.86c-.16-.1-.51-.35-.53-.59h-.75c-.02.24-.37.49-.53.59.46.08.51-.02.73-.07-.14.82.17.97.17.97,0,0,.32-.15.18-.97.22.05.27.15.73.07Z"/>
        <path class="cls-5" d="M12.14,3.29c-.08-.06-.2-.06-.29,0-.2.15-.53.49-.53,1.13,0,.75.5,1.77.5,2.54h.35c0-.77.5-1.79.5-2.54,0-.64-.33-.98-.53-1.13Z"/>
        <g>
          <path class="cls-5" d="M10.79,6.69s-.88-.3-.91-.97c-.02-.67.46-.75.69-.68s.9.2,1.13,1.92h-.24s-.09-.69-.53-.89c-.4-.08-.27.51-.15.62Z"/>
          <path class="cls-5" d="M13.21,6.69s.88-.3.91-.97-.46-.75-.69-.68-.9.2-1.13,1.92h.24s.09-.69.53-.89c.4-.08.27.51.15.62Z"/>
        </g>
      </g>
      <g>
        <rect class="cls-5" x="17.46" y="7.05" width="1.35" height=".12"/>
        <path class="cls-5" d="M19.04,7.86c-.16-.1-.51-.35-.53-.59h-.75c-.02.24-.37.49-.53.59.46.08.51-.02.73-.07-.14.82.17.97.17.97,0,0,.32-.15.18-.97.22.05.27.15.73.07Z"/>
        <path class="cls-5" d="M18.53,5.81c-.11.4-.21.8-.21,1.15h-.35c0-.62-.32-1.4-.44-2.07.36.28.7.59,1.01.92Z"/>
        <g>
          <path class="cls-5" d="M16.93,6.69s-.88-.3-.91-.97c-.02-.67.46-.75.69-.68s.9.2,1.13,1.92h-.24s-.09-.69-.53-.89c-.4-.08-.27.51-.15.62Z"/>
          <path class="cls-5" d="M18.94,6.28c-.22.28-.27.68-.27.68h-.24c.05-.42.14-.75.23-1,.09.1.19.21.28.32Z"/>
        </g>
      </g>
      <g>
        <g>
          <g>
            <path class="cls-2" d="M18.25,18.47s-.09.08-.13.13l-.37-.21-.38-.2c-.51-.26-1.02-.52-1.54-.76-.3-.15-.61-.28-.91-.42h0c-.62-.28-1.24-.56-1.86-.82v-.11c.69.28,1.37.58,2.05.88.26.12.52.23.78.35.52.24,1.04.48,1.55.74l.38.2.38.2.04.02Z"/>
            <path class="cls-2" d="M18.53,18.19s-.08.09-.13.13l-.04-.02-.77-.38-.1-.05-.1-.05-.19-.09-.39-.18c-.2-.09-.39-.18-.59-.27-.06-.03-.12-.06-.18-.08h0s0,0,0,0l-.39-.18s-.06-.03-.1-.04t0,0c-.1-.04-.19-.09-.29-.13l-.78-.35c-.47-.21-.95-.42-1.42-.63v-.1c.08.03.17.07.25.1.13.05.26.11.39.16.28.12.56.24.84.36l.79.34c.13.06.26.11.39.17l.39.17s.01,0,.02,0h0c.26.11.51.23.77.34l.39.18.19.09.1.04.1.05.78.37.09.04Z"/>
            <path class="cls-2" d="M18.82,17.87s-.08.09-.12.14l-.15-.06-.79-.33-.1-.04-.1-.04-.2-.08-.4-.16c-.26-.11-.53-.21-.8-.32l-.19-.08h0l-.21-.08c-.13-.05-.27-.1-.4-.16l-.8-.31c-.29-.11-.58-.22-.88-.33-.21-.08-.42-.16-.62-.23,0,0,0,0,0,0v-.1s.02,0,.03.01c0,0,0,0,0,0,.15.05.3.11.45.16.35.13.71.25,1.06.38l.12.04.69.25c.09.03.18.07.27.1.04.02.09.03.13.05l.4.15c.27.1.54.2.8.31l.4.16.2.08.1.04.1.04.8.33.2.08Z"/>
            <path class="cls-2" d="M19.09,17.54s-.07.1-.12.15l-.19-.07-.81-.28-.1-.04-.1-.03-.2-.07-.41-.13c-.27-.09-.54-.18-.82-.26l-.41-.13c-.14-.04-.27-.08-.41-.13h-.04s-.77-.25-.77-.25h-.01c-.47-.15-.94-.29-1.41-.43-.08-.02-.16-.05-.24-.07,0,0,0,0,0,0v-.09s.02,0,.03.01c0,0,0,0,0,0,.39.11.77.22,1.16.33.16.05.33.09.49.14l.55.16h0l.28.08c.14.04.28.08.41.12l.41.13c.27.08.55.17.82.25l.41.13.21.06.1.03.1.03.82.27.25.09Z"/>
            <path class="cls-2" d="M19.57,16.87c-.03.05-.07.1-.1.16l-.21-.06-.83-.2-.11-.02-.11-.02-.21-.05-.42-.09c-.28-.06-.56-.12-.84-.18l-.12-.02-.12-.03-.18-.04c-.14-.03-.28-.06-.42-.09l-.16-.03h0l-.68-.14c-.56-.11-1.13-.23-1.69-.33-.11-.02-.22-.04-.32-.06v-.09c.11.02.23.04.34.06.57.1,1.13.21,1.69.31l.84.16c.14.03.28.05.42.08l.14.03.28.06c.28.06.56.11.84.17l.42.09.21.04.1.02.11.02.84.19.27.07Z"/>
            <path class="cls-2" d="M19.35,17.19c-.04.05-.07.1-.11.15l-.19-.06-.83-.23-.1-.03-.11-.03-.21-.05-.42-.11c-.28-.07-.55-.14-.83-.22l-.42-.11c-.14-.04-.28-.07-.42-.11l-.38-.09-.45-.11c-.21-.05-.43-.11-.64-.16-.23-.06-.47-.11-.71-.17-.11-.02-.21-.05-.32-.08-.06-.01-.11-.03-.17-.04v-.09c.06.01.13.03.19.04.56.13,1.12.25,1.68.38l.62.15h0l.22.05c.14.03.28.06.42.1l.42.1c.28.07.56.13.83.21l.42.11.21.05.11.03.1.03.83.22.26.07Z"/>
          </g>
          <g>
            <path class="cls-2" d="M9.37,14.49c-.07-.01-.14-.03-.21-.05-.07-.02-.14-.03-.21-.05s-.14-.04-.21-.06l-.1-.03-.1-.04c-.07-.02-.13-.05-.2-.08-.07-.03-.13-.06-.2-.09-.13-.06-.26-.13-.38-.2-.25-.15-.48-.32-.71-.49-.12-.08-.23-.17-.36-.24l-.09-.05s-.06-.03-.09-.05c-.06-.03-.13-.06-.19-.09-.13-.06-.26-.11-.39-.16s-.26-.09-.4-.14c-.14-.04-.27-.08-.41-.12-.14-.04-.27-.08-.41-.12-.14-.04-.27-.08-.41-.13l-.21-.06-.2-.06c-.07-.02-.14-.04-.2-.07l-.1-.03-.1-.03c-.14-.05-.27-.09-.41-.14v-.02c.15.02.29.04.43.07.07.01.14.02.21.04.07.01.14.03.21.04.07.01.14.03.21.05l.21.05c.14.03.28.07.42.11.28.08.55.17.82.27.14.05.27.11.4.17.06.03.13.06.19.1.06.04.13.07.19.11.12.07.24.16.36.24.12.08.23.17.35.24.24.16.5.28.75.4.13.06.25.13.38.19.13.06.26.12.39.18l.09.04.1.04c.06.03.13.06.19.09l.2.09c.06.03.13.06.2.09v.02Z"/>
            <path class="cls-2" d="M3.4,11.03c.17.01.34.03.51.08.08.02.17.05.25.08.02,0,.04.02.06.02.02.01.04.02.06.03l.06.03s.04.02.06.03c.15.09.29.21.39.37.01.02.02.04.04.06l.03.06s.04.08.05.13c.03.08.05.17.07.24s.05.15.09.23c0,.02.02.04.03.06.01.02.02.04.03.05.02.04.04.07.06.11.08.14.19.28.31.39.06.06.12.11.19.16.07.05.14.09.21.13.15.07.32.1.48.13s.33.04.5.05l.51.05c.17.02.34.03.51.05.17.01.34.03.51.05.08.01.17.02.25.03.04,0,.08.01.13.02.04,0,.08.02.13.03.08.02.17.04.25.06s.17.05.25.07c.33.11.64.25.93.42v.02c-.17-.06-.33-.11-.49-.17l-.12-.04s-.08-.02-.12-.03c-.08-.02-.16-.04-.24-.06s-.16-.04-.24-.05c-.08-.02-.16-.03-.25-.05-.16-.03-.33-.04-.5-.06-.34-.03-.67-.07-1.01-.12-.34-.05-.67-.1-1.01-.18-.08-.02-.17-.04-.25-.07l-.06-.02-.06-.02-.06-.03-.06-.03c-.15-.08-.29-.19-.41-.31-.13-.12-.24-.24-.35-.38-.03-.03-.05-.07-.08-.11-.01-.02-.02-.04-.03-.05l-.04-.05c-.04-.07-.08-.16-.12-.24-.03-.08-.06-.17-.08-.24-.03-.08-.06-.15-.1-.21-.04-.07-.09-.13-.15-.18s-.12-.11-.18-.15c-.13-.09-.28-.16-.44-.22-.16-.06-.32-.11-.48-.15v-.02Z"/>
            <path class="cls-2" d="M3.65,11.38c.19.11.39.21.58.3.1.05.2.09.3.13.05.02.1.04.15.06l.15.06c.05.02.1.04.16.06.05.02.1.05.15.08.1.06.19.13.27.21.08.08.16.16.23.24.07.08.15.16.23.23h-.02s.01,0,.02,0c0,0,.01,0,.01,0h0s.01.01.01.01l.02.02.04.03s.06.04.09.07c.06.04.11.08.17.12.12.08.24.16.36.23.06.04.12.07.18.11.03.02.06.04.09.05.03.02.06.03.09.05.03.02.06.03.09.05.03.02.06.03.09.04l.1.04.1.04c.13.05.26.09.4.14.07.02.13.04.2.06.03,0,.07.02.1.02.03,0,.07.02.1.02.07.02.14.03.21.04.07.01.14.02.21.04h.11s.11.03.11.03c.07.01.14.02.21.03v.02c-.29.03-.58.03-.87,0-.04,0-.07-.01-.11-.01l-.11-.02c-.07-.01-.14-.03-.21-.04-.14-.04-.28-.08-.42-.14l-.1-.04-.1-.05c-.07-.03-.13-.07-.19-.11-.03-.02-.06-.04-.09-.06l-.09-.06s-.06-.04-.09-.06c-.03-.02-.06-.04-.09-.06-.12-.09-.23-.18-.34-.27-.05-.05-.11-.1-.16-.15l-.08-.07-.04-.04-.02-.02h-.01s0-.01,0-.01c0,0,0,0,0,0,0,0,0,0,.01,0h-.02s-.23-.24-.23-.24c-.04-.04-.08-.08-.12-.11s-.08-.07-.13-.1c-.09-.06-.18-.11-.28-.16-.1-.04-.19-.07-.3-.11-.05-.02-.1-.04-.16-.06-.03-.01-.05-.02-.08-.03-.03-.01-.05-.02-.08-.03-.1-.05-.2-.1-.29-.16-.19-.12-.37-.25-.53-.4v-.02Z"/>
            <path class="cls-2" d="M4.41,10.56c.06.12.12.24.18.36s.13.23.21.34c.08.11.16.21.24.31.09.1.18.19.28.27.1.09.2.17.31.24.03.02.06.03.08.05l.09.05s.06.03.09.04.06.03.09.04c.25.1.51.16.78.2l.4.07s.07.01.1.02l.1.02c.06.01.13.02.2.03l.4.06c.13.02.27.04.4.07.13.03.27.07.4.12l.1.04s.06.03.1.04l.05.02.05.02.09.04c.12.06.24.13.35.21.12.08.22.16.33.25h0c-.24-.11-.48-.23-.73-.33l-.09-.03-.04-.02-.05-.02s-.06-.02-.09-.03l-.09-.03c-.13-.03-.25-.06-.38-.09-.13-.03-.26-.05-.39-.07l-.2-.04c-.07-.01-.13-.03-.2-.04s-.13-.03-.2-.04c-.07-.02-.13-.03-.2-.05-.06-.02-.13-.04-.19-.05l-.19-.06c-.26-.08-.52-.16-.77-.24-.13-.04-.26-.09-.38-.15-.03-.01-.06-.03-.09-.05-.01,0-.03-.02-.05-.02l-.04-.02s-.06-.04-.09-.05l-.04-.03h-.02s-.02-.03-.02-.03c-.11-.08-.21-.18-.31-.28s-.17-.22-.24-.34-.13-.24-.18-.37c-.05-.13-.08-.26-.11-.39h.02Z"/>
            <path class="cls-2" d="M7.47,11.54c.04.05.07.11.11.16.03.05.07.11.1.16l.1.16c.03.05.07.11.09.17.06.11.11.23.19.34.02.03.04.05.06.07.01.01.02.02.03.04.01.01.02.02.03.03.05.04.1.09.15.13l.08.06s.05.04.08.05l.16.11c.11.07.21.14.32.21.11.07.21.14.32.21.03.02.05.03.08.05l.08.05c.05.04.11.07.17.11v.02c-.07,0-.14-.02-.2-.04h-.05s-.05-.03-.05-.03c-.03-.01-.06-.02-.09-.03-.13-.05-.25-.1-.36-.17s-.22-.15-.32-.24-.19-.18-.27-.29c-.04-.05-.08-.11-.12-.16-.02-.02-.04-.05-.06-.08-.02-.02-.04-.05-.07-.07-.09-.1-.19-.19-.27-.29-.04-.05-.08-.11-.11-.17s-.06-.12-.08-.18c-.02-.06-.05-.13-.06-.19-.02-.06-.03-.13-.04-.2h.02Z"/>
            <path class="cls-2" d="M8.74,13.55c-.06,0-.13,0-.19-.01-.06-.01-.12-.02-.18-.04-.06-.02-.12-.04-.17-.06s-.11-.05-.16-.09c-.1-.07-.19-.16-.29-.23-.09-.07-.19-.14-.29-.22-.05-.04-.1-.07-.15-.12-.05-.04-.09-.09-.13-.13-.08-.09-.16-.2-.22-.31-.06-.11-.1-.23-.13-.35-.01-.06-.02-.12-.03-.18,0-.06,0-.13,0-.19h.02c.03.05.05.11.08.16.03.05.05.11.08.16.05.11.11.21.17.31.06.1.11.2.18.29.03.05.07.09.1.14,0,.01.02.02.03.03l.03.04.05.07c.07.09.16.18.26.24.1.06.22.1.33.14.05.02.11.05.16.07l.16.08c.11.05.21.11.32.17v.02Z"/>
            <path class="cls-2" d="M10.61,13.61c-.22.07-.45.12-.69.14-.12.01-.23.02-.35.02s-.24,0-.35-.02c-.12-.01-.23-.03-.35-.06-.11-.02-.23-.05-.34-.08-.11-.03-.23-.06-.34-.09-.03,0-.06-.01-.08-.02l-.08-.02c-.06-.02-.11-.03-.17-.05-.03,0-.05-.02-.08-.03l-.08-.03c-.06-.02-.11-.04-.16-.07-.11-.05-.21-.1-.32-.16-.1-.06-.2-.13-.29-.2-.09-.07-.19-.15-.27-.24-.17-.17-.3-.37-.41-.58-.11-.21-.19-.44-.23-.67h.02c.05.1.1.2.16.3.03.05.06.1.08.15.01.02.03.05.05.07.01.02.03.05.05.07.06.09.13.18.2.27.07.09.15.17.22.25.16.16.33.3.52.43.09.06.19.12.29.18.1.06.2.12.3.16.21.1.42.18.65.22.23.04.46.04.69.05h.34c.11,0,.23,0,.34,0,.11,0,.23,0,.34,0,.12,0,.23,0,.35-.01v.02Z"/>
            <path class="cls-2" d="M10.34,13.27c-.25.13-.5.23-.77.31-.26.08-.54.15-.82.17-.28.02-.56,0-.83-.05-.02,0-.03,0-.05-.01h-.05s-.1-.03-.1-.03c-.03-.01-.07-.02-.1-.03-.02,0-.03,0-.05-.01l-.05-.02c-.07-.02-.13-.05-.19-.08l-.09-.05s-.03-.02-.05-.03l-.04-.03c-.06-.04-.12-.08-.17-.13-.03-.02-.05-.05-.08-.07-.02-.03-.05-.05-.07-.08-.09-.1-.18-.21-.27-.31l-.27-.31c-.09-.11-.18-.21-.26-.32-.35-.43-.69-.85-1-1.31h.01c.1.08.2.18.29.28.05.05.1.1.15.15.05.05.09.1.14.15l.14.15.14.15c.09.1.18.2.27.31.09.11.18.21.26.32.09.11.17.22.25.33l.25.33c.04.05.08.11.13.16.04.05.09.09.14.14l.04.03s.03.02.04.03l.08.05.09.05h.02s.02.02.02.02l.05.02.05.02s.03.01.05.02l.1.03s.07.01.1.02h.05s.03.02.05.02c.03,0,.07,0,.1.01,0,0,.02,0,.03,0h.08s.1,0,.1,0c.03,0,.07,0,.1,0h.1s.1-.02.1-.02c.03,0,.07,0,.1-.01.03,0,.07-.01.1-.02.54-.08,1.06-.22,1.6-.35v.02Z"/>
            <path class="cls-2" d="M8.93,14.6s-.09.01-.14.01c-.04,0-.09,0-.13,0h-.13s-.04,0-.06,0c-.01,0-.02,0-.03,0-.01,0-.02,0-.03,0-.09-.01-.17-.04-.26-.03-.04,0-.09,0-.13.02-.02,0-.04.01-.06.02-.02,0-.04.02-.06.02-.04.02-.08.04-.12.06s-.08.03-.12.05c-.08.03-.15.07-.23.11s-.16.07-.23.1c-.08.03-.16.07-.25.1h-.01c.05-.09.11-.16.18-.22.07-.06.15-.11.23-.16.04-.02.08-.04.13-.06.04-.01.09-.03.13-.04s.09-.02.13-.03c.02,0,.05,0,.07,0,.02,0,.05,0,.07,0,.02,0,.05,0,.07,0,.02,0,.04,0,.07,0,.04,0,.09-.01.13-.02.09-.02.18-.05.27-.06.05,0,.09,0,.14,0,.04,0,.09.01.14.02.09.02.18.05.25.11v.02Z"/>
            <path class="cls-2" d="M9.37,14.16s-.08,0-.12,0c-.04,0-.08,0-.12,0-.04,0-.08,0-.12-.01s-.08,0-.12-.01c-.08,0-.16-.02-.24-.03-.08,0-.16-.02-.24-.03-.16-.03-.32-.07-.48-.08-.08,0-.16,0-.24,0-.04,0-.08,0-.12.01s-.08.01-.12.02c-.08.01-.16.03-.24.04-.02,0-.04,0-.06.01h-.06s-.06.02-.06.02h-.06s-.04.02-.06.03h-.06s-.07.04-.11.05c-.07.02-.14.05-.21.08-.03.01-.06.03-.09.05s-.06.04-.09.06c-.06.05-.12.1-.17.15-.05.05-.11.12-.15.18-.05.06-.09.13-.14.2h-.02c.02-.09.04-.17.07-.24s.07-.15.12-.22c.05-.07.1-.14.17-.2.03-.03.06-.06.1-.08.04-.03.08-.05.12-.07.08-.04.16-.07.24-.09.04,0,.08-.02.12-.03h.06s.04-.02.06-.02h.06s.06-.01.06-.01c.02,0,.04,0,.06,0h.12s.04,0,.06,0c.04,0,.08,0,.12,0,.08,0,.16.01.24.01.08,0,.16,0,.24,0,.16,0,.33-.02.49-.02.08,0,.16.01.24.02.04,0,.08.01.12.02.04,0,.08.02.12.03.04.01.08.02.12.03.04.01.08.02.12.04s.08.03.12.04c.04.02.08.03.12.05v.02Z"/>
            <path class="cls-2" d="M9.09,14.85c-.2-.09-.39-.19-.58-.28l-.29-.14c-.09-.04-.19-.09-.29-.14s-.19-.1-.28-.15c-.1-.05-.2-.09-.29-.13-.1-.04-.2-.07-.31-.1-.11-.03-.21-.05-.32-.07-.11-.02-.21-.03-.32-.05-.11-.01-.21-.03-.32-.04-.11-.01-.21-.02-.32-.02-.11,0-.21-.01-.32-.01-.11,0-.21,0-.32-.01h-.16c-.05,0-.11,0-.16,0h-.16s-.16,0-.16,0c-.11,0-.22,0-.33,0v-.02c.21-.06.42-.1.64-.13.05,0,.11-.01.16-.02.05,0,.11-.01.16-.01.11,0,.22-.01.33,0,.11,0,.22,0,.33.02.11.01.22.03.33.04s.22.04.32.06c.05.01.11.03.16.04s.11.03.16.05c.1.03.21.07.31.11.1.03.2.07.31.1.21.07.42.12.62.2.1.04.2.08.3.14s.19.11.28.16c.18.12.36.24.52.39v.02Z"/>
            <path class="cls-2" d="M10.28,14.01c-.26.05-.53.07-.79.08-.06,0-.13,0-.2,0-.07,0-.13,0-.2,0-.07,0-.13-.01-.2-.02-.03,0-.07,0-.1-.01-.03,0-.07-.01-.1-.01-.26-.04-.52-.12-.77-.19-.03-.01-.06-.02-.09-.03-.03,0-.06-.02-.09-.03-.06-.02-.13-.04-.19-.06-.06-.02-.13-.04-.19-.06-.06-.02-.12-.04-.19-.06-.13-.04-.25-.07-.38-.1l-.38-.09-.38-.09c-.13-.03-.25-.06-.38-.09s-.25-.06-.37-.07c-.12-.01-.25-.02-.38,0-.03,0-.06,0-.09.01-.03,0-.06,0-.09.01-.06.01-.12.03-.19.04-.12.04-.24.08-.36.14v-.02c.19-.17.45-.28.72-.33.03,0,.07-.01.1-.02s.07,0,.1-.01c.07,0,.14,0,.21,0,.03,0,.07,0,.1,0,.03,0,.07,0,.1.01.07,0,.13.02.2.04.13.03.26.06.38.1.13.04.25.07.38.11.13.04.25.07.38.12.06.02.13.04.19.07l.18.08c.12.05.24.11.36.16.03.01.06.02.09.03l.05.02h.05s.06.03.09.04c.03,0,.06.02.09.02.06.02.13.03.19.04s.13.02.19.03l.19.02h.19c.06.02.13.03.19.03l.19.02c.06,0,.13,0,.2.01.06,0,.13,0,.19.01.26.02.52.03.78.05v.02Z"/>
            <path class="cls-2" d="M8.97,15.43c-.11-.09-.21-.18-.31-.28-.1-.1-.2-.2-.29-.3-.09-.1-.19-.21-.28-.32-.09-.11-.18-.22-.26-.33-.08-.12-.15-.23-.22-.36-.07-.12-.14-.24-.21-.36-.04-.06-.08-.11-.12-.16l-.03-.04-.04-.04s-.05-.04-.08-.07c-.03-.02-.05-.04-.08-.06-.03-.02-.06-.04-.08-.06-.06-.04-.12-.07-.18-.1-.03-.01-.06-.03-.09-.04l-.05-.02-.05-.02-.05-.02-.05-.02s-.06-.02-.1-.03c-.13-.04-.26-.08-.39-.11-.13-.03-.27-.05-.4-.06-.13-.01-.27-.02-.4-.02-.14,0-.27,0-.4.02-.03,0-.07,0-.1.01-.03,0-.07,0-.1.01-.07.01-.13.02-.2.04-.26.06-.53.15-.78.26v-.02c.1-.08.22-.16.35-.22.06-.03.13-.06.19-.09.03-.01.06-.03.1-.04.03-.01.07-.02.1-.03s.07-.02.1-.03.07-.02.11-.03c.03-.01.07-.02.1-.02.03,0,.07-.01.11-.02.14-.02.28-.04.43-.04.14,0,.28,0,.43.02.14.02.28.04.42.08.14.04.27.08.41.14.06.03.13.06.19.09l.05.03.05.03s.06.04.09.06c.12.08.23.17.34.26.05.05.1.09.15.15.05.05.09.11.13.17.08.12.16.23.24.34.02.03.04.05.07.08.02.03.04.05.06.08.02.03.04.05.07.08l.07.08.26.32.26.33c.08.11.17.22.26.33.09.11.17.22.25.33h-.01Z"/>
            <path class="cls-2" d="M9.67,14.94c-.07-.02-.15-.04-.22-.07-.07-.02-.14-.05-.21-.07-.04-.01-.07-.03-.1-.04-.04-.01-.07-.03-.11-.04-.04-.01-.07-.03-.11-.04-.02,0-.03-.01-.05-.02l-.05-.02c-.14-.06-.27-.13-.42-.17-.07-.02-.15-.04-.22-.05-.04,0-.07-.01-.11-.01-.04,0-.08,0-.11,0-.02,0-.04,0-.06,0h-.06s-.07,0-.11,0c-.04,0-.07,0-.11,0h-.11c-.15.03-.28.06-.42.11s-.26.11-.38.19c-.06.04-.12.08-.18.13-.06.05-.11.1-.17.15h-.01c.13-.3.38-.53.68-.65.15-.06.32-.08.47-.09.04,0,.08,0,.12,0,.04,0,.08,0,.12,0,.04,0,.08,0,.12.02h.06s.04.02.06.02c.04.01.08.02.11.03h.03s.03.01.03.01c.02,0,.04.01.06.01.07.02.15.03.22.05h.05s.06.02.06.02c.04,0,.08.01.12.02l.11.02s.08.02.11.03c.04.01.07.02.11.03.04.01.07.03.11.04.03.01.07.03.11.05.03.02.07.03.1.05.14.07.27.16.38.26v.02Z"/>
            <path class="cls-2" d="M9.18,15.64s-.05,0-.08,0c-.03,0-.05,0-.08,0-.03,0-.05,0-.08,0s-.05,0-.08-.01c-.03,0-.05-.01-.08-.02-.03,0-.05-.01-.08-.02-.03,0-.05-.02-.07-.03-.01,0-.02-.01-.04-.02-.01,0-.02-.01-.03-.02-.09-.05-.17-.13-.25-.2-.08-.06-.16-.13-.24-.2-.04-.04-.07-.08-.11-.13-.03-.04-.06-.09-.08-.13-.03-.04-.05-.07-.07-.09,0,0,0,0,0,0h0s0,0,0,0c0,0,0,0,0,0h0s-.02,0-.03,0c-.02,0-.06.03-.09.06-.03.03-.07.06-.1.09-.07.07-.13.15-.21.22h-.02c.02-.11.06-.21.11-.31.02-.05.05-.09.09-.14.02-.02.04-.04.07-.06.02-.02.05-.04.09-.05.03-.01.08-.02.12-.01.04,0,.08.03.11.05.03.02.05.05.07.08s.03.05.04.08c.02.05.04.09.06.14.01.02.02.04.03.07l.03.07s.05.08.08.12c0,.01.02.02.03.03,0,0,.02.02.03.02s.02.02.03.02c.01,0,.02.02.03.02.08.05.18.07.28.1.02,0,.05.01.07.02.02,0,.05.02.07.03l.07.02h.03s.02.02.03.03c.02,0,.05.02.07.03.02,0,.05.02.07.03.05.02.09.04.14.07v.02Z"/>
            <path class="cls-2" d="M10.6,12.83c-.07.03-.14.05-.21.07-.07.02-.15.03-.22.04s-.15.01-.23.01-.15,0-.23-.02h-.05s-.04-.02-.06-.03c-.04-.01-.07-.02-.11-.03-.07-.02-.15-.04-.22-.06-.15-.04-.29-.07-.44-.1h-.05s-.04-.02-.06-.03l-.05-.02-.05-.02c-.07-.03-.14-.06-.21-.1-.07-.04-.13-.08-.2-.13-.02-.01-.03-.02-.05-.04l-.04-.04s-.06-.06-.08-.09c-.1-.13-.16-.29-.17-.45,0-.08,0-.16.01-.24.02-.07.04-.15.07-.22h.02c0,.08,0,.15,0,.22,0,.07.02.14.03.21.03.13.1.25.18.35.04.05.09.1.14.15.05.05.1.09.16.13.06.04.12.07.18.11.06.03.13.07.19.1.13.07.27.11.42.14.07.01.15.02.22.02.04,0,.07,0,.11,0h.11c.07,0,.15,0,.22.01.07,0,.14,0,.22.01h.22c.07,0,.15,0,.22.01v.02Z"/>
            <path class="cls-2" d="M9.99,12.62c-.04.06-.09.11-.15.16-.05.05-.11.09-.17.13-.06.04-.13.07-.19.11-.07.03-.14.05-.21.07-.14.03-.29.04-.43.06-.07.01-.14.02-.21.03-.07,0-.14.02-.22.02-.07,0-.15,0-.22-.01-.07-.01-.15-.04-.22-.07-.07-.03-.14-.07-.2-.12-.06-.05-.11-.1-.16-.16-.09-.12-.16-.25-.21-.39-.03-.07-.05-.14-.06-.21-.02-.07-.03-.14-.03-.21h.02c.03.06.06.12.1.18s.07.12.11.18c.07.12.15.23.24.33.08.1.17.19.28.26.05.03.12.06.18.08.06.02.13.04.19.05.13.03.28.03.41,0s.26-.1.39-.15c.06-.03.13-.05.19-.08.06-.02.13-.05.19-.08s.13-.06.19-.09.13-.06.19-.09h.01Z"/>
            <path class="cls-2" d="M10.76,13.51c-.04.05-.09.1-.14.15-.05.04-.1.09-.16.13-.11.08-.22.16-.35.22-.12.07-.25.12-.38.17-.13.05-.26.08-.4.1-.07.01-.14.02-.21.02-.03,0-.07,0-.1,0-.02,0-.03,0-.05,0h-.05c-.14-.01-.27-.03-.41-.05-.27-.05-.53-.14-.77-.26-.06-.03-.12-.06-.18-.1-.03-.02-.06-.04-.09-.05l-.04-.03-.04-.03c-.11-.08-.21-.18-.31-.28s-.18-.21-.26-.33c-.08-.12-.15-.24-.2-.36s-.1-.26-.14-.39c0-.03-.02-.07-.03-.1l-.02-.1c-.01-.07-.02-.14-.03-.2-.03-.27-.01-.55.05-.81h.02c0,.14,0,.27.02.4v.1s.03.1.03.1c0,.03.01.06.02.1v.05s.02.03.02.05c.05.26.14.5.25.74.11.23.25.46.41.66.08.1.17.19.27.28l.04.03.04.03.04.03s.02.02.04.03c.05.04.1.08.16.12.22.15.47.25.73.29.13.02.26.02.39.01h.05s.03,0,.05-.01c.03,0,.06,0,.1-.01.03,0,.06-.01.09-.02l.1-.02c.51-.11.99-.33,1.44-.63h.01Z"/>
            <path class="cls-2" d="M9.58,12.6c-.16.12-.33.23-.5.33l-.25.16c-.08.05-.17.11-.25.16-.04.02-.09.05-.13.07-.02.01-.05.02-.07.03-.01,0-.02.01-.04.02h-.04c-.1.05-.2.07-.3.09-.1.01-.2.02-.3.02h-.23s-.05,0-.07,0c-.03,0-.05,0-.08,0-.03,0-.05,0-.08,0h-.07s-.08-.01-.08-.01c-.1-.01-.2-.03-.3-.04-.2-.03-.39-.04-.57-.03-.09,0-.18.03-.26.06s-.15.09-.21.16c-.03.03-.05.07-.08.11-.02.04-.04.08-.06.13-.04.09-.06.19-.08.28h-.02c0-.1,0-.21.01-.31,0-.01,0-.02,0-.04,0-.01,0-.03,0-.04,0-.03.01-.05.02-.08.02-.05.04-.1.07-.15.03-.05.06-.09.11-.13.02-.02.04-.04.06-.05.02-.02.05-.03.07-.05.1-.06.21-.08.32-.1.11-.01.21,0,.32,0,.11.01.2.03.3.05.1.02.2.04.29.06l.15.04s.05.01.07.02.05.01.07.02c.1.02.19.04.29.04s.2,0,.29-.02c.1-.02.19-.06.27-.11l.03-.02s.02-.01.03-.02c.02-.01.04-.03.06-.04.04-.03.08-.06.12-.09.08-.06.17-.12.25-.17.09-.05.18-.1.26-.15.18-.09.37-.17.56-.23v.02Z"/>
            <path class="cls-2" d="M9.53,15.14c-.12-.07-.23-.14-.34-.22-.06-.04-.11-.07-.17-.11-.06-.04-.11-.08-.17-.12l-.17-.12-.17-.12c-.11-.08-.22-.16-.33-.24-.21-.17-.42-.34-.64-.49s-.46-.28-.71-.4c-.03-.01-.06-.03-.09-.04l-.09-.04s-.06-.03-.09-.04c-.03-.02-.06-.03-.09-.05-.12-.07-.24-.14-.35-.22s-.22-.17-.32-.26c-.1-.09-.2-.19-.29-.29-.09-.11-.18-.22-.25-.34-.04-.06-.07-.13-.09-.2-.02-.07-.04-.14-.04-.22,0-.07,0-.15,0-.22,0-.07.02-.14.05-.21.04-.13.12-.26.2-.36h.01c-.06.13-.1.26-.13.39-.01.06-.02.13-.02.19s0,.13.02.19c.01.06.03.12.05.18s.05.11.09.16c.07.11.16.21.24.3.09.1.18.19.28.28.09.09.2.18.3.26.1.08.21.16.32.24.03.02.05.04.08.06.03.02.05.04.08.05l.09.05s.06.03.09.05c.23.15.46.29.69.43.23.14.47.27.7.42.06.04.11.07.17.12.05.04.11.08.16.12.11.08.22.16.32.25.05.04.1.09.16.13s.1.09.15.14c.1.09.2.18.29.28h-.01Z"/>
            <path class="cls-2" d="M4.03,10.76c.07.03.14.06.21.1.03.02.06.05.09.07.03.03.06.06.08.09.05.06.09.14.12.22.02.08.03.17.02.25s-.03.16-.02.21c0,.06.02.12.05.18.03.06.07.11.12.17.05.05.1.11.15.16.1.1.22.19.34.28.12.09.25.17.38.24.07.03.13.07.2.1.07.03.14.06.21.09l.1.04.1.04.21.08c.14.05.28.1.42.16.07.03.14.05.21.08l.21.08.42.16c.14.05.28.11.42.17.14.06.28.12.42.18l.21.09.21.09c.07.03.14.06.21.09s.14.06.21.09c.14.06.27.13.41.19v.02c-.15-.04-.3-.08-.44-.13-.07-.02-.14-.04-.22-.07-.07-.02-.14-.05-.21-.07l-.21-.07-.21-.07c-.07-.03-.14-.05-.21-.08-.07-.03-.14-.05-.21-.08-.14-.05-.28-.11-.42-.17-.14-.06-.28-.12-.41-.18-.14-.06-.28-.12-.41-.19l-.1-.05-.1-.05-.2-.1c-.14-.07-.27-.14-.41-.2-.07-.03-.14-.06-.2-.09l-.21-.1c-.14-.07-.27-.13-.41-.21-.07-.04-.13-.07-.2-.12-.06-.04-.13-.09-.19-.14s-.12-.1-.17-.16c-.05-.06-.1-.13-.14-.2s-.06-.16-.06-.25c0-.02,0-.04,0-.07v-.06s.03-.07.03-.11c.01-.07.01-.13,0-.2,0-.03-.02-.06-.03-.1s-.03-.06-.05-.09c-.07-.12-.19-.22-.31-.3v-.02Z"/>
          </g>
        </g>
        <path class="cls-5" d="M16.67,16.44s-.31-.63-1.26-.75c.61-.66,1.46-.27,1.46-.27,0,0-.44-.55-1.39-.47.46-.78,1.37-.56,1.37-.56,0,0-.54-.45-1.46-.17.29-.86,1.22-.84,1.22-.84,0,0-.62-.33-1.46.14.1-.9,1.02-1.07,1.02-1.07,0,0-.68-.19-1.4.44-.08-.9.78-1.26.78-1.26,0,0-.7-.04-1.28.72-.27-.86.5-1.4.5-1.4,0,0-.7.1-1.1.97-.44-.79.2-1.47.2-1.47,0,0-.66.24-.87,1.18-.6-.68-.11-1.48-.11-1.48,0,0-.59.38-.61,1.33-.73-.54-.42-1.42-.42-1.42,0,0-.5.49-.32,1.43-.82-.38-.71-1.31-.71-1.31,0,0-.39.59-.01,1.47-.88-.2-.96-1.13-.96-1.13,0,0-.26.65.29,1.44-.91-.01-1.17-.91-1.17-.91,0,0-.12.69.58,1.35-.89.18-1.34-.64-1.34-.64,0,0,.03.7.85,1.2-.83.36-1.44-.35-1.44-.35,0,0,.17.68,1.08.99-.74.52-1.48-.04-1.48-.04,0,0,.31.63,1.26.75-.61.67-1.46.27-1.46.27,0,0,.44.55,1.39.47-.46.78-1.37.56-1.37.56,0,0,.54.45,1.46.17-.29.86-1.22.84-1.22.84,0,0,.62.33,1.46-.14-.11.9-1.02,1.07-1.02,1.07,0,0,.68.19,1.4-.44.08.9-.78,1.26-.78,1.26,0,0,.7.04,1.28-.72.27.86-.5,1.4-.5,1.4,0,0,.7-.1,1.1-.97.44.79-.2,1.47-.2,1.47,0,0,.66-.24.87-1.18.6.68.11,1.48.11,1.48,0,0,.59-.38.61-1.34.73.54.42,1.42.42,1.42,0,0,.5-.49.32-1.43.82.38.71,1.31.71,1.31,0,0,.39-.58.01-1.47.88.2.96,1.13.96,1.13,0,0,.26-.65-.29-1.44.9.01,1.17.91,1.17.91,0,0,.12-.69-.58-1.35.89-.18,1.34.64,1.34.64,0,0-.03-.7-.85-1.2.83-.36,1.44.35,1.44.35,0,0-.17-.68-1.08-.99.74-.52,1.48.04,1.48.04Z"/>
      </g>
    </g>
  </g>
</svg>