<?xml version="1.0" encoding="UTF-8"?>
<svg id="Layer_1" data-name="Layer 1" xmlns="http://www.w3.org/2000/svg" viewBox="0 0 24 24">
  <defs>
    <style>
      .cls-1 {
        fill: #042979;
      }

      .cls-1, .cls-2, .cls-3, .cls-4, .cls-5, .cls-6, .cls-7, .cls-8, .cls-9, .cls-10, .cls-11, .cls-12 {
        stroke-width: 0px;
      }

      .cls-2 {
        fill: #000;
      }

      .cls-3 {
        fill: #8b4103;
      }

      .cls-4 {
        fill: #92dafb;
      }

      .cls-5 {
        fill: #bc0927;
      }

      .cls-6 {
        fill: none;
      }

      .cls-7 {
        fill: #fedd55;
      }

      .cls-8 {
        fill: #0b8ce5;
      }

      .cls-9 {
        fill: #9b8333;
      }

      .cls-10 {
        fill: #0a9325;
      }

      .cls-11 {
        fill: #c52138;
      }

      .cls-12 {
        fill: #fff;
      }
    </style>
  </defs>
  <rect class="cls-6" width="24" height="24"/>
  <g>
    <path class="cls-2" d="M16.71,7.34c2.92,2.92,3.18,7.42.57,10.03-2.61,2.61-7.11,2.36-10.03-.57-2.92-2.92-3.18-7.42-.57-10.03,2.61-2.61,7.11-2.36,10.03.57Z"/>
    <g>
      <path class="cls-11" d="M12,21c-4.96,0-9-4.04-9-9S7.04,3,12,3s9,4.04,9,9-4.04,9-9,9Z"/>
      <circle class="cls-1" cx="12" cy="12" r="8.12"/>
      <g>
        <g>
          <path class="cls-9" d="M14.44,12.95c-.04.15-.09.29-.15.43h-2.83c.06-.13.15-.28.26-.32.03,0,.05,0,.08,0,.34,0,.67.01,1.01.02.48,0,.95.02,1.43-.09.06-.01.13-.02.2-.04Z"/>
          <path class="cls-8" d="M11.46,13.38h2.83c-.07.18-.16.36-.25.54-.11.01-.19.05-.24.08-.11.07-.13.14-.25.19-.11.04-.15.01-.32.04-.17.03-.16.06-.36.11-.17.04-.3.07-.45.05-.17-.02-.21-.08-.34-.06-.11.02-.22.09-.21.14,0,.06.14.09.2.11.18.04.26-.01.5.02.08,0,.12.01.16.03.13.07.22.26.17.38-.08.19-.55.24-.82.17-.04-.01-.12-.04-.22-.03-.11.01-.14.06-.27.1-.14.04-.17.01-.27.04-.07.02-.15.06-.24.16-.12-.13-.24-.26-.36-.41.27-.23.48-.26.62-.25.13.02.22.08.46.09.15,0,.36,0,.37-.06,0-.05-.18-.11-.19-.11-.14-.05-.21-.02-.37-.04-.06,0-.02,0-.38-.09-.22-.05-.29-.07-.38-.05-.07.01-.09.03-.15.02-.12,0-.18-.07-.26-.12-.05-.03-.13-.06-.23-.08-.19-.3-.37-.62-.5-.95h1.75Z"/>
          <path class="cls-4" d="M14.58,12c0,.32-.05.64-.14.95-.07.02-.14.03-.2.04-.48.1-.95.09-1.43.09-.34,0-.68-.02-1.01-.02-.03,0-.06,0-.08,0-.11.03-.2.19-.26.32h-1.75c-.18-.44-.29-.91-.29-1.38,0-1.98,1.93-3.78,2.58-4.33.66.56,2.58,2.35,2.58,4.33Z"/>
          <path class="cls-7" d="M11.98,14.7s.2.06.19.11c0,.05-.22.06-.37.06-.24-.01-.33-.07-.46-.09-.14-.02-.34.02-.62.25-.18-.21-.35-.44-.51-.69.1.02.17.05.23.08.08.05.15.12.26.12.06,0,.08-.01.15-.02.09-.01.16,0,.38.05.36.08.32.08.38.09.16.02.23,0,.37.04Z"/>
          <path class="cls-7" d="M13.79,14c.06-.03.14-.07.24-.08-.62,1.14-1.6,2.05-2.04,2.41-.21-.18-.56-.49-.93-.89.09-.1.17-.14.24-.16.1-.03.13,0,.27-.04.13-.04.16-.08.27-.1.1-.01.18.01.22.03.26.07.74.02.82-.17.05-.12-.04-.31-.17-.38-.04-.02-.08-.03-.16-.03-.24-.03-.32.02-.5-.02-.05-.01-.19-.04-.2-.11,0-.06.11-.12.21-.14.13-.02.18.04.34.06.16.02.28,0,.45-.05.2-.05.19-.08.36-.11.17-.03.21,0,.32-.04.13-.05.14-.12.25-.19Z"/>
          <path class="cls-11" d="M12,7.19s2.95,2.21,2.95,4.81-2.95,4.81-2.95,4.81c0,0-2.95-2.21-2.95-4.81s2.95-4.81,2.95-4.81ZM14.44,12.95c.09-.31.14-.63.14-.95,0-1.98-1.93-3.78-2.58-4.33-.66.56-2.58,2.36-2.58,4.33,0,.48.11.94.29,1.38.14.34.31.65.5.95.16.25.33.48.51.69.12.15.24.28.36.41.37.4.72.71.93.89.43-.37,1.42-1.27,2.04-2.41.09-.17.18-.35.25-.54.06-.14.11-.29.15-.43Z"/>
        </g>
        <g>
          <rect class="cls-2" x="10.94" y="13.73" width=".13" height=".18"/>
          <path class="cls-12" d="M10.65,12.64s.07.87-.25,1.14h1.22s-.23-.9-.97-1.14Z"/>
          <path class="cls-3" d="M11.78,13.85c-.51.05-1.03.05-1.54,0h0s.04.13.42.18v.11s-.06,0-.08,0h-.04s.04.11.47.11.47-.12.47-.12h-.04s-.06,0-.09.01v-.11c.38-.05.42-.18.42-.18ZM11.29,14.14c-.19,0-.38,0-.57,0v-.11c.08,0,.17.01.28.01s.2,0,.28-.01v.11Z"/>
        </g>
        <g>
          <path class="cls-10" d="M11.73,9.68s-1.06-.46-1.59.33c.18-.05.18-.08.18-.08,0,0-.03.12-.02.1.01-.01.21-.13.21-.13l-.02.07.13-.11v.08s.19-.11.19-.11l.03.05.12-.1.04.08.17-.1v.07s.29,0,.29,0c0,0-.77.18-.8.76l.13-.16-.03.12.12-.17.05.04.07-.13s.05.12.05.09c0-.02.11-.21.11-.21l.04.1.1-.18.02.07.09-.13.07.1.16-.08-.18.17.07.05-.14.12h.04s-.11.13-.11.13l.05.07-.07.11.08.04-.12.12.06.05.05.15.1-.15.04.06.02-.2.05.03-.03-.2.08.06-.04-.17h.07v-.13s.07.07.07.07l.16-.35.1-.03.08.04.03.17.06-.02v.16h.05s0,.11,0,.11l.06-.03v.17l.06-.02v.19l.06-.03v.11h.1s.05.08.05.08l.05-.14.08.03-.12-.14.05-.03-.13-.09.08-.06-.11-.07.07-.09-.11-.07.06-.04-.13-.09h.05s-.12-.16-.12-.16l.12.02-.02-.06s.17.16.17.14c0-.02,0-.12,0-.12,0,0,.12.12.12.12s.04-.08.04-.08l.08.12.03-.05.06.1.03-.04s.08.17.08.16c0-.01.06-.08.06-.08l.02.13.07-.04.04.12.05-.03.02.11.07-.04.05.13s.27-.71-.97-.84c.12-.06.14-.05.14-.05l.06.04.04-.08.08.04s.02-.11.04-.11.13.05.13.05l-.02-.06.14.05.03-.04.07.05s.04-.04.05-.04.11.05.11.05c0,0,0-.04.03-.03.02,0,.1.04.1.04l.02-.03.08.04s-.31-.51-1.16-.19c0-.05,0-.07,0-.07l.08.02.03-.06h.08l-.04-.06h.08s0-.06,0-.06l.16-.05-.04-.04.11-.03v-.08s.11.02.11.02v-.09h.09s-.03-.05-.03-.06c.01,0,.18-.06.18-.06,0,0-.64-.16-.96.52,0-.17-.02-.31-.02-.31,0,0-.07.08-.07.06s.01-.2.01-.2l-.06.03-.03-.23s-.04.04-.04.04c0-.01-.05-.15-.05-.15,0,0-.04.06-.04.04,0-.02-.04-.25-.04-.25l-.08.06-.02-.09-.05.02-.12-.12.04.12-.08.04.11.09-.09.03.1.06s-.06.1-.05.11c.01.01.13.09.13.09l-.07.07.15.06-.1.13.1.03.07.11h-.07s.14.22.14.22c0,0-.55-.61-.81-.56.13.11.13.15.13.15l-.07.02.12.05-.05.04.14.04-.07.04.15.07-.09.03.14.06-.04.02.15.06-.06.04.15.05-.04.02.06.06h-.04Z"/>
          <g>
            <path class="cls-3" d="M13.2,14.14s-.04-.02-.06-.04c-.17-.12-.33-.27-.47-.43,0,0,0,0,0,0-.11-.12-.2-.25-.28-.4-.22-.39-.34-.85-.34-1.32v-1.84s-.03-.08-.07-.09c-.06-.01-.11.03-.11.09v1.84c0,.51.13.99.37,1.41.09.16.19.3.3.43h0c.08.1.15.21.2.33.01.03.02.05.03.08.03.12.06.26.16.34.07.06.17.08.26.07.08,0,.2-.02.24-.1.07-.13-.12-.31-.21-.37Z"/>
            <path class="cls-3" d="M11.99,9.96c0,.05-.04.09-.09.09s-.09-.04-.09-.09.04-.09.09-.09.09.04.09.09Z"/>
            <path class="cls-3" d="M11.97,10.13c0,.05-.04.1-.1.1s-.1-.04-.1-.1.04-.1.1-.1.1.04.1.1Z"/>
            <circle class="cls-3" cx="12.06" cy="10.05" r=".12"/>
          </g>
        </g>
        <g>
          <g>
            <path class="cls-12" d="M10.73,11.94v.1h.18c0,.12-.07.17-.19.17-.07,0-.12-.03-.16-.08-.03-.04-.04-.1-.04-.17s.01-.13.04-.17c.04-.05.09-.08.16-.08.04,0,.08.01.12.03s.05.06.06.1h.13c0-.08-.04-.14-.1-.18-.05-.04-.12-.06-.2-.06-.1,0-.18.03-.24.11-.06.07-.09.15-.09.25s.03.19.09.25c.06.07.15.1.24.1.37,0,.31-.38.31-.38h-.3Z"/>
            <path class="cls-5" d="M10.73,12.3c-.09,0-.17-.03-.23-.1-.06-.06-.08-.14-.08-.24s.03-.17.08-.24c.06-.07.13-.1.23-.1.08,0,.14.02.19.05s.08.08.09.14h-.08s-.03-.07-.06-.09c-.04-.03-.08-.04-.13-.04-.07,0-.13.03-.17.09-.03.05-.05.11-.05.18s.02.14.05.19c.04.06.1.09.17.09h0c.13,0,.2-.07.2-.19v-.02h-.18v-.06h.26s0,.17-.07.25c-.05.06-.12.08-.22.08Z"/>
          </g>
          <g>
            <path class="cls-12" d="M11.63,12.01c0,.06,0,.1-.02.13-.02.04-.07.06-.14.06s-.11-.02-.13-.06c-.01-.03-.02-.07-.02-.13v-.4h-.13v.44c0,.09.03.15.08.2.05.04.12.07.21.07s.16-.02.21-.07c.05-.04.08-.11.08-.2v-.44h-.13v.4Z"/>
            <path class="cls-5" d="M11.48,12.29c-.08,0-.15-.02-.2-.06-.05-.04-.07-.1-.07-.18v-.41h.09v.38c0,.06,0,.11.02.14.02.05.08.07.15.07s.13-.02.15-.07c.01-.03.02-.07.02-.14v-.38h.09v.41c0,.08-.02.14-.07.18-.05.04-.11.06-.2.06Z"/>
          </g>
          <g>
            <path class="cls-12" d="M12.4,11.62l-.26.68h.14l.06-.18h.26l.06.18h.14l-.27-.68h-.14ZM12.37,12.03l.09-.27.1.27h-.19Z"/>
            <path class="cls-5" d="M12.67,12.29l-.06-.18h-.29l-.06.18h-.09l.25-.64h.11l.25.64h-.1ZM12.34,12.05h.25l-.13-.35-.13.35Z"/>
          </g>
          <g>
            <polygon class="cls-12" points="13.5 11.62 13.32 12.14 13.13 11.62 12.95 11.62 12.95 12.31 13.08 12.31 13.08 11.81 13.26 12.31 13.37 12.31 13.55 11.81 13.55 12.31 13.67 12.31 13.67 11.62 13.5 11.62"/>
            <polygon class="cls-5" points="13.57 12.29 13.57 11.7 13.53 11.8 13.35 12.29 13.27 12.29 13.1 11.8 13.06 11.7 13.06 12.29 12.97 12.29 12.97 11.64 13.12 11.64 13.32 12.2 13.51 11.64 13.65 11.64 13.65 12.29 13.57 12.29"/>
          </g>
        </g>
      </g>
    </g>
  </g>
</svg>