<?xml version="1.0" encoding="UTF-8"?>
<svg id="Layer_1" data-name="Layer 1" xmlns="http://www.w3.org/2000/svg" viewBox="0 0 24 24">
  <defs>
    <style>
      .cls-1 {
        fill: #000;
      }

      .cls-1, .cls-2, .cls-3, .cls-4, .cls-5 {
        stroke-width: 0px;
      }

      .cls-2 {
        fill: none;
      }

      .cls-3 {
        fill: #f8dc24;
      }

      .cls-4 {
        fill: #fff;
      }

      .cls-5 {
        fill: #e7122c;
      }
    </style>
  </defs>
  <rect class="cls-2" width="24" height="24"/>
  <g>
    <path class="cls-1" d="M16.71,7.34c2.92,2.92,3.18,7.42.57,10.03-2.61,2.61-7.11,2.36-10.03-.57-2.92-2.92-3.18-7.42-.57-10.03,2.61-2.61,7.11-2.36,10.03.57Z"/>
    <g>
      <g>
        <path class="cls-4" d="M21,12c0,.78-.1,1.53-.28,2.25-.21.8-.52,1.56-.92,2.25-1.2,2.06-3.18,3.61-5.54,4.22-.72.19-1.47.28-2.25.28s-1.53-.1-2.25-.28c-2.36-.61-4.35-2.16-5.54-4.22-.4-.7-.72-1.45-.92-2.25-.19-.72-.28-1.47-.28-2.25s.1-1.53.28-2.25c.21-.8.52-1.56.92-2.25,1.2-2.06,3.18-3.61,5.54-4.22.72-.19,1.47-.28,2.25-.28s1.53.1,2.25.28c2.36.61,4.35,2.16,5.54,4.22.4.7.72,1.45.92,2.25.18.72.28,1.47.28,2.25Z"/>
        <path class="cls-5" d="M21,12c0,.78-.1,1.53-.28,2.25h-6.47v6.47c-.72.19-1.47.28-2.25.28s-1.53-.1-2.25-.28v-6.47H3.28c-.19-.72-.28-1.47-.28-2.25s.1-1.53.28-2.25h6.47V3.28c.72-.19,1.47-.28,2.25-.28s1.53.1,2.25.28v6.47h6.47c.18.72.28,1.47.28,2.25Z"/>
      </g>
      <polygon class="cls-3" points="18.01 11.25 12.75 11.25 12.75 5.99 13.48 5.26 12.75 5.26 11.25 5.26 10.52 5.26 11.25 5.99 11.25 11.25 5.99 11.25 5.26 10.52 5.26 11.25 5.26 11.25 5.26 12.75 5.26 12.75 5.26 13.48 5.99 12.75 11.25 12.75 11.25 18.01 10.52 18.74 11.25 18.74 12.75 18.74 13.48 18.74 12.75 18.01 12.75 12.75 18.01 12.75 18.74 13.48 18.74 12.75 18.74 11.25 18.74 10.52 18.01 11.25"/>
    </g>
  </g>
</svg>