<?xml version="1.0" encoding="UTF-8"?>
<svg id="Layer_1" data-name="Layer 1" xmlns="http://www.w3.org/2000/svg" viewBox="0 0 24 24">
  <defs>
    <style>
      .cls-1 {
        fill: #ce1126;
      }

      .cls-1, .cls-2, .cls-3, .cls-4, .cls-5 {
        stroke-width: 0px;
      }

      .cls-2 {
        fill: #000;
      }

      .cls-3 {
        fill: #fcd116;
      }

      .cls-4 {
        fill: #009e49;
      }

      .cls-5 {
        fill: none;
      }
    </style>
  </defs>
  <rect class="cls-5" width="24" height="24"/>
  <g>
    <path class="cls-2" d="M16.71,7.34c2.92,2.92,3.18,7.42.57,10.03-2.61,2.61-7.11,2.36-10.04-.57-2.92-2.92-3.18-7.42-.57-10.03,2.61-2.61,7.11-2.36,10.04.57Z"/>
    <g>
      <g>
        <path class="cls-1" d="M10.06,3.21v17.58c-4.04-.89-7.06-4.49-7.06-8.79s3.03-7.9,7.06-8.79Z"/>
        <path class="cls-3" d="M21,12h-10.94V3.21c.62-.14,1.27-.21,1.94-.21,4.96,0,9,4.04,9,9Z"/>
        <path class="cls-4" d="M21,12c0,4.96-4.04,9-9,9-.66,0-1.31-.07-1.94-.21v-8.79h10.94Z"/>
      </g>
      <polygon class="cls-2" points="6.53 9.28 7.2 11.36 9.39 11.36 7.62 12.64 8.3 14.72 6.53 13.43 4.76 14.72 5.44 12.64 3.67 11.36 5.86 11.36 6.53 9.28"/>
    </g>
  </g>
</svg>