<?xml version="1.0" encoding="UTF-8"?>
<svg id="Layer_1" data-name="Layer 1" xmlns="http://www.w3.org/2000/svg" viewBox="0 0 24 24">
  <defs>
    <style>
      .cls-1 {
        fill: #000;
      }

      .cls-1, .cls-2, .cls-3, .cls-4, .cls-5, .cls-6 {
        stroke-width: 0px;
      }

      .cls-2 {
        fill: #fbd023;
      }

      .cls-3 {
        fill: none;
      }

      .cls-4 {
        fill: #009d4a;
      }

      .cls-5 {
        fill: #cd1225;
      }

      .cls-6 {
        fill: #fff;
      }
    </style>
  </defs>
  <rect class="cls-3" width="24" height="24"/>
  <g>
    <path class="cls-1" d="M16.71,7.34c2.92,2.92,3.18,7.42.57,10.03-2.61,2.61-7.11,2.35-10.03-.57-2.92-2.92-3.18-7.42-.57-10.03,2.61-2.61,7.11-2.36,10.03.57Z"/>
    <g>
      <path class="cls-4" d="M18.48,5.76c-1.64-1.7-3.94-2.76-6.48-2.76s-4.84,1.06-6.48,2.76c-.38.4-.73.82-1.03,1.28-.1.15-.2.3-.28.46-.09.16-.19.33-.27.5-.08.16-.16.33-.23.49-.46,1.08-.71,2.26-.71,3.5s.25,2.44.72,3.52c.07.17.15.33.23.49.08.17.17.33.26.49.09.16.18.31.28.46.3.46.65.89,1.03,1.28,1.64,1.7,3.94,2.76,6.48,2.76s4.84-1.06,6.48-2.76c1.56-1.62,2.52-3.82,2.52-6.24s-.96-4.62-2.52-6.24Z"/>
      <g>
        <path class="cls-6" d="M21,12l-16.51,4.95c-.1-.15-.2-.3-.28-.46-.09-.16-.18-.32-.26-.49-.08-.16-.16-.33-.23-.49-.46-1.08-.72-2.27-.72-3.52s.25-2.42.71-3.5c.07-.17.15-.33.23-.49.08-.17.17-.34.27-.5.09-.16.18-.31.28-.46l16.51,4.95Z"/>
        <path class="cls-2" d="M19.19,12l-14.99,4.5c-.09-.16-.18-.32-.26-.49-.08-.16-.16-.33-.23-.49-.46-1.08-.72-2.27-.72-3.52s.25-2.42.71-3.5c.07-.17.15-.33.23-.49.08-.17.17-.34.27-.5l14.99,4.49Z"/>
        <path class="cls-1" d="M10.61,12.02l-6.66,3.98c-.08-.16-.16-.33-.23-.49-.46-1.08-.72-2.27-.72-3.52s.25-2.42.71-3.5c.07-.17.15-.33.23-.49l6.67,4.02Z"/>
        <path class="cls-5" d="M9.6,12.02l-5.88,3.49c-.46-1.08-.72-2.27-.72-3.52s.25-2.42.71-3.5l5.89,3.52Z"/>
      </g>
    </g>
  </g>
</svg>