<?xml version="1.0" encoding="UTF-8"?>
<svg id="Layer_1" data-name="Layer 1" xmlns="http://www.w3.org/2000/svg" viewBox="0 0 24 24">
  <defs>
    <style>
      .cls-1 {
        fill: #000;
      }

      .cls-1, .cls-2, .cls-3, .cls-4 {
        stroke-width: 0px;
      }

      .cls-2 {
        fill: none;
      }

      .cls-3 {
        fill: #0a73cd;
      }

      .cls-4 {
        fill: #fff;
      }
    </style>
  </defs>
  <rect class="cls-2" width="24" height="24"/>
  <g>
    <path class="cls-1" d="M16.71,7.34c2.92,2.92,3.18,7.42.57,10.03-2.61,2.61-7.11,2.36-10.03-.57-2.92-2.92-3.18-7.42-.57-10.03,2.61-2.61,7.11-2.35,10.03.57Z"/>
    <g>
      <g>
        <path class="cls-3" d="M12,3c-3.91,0-7.25,2.51-8.48,6h16.97c-1.24-3.49-4.57-6-8.48-6Z"/>
        <path class="cls-4" d="M21,12c0-1.05-.18-2.06-.52-3H3.52c-.33.94-.52,1.95-.52,3s.18,2.06.52,3h16.97c.33-.94.52-1.95.52-3Z"/>
        <path class="cls-3" d="M3.52,15c1.24,3.49,4.57,6,8.48,6s7.25-2.51,8.48-6H3.52Z"/>
      </g>
      <g>
        <polygon class="cls-3" points="12 11.19 12.22 11.87 12.95 11.87 12.36 12.3 12.58 12.98 12 12.56 11.42 12.98 11.64 12.3 11.06 11.87 11.78 11.87 12 11.19"/>
        <g>
          <g>
            <polygon class="cls-3" points="7.17 9.66 7.39 10.34 8.12 10.34 7.53 10.77 7.76 11.45 7.17 11.03 6.59 11.45 6.81 10.77 6.23 10.34 6.95 10.34 7.17 9.66"/>
            <polygon class="cls-3" points="7.17 12.55 7.39 13.23 8.12 13.23 7.53 13.66 7.76 14.34 7.17 13.92 6.59 14.34 6.81 13.66 6.23 13.23 6.95 13.23 7.17 12.55"/>
          </g>
          <g>
            <polygon class="cls-3" points="16.83 9.66 17.05 10.34 17.77 10.34 17.19 10.77 17.41 11.45 16.83 11.03 16.24 11.45 16.47 10.77 15.89 10.34 16.61 10.34 16.83 9.66"/>
            <polygon class="cls-3" points="16.83 12.55 17.05 13.23 17.77 13.23 17.19 13.66 17.41 14.34 16.83 13.92 16.24 14.34 16.47 13.66 15.89 13.23 16.61 13.23 16.83 12.55"/>
          </g>
        </g>
      </g>
    </g>
  </g>
</svg>