<?xml version="1.0" encoding="UTF-8"?>
<svg id="Layer_1" data-name="Layer 1" xmlns="http://www.w3.org/2000/svg" viewBox="0 0 24 24">
  <defs>
    <style>
      .cls-1 {
        fill: #000;
      }

      .cls-1, .cls-2, .cls-3, .cls-4 {
        stroke-width: 0px;
      }

      .cls-2 {
        fill: #de2910;
      }

      .cls-3 {
        fill: none;
      }

      .cls-4 {
        fill: #fff;
      }
    </style>
  </defs>
  <rect class="cls-3" width="24" height="24"/>
  <g>
    <path class="cls-1" d="M16.71,7.34c2.92,2.92,3.18,7.42.57,10.03-2.61,2.61-7.11,2.35-10.03-.57s-3.18-7.42-.57-10.03c2.61-2.61,7.11-2.35,10.03.57Z"/>
    <g>
      <path class="cls-2" d="M12,21c-4.96,0-9-4.04-9-9S7.04,3,12,3s9,4.04,9,9-4.04,9-9,9Z"/>
      <g>
        <path class="cls-4" d="M10.66,12.44c-.25,0-.49-.05-.73-.15-.32-.13-.62-.34-.87-.61l.07-.06c.34.36,1.24,1.12,2.49.48-1.2.22-1.42-.82-1.49-1.2-.07-.38-.71-1.19-1.56-1.01-1.08.25-1.24-.78-1.24-.78-1.13,2.97,2.39,5.16,4.36,3.05-.34.18-.69.27-1.02.27ZM8.74,11.66l-.06-.32-.32-.08.28-.16-.02-.32.24.22.3-.12-.14.3.21.25-.32-.04-.18.27Z"/>
        <path class="cls-4" d="M12.06,12.23c.06.38.04.74-.06,1.06-.08.23-.2.45-.36.65-.22.26-.52.49-.85.64l-.04-.08c.45-.21,1.45-.83,1.23-2.22-.16,1.21-1.22,1.09-1.6,1.04-.39-.05-1.35.3-1.45,1.18-.09,1.1-1.12.93-1.12.93,2.48,1.99,5.65-.68,4.25-3.2ZM10.35,14.83l-.18.27-.06-.32-.32-.08.28-.16-.02-.33.24.22.3-.12-.14.29.21.25-.32-.04Z"/>
        <path class="cls-4" d="M12.25,11.89c.38.06.71.19.99.38.2.15.37.33.51.55.18.29.3.64.35,1.01h-.09c-.06-.48-.34-1.62-1.73-1.85,1.1.53.66,1.5.5,1.84-.17.35-.13,1.39.67,1.74,1.02.43.54,1.36.54,1.36,2.66-1.74,1.1-5.58-1.73-5.03ZM14.07,14.53l-.18.27-.06-.32-.32-.08.28-.16-.02-.32.24.22.3-.12-.14.3.21.25-.32-.04Z"/>
        <path class="cls-4" d="M11.97,11.61c.17-.35.4-.62.67-.82.2-.15.43-.25.68-.31.33-.08.7-.09,1.07-.02l-.02.09c-.49-.1-1.66-.18-2.3,1.07.84-.88,1.63-.17,1.9.09.28.27,1.28.55,1.86-.1.72-.84,1.46-.1,1.46-.1-.84-3.07-4.97-2.77-5.32.09ZM14.94,10.9l-.18.27-.06-.32-.32-.08.28-.16-.02-.33.24.22.3-.12-.14.29.21.25-.32-.04Z"/>
        <path class="cls-4" d="M13.18,6.69c-3.18-.15-4.17,3.87-1.56,5.09-.28-.27-.47-.57-.57-.89-.08-.24-.11-.48-.09-.74.02-.34.13-.69.31-1.02l.08.04c-.24.43-.68,1.52.31,2.52-.58-1.07.34-1.6.68-1.78.35-.19.92-1.04.48-1.8-.58-.95.36-1.42.36-1.42ZM11.75,8.96l-.18.27-.06-.32-.31-.08.28-.16-.02-.33.24.22.3-.12-.14.3.21.25-.32-.04Z"/>
      </g>
    </g>
  </g>
</svg>