<?xml version="1.0" encoding="UTF-8"?>
<svg id="Layer_1" data-name="Layer 1" xmlns="http://www.w3.org/2000/svg" viewBox="0 0 24 24">
  <defs>
    <style>
      .cls-1 {
        fill: #000;
      }

      .cls-1, .cls-2, .cls-3, .cls-4, .cls-5 {
        stroke-width: 0px;
      }

      .cls-2 {
        fill: #d62827;
      }

      .cls-3 {
        fill: none;
      }

      .cls-4 {
        fill: #063895;
      }

      .cls-5 {
        fill: #fff;
      }
    </style>
  </defs>
  <rect class="cls-3" width="24" height="24"/>
  <g>
    <path class="cls-1" d="M16.71,7.34c2.92,2.92,3.18,7.42.57,10.03-2.61,2.61-7.11,2.36-10.03-.57-2.92-2.92-3.18-7.42-.57-10.03,2.61-2.61,7.11-2.35,10.03.57Z"/>
    <g>
      <path class="cls-4" d="M21,12c0,.33-.02.66-.05.99-.04.36-.1.71-.18,1.06-.93,3.98-4.51,6.96-8.77,6.96-.32,0-.64-.02-.95-.05-.36-.04-.71-.1-1.06-.17-.69-.16-1.35-.4-1.97-.7-.37-.18-.72-.39-1.05-.61-1.85-1.25-3.21-3.18-3.74-5.42-.08-.35-.14-.7-.18-1.06-.04-.32-.05-.65-.05-.99s.02-.66.05-.98c.04-.36.1-.71.18-1.06.52-2.24,1.88-4.17,3.74-5.42.34-.23.69-.43,1.05-.61.62-.31,1.28-.54,1.97-.7.35-.08.7-.14,1.06-.18.31-.03.63-.05.95-.05,4.26,0,7.84,2.98,8.77,6.96.08.35.14.7.18,1.06.04.32.05.65.05.98Z"/>
      <g>
        <path class="cls-5" d="M21,12c0,.33-.02.66-.05.99-.04.36-.1.71-.18,1.06h-9.71v6.91c-.36-.04-.71-.1-1.06-.17-.69-.16-1.35-.4-1.97-.7-.37-.18-.72-.39-1.05-.61v-5.42h-3.74c-.08-.35-.14-.7-.18-1.06-.04-.32-.05-.65-.05-.99s.02-.66.05-.98c.04-.36.1-.71.18-1.06h3.74v-5.42c.34-.23.69-.43,1.05-.61.62-.31,1.28-.54,1.97-.7.35-.08.7-.14,1.06-.18v6.91h9.71c.08.35.14.7.18,1.06.04.32.05.65.05.98Z"/>
        <path class="cls-2" d="M21,12c0,.33-.02.66-.05.99h-10.95v7.79c-.69-.16-1.35-.4-1.97-.7v-7.09H3.05c-.04-.32-.05-.65-.05-.99s.02-.66.05-.98h4.97V3.93c.62-.31,1.28-.54,1.97-.7v7.79h10.95c.04.32.05.65.05.98Z"/>
      </g>
    </g>
  </g>
</svg>