<?xml version="1.0" encoding="UTF-8"?>
<svg id="Layer_1" data-name="Layer 1" xmlns="http://www.w3.org/2000/svg" viewBox="0 0 24 24">
  <defs>
    <style>
      .cls-1 {
        fill: #000;
      }

      .cls-1, .cls-2, .cls-3, .cls-4, .cls-5, .cls-6 {
        stroke-width: 0px;
      }

      .cls-2 {
        fill: #008;
      }

      .cls-3 {
        fill: none;
      }

      .cls-4 {
        fill: #f93;
      }

      .cls-5 {
        fill: #128807;
      }

      .cls-6 {
        fill: #fff;
      }
    </style>
  </defs>
  <rect class="cls-3" width="24" height="24"/>
  <g>
    <path class="cls-1" d="M16.71,7.34c2.92,2.92,3.18,7.42.57,10.03-2.61,2.61-7.11,2.35-10.03-.57-2.92-2.92-3.18-7.42-.57-10.03,2.61-2.61,7.11-2.35,10.03.57Z"/>
    <g>
      <g>
        <path class="cls-6" d="M21,12c0,1.05-.18,2.06-.51,3-1.24,3.49-4.57,6-8.49,6s-7.25-2.51-8.49-6c-.33-.94-.51-1.95-.51-3s.18-2.06.51-3c1.24-3.49,4.57-6,8.49-6s7.25,2.51,8.49,6c.33.94.51,1.95.51,3Z"/>
        <path class="cls-4" d="M20.49,9H3.51c1.24-3.49,4.57-6,8.49-6s7.25,2.51,8.49,6Z"/>
        <path class="cls-5" d="M20.49,15c-1.24,3.49-4.57,6-8.49,6s-7.25-2.51-8.49-6h16.97Z"/>
      </g>
      <g>
        <path class="cls-2" d="M12.32,12.27s0,0,0,0c0,0,0,0,0,0h0s0-.01,0-.01c0,0,0,0,0,0,0,0,0,0,0,0,0,0,0,0,0,0,0,0,0,0,0,0l.33.25,1.13.57-1.06-.7-.38-.16s0,0,0,0c0,0,0,0,0,0,0,0,0,0,0,0s0,0,0,0c0,0,0,0,0,0,0,0,0,0,0,0,0,0,0,0,0,0,0,0,0,0,0,0,0,0,0,0,0,0h0s.38.15.38.15l1.25.26-1.21-.4-.41-.06s0,0,0,0h0s0-.01,0-.01h0s0-.01,0-.01h0s0-.01,0-.01h0v-.02l.41.05,1.27-.07-1.27-.07-.41.05h0v-.02s0,0,0,0h0s0-.01,0-.02h0s0-.01,0-.01h0s0-.01,0-.01l.41-.06,1.21-.4-1.25.26-.38.15h0s0-.01,0-.01c0,0,0,0,0,0,0,0,0,0,0,0,0,0,0,0,0,0,0,0,0,0,0,0,0,0,0,0,0,0,0,0,0,0,0,0,0,0,0,0,0,0,0,0,0,0,0,0l.38-.16,1.06-.7-1.13.57-.33.25s0,0,0,0h0s0-.01,0-.01c0,0,0,0,0,0,0,0,0,0,0,0h0s0-.01,0-.01h0s0-.01,0-.01c0,0,0,0,0,0l.32-.25.85-.95-.95.85-.25.32h0s0,0,0,0h0s0,0,0,0c0,0,0,0,0,0,0,0,0,0,0,0,0,0,0,0,0,0,0,0,0,0,0,0,0,0,0,0,0,0,0,0,0,0,0,0l.25-.33.57-1.13-.7,1.06-.16.38s0,0,0,0,0,0,0,0t0,0s0,0,0,0,0,0,0,0c0,0,0,0,0,0,0,0,0,0,0,0s0,0,0,0,0,0,0,0c0,0,0,0,0,0l.15-.38.26-1.24-.4,1.21-.06.41h0s0,0,0,0c0,0,0,0,0,0h0s0,0,0,0h-.01s0,0,0,0h-.01l.05-.41-.07-1.27-.07,1.27.05.41h-.01s0,0,0,0h-.01s0,0,0,0h0s0,0,0,0,0,0,0,0h0l-.06-.41-.4-1.21.26,1.24.15.38s0,0,0,0c0,0,0,0,0,0s0,0,0,0c0,0,0,0,0,0s0,0,0,0c0,0,0,0,0,0,0,0,0,0,0,0,0,0,0,0,0,0,0,0,0,0,0,0s0,0,0,0l-.16-.38-.7-1.06.57,1.13.25.33s0,0,0,0c0,0,0,0,0,0,0,0,0,0,0,0,0,0,0,0,0,0,0,0,0,0,0,0,0,0,0,0,0,0,0,0,0,0,0,0,0,0,0,0,0,0,0,0,0,0,0,0h0s-.25-.32-.25-.32l-.95-.85.85.95.32.25s0,0,0,0c0,0,0,0,0,0h0s0,0,0,.01c0,0,0,0,0,0,0,0,0,0,0,0s0,0,0,0c0,0,0,0,0,0h0s0,0,0,.01l-.33-.25-1.13-.57,1.06.7.38.16s0,0,0,0c0,0,0,0,0,0,0,0,0,0,0,0,0,0,0,0,0,0,0,0,0,0,0,0,0,0,0,0,0,0,0,0,0,0,0,0,0,0,0,0,0,0,0,0,0,0,0,0h0s-.38-.15-.38-.15l-1.25-.26,1.21.4.41.06s0,0,0,0h0s0,.01,0,.01h0s0,.01,0,.01h0s0,.01,0,.01h0v.02l-.41-.05-1.27.07,1.27.07.41-.05h0v.02s0,0,0,0h0s0,.01,0,.02h0s0,.01,0,.01h0s0,.01,0,.01l-.41.06-1.21.4,1.25-.26.38-.16h0s0,.01,0,.01c0,0,0,0,0,0,0,0,0,0,0,0,0,0,0,0,0,0,0,0,0,0,0,0,0,0,0,0,0,0s0,0,0,0c0,0,0,0,0,0,0,0,0,0,0,0l-.38.16-1.06.7,1.13-.57.33-.25s0,0,0,0c0,0,0,0,0,0,0,0,0,0,0,0,0,0,0,0,0,0,0,0,0,0,0,0,0,0,0,0,0,0,0,0,0,0,0,0,0,0,0,0,0,0,0,0,0,0,0,0s0,0,0,0l-.32.25-.85.95.95-.84.25-.32s0,0,0,0c0,0,0,0,0,0,0,0,0,0,0,0,0,0,0,0,0,0,0,0,0,0,0,0s0,0,0,0h0s0,0,0,0c0,0,0,0,0,0,0,0,0,0,0,0l-.25.33-.57,1.13.7-1.06.16-.38s0,0,0,0c0,0,0,0,0,0,0,0,0,0,0,0,0,0,0,0,0,0,0,0,0,0,0,0,0,0,0,0,0,0,0,0,0,0,0,0,0,0,0,0,0,0,0,0,0,0,0,0,0,0,0,0,0,0l-.15.38-.26,1.24.4-1.21.06-.41s0,0,0,0h0s0,0,0,0h0s0,0,0,0h0s0,0,0,0h.02l-.05.41.07,1.27.07-1.27-.05-.41h.02s0,0,0,0h0s0,0,0,0h0s0,0,0,0h0s0,0,0,0l.06.41.4,1.21-.26-1.24-.15-.38s0,0,0,0c0,0,0,0,0,0,0,0,0,0,0,0,0,0,0,0,0,0,0,0,0,0,0,0,0,0,0,0,0,0,0,0,0,0,0,0,0,0,0,0,0,0,0,0,0,0,0,0t0,0l.16.38.7,1.06-.57-1.13-.25-.33s0,0,0,0c0,0,0,0,0,0,0,0,0,0,0,0h0s0,0,0,0c0,0,0,0,0,0,0,0,0,0,0,0,0,0,0,0,0,0,0,0,0,0,0,0,0,0,0,0,0,0l.25.32.95.84-.85-.95-.32-.25s0,0,0,0c0,0,0,0,0,0Z"/>
        <path class="cls-2" d="M12,9.59c-1.33,0-2.41,1.08-2.41,2.41s1.08,2.41,2.41,2.41,2.41-1.08,2.41-2.41-1.08-2.41-2.41-2.41ZM14.06,12.39s.01,0,.01,0c-.02.11-.05.22-.09.33-.05-.02-.11,0-.14.04-.03.05-.01.12.04.15,0,0,.01,0,.01,0-.05.1-.11.2-.17.29-.04-.03-.1-.03-.14,0-.04.04-.04.11,0,.15,0,0,0,0,.01.01-.07.09-.15.17-.24.24-.03-.04-.09-.06-.14-.03-.05.03-.07.09-.04.15,0,0,0,0,0,.01-.09.06-.19.12-.29.17-.02-.05-.07-.08-.13-.06-.06.02-.09.07-.07.13,0,0,0,.01,0,.01-.11.04-.21.07-.33.09,0-.05-.05-.09-.11-.09-.06,0-.11.05-.11.11,0,0,0,.01,0,.01-.05,0-.11,0-.16,0-.06,0-.12,0-.17,0,0-.05-.03-.11-.08-.12-.06-.02-.12.02-.13.07,0,0,0,.01,0,.01-.11-.02-.22-.05-.33-.09.02-.05,0-.11-.04-.14-.05-.03-.12-.01-.15.04,0,0,0,.01,0,.01-.1-.05-.2-.11-.29-.17.03-.04.03-.1,0-.14-.04-.04-.11-.04-.15,0,0,0,0,0,0,.01-.08-.07-.17-.15-.24-.24.04-.03.06-.09.03-.14-.03-.05-.09-.07-.15-.04,0,0,0,0-.01,0-.06-.09-.12-.19-.17-.29.05-.02.08-.07.06-.13-.01-.06-.07-.09-.13-.07,0,0-.01,0-.02,0-.04-.11-.07-.21-.09-.33.05,0,.1-.05.1-.11s-.05-.11-.11-.11c0,0,0,0-.01,0,0-.05,0-.11,0-.16,0-.06,0-.12,0-.17.05,0,.11-.03.12-.08.01-.06-.02-.12-.08-.13,0,0,0,0-.02,0,.02-.11.05-.22.09-.33.05.02.11,0,.14-.04.03-.05.01-.12-.04-.15,0,0-.01,0-.01,0,.05-.1.11-.2.17-.29.04.03.11.03.14,0,.04-.04.04-.11,0-.15,0,0,0,0-.01-.01.07-.09.15-.17.24-.24.03.04.09.06.14.03.05-.03.07-.09.04-.15,0,0,0,0,0-.01.09-.06.19-.12.29-.17.02.05.07.08.13.06.06-.02.09-.07.07-.13,0,0,0-.01,0-.02.11-.04.21-.07.33-.08,0,.05.05.09.11.09.06,0,.11-.05.11-.11,0,0,0-.01,0-.02.05,0,.11,0,.16,0,.06,0,.12,0,.18,0,0,.05.02.1.08.12.06.01.12-.02.13-.08,0,0,0-.01,0-.01.11.02.22.05.33.09-.02.05,0,.11.04.14.05.03.12.01.15-.04,0,0,0,0,0-.01.1.05.2.11.29.17-.03.04-.03.1,0,.14.04.04.11.04.15,0,0,0,0,0,.01-.01.08.07.17.15.24.24-.04.03-.06.09-.03.14.03.05.09.07.15.04,0,0,.01,0,.01,0,.06.09.12.19.17.29-.05.02-.08.07-.06.13.02.06.07.09.13.08,0,0,0,0,.01,0,.04.11.07.21.09.33-.05,0-.09.05-.09.11s.05.11.11.11h.01c0,.05,0,.11,0,.16,0,.06,0,.12,0,.18-.05,0-.11.02-.12.08-.02.06.02.12.07.13Z"/>
      </g>
    </g>
  </g>
</svg>