<?xml version="1.0" encoding="UTF-8"?>
<svg id="Layer_1" data-name="Layer 1" xmlns="http://www.w3.org/2000/svg" viewBox="0 0 24 24">
  <defs>
    <style>
      .cls-1 {
        fill: #000;
      }

      .cls-1, .cls-2, .cls-3, .cls-4, .cls-5 {
        stroke-width: 0px;
      }

      .cls-2 {
        fill: none;
      }

      .cls-3 {
        fill: #d90201;
      }

      .cls-4 {
        fill: #fff;
      }

      .cls-5 {
        fill: #1f9e42;
      }
    </style>
  </defs>
  <rect class="cls-2" width="24" height="24"/>
  <g>
    <path class="cls-1" d="M16.71,7.34c2.92,2.92,3.18,7.42.57,10.03-2.61,2.61-7.11,2.36-10.03-.57s-3.18-7.42-.57-10.03c2.61-2.61,7.11-2.36,10.03.57Z"/>
    <g>
      <g>
        <g>
          <path class="cls-3" d="M20.49,15s-.02.06-.03.08c-.03.07-.05.15-.08.22-.01.03-.03.07-.04.1-.02.06-.05.12-.08.18-.02.06-.05.12-.08.18-.01.02-.02.05-.04.08-.01.03-.03.07-.05.1-1.46,2.99-4.54,5.05-8.08,5.05s-6.62-2.06-8.09-5.05c-.02-.03-.03-.07-.05-.1-.01-.02-.02-.04-.03-.05-.03-.07-.06-.13-.09-.2-.03-.06-.05-.12-.08-.18-.01-.03-.03-.07-.04-.1-.03-.07-.06-.15-.08-.22-.01-.03-.02-.05-.03-.08h16.97Z"/>
          <path class="cls-4" d="M21,12c0,1.04-.18,2.05-.51,2.98,0,0,0,.01,0,.02H3.52s0-.01,0-.02c-.33-.93-.51-1.94-.51-2.98s.18-2.05.51-2.98c0,0,0-.01,0-.02h16.97s0,.01,0,.02c.33.93.51,1.94.51,2.98Z"/>
          <path class="cls-5" d="M20.48,9H3.52s.02-.06.03-.08c.06-.16.12-.31.18-.46.02-.04.03-.08.05-.12.03-.06.05-.12.08-.18.02-.03.03-.07.05-.11,1.47-2.99,4.54-5.05,8.08-5.05s6.62,2.06,8.08,5.05c.02.03.03.07.05.11.03.06.06.12.08.18.02.04.04.08.05.13.07.15.13.31.18.46.01.03.02.06.03.08Z"/>
        </g>
        <g>
          <path class="cls-3" d="M13.42,11.6c-.03-.13-.08-.25-.12-.36-.19-.43-.41-.65-.41-.65,0,0,.09.3.16.73.03.21.06.46.04.72,0,.13-.03.26-.06.38-.03.13-.07.24-.14.36-.05.12-.14.21-.22.31-.09.09-.18.19-.28.26-.05.04-.11.08-.16.11,0-.63.06-2.64.06-2.98l-.29-.19-.29.19c0,.35.05,2.36.06,2.98-.05-.04-.11-.07-.17-.11-.1-.07-.19-.17-.28-.26-.08-.1-.16-.2-.22-.31-.06-.11-.11-.23-.14-.36s-.05-.25-.06-.38c-.02-.25.01-.5.04-.72.07-.43.16-.73.16-.73,0,0-.22.22-.41.65-.04.11-.09.23-.12.36-.03.13-.06.27-.07.43,0,.15,0,.32.03.48.03.16.09.33.16.48.08.15.19.29.3.41.12.12.25.21.38.29.07.04.14.08.21.11-.12.05-.23.1-.32.13-.12.05-.19.08-.19.08,0,0,.08,0,.21,0,.07,0,.15,0,.24,0,.09,0,.2-.02.31-.04,0,0,.01,0,.02,0,.01.03.03.07.04.09.05.11.09.17.09.17,0,0,.03-.06.09-.17.01-.03.03-.06.04-.09,0,0,.01,0,.02,0,.11.03.22.03.31.04.09.01.18.01.24,0,.14,0,.21,0,.21,0,0,0-.07-.03-.19-.08-.08-.03-.19-.08-.32-.13.07-.03.14-.07.21-.11.13-.08.26-.17.38-.29.11-.12.22-.25.3-.41.08-.15.14-.31.17-.48.03-.16.03-.33.03-.48,0-.15-.04-.3-.07-.43Z"/>
          <path class="cls-3" d="M10.36,13.12c-.03-.06-.05-.13-.07-.21-.02-.08-.05-.16-.08-.24-.02-.09-.04-.18-.06-.27,0-.09-.02-.19-.02-.28,0-.09,0-.19.02-.28,0-.05.01-.09.02-.14.01-.05.03-.09.04-.14.02-.09.06-.18.1-.27.04-.08.08-.17.13-.24.04-.08.09-.15.13-.22.09-.13.17-.25.23-.32.06-.08.1-.13.1-.13,0,0-.06.01-.15.05-.09.04-.22.11-.36.22-.14.11-.29.25-.42.44-.03.05-.06.1-.09.15-.03.05-.06.11-.08.16-.02.06-.04.12-.06.18-.01.06-.02.12-.03.19-.03.13-.01.25-.01.38.01.12.05.24.07.35.04.11.09.21.13.3.05.09.11.17.16.24.05.07.1.13.16.18.05.05.1.09.14.12.08.06.13.1.13.1,0,0-.02-.06-.05-.15-.02-.05-.04-.1-.06-.16Z"/>
          <path class="cls-3" d="M14.3,11.78c-.01-.06-.02-.13-.03-.19-.02-.06-.04-.12-.06-.18-.02-.06-.05-.11-.08-.16-.03-.05-.05-.11-.09-.15-.13-.19-.28-.34-.42-.44-.14-.11-.27-.18-.36-.22-.09-.04-.15-.05-.15-.05,0,0,.04.05.09.13.06.08.14.19.23.32.04.07.09.14.13.22.05.07.08.16.13.24.03.09.07.17.1.27.01.04.02.09.04.14.01.05.01.09.02.14.02.09.01.19.02.28,0,.09-.02.19-.02.28-.02.09-.04.18-.06.27-.02.09-.06.17-.08.24-.02.08-.05.15-.07.21-.03.06-.05.12-.06.16-.03.09-.05.15-.05.15,0,0,.05-.03.13-.1.04-.03.09-.07.14-.12.06-.05.11-.11.16-.18.05-.07.12-.15.16-.24.04-.09.1-.19.14-.3.02-.11.06-.23.07-.35,0-.12.02-.25-.01-.38Z"/>
          <path class="cls-3" d="M11.64,10.28c.17,0,.31-.11.36-.26.05.15.19.26.36.26.21,0,.38-.17.38-.38,0-.04,0-.08-.02-.12-.05.15-.19.26-.36.26s-.31-.11-.36-.26h0s0,0,0,0c-.05.15-.19.26-.36.26s-.31-.11-.36-.26c-.01.04-.02.08-.02.12,0,.21.17.38.38.38Z"/>
        </g>
      </g>
      <g>
        <g>
          <g>
            <rect class="cls-4" x="13.45" y="8.05" width="1.79" height=".11"/>
            <rect class="cls-4" x="13.45" y="8.92" width="1.25" height=".1"/>
            <rect class="cls-4" x="14.87" y="8.92" width="1.25" height=".1"/>
            <polygon class="cls-4" points="14.29 8.33 14.29 8.44 14.6 8.44 14.6 8.59 14.11 8.59 14.11 8.44 14.11 8.33 14.01 8.33 13.55 8.33 13.45 8.33 13.45 8.44 13.45 8.69 13.55 8.69 13.55 8.44 14.01 8.44 14.01 8.69 14.08 8.69 14.11 8.69 14.6 8.69 14.7 8.69 14.7 8.59 14.7 8.44 14.7 8.33 14.6 8.33 14.29 8.33"/>
            <polygon class="cls-4" points="15.55 8.69 15.73 8.69 15.83 8.69 16.02 8.69 16.12 8.69 16.12 8.59 16.12 8.05 16.02 8.05 16.02 8.59 15.83 8.59 15.83 8.05 15.73 8.05 15.73 8.59 15.55 8.59 15.55 8.05 15.44 8.05 15.44 8.33 14.98 8.33 14.87 8.33 14.87 8.44 14.87 8.59 14.87 8.69 14.98 8.69 15.24 8.69 15.24 8.59 14.98 8.59 14.98 8.44 15.44 8.44 15.44 8.59 15.44 8.69 15.55 8.69"/>
            <rect class="cls-4" x="13.73" y="8.59" width=".1" height=".11"/>
          </g>
          <g>
            <path class="cls-4" d="M20.14,8.15h-1.12v-.11h1.06s.03.07.05.11Z"/>
            <rect class="cls-4" x="19.02" y="8.92" width="1.25" height=".1"/>
            <path class="cls-4" d="M20.49,9.02h-.05v-.11h.01s.02.06.03.08c0,0,0,.01,0,.02Z"/>
            <path class="cls-4" d="M20.27,8.46v.24h-.69v-.26h-.45v.26h-.11v-.36h.66v.26h.49v-.15h-.3v-.11h.35s.04.08.05.13Z"/>
            <rect class="cls-4" x="19.3" y="8.59" width=".1" height=".11"/>
          </g>
          <g>
            <rect class="cls-4" x="16.23" y="8.05" width="1.8" height=".11"/>
            <rect class="cls-4" x="16.23" y="8.92" width="1.25" height=".1"/>
            <rect class="cls-4" x="17.66" y="8.92" width="1.25" height=".1"/>
            <polygon class="cls-4" points="17.08 8.33 17.08 8.44 17.38 8.44 17.38 8.59 16.9 8.59 16.9 8.44 16.9 8.33 16.79 8.33 16.34 8.33 16.23 8.33 16.23 8.44 16.23 8.69 16.34 8.69 16.34 8.44 16.79 8.44 16.79 8.69 16.87 8.69 16.9 8.69 17.38 8.69 17.49 8.69 17.49 8.59 17.49 8.44 17.49 8.33 17.38 8.33 17.08 8.33"/>
            <polygon class="cls-4" points="18.34 8.69 18.52 8.69 18.62 8.69 18.8 8.69 18.91 8.69 18.91 8.59 18.91 8.05 18.8 8.05 18.8 8.59 18.62 8.59 18.62 8.05 18.52 8.05 18.52 8.59 18.34 8.59 18.34 8.05 18.23 8.05 18.23 8.33 17.76 8.33 17.66 8.33 17.66 8.44 17.66 8.59 17.66 8.69 17.76 8.69 18.02 8.69 18.02 8.59 17.76 8.59 17.76 8.44 18.23 8.44 18.23 8.59 18.23 8.69 18.34 8.69"/>
            <rect class="cls-4" x="16.51" y="8.59" width=".11" height=".11"/>
          </g>
          <g>
            <rect class="cls-4" x="10.66" y="8.05" width="1.79" height=".11"/>
            <rect class="cls-4" x="10.66" y="8.92" width="1.25" height=".1"/>
            <rect class="cls-4" x="12.08" y="8.92" width="1.25" height=".1"/>
            <polygon class="cls-4" points="11.51 8.33 11.51 8.44 11.81 8.44 11.81 8.59 11.32 8.59 11.32 8.44 11.32 8.33 11.22 8.33 10.77 8.33 10.66 8.33 10.66 8.44 10.66 8.69 10.77 8.69 10.77 8.44 11.22 8.44 11.22 8.69 11.3 8.69 11.32 8.69 11.81 8.69 11.92 8.69 11.92 8.59 11.92 8.44 11.92 8.33 11.81 8.33 11.51 8.33"/>
            <polygon class="cls-4" points="12.76 8.69 12.94 8.69 13.05 8.69 13.23 8.69 13.33 8.69 13.33 8.59 13.33 8.05 13.23 8.05 13.23 8.59 13.05 8.59 13.05 8.05 12.94 8.05 12.94 8.59 12.76 8.59 12.76 8.05 12.66 8.05 12.66 8.33 12.19 8.33 12.09 8.33 12.09 8.44 12.09 8.59 12.09 8.69 12.19 8.69 12.45 8.69 12.45 8.59 12.19 8.59 12.19 8.44 12.66 8.44 12.66 8.59 12.66 8.69 12.76 8.69"/>
            <rect class="cls-4" x="10.94" y="8.59" width=".1" height=".11"/>
          </g>
          <g>
            <rect class="cls-4" x="7.88" y="8.05" width="1.79" height=".11"/>
            <rect class="cls-4" x="7.88" y="8.92" width="1.25" height=".1"/>
            <rect class="cls-4" x="9.3" y="8.92" width="1.25" height=".1"/>
            <polygon class="cls-4" points="8.72 8.33 8.72 8.44 9.02 8.44 9.02 8.59 8.54 8.59 8.54 8.44 8.54 8.33 8.43 8.33 7.98 8.33 7.88 8.33 7.88 8.44 7.88 8.69 7.98 8.69 7.98 8.44 8.43 8.44 8.43 8.69 8.51 8.69 8.54 8.69 9.02 8.69 9.13 8.69 9.13 8.59 9.13 8.44 9.13 8.33 9.02 8.33 8.72 8.33"/>
            <polygon class="cls-4" points="9.98 8.69 10.16 8.69 10.26 8.69 10.44 8.69 10.55 8.69 10.55 8.59 10.55 8.05 10.44 8.05 10.44 8.59 10.26 8.59 10.26 8.05 10.16 8.05 10.16 8.59 9.98 8.59 9.98 8.05 9.87 8.05 9.87 8.33 9.41 8.33 9.3 8.33 9.3 8.44 9.3 8.59 9.3 8.69 9.41 8.69 9.67 8.69 9.67 8.59 9.41 8.59 9.41 8.44 9.87 8.44 9.87 8.59 9.87 8.69 9.98 8.69"/>
            <rect class="cls-4" x="8.16" y="8.59" width=".1" height=".11"/>
          </g>
          <g>
            <rect class="cls-4" x="5.09" y="8.05" width="1.79" height=".11"/>
            <rect class="cls-4" x="5.09" y="8.92" width="1.25" height=".1"/>
            <rect class="cls-4" x="6.51" y="8.92" width="1.25" height=".1"/>
            <polygon class="cls-4" points="5.94 8.33 5.94 8.44 6.24 8.44 6.24 8.59 5.75 8.59 5.75 8.44 5.75 8.33 5.65 8.33 5.2 8.33 5.09 8.33 5.09 8.44 5.09 8.69 5.2 8.69 5.2 8.44 5.65 8.44 5.65 8.69 5.73 8.69 5.75 8.69 6.24 8.69 6.34 8.69 6.34 8.59 6.34 8.44 6.34 8.33 6.24 8.33 5.94 8.33"/>
            <polygon class="cls-4" points="7.19 8.69 7.37 8.69 7.48 8.69 7.66 8.69 7.76 8.69 7.76 8.59 7.76 8.05 7.66 8.05 7.66 8.59 7.48 8.59 7.48 8.05 7.37 8.05 7.37 8.59 7.19 8.59 7.19 8.05 7.09 8.05 7.09 8.33 6.62 8.33 6.52 8.33 6.52 8.44 6.52 8.59 6.52 8.69 6.62 8.69 6.88 8.69 6.88 8.59 6.62 8.59 6.62 8.44 7.09 8.44 7.09 8.59 7.09 8.69 7.19 8.69"/>
            <rect class="cls-4" x="5.37" y="8.59" width=".1" height=".11"/>
          </g>
          <g>
            <path class="cls-4" d="M4.1,8.05v.11h-.23s.03-.07.05-.11h.18Z"/>
            <path class="cls-4" d="M3.56,8.92v.11h-.05s0-.01,0-.02c.01-.03.02-.06.03-.08h.01Z"/>
            <rect class="cls-4" x="3.73" y="8.92" width="1.25" height=".1"/>
            <path class="cls-4" d="M4.98,8.05v.64h-.67v-.25h-.47v.15h.26v.1h-.36v-.24s.03-.08.05-.12h.52v-.28h.11v.54h.18v-.54h.11v.54h.18v-.54h.11Z"/>
          </g>
        </g>
        <g>
          <g>
            <rect class="cls-4" x="13.45" y="15.31" width="1.79" height=".1"/>
            <rect class="cls-4" x="9.3" y="14.98" width="1.25" height=".1"/>
            <rect class="cls-4" x="7.88" y="14.98" width="1.25" height=".1"/>
            <polygon class="cls-4" points="14.3 15.59 14.3 15.69 14.6 15.69 14.6 15.84 14.11 15.84 14.11 15.69 14.11 15.59 14.01 15.59 13.56 15.59 13.45 15.59 13.45 15.69 13.45 15.95 13.56 15.95 13.56 15.69 14.01 15.69 14.01 15.95 14.09 15.95 14.11 15.95 14.6 15.95 14.71 15.95 14.71 15.84 14.71 15.69 14.71 15.59 14.6 15.59 14.3 15.59"/>
            <polygon class="cls-4" points="15.55 15.95 15.73 15.95 15.84 15.95 16.02 15.95 16.12 15.95 16.12 15.84 16.12 15.31 16.02 15.31 16.02 15.84 15.84 15.84 15.84 15.31 15.73 15.31 15.73 15.84 15.55 15.84 15.55 15.31 15.45 15.31 15.45 15.59 14.98 15.59 14.88 15.59 14.88 15.69 14.88 15.84 14.88 15.95 14.98 15.95 15.24 15.95 15.24 15.84 14.98 15.84 14.98 15.69 15.45 15.69 15.45 15.84 15.45 15.95 15.55 15.95"/>
            <rect class="cls-4" x="13.73" y="15.84" width=".11" height=".11"/>
          </g>
          <g>
            <path class="cls-4" d="M20.37,15.31s-.03.07-.04.1h-1.31v-.1h1.35Z"/>
            <rect class="cls-4" x="3.73" y="14.98" width="1.25" height=".1"/>
            <path class="cls-4" d="M3.56,14.98v.1h-.01s-.02-.05-.03-.08c0,0,0-.01,0-.02h.05Z"/>
            <path class="cls-4" d="M19.68,15.85h.45s-.03.07-.05.1h-.51v-.26h-.45v.26h-.1v-.36h.66v.26Z"/>
            <path class="cls-4" d="M20.17,15.77v-.08h-.3v-.1h.38c-.02.06-.05.12-.08.18Z"/>
            <rect class="cls-4" x="19.3" y="15.84" width=".1" height=".11"/>
          </g>
          <g>
            <rect class="cls-4" x="16.24" y="15.31" width="1.79" height=".1"/>
            <rect class="cls-4" x="6.51" y="14.98" width="1.25" height=".1"/>
            <rect class="cls-4" x="5.09" y="14.98" width="1.25" height=".1"/>
            <polygon class="cls-4" points="17.08 15.59 17.08 15.69 17.39 15.69 17.39 15.84 16.9 15.84 16.9 15.69 16.9 15.59 16.79 15.59 16.34 15.59 16.24 15.59 16.24 15.69 16.24 15.95 16.34 15.95 16.34 15.69 16.79 15.69 16.79 15.95 16.87 15.95 16.9 15.95 17.39 15.95 17.49 15.95 17.49 15.84 17.49 15.69 17.49 15.59 17.39 15.59 17.08 15.59"/>
            <polygon class="cls-4" points="18.34 15.95 18.52 15.95 18.62 15.95 18.8 15.95 18.91 15.95 18.91 15.84 18.91 15.31 18.8 15.31 18.8 15.84 18.62 15.84 18.62 15.31 18.52 15.31 18.52 15.84 18.34 15.84 18.34 15.31 18.23 15.31 18.23 15.59 17.77 15.59 17.66 15.59 17.66 15.69 17.66 15.84 17.66 15.95 17.77 15.95 18.03 15.95 18.03 15.84 17.77 15.84 17.77 15.69 18.23 15.69 18.23 15.84 18.23 15.95 18.34 15.95"/>
            <rect class="cls-4" x="16.52" y="15.84" width=".11" height=".11"/>
          </g>
          <g>
            <rect class="cls-4" x="10.67" y="15.31" width="1.79" height=".1"/>
            <rect class="cls-4" x="12.08" y="14.98" width="1.25" height=".1"/>
            <rect class="cls-4" x="10.66" y="14.98" width="1.25" height=".1"/>
            <polygon class="cls-4" points="11.51 15.59 11.51 15.69 11.81 15.69 11.81 15.84 11.33 15.84 11.33 15.69 11.33 15.59 11.22 15.59 10.77 15.59 10.67 15.59 10.67 15.69 10.67 15.95 10.77 15.95 10.77 15.69 11.22 15.69 11.22 15.95 11.3 15.95 11.33 15.95 11.81 15.95 11.92 15.95 11.92 15.84 11.92 15.69 11.92 15.59 11.81 15.59 11.51 15.59"/>
            <polygon class="cls-4" points="12.77 15.95 12.95 15.95 13.05 15.95 13.23 15.95 13.34 15.95 13.34 15.84 13.34 15.31 13.23 15.31 13.23 15.84 13.05 15.84 13.05 15.31 12.95 15.31 12.95 15.84 12.77 15.84 12.77 15.31 12.66 15.31 12.66 15.59 12.19 15.59 12.09 15.59 12.09 15.69 12.09 15.84 12.09 15.95 12.19 15.95 12.45 15.95 12.45 15.84 12.19 15.84 12.19 15.69 12.66 15.69 12.66 15.84 12.66 15.95 12.77 15.95"/>
            <rect class="cls-4" x="10.94" y="15.84" width=".11" height=".11"/>
          </g>
          <g>
            <rect class="cls-4" x="7.88" y="15.31" width="1.79" height=".1"/>
            <rect class="cls-4" x="14.87" y="14.98" width="1.25" height=".1"/>
            <rect class="cls-4" x="13.45" y="14.98" width="1.25" height=".1"/>
            <polygon class="cls-4" points="8.73 15.59 8.73 15.69 9.03 15.69 9.03 15.84 8.54 15.84 8.54 15.69 8.54 15.59 8.44 15.59 7.98 15.59 7.88 15.59 7.88 15.69 7.88 15.95 7.98 15.95 7.98 15.69 8.44 15.69 8.44 15.95 8.52 15.95 8.54 15.95 9.03 15.95 9.13 15.95 9.13 15.84 9.13 15.69 9.13 15.59 9.03 15.59 8.73 15.59"/>
            <polygon class="cls-4" points="9.98 15.95 10.16 15.95 10.26 15.95 10.45 15.95 10.55 15.95 10.55 15.84 10.55 15.31 10.45 15.31 10.45 15.84 10.26 15.84 10.26 15.31 10.16 15.31 10.16 15.84 9.98 15.84 9.98 15.31 9.88 15.31 9.88 15.59 9.41 15.59 9.31 15.59 9.31 15.69 9.31 15.84 9.31 15.95 9.41 15.95 9.67 15.95 9.67 15.84 9.41 15.84 9.41 15.69 9.88 15.69 9.88 15.84 9.88 15.95 9.98 15.95"/>
            <rect class="cls-4" x="8.16" y="15.84" width=".11" height=".11"/>
          </g>
          <g>
            <rect class="cls-4" x="5.09" y="15.31" width="1.8" height=".1"/>
            <rect class="cls-4" x="17.66" y="14.98" width="1.25" height=".1"/>
            <rect class="cls-4" x="16.23" y="14.98" width="1.25" height=".1"/>
            <polygon class="cls-4" points="5.94 15.59 5.94 15.69 6.24 15.69 6.24 15.84 5.76 15.84 5.76 15.69 5.76 15.59 5.65 15.59 5.2 15.59 5.09 15.59 5.09 15.69 5.09 15.95 5.2 15.95 5.2 15.69 5.65 15.69 5.65 15.95 5.73 15.95 5.76 15.95 6.24 15.95 6.35 15.95 6.35 15.84 6.35 15.69 6.35 15.59 6.24 15.59 5.94 15.59"/>
            <polygon class="cls-4" points="7.19 15.95 7.38 15.95 7.48 15.95 7.66 15.95 7.77 15.95 7.77 15.84 7.77 15.31 7.66 15.31 7.66 15.84 7.48 15.84 7.48 15.31 7.38 15.31 7.38 15.84 7.19 15.84 7.19 15.31 7.09 15.31 7.09 15.59 6.62 15.59 6.52 15.59 6.52 15.69 6.52 15.84 6.52 15.95 6.62 15.95 6.88 15.95 6.88 15.84 6.62 15.84 6.62 15.69 7.09 15.69 7.09 15.84 7.09 15.95 7.19 15.95"/>
            <rect class="cls-4" x="5.37" y="15.84" width=".11" height=".11"/>
          </g>
          <g>
            <path class="cls-4" d="M4.1,15.31v.1h-.43s-.03-.07-.04-.1h.47Z"/>
            <path class="cls-4" d="M20.49,14.98s0,.01,0,.02c-.01.03-.02.06-.03.08h-.01v-.1h.05Z"/>
            <rect class="cls-4" x="19.02" y="14.98" width="1.25" height=".1"/>
            <path class="cls-4" d="M3.86,15.84h.23v.1h-.18s-.03-.07-.05-.1Z"/>
            <path class="cls-4" d="M4.98,15.31v.64h-.67v-.25h-.47v.1c-.03-.07-.06-.13-.09-.2h.56v-.28h.1v.54h.18v-.54h.1v.54h.18v-.54h.1Z"/>
          </g>
        </g>
      </g>
    </g>
  </g>
</svg>