<?xml version="1.0" encoding="UTF-8"?>
<svg id="Layer_1" data-name="Layer 1" xmlns="http://www.w3.org/2000/svg" viewBox="0 0 24 24">
  <defs>
    <style>
      .cls-1 {
        fill: #000;
      }

      .cls-1, .cls-2, .cls-3, .cls-4, .cls-5, .cls-6 {
        stroke-width: 0px;
      }

      .cls-2 {
        fill: #ec2024;
      }

      .cls-3 {
        fill: #258d44;
      }

      .cls-4 {
        fill: none;
      }

      .cls-5 {
        fill: #fdbc1d;
      }

      .cls-6 {
        fill: #fff;
      }
    </style>
  </defs>
  <rect class="cls-4" width="24" height="24"/>
  <g>
    <path class="cls-1" d="M16.71,7.34c2.92,2.92,3.18,7.42.57,10.03-2.61,2.61-7.11,2.35-10.03-.57-2.92-2.92-3.18-7.42-.57-10.03,2.61-2.61,7.11-2.36,10.03.57Z"/>
    <g>
      <g>
        <path class="cls-2" d="M20.49,9H3.51c.18-.52.42-1.02.69-1.5.23-.39.48-.77.77-1.13,1.65-2.06,4.18-3.38,7.03-3.38s5.38,1.32,7.02,3.38c.28.35.54.73.77,1.13.27.47.51.98.69,1.5Z"/>
        <path class="cls-3" d="M20.49,15c-.19.52-.42,1.03-.69,1.5-.23.39-.49.77-.77,1.13-1.65,2.06-4.18,3.37-7.02,3.37s-5.38-1.32-7.02-3.37c-.28-.36-.54-.73-.77-1.13-.27-.47-.51-.98-.69-1.5h16.97Z"/>
        <path class="cls-6" d="M21,12s0,.09,0,.14v.06s0,0,0,.01c0,0,0,.01,0,.02,0,.35-.04.71-.09,1.05,0,.04-.01.08-.02.11-.02.12-.04.23-.06.34,0,.02,0,.04-.01.05h0s0,.04-.01.05c-.08.4-.19.79-.33,1.17H3.51c-.12-.34-.22-.69-.3-1.05,0-.02-.01-.04-.01-.05,0-.02,0-.03-.01-.05-.07-.33-.12-.66-.15-1,0-.03,0-.06,0-.09h0c-.02-.17-.03-.35-.03-.53v-.04s0-.09,0-.13v-.05c0-.06,0-.12,0-.18v-.04c0-.18.01-.36.03-.54,0,0,0-.02,0-.02s0-.02,0-.02c0-.06.01-.12.02-.18,0-.01,0-.02,0-.03h0s0-.02,0-.02c.08-.68.23-1.33.45-1.96h16.97c.11.31.2.63.28.95,0,0,0,.02,0,.03,0,0,0,.02,0,.02.05.21.09.41.12.63,0,0,0,.01,0,.02,0,0,0,.01,0,.02.05.36.09.73.09,1.11,0,0,0,.01,0,.02,0,0,0,.01,0,.02,0,.06,0,.12,0,.18Z"/>
      </g>
      <polygon class="cls-5" points="12 7.59 12.32 9.89 13.31 7.79 12.94 10.08 14.49 8.36 13.47 10.44 15.46 9.26 13.87 10.94 16.13 10.41 14.11 11.54 16.42 11.69 14.16 12.19 16.32 13.01 14.01 12.81 15.84 14.24 13.69 13.37 15.01 15.27 13.22 13.81 13.92 16.02 12.64 14.09 12.66 16.41 12 14.19 11.34 16.41 11.36 14.09 10.08 16.02 10.78 13.81 8.99 15.27 10.31 13.37 8.16 14.24 9.99 12.81 7.68 13.01 9.84 12.19 7.58 11.69 9.89 11.54 7.87 10.41 10.13 10.94 8.54 9.26 10.53 10.44 9.5 8.36 11.06 10.08 10.69 7.79 11.68 9.89 12 7.59"/>
    </g>
  </g>
</svg>