<?xml version="1.0" encoding="UTF-8"?>
<svg id="Layer_1" data-name="Layer 1" xmlns="http://www.w3.org/2000/svg" viewBox="0 0 24 24">
  <defs>
    <style>
      .cls-1 {
        fill: #000;
      }

      .cls-1, .cls-2, .cls-3, .cls-4, .cls-5 {
        stroke-width: 0px;
      }

      .cls-2 {
        fill: #00793d;
      }

      .cls-3 {
        fill: none;
      }

      .cls-4 {
        fill: #cd1225;
      }

      .cls-5 {
        fill: #fff;
      }
    </style>
  </defs>
  <rect class="cls-3" width="24" height="24"/>
  <g>
    <path class="cls-1" d="M16.71,7.34c2.92,2.92,3.18,7.42.57,10.03-2.61,2.61-7.11,2.36-10.03-.57-2.92-2.92-3.18-7.42-.57-10.03,2.61-2.61,7.11-2.35,10.03.57Z"/>
    <g>
      <g>
        <path class="cls-1" d="M20.48,15c-1.24,3.49-4.57,6-8.48,6s-7.25-2.51-8.49-6h16.97Z"/>
        <path class="cls-4" d="M20.48,9H3.51c1.24-3.49,4.57-6,8.48-6s7.25,2.51,8.48,6Z"/>
        <path class="cls-5" d="M21,12c0,1.05-.18,2.06-.52,3H3.51c-.33-.94-.51-1.95-.51-3s.18-2.06.51-3h16.97c.33.94.52,1.95.52,3Z"/>
      </g>
      <g>
        <g>
          <path class="cls-2" d="M7.93,13.48c-.08,0-.16.07-.16.15s.07.16.16.16.16-.07.16-.16-.07-.15-.16-.15Z"/>
          <path class="cls-2" d="M11.38,11.7s-.07-.03-.1-.05c0,0-.03.02-.03.02-.06.04-.14.06-.2.11-.03.02-.06.05-.09.08-.05.05-.08.12-.1.19-.02.05-.03.11-.03.17h-1.61s.05-.05.08-.07c.06-.06.13-.13.2-.19.09-.09.18-.17.27-.26.1-.1.2-.19.3-.29.09-.09.19-.18.29-.27.07-.07.15-.15.23-.22.03-.03.05-.06.08-.08.04-.03.07-.04.11-.06.02,0,.04-.01.06-.02,0,0-.01,0-.05-.03-.06-.04-.24-.32-.24-.32,0,0-.02.04-.02.05-.03.07-.08.11-.13.16-.06.06-.12.12-.18.17-.08.08-.16.15-.24.23-.09.08-.18.17-.27.26-.09.09-.18.18-.28.26-.08.08-.17.16-.25.24-.07.07-.14.13-.21.2l-.13.13s-.02.02-.03.03l.04.34h2.31v-.26c0-.05,0-.11,0-.16,0-.1.15-.14.21-.08.03.03.04.08.04.12,0,.15,0,.29,0,.44v.16h-3.09v-.68s-.14.13-.36.22c0,0,.08.15.08.28v.19h-.7c-.05-.27-.13-.49-.13-.49,0,0-.18.18-.43.3-.03.01.76.83-.12,1.27.47.04.66-.2.71-.51h4.39v-1.25s-.02-.04-.03-.06c-.01-.02-.02-.04-.04-.06-.03-.04-.06-.07-.09-.1-.04-.03-.1-.06-.15-.08-.02-.01-.04-.02-.06-.03Z"/>
        </g>
        <path class="cls-2" d="M12.76,12.61s-.08.11-.12.12c-.05.02-.21,0-.21,0v-1.89s0-.06.06-.12c-.06-.02-.41-.27-.41-.27v2.81h.94c-.12-.03-.26-.65-.26-.65Z"/>
        <path class="cls-2" d="M17.09,12.61s-.08.11-.12.12c-.05.02-.21,0-.21,0v-1.89s0-.06.06-.12c-.06-.02-.41-.27-.41-.27v2.81h.94c-.12-.03-.26-.65-.26-.65Z"/>
        <path class="cls-2" d="M15.91,10.62s-.09.08-.14.12c-.03.03-.06.05-.09.08,0,0,0,0,0,0,0,0-.01,0-.01.02,0,0,0,.01,0,.02.01.03.01.06.01.09v1.63h-.25v-1.53s-.01.01-.02.02c-.02.02-.04.03-.05.05-.02.02-.05.04-.07.06-.02.02-.05.04-.07.07-.02.02-.04.03-.06.05-.01.01-.02.02-.04.03,0,0,0,0,0,0v.02s.01.03.02.05c0,.02,0,.03,0,.05v1.13h-.25v-1.04l-.3.27-.02.02.02.1v.29c-.14-.02-.48-.05-.63.11-.19.19-.26.41-.12.92h2.16v-2.7s-.05.04-.07.06ZM14.31,12.69c-.07,0-.13-.05-.13-.11s.06-.11.13-.11.13.05.13.11-.06.11-.13.11Z"/>
        <path class="cls-2" d="M14.94,10.52c-.02-.07-.06-.09-.06-.18s.05-.15.08-.12c.03.03.03.19.03.25s-.03.11-.06.05Z"/>
        <path class="cls-2" d="M14.54,10.84s.05,0,.07,0c.04,0,.07.01.11,0,.06,0,.13-.03.18-.07.04-.03.07-.09.12-.1.02,0,.04.01.06.03s.03.03.05.05c.04.02.1,0,.14-.01.05-.02.09-.04.14-.04,0,0,.01,0,.02,0,.01,0,.01.02.01.03-.01.13-.16.16-.26.13-.07-.02-.13-.06-.16-.12.01.02-.04.08-.05.1-.03.03-.06.05-.1.07-.07.02-.19.03-.26,0-.02,0-.08-.05-.07-.08,0,0,0,0,0,0Z"/>
      </g>
    </g>
  </g>
</svg>