<?xml version="1.0" encoding="UTF-8"?>
<svg id="Layer_1" data-name="Layer 1" xmlns="http://www.w3.org/2000/svg" viewBox="0 0 24 24">
  <defs>
    <style>
      .cls-1 {
        fill: #000;
      }

      .cls-1, .cls-2, .cls-3, .cls-4, .cls-5 {
        stroke-width: 0px;
      }

      .cls-2 {
        fill: none;
      }

      .cls-3 {
        fill: #f9dd25;
      }

      .cls-4 {
        fill: #fff;
      }

      .cls-5 {
        fill: #ce142a;
      }
    </style>
  </defs>
  <rect class="cls-2" width="24" height="24"/>
  <g>
    <path class="cls-1" d="M16.71,7.34c2.92,2.92,3.18,7.42.57,10.03-2.61,2.61-7.11,2.35-10.03-.57-2.92-2.92-3.18-7.42-.57-10.03,2.61-2.61,7.11-2.36,10.03.57Z"/>
    <g>
      <path class="cls-5" d="M21,12c0,4.96-4.04,9-9,9S3,16.96,3,12,7.04,3,12,3s9,4.04,9,9Z"/>
      <g>
        <path class="cls-4" d="M18.19,8.58c0,.05-.04.11-.11.15-.02.01-.05.02-.08.04-.13-.11-.33-.27-.48-.4.18,0,.35.01.46.05.13.04.21.1.21.16Z"/>
        <path class="cls-4" d="M17.94,8.8c-.07.03-.17.06-.28.09l-.47-.49c.08-.01.16-.02.24-.03.15.12.36.3.51.42Z"/>
        <path class="cls-4" d="M17.29,9c-.14.04-.28.08-.38.11-.09-.21-.22-.48-.29-.66.07,0,.13.02.2.02.15.17.33.37.47.53Z"/>
        <path class="cls-4" d="M16.86,9.13h-.03s-.03.02-.05.02c-.05.01-.1.04-.15.06-.14-.17-.25-.28-.35-.34.05-.09.1-.23.06-.44.05,0,.12.01.2.02.07.17.2.46.3.68Z"/>
        <path class="cls-4" d="M15.34,11.93c-.21-.06-.36-.07-.42-.06-.06-.17-.06-.39-.02-.63.07-.03.17-.06.27-.09h0s0,0,0,0c.02,0,.05-.01.07-.02,0,.03,0,.05,0,.08,0,0,0,0,0,0-.01.27.05.54.1.72Z"/>
        <path class="cls-4" d="M16.24,8.84c-.06-.03-.12-.03-.17,0-.13.07-.15.31-.17.48h0c0,.32,0,.46-.21.82-.07-.12-.18-.2-.31-.25.05-.1.1-.18.14-.24.26-.38.29-.77.29-.81,0,0,0-.01,0-.01-.14-.26-.06-.38.1-.48.17-.11.34.07.35.07s.01,0,.02.01h.01c.03.2,0,.33-.06.42Z"/>
        <path class="cls-4" d="M15.67,10.2c-.06.1-.13.21-.23.35-.11.16-.17.34-.19.52-.03,0-.06.01-.09.02t0,0c-.09.02-.18.06-.25.08.09-.44.29-.92.46-1.23.13.05.23.14.3.26Z"/>
        <path class="cls-4" d="M16.27,10.32c.03.32-.02.67-.13,1.08-.26,0-.6-.03-.85-.21.01-.21.07-.43.2-.62.46-.68.48-.81.47-1.24h0c.01-.16.04-.4.14-.45.04-.02.08-.01.14.02.09.05.21.16.36.34-.19.13-.38.43-.33,1.08Z"/>
        <path class="cls-4" d="M15.99,11.86c-.05.15-.09.27-.1.34h0s0,.02,0,.02c-.16-.12-.32-.21-.49-.27-.06-.17-.12-.42-.11-.69.23.16.55.2.79.2h.04c-.04.15-.09.29-.13.41Z"/>
        <path class="cls-4" d="M15.75,13.12l-.02-.02c.05-.04.07-.1.06-.16-.01-.04-.04-.08-.08-.12-.04-.03-.08-.07-.12-.1-.11-.08-.22-.16-.25-.29-.03-.12-.07-.28.02-.43h0c.19.07.37.17.54.31.08.42.08.53-.16.8Z"/>
        <path class="cls-4" d="M15.72,13.16s-.04.04-.06.07c-.21.23-.43.2-.58.16-.11-.19-.15-.35-.12-.44.04-.14,0-.38-.11-.52.03,0,.06,0,.09,0,.13,0,.21.08.3.21.05.07.06.14.09.22.02.08.04.16.09.23.03.05.09.07.16.07.04,0,.08-.01.12-.03l.03.03Z"/>
        <path class="cls-4" d="M12.03,18.04c-.07.12-.17.27-.28.37-.1.09-.19.13-.24.1-.05-.02-.07-.09-.07-.17,0-.02,0-.05,0-.09.16-.06.4-.14.59-.21Z"/>
        <path class="cls-4" d="M12.17,17.74c-.03.08-.06.15-.1.22-.18.06-.44.16-.62.22.01-.07.03-.17.06-.29l.66-.16Z"/>
        <path class="cls-4" d="M12.41,17.23c-.04.05-.08.11-.12.16-.22.04-.49.1-.69.14.04-.16.07-.3.1-.38.23.03.53.06.72.08Z"/>
        <path class="cls-4" d="M12.57,17.01s-.07.09-.12.17c-.18-.02-.5-.06-.74-.09,0-.02,0-.03.01-.05v-.03c.02-.05.03-.1.03-.16.22-.03.37-.07.47-.13.05.09.15.2.35.28Z"/>
        <path class="cls-4" d="M12.86,16.68c0,.2-.23.26-.24.26,0,0-.01,0-.02.01h0c-.19-.06-.28-.17-.33-.25.06-.04.09-.09.09-.15,0-.15-.19-.29-.34-.39h0s0,0,0,0c-.27-.15-.39-.22-.59-.59.14,0,.26-.05.37-.14.06.09.1.18.13.25.2.42.51.64.55.66,0,0,.01,0,.01,0,.11,0,.19.02.24.06.04.02.07.06.09.1.02.04.03.1.04.17Z"/>
        <path class="cls-4" d="M11.77,15.39c-.11.09-.23.13-.37.13-.05-.1-.11-.22-.18-.37-.08-.18-.21-.32-.35-.43,0-.03.02-.05.03-.09h0c.02-.09.04-.19.05-.26.4.35.72.84.83,1.02Z"/>
        <path class="cls-4" d="M12.3,16.56s-.03.08-.09.12c-.09.05-.25.1-.47.13-.02-.23-.17-.55-.77-.83-.28-.14-.57-.35-.86-.66.13-.22.33-.51.61-.62.17.12.33.27.43.48.35.75.45.83.82,1.04h0c.13.09.32.23.31.35Z"/>
        <path class="cls-4" d="M10.67,14.65c-.27.13-.47.4-.59.62-.11-.12-.2-.22-.28-.32-.1-.12-.19-.22-.24-.26,0,0,0,0,0,0,0,0-.01,0-.01,0,.18-.07.35-.17.49-.28.18.04.43.12.65.25Z"/>
        <path class="cls-4" d="M10.89,14.33c-.01.07-.03.18-.06.28,0,0,0,0,0,0,0,.02-.01.05-.02.07-.02-.02-.04-.03-.06-.04,0,0,0,0,0,0-.23-.15-.48-.23-.67-.28.16-.15.24-.28.27-.33.16.03.35.13.55.3Z"/>
        <path class="cls-4" d="M9.99,14.34h0c-.16.13-.34.24-.55.31-.41-.14-.5-.2-.61-.54h.02c.01.06.05.11.11.13.04.01.09.01.14,0,.05-.01.1-.03.15-.05.12-.05.25-.11.38-.07.12.03.28.08.36.23Z"/>
        <path class="cls-4" d="M9.89,13.67s-.03.05-.04.08c-.07.11-.18.14-.33.15-.08,0-.16-.01-.23-.04s-.15-.05-.24-.04c-.1,0-.17.11-.18.22h-.04s-.02-.05-.03-.08c-.09-.3.04-.47.16-.59.22,0,.37.05.44.12.09.1.28.18.45.18.02,0,.04,0,.06,0Z"/>
        <path class="cls-4" d="M14.77,11.95c-.06.09-.09.25-.1.36-.02,0-.03,0-.05,0-.01,0-1.05-.04-2.12-.62-.02-.01-.04-.02-.06-.03h-.01s-.03-.02-.05-.03c-.04-.02-.08-.05-.12-.07.05-.04.11-.09.19-.16.08-.06.19-.14.31-.23.03-.02.05-.04.08-.06.03-.02.05-.04.07-.05.01,0,.02,0,.02,0,.09.04.46.23.82.41.36.19.74.38.85.43.09.04.13.06.16.06Z"/>
        <path class="cls-4" d="M14.99,13.37s-.07-.03-.1-.04c-.05-.02-.1-.04-.13-.04-.1-.02-.33-.04-.61-.06-.16-.01-.34-.03-.53-.05-.36-.04-.98-.24-1.32-.36-.03-.08-.06-.17-.08-.26,0-.02,0-.05-.01-.07-.02-.15-.03-.3-.02-.45v-.07h0v-.17s0-.1,0-.15c0,0,.01-.02.04-.04.04.03.09.05.14.08.02,0,.03.02.05.03h.01s.04.03.06.04c1.07.59,2.13.63,2.14.63.02,0,.04,0,.06.01,0,0,0,0,0,0,.03.01.05.03.07.05h0c.12.12.17.37.13.51-.04.12.03.29.1.43Z"/>
        <path class="cls-4" d="M11.98,12.79c-.14.09-.41.26-.7.45-.35.22-.71.45-.81.52-.08.05-.12.08-.14.11-.05-.1-.17-.2-.26-.27.01-.01.02-.02.03-.04,0,0,.56-.88,1.6-1.5.02-.01.04-.03.06-.04,0,.01,0,.03,0,.04,0,.03.01.07.02.1.05.24.13.49.18.63Z"/>
        <path class="cls-4" d="M11.75,11.28c-.05-.02-.11-.04-.17-.06-.05-.02-.1-.04-.16-.05t0,0c-.17-.06-.34-.11-.47-.16-.02-.18-.05-.47-.08-.76-.04-.41-.09-.82-.11-.95-.01-.09-.02-.14-.03-.17h.01c.11,0,.25-.06.35-.11,0,.02.01.03.02.04,0,.01.55.92.63,2.14,0,0,0,.01,0,.02v.03s0,.02,0,.02Z"/>
        <path class="cls-4" d="M12.79,10.71c-.12.09-.3.22-.46.35-.13.1-.22.17-.29.23-.04.03-.07.05-.09.07,0,0,0,0,0,0-.03-.01-.07-.03-.13-.06,0-.02,0-.03,0-.05,0-.01,0-.02,0-.03v-.02c-.07-1.04-.49-1.91-.64-2.16-.01-.02-.02-.04-.02-.06,0-.03,0-.06,0-.09h0c.03-.17.22-.34.36-.39.12-.04.23-.18.31-.32,0,.04.02.07.02.11.01.05.02.1.03.13.04.09.15.3.28.55.07.14.16.3.24.46.17.32.32.93.41,1.27Z"/>
        <path class="cls-4" d="M11.78,8.11c-.06.12-.18.3-.3.34-.14.04-.32.2-.38.37-.02-.03-.04-.05-.05-.08-.06-.11-.04-.22.01-.36.03-.08.08-.13.14-.19s.11-.12.15-.2c.04-.09-.03-.21-.12-.26v-.04s.07.01.1.02c.31.05.4.25.45.4Z"/>
        <path class="cls-4" d="M11.18,7.68v.02c-.07-.02-.13-.01-.17.03-.03.03-.05.07-.06.13,0,.05-.01.1-.01.15,0,.13-.02.27-.11.37-.08.09-.2.21-.37.22h0c-.05-.2-.06-.41-.03-.63.31-.3.4-.35.76-.3Z"/>
        <path class="cls-4" d="M10.59,9.06c-.1.13-.27.25-.52.36-.06-.04-.14-.11-.22-.18h0s-.04-.03-.05-.05c.02-.01.04-.02.07-.04h0c.24-.14.43-.33.56-.48.06.21.14.34.17.39Z"/>
        <path class="cls-4" d="M10.4,8.6c-.12.14-.29.33-.52.47,0-.3-.15-.6-.29-.81.15-.05.29-.08.41-.11.15-.04.27-.07.34-.1,0,0,0,0,0,0h.01c-.02.19,0,.37.04.55Z"/>
        <path class="cls-4" d="M10.01,9.44c-.49.2-1.08.27-1.28.28-.03-.14-.01-.27.05-.39.12,0,.25,0,.41,0,.2,0,.38-.04.55-.12.02.02.04.04.06.06t0,0c.07.06.14.12.2.16Z"/>
        <path class="cls-4" d="M9.82,9.11c-.18.1-.39.17-.62.17-.83-.02-.94.04-1.3.27h-.01c-.14.07-.34.18-.44.13-.04-.02-.06-.06-.06-.13,0-.11.02-.27.09-.48.21.08.57.09,1.08-.31.25-.19.57-.35.98-.48.14.21.31.52.28.82Z"/>
        <path class="cls-4" d="M8.67,9.73c-.11.01-.21.01-.28.01-.46-.02-.8.17-.84.19,0,0,0,0-.01.01-.05.09-.1.16-.16.19h0c-.08.05-.17.04-.3-.01-.18-.08-.13-.32-.13-.33,0,0,0-.01,0-.02,0,0,0,0,0,0,.15-.14.28-.17.38-.18.01.07.04.12.09.15.03.01.06.02.09.02.12,0,.28-.08.4-.15h.01s0,0,0,0c.26-.17.37-.25.79-.26-.06.13-.07.26-.04.39Z"/>
        <path class="cls-4" d="M7.42,9.05c-.07.21-.1.37-.1.48-.1,0-.25.04-.4.18-.02-.04-.05-.1-.1-.18.1-.16.28-.42.41-.63.01.01.02.02.03.03l.02.02s.08.06.13.09Z"/>
        <path class="cls-4" d="M7.19,8.87c-.12.19-.29.44-.4.6-.03-.06-.06-.12-.09-.18.06-.22.13-.48.19-.68.1.08.2.17.3.26Z"/>
        <path class="cls-4" d="M6.6,8.37l-.16.66c-.06-.06-.11-.13-.16-.19.02-.19.06-.46.08-.65.06.04.14.11.23.18Z"/>
        <path class="cls-4" d="M6.32,8.15c-.02.17-.05.43-.08.62-.08-.12-.17-.27-.21-.42-.04-.13-.03-.22.02-.26.04-.03.11-.03.19.01.02,0,.04.02.08.05Z"/>
        <path class="cls-3" d="M10.3,13.98h0s-.07.16-.26.33c-.09-.17-.27-.22-.39-.25-.04-.01-.07-.01-.11-.01-.11,0-.21.04-.31.08-.05.02-.09.04-.14.05-.04.01-.08.02-.11,0-.06-.02-.07-.09-.07-.12,0-.08.05-.18.13-.19.08,0,.15.02.22.04.08.02.16.05.25.04,0,0,.01,0,.02,0,.13-.01.27-.04.36-.17.02-.04.05-.08.07-.13.03,0,.05-.02.07-.03.09.06.32.24.26.35Z"/>
        <path class="cls-3" d="M13.24,16.35v.34s-.2-.26-.2-.26c0-.01-.02-.01-.03-.01l-.15.06s-.04-.06-.07-.08l.09-.14s0-.02,0-.03l-.21-.26.33.09s.02,0,.03-.01l.19-.28.02.34s0,.02.02.03l.33.09-.32.12s-.02.02-.02.03Z"/>
        <path class="cls-3" d="M12.26,17.45c-.01.07-.04.15-.06.23l-.67.16c.02-.08.04-.16.06-.25.19-.04.45-.09.67-.14Z"/>
        <path class="cls-3" d="M6.84,8.58c-.05.19-.12.45-.18.66-.06-.04-.12-.1-.17-.16l.16-.67c.06.05.13.1.2.16Z"/>
        <path class="cls-3" d="M7.59,10.57l.17.29-.31-.14s-.02,0-.03,0l-.23.25.04-.34s0-.02-.02-.03l-.31-.14.33-.07s.02-.01.02-.02l.02-.16s.07-.01.11-.03l.08.14s.02.02.03.01l.33-.07-.23.25s0,.02,0,.03Z"/>
        <path class="cls-3" d="M11.19,7.77s-.09-.04-.14.01c-.02.02-.03.05-.04.1,0,.05-.01.1-.01.15,0,.1-.01.2-.05.29-.02.04-.04.08-.07.12-.08.09-.21.23-.4.23.07.24.17.37.17.38,0,0,0,0,0,0h0c.06.06.22.03.43-.08,0-.02,0-.05,0-.08-.03-.04-.06-.08-.08-.12-.08-.14-.04-.29.01-.41,0,0,0-.01,0-.02.03-.08.09-.14.14-.19s.1-.11.13-.18c.03-.07-.03-.16-.11-.2Z"/>
        <path class="cls-3" d="M17.6,8.91c-.08.02-.16.05-.25.08-.13-.15-.31-.35-.46-.51.07-.02.15-.04.23-.06l.48.49Z"/>
        <path class="cls-3" d="M15.73,8.45s-.03.07-.03.11h-.16s-.02,0-.03,0l-.12.32-.09-.33s-.01-.02-.02-.02l-.34-.02.28-.18s.01-.02.01-.03l-.09-.33.26.21s.02,0,.03,0l.28-.18-.12.32s0,.02,0,.03l.12.1Z"/>
        <path class="cls-3" d="M15.74,12.95s-.03-.06-.06-.09c-.04-.03-.07-.06-.12-.09-.08-.06-.16-.12-.22-.2-.02-.04-.04-.08-.06-.12-.03-.12-.08-.3.02-.46-.24-.07-.41-.06-.41-.06s0,0-.01,0c-.12.03-.16.29-.16.4.02.01.04.03.06.04.05,0,.1,0,.14,0,.16,0,.26.12.34.23.05.07.07.16.09.24.02.07.04.15.08.21.04.06.15.06.23.02.02-.01.08-.05.06-.12Z"/>
        <path class="cls-3" d="M12.87,11.01s-.04.03-.06.05c-.03.02-.05.04-.08.06-.12.09-.22.17-.31.23-.1.08-.17.14-.22.18-.06.06-.07.07-.08.08,0,0,0,0,0,.01,0,.05,0,.11,0,.16v.17c0,.2,0,.41.04.61.02.08.04.16.06.23-.06-.02-.11-.04-.13-.05t0,0h0s0,0,0,0c0,0,0,0,0,0h0s0,0,0,0c0,0,0,0-.01,0h0s0,0,0,0c0,0,0,0,0,0h0s-.01.01-.02.02c-.05-.14-.12-.38-.17-.61,0-.03-.01-.07-.02-.1,0-.03-.01-.06-.01-.08-.01-.06-.01-.12-.02-.17,0-.06,0-.11,0-.16h0s0-.01,0-.02h0s0,0,0,0h0s0,0,0,0c0,0,0,0,0,0s0,0,0,0h0l-.15-.05c-.18-.06-.37-.12-.54-.19-.08-.03-.16-.07-.21-.1.03-.03.06-.05.08-.07,0,0,.01-.02,0-.03h0s0,0,0,0c0-.02,0-.05-.01-.09.13.04.29.09.44.15h0c.05.02.11.04.16.05.07.03.14.05.2.07,0,0,0,0,0,0,.11.04.15.06.16.07,0,0,.01,0,.02,0,0,0,.01,0,.02,0h0s.01-.01.02-.02c.02-.02.05-.04.09-.07.07-.05.16-.13.29-.23.16-.12.32-.24.44-.33.01.06.02.11.03.14s.02.07.04.1Z"/>
        <path class="cls-1" d="M18.25,8.57c0-.06-.06-.14-.25-.2-.18-.06-.41-.06-.56-.05h0c-.1,0-.21.02-.31.04-.1.02-.19.04-.27.07h-.02c-.09-.02-.17-.03-.26-.04-.14-.01-.23-.02-.26-.02h-.02s-.23-.2-.41-.08c-.05.03-.1.07-.13.11l-.1-.08.14-.38s0-.02,0-.03c0,0-.02,0-.03,0l-.34.22-.31-.25s-.02,0-.03,0c-.01,0-.01.02-.01.03l.1.39-.34.22s-.02.02-.01.03c0,.01.01.02.02.02l.4.02.11.39s.01.02.02.02h0s.02,0,.03-.02l.15-.38h.14c0,.08.03.15.08.24,0,.07-.04.42-.28.78-.05.07-.1.16-.16.27-.07.14-.69,1.34-.47,1.98-.02,0-.04.01-.05.02-.02,0-.02.01-.17-.05-.11-.05-.49-.24-.85-.43-.38-.19-.73-.37-.82-.41,0,0-.02,0-.03-.01-.02-.03-.03-.06-.04-.09-.01-.04-.02-.11-.04-.18-.04-.17-.1-.41-.18-.65s-.16-.48-.24-.64-.17-.33-.24-.47c-.13-.25-.24-.45-.28-.55-.01-.03-.02-.07-.03-.12-.01-.05-.02-.12-.04-.18-.04-.13-.1-.23-.18-.31-.08-.07-.19-.12-.32-.15-.04,0-.08-.01-.12-.02-.41-.06-.51,0-.84.32l-.06.06c-.06.03-.18.06-.33.09-.13.03-.28.07-.45.12h0c-.42.13-.75.29-1.01.49-.52.4-.86.38-1.06.29-.05-.02-.1-.05-.14-.09l-.02-.02s-.04-.03-.06-.05c-.11-.1-.24-.21-.35-.3-.09-.08-.17-.15-.24-.21h0c-.13-.1-.22-.18-.29-.23-.04-.03-.07-.05-.1-.06-.1-.05-.19-.05-.25,0-.05.04-.09.13-.04.32.05.19.17.37.26.5,0,0,0,0,0,0,.06.08.13.16.2.24.07.07.14.14.21.19h0c.04.09.07.17.11.25.06.12.11.2.12.23,0,0,0,.01.01.02,0,.05-.04.29.16.39.06.03.11.04.16.05l-.02.13-.39.08s-.02.01-.02.03c0,.01,0,.02.02.03l.37.17-.04.4s0,.02.02.03c0,0,0,0,.01,0,0,0,.01,0,.02-.01l.27-.3.37.17s.02,0,.03,0c.01-.01.01-.02,0-.03l-.2-.35.27-.3s.01-.02,0-.03c0-.01-.02-.02-.03-.01l-.4.08-.07-.13c.06-.04.11-.1.16-.19.06-.03.38-.2.8-.18.08,0,.19,0,.32-.01.19-.02.84-.09,1.37-.31.26-.11.44-.23.55-.37.02.02.03.03.04.03.02.01.02.02.05.17.02.12.06.54.1.95.03.3.06.6.08.78,0,.06.01.11.02.13-.03.02-.06.05-.1.08-.27.23-.77.66-.99.96-.11.15-.22.3-.31.42-.17.23-.3.41-.37.49-.02.02-.05.05-.1.08-.04.03-.09.07-.14.12-.2.19-.25.4-.18.65.01.04.02.08.04.12.13.39.22.46.66.61h.02s.04.02.06.03c.05.04.13.13.23.25.09.1.19.22.31.35.31.32.6.54.89.69.6.29.73.6.74.81,0,.05,0,.11-.02.17v.02s-.02.05-.03.08c-.02.08-.07.25-.11.45-.03.11-.05.21-.07.31-.04.16-.06.28-.07.36,0,.05-.01.09-.01.12,0,.11.04.2.11.23.01,0,.03.01.06.01.06,0,.14-.03.24-.12.15-.13.26-.32.33-.45.05-.09.09-.19.13-.29.03-.09.06-.19.08-.27h0c.05-.07.11-.15.16-.22.07-.1.12-.17.15-.21v-.02c.06-.02.29-.1.28-.32,0-.07-.01-.12-.03-.17l.13-.05.25.32s.01.01.02.01c0,0,0,0,.01,0,0,0,.02-.02.02-.03l-.02-.41.38-.14s.02-.02.02-.03,0-.02-.02-.02l-.39-.11-.02-.4s-.01-.02-.02-.03-.02,0-.03.01l-.22.34-.39-.11s-.02,0-.03.01c0,.01,0,.02,0,.03l.25.32-.08.12c-.06-.03-.14-.05-.24-.05-.06-.04-.34-.25-.52-.64-.03-.07-.09-.17-.15-.28-.1-.16-.45-.71-.89-1.09-.21-.18-.41-.29-.58-.33,0-.02.01-.04.01-.05,0-.02,0-.03.14-.12.1-.07.46-.3.8-.52.3-.19.59-.37.72-.46.02-.01.03-.02.04-.03.02,0,.09.03.19.07.34.12.97.33,1.35.37.19.02.37.03.53.05.28.03.51.05.61.06.03,0,.07.02.12.04.05.02.11.04.18.06h0c.07.02.14.03.21.03.17,0,.32-.07.44-.21.03-.03.06-.06.08-.09.27-.31.28-.42.19-.88,0-.03-.01-.06-.02-.08.01-.07.05-.18.1-.33.04-.12.09-.28.14-.44.12-.43.17-.79.14-1.12-.06-.66.15-.93.33-1.05.05-.03.1-.05.15-.07.01,0,.03,0,.05-.01.02,0,.04-.01.06-.02.11-.03.27-.08.44-.13.11-.03.21-.06.31-.09.15-.05.27-.09.35-.12.05-.02.08-.03.1-.05.09-.05.15-.13.14-.21ZM15.7,8.56h-.16s-.02,0-.03.01l-.12.31-.09-.33s-.01-.02-.03-.02l-.34-.02.28-.18s.01-.02.01-.03l-.09-.33.26.21s.02.01.03,0l.28-.18-.12.32s0,.02,0,.03l.12.1s-.03.07-.03.11ZM15.54,9.65c.26-.38.29-.77.29-.81,0,0,0-.01,0-.01-.14-.26-.06-.38.1-.48.17-.11.34.07.35.07,0,0,.01,0,.02.01h.01c.03.2,0,.33-.06.42-.06-.03-.12-.03-.17,0-.13.07-.15.31-.17.48h0c0,.32,0,.46-.21.82-.07-.12-.18-.2-.31-.25.05-.1.1-.18.14-.24ZM15.37,9.94c.13.05.23.14.3.26-.06.1-.13.21-.23.35-.11.16-.17.34-.19.52-.03,0-.06.01-.09.02h0c-.09.03-.18.06-.25.08.09-.44.29-.92.46-1.23ZM14.9,11.24c.07-.03.17-.06.27-.09,0,0,0,0,0,0h0s.04-.01.07-.02c0,.02,0,.05,0,.08,0,0,0,0,0,0-.01.27.04.54.1.72-.21-.06-.36-.07-.42-.06-.06-.17-.06-.39-.02-.63ZM14.89,11.93s0,0,.01,0,.17-.01.41.06c-.1.17-.05.34-.02.46.01.05.03.09.06.12.06.08.14.14.22.2.04.03.08.06.12.09.03.03.05.06.06.09.02.07-.04.11-.06.12-.07.04-.18.05-.23-.02-.04-.06-.06-.14-.08-.21-.02-.08-.04-.16-.09-.24-.08-.11-.18-.23-.34-.23-.04,0-.09,0-.14,0-.02-.02-.04-.03-.06-.04,0-.11.04-.38.16-.4ZM12.92,11.05s.02,0,.02,0c.09.04.46.23.82.41.36.19.74.38.85.43.09.04.13.06.16.06-.06.09-.09.25-.1.36-.02,0-.03,0-.05,0-.01,0-1.05-.04-2.12-.62-.02-.01-.04-.02-.06-.03h-.01s-.03-.02-.05-.03c-.04-.02-.08-.05-.12-.07.05-.04.11-.09.19-.16.08-.06.19-.14.31-.23.03-.02.05-.04.08-.06.03-.02.05-.04.07-.05ZM11.83,8.29c.01.05.02.1.03.13.04.09.15.3.28.55.07.14.16.3.24.47.17.32.32.92.41,1.27-.12.09-.3.22-.46.35-.13.1-.22.17-.29.23-.04.03-.07.05-.09.07,0,0,0,0,0,0-.03-.02-.07-.03-.13-.06,0-.02,0-.03,0-.05,0-.01,0-.02,0-.03v-.02c-.07-1.04-.49-1.92-.64-2.16-.01-.02-.02-.04-.02-.06,0-.03,0-.06,0-.09h0c.03-.17.22-.34.36-.39.12-.04.23-.18.31-.32,0,.04.02.07.02.11ZM11.24,7.69s.06.01.09.02c.31.05.4.25.45.4-.06.12-.18.3-.3.34-.14.04-.32.2-.38.37-.02-.03-.04-.05-.05-.07-.06-.11-.04-.22.01-.36.03-.08.08-.13.14-.19.05-.06.11-.12.15-.2.04-.09-.03-.21-.12-.26v-.04ZM10.42,7.98c.31-.3.4-.35.76-.3v.02c-.07-.02-.13-.01-.18.03-.03.03-.05.07-.06.13,0,.05-.01.1-.01.15,0,.13-.02.27-.11.37-.08.09-.2.22-.37.22h0c-.05-.2-.06-.41-.03-.63ZM10,8.16c.15-.04.27-.07.34-.1,0,0,0,0,0,0h.01c-.02.19,0,.37.04.55-.12.14-.29.33-.52.47,0-.3-.15-.6-.29-.81.15-.04.29-.08.41-.11ZM7.47,9.07c.21.08.57.09,1.09-.31.25-.19.57-.35.98-.47.15.21.31.52.28.82-.18.1-.39.17-.62.17-.83-.02-.94.04-1.3.27h0c-.14.07-.34.18-.44.13-.04-.02-.06-.06-.06-.13,0-.11.02-.27.09-.48ZM6.03,8.36c-.04-.13-.03-.22.02-.26.04-.03.11-.03.19.01.02,0,.04.02.08.05-.02.17-.05.42-.08.62-.08-.12-.17-.27-.21-.42ZM6.29,8.84c.02-.19.05-.46.08-.65.06.04.14.11.23.18l-.16.66c-.06-.06-.11-.13-.16-.19ZM6.49,9.08l.16-.67c.06.05.13.1.2.16-.05.19-.12.45-.18.66-.05-.04-.12-.1-.17-.16ZM6.71,9.3c.06-.22.13-.48.19-.68.1.08.2.17.3.26-.12.19-.29.44-.4.6-.03-.06-.06-.12-.09-.18ZM6.82,9.54c.1-.16.28-.42.41-.63.01.01.02.02.03.03l.02.02s.08.06.13.09c-.07.21-.1.37-.1.48-.1,0-.25.04-.4.18-.02-.04-.05-.1-.1-.18ZM7.46,10.34s.02.02.03.01l.33-.07-.23.25s0,.02,0,.03l.17.29-.31-.14s-.02,0-.03,0l-.23.25.04-.34s0-.02-.02-.03l-.31-.14.33-.07s.02-.01.02-.03l.02-.16s.07-.01.11-.03l.08.14ZM8.67,9.73c-.11.01-.21.01-.28.01-.46-.02-.8.17-.84.19,0,0,0,0-.01.01-.05.09-.1.16-.16.19-.04.02-.08.03-.12.03-.05,0-.11-.02-.18-.05-.18-.08-.13-.32-.13-.33,0,0,0-.01,0-.02,0,0,0,0,0,0,.15-.14.28-.18.38-.18.01.07.04.12.09.15.03.01.06.02.09.02.12,0,.28-.08.4-.15h.01s0,0,0,0c.26-.17.37-.25.79-.26-.06.13-.07.26-.05.39ZM8.73,9.73c-.03-.14-.01-.27.05-.39.12,0,.25,0,.42,0,.2,0,.38-.04.54-.12.02.02.04.04.06.06h0c.07.06.15.12.2.16-.49.2-1.08.26-1.28.28ZM10.07,9.42c-.06-.04-.15-.11-.22-.18h0s-.04-.03-.05-.05c.02-.01.04-.02.07-.03t0,0c.24-.14.43-.33.55-.48.06.21.14.34.17.39-.1.13-.27.25-.52.36ZM10.65,9.05h0s0,0,0,0c0,0-.11-.14-.17-.38.19,0,.31-.14.4-.23.03-.04.06-.07.07-.12.04-.09.04-.19.05-.29,0-.05,0-.1.01-.15,0-.04.02-.08.04-.1.05-.05.11-.02.14-.01.07.04.14.13.11.2-.03.07-.08.12-.13.18s-.11.12-.14.19c0,0,0,.01,0,.02-.05.13-.09.27,0,.41.02.04.05.08.08.12,0,.03,0,.05,0,.08-.2.11-.36.14-.42.08ZM10.87,10.25c-.04-.41-.09-.83-.11-.95-.01-.09-.02-.14-.03-.17h.01c.11,0,.25-.06.35-.11,0,.02.01.03.02.04,0,.01.55.92.63,2.14,0,0,0,.01,0,.02v.03s0,.02,0,.02c-.05-.02-.11-.04-.16-.06-.05-.02-.11-.04-.16-.05t0,0c-.17-.06-.34-.11-.47-.16-.02-.18-.05-.47-.08-.76ZM9.1,13.26s.08-.06.1-.09c.06-.08.2-.26.37-.5.1-.13.2-.27.31-.42.21-.29.69-.71.96-.94.06.03.15.07.24.11.17.06.36.13.54.19l.13.04s0,.09,0,.14h0s0,.08.01.12v.04s-.01,0-.01,0h0s-.04.03-.06.04c-1.05.63-1.61,1.51-1.62,1.52-.01.02-.02.03-.04.05-.02.02-.05.03-.08.04-.17.05-.4-.04-.51-.15-.09-.09-.27-.13-.42-.13.03-.03.06-.05.09-.07ZM10.29,13.98h0s-.07.16-.26.33c-.09-.17-.27-.22-.39-.25-.04-.01-.07-.01-.11-.01-.11,0-.21.04-.31.08-.05.02-.09.04-.14.05-.04.01-.08.02-.11,0-.06-.02-.07-.09-.07-.12,0-.08.05-.18.13-.19.08,0,.15.01.22.04.08.02.16.05.25.04,0,0,.01,0,.02,0,.13-.01.27-.04.36-.17.02-.04.05-.08.07-.13.02,0,.05-.02.07-.03.09.06.32.23.26.35ZM8.79,13.97c-.09-.3.04-.47.16-.59.22,0,.37.05.44.12.09.1.28.18.45.18.02,0,.04,0,.06,0-.01.03-.03.05-.04.08-.07.1-.18.14-.33.15-.08,0-.16-.01-.23-.04s-.15-.05-.24-.04c-.1,0-.17.11-.18.22h-.04s-.02-.05-.03-.08ZM9.45,14.65c-.41-.14-.5-.2-.61-.54h.02c.01.06.05.11.11.13.04.01.09.01.14,0,.05-.01.1-.03.15-.05.13-.05.25-.11.38-.07.12.03.28.08.36.23h0c-.15.13-.34.24-.54.31ZM9.79,14.95c-.1-.12-.18-.22-.24-.26,0,0,0,0,0,0,0,0-.01,0-.01,0,.18-.07.35-.17.49-.28.18.04.43.12.65.25-.27.13-.47.4-.59.62-.11-.12-.2-.22-.28-.32ZM10.98,15.97c-.28-.14-.57-.35-.86-.66.13-.22.33-.51.61-.62.17.12.33.27.43.48.35.75.45.83.82,1.04h0c.13.09.32.23.31.35,0,.04-.03.08-.09.12-.09.05-.25.1-.47.13-.02-.23-.17-.55-.77-.83ZM11.75,18.41c-.1.09-.19.13-.24.1-.05-.02-.07-.08-.07-.17,0-.02,0-.05,0-.09.16-.06.4-.14.59-.21-.07.12-.17.27-.28.37ZM12.07,17.97c-.18.06-.44.16-.62.22.01-.07.03-.17.06-.29l.66-.16c-.03.08-.06.15-.1.22ZM12.19,17.68l-.67.16c.02-.08.04-.16.06-.25.19-.04.45-.09.67-.14-.01.07-.04.15-.06.23ZM12.29,17.39c-.22.04-.49.1-.69.14.04-.16.07-.3.1-.38.23.03.53.06.72.08-.04.05-.08.11-.12.16ZM12.45,17.18c-.18-.02-.5-.06-.74-.09,0-.02.01-.03.01-.05v-.03c.02-.05.03-.1.03-.16.22-.03.37-.07.47-.13.05.09.15.2.35.28-.02.04-.07.1-.12.17ZM12.88,16.25s0-.02,0-.03l-.21-.26.33.09s.02,0,.03-.01l.19-.28v.34s.02.02.03.03l.33.09-.32.12s-.02.02-.02.03v.34s-.2-.27-.2-.27c0,0-.02-.01-.03,0l-.15.06s-.04-.06-.07-.08l.09-.14ZM11.93,15.68c.2.42.51.64.55.67,0,0,.01,0,.02,0,.11,0,.19.02.24.06.04.02.07.06.09.1.02.04.03.1.04.17,0,.2-.23.26-.24.26,0,0-.01,0-.02.01h0c-.19-.06-.28-.17-.33-.25.06-.04.09-.09.09-.15,0-.15-.19-.29-.34-.39h0s0,0,0,0c-.27-.15-.39-.22-.59-.59.14,0,.26-.05.37-.14.06.09.11.18.14.25ZM10.94,14.37c.4.36.72.84.83,1.02-.11.09-.23.13-.37.13-.05-.1-.11-.22-.18-.37-.08-.18-.21-.32-.35-.43.01-.03.02-.05.02-.09t0,0c.02-.09.04-.18.05-.25ZM10.89,14.33c-.01.07-.03.18-.06.28,0,0,0,0,0,0,0,.02-.01.04-.02.07-.02-.02-.04-.03-.06-.04,0,0,0,0,0,0-.23-.15-.48-.23-.67-.28.16-.15.24-.28.27-.33.16.03.35.13.55.3ZM11.28,13.23c-.35.22-.71.45-.81.52-.07.06-.11.08-.13.11-.05-.1-.17-.2-.26-.27.01-.01.02-.02.03-.04,0,0,.56-.88,1.6-1.5.02-.01.04-.03.06-.04,0,.01,0,.03,0,.04,0,.03.01.07.02.1.05.24.13.49.18.63-.14.09-.41.26-.7.45ZM12.09,12.74s0,0,0,0h0s0,0,0,0c0,0,0,0,0,0h0s0,0,0,0c0,0,0,0-.01,0,0,0,0,0,0,0,0,0,0,0,0,0h0s-.01.01-.02.02c-.05-.14-.12-.38-.17-.61,0-.03-.01-.07-.02-.1,0-.03-.01-.06-.01-.08-.01-.06-.01-.12-.02-.17,0-.06,0-.11,0-.16h0s0-.01,0-.02h0s0,0,0,0h0s0,0,0,0c0,0,0,0,0,0h0s0,0,0,0l-.15-.05c-.18-.06-.37-.12-.54-.19-.08-.03-.16-.07-.21-.1.03-.02.06-.05.08-.06,0,0,.01-.02,0-.03,0,0,0,0,0,0,0-.02,0-.05-.01-.09.13.04.29.09.44.15h0c.05.02.11.04.16.05.07.03.14.05.2.07h0c.11.04.14.06.16.07,0,0,.01,0,.02,0,0,0,.01,0,.02,0h0s.01-.02.02-.02c.02-.02.05-.04.09-.07.07-.05.16-.13.29-.23.16-.12.32-.24.44-.33.01.06.03.11.03.14s.02.07.04.1c-.02.01-.04.03-.06.05-.02.02-.05.04-.08.06-.12.09-.22.17-.31.23-.1.08-.17.14-.22.18-.06.06-.07.07-.07.08h0v.33c0,.2,0,.41.03.61.02.08.04.16.06.23-.06-.02-.11-.04-.13-.05ZM14.89,13.33c-.05-.02-.1-.04-.13-.04-.1-.02-.33-.04-.61-.06-.16-.01-.34-.03-.53-.05-.36-.04-.98-.24-1.32-.36-.03-.08-.06-.17-.08-.26,0-.02,0-.05-.01-.07-.02-.15-.03-.3-.02-.45v-.24s0-.1,0-.15c0,0,.02-.02.04-.04.04.03.09.05.14.08.02.01.03.02.05.03h.01s.04.03.06.04c1.08.59,2.13.62,2.14.62.02,0,.04,0,.06.01,0,0,0,0,0,0,.03.01.05.03.07.05h0c.13.12.17.37.13.51-.04.12.03.29.1.43-.04-.01-.07-.03-.1-.04ZM15.65,13.23c-.21.23-.43.2-.58.16-.11-.19-.15-.34-.12-.44.04-.14,0-.38-.11-.52.03,0,.06,0,.09,0,.12,0,.2.08.3.21.05.07.07.14.09.22.02.08.04.16.09.23.03.05.09.07.16.07.04,0,.08-.01.12-.03l.03.03s-.04.04-.06.07ZM15.75,13.12l-.02-.02c.05-.04.08-.1.06-.16,0-.04-.03-.08-.08-.12-.04-.03-.08-.06-.12-.09-.11-.08-.22-.16-.25-.29-.03-.12-.07-.28.02-.43h0c.19.07.37.17.54.31.08.42.07.53-.16.8ZM15.99,11.86c-.05.15-.09.27-.1.34,0,0,0,0,0,.01,0,0,0,0,0,.01-.16-.12-.32-.21-.49-.27-.06-.17-.12-.42-.11-.69.23.16.55.2.79.2h.04c-.04.15-.09.28-.13.41ZM16.27,10.32c.03.32-.02.67-.13,1.08-.26,0-.6-.03-.85-.21.01-.21.07-.42.2-.62.46-.68.48-.81.47-1.24h0c.01-.16.04-.4.14-.45.04-.02.08-.02.14.02.09.05.21.16.35.34-.19.13-.38.43-.33,1.08ZM16.84,9.14s-.03.01-.05.02c-.05.01-.1.03-.15.06-.14-.17-.25-.28-.35-.34.05-.09.1-.23.06-.44.05,0,.12,0,.2.02.07.17.2.46.3.68h-.03ZM16.92,9.11c-.09-.21-.22-.48-.29-.66.07,0,.13.02.2.02.15.17.33.37.47.53-.14.04-.28.08-.38.11ZM17.35,8.99c-.13-.15-.31-.35-.46-.51.07-.02.15-.04.23-.06l.47.5c-.07.02-.16.05-.24.08ZM17.66,8.89l-.47-.49c.08-.01.16-.02.24-.03.15.13.36.3.51.42-.07.03-.17.06-.28.09ZM18.08,8.74s-.05.02-.08.04c-.13-.11-.33-.27-.48-.4.18,0,.35.01.46.05.13.04.21.1.21.16,0,.05-.04.11-.11.15Z"/>
        <path class="cls-4" d="M11.76,11.95h-.01s0,.01,0,.01c-.02.01-.04.02-.06.04-1.05.63-1.61,1.51-1.62,1.52-.01.02-.03.03-.04.05-.02.02-.05.03-.08.04-.17.05-.4-.04-.51-.15-.09-.09-.26-.13-.42-.13.03-.03.06-.05.09-.07.04-.03.08-.06.1-.09.07-.08.2-.26.37-.5.09-.13.2-.27.31-.42.21-.29.69-.71.96-.94.06.03.15.07.24.11.17.06.36.13.54.19l.13.04s0,.09,0,.14h0s0,.08,0,.12v.04Z"/>
      </g>
    </g>
  </g>
</svg>