<?xml version="1.0" encoding="UTF-8"?>
<svg id="Layer_1" data-name="Layer 1" xmlns="http://www.w3.org/2000/svg" viewBox="0 0 24 24">
  <defs>
    <style>
      .cls-1 {
        fill: #000;
      }

      .cls-1, .cls-2, .cls-3, .cls-4 {
        stroke-width: 0px;
      }

      .cls-2 {
        fill: #fdd017;
      }

      .cls-3 {
        fill: none;
      }

      .cls-4 {
        fill: #009a3c;
      }
    </style>
  </defs>
  <rect class="cls-3" width="24" height="24"/>
  <g>
    <path class="cls-1" d="M16.71,7.34c2.92,2.92,3.18,7.42.57,10.03-2.61,2.61-7.11,2.35-10.03-.57-2.92-2.92-3.18-7.42-.57-10.03,2.61-2.61,7.11-2.36,10.03.57Z"/>
    <g>
      <path class="cls-4" d="M20.38,8.72c-.2-.51-.44-.99-.73-1.44-.04-.07-.09-.14-.13-.21-1.61-2.45-4.38-4.06-7.52-4.06s-5.91,1.62-7.52,4.06c-.05.07-.09.14-.13.21-.28.45-.53.94-.73,1.44-.4,1.02-.62,2.13-.62,3.28s.22,2.27.62,3.29c.2.51.44.99.73,1.44.04.07.09.14.13.2,1.61,2.45,4.38,4.06,7.52,4.06s5.91-1.62,7.52-4.06c.05-.07.09-.14.13-.2.28-.46.53-.94.73-1.44.4-1.02.62-2.13.62-3.29s-.22-2.27-.62-3.28Z"/>
      <g>
        <path class="cls-2" d="M13.81,12l6.57,3.29c-.2.51-.44.99-.73,1.44l-7.65-3.83-7.65,3.83c-.28-.46-.53-.94-.73-1.44l6.57-3.29-6.57-3.28c.2-.51.44-.99.73-1.44l7.65,3.83,7.65-3.83c.28.45.53.94.73,1.44l-6.57,3.28Z"/>
        <path class="cls-1" d="M21,12c0,1.16-.22,2.27-.62,3.29l-6.57-3.29,6.57-3.28c.4,1.02.62,2.13.62,3.28Z"/>
        <path class="cls-1" d="M10.19,12l-6.57,3.29c-.4-1.02-.62-2.13-.62-3.29s.22-2.27.62-3.28l6.57,3.28Z"/>
      </g>
    </g>
  </g>
</svg>