<?xml version="1.0" encoding="UTF-8"?>
<svg id="Layer_1" data-name="Layer 1" xmlns="http://www.w3.org/2000/svg" viewBox="0 0 24 24">
  <defs>
    <style>
      .cls-1 {
        fill: #03aec9;
      }

      .cls-1, .cls-2, .cls-3, .cls-4 {
        stroke-width: 0px;
      }

      .cls-2 {
        fill: #000;
      }

      .cls-3 {
        fill: none;
      }

      .cls-4 {
        fill: #fdc41b;
      }
    </style>
  </defs>
  <rect class="cls-3" width="24" height="24"/>
  <g>
    <path class="cls-2" d="M16.71,7.34c2.92,2.92,3.18,7.42.57,10.03-2.61,2.61-7.11,2.35-10.03-.57-2.92-2.92-3.18-7.42-.57-10.03,2.61-2.61,7.11-2.35,10.03.57Z"/>
    <g>
      <g>
        <path class="cls-1" d="M21,12c0,4.96-4.04,9-9,9-2.1,0-4.03-.72-5.56-1.93-.06-.04-.12-.09-.17-.14-.03-.02-.06-.05-.08-.07-.03-.02-.06-.05-.08-.07-.02-.02-.04-.03-.06-.05-.06-.05-.12-.1-.17-.16s-.12-.11-.18-.17c-.07-.07-.14-.14-.21-.21-.05-.05-.09-.1-.14-.15-.04-.04-.07-.08-.11-.12-.03-.03-.06-.06-.08-.09-.06-.07-.11-.13-.17-.2-.11-.13-.2-.26-.3-.39-1.07-1.48-1.69-3.29-1.69-5.25s.63-3.77,1.69-5.25c.09-.13.19-.26.3-.39h0c.05-.07.11-.13.17-.2.03-.03.05-.06.08-.09.03-.04.07-.08.11-.12.05-.05.09-.1.14-.15.07-.07.14-.14.21-.21.06-.06.12-.12.18-.17.06-.05.11-.11.17-.16.02-.02.04-.03.06-.05h0s0,0,0,0c.03-.02.05-.05.08-.07.03-.03.05-.05.08-.07.06-.05.12-.09.17-.14,1.53-1.21,3.46-1.93,5.56-1.93,4.96,0,9,4.04,9,9Z"/>
        <g>
          <g>
            <path class="cls-4" d="M6.11,13.55c-.07-.14-.14-.29-.21-.43-.05-.11-.1-.22-.16-.32-.01-.03-.03-.06-.04-.09,0,0,0,0,0,0-.05-.11-.06-.23-.02-.34.06-.13.19-.21.33-.17.08.02.15.07.19.15.07.11.06.23,0,.31-.04.05-.08.08-.15.08-.05,0-.12,0-.15-.04-.02-.02-.03-.05-.03-.07,0-.02,0-.04,0-.06.02-.04.09-.07.13-.05.04.03.04.09.06.12,0,0,.01-.02.01-.03,0-.01,0-.02,0-.03,0-.01,0-.03,0-.04,0-.01,0-.02,0-.02,0,0,.08-.02.08-.02s-.02-.04-.09-.06c0-.02,0-.05-.01-.07,0-.01-.01-.02-.02-.03,0,0-.02-.02-.02-.02,0,.01,0,.03,0,.04-.01.04-.04.04-.07.03-.06,0-.12.02-.16.07-.04.05-.06.13-.05.2,0,.06.03.13.08.17.05.05.13.05.2.07.01,0,.09.02.07.04-.04.04-.05.08-.05.08,0,0,.06.06,0,.15-.05.09.03.03.13,0-.05.49.29.47.29.47,0,0-.23-.36-.09-.78.14-.42,0-.62-.08-.72.1-.03.13-.11.13-.11,0,0-.03-.08-.13-.1.08-.11.22-.31.08-.72s.09-.78.09-.78c0,0-.34-.02-.29.47-.1-.03-.18-.09-.13,0,.05.09,0,.15,0,.15,0,0,.01.05.05.08.02.03-.06.04-.07.04-.07.01-.15.02-.2.07-.05.04-.08.1-.08.17,0,.07.01.14.05.2.04.05.09.08.16.07.03,0,.06,0,.07.03,0,.01,0,.03,0,.04,0,0,.02-.02.02-.02,0-.01.01-.02.02-.03.01-.02.01-.05.01-.07.07-.02.09-.06.09-.06,0,0-.07-.02-.08-.02-.01,0,0,0,0-.02s0-.03,0-.04c0-.01,0-.02,0-.04,0,0-.01-.02-.01-.02-.01.03-.02.09-.06.12-.04.03-.12,0-.13-.05-.01-.02-.01-.04,0-.06,0-.02.02-.05.03-.07.04-.04.1-.05.15-.05.06,0,.11.03.15.08.06.08.07.21,0,.31-.05.07-.11.12-.19.15-.14.03-.27-.04-.33-.17-.04-.11-.03-.24.02-.34t0,0s.03-.06.04-.09c.05-.11.1-.22.16-.33.07-.14.14-.29.21-.43.1-.21.2-.42.3-.62.09-.19.21-.39.19-.61,0-.05-.02-.11-.04-.16-.08-.17-.25-.24-.43-.24-.46,0-.6.31-.6.31,0,0-.14-.31-.6-.31-.18,0-.36.07-.43.24-.02.05-.03.1-.04.16-.02.22.09.42.19.61.1.21.2.42.3.62.07.14.14.29.21.43.05.11.11.22.16.33.02.03.03.06.04.09t0,0c.05.1.06.23.02.34-.05.13-.19.2-.33.17-.08-.02-.15-.07-.19-.15-.07-.11-.06-.23,0-.31.04-.05.08-.08.15-.08.05,0,.12,0,.15.05.02.02.03.05.03.07,0,.02,0,.04,0,.06-.02.04-.1.07-.13.05-.04-.03-.05-.09-.06-.12,0,0-.01.02-.01.02,0,.01,0,.02,0,.04,0,.01,0,.03,0,.04s0,.02,0,.02c0,0-.08.02-.08.02,0,0,.02.04.09.06,0,.02,0,.05.01.07,0,.01.01.02.02.03,0,0,.02.02.02.02,0-.01,0-.03,0-.04,0-.04.04-.04.07-.03.06,0,.12-.02.16-.07.04-.05.06-.13.05-.2,0-.06-.04-.13-.08-.17-.06-.05-.14-.05-.2-.07-.01,0-.09-.01-.07-.04.04-.04.05-.08.05-.08,0,0-.06-.06,0-.15.05-.09-.03-.03-.13,0,.04-.49-.29-.47-.29-.47,0,0,.23.36.09.78-.14.42,0,.62.08.72-.1.02-.13.1-.13.1,0,0,.03.08.13.11-.08.1-.22.3-.08.72.14.42-.09.78-.09.78,0,0,.34.02.29-.47.1.03.18.09.13,0-.05-.09,0-.15,0-.15,0,0-.01-.05-.05-.08-.02-.02.06-.04.07-.04.07-.01.15-.02.2-.07.05-.04.08-.11.08-.17,0-.07-.01-.14-.05-.2-.04-.05-.1-.08-.16-.07-.03,0-.07,0-.07-.03,0-.01,0-.03,0-.04,0,0-.02.02-.02.02,0,.01-.01.02-.02.03,0,.02-.01.05-.01.07-.07.02-.09.06-.09.06s.07.02.08.02c.01,0,0,0,0,.02,0,.01,0,.03,0,.04,0,.01,0,.02,0,.03,0,0,.01.03.01.03.01-.03.02-.09.06-.12.04-.02.12.01.13.05.01.02.01.04,0,.06,0,.02-.02.05-.03.07-.04.04-.1.05-.15.04-.06,0-.11-.03-.15-.08-.06-.08-.07-.21,0-.31.05-.07.11-.12.19-.15.14-.03.28.04.33.17.05.11.03.23-.02.34,0,0,0,0,0,0-.01.03-.03.06-.04.09-.05.11-.1.22-.16.32-.07.15-.14.29-.21.43-.1.21-.2.41-.3.62-.09.19-.21.39-.19.61,0,.05.02.11.04.16.08.17.25.24.43.24.46,0,.6-.31.6-.31,0,0,.14.31.6.31.18,0,.35-.07.43-.24.02-.05.04-.1.04-.16.02-.22-.09-.42-.19-.61-.1-.21-.2-.41-.3-.62ZM4.95,10.02c-.07-.15-.15-.29-.22-.44-.06-.13-.11-.3-.03-.43.05-.09.16-.14.26-.14.06,0,.13.01.18.04.05.03.1.08.12.14.02.06,0,.12-.03.17-.04.04-.11.06-.16.02-.03-.02-.04-.05-.05-.08,0-.03,0-.06-.01-.09-.04,0-.08.04-.09.09,0,.02,0,.05-.02.07-.01.03-.03.03-.05.03-.02,0-.04.01-.06.03,0,0-.03.03-.03.04.03.05.09.06.15.07,0,.04,0,.08.03.12.01.02.02.03.04.05,0,0,.05.03.05.02,0-.06,0-.15.08-.17.02-.01.05,0,.08,0,.08,0,.15-.05.23-.05,0,.17,0,.47,0,.47-.03.13-.15.11-.29.08.04.14.19.22.32.24-.19.29.11.48.11.48,0,0,.29-.19.11-.48.13-.02.28-.1.32-.24-.15.02-.26.05-.29-.08,0,0,0-.3,0-.47.08,0,.15.04.23.05.02,0,.06-.01.08,0,.07.03.08.11.07.17,0,0,.04-.02.05-.02.02-.01.03-.03.04-.05.02-.04.03-.07.03-.12.05,0,.12-.01.15-.07,0,0-.03-.03-.03-.04-.01-.01-.03-.03-.06-.03-.02,0-.04,0-.05-.03-.01-.02,0-.05-.02-.07-.01-.04-.05-.08-.09-.09,0,.03,0,.06-.01.09-.01.03-.03.06-.05.08-.05.03-.12.02-.16-.02-.04-.04-.05-.11-.03-.17.02-.06.06-.11.12-.14s.12-.04.18-.04c.11,0,.21.05.26.14.08.14.03.3-.03.43-.06.15-.15.3-.22.44-.19.39-.36.78-.54,1.17-.01.02-.04.06-.04.08,0-.02-.03-.06-.04-.08-.18-.39-.36-.78-.54-1.17ZM5.26,12c.14-.02.26-.21.26-.21,0,0,.13.19.26.21-.13.02-.26.21-.26.21,0,0-.13-.19-.26-.21ZM6.36,14.86c-.05.09-.16.14-.26.14-.06,0-.13-.01-.18-.04-.05-.03-.1-.08-.12-.14-.02-.06,0-.12.03-.17.04-.04.11-.06.16-.02.03.02.04.05.05.08,0,.03.01.06.01.1.04-.01.08-.04.09-.09,0-.02,0-.05.02-.07.01-.03.03-.03.05-.03.02,0,.04-.01.06-.03,0,0,.03-.03.03-.03-.03-.06-.09-.06-.15-.07,0-.04,0-.08-.03-.12-.01-.02-.02-.03-.04-.05,0,0-.05-.03-.05-.02,0,.06,0,.14-.07.17-.02.01-.06,0-.08,0-.08,0-.15.05-.23.05,0-.17,0-.47,0-.47.03-.13.15-.1.29-.08-.04-.14-.2-.22-.32-.24.19-.29-.11-.49-.11-.49,0,0-.29.19-.11.49-.13.02-.28.1-.32.24.14-.02.26-.05.29.08,0,0,0,.3,0,.47-.08,0-.15-.04-.23-.05-.03,0-.06.01-.08,0-.07-.03-.08-.11-.08-.17,0,0-.04.02-.05.02-.02.01-.03.03-.04.05-.02.04-.03.07-.03.12-.05,0-.12.01-.15.07,0,0,.03.03.03.03.02.02.04.03.06.03.02,0,.04,0,.05.03.01.02.01.05.02.07.01.04.05.08.09.09,0-.03,0-.07.01-.1.01-.03.03-.06.05-.08.05-.03.12-.02.16.02.04.04.05.11.03.17-.02.06-.06.11-.12.14-.05.03-.12.04-.18.04-.1,0-.21-.05-.26-.14-.08-.14-.03-.3.03-.43.07-.15.15-.29.22-.44.19-.39.37-.78.54-1.17.01-.02.04-.06.04-.08,0,.02.03.06.04.08.18.39.36.78.54,1.17.07.15.16.29.22.44.06.13.11.3.03.43Z"/>
            <path class="cls-4" d="M6.41,7.81c-.1-.21-.2-.41-.3-.62-.07-.14-.14-.29-.21-.43-.05-.11-.1-.22-.16-.33-.01-.03-.03-.06-.04-.09t0,0c-.05-.11-.06-.23-.02-.34.06-.13.19-.2.33-.17.08.02.15.07.19.15.07.11.06.23,0,.31-.04.05-.08.08-.15.08-.05,0-.12,0-.15-.05-.02-.02-.03-.05-.03-.07,0-.02,0-.04,0-.06.02-.04.09-.07.13-.05.04.03.04.09.06.12,0,0,.01-.02.01-.03,0-.01,0-.02,0-.03,0-.01,0-.03,0-.04,0-.01,0-.02,0-.02,0,0,.08-.02.08-.02,0,0-.02-.04-.09-.06,0-.02,0-.05-.01-.07,0-.01-.01-.02-.02-.03,0,0-.02-.02-.02-.02,0,.01,0,.03,0,.04-.01.04-.04.04-.07.03-.06,0-.12.02-.16.07-.04.05-.06.13-.05.2,0,.06.03.13.08.17.05.05.13.05.2.07.01,0,.09.02.07.04-.04.04-.05.08-.05.08,0,0,.06.06,0,.15-.05.09.03.03.13,0-.05.49.29.47.29.47,0,0-.23-.36-.09-.78.14-.42,0-.62-.08-.72.1-.02.13-.1.13-.1h-.66c-.13.02-.26.21-.26.21,0,0-.02-.02-.04-.05-.05.05-.09.1-.14.15,0,.01.02.03.02.04.05.11.03.24-.02.34t0,0s-.03.06-.04.09c-.05.11-.1.22-.16.33-.07.14-.14.29-.21.43-.1.21-.2.41-.3.62-.09.19-.21.39-.19.61,0,.05.02.11.04.16.08.17.25.24.43.24.46,0,.6-.31.6-.31,0,0,.14.31.6.31.18,0,.35-.07.43-.24.02-.05.04-.1.04-.16.02-.22-.09-.42-.19-.61ZM6.36,8.5c-.05.09-.16.13-.26.14-.06,0-.13-.01-.18-.04-.05-.03-.1-.08-.12-.14-.02-.06,0-.12.03-.17.04-.04.11-.06.16-.02.03.02.04.05.05.08,0,.03.01.06.01.1.04,0,.08-.04.09-.09,0-.02,0-.05.02-.07.01-.03.03-.03.05-.03.02,0,.04-.01.06-.03,0,0,.03-.03.03-.03-.03-.06-.09-.06-.15-.07,0-.04,0-.08-.03-.12-.01-.02-.02-.03-.04-.05,0,0-.05-.03-.05-.02,0,.06,0,.14-.07.17-.02.01-.06,0-.08,0-.08,0-.15.05-.23.05,0-.17,0-.47,0-.47.03-.13.15-.1.29-.08-.04-.14-.2-.22-.32-.24.19-.29-.11-.49-.11-.49,0,0-.29.19-.11.49-.13.02-.28.1-.32.24.14-.02.26-.05.29.08,0,0,0,.3,0,.47-.08,0-.15-.04-.23-.05-.03,0-.06.01-.08,0-.07-.03-.08-.11-.08-.17,0,0-.04.02-.05.02-.02.01-.03.03-.04.05-.02.04-.03.08-.03.12-.05,0-.12.01-.15.07,0,0,.03.03.03.03.02.02.04.03.06.03.02,0,.04,0,.05.03.01.02.01.05.02.07.01.04.05.08.09.09,0-.03,0-.06.01-.1.01-.03.03-.06.05-.08.05-.03.12-.02.16.02.04.04.05.11.03.17-.02.06-.06.11-.12.14-.05.03-.12.04-.18.04-.1,0-.21-.05-.26-.14-.08-.14-.03-.3.03-.44.07-.15.15-.29.22-.44.19-.39.37-.78.54-1.17.01-.02.04-.06.04-.08,0,.02.03.06.04.08.18.39.36.78.54,1.17.07.15.16.29.22.44.06.14.11.3.03.44ZM5.24,6.07s0,0,0,0c-.03.03-.06.06-.08.09,0,0,.01.01.01.02.01.02.01.04,0,.06,0,.02-.02.05-.03.07-.04.04-.1.05-.15.05h0c-.1.13-.2.26-.3.39,0,.28-.14.49-.14.49,0,0,.34.02.29-.47.1.03.18.09.13,0-.05-.09,0-.15,0-.15,0,0-.01-.05-.05-.08-.02-.02.06-.04.07-.04.07-.01.15-.02.2-.07.05-.04.08-.1.08-.17,0-.07-.01-.14-.05-.2Z"/>
            <path class="cls-4" d="M6.2,17.22c-.1-.03-.18-.09-.13,0,.05.09,0,.15,0,.15,0,0,.01.05.05.08.02.03-.06.04-.07.04-.07.01-.15.02-.2.07-.05.04-.08.1-.08.17,0,.07.01.14.05.2.04.05.09.08.16.07.03,0,.06,0,.07.03,0,.01,0,.03,0,.04,0,0,.02-.02.02-.02,0-.01.01-.02.02-.03.01-.02.01-.05.01-.07.07-.02.09-.06.09-.06,0,0-.07-.02-.08-.02-.01,0,0,0,0-.02s0-.03,0-.04c0-.01,0-.03,0-.04,0,0-.01-.02-.01-.02-.01.03-.02.09-.06.12-.04.03-.12,0-.13-.05-.01-.02-.01-.04,0-.06,0-.02.02-.05.03-.07.04-.04.1-.05.15-.05.06,0,.11.03.15.08.06.08.07.21,0,.31-.05.07-.11.12-.19.14-.14.03-.27-.04-.33-.17-.04-.11-.03-.24.02-.34,0,0,0,0,0,0,.02-.03.03-.06.04-.09.05-.11.1-.22.16-.33.07-.14.14-.29.21-.43.1-.21.2-.41.3-.62.09-.19.21-.39.19-.62,0-.05-.02-.11-.04-.16-.08-.17-.25-.24-.43-.24-.46,0-.6.31-.6.31,0,0-.14-.31-.6-.31-.18,0-.36.07-.43.24-.02.05-.03.1-.04.16-.02.22.09.42.19.62.1.21.2.41.3.62.07.14.14.29.21.43.05.11.11.22.16.33.02.03.03.06.04.09,0,0,0,0,0,0,.05.11.06.23.02.34,0,.01-.01.03-.02.04.04.05.09.1.14.15.03-.03.04-.05.04-.05,0,0,.13.19.26.21h.66s-.03-.08-.13-.1c.08-.11.22-.3.08-.72-.14-.42.09-.78.09-.78,0,0-.34-.02-.29.47ZM5.56,17.55s-.04.06-.04.08c0-.02-.03-.06-.04-.08-.18-.39-.36-.78-.54-1.17-.07-.15-.15-.29-.22-.44-.06-.14-.11-.3-.03-.44.05-.09.16-.14.26-.14.06,0,.13.01.18.04.05.03.1.08.12.14.02.06,0,.12-.03.17s-.11.06-.16.02c-.03-.02-.04-.05-.05-.08,0-.03,0-.06-.01-.09-.04,0-.08.04-.09.09,0,.02,0,.05-.02.07-.01.03-.03.03-.05.03-.02,0-.04.02-.06.03,0,0-.03.03-.03.04.03.05.09.06.15.07,0,.04,0,.08.03.12.01.02.02.04.04.05,0,0,.05.03.05.02,0-.06,0-.15.08-.17.02-.01.05,0,.08,0,.08,0,.15-.05.23-.05,0,.17,0,.47,0,.47-.03.13-.15.11-.29.08.04.14.19.22.32.24-.19.3.11.49.11.49,0,0,.29-.19.11-.49.13-.02.28-.1.32-.24-.15.02-.26.05-.29-.08,0,0,0-.3,0-.47.08,0,.15.04.23.05.02,0,.06-.01.08,0,.07.03.08.11.07.17,0,0,.04-.02.05-.02.02-.01.03-.03.04-.05.02-.04.03-.07.03-.12.05,0,.12-.01.15-.07,0,0-.03-.03-.03-.04-.01-.01-.03-.03-.06-.03s-.04,0-.05-.03c-.01-.02,0-.05-.02-.07-.01-.04-.05-.08-.09-.09,0,.03,0,.06-.01.09-.01.03-.03.06-.05.08-.05.03-.12.02-.16-.02-.04-.04-.05-.11-.03-.17.02-.06.06-.11.12-.14s.12-.04.18-.04c.11,0,.21.05.26.14.08.14.03.3-.03.44-.06.15-.15.29-.22.44-.19.39-.36.78-.54,1.17ZM5.21,17.57c-.06-.05-.14-.05-.2-.07-.01,0-.09-.01-.07-.04.04-.03.05-.08.05-.08,0,0-.06-.06,0-.15.05-.09-.03-.03-.13,0,.04-.48-.29-.47-.29-.47,0,0,.13.21.14.49.09.13.19.26.3.39.05,0,.12,0,.15.05.02.02.03.05.03.07,0,.02,0,.04,0,.06,0,0,0,.01-.01.02.03.03.05.06.08.09,0,0,0,0,0,0,.04-.05.06-.13.05-.2,0-.06-.04-.13-.08-.17Z"/>
          </g>
          <path class="cls-4" d="M6.07,18.68l-.03.06s.04.03.06.05c0-.06-.03-.11-.03-.11ZM6.1,18.79s.05.05.08.07c-.01-.02-.03-.06-.08-.07ZM6.29,18.51s.06-.03.06-.03c.05-.02.08-.07.09-.11h-.66s-.04.01-.1.05c.06.06.12.12.18.17.03,0,.06-.01.1,0,.16.01.25.06.29.17.02.05.03.12.01.18.06.05.11.09.17.14.05-.27.03-.38-.15-.57Z"/>
          <path class="cls-4" d="M6.35,5.53s-.06-.03-.06-.03c.18-.18.2-.29.15-.56-.06.04-.12.09-.17.14.01.06,0,.13-.01.18-.04.11-.13.17-.29.17-.03,0-.06,0-.09,0-.06.06-.12.11-.18.17.06.04.1.05.1.05h.66s-.05-.09-.09-.11ZM6.1,5.21s.07-.05.08-.07c-.03.02-.06.04-.08.07ZM6.04,5.26l.03.06s.03-.05.03-.11c-.02.02-.04.03-.06.05Z"/>
        </g>
      </g>
      <g>
        <g>
          <path class="cls-4" d="M15.87,10.56c0,1.34-1.08,2.42-2.42,2.42s-2.42-1.08-2.42-2.42,1.08-2.42,2.42-2.42,2.42,1.08,2.42,2.42Z"/>
          <path class="cls-4" d="M13.65,7.62c0,.11-.09.2-.2.2s-.2-.09-.2-.2.2-.83.2-.83c0,0,.2.72.2.83Z"/>
          <path class="cls-4" d="M13.65,7.62c0,.11-.09.2-.2.2s-.2-.09-.2-.2.2-.83.2-.83c0,0,.2.72.2.83Z"/>
          <path class="cls-4" d="M13.07,7.63c.02.11-.05.21-.16.23s-.21-.05-.23-.16c-.02-.11.03-.85.03-.85,0,0,.34.67.36.77Z"/>
          <path class="cls-4" d="M13.07,7.63c.02.11-.05.21-.16.23s-.21-.05-.23-.16c-.02-.11.03-.85.03-.85,0,0,.34.67.36.77Z"/>
          <path class="cls-4" d="M12.51,7.76c.04.1,0,.22-.11.26-.1.04-.22,0-.26-.11-.04-.1-.13-.84-.13-.84,0,0,.46.59.5.69Z"/>
          <path class="cls-4" d="M12.51,7.76c.04.1,0,.22-.11.26-.1.04-.22,0-.26-.11-.04-.1-.13-.84-.13-.84,0,0,.46.59.5.69Z"/>
          <path class="cls-4" d="M11.98,8c.06.09.04.21-.05.28-.09.06-.22.04-.28-.06-.06-.09-.29-.8-.29-.8,0,0,.57.49.63.58Z"/>
          <path class="cls-4" d="M11.98,8c.06.09.04.21-.05.28-.09.06-.22.04-.28-.06-.06-.09-.29-.8-.29-.8,0,0,.57.49.63.58Z"/>
          <path class="cls-4" d="M11.51,8.34c.08.08.08.2,0,.28-.08.08-.2.08-.28,0-.08-.08-.45-.73-.45-.73,0,0,.65.37.73.44Z"/>
          <path class="cls-4" d="M11.51,8.34c.08.08.08.2,0,.28-.08.08-.2.08-.28,0-.08-.08-.45-.73-.45-.73,0,0,.65.37.73.44Z"/>
          <path class="cls-4" d="M11.11,8.76c.09.06.12.18.05.27s-.18.12-.27.05-.58-.62-.58-.62c0,0,.71.23.8.29Z"/>
          <path class="cls-4" d="M11.11,8.76c.09.06.12.18.05.27s-.18.12-.27.05-.58-.62-.58-.62c0,0,.71.23.8.29Z"/>
          <path class="cls-4" d="M10.81,9.25c.1.04.15.16.11.26-.04.1-.16.15-.26.11s-.69-.5-.69-.5c0,0,.74.09.84.13Z"/>
          <path class="cls-4" d="M10.81,9.25c.1.04.15.16.11.26-.04.1-.16.15-.26.11s-.69-.5-.69-.5c0,0,.74.09.84.13Z"/>
          <path class="cls-4" d="M10.6,9.79c.11.02.18.13.16.23-.02.11-.13.18-.23.16-.11-.02-.77-.36-.77-.36,0,0,.74-.05.85-.03Z"/>
          <path class="cls-4" d="M10.6,9.79c.11.02.18.13.16.23-.02.11-.13.18-.23.16-.11-.02-.77-.36-.77-.36,0,0,.74-.05.85-.03Z"/>
          <path class="cls-4" d="M10.51,10.36c.11,0,.2.09.2.2s-.09.2-.2.2-.83-.2-.83-.2c0,0,.72-.2.83-.2Z"/>
          <path class="cls-4" d="M10.51,10.36c.11,0,.2.09.2.2s-.09.2-.2.2-.83-.2-.83-.2c0,0,.72-.2.83-.2Z"/>
          <path class="cls-4" d="M10.53,10.94c.11-.02.21.05.23.16.02.11-.05.21-.16.23-.11.02-.85-.03-.85-.03,0,0,.67-.33.77-.36Z"/>
          <path class="cls-4" d="M10.53,10.94c.11-.02.21.05.23.16.02.11-.05.21-.16.23-.11.02-.85-.03-.85-.03,0,0,.67-.33.77-.36Z"/>
          <path class="cls-4" d="M10.65,11.5c.1-.04.22,0,.26.11.04.1,0,.22-.11.26-.1.04-.84.14-.84.14,0,0,.59-.46.69-.5Z"/>
          <path class="cls-4" d="M10.65,11.5c.1-.04.22,0,.26.11.04.1,0,.22-.11.26-.1.04-.84.14-.84.14,0,0,.59-.46.69-.5Z"/>
          <path class="cls-4" d="M10.89,12.02c.09-.06.21-.04.27.06.06.09.04.21-.05.27s-.8.29-.8.29c0,0,.49-.56.58-.63Z"/>
          <path class="cls-4" d="M10.89,12.02c.09-.06.21-.04.27.06.06.09.04.21-.05.27s-.8.29-.8.29c0,0,.49-.56.58-.63Z"/>
          <path class="cls-4" d="M11.23,12.49c.08-.08.2-.08.28,0,.08.08.08.2,0,.28-.08.08-.73.45-.73.45,0,0,.37-.65.45-.73Z"/>
          <path class="cls-4" d="M11.23,12.49c.08-.08.2-.08.28,0,.08.08.08.2,0,.28-.08.08-.73.45-.73.45,0,0,.37-.65.45-.73Z"/>
          <path class="cls-4" d="M11.65,12.89c.06-.09.19-.12.28-.05.09.06.12.18.05.28-.06.09-.63.58-.63.58,0,0,.23-.71.29-.8Z"/>
          <path class="cls-4" d="M11.65,12.89c.06-.09.19-.12.28-.05.09.06.12.18.05.28-.06.09-.63.58-.63.58,0,0,.23-.71.29-.8Z"/>
          <path class="cls-4" d="M12.14,13.2c.04-.1.16-.15.26-.11.1.04.15.16.11.26-.04.1-.5.69-.5.69,0,0,.09-.74.13-.84Z"/>
          <path class="cls-4" d="M12.14,13.2c.04-.1.16-.15.26-.11.1.04.15.16.11.26-.04.1-.5.69-.5.69,0,0,.09-.74.13-.84Z"/>
          <path class="cls-4" d="M12.68,13.4c.02-.11.13-.18.23-.16.11.02.18.13.16.23-.02.11-.36.78-.36.78,0,0-.05-.75-.03-.85Z"/>
          <path class="cls-4" d="M12.68,13.4c.02-.11.13-.18.23-.16.11.02.18.13.16.23-.02.11-.36.78-.36.78,0,0-.05-.75-.03-.85Z"/>
          <path class="cls-4" d="M13.25,13.5c0-.11.09-.2.2-.2s.2.09.2.2-.2.83-.2.83c0,0-.2-.72-.2-.83Z"/>
          <path class="cls-4" d="M13.25,13.5c0-.11.09-.2.2-.2s.2.09.2.2-.2.83-.2.83c0,0-.2-.72-.2-.83Z"/>
          <path class="cls-4" d="M13.83,13.48c-.02-.11.05-.21.16-.23.11-.02.21.05.23.16.02.11-.03.85-.03.85,0,0-.34-.67-.36-.78Z"/>
          <path class="cls-4" d="M13.83,13.48c-.02-.11.05-.21.16-.23.11-.02.21.05.23.16.02.11-.03.85-.03.85,0,0-.34-.67-.36-.78Z"/>
          <path class="cls-4" d="M14.39,13.35c-.04-.1,0-.22.11-.26.1-.04.22,0,.26.11s.13.84.13.84c0,0-.46-.59-.5-.69Z"/>
          <path class="cls-4" d="M14.39,13.35c-.04-.1,0-.22.11-.26.1-.04.22,0,.26.11s.13.84.13.84c0,0-.46-.59-.5-.69Z"/>
          <path class="cls-4" d="M14.92,13.11c-.06-.09-.04-.22.05-.28s.21-.04.27.05c.06.09.3.8.3.8,0,0-.57-.49-.63-.58Z"/>
          <path class="cls-4" d="M14.92,13.11c-.06-.09-.04-.22.05-.28s.21-.04.27.05c.06.09.3.8.3.8,0,0-.57-.49-.63-.58Z"/>
          <path class="cls-4" d="M15.39,12.78c-.08-.08-.08-.2,0-.28.08-.08.2-.08.28,0,.08.08.44.73.44.73,0,0-.65-.37-.73-.45Z"/>
          <path class="cls-4" d="M15.39,12.78c-.08-.08-.08-.2,0-.28.08-.08.2-.08.28,0,.08.08.44.73.44.73,0,0-.65-.37-.73-.45Z"/>
          <path class="cls-4" d="M15.78,12.36c-.09-.06-.12-.18-.05-.27.06-.09.18-.12.27-.06.09.06.58.63.58.63,0,0-.71-.23-.8-.29Z"/>
          <path class="cls-4" d="M15.78,12.36c-.09-.06-.12-.18-.05-.27.06-.09.18-.12.27-.06.09.06.58.63.58.63,0,0-.71-.23-.8-.29Z"/>
          <path class="cls-4" d="M16.09,11.86c-.1-.04-.15-.16-.11-.26s.16-.15.26-.11c.1.04.69.5.69.5,0,0-.74-.09-.84-.14Z"/>
          <path class="cls-4" d="M16.09,11.86c-.1-.04-.15-.16-.11-.26s.16-.15.26-.11c.1.04.69.5.69.5,0,0-.74-.09-.84-.14Z"/>
          <path class="cls-4" d="M16.29,11.33c-.11-.02-.18-.13-.16-.23.02-.11.13-.18.23-.16s.77.36.77.36c0,0-.74.05-.85.03Z"/>
          <path class="cls-4" d="M16.29,11.33c-.11-.02-.18-.13-.16-.23.02-.11.13-.18.23-.16s.77.36.77.36c0,0-.74.05-.85.03Z"/>
          <path class="cls-4" d="M16.39,10.76c-.11,0-.2-.09-.2-.2s.09-.2.2-.2.83.2.83.2c0,0-.72.2-.83.2Z"/>
          <path class="cls-4" d="M16.39,10.76c-.11,0-.2-.09-.2-.2s.09-.2.2-.2.83.2.83.2c0,0-.72.2-.83.2Z"/>
          <path class="cls-4" d="M16.37,10.18c-.11.02-.21-.05-.23-.16-.02-.11.05-.21.16-.23.11-.02.85.03.85.03,0,0-.67.34-.77.36Z"/>
          <path class="cls-4" d="M16.37,10.18c-.11.02-.21-.05-.23-.16-.02-.11.05-.21.16-.23.11-.02.85.03.85.03,0,0-.67.34-.77.36Z"/>
          <path class="cls-4" d="M16.24,9.61c-.1.04-.22,0-.26-.11s0-.22.11-.26c.1-.04.84-.13.84-.13,0,0-.59.46-.69.5Z"/>
          <path class="cls-4" d="M16.24,9.61c-.1.04-.22,0-.26-.11s0-.22.11-.26c.1-.04.84-.13.84-.13,0,0-.59.46-.69.5Z"/>
          <path class="cls-4" d="M16,9.09c-.09.06-.21.04-.27-.05-.06-.09-.04-.21.05-.27.09-.06.8-.29.8-.29,0,0-.49.56-.58.62Z"/>
          <path class="cls-4" d="M16,9.09c-.09.06-.21.04-.27-.05-.06-.09-.04-.21.05-.27.09-.06.8-.29.8-.29,0,0-.49.56-.58.62Z"/>
          <path class="cls-4" d="M15.67,8.62c-.08.08-.2.08-.28,0-.08-.08-.08-.2,0-.28.08-.08.73-.44.73-.44,0,0-.37.65-.44.73Z"/>
          <path class="cls-4" d="M15.67,8.62c-.08.08-.2.08-.28,0-.08-.08-.08-.2,0-.28.08-.08.73-.44.73-.44,0,0-.37.65-.44.73Z"/>
          <path class="cls-4" d="M15.25,8.22c-.06.09-.18.12-.27.06-.09-.06-.12-.19-.05-.28s.63-.58.63-.58c0,0-.23.71-.3.8Z"/>
          <path class="cls-4" d="M15.25,8.22c-.06.09-.18.12-.27.06-.09-.06-.12-.19-.05-.28s.63-.58.63-.58c0,0-.23.71-.3.8Z"/>
          <path class="cls-4" d="M14.76,7.92c-.04.1-.16.15-.26.11-.1-.04-.15-.16-.11-.26s.5-.69.5-.69c0,0-.09.74-.13.84Z"/>
          <path class="cls-4" d="M14.76,7.92c-.04.1-.16.15-.26.11-.1-.04-.15-.16-.11-.26s.5-.69.5-.69c0,0-.09.74-.13.84Z"/>
          <path class="cls-4" d="M14.22,7.71c-.02.11-.13.18-.23.16-.11-.02-.18-.13-.16-.23.02-.11.36-.77.36-.77,0,0,.05.74.03.85Z"/>
          <path class="cls-4" d="M14.22,7.71c-.02.11-.13.18-.23.16-.11-.02-.18-.13-.16-.23.02-.11.36-.77.36-.77,0,0,.05.74.03.85Z"/>
        </g>
        <g>
          <path class="cls-4" d="M13.65,14.79c-.08.03-.15.15-.2.21-.09.1-.18.2-.28.3-.17.17-.43.36-.57.39-.14.03-.29.01-.36.08-.07.07-.16.15-.16.19s-.16.07-.19.17-.02.21-.01.22c0,0,.13-.05.16-.08.03-.03.03.04.03.04,0,0,.09-.01.11-.01.02,0,.24-.08.51-.08s.86.05.99.04-.12-.05-.2-.05-.39-.04-.44-.04-.24.01-.24-.02c0-.03.08-.13.1-.14.02-.02-.21.02-.07-.07.15-.09.1-.16.02-.13s-.37.12-.37.15-.12.15-.15.12c-.03-.03-.11-.03-.11-.03,0,0-.02-.06.09-.09s.05.02.23-.08c.18-.1.72-.4,1.02-.66.16-.13.42-.19.63-.21.16-.02.32-.03.47-.05.13-.02.34-.03.44-.13.2-.2.48-.42.74-.54.2-.08.39-.13.56-.27.23-.17.34-.44.54-.63.14-.13.3-.25.47-.33.06-.03.45-.22.4-.02-.03.12-.23.39-.25.42-.02.02.21-.09.26-.04.05.05.02.15-.03.2-.06.06-.19.19-.19.19,0,0,.21-.02.19.05s-.43.27-.46.3c-.03.03,0,.05,0,.07s-.06.06-.11.11c-.05.05-.23.11-.2.18s.01.04-.03.08-.2.05-.2.1.02.14-.01.17c-.03.03-.23.06-.23.06,0,0,.03.06,0,.13-.03.07-.8.43-.84.43s-.11.04-.1.04c.01,0,.68-.01.9-.15s.42-.17.47-.23-.18-.1-.18-.16.14-.13.38-.16c.24-.03.36-.05.26-.08-.11-.03-.27,0-.27-.05s.03-.04.14-.07c.12-.03.4-.06.4-.13s-.21-.04-.28-.06c-.06-.02,0-.02.22-.09.21-.07.42-.16.42-.21s-.21-.06-.27-.06-.1-.01.02-.08c.12-.07.58-.34.66-.47.08-.13.16-.2.11-.25-.05-.05-.22.12-.37.15-.15.03-.2.06-.15-.01.04-.07.26-.22.47-.44.21-.21.51-.46.51-.56s.01-.18-.11-.16c-.12.03-.27.23-.35.32s-.48.39-.48.39c0,0,.22-.27.46-.61.24-.34.36-.53.36-.58s-.02-.13-.04-.15c-.02-.02-.13-.04-.23.07s-.41.59-.51.66c-.1.06-.17.16-.1.06.07-.1.26-.57.28-.63.02-.06.14-.4.14-.58,0-.08-.01-.23-.1-.27-.09-.04-.17.04-.18.13-.03.17-.05.34-.1.5-.02.09-.05.17-.09.25-.03.08-.09.14-.14.21.01-.11.06-.21.07-.32,0-.12,0-.23-.02-.35-.01-.04-.03-.1-.08-.09-.1,0-.16.12-.17.21-.02.14-.05.26-.11.4-.07.19-.16.38-.24.57-.36.77-1,1.36-1.73,1.78-.6.35-1.23.5-1.91.57-.01,0-.02,0-.03,0Z"/>
          <path class="cls-4" d="M14.97,15.98c-.06,0-.14-.04-.14.07s-.06.21-.17.25c-.12.04-.79.11-1.2.08-.4-.03-.71.19-.76.29s-.03.24.08.17c.11-.07.31-.23.36-.23s-.05.24.06.23c.12-.02.2-.17.29-.2s.11.04.07.12-.05.19.13.05c.18-.14.24-.22.24-.11s.04.16.18.07c.14-.09.1-.16.16-.16s.05.06.09.1c.04.04.11.11.26-.08.05-.05.06-.04.11,0,.05.05.02.15.14.07s.18-.2.25-.2c.06,0,.06.14.14.08.01,0,.02-.02.03-.03.04-.06.08-.21.17-.21.12,0,.13.11.22.11s.2,0,.23-.13.04-.28.11-.21c.09.09.22.18.34.08.06-.04.1-.1.12-.17.02-.05-.02-.11-.08-.12-.2-.03-.4-.04-.6-.06-.12,0-.23-.01-.35-.02-.1,0-.23-.03-.33,0-.11.02-.15.16-.15.16Z"/>
          <path class="cls-4" d="M9.24,12.71c.08.05.2.19.22.21.08.08.16.16.24.24.07.07.4.59.62.74.22.15.47.23.6.3s.37.26.51.39c.13.13.53.33.78.33s.6,0,.68.07c.07.07.26.14.31.1s.15-.24.15-.24c0,0-.09-.04-.3-.04s-.95-.13-1.56-.48c-.61-.36-1.18-.71-1.59-1.35-.41-.64-.64-1.32-.69-1.53-.05-.2-.21-.2-.21.08s.15.5.11.55c-.03.03-.21-.33-.22-.35-.09-.2-.14-.42-.2-.64-.01-.05-.02-.14-.08-.16-.07-.02-.12.04-.15.09-.03.06-.02.13-.01.2.01.12.04.23.08.34.04.12.08.23.12.34.06.18.13.35.19.53,0,0-.38-.53-.51-.66-.04-.04-.09-.09-.14-.13-.03-.02-.12-.11-.15-.05,0,.01,0,.03,0,.04,0,.19.07.36.16.52.14.22.55.75.55.75,0,0-.26-.24-.39-.37s-.55-.43-.52-.23.83.91.89,1.02c.01.02.06.14-.01.12-.02,0-.03-.02-.04-.03-.04-.04-.11-.08-.16-.12-.04-.02-.09-.07-.14-.07-.05,0-.13.07,0,.2s.87.48.87.53-.32.01-.41.01-.13.03-.04.08.29.08.42.13c.13.05.24.03.2.07-.03.03-.09.03-.13.03-.06,0-.14,0-.19,0-.04.01-.04.03,0,.06.08.08.43.12.46.15s-.11.08-.15.08c-.04,0-.2,0-.07.06.12.07.56.13.57.14,0,.01-.24.09-.24.13,0,.04.11.07.12.08.01.01,1.12.5,1.56.5-.25-.09-1.28-.46-1.32-.54-.04-.08.15-.11.15-.16s-.14-.05-.27-.12c-.13-.07-.18-.07-.13-.11s.19-.04.06-.1c-.13-.06-.29-.02-.27-.12.03-.1.11-.06.09-.13-.02-.06-.11-.06-.13-.11-.01-.04.01-.07-.01-.12-.05-.1-.22-.13-.31-.18-.04-.02-.11-.05-.14-.09-.05-.07.12-.09.16-.09-.04-.03-.4-.34-.31-.37.04-.01.08-.03.12-.03.04,0,.09.01.09-.04,0-.04-.03-.09-.04-.12-.06-.12-.22-.33-.17-.35.07-.03.16.08.21.04.02-.02.03-.05.05-.07.01-.02.04,0,.07.01Z"/>
        </g>
      </g>
    </g>
  </g>
</svg>