<?xml version="1.0" encoding="UTF-8"?>
<svg id="Layer_1" data-name="Layer 1" xmlns="http://www.w3.org/2000/svg" viewBox="0 0 24 24">
  <defs>
    <style>
      .cls-1 {
        fill: #000;
      }

      .cls-1, .cls-2, .cls-3, .cls-4, .cls-5 {
        stroke-width: 0px;
      }

      .cls-2 {
        fill: #ba0201;
      }

      .cls-3 {
        fill: none;
      }

      .cls-4 {
        fill: #006506;
      }

      .cls-5 {
        fill: #fff;
      }
    </style>
  </defs>
  <rect class="cls-3" width="24" height="24"/>
  <g>
    <path class="cls-1" d="M16.71,7.34c2.92,2.92,3.18,7.42.57,10.03-2.61,2.61-7.11,2.36-10.03-.57-2.92-2.92-3.18-7.42-.57-10.03,2.61-2.61,7.11-2.36,10.03.57Z"/>
    <g>
      <g>
        <path class="cls-4" d="M20.25,15.6c-1.39,3.18-4.56,5.4-8.25,5.4s-6.86-2.22-8.25-5.4h16.49Z"/>
        <path class="cls-5" d="M20.59,14.7c-.1.31-.21.61-.34.9H3.75c-.13-.29-.24-.59-.34-.9h17.17Z"/>
        <path class="cls-2" d="M21,12c0,.94-.15,1.85-.41,2.7H3.41c-.27-.85-.41-1.76-.41-2.7s.15-1.85.41-2.7h17.17c.27.85.41,1.76.41,2.7Z"/>
        <path class="cls-5" d="M20.59,9.3H3.41c.1-.31.21-.61.34-.9h16.49c.13.29.24.59.34.9Z"/>
        <path class="cls-1" d="M20.25,8.4H3.75c1.39-3.18,4.56-5.4,8.25-5.4s6.86,2.22,8.25,5.4Z"/>
      </g>
      <g>
        <g>
          <g>
            <path class="cls-5" d="M15.24,17.35l-5.27-9.15c.1-.12.12-.28.04-.42-.1-.18-1.5-2.27-1.68-2.17s.93,2.36,1.03,2.54c.08.14.24.21.39.18l5.27,9.15.22-.13Z"/>
            <path class="cls-1" d="M14.24,15.6l-.2-.35-.32-.55-1.33-2.31-.23-.41h0s0-.01,0-.01l-.14-.24h0s0-.01,0-.01l-.2-.35-1.19-2.07-.51-.88v-.02s-.12-.2-.12-.2c.1-.12.12-.29.04-.43-.05-.09-.44-.67-.81-1.19-.5-.7-.8-1.03-.87-.98-.08.05.06.47.41,1.25.26.59.57,1.21.62,1.3.08.14.23.21.39.18l.04.06.18.32.33.58,1.32,2.28.23.4h0s0,.01,0,.01l.14.24h0s0,.01,0,.01l.21.36,1.2,2.09.49.85.03.05,1.08,1.88h0s.23-.13.23-.13l-1.01-1.75ZM12,12.23h0s-.14-.25-.14-.25h0s0-.01,0-.01l-.23-.39-1.31-2.27-.34-.59-.18-.31-.04-.07h0s0,0,0,0c-.15.03-.31-.04-.38-.18-.05-.09-.36-.71-.62-1.3-.45-1.02-.45-1.21-.41-1.24.04-.02.21.07.86.98.37.52.76,1.1.81,1.19.08.13.06.3-.04.42h0s.11.2.11.2l.02.03.5.87,1.2,2.08.2.35h0s0,.01,0,.01l.14.24h0s0,.01,0,.01l.24.41h0s1.32,2.3,1.32,2.3l.32.56.2.34,1.01,1.75-.21.12-1.08-1.87-.04-.06-.48-.84-1.21-2.1-.21-.37h0Z"/>
          </g>
          <g>
            <path class="cls-5" d="M15.67,5.61c-.18-.1-1.58,1.99-1.68,2.17-.08.14-.06.31.04.42l-5.27,9.15.22.13,5.27-9.15c.15.03.31-.04.39-.18.1-.18,1.21-2.44,1.03-2.54Z"/>
            <path class="cls-1" d="M13.92,8.4l-.02.02-.5.87-1.19,2.07-.2.35h0s0,.01,0,.01h0s0,0,0,0h0s.2-.36.2-.36l1.2-2.08.5-.87.02-.03h0ZM15.67,5.6c-.08-.04-.37.29-.88.98-.37.52-.76,1.1-.81,1.19-.08.14-.06.31.03.43l-.11.2v.02s-.52.88-.52.88l-1.19,2.07-.2.35h0s0,.01,0,.01l-.14.24h0s0,.01,0,.01l-.24.41h0s-1.33,2.31-1.33,2.31l-.32.55-.2.35-1.01,1.75h0s.23.14.23.14l1.08-1.88.03-.05.49-.85,1.2-2.09.21-.36h0s0-.01,0-.01l.14-.24h0s0-.01,0-.01l.23-.4,1.32-2.28.33-.58.18-.32.04-.06c.16.02.31-.05.39-.18.05-.09.36-.72.62-1.3.29-.64.43-1.04.43-1.19,0-.03,0-.05-.02-.06ZM14.25,8.32h0l-.04.08-.18.31-.34.59-1.31,2.27h0s-.23.4-.23.4h0s0,.01,0,.01l-.14.24h0s0,.01,0,.01l-.21.37-1.21,2.1-.48.84-.03.06-1.08,1.87-.21-.12,1.01-1.75.2-.34.32-.56,1.33-2.3.23-.41h0s0-.01,0-.01l.14-.24h0s0-.01,0-.01l.2-.35,1.2-2.08.5-.87.02-.03.11-.19h0s0,0,0,0c-.1-.12-.12-.29-.04-.42.05-.09.44-.67.81-1.19.65-.91.82-1,.86-.98.04.02.04.22-.41,1.24-.26.59-.57,1.21-.62,1.3-.08.13-.23.21-.38.18ZM13.92,8.4l-.02.02-.5.87-1.19,2.07-.2.35h0s0,.01,0,.01h0s0,0,0,0h0s.2-.36.2-.36l1.2-2.08.5-.87.02-.03h0Z"/>
          </g>
        </g>
        <path class="cls-2" d="M14.14,9.01c-.49-1.35-1.27-2.44-2.14-2.44s-1.65,1.09-2.14,2.44c.35.96.56,2.05.56,2.98s-.21,2.02-.56,2.99c.49,1.35,1.27,2.43,2.14,2.43s1.64-1.08,2.14-2.43c-.35-.96-.56-2.06-.56-2.99s.21-2.02.56-2.98Z"/>
        <path class="cls-1" d="M14.14,9.01c-.35.96-.56,2.05-.56,2.98s.21,2.02.56,2.99c.35-.96.57-2.06.57-2.99s-.21-2.02-.57-2.98Z"/>
        <path class="cls-1" d="M9.86,9.01c-.35.96-.56,2.05-.56,2.98s.21,2.02.56,2.99c.35-.96.56-2.06.56-2.99s-.21-2.02-.56-2.98Z"/>
        <path class="cls-5" d="M12.47,11.99c0,.38-.21.69-.47.69s-.47-.31-.47-.69.21-.68.47-.68.47.31.47.68Z"/>
        <path class="cls-5" d="M11.42,8.92c0,.98.18,1.84.46,2.33v-4.66c-.28.5-.46,1.36-.46,2.33Z"/>
        <path class="cls-5" d="M12.58,8.92c0,.98-.18,1.84-.46,2.33v-4.66c.28.5.46,1.36.46,2.33Z"/>
        <path class="cls-5" d="M12.58,15.07c0-.98-.18-1.84-.46-2.33v4.66c.28-.49.46-1.35.46-2.33Z"/>
        <path class="cls-5" d="M11.42,15.07c0-.98.18-1.84.46-2.33v4.66c-.28-.49-.46-1.35-.46-2.33Z"/>
      </g>
    </g>
  </g>
</svg>