<?xml version="1.0" encoding="UTF-8"?>
<svg id="Layer_1" data-name="Layer 1" xmlns="http://www.w3.org/2000/svg" viewBox="0 0 24 24">
  <defs>
    <style>
      .cls-1 {
        fill: #000;
      }

      .cls-1, .cls-2, .cls-3, .cls-4, .cls-5, .cls-6, .cls-7 {
        stroke-width: 0px;
      }

      .cls-2 {
        fill: #043f85;
      }

      .cls-3 {
        fill: #fbd023;
      }

      .cls-4 {
        fill: none;
      }

      .cls-5 {
        fill: #ba9c14;
      }

      .cls-6 {
        fill: #cd1225;
      }

      .cls-7 {
        fill: #fff;
      }
    </style>
  </defs>
  <rect class="cls-4" width="24" height="24"/>
  <g>
    <path class="cls-1" d="M16.71,7.34c2.92,2.92,3.18,7.42.57,10.03-2.61,2.61-7.11,2.35-10.03-.57-2.92-2.92-3.18-7.42-.57-10.03,2.61-2.61,7.11-2.35,10.03.57Z"/>
    <g>
      <g>
        <path class="cls-6" d="M21,12c0,.13,0,.26,0,.39-.45.18-.9.36-1.79.36-1.47,0-1.74-.48-2.78-.66-.07-.01-.15-.02-.23-.03h0c-.18-.02-.37-.03-.59-.03-.3,0-.55.02-.76.05-.06.01-.11.02-.16.03s-.1.02-.15.03c-.03,0-.06.02-.09.02-.78.21-1.14.58-2.43.58s-1.66-.37-2.43-.58c-.03,0-.06-.02-.09-.02-.05-.01-.1-.02-.15-.03h0c-.05-.01-.11-.02-.16-.03-.22-.03-.46-.05-.76-.05-.34,0-.61.02-.84.06-.04,0-.09.02-.13.03-.92.19-1.23.63-2.63.63-.89,0-1.34-.18-1.79-.36,0-.13-.01-.26-.01-.39,0-1.64.44-3.18,1.21-4.5.8-1.39,1.97-2.54,3.37-3.33.03-.02.05-.03.08-.05,1.29-.71,2.77-1.12,4.35-1.12,1.49,0,2.9.36,4.14,1.01.05.03.1.05.15.08,1.46.79,2.67,1.98,3.51,3.41.77,1.32,1.21,2.86,1.21,4.5Z"/>
        <g>
          <path class="cls-3" d="M10.67,9.66v.05s-.77-.59-.77-.59c-.23-.53-.22-.89-.2-1.06.29.38.61.55.84.64l.12.96Z"/>
          <path class="cls-3" d="M10.91,9.72s-.04.02-.05.03l-.04.02s-.02.01-.03.02v-.03s-.23-1.73-.23-1.73l.38.6.58.9s-.03,0-.04,0c-.01,0-.03,0-.04,0-.02,0-.04.01-.06.01-.01,0-.02,0-.04.01-.02,0-.04.01-.06.02-.01,0-.02,0-.03.01-.03.01-.06.02-.09.03,0,0,0,0-.01,0h-.01s-.06.03-.09.04h-.03s-.04.03-.06.04l-.04.02Z"/>
          <path class="cls-3" d="M11.76,8.41l-.22.99-.06-.1-.46-.72c-.03-.58.1-.92.17-1.06.14.46.39.73.57.89Z"/>
          <path class="cls-3" d="M11.75,9.48s-.04,0-.06,0c-.01,0-.03,0-.04,0-.01,0-.03,0-.04,0v-.05s.25-1.04.25-1.04h0s.14-.64.14-.64l.17.77.22.97s-.02,0-.04,0c-.01,0-.03,0-.04,0h-.06s-.02,0-.04-.01c-.02,0-.05,0-.07,0-.01,0-.02,0-.03,0-.03,0-.07,0-.1,0h-.03s-.06,0-.1,0h-.1s-.03,0-.04,0Z"/>
          <path class="cls-3" d="M12.77,7.51c-.02.48.12.81.23,1.03l-.55.86-.11-.49-.1-.45c.17-.55.41-.83.53-.94Z"/>
          <path class="cls-3" d="M12.63,9.55s-.04,0-.06-.01c-.01,0-.03,0-.04,0-.01,0-.03,0-.04,0l.61-.95h0l.35-.55-.09.7h0s-.13,1-.13,1v.06s-.03-.01-.04-.02c-.01,0-.02-.01-.04-.02-.02,0-.03-.02-.05-.03-.01,0-.02-.01-.03-.02-.02-.01-.04-.02-.06-.03-.01,0-.02,0-.03-.01-.03-.01-.06-.02-.09-.04,0,0-.02,0-.02,0-.03-.01-.06-.02-.1-.03-.01,0-.02,0-.03-.01-.02,0-.04-.01-.06-.02-.01,0-.02,0-.04-.01Z"/>
          <path class="cls-3" d="M14.13,9.1l-.81.62.13-.97c.35-.46.66-.64.82-.7-.19.44-.17.81-.13,1.05Z"/>
          <path class="cls-3" d="M13.43,9.91s-.03-.02-.05-.03c-.01,0-.02-.01-.03-.02-.01,0-.02-.02-.03-.02l.03-.02.86-.66h0l.52-.4-.8,1.54-.02.04s-.02-.02-.03-.03c0-.01-.02-.02-.03-.03-.01-.01-.03-.03-.04-.04,0,0-.02-.02-.03-.03-.02-.01-.03-.03-.05-.05,0,0-.02-.01-.02-.02-.02-.02-.05-.04-.07-.06,0,0-.01-.01-.02-.02-.03-.02-.05-.04-.08-.06,0,0-.02-.01-.02-.02-.02-.01-.04-.03-.06-.04-.01,0-.02-.01-.03-.02Z"/>
          <path class="cls-3" d="M15.47,9.06c-.33.35-.43.7-.48.94l-.97.31.45-.86c.48-.32.84-.37,1-.38Z"/>
          <path class="cls-3" d="M14.02,10.48s-.02-.02-.03-.03c0-.01-.02-.02-.02-.03h.02s1.06-.34,1.06-.34h0l.62-.2-.52.48h0s-.78.72-.78.72c0-.01,0-.02-.01-.03,0-.01-.01-.03-.02-.04,0-.02-.01-.04-.02-.05,0-.01-.01-.02-.02-.04,0-.02-.02-.04-.03-.06,0,0-.01-.02-.01-.03-.02-.03-.03-.06-.05-.09,0,0,0-.01,0-.02h0s-.03-.06-.05-.09c0,0-.01-.02-.02-.03-.01-.02-.02-.04-.03-.05,0-.01-.02-.02-.02-.03-.01-.02-.02-.03-.03-.05Z"/>
          <path class="cls-3" d="M15.2,10.44c.56-.13.92-.06,1.08-.01-.43.22-.65.51-.78.72l-1.01-.04.72-.66Z"/>
          <path class="cls-3" d="M14.52,11.81s0-.03,0-.04v-.07s-.01-.02-.01-.03c0-.03-.01-.07-.01-.1v-.03s-.02-.06-.02-.1c0-.01,0-.02,0-.03,0-.02-.01-.04-.02-.06,0-.01,0-.02-.01-.04,0-.02-.01-.04-.02-.06,0-.01,0-.02-.01-.04,0-.01,0-.03-.01-.04h0l1.77.08-.65.27s0,0,0,0l-.98.41s0-.03,0-.04c0-.01,0-.03,0-.04,0-.02,0-.04,0-.06Z"/>
          <path class="cls-3" d="M15.54,11.63c.57.07.89.25,1.02.35-.48.06-.78.26-.98.41l-.94-.39.9-.37Z"/>
          <path class="cls-3" d="M14.44,12.68s0-.02.01-.04c0-.02.01-.04.02-.06,0-.01,0-.02,0-.03,0-.03.01-.06.02-.1v-.02s.02-.06.02-.1c0-.01,0-.02,0-.03,0-.02,0-.04,0-.06,0-.01,0-.03,0-.04,0-.02,0-.04,0-.06,0-.01,0-.03,0-.04,0-.01,0-.03,0-.04l.07.03,1.57.65-1.76.08h-.01s0-.02.01-.03c0-.01.01-.03.01-.04,0-.02.01-.04.02-.06Z"/>
          <path class="cls-3" d="M15.45,12.86c.52.26.75.54.84.68-.47-.11-.82-.03-1.06.05l-.75-.69.97-.04Z"/>
          <path class="cls-3" d="M14.99,13.91l-1.02-.32s.02-.02.02-.03c0-.01.02-.02.03-.03.01-.01.02-.03.03-.05,0-.01.02-.02.02-.03l.04-.05s.01-.02.02-.03c.02-.03.03-.06.05-.08v-.02s.05-.06.06-.09c0-.01.01-.02.02-.03.01-.02.02-.04.03-.06,0-.01.01-.03.02-.04,0-.02.01-.03.02-.05,0-.01,0-.03.02-.04,0-.01.01-.02.01-.04l.83.76h0l.48.44-.68-.21h0Z"/>
          <path class="cls-3" d="M14.95,13.99c.4.42.52.76.55.92-.41-.26-.77-.31-1.01-.31l-.47-.9.93.29Z"/>
          <path class="cls-3" d="M13.43,14.09s.02-.01.03-.02c.02-.01.04-.03.05-.04,0,0,.02-.01.03-.02.02-.02.05-.04.07-.06,0,0,.01-.01.02-.02.03-.02.05-.04.07-.06,0,0,.02-.01.02-.02.02-.02.03-.03.05-.05.01,0,.02-.02.03-.03.01-.01.03-.03.04-.04.01-.01.02-.02.03-.03,0-.01.02-.02.03-.03l.82,1.58-1.38-1.06-.03-.02s.02-.01.03-.02c.01,0,.02-.01.03-.02.02-.01.03-.02.05-.03Z"/>
          <path class="cls-3" d="M14.09,14.88c.23.53.22.89.2,1.06-.29-.38-.61-.55-.84-.64l-.12-.96v-.05s.77.59.77.59Z"/>
          <path class="cls-3" d="M12.63,14.45s.03,0,.04-.01c.02,0,.04-.01.06-.02.01,0,.02,0,.03,0,.03-.01.06-.02.09-.03h.02s.06-.03.09-.04c.01,0,.02,0,.03-.01.02,0,.04-.02.06-.03.01,0,.02-.01.04-.02.02,0,.03-.02.05-.02.01,0,.02-.01.04-.02.01,0,.02-.01.03-.02v.11s.23,1.66.23,1.66l-.38-.6h0s-.57-.9-.57-.9c.01,0,.02,0,.04,0,.01,0,.03,0,.04-.01.02,0,.04,0,.06-.01Z"/>
          <path class="cls-3" d="M12.98,15.42c.03.58-.1.92-.17,1.06-.14-.46-.39-.73-.58-.89l.22-.99.53.82Z"/>
          <path class="cls-3" d="M11.75,14.52s.03,0,.04,0c.02,0,.04,0,.06,0,.01,0,.02,0,.03,0,.03,0,.06,0,.1,0h.02s.07,0,.1,0c.01,0,.02,0,.03,0,.02,0,.04,0,.06,0,.01,0,.03,0,.04,0,.02,0,.04,0,.06,0,.01,0,.03,0,.04,0h.04s0,.03,0,.03l-.38,1.7-.15-.69h0l-.23-1.01v-.03s.02,0,.03,0c.01,0,.03,0,.04,0,.02,0,.04,0,.06,0Z"/>
          <path class="cls-3" d="M11.54,14.6l.21.95c-.17.55-.41.83-.53.94.02-.48-.12-.82-.24-1.03l.37-.57.18-.28Z"/>
          <path class="cls-3" d="M10.64,15.27l.14-1.06s.02.01.03.02c.01,0,.02.01.04.02.02.01.04.02.05.03.01,0,.02.01.03.02.02,0,.04.02.06.03.01,0,.02,0,.03.01.03.01.06.02.09.03,0,0,.02,0,.03.01.03.01.06.02.09.03.01,0,.02,0,.03,0,.02,0,.04.01.07.02.01,0,.02,0,.04.01.02,0,.04.01.06.01.01,0,.03,0,.04.01.01,0,.03,0,.04,0l-.96,1.5.09-.71h0Z"/>
          <path class="cls-3" d="M10.68,14.28v.04s-.13.92-.13.92c-.35.46-.66.64-.81.71.19-.45.17-.81.13-1.05l.81-.62Z"/>
          <path class="cls-3" d="M10.19,13.77s.02.02.03.03c.02.02.03.03.05.05,0,0,.01.01.02.02l.07.07s.01.01.02.02c.03.02.05.04.08.06,0,0,.02.01.03.02.02.01.03.03.05.04.01,0,.02.01.03.02.02.01.03.02.05.03.01,0,.02.01.03.02.01,0,.02.01.03.02l-.03.02-.86.66s0,0,0,0l-.52.4.33-.63h0l.38-.72.12-.22s.02.02.02.03c.01.01.02.02.03.03.01.01.03.03.04.04Z"/>
          <path class="cls-3" d="M9.98,13.7h0s-.44.86-.44.86c-.48.32-.84.38-1.01.38.33-.36.43-.7.48-.94l.97-.3Z"/>
          <path class="cls-3" d="M8.86,13.64l.78-.72s0,.02.01.04c0,.01.01.02.02.04,0,.02.01.03.02.05,0,.01.01.02.02.04.01.02.02.04.03.06,0,.01,0,.02.01.03.01.03.03.06.05.09,0,0,0,.01.01.01h0s.03.06.05.09c0,.01.01.02.02.03l.04.05s.02.02.02.03c.01.02.02.03.04.05,0,.01.02.02.02.03,0,.01.02.02.02.03h-.01s-1.06.34-1.06.34h0l-.62.19.52-.48h0Z"/>
          <path class="cls-3" d="M9.52,12.9l-.72.66c-.56.13-.92.06-1.08.02.43-.22.65-.51.78-.72l1.01.05Z"/>
          <path class="cls-3" d="M9.6,12.82l-1.77-.08.66-.27h0l.99-.41v.04s0,.03,0,.04c0,.02,0,.04,0,.06,0,.01,0,.03,0,.04v.07s0,.02.01.03c0,.03,0,.07.01.1v.03s.02.06.02.1c0,.01,0,.02,0,.03,0,.02.01.04.02.07,0,.01,0,.02.01.03,0,.02.01.04.02.06,0,.01,0,.03.01.04s0,.02.01.04h0Z"/>
          <path class="cls-3" d="M9.36,12l-.9.38c-.57-.07-.88-.26-1.02-.36.48-.06.78-.26.98-.41l.94.39Z"/>
          <path class="cls-3" d="M9.59,11.19h.01s0,.02-.01.03,0,.03-.01.04c0,.02-.01.04-.02.06,0,.01,0,.02-.01.04,0,.02-.01.04-.02.06,0,.01,0,.02,0,.03,0,.03-.01.06-.02.1v.02s-.01.06-.02.1c0,.01,0,.02,0,.03v.07s0,.02-.01.04c0,.02,0,.04,0,.06,0,.01,0,.03,0,.04v.04l-.15-.06-1.49-.62,1.76-.08Z"/>
          <path class="cls-3" d="M9.52,11.1l-.97.04c-.52-.26-.75-.54-.83-.68.47.11.82.03,1.06-.05l.75.69Z"/>
          <path class="cls-3" d="M9.64,11.09l-.83-.76h0l-.48-.44,1.7.53s-.02.02-.02.03c0,.01-.02.02-.02.03-.01.02-.02.03-.04.05,0,.01-.01.02-.02.03-.01.02-.02.03-.04.05,0,.01-.01.02-.02.03-.02.03-.03.05-.05.08,0,0,0,.01-.01.02h0s-.03.06-.05.09c0,.01-.01.02-.02.03-.01.02-.02.04-.03.06,0,.01-.01.03-.02.04,0,.02-.01.03-.02.05,0,.01,0,.03-.02.04,0,.01-.01.02-.01.04Z"/>
          <path class="cls-3" d="M9.51,9.4l.47.9-.93-.29c-.39-.42-.52-.77-.55-.93.41.26.77.31,1.01.31Z"/>
          <path class="cls-3" d="M10.19,10.23l-.04.04s-.02.02-.03.03c0,0-.02.02-.02.03l-.82-1.58,1.4,1.07h.01s-.02.02-.03.03c-.01,0-.02.01-.03.02-.02.01-.03.02-.05.03-.01,0-.02.01-.03.02-.02.01-.03.02-.05.04,0,0-.02.01-.03.02-.03.02-.05.04-.08.06,0,0-.01.01-.02.02-.02.02-.05.04-.07.06,0,0-.02.02-.02.02-.02.02-.03.03-.05.05,0,.01-.02.02-.03.03Z"/>
          <path class="cls-3" d="M14.3,11.18c.04.12.08.25.1.38v.03s.01.07.02.1c.01.09.02.18.02.26,0,.01,0,.02,0,.03v.03c0,.13-.01.27-.04.4v.02c-.03.13-.06.26-.11.38h0s0,.02,0,.03c0,0,0,0,0,0-.04.12-.1.24-.17.36v.02c-.08.11-.15.22-.24.33,0,0-.01.01-.02.02-.09.1-.18.2-.28.28,0,0-.01.01-.02.01-.1.08-.21.16-.32.23l-.03.02c-.11.06-.24.12-.36.17,0,0-.01,0-.02,0h0s-.06.02-.09.03c-.09.03-.19.05-.29.07,0,0-.02,0-.03,0h0c-.13.02-.26.03-.4.04h-.02s-.07,0-.11,0c-.1,0-.2-.01-.29-.03h-.03c-.13-.03-.26-.06-.39-.11,0,0-.01,0-.02,0-.13-.05-.25-.1-.36-.17,0,0-.02-.01-.03-.01-.11-.06-.22-.14-.33-.23,0,0-.01-.01-.02-.01-.1-.09-.2-.18-.28-.28,0,0-.01-.01-.02-.02-.08-.1-.16-.21-.23-.33h0s0-.02,0-.02c-.07-.12-.12-.24-.17-.36,0,0,0-.01,0-.02h0c-.04-.13-.08-.26-.1-.39v-.03c-.03-.13-.04-.26-.04-.39v-.03c0-.13.01-.27.03-.4v-.02c.03-.13.06-.26.11-.38h0s0-.02,0-.03h0c.05-.13.1-.25.17-.36h0s0-.02,0-.02c.07-.11.14-.22.23-.33,0,0,.01-.02.02-.02.09-.1.18-.2.28-.28,0,0,.01-.01.02-.02.03-.02.06-.05.09-.07.07-.06.15-.11.24-.16,0,0,.02-.01.03-.01.11-.07.24-.12.36-.17,0,0,.01,0,.01,0h.01c.09-.04.19-.06.28-.09.03,0,.06-.01.1-.02h.03c.13-.03.27-.04.4-.04h.03c.13,0,.27.01.4.03,0,0,.02,0,.03,0,.13.02.26.06.39.11,0,0,.01,0,.02,0,.12.05.24.1.36.17h.03c.11.08.22.16.33.24,0,0,.01.01.02.02.1.09.2.18.28.28,0,0,.01.01.02.02.08.1.16.21.23.33h0s0,.02,0,.02c.05.09.09.18.13.27.01.03.02.06.03.09h0s0,.01,0,.02h0Z"/>
          <path class="cls-5" d="M16.7,11.98s-.28-.31-1-.42l.69-.29s.03-.03.03-.05c0-.02-.02-.04-.04-.04l-.78-.04c.15-.22.37-.49.81-.69.02,0,.03-.02.03-.04,0-.02,0-.03-.02-.04-.01-.01-.37-.19-1.08-.06l.55-.51s.02-.04,0-.06c-.01-.02-.03-.03-.05-.02l-.74.23c.06-.26.18-.58.52-.92.01-.01.02-.03.01-.05,0-.02-.02-.03-.04-.03-.02,0-.41-.05-1.03.32l.34-.66s0-.04-.01-.06c-.01-.01-.04-.01-.06,0l-.62.47c-.03-.26-.03-.61.17-1.05,0-.02,0-.03,0-.05-.01-.01-.03-.02-.04-.02-.02,0-.41.09-.87.65l.1-.74s0-.04-.03-.05c-.02,0-.04,0-.05.02l-.42.65c-.12-.24-.24-.56-.19-1.04,0-.02,0-.03-.02-.04-.01-.01-.03-.01-.05,0-.02.01-.35.22-.59.91l-.16-.73s-.02-.03-.04-.03c-.02,0-.04.01-.04.03l-.17.76c-.19-.18-.42-.45-.54-.91,0-.02-.02-.03-.03-.03-.02,0-.03,0-.04.02-.01.01-.25.33-.25,1.05l-.4-.63s-.03-.03-.05-.02c-.02,0-.03.03-.03.05l.1.77c-.24-.11-.54-.28-.82-.67-.01-.01-.03-.02-.04-.02-.02,0-.03.02-.04.03,0,.02-.12.39.13,1.07l-.6-.45s-.04-.01-.05,0c-.02.01-.02.04-.01.06l.36.69c-.26-.01-.61-.07-1-.35-.01-.01-.03-.01-.05,0-.01,0-.02.02-.02.04,0,.02.02.42.49.97l-.71-.22s-.04,0-.05.02c-.01.02,0,.04,0,.06l.57.53c-.25.08-.6.14-1.06.01-.02,0-.03,0-.04.01-.01.01-.02.03,0,.05,0,.02.16.38.79.74l-.75.04s-.04.01-.04.04c0,.02,0,.04.03.05l.72.3c-.21.16-.52.33-.99.37-.02,0-.03.01-.04.03,0,.01,0,.03,0,.05,0,0,.04.04.13.1.14.1.42.24.87.32l-.69.29s-.03.03-.03.05c0,.02.02.03.04.04l.78.04c-.1.15-.23.32-.45.48-.1.07-.22.14-.36.21-.01,0-.03.02-.03.04,0,.02,0,.03.02.04.01,0,.21.11.59.11.14,0,.3-.01.49-.05l-.55.51s-.02.04,0,.05c0,.01.02.02.04.02,0,0,0,0,.01,0l.74-.23c-.04.17-.1.37-.24.58-.07.11-.16.23-.28.35-.01.01-.02.03-.01.04s.02.03.04.03c0,0,.03,0,.07,0,.14,0,.49-.04.97-.32l-.34.67s0,.04.01.05c0,0,.02.01.03.01,0,0,.02,0,.03,0l.62-.47c.03.26.03.61-.17,1.05,0,0,0,.02,0,.03,0,0,0,.01,0,.02,0,.01.02.02.04.02,0,0,0,0,0,0s.01,0,.03,0c.11-.03.44-.17.83-.64l-.09.74s0,.04.03.05c0,0,.01,0,.02,0,.01,0,.03,0,.04-.02l.42-.65c.12.23.23.54.2,1,0,.02,0,.03,0,.05,0,.02,0,.03.02.04,0,0,.02,0,.02,0s.02,0,.02,0c0,0,.03-.02.08-.06.12-.11.34-.35.51-.84l.16.73s.02.03.04.03c.02,0,.04-.01.04-.03l.17-.76c.19.18.4.43.53.87,0,.02.01.03.01.04,0,.02.02.03.03.03h0s.03,0,.04-.02c0,0,.02-.03.05-.09.07-.14.2-.45.19-.97l.4.63s.02.02.04.02c0,0,.01,0,.02,0,.02,0,.03-.03.03-.05l-.1-.77c.24.1.54.28.82.67h0s.02.02.04.02h0s.03-.01.03-.03c0,0,0,0,0-.01.02-.07.1-.44-.13-1.06l.59.46s.02,0,.03,0,.02,0,.03-.01c.02-.01.02-.04.01-.05l-.35-.67v-.02s.04,0,.07,0c.25.02.56.09.92.35,0,0,.02,0,.03,0,0,0,.01,0,.02,0,.02,0,.02-.02.02-.04,0-.01,0-.16-.12-.4-.07-.16-.19-.35-.37-.56l.71.22s0,0,.01,0c.02,0,.03,0,.04-.02,0-.02,0-.04,0-.05l-.57-.53c.25-.08.6-.14,1.06-.01.01,0,.03,0,.04-.01.01-.01.01-.03,0-.05,0,0-.04-.1-.16-.23h0c-.12-.14-.31-.32-.64-.51l.75-.03s.04-.02.04-.04c0-.02,0-.04-.03-.05l-.72-.3c.17-.13.41-.27.75-.34.07-.01.16-.03.24-.03.02,0,.03-.01.04-.03,0-.02,0-.03,0-.05ZM16.17,11.26l-.65.27-.99.41s0-.03,0-.04c0-.01,0-.03,0-.04,0-.02,0-.04,0-.06,0-.01,0-.02,0-.04v-.07s0-.02-.01-.03c0-.03-.01-.06-.01-.1v-.03s-.02-.06-.02-.1c0-.01,0-.02,0-.03,0-.02-.01-.04-.02-.06,0-.01,0-.02-.01-.04l-.02-.06s0-.02-.01-.04c0-.01,0-.03-.01-.04h0l1.77.08ZM13.86,13.58s-.07.08-.11.12c-.01.01-.02.03-.04.04-.01.01-.03.03-.04.04-.01.01-.02.02-.03.03-.02.02-.04.04-.07.06,0,0-.01.01-.02.01-.1.08-.21.16-.32.23l-.03.02c-.12.06-.24.12-.36.17,0,0-.01,0-.01,0h-.01s-.06.02-.09.03c-.09.03-.19.05-.29.07,0,0-.02,0-.03,0h0c-.13.02-.27.03-.4.03h-.02s-.07,0-.11,0c-.1,0-.2-.01-.29-.03h-.03c-.13-.03-.26-.06-.39-.11,0,0-.01,0-.02,0-.13-.05-.24-.1-.36-.17,0,0-.02-.01-.03-.02-.11-.06-.22-.14-.33-.23,0,0-.01-.01-.02-.02-.02-.02-.05-.04-.07-.07-.02-.02-.03-.03-.05-.05-.02-.02-.04-.03-.05-.05-.04-.04-.07-.08-.11-.12,0,0-.01-.01-.02-.02-.09-.1-.16-.21-.23-.33h0s0-.02,0-.02c-.07-.12-.12-.24-.17-.36,0,0,0-.01,0-.02h0c-.04-.14-.08-.26-.1-.39v-.03s-.01-.05-.02-.08c0-.01,0-.03,0-.04,0-.04-.01-.08-.01-.12,0-.05,0-.1,0-.15v-.03c0-.13.01-.27.04-.4v-.02c.03-.13.06-.26.11-.38h0s0-.02,0-.03h0c.05-.13.1-.25.17-.36h0s0-.02,0-.02c.07-.11.14-.22.23-.33l.02-.02c.09-.1.18-.2.28-.28,0,0,.01-.01.02-.02.03-.02.06-.05.09-.07.07-.06.15-.11.24-.16,0,0,.02-.01.03-.01.11-.06.24-.12.36-.17,0,0,0,0,.01,0h.01c.09-.04.19-.06.28-.09.03,0,.06-.01.1-.02h.03c.13-.03.27-.04.4-.04h.02c.13,0,.27.01.4.03,0,0,.02,0,.03,0,.13.02.26.06.39.11,0,0,.01,0,.02,0,.13.04.25.1.36.17h.03c.11.08.22.16.33.24,0,0,.01.01.02.02.1.09.2.18.28.28,0,0,.01.02.02.02.08.1.16.21.23.33h0s0,.02,0,.02c.05.09.09.18.13.27.01.03.02.06.03.09h0s0,.01,0,.02h0c.04.14.08.26.1.39v.03s.02.07.02.1c.01.09.02.18.02.26,0,.01,0,.02,0,.03v.03c0,.05,0,.1,0,.15h0s0,.07-.01.11c0,0,0,.01,0,.02,0,.04-.01.08-.02.12v.02c-.03.13-.06.26-.11.38h0s0,.02,0,.03c0,0,0,0,0,0-.04.12-.1.24-.17.36v.02c-.08.11-.15.22-.24.33,0,0-.01.01-.02.02ZM16.27,10.42c-.43.22-.65.51-.78.72l-1.01-.04.72-.66c.56-.13.92-.06,1.08-.01ZM15.67,9.88l-.52.48h0l-.78.72s0-.02-.01-.03c0-.01-.01-.03-.02-.04,0-.02-.01-.04-.02-.05,0-.01-.01-.02-.02-.04,0-.02-.02-.04-.03-.06,0-.01-.01-.02-.01-.03-.02-.03-.03-.06-.05-.09,0,0,0-.01,0-.02h0s-.03-.06-.05-.09c0,0-.01-.02-.02-.03-.01-.02-.02-.03-.03-.05,0-.01-.02-.02-.02-.03-.01-.02-.02-.03-.03-.05,0-.01-.02-.02-.03-.03,0-.01-.02-.02-.02-.03h.02s1.06-.34,1.06-.34l.62-.2ZM15.47,9.06c-.33.36-.43.7-.48.94l-.97.31.45-.86c.48-.32.84-.37,1-.38ZM14.2,9.15h0l.52-.4-.8,1.54-.02.04s-.02-.02-.03-.03c-.01-.01-.02-.02-.03-.03-.01-.01-.03-.03-.04-.04-.01,0-.02-.02-.03-.03-.02-.02-.03-.03-.05-.04l-.02-.02s-.05-.04-.07-.07c0,0-.01-.01-.02-.02-.02-.02-.05-.04-.08-.06,0,0-.02-.01-.03-.02-.02-.01-.04-.03-.05-.04-.01,0-.02-.01-.03-.02l-.05-.04-.03-.02s-.02-.02-.03-.02l.03-.02.86-.66ZM14.26,8.05c-.19.44-.17.81-.13,1.05l-.81.62.13-.97c.35-.46.66-.64.82-.7ZM13.1,8.57h0l.35-.55-.09.7h0s-.13,1-.13,1v.06s-.03-.01-.04-.02l-.04-.02s-.03-.02-.05-.03c-.01,0-.02-.01-.03-.02-.02,0-.04-.02-.06-.03h-.03s-.06-.04-.09-.05c-.01,0-.02,0-.03,0-.03-.01-.06-.02-.09-.03-.01,0-.02,0-.03-.01-.02,0-.04-.01-.06-.02-.01,0-.02,0-.04-.01-.02,0-.04-.01-.06-.01-.01,0-.03,0-.04,0s-.03,0-.04,0l.61-.95ZM12.77,7.51c-.02.48.12.81.23,1.03l-.55.86-.11-.49-.1-.45c.17-.55.41-.83.53-.94ZM11.86,8.4h0s.14-.64.14-.64l.17.77.22.97s-.02,0-.04,0c-.01,0-.03,0-.04,0h-.06s-.02,0-.04-.01c-.02,0-.05,0-.07,0-.01,0-.02,0-.03,0-.03,0-.07,0-.1,0h-.02s-.07,0-.1,0c-.01,0-.02,0-.03,0h-.07s-.03,0-.04,0c-.02,0-.04,0-.06,0h-.04s-.02,0-.04.01v-.05s.25-1.04.25-1.04ZM11.19,7.52c.14.46.39.73.57.89l-.22.99-.06-.1-.46-.72c-.03-.58.1-.92.17-1.06ZM10.94,8.62l.58.9s-.03,0-.04,0c-.01,0-.03,0-.04,0-.02,0-.04.01-.06.01-.01,0-.02,0-.04.01-.02,0-.04.01-.06.02-.01,0-.02,0-.03.01-.03.01-.06.02-.09.03,0,0,0,0-.01,0h-.01s-.06.03-.09.04h-.03s-.04.03-.06.04l-.04.02s-.04.02-.05.03l-.04.02s-.02.01-.03.02v-.03s-.23-1.73-.23-1.73l.38.6ZM9.71,8.07c.29.38.61.55.84.64l.12.96v.05s-.77-.59-.77-.59c-.22-.53-.22-.89-.2-1.06ZM9.28,8.76l1.4,1.07h.01s-.02.02-.03.03c-.01,0-.02.02-.03.02-.02.01-.03.02-.05.03-.01,0-.02.01-.03.02-.02.01-.03.02-.05.04,0,0-.02.01-.03.02-.02.02-.05.04-.08.06,0,0-.01.01-.02.02-.03.02-.05.04-.07.06,0,0-.02.02-.02.02-.02.02-.03.03-.05.05-.01.01-.02.02-.03.03l-.04.04s-.02.02-.03.03c0,.01-.02.02-.03.03l-.82-1.58ZM8.5,9.09c.41.26.77.31,1.01.31l.47.9-.93-.29c-.39-.42-.52-.77-.55-.93ZM8.33,9.88l1.7.53s-.02.02-.02.03c0,.01-.02.02-.02.03-.01.02-.02.03-.04.05,0,.01-.01.02-.02.03l-.04.05s-.01.02-.02.03c-.02.03-.03.05-.05.08,0,0,0,.01-.01.02h0s-.03.06-.05.09c0,.01-.01.02-.02.03-.01.02-.02.04-.03.06,0,.01-.01.03-.02.04,0,.02-.01.03-.02.05,0,.01,0,.03-.02.04,0,.01-.01.02-.01.03l-.83-.76h0l-.48-.44ZM7.72,10.46c.47.11.82.02,1.06-.05l.75.69-.97.04c-.52-.26-.75-.54-.83-.68ZM7.83,11.26l1.76-.08h.01s0,.02-.01.03c0,.01-.01.03-.01.04,0,.02-.01.04-.02.06,0,.01,0,.02-.01.04,0,.02-.01.04-.01.06,0,.01,0,.02,0,.03,0,.03-.01.06-.02.1v.02s-.01.06-.02.1c0,.01,0,.02,0,.03,0,.02,0,.04,0,.07v.04s0,.04,0,.06c0,.01,0,.03,0,.04v.04l-.15-.06-1.49-.62ZM8.23,12.34s-.05-.01-.07-.01c-.05-.01-.09-.02-.13-.03l-.06-.02s-.04-.01-.06-.02c-.04-.01-.07-.03-.11-.04-.01,0-.02,0-.03-.01-.03-.01-.05-.02-.07-.03-.02,0-.04-.02-.06-.03,0,0-.01,0-.02,0-.01,0-.03-.02-.04-.03,0,0-.01,0-.02-.01,0,0-.01,0-.02-.01-.01,0-.02-.02-.03-.02-.01,0-.02-.01-.03-.02-.01,0-.02-.01-.03-.02.48-.06.78-.26.98-.41l.94.39-.2.08-.7.29s-.06,0-.08-.01-.05,0-.08-.01c-.03,0-.05-.01-.07-.01ZM7.83,12.74l.66-.27h0l.84-.35h0l.15-.06v.04s0,.03,0,.04c0,0,0,.01,0,.01,0,.01,0,.03,0,.05v.04s0,.04.01.07c0,.01,0,.02,0,.03,0,.03,0,.06.01.1v.02s.02.07.02.1c0,.01,0,.02,0,.03,0,.02.01.04.02.07,0,.01,0,.02.01.04,0,.02.01.04.02.06,0,.01,0,.02.01.04,0,.01,0,.02.01.04h0l-1.77-.08ZM7.73,13.58s.05-.03.07-.04.04-.03.06-.04c.02-.01.04-.03.06-.04.02-.01.04-.03.06-.04.01-.01.03-.02.04-.03.03-.02.06-.04.08-.07,0,0,.01-.01.02-.02.02-.02.04-.03.05-.05.02-.02.04-.04.06-.06.02-.02.04-.04.06-.06.02-.02.04-.04.05-.06.01-.02.03-.03.04-.05h0s.03-.05.05-.07c.03-.04.05-.07.07-.11l1.01.05-.49.45-.23.21c-.56.13-.92.06-1.08.02ZM8.34,14.12l.52-.48s0,0,0,0l.29-.27h0l.49-.45s0,.02.01.03c0,.01.01.03.01.04l.02.05.02.04s.02.04.03.06c0,.01,0,.02.01.03.01.03.03.06.05.09,0,0,0,.01.01.01h0s.03.06.05.09c0,.01.01.02.02.03.01.02.02.04.04.05,0,.01.02.02.02.03.01.02.02.03.03.05.01.01.02.02.03.03,0,.01.01.02.02.03h-.01s-.02.01-.02.01h0l-1.04.33h0l-.62.19ZM9.24,14.73s0,0,0,0c-.02.01-.04.02-.06.03-.05.02-.09.04-.14.06-.05.02-.09.03-.13.05-.02,0-.04.01-.06.02-.02,0-.04.01-.06.02-.02,0-.04,0-.05.01-.02,0-.03,0-.05.01-.02,0-.03,0-.04,0-.02,0-.04,0-.06,0-.01,0-.02,0-.03,0,0,0-.02,0-.02,0,.03-.03.05-.06.07-.08l.03-.04s.02-.02.03-.03c.02-.02.03-.04.04-.06.01-.02.02-.04.04-.05.01-.02.03-.04.04-.06,0,0,0,0,0,0,.01-.02.02-.04.04-.06.01-.02.02-.04.03-.06.04-.09.08-.17.1-.25.01-.03.02-.06.03-.09,0-.02.01-.03.01-.05,0-.03.01-.06.02-.09l.97-.3h0s-.44.86-.44.86c-.03.02-.06.04-.09.06-.02.01-.05.03-.07.04-.02.01-.03.02-.05.03-.03.02-.06.03-.08.04ZM9.8,14.85h0l-.52.4.26-.51.06-.12h0l.38-.72.12-.22s.02.02.03.03c0,.01.02.02.03.03.01.01.03.03.04.04,0,0,.02.02.03.03.02.02.03.03.05.04,0,0,.02.02.03.02l.07.07s.01.01.02.02c.03.02.05.04.08.06,0,0,.02.01.03.02.02.01.03.03.05.04.01,0,.02.01.03.02.02.01.03.02.05.03.01,0,.02.01.03.02.01,0,.02.01.03.02l-.03.02-.83.63-.03.03ZM9.74,15.95c.19-.44.17-.81.13-1.05l.06-.04.75-.57v.04s-.11.78-.11.78l-.02.14c-.35.46-.66.64-.82.7ZM10.55,15.98l.09-.71.02-.14.12-.92s.02.01.03.02c.01,0,.02.01.04.02.02.01.04.02.05.03.01,0,.02.01.03.02.02.01.04.02.06.03h.03s.06.04.09.05c0,0,.02,0,.03.01.03.01.06.02.09.03.01,0,.02,0,.03,0,.02,0,.04.01.06.02.01,0,.02,0,.04.01.02,0,.04.01.06.01.01,0,.03,0,.04.01.01,0,.03,0,.04,0l-.48.75-.48.75ZM11.23,16.49c.02-.48-.12-.82-.24-1.03l.13-.2.23-.37.18-.29.16.72.05.23c-.17.55-.41.83-.53.94ZM12,16.23l-.15-.69h0s-.05-.22-.05-.22l-.18-.79v-.03s.02,0,.03,0c.01,0,.03,0,.04,0,.02,0,.04,0,.06,0,.01,0,.03,0,.04,0,.02,0,.04,0,.06,0,.01,0,.02,0,.03,0,.03,0,.07,0,.1,0h.02s.07,0,.1,0c.01,0,.02,0,.03,0,.02,0,.04,0,.06,0,.01,0,.03,0,.04,0,.02,0,.04,0,.06,0,.02,0,.03,0,.04,0h.04s0,.03,0,.03l-.18.79-.2.92ZM12.81,16.48c-.14-.46-.39-.73-.57-.89l.06-.27.16-.72.42.65.11.17c.03.58-.1.92-.17,1.06ZM13.07,15.38h0s-.09-.15-.09-.15l-.48-.75s.02,0,.04,0c.01,0,.03,0,.04-.01.02,0,.04,0,.06-.01.01,0,.03,0,.04-.01.02,0,.04-.01.06-.02.01,0,.02,0,.03,0,.03-.01.06-.02.09-.03h.02s.06-.03.09-.04c.01,0,.02-.01.03-.01.02,0,.04-.02.06-.03.01,0,.02-.01.04-.02.02,0,.03-.02.05-.02.01,0,.02-.01.04-.02.01,0,.02-.01.03-.02v.11s.12.81.12.81l.11.84-.38-.6ZM14.29,15.93c-.29-.38-.61-.55-.84-.64l-.02-.19-.1-.77v-.05s.75.57.75.57l.02.02c.23.53.22.89.2,1.06ZM14.72,15.24l-.55-.42-.83-.63-.03-.02s.02-.01.03-.02c.01,0,.02-.01.03-.02.02-.01.03-.02.05-.03.01,0,.02-.02.03-.02.02-.01.04-.03.05-.04,0,0,.02-.01.03-.02.02-.02.05-.04.07-.06,0,0,.01-.01.02-.02.03-.02.05-.04.07-.06,0,0,.02-.02.02-.02.02-.01.03-.03.05-.05.01-.01.02-.02.03-.03.01-.01.03-.03.04-.04,0-.01.02-.02.03-.03,0-.01.02-.02.03-.03l.55,1.07.26.51ZM15.14,14.22s.04.05.05.07c.02.02.03.05.05.07.02.02.03.04.04.07.04.06.07.13.1.18,0,.02.02.04.02.05l.02.04s.01.03.02.04.01.03.01.04c.02.05.03.09.04.13-.06-.04-.13-.08-.19-.11-.02-.01-.03-.02-.05-.03-.08-.04-.16-.07-.23-.09-.01,0-.02,0-.03-.01-.01,0-.03,0-.04-.01-.02,0-.04-.01-.06-.01,0,0-.01,0-.01,0h0s-.01,0-.02,0c-.02,0-.03,0-.05,0,0,0-.01,0-.02,0-.03,0-.05-.01-.07-.01-.02,0-.03,0-.05,0-.02,0-.03,0-.05,0-.05,0-.09,0-.14,0l-.47-.9.93.29s.08.09.12.13c0,0,.01.01.02.02.02.02.04.05.06.07ZM15.67,14.12l-.68-.21h0l-.98-.31h-.03s.01-.03.02-.04c0-.01.02-.02.03-.03.01-.02.02-.03.03-.05,0-.01.02-.02.02-.03l.04-.05s.01-.02.02-.03c.02-.03.03-.05.05-.08v-.02s.05-.06.06-.09c0-.01.01-.02.02-.03.01-.02.02-.04.03-.06l.02-.04s.02-.03.02-.05c0-.01,0-.03.02-.04,0-.01.01-.02.01-.03l.49.45.33.31.48.44ZM15.77,13.05s.05.03.07.05c.02.02.04.03.06.05.05.03.09.07.13.1.02.01.03.03.04.04h0s.03.04.05.05c.02.02.04.04.05.06,0,.01.01.02.02.03.01.02.02.03.03.04.02.03.04.05.05.07-.47-.11-.82-.02-1.06.05l-.26-.24-.49-.45.97-.04s.04.02.06.03c.02.01.04.02.06.03.07.04.14.08.2.13ZM16.17,12.74l-1.76.08h-.01s0-.02.01-.03c0-.01.01-.03.01-.04,0-.02.01-.04.02-.06,0-.01,0-.03.01-.04,0-.02.01-.04.02-.06,0-.01,0-.02,0-.03,0-.03.01-.06.02-.1v-.02s.02-.06.02-.1c0-.01,0-.02,0-.03,0-.02,0-.04,0-.07,0-.01,0-.02,0-.04,0-.02,0-.03,0-.05h0s0-.04,0-.05c0-.01,0-.03,0-.04l.07.03.07.03,1.49.62ZM16.3,12.03s-.04,0-.06.01c-.02,0-.03.01-.05.02h0s0,0-.01,0c-.03,0-.05.02-.08.03-.03.01-.05.02-.08.03-.02.01-.04.02-.06.03-.02,0-.04.02-.06.03-.09.05-.18.1-.25.15-.01.01-.03.02-.04.03-.01.01-.02.02-.04.03l-.74-.31-.2-.08.9-.37c.57.07.89.25,1.02.35-.09.01-.18.03-.25.05Z"/>
        </g>
        <g>
          <path class="cls-2" d="M17.72,18.95c-1.56,1.28-3.55,2.05-5.72,2.05s-4.16-.77-5.72-2.05c.58-.21,1.01-.48,2.12-.48,1.8,0,1.8.72,3.6.72s1.8-.72,3.6-.72c1.11,0,1.53.27,2.12.48Z"/>
          <path class="cls-2" d="M19.74,16.59c-.27.46-.59.89-.94,1.3-1.42-.1-1.55-.71-3.21-.71-1.8,0-1.8.72-3.6.72s-1.8-.72-3.6-.72c-1.66,0-1.79.61-3.21.71-.35-.4-.66-.84-.94-1.3.16.01.34.02.54.02,1.8,0,1.8-.72,3.6-.72.53,0,.9.06,1.21.15.03,0,.06.02.09.03.49.15.83.37,1.43.47.05,0,.1.02.15.02.2.03.44.05.72.05s.53-.02.74-.05c.05,0,.1-.01.15-.02.58-.11.92-.31,1.4-.46h0s.05-.02.08-.02c.32-.09.69-.16,1.23-.16,1.8,0,1.8.72,3.6.72.2,0,.38-.01.54-.02Z"/>
          <path class="cls-7" d="M18.81,17.88c-.33.38-.7.74-1.09,1.06-.58-.21-1.01-.48-2.12-.48-1.8,0-1.8.72-3.6.72s-1.8-.72-3.6-.72c-1.11,0-1.53.27-2.12.48-.39-.32-.76-.68-1.09-1.06,1.42-.1,1.55-.71,3.21-.71,1.8,0,1.8.72,3.6.72s1.8-.72,3.6-.72c1.66,0,1.79.61,3.21.71Z"/>
          <path class="cls-2" d="M20.83,13.74c-.09.49-.23.97-.41,1.43-.31.09-.69.15-1.22.15-1.8,0-1.8-.72-3.6-.72h-.11s-.07,0-.1,0c-.19,0-.36.02-.51.04h0c-.09.01-.18.03-.27.05-.02,0-.05.01-.07.01-.03,0-.06.02-.09.02-.1.03-.2.06-.29.09-.03.01-.07.02-.1.04-.22.08-.42.17-.64.25-.03.01-.06.02-.09.03-.11.04-.23.07-.37.1-.03,0-.06.01-.09.02-.17.03-.36.05-.58.06-.03,0-.06,0-.09,0-.06,0-.13,0-.2,0s-.14,0-.2,0c-.03,0-.06,0-.09,0-.22-.01-.41-.03-.58-.06-.03,0-.06-.01-.09-.02-.14-.03-.25-.06-.37-.1-.03-.01-.06-.02-.09-.03-.23-.08-.43-.17-.64-.25-.03-.01-.07-.02-.1-.04-.09-.03-.18-.06-.29-.09-.07-.02-.14-.03-.22-.05-.16-.03-.34-.06-.55-.07-.03,0-.07,0-.1,0-.09,0-.18,0-.27,0-1.8,0-1.8.72-3.6.72-.54,0-.91-.06-1.22-.15-.17-.46-.31-.93-.41-1.43.4.16.84.29,1.63.29,1.64,0,1.79-.6,3.15-.7.05,0,.1,0,.15-.01.09,0,.19,0,.29,0,.24,0,.45.01.63.03.04,0,.08.01.12.02h0c.35.05.6.14.85.23h0c.08.03.17.07.25.1.43.17.88.34,1.75.34s1.32-.17,1.75-.34c.08-.03.16-.07.25-.1.24-.09.5-.18.85-.23.04,0,.08-.01.12-.02.19-.02.39-.03.63-.03.2,0,.37,0,.53.02.05,0,.09,0,.14.01h0c1.17.15,1.39.68,2.94.68.79,0,1.23-.14,1.63-.29Z"/>
          <path class="cls-7" d="M20.42,15.17c-.17.46-.39.91-.63,1.33-.01.03-.03.06-.05.08-.16.01-.34.02-.54.02-1.8,0-1.8-.72-3.6-.72-.54,0-.92.06-1.23.16-.03,0-.05.02-.08.02h0c-.48.15-.82.36-1.4.46-.05.01-.09.02-.15.02-.21.03-.45.05-.74.05s-.51-.02-.72-.05c-.05,0-.1-.02-.15-.02-.6-.11-.94-.32-1.43-.47-.03-.01-.06-.02-.09-.03-.31-.09-.68-.15-1.21-.15-1.8,0-1.8.72-3.6.72-.2,0-.38-.01-.54-.02-.02-.03-.03-.06-.05-.08-.24-.42-.46-.87-.63-1.33.31.09.69.15,1.22.15,1.8,0,1.8-.72,3.6-.72.09,0,.19,0,.27,0,.03,0,.07,0,.1,0,.21.01.39.04.55.07.08.01.15.03.22.05.1.03.2.06.29.09.03.01.07.02.1.04.22.08.42.17.64.25.03.01.06.02.09.03.11.04.23.07.37.1.03,0,.06.01.09.02.17.03.36.05.58.06.03,0,.06,0,.09,0,.07,0,.13,0,.2,0s.14,0,.2,0c.03,0,.06,0,.09,0,.22-.01.41-.03.58-.06.03,0,.06-.01.09-.02.13-.03.25-.06.37-.1.03-.01.06-.02.09-.03.23-.08.43-.17.64-.25.03-.01.07-.02.1-.04.09-.03.19-.06.29-.09.03,0,.06-.01.09-.02.02,0,.05-.01.07-.01.08-.02.17-.03.27-.05h0c.15-.02.32-.04.51-.04.03,0,.06,0,.1,0h.11c1.8,0,1.8.72,3.6.72.54,0,.91-.06,1.22-.15Z"/>
          <path class="cls-7" d="M20.99,12.39c-.02.46-.07.91-.16,1.35-.4.16-.84.29-1.63.29-1.55,0-1.76-.53-2.94-.68h0s-.09-.01-.14-.01c-.16-.02-.33-.02-.53-.02-.24,0-.45.01-.63.03-.04,0-.08.01-.12.02-.35.05-.61.14-.85.23-.09.03-.17.07-.25.1-.44.17-.88.34-1.75.34s-1.32-.17-1.75-.34c-.08-.03-.17-.07-.25-.1h0c-.24-.09-.5-.18-.85-.23h0s-.08-.01-.12-.02c-.19-.02-.39-.03-.63-.03-.1,0-.2,0-.29,0-.05,0-.1,0-.15.01-1.37.11-1.52.7-3.15.7-.79,0-1.23-.14-1.63-.29-.09-.44-.14-.89-.16-1.35.45.18.9.36,1.79.36,1.4,0,1.71-.44,2.63-.63.04-.01.08-.02.13-.03.23-.04.51-.06.84-.06.3,0,.55.02.76.05.06,0,.11.02.16.03h0c.05,0,.1.02.15.03.03,0,.06.01.09.02.77.21,1.14.58,2.43.58s1.66-.37,2.43-.58c.03,0,.06-.02.09-.02.05-.01.1-.02.15-.03s.11-.02.16-.03c.22-.03.46-.05.76-.05.22,0,.42.01.59.03h0c.08,0,.16.02.23.03,1.04.18,1.3.66,2.78.66.89,0,1.35-.18,1.79-.36Z"/>
        </g>
      </g>
      <g>
        <path class="cls-3" d="M9.85,4.72c.06,0,.12.01.18.02.21.02.43.04.63.13.24.1.44.3.55.56-.14-.13-.63-.5-1.66-.62-.79-.09-1.37-.36-1.68-.53.37.12.74.23,1.11.31.31.07.61.11.87.14Z"/>
        <path class="cls-3" d="M10.03,4.67c-.06,0-.12-.01-.18-.02-.26-.03-.56-.07-.86-.14-.31-.07-.62-.15-.93-.25.02,0,.04,0,.06.01.57.1,1.18.21,1.8.27.07,0,.15.01.23.02.54.04,1.09.08,1.45.66-.1.11-.16.2-.18.23h-.13c-.11-.3-.34-.54-.61-.66-.2-.09-.43-.11-.65-.13Z"/>
        <path class="cls-3" d="M13.95,5.84c.06.03.09.08.11.12h-1.02s.08-.03.12-.05c.06-.02.13-.04.19-.07h.61Z"/>
        <path class="cls-3" d="M13.9,4.46s-.09,0-.14,0c-.32.02-.66.03-.96.19-.21.11-.42.25-.64.43l-.02.02c-.19.15-.39.31-.52.51,0,.01-.02.01-.03.01,0,0-.01,0-.02,0-.02-.01-.02-.03-.01-.05.14-.2.34-.36.54-.52l.02-.02c.23-.18.44-.33.66-.44.31-.16.65-.18.98-.19.05,0,.09,0,.14,0,.34-.02.7-.04,1.05-.08.39-.04.79-.1,1.16-.23l-.16.02c-.3.05-.61.09-.92.14-.44.05-.85.06-1.36.07-.04,0-.07,0-.11,0-.32.01-.63.08-.93.21-.73.32-1.16.98-1.17.98t0,0h0s0,0,0,0c0,0,0,0,0,0s0,0,0,0h-.43s-.02,0-.02-.01c-.59-.52-1-.08-1.02-.06,0,0-.01.01-.02.01h-.63s.01.03.03.05h.74s.03.01.03.03c0,.02-.01.03-.03.03h-.68s.04.05.07.06c.04.03.07.02.12.02h.62s.02,0,.02,0c.57.5.87.63,1.54.63.45,0,.67-.12.93-.26.02-.01.05-.03.08-.04s.05-.03.08-.04h0c.09-.05.17-.08.26-.11.06-.02.13-.05.2-.07.26-.09.53-.17.72-.22l-1.49-.02c-.14.21-.42.45-.73.49-.01,0-.03,0-.04,0-.02,0-.03,0-.04,0-.15,0-.28-.05-.39-.16,0,0-.01-.01-.02-.02-.01-.01-.01-.03,0-.05.01-.01.03-.01.05,0,0,0,.01.01.02.02.12.11.26.15.42.13.3-.04.57-.28.7-.49.09-.15.19-.32.34-.43.14-.11.33-.14.46-.15.32-.03.62-.08.86-.13.39-.08.69-.16.96-.25.24-.08.48-.18.73-.29-.3.08-.62.12-.92.15-.35.04-.71.06-1.05.08ZM10.33,5.53c-.05,0-.09-.04-.09-.09s.04-.09.09-.09.09.04.09.09-.04.09-.09.09ZM11.41,6.15s.03-.03.04-.02c0,0,.12.04.34.03.26-.01.67-.1,1.19-.41.02,0,.04,0,.05.01.01.02,0,.04,0,.05-.09.05-.18.1-.26.14-.46.23-.81.28-1.03.28-.18,0-.28-.03-.29-.04-.02,0-.03-.03-.02-.04Z"/>
        <path class="cls-5" d="M11.79,6.16c.26-.01.67-.1,1.19-.41.02-.01.04,0,.05.01.01.02,0,.04,0,.05-.09.05-.18.1-.26.14-.46.23-.81.28-1.03.28-.18,0-.28-.03-.29-.04-.02,0-.03-.03-.02-.04,0-.02.02-.03.04-.02,0,0,.12.04.34.03Z"/>
        <path class="cls-5" d="M10.33,5.35c.05,0,.09.04.09.09s-.04.09-.09.09-.09-.04-.09-.09.04-.09.09-.09Z"/>
        <path class="cls-5" d="M16.14,4.01c-.06.01-.13.02-.19.03-.3.05-.61.09-.92.13-.43.05-.85.07-1.35.07-.04,0-.07,0-.11,0-.33.01-.65.08-.95.22-.42.19-.75.48-.95.71-.38-.59-.94-.63-1.49-.68-.08,0-.15-.01-.22-.02-.62-.06-1.23-.17-1.8-.27-.19-.03-.34-.06-.49-.09-.03.01-.05.03-.08.05h0s0,0,0,0c0,0,.75.55,1.96.69.95.11,1.44.45,1.6.59h-.12c-.58-.5-1.02-.13-1.09-.06h-.64s-.05.02-.05.03c-.02.03,0,.08.05.14h0c.04.06.08.11.13.14.06.04.11.04.16.03h.61c.57.5.89.63,1.58.63.47,0,.7-.12.96-.26.05-.03.1-.05.16-.08h1.21s.02,0,.03-.01c0,0,0-.02,0-.03,0,0-.04-.16-.17-.21,0,0,0,0-.01,0h-.41c.39-.12.76-.21.76-.21.02,0,.03-.02.03-.04,0-.02-.02-.03-.03-.03l-1.7-.02c.08-.13.18-.28.3-.38.13-.1.3-.13.42-.14.32-.03.62-.08.87-.13.39-.08.69-.16.97-.25.33-.11.66-.25,1.02-.43.02-.01.05-.03.07-.04.01,0,.02-.01.03-.02-.05-.03-.1-.05-.15-.08ZM8.13,4.28c.57.1,1.18.21,1.8.27.08,0,.15.01.23.02.54.04,1.09.08,1.45.66-.1.11-.16.2-.18.23h-.13c-.11-.3-.34-.54-.61-.66-.2-.08-.43-.11-.65-.13-.06,0-.12-.01-.18-.02-.26-.03-.56-.07-.86-.14-.31-.07-.62-.15-.93-.25.02,0,.04,0,.06.01ZM9.55,4.8c-.79-.09-1.37-.36-1.68-.53.37.12.74.23,1.11.31.31.07.61.11.87.14.06,0,.12.01.18.02.21.02.43.04.63.13.24.1.44.3.55.56-.14-.13-.63-.5-1.66-.62ZM13.95,5.84c.06.02.09.08.11.12h-1.02s.08-.03.12-.05c.06-.02.13-.05.19-.07h.61ZM11.57,5.61s.01,0,.02,0c.01,0,.02,0,.03-.01.14-.2.33-.35.52-.51l.02-.02c.22-.18.44-.32.64-.43.3-.15.63-.17.96-.19.05,0,.09,0,.14,0,.34-.02.7-.04,1.05-.08.3-.03.62-.08.92-.15-.25.11-.49.21-.73.29-.27.09-.58.17-.96.25-.25.05-.55.1-.86.13-.13.01-.32.04-.46.15-.14.12-.25.28-.34.43-.13.21-.4.45-.7.49-.16.02-.31-.02-.42-.13,0,0-.01-.01-.02-.02-.01-.01-.04-.01-.05,0-.01.01-.01.04,0,.05,0,0,.01.01.02.02.11.1.24.16.39.16.01,0,.03,0,.04,0,.01,0,.03,0,.04,0,.31-.04.58-.28.73-.49l1.49.02c-.19.05-.46.13-.72.22-.07.02-.13.05-.2.07-.08.03-.17.07-.26.11h0s-.06.03-.08.04-.05.03-.08.04c-.26.14-.48.26-.93.26-.67,0-.98-.12-1.54-.63,0,0-.01,0-.02,0h-.62c-.05,0-.09,0-.12-.02-.03-.02-.05-.04-.07-.06h.68s.03-.01.03-.03c0-.02-.01-.03-.03-.03h-.74s-.03-.04-.03-.05h.63s.02,0,.02-.01c.02-.02.44-.45,1.02.06,0,0,.01.01.02.01h.43s0,0,0,0,0,0,0,0,0,0,0,0c0,0,0,0,0,0h0s0,0,0,0c0,0,.44-.66,1.17-.98.3-.13.61-.2.93-.21.04,0,.07,0,.11,0,.5-.01.92-.02,1.36-.07.31-.04.62-.09.92-.14l.16-.02c-.38.13-.78.19-1.16.23-.35.04-.71.06-1.05.08-.05,0-.09,0-.14,0-.33.02-.67.03-.98.19-.21.11-.43.25-.66.44l-.02.02c-.19.16-.39.32-.54.52-.01.01,0,.04.01.05Z"/>
      </g>
    </g>
  </g>
</svg>