<?xml version="1.0" encoding="UTF-8"?>
<svg id="Layer_1" data-name="Layer 1" xmlns="http://www.w3.org/2000/svg" viewBox="0 0 24 24">
  <defs>
    <style>
      .cls-1 {
        fill: #000;
      }

      .cls-1, .cls-2, .cls-3, .cls-4, .cls-5 {
        stroke-width: 0px;
      }

      .cls-2 {
        fill: #254aa3;
      }

      .cls-3 {
        fill: none;
      }

      .cls-4 {
        fill: #fff;
      }

      .cls-5 {
        fill: #cfa551;
      }
    </style>
  </defs>
  <rect class="cls-3" width="24" height="24"/>
  <g>
    <path class="cls-1" d="M16.71,7.34c2.92,2.92,3.18,7.42.57,10.03-2.61,2.61-7.11,2.36-10.03-.57-2.92-2.92-3.18-7.42-.57-10.03,2.61-2.61,7.11-2.36,10.03.57Z"/>
    <g>
      <path class="cls-2" d="M12,21c-4.96,0-9-4.04-9-9S7.04,3,12,3s9,4.04,9,9-4.04,9-9,9Z"/>
      <g>
        <g>
          <g>
            <polygon class="cls-4" points="8.84 6.91 9.05 7.55 9.72 7.55 9.18 7.94 9.38 8.58 8.84 8.18 8.3 8.58 8.51 7.94 7.96 7.55 8.63 7.55 8.84 6.91"/>
            <polygon class="cls-4" points="15.16 6.91 15.37 7.55 16.04 7.55 15.49 7.94 15.7 8.58 15.16 8.18 14.62 8.58 14.82 7.94 14.28 7.55 14.95 7.55 15.16 6.91"/>
          </g>
          <g>
            <polygon class="cls-4" points="17.16 7.65 17.36 8.28 18.03 8.28 17.49 8.68 17.7 9.31 17.16 8.92 16.61 9.31 16.82 8.68 16.28 8.28 16.95 8.28 17.16 7.65"/>
            <polygon class="cls-4" points="6.84 7.65 7.05 8.28 7.72 8.28 7.18 8.68 7.38 9.31 6.84 8.92 6.3 9.31 6.51 8.68 5.97 8.28 6.63 8.28 6.84 7.65"/>
          </g>
          <g>
            <polygon class="cls-4" points="10.94 6.54 11.15 7.17 11.81 7.17 11.27 7.57 11.48 8.21 10.94 7.81 10.4 8.21 10.6 7.57 10.06 7.17 10.73 7.17 10.94 6.54"/>
            <polygon class="cls-4" points="13.06 6.54 13.27 7.17 13.94 7.17 13.4 7.57 13.6 8.21 13.06 7.81 12.52 8.21 12.73 7.57 12.18 7.17 12.85 7.17 13.06 6.54"/>
          </g>
        </g>
        <path class="cls-5" d="M11.42,9.21s-.07,0-.08.04c0,.04-.07.04-.07.07,0,.03-.09.06-.09.06h-.12s-.01-.05-.03-.03-.06.02-.06.02h-.08s-.08,0-.07.03c.01.03.05.05.08.08.03.03.03.04.03.06,0,.02-.02.03-.02.05,0,.02,0,.06.05.06h.11s.04.01.06.03c.02.02.01.08.01.08,0,0-.06,0-.03.04s.07.09.1.09.1.02.11.07c.01.05,0,.11-.03.13-.02.02-.05.05-.06.06,0,0-.1,0-.1.02,0,.02.03.08.03.08,0,0,.06,0,.06.03,0,.03-.05.04-.03.06s.03.09.03.09c0,0-.04,0-.05.02s-.1,0-.1.04c0,.03-.05.13-.05.13,0,0-.1.02-.1,0,0-.02,0-.05-.03-.05s-.08,0-.08.03c0,.04-.07.05-.09.09-.01.04-.07.12-.07.12,0,0-.12-.04-.13-.04s-.02.03-.05.06c-.03.03-.08.07-.08.07,0,0-.03,0-.03.03v.06s.07.03.07.07-.04.04,0,.08c.04.04.06.04.08.08.02.04.06.04.08.07.02.04-.05.07-.05.08,0,.01-.14-.02-.17,0-.02.03-.07.07-.07.08,0,0-.08-.02-.11.02-.02.05-.08.09-.09.09s-.09-.02-.1-.03c-.01-.01-.06-.04-.09-.03-.03.01-.11.03-.11.03,0,0-.04.02-.07.02-.03,0-.11-.05-.11-.03,0,.02-.07.13-.07.13,0,0-.04,0-.06-.01-.02-.02-.04-.06-.06-.04-.02.02-.07.04-.07.05s-.01,0-.05.02c-.03.03-.08.06-.08.1s-.07.08-.11.08c-.03,0-.1,0-.07.04.04.03-.05.07-.05.09s.01.04-.02.04-.06.03-.12.02c-.05-.01-.12-.03-.12-.03,0,0,0-.01-.04-.01s-.12.03-.15,0c-.03-.03-.02-.04-.06-.06s-.07-.07-.12-.04-.12.08-.15.08c-.03,0-.08.01-.08.04,0,.03-.02.05-.06.06s-.08.04-.05.09c.02.05-.05.08-.04.11,0,.03.04.08.06.1.02.03-.03.07.05.09.07.02.11,0,.17.02s.05.01.11.05c.06.04.13.05.13.05,0,0,.09.07.09.09s0,.01-.03.05-.1.15-.1.15c0,0-.02.11.01.14.03.03.02.1.02.12,0,.02-.06.04-.04.06s.04.06.06.08-.02.02.03.07c.05.05.09.06.13.07.03.01.12.04.16.08.04.04.05.06.06.11s.05.09.07.11c.02.02-.02.07,0,.09.02.02.08,0,.08.03,0,.02-.08.04-.01.08.07.03.06.02.09.05.03.03.05.06.04.09s-.06.06-.06.08c0,.02.02.08.04.1.02.02.02,0,.05.02.03.03.03.11.03.14,0,.03-.03.06,0,.09.03.03,0,.09.03.12.02.02,0,.05.06.06.06.01.09,0,.13,0,.04,0,.04.02.08.02.03,0,.09-.03.13-.04.05-.01.06-.06.11,0s0,.08.08.1c.07.02.14,0,.15.04.01.03,0,.08.03.11s.04-.03.11.01c.07.04.06.01.11.06.05.05.23.23.26.27.04.04.03.07.08.12s.06,0,.04.08c-.01.08-.05.09,0,.14.05.05.04.12.06.14.02.02.08.15.06.17-.02.02-.05.02-.03.06s-.02.08-.01.13c.01.04-.01.07.02.1.03.03.07.04.11.08.04.04.06.04.06.09s-.08.09,0,.19c.08.1.12.16.14.18.02.02.01.06.01.06,0,0-.05.02-.03.03s.04.07.02.09c-.02.02-.08.08-.08.09s-.04.04-.05.05c0,.01-.06.06-.07.07-.01.01-.03.09,0,.15.03.05.07.07.08.11s-.03.06.04.06.04,0,.09-.03c.05-.02.06-.06.08-.06.02,0,.05.02.07.04.02.02.02.05.05.05s.06,0,.12-.02c.06-.03,0-.04.12-.08s.1-.04.11-.08c.02-.04.04-.08.08-.08.04,0,.03-.09.05-.09.02,0,.07-.02.02-.04-.04-.02-.1-.07-.1-.07,0,0,0-.07.02-.11.01-.04-.02-.06-.02-.09,0-.03-.03-.07-.03-.11v-.11s-.06-.06-.02-.1c.04-.04.04-.07.04-.07,0,0,0-.12.05-.16s0-.07.07-.09c.07-.03.07-.03.13-.03s.09-.03.13-.07c.03-.03.02-.03.08-.03s.07.02.12,0c.05-.02.09-.08.09-.1s.08-.16.17-.15.06.07.15.01c.09-.06.01-.13.16-.13s.14,0,.21-.05c.08-.05.05-.08.11-.11.05-.03.21-.09.23-.09.03,0,.04.04.06.04.03,0,.04-.03.11.01s.02.07.07.13.11.02.12.1c.01.08.02.11.04.16.02.05-.04.09,0,.14.04.04.09.06.11.06.03,0,.25,0,.28-.02.02-.02-.02-.12.03-.06.06.06.08.05.09.03.01-.01-.04-.16-.05-.17-.02-.02,0-.11.02-.15.03-.03.05-.06.05-.08s-.06-.13.05-.18c.1-.04.08-.02.11-.05.03-.03.02-.07.07-.11.04-.04.06-.07.06-.07,0,0,.05-.05.09-.02.04.02-.01.08.07.08s.12-.08.1-.13c-.01-.05-.05-.08,0-.1.05-.02.03-.04.08-.04s.07-.03.1,0c.03.03.04.05.08.05s0,.08.06.11c.05.03.13.05.15.03.02-.02.03.04.07-.01.03-.05,0-.07.04-.11.03-.03.03-.07,0-.1-.03-.03-.03-.09-.03-.09,0,0-.04-.07-.06-.05-.01.01-.01.05-.04.02s-.07-.04-.07-.07c0-.03-.03-.06-.02-.09.01-.03.01-.08.01-.08l.05-.1s.04-.03.05-.02c.02.02.04.08.07.03.02-.05.02-.13.08-.11.05.02.04.04.08.04s.07.02.1-.02c.03-.04-.02-.05.05-.12.07-.07.11-.05.08-.1-.03-.05-.07-.06-.07-.09,0-.03-.06-.16-.04-.19s.1,0,.15-.05c.05-.05.03-.06.07-.09.04-.04.08-.08.08-.08,0,0,0-.03.02-.05.02-.02-.03-.12,0-.12.03,0-.02-.06.02-.09.04-.03.11-.06.11-.06h.08s.02-.07.04-.09.02-.17,0-.19c-.02-.02-.04-.07-.04-.07l.08-.04.04-.04.05-.05s-.03-.05.02-.05.09.03.09-.04-.01-.08-.04-.11c-.03-.03-.09-.09-.1-.1s-.06-.07-.07-.08-.04-.01-.07,0c-.03,0-.14-.02-.15-.01s-.05.02-.05.05-.01.05-.02.07c-.02.01-.04.05-.07.05-.03,0-.08-.01-.09-.04-.01-.03-.03-.07-.03-.08,0-.02-.01-.06-.05-.05s-.11,0-.11,0c0,0-.07-.01-.08-.04-.01-.02-.01-.08-.01-.08l-.07-.07s0-.03-.05-.03-.08.01-.1.01-.04,0-.07,0c-.04,0-.1-.04-.11-.06s-.11-.02-.11-.02c0,0-.05-.03-.07-.01s-.08.03-.08,0-.02-.07-.08-.05c-.05.02-.1.04-.13.04s-.09-.01-.09-.05.04-.06.06-.08c.02-.02.04-.02.04-.04s-.03-.03-.01-.06c.01-.02.01-.07.01-.09,0-.02.03-.05.04-.06,0-.01.04-.01.04-.01,0,0,.03-.06,0-.08-.03-.02-.01-.06,0-.08,0-.02,0-.03.02-.05.02-.02,0-.03.04-.05.05-.02.05-.04.03-.07-.01-.04-.1-.07-.12-.07s-.06.03-.08.03c-.02,0-.06,0-.07-.02-.02-.02-.04-.06-.06-.05s-.07,0-.07-.02,0-.07-.02-.07-.18-.06-.2-.04-.04.1-.08.06c-.04-.04-.08-.11-.08-.11l-.07-.07s-.03-.04-.04-.07c0-.03-.05-.05-.05-.05,0,0,0-.03,0-.05s-.03-.05-.02-.07c.01-.02,0-.02,0-.07,0-.05-.02-.06-.02-.09s0-.07,0-.1-.04-.07-.05-.08c-.01-.01-.05-.03-.06-.02-.01.01-.04.01-.04.05,0,.03-.05.06-.07.05-.01-.01-.05-.03-.05-.05,0-.02-.02-.05-.02-.05,0,0,.01-.05-.03-.08-.04-.02-.06-.02-.06-.06s0-.07,0-.1c0-.03-.04-.06-.04-.08,0-.02.02-.03.03-.06.01-.03.05-.05.02-.08-.03-.03-.05-.06-.06-.07-.02-.02-.07-.03-.09-.02-.01.01-.07-.03-.08-.05-.01-.02-.04-.06-.06-.03s-.02.05-.05.08c-.03.02-.1.05-.11.05s-.06-.06-.06-.06c0,0-.05-.05-.07-.06-.03-.01-.08-.05-.09-.05,0,0-.14,0-.16.02-.02.02-.05.05-.05.05,0,0-.06-.02-.08-.04-.02-.01-.08-.02-.08-.05s-.02-.06-.04-.06c-.02,0-.04-.04-.08-.04-.04,0-.09-.04-.09-.05,0,0-.11,0-.11,0,0,0-.04-.04-.07-.04-.02,0-.12,0-.08-.04.04-.04.04-.06.06-.06s.01,0,.02-.04,0-.08.04-.08.03,0,.07-.01c.04-.01.08-.08.06-.11-.03-.03-.08-.05-.09-.06,0,0-.08-.07-.08-.1,0-.03-.06-.04-.06-.06s-.03-.03-.07-.02c-.04.01-.11,0-.09.04.01.04.05.06.02.08-.03.01-.08,0-.09.01-.01,0-.06-.06-.1-.03s-.09.05-.09.05c0,0-.05-.03-.06-.03,0,0-.08.02-.04.06Z"/>
      </g>
    </g>
  </g>
</svg>