<?xml version="1.0" encoding="UTF-8"?>
<svg id="Layer_1" data-name="Layer 1" xmlns="http://www.w3.org/2000/svg" viewBox="0 0 24 24">
  <defs>
    <style>
      .cls-1 {
        fill: #000;
      }

      .cls-1, .cls-2, .cls-3, .cls-4 {
        stroke-width: 0px;
      }

      .cls-2 {
        fill: none;
      }

      .cls-3 {
        fill: #feee1c;
      }

      .cls-4 {
        fill: #e7122c;
      }
    </style>
  </defs>
  <rect class="cls-2" width="24" height="24"/>
  <g>
    <path class="cls-1" d="M16.71,7.34c2.92,2.92,3.18,7.42.57,10.03-2.61,2.61-7.11,2.36-10.03-.57-2.92-2.92-3.18-7.42-.57-10.03,2.61-2.61,7.11-2.36,10.03.57Z"/>
    <g>
      <path class="cls-4" d="M21,12c0,1.64-.44,3.18-1.21,4.5-1.56,2.69-4.47,4.5-7.79,4.5s-6.23-1.81-7.79-4.5c-.77-1.32-1.21-2.86-1.21-4.5s.44-3.18,1.21-4.5c1.56-2.69,4.47-4.5,7.79-4.5s6.23,1.81,7.79,4.5c.77,1.33,1.21,2.86,1.21,4.5Z"/>
      <g>
        <g>
          <path class="cls-3" d="M11.84,10.94c.05.04.11.08.16.12.05-.04.11-.08.16-.12-.05-.04-.11-.08-.16-.12-.05.04-.11.08-.16.12Z"/>
          <path class="cls-3" d="M11.53,10.54c-.06.04-.12.08-.17.12.07.04.15.08.23.12.06-.04.11-.08.17-.12-.07-.04-.15-.08-.22-.12Z"/>
          <path class="cls-3" d="M12.23,10.38c-.07-.04-.15-.08-.23-.12-.08.04-.15.08-.23.12.07.04.15.08.23.12.07-.04.15-.08.23-.12Z"/>
          <path class="cls-3" d="M12.42,10.78c.08-.04.15-.08.23-.12-.06-.04-.11-.08-.17-.12-.07.04-.15.08-.23.12.06.04.11.08.17.12Z"/>
          <path class="cls-3" d="M12,11.42c-.6.59-1.05,1.49-1.15,2.86.35.16.74.25,1.15.25s.8-.09,1.15-.25c-.1-1.38-.55-2.28-1.15-2.86Z"/>
          <path class="cls-3" d="M11.39,10.94c-.07-.04-.15-.08-.22-.12-.6.52-1.12,1.3-1.46,2.45.06.09.12.18.19.27.33-1.23.88-2.05,1.49-2.59Z"/>
          <path class="cls-3" d="M12.36,11.11c-.05.04-.11.08-.16.12.64.58,1.15,1.47,1.3,2.85.09-.06.19-.13.27-.21-.26-1.33-.79-2.2-1.41-2.77Z"/>
          <path class="cls-3" d="M11.8,11.23c-.05-.04-.11-.08-.16-.12-.62.57-1.15,1.43-1.41,2.77.09.07.18.15.27.21.15-1.38.65-2.27,1.3-2.85Z"/>
          <path class="cls-3" d="M12.93,10.54c.43-.17.87-.26,1.26-.31-.03-.04-.06-.08-.09-.12-.41.03-.88.12-1.34.3.06.04.12.08.18.12Z"/>
          <path class="cls-3" d="M14.54,12.76c.11-.29.17-.6.17-.93,0-.53-.15-1.02-.42-1.44-.37.05-.78.14-1.17.3.56.47,1.07,1.13,1.42,2.07Z"/>
          <path class="cls-3" d="M12.83,10.82c-.07.04-.15.08-.22.12.62.54,1.16,1.36,1.49,2.59.07-.08.13-.17.19-.27-.34-1.15-.86-1.93-1.46-2.45Z"/>
          <path class="cls-3" d="M13.58,9.63c-.44-.32-.99-.51-1.58-.51s-1.13.19-1.58.51c.48.05,1.03.16,1.58.39.55-.23,1.1-.34,1.58-.39Z"/>
          <path class="cls-3" d="M12.5,10.26c.51-.2,1.01-.29,1.44-.32-.05-.05-.1-.1-.15-.14-.46.03-.99.12-1.53.33.08.04.15.08.23.12Z"/>
          <path class="cls-3" d="M10.88,10.69c-.4-.16-.8-.25-1.18-.3-.26.42-.41.91-.41,1.44,0,.33.06.64.16.93.36-.94.86-1.6,1.43-2.07Z"/>
          <path class="cls-3" d="M11.25,10.42c-.47-.19-.93-.27-1.34-.3-.03.04-.06.08-.09.12.39.04.83.14,1.26.31.06-.04.12-.08.18-.12Z"/>
          <path class="cls-3" d="M11.73,10.14c-.53-.22-1.07-.31-1.53-.33-.05.04-.1.09-.15.14.44.03.94.11,1.44.32.08-.04.15-.08.23-.12Z"/>
        </g>
        <g>
          <path class="cls-3" d="M11.77,8.77c.07,0,.15-.01.23-.01s.16,0,.23.01h0c-.04-.13-.08-.31-.06-.63.02-.32.08-.46.08-.84s-.13-.59-.25-.71c.05.15.03.45,0,.66s-.21.75-.26,1.05c-.06.3.03.46.03.46h0Z"/>
          <path class="cls-3" d="M11.27,8.84c.07-.02.15-.03.22-.04.08-.01.16-.02.23-.03,0,0,0,0,0,0-.05-.12-.13-.28-.16-.6-.03-.32,0-.46-.05-.84-.06-.38-.22-.56-.36-.66.07.14.1.44.1.66,0,.21-.09.77-.1,1.07-.01.31.1.44.1.44h0Z"/>
          <path class="cls-3" d="M10.78,9c.07-.03.14-.06.21-.08.07-.02.15-.05.23-.06,0,0,0,0,0,0-.07-.11-.17-.26-.25-.57-.08-.31-.06-.46-.18-.82-.12-.36-.31-.52-.46-.6.09.13.17.42.21.63.04.21.03.77.07,1.08.04.3.17.42.17.42h0Z"/>
          <path class="cls-3" d="M10.33,9.22c.06-.04.13-.08.2-.11.07-.04.14-.07.21-.1h0c-.09-.1-.21-.23-.34-.53s-.14-.44-.31-.78c-.17-.34-.39-.47-.55-.52.11.12.23.39.3.59.07.2.15.76.24,1.05.09.29.24.39.24.39h0Z"/>
          <path class="cls-3" d="M9.92,9.52c.06-.05.12-.1.18-.14.06-.04.13-.09.2-.13,0,0,0,0,0,0-.1-.08-.24-.2-.42-.47-.17-.27-.2-.42-.43-.73-.22-.31-.45-.4-.62-.42.13.09.29.35.39.54s.27.73.4,1c.13.27.29.35.29.35h0Z"/>
          <path class="cls-3" d="M9.55,9.88c.05-.06.1-.11.16-.17.05-.06.11-.11.17-.16,0,0,0,0,0,0-.11-.06-.27-.15-.48-.4-.21-.24-.27-.38-.54-.65-.27-.27-.51-.32-.68-.32.14.07.34.3.47.47.13.17.38.67.55.93.17.25.35.3.35.3h0Z"/>
          <path class="cls-3" d="M9.25,10.28c.04-.06.08-.13.13-.19.05-.06.09-.12.15-.18,0,0,0,0,0,0-.12-.05-.29-.11-.54-.32-.25-.21-.32-.33-.63-.56-.31-.22-.55-.24-.72-.21.15.05.38.24.54.39s.48.61.69.83.39.24.39.24h0Z"/>
          <path class="cls-3" d="M9.02,10.74c.03-.07.06-.14.1-.21.04-.07.07-.14.12-.2,0,0,0,0,0,0-.13-.02-.31-.06-.58-.23-.28-.16-.37-.28-.71-.45-.34-.17-.59-.15-.75-.1.16.03.42.18.59.3.18.12.57.52.81.71.24.19.42.18.42.18h0Z"/>
          <path class="cls-3" d="M8.86,11.22c.02-.07.04-.15.06-.22.03-.07.05-.15.08-.22,0,0,0,0,0,0-.13,0-.31-.02-.61-.13-.3-.12-.41-.22-.77-.34-.36-.12-.6-.06-.75.02.16,0,.44.11.63.21.19.09.64.43.91.57.27.15.44.11.44.11h0Z"/>
          <path class="cls-3" d="M8.77,11.72c0-.08.02-.15.03-.23s.03-.15.04-.23h0c-.13.01-.31.03-.62-.04-.31-.07-.44-.15-.81-.21-.38-.06-.6.04-.74.14.16-.02.45.04.66.11.2.06.7.32.99.42.29.1.46.04.46.04h0Z"/>
          <path class="cls-3" d="M8.77,12.23c0-.07,0-.15,0-.23s0-.16.01-.23h0c-.13.03-.3.08-.62.06-.32-.02-.46-.08-.84-.08s-.59.13-.71.25c.15-.05.45-.03.66,0s.75.21,1.04.26c.3.06.46-.03.46-.03h0Z"/>
          <path class="cls-3" d="M8.84,12.73c-.02-.07-.03-.15-.04-.22-.01-.08-.02-.16-.03-.23h0c-.12.05-.28.13-.6.16-.32.03-.46,0-.84.05-.38.06-.56.22-.66.36.14-.07.44-.1.66-.1.21,0,.77.09,1.07.1.31,0,.45-.1.45-.1h0Z"/>
          <path class="cls-3" d="M9,13.22c-.03-.07-.06-.14-.08-.21-.02-.07-.04-.15-.06-.23,0,0,0,0,0,0-.11.07-.26.17-.57.25-.31.08-.46.06-.82.18-.36.12-.52.31-.6.46.13-.09.42-.17.63-.2.21-.04.77-.03,1.07-.07.3-.04.43-.17.43-.17h0Z"/>
          <path class="cls-3" d="M9.22,13.67c-.04-.06-.08-.13-.11-.2-.04-.07-.07-.14-.1-.21,0,0,0,0,0,0-.09.09-.23.21-.53.34-.29.13-.44.14-.78.31-.34.17-.46.38-.52.55.11-.11.39-.23.59-.3.2-.07.76-.15,1.05-.24.29-.09.39-.24.39-.24h0Z"/>
          <path class="cls-3" d="M9.52,14.08c-.05-.06-.09-.12-.14-.18-.05-.06-.09-.13-.13-.2,0,0,0,0,0,0-.08.1-.2.24-.47.42-.27.17-.42.2-.73.43-.31.22-.4.45-.42.62.09-.13.35-.29.54-.39.19-.1.73-.27,1-.4.27-.13.35-.29.35-.29h0Z"/>
          <path class="cls-3" d="M9.88,14.45c-.06-.05-.11-.1-.17-.16-.06-.05-.11-.11-.16-.17h0c-.06.12-.16.27-.4.49s-.38.27-.65.54c-.27.27-.32.51-.32.68.07-.14.3-.34.47-.47.17-.13.67-.38.93-.55.25-.17.3-.35.3-.35h0Z"/>
          <path class="cls-3" d="M10.28,14.75c-.06-.04-.13-.08-.19-.13-.06-.05-.13-.1-.18-.15,0,0,0,0,0,0-.04.12-.11.29-.32.54-.2.25-.33.32-.56.63-.22.31-.24.55-.21.72.05-.15.24-.38.39-.54s.61-.48.83-.69.24-.39.24-.39h0Z"/>
          <path class="cls-3" d="M10.74,14.98c-.07-.03-.14-.06-.21-.1-.07-.04-.14-.07-.21-.12,0,0,0,0,0,0-.02.13-.06.31-.23.58s-.28.37-.45.71c-.17.34-.15.59-.1.75.03-.16.18-.41.3-.59.12-.18.52-.57.71-.81.19-.24.18-.42.18-.42h0Z"/>
          <path class="cls-3" d="M11.22,15.14c-.07-.02-.15-.04-.22-.06-.07-.02-.15-.05-.22-.08h0c0,.14-.02.32-.13.62-.12.3-.22.41-.34.77-.12.36-.06.6.02.75,0-.16.11-.44.21-.63.09-.19.43-.64.57-.91.15-.27.11-.44.11-.44h0Z"/>
          <path class="cls-3" d="M11.72,15.23c-.07,0-.15-.02-.23-.03-.08-.01-.15-.03-.23-.05h0c.01.14.03.32-.04.63-.07.31-.15.44-.21.81-.06.38.04.6.14.74-.02-.16.04-.45.11-.66s.32-.7.42-.99c.1-.29.04-.45.04-.45h0Z"/>
          <path class="cls-3" d="M12.23,15.23c-.07,0-.15,0-.23,0s-.16,0-.23-.01h0c.03.13.08.31.06.63-.02.32-.08.46-.08.84s.13.59.25.71c-.05-.15-.03-.45,0-.66.03-.21.21-.75.26-1.05.05-.3-.03-.46-.03-.46h0Z"/>
          <path class="cls-3" d="M12.73,15.16c-.07.02-.15.03-.22.04-.08.01-.16.02-.23.03,0,0,0,0,0,0,.05.12.13.28.16.6.03.32,0,.46.05.84s.22.56.36.66c-.07-.14-.1-.44-.1-.66s.09-.77.1-1.07c0-.31-.1-.44-.1-.44h0Z"/>
          <path class="cls-3" d="M13.22,15c-.07.03-.14.06-.22.08-.07.02-.15.05-.22.06,0,0,0,0,0,0,.07.11.17.26.25.57.08.31.06.46.18.82s.31.52.46.6c-.09-.13-.17-.42-.2-.63-.04-.21-.03-.77-.07-1.07-.04-.3-.17-.43-.17-.43h0Z"/>
          <path class="cls-3" d="M13.67,14.78c-.06.04-.13.08-.2.11-.07.04-.14.07-.21.1,0,0,0,0,0,0,.09.09.21.23.34.53s.14.44.31.78c.17.34.38.46.55.52-.11-.12-.23-.39-.3-.59-.07-.2-.15-.76-.24-1.05-.09-.29-.24-.39-.24-.39h0Z"/>
          <path class="cls-3" d="M14.08,14.48c-.06.05-.12.09-.18.14-.06.05-.13.09-.2.13,0,0,0,0,0,0,.1.08.24.2.41.47.17.27.2.42.43.73.22.31.45.4.62.42-.13-.09-.29-.35-.39-.54-.1-.19-.27-.73-.4-1-.13-.27-.29-.35-.29-.35h0Z"/>
          <path class="cls-3" d="M14.45,14.12c-.05.06-.1.11-.16.17s-.11.11-.17.16h0c.11.07.27.16.48.4s.27.38.54.65.51.32.68.32c-.14-.07-.34-.3-.47-.47-.13-.17-.38-.67-.55-.93-.17-.25-.35-.3-.35-.3h0Z"/>
          <path class="cls-3" d="M14.75,13.72c-.04.06-.08.13-.13.19s-.09.12-.15.18c0,0,0,0,0,0,.12.05.29.11.54.32.25.2.32.33.63.56.31.22.55.24.72.21-.15-.05-.38-.24-.54-.39s-.48-.61-.69-.83-.39-.24-.39-.24h0Z"/>
          <path class="cls-3" d="M14.98,13.26c-.03.07-.06.14-.09.21-.04.07-.07.14-.12.2,0,0,0,0,0,0,.13.02.31.06.58.23.28.16.37.28.71.45.34.17.58.15.75.1-.16-.03-.42-.18-.59-.3-.18-.12-.57-.52-.81-.71-.24-.19-.42-.18-.42-.18h0Z"/>
          <path class="cls-3" d="M15.14,12.78c-.02.07-.04.15-.06.22-.02.07-.05.15-.08.22h0c.13,0,.31.02.61.13.3.12.41.22.77.34.36.12.6.06.75-.02-.16,0-.44-.11-.63-.21-.19-.09-.64-.43-.91-.57-.27-.15-.44-.11-.44-.11h0Z"/>
          <path class="cls-3" d="M15.23,12.28c0,.07-.01.15-.03.23-.01.08-.03.15-.05.23h0c.13-.01.31-.03.62.04.31.07.44.15.81.21.38.06.6-.04.74-.14-.16.02-.45-.04-.66-.11-.21-.06-.7-.32-.99-.42-.29-.1-.46-.04-.46-.04h0Z"/>
          <path class="cls-3" d="M15.23,11.77c0,.07.01.15.01.23s0,.16-.01.23h0c.13-.03.3-.08.62-.06.32.02.46.08.84.08s.59-.13.71-.25c-.15.05-.45.03-.66,0-.21-.03-.75-.21-1.05-.26-.3-.06-.46.03-.46.03h0Z"/>
          <path class="cls-3" d="M15.16,11.27c.02.07.03.15.04.22.01.08.02.16.03.23h0c.12-.05.28-.13.6-.16.32-.03.46,0,.84-.05.38-.06.56-.22.66-.36-.14.07-.44.1-.66.1-.21,0-.77-.09-1.07-.1-.31,0-.45.1-.45.1h0Z"/>
          <path class="cls-3" d="M15,10.78c.03.07.05.14.08.21.02.08.04.15.06.23,0,0,0,0,0,0,.11-.07.26-.17.57-.25.31-.08.46-.06.82-.18.36-.12.52-.31.6-.46-.13.09-.42.17-.63.2-.21.04-.77.03-1.08.07-.3.04-.42.17-.42.17h0Z"/>
          <path class="cls-3" d="M14.78,10.33c.04.06.08.13.11.2.04.07.07.14.1.21,0,0,0,0,0,0,.09-.09.23-.21.53-.34.29-.13.44-.14.78-.31.34-.17.46-.38.52-.55-.11.11-.39.23-.59.3-.2.07-.76.15-1.05.24-.29.09-.39.24-.39.24h0Z"/>
          <path class="cls-3" d="M14.48,9.92c.05.06.1.12.14.18.05.06.09.13.13.2t0,0c.08-.1.2-.24.47-.41.27-.17.42-.2.73-.43.31-.22.4-.45.42-.62-.09.13-.35.29-.54.39-.19.1-.73.27-1,.4-.27.13-.35.29-.35.29h0Z"/>
          <path class="cls-3" d="M14.12,9.55c.06.05.11.1.17.16s.11.11.16.17c0,0,0,0,0,0,.06-.11.15-.27.39-.48.24-.21.38-.27.65-.54.27-.27.32-.51.32-.68-.07.14-.3.34-.47.47-.17.13-.67.38-.93.55-.25.17-.3.35-.3.35h0Z"/>
          <path class="cls-3" d="M13.71,9.25c.06.04.13.08.19.13.06.05.12.1.18.15,0,0,0,0,0,0,.05-.12.11-.29.32-.54.21-.25.33-.32.56-.63.22-.31.24-.55.21-.72-.05.15-.24.38-.39.54s-.61.48-.83.69-.24.39-.24.39h0Z"/>
          <path class="cls-3" d="M13.26,9.02c.07.03.14.06.21.09.07.04.14.07.2.12,0,0,0,0,0,0,.03-.13.06-.31.23-.58.16-.28.28-.37.45-.71.17-.34.15-.59.1-.75-.02.16-.18.41-.3.59-.12.18-.52.57-.71.81-.19.24-.18.42-.18.42h0Z"/>
          <path class="cls-3" d="M12.78,8.86c.07.02.15.04.22.06.08.02.15.05.22.08,0,0,0,0,0,0,0-.13.02-.31.13-.61.12-.3.22-.41.34-.77s.06-.6-.02-.75c0,.16-.12.44-.21.63-.09.19-.43.64-.58.91-.15.27-.11.44-.11.44h0Z"/>
          <path class="cls-3" d="M12.28,8.77c.08,0,.15.01.23.03.08.01.15.03.23.05h0c-.02-.14-.03-.32.04-.63.07-.31.15-.44.21-.81.06-.38-.04-.6-.14-.74.02.16-.04.45-.11.66s-.32.7-.42.99c-.1.29-.04.45-.04.45h0Z"/>
        </g>
      </g>
    </g>
  </g>
</svg>