<?xml version="1.0" encoding="UTF-8"?>
<svg id="Layer_1" data-name="Layer 1" xmlns="http://www.w3.org/2000/svg" viewBox="0 0 24 24">
  <defs>
    <style>
      .cls-1 {
        fill: #000;
      }

      .cls-1, .cls-2, .cls-3, .cls-4, .cls-5 {
        stroke-width: 0px;
      }

      .cls-2 {
        fill: none;
      }

      .cls-3 {
        fill: #cd1225;
      }

      .cls-4 {
        fill: #032767;
      }

      .cls-5 {
        fill: #fff;
      }
    </style>
  </defs>
  <rect class="cls-2" width="24" height="24"/>
  <g>
    <path class="cls-1" d="M16.72,7.34c2.92,2.92,3.17,7.42.57,10.03-2.61,2.61-7.11,2.35-10.03-.57-2.92-2.92-3.18-7.42-.57-10.03,2.61-2.61,7.11-2.35,10.03.57Z"/>
    <g>
      <g>
        <path class="cls-3" d="M19.77,7.46H4.23c1.56-2.66,4.46-4.46,7.77-4.46s6.2,1.79,7.77,4.46Z"/>
        <path class="cls-3" d="M19.77,16.54c-1.56,2.67-4.46,4.46-7.77,4.46s-6.2-1.79-7.77-4.46h15.53Z"/>
        <path class="cls-4" d="M21,12c0,1.66-.45,3.21-1.23,4.54H4.23c-.78-1.33-1.23-2.89-1.23-4.54s.45-3.21,1.23-4.54h15.53c.78,1.33,1.23,2.89,1.23,4.54Z"/>
      </g>
      <path class="cls-5" d="M15.68,12c0,2.03-1.65,3.68-3.68,3.68s-3.68-1.65-3.68-3.68,1.65-3.68,3.68-3.68,3.68,1.65,3.68,3.68Z"/>
    </g>
  </g>
</svg>