<?xml version="1.0" encoding="UTF-8"?>
<svg id="Layer_1" data-name="Layer 1" xmlns="http://www.w3.org/2000/svg" viewBox="0 0 24 24">
  <defs>
    <style>
      .cls-1 {
        fill: #9d2f38;
      }

      .cls-1, .cls-2, .cls-3, .cls-4 {
        stroke-width: 0px;
      }

      .cls-2 {
        fill: #000;
      }

      .cls-3 {
        fill: none;
      }

      .cls-4 {
        fill: #fff;
      }
    </style>
  </defs>
  <rect class="cls-3" width="24" height="24"/>
  <g>
    <path class="cls-2" d="M16.71,7.34c2.92,2.92,3.18,7.42.57,10.03-2.61,2.61-7.11,2.36-10.03-.57-2.92-2.92-3.18-7.42-.57-10.03,2.61-2.61,7.11-2.35,10.03.57Z"/>
    <g>
      <path class="cls-1" d="M21,12c0,.62-.06,1.23-.18,1.82-.84,4.09-4.48,7.18-8.82,7.18s-7.97-3.09-8.82-7.18c-.12-.59-.18-1.19-.18-1.82s.06-1.23.18-1.82c.84-4.09,4.48-7.18,8.82-7.18s7.97,3.09,8.82,7.18c.12.59.18,1.19.18,1.82Z"/>
      <path class="cls-4" d="M21,12c0,.62-.06,1.23-.18,1.82H3.18c-.12-.59-.18-1.19-.18-1.82s.06-1.23.18-1.82h17.63c.12.59.18,1.19.18,1.82Z"/>
    </g>
  </g>
</svg>