<?xml version="1.0" encoding="UTF-8"?>
<svg id="Layer_1" data-name="Layer 1" xmlns="http://www.w3.org/2000/svg" viewBox="0 0 24 24">
  <defs>
    <style>
      .cls-1 {
        fill: #000;
      }

      .cls-1, .cls-2, .cls-3, .cls-4, .cls-5 {
        stroke-width: 0px;
      }

      .cls-2 {
        fill: #ec1c24;
      }

      .cls-3 {
        fill: none;
      }

      .cls-4 {
        fill: #00a552;
      }

      .cls-5 {
        fill: #fff;
      }
    </style>
  </defs>
  <rect class="cls-3" width="24" height="24"/>
  <g>
    <path class="cls-1" d="M16.71,7.34c2.92,2.92,3.18,7.42.57,10.03-2.61,2.61-7.11,2.35-10.03-.57-2.92-2.92-3.18-7.42-.57-10.03,2.61-2.61,7.11-2.36,10.03.57Z"/>
    <g>
      <g>
        <path class="cls-2" d="M19.79,7.5H4.21c1.56-2.69,4.47-4.5,7.79-4.5s6.23,1.81,7.79,4.5Z"/>
        <path class="cls-2" d="M19.79,16.5c-1.56,2.69-4.47,4.5-7.79,4.5s-6.23-1.81-7.79-4.5h15.59Z"/>
        <path class="cls-5" d="M21,12c0,1.64-.44,3.18-1.21,4.5H4.21c-.77-1.33-1.21-2.86-1.21-4.5s.44-3.18,1.21-4.5h15.59c.77,1.32,1.21,2.86,1.21,4.5Z"/>
      </g>
      <path class="cls-4" d="M16.42,14.71c-.06-.09-.15-.18-.24-.26-.08-.07-.17-.15-.27-.18-.12-.04-.24-.13-.36-.19-.12-.07-.23-.15-.35-.22-.11-.07-.21-.17-.33-.23-.08-.05-.24-.14-.16-.26.03-.04.07-.06.11-.08.07-.03.13-.07.21-.07.1,0,.21.06.3.09.14.05.27.09.41.13.06.02.16.04.16-.05,0-.13-.09-.23-.2-.28-.14-.06-.25-.17-.35-.27-.17-.17-.32-.46-.6-.44-.08,0-.16.03-.24.03-.06,0-.14,0-.18-.05-.02-.03-.02-.07-.02-.1.02-.12.09-.18.21-.18.28,0,.6.04.87-.06.03-.01.07-.03.08-.06.02-.05-.04-.09-.08-.11-.23-.12-.5-.15-.75-.2-.08-.02-.17-.04-.24-.09-.09-.07-.14-.34.04-.3.04,0,.08.03.12.04.14.06.28.09.43.09.11,0,.23-.06.15-.18-.02-.04-.06-.06-.09-.09-.12-.08-.27-.14-.39-.22-.24-.16-.48-.34-.72-.5-.19-.14-.41-.25-.62-.36-.03-.02-.06-.03-.08-.06-.02-.03-.03-.07-.03-.11,0-.04.01-.15.07-.15.01,0,.03,0,.04.01.11.05.22.11.34.14.09.02.18.04.26.04.07,0,.18.02.2-.07.04-.18-.19-.26-.32-.32-.1-.05-.2-.12-.24-.22,0-.02-.01-.04,0-.06.01-.03.05-.02.08-.02.09,0,.18.02.27-.02.12-.05-.01-.14-.06-.19-.06-.06-.12-.11-.18-.16-.18-.14-.38-.28-.6-.33-.22-.04-.43-.04-.63-.15-.11-.06-.22-.15-.31-.24-.04-.05-.08-.1-.12-.16-.04-.06-.08-.11-.12-.17-.03-.05-.06-.11-.09-.16-.01-.03-.03-.1-.06-.12,0,0-.01,0-.02,0,0,0-.01,0-.01,0-.03.02-.08.11-.1.14-.07.1-.13.22-.21.31-.07.07-.52.47-.56.51s-.18.16-.15.2.16-.02.21.03c.05.04.04.15-.04.18-.11.04-.22.11-.32.17-.11.06-.23.12-.33.2-.04.03-.06.08-.07.12,0,.01,0,.02,0,.03,0,.01.02.02.03.03.05.02.1,0,.15.01.02,0,.07,0,.09.03.02.02.04.11.03.14,0,.02-.02.04-.03.05-.04.03-.09.04-.14.05-.05.01-.1.02-.15.04-.03.01-.06.03-.09.04-.04.02-.07.03-.1.06-.05.03-.06.08-.08.14-.02.06-.05.11-.1.15-.07.07-.17.11-.25.16-.12.06-.24.12-.36.18-.1.04-.21.09-.28.17-.07.07-.18.28-.1.31.05.02.12,0,.17-.01.11-.02.23-.06.34-.06.09,0,.22-.04.3.02.04.03.06.11.07.16.02.09.05.2-.03.28-.12.12-.43.39-.57.42-.14.04-.35.14-.41.19-.07.07-.13.14-.2.2-.03.03-.06.06-.1.08-.05.03-.12.04-.15.1-.23.4.03.45.23.35.15-.07.28-.18.45-.22.07-.02.16-.02.23.01.07.04.16.15.12.23-.05.13-.26.18-.38.24-.14.07-.31.15-.39.28-.09.14-.21.24-.33.35-.1.09-.21.18-.34.25-.07.03-.25.12-.25.21,0,.11.21.13.28.12.17-.01.33-.1.48-.17.13-.06.27-.11.39-.18.21-.11.53-.33.77-.19.03.02.06.04.07.07.05.1-.13.23-.19.28-.14.11-.3.2-.46.25-.19.07-.39.1-.58.15-.06.01-.1.03-.15.06-.1.05-.3.09-.21.23.06.1.21.17.33.14.17-.04.34-.08.51-.12.15-.03.31-.05.45-.12.17-.08.32-.18.49-.25.2-.08.57-.19.76-.05.18.14.32.39.21.62-.15.34-.3.54-.55.79-.25.25-.52.38-.64.42-.09.03-.2.04-.28.08-.09.05-.16.18-.11.29.02.03.06.06.09.06.02,0,.04-.01.04-.04.02-.1.12-.24.26-.24s.4.03.64-.11c.19-.11.41-.18.57-.34.07-.07.14-.15.24-.16.06,0,.12.01.18.03.02,0,.05.01.07.01.12,0,.22-.06.34-.06.08,0,.19,0,.25.06.12.11.05.26.32.37.07.03.09.13.16.17.11.07.18-.02.23-.11.03-.06.05-.09.12-.11.12-.02.25,0,.37.04.16.04.3.12.42.22.06.05.11.11.15.17.04.05.07.1.14.1h0c.06,0,.12-.06.13-.13.02-.12-.2-.23-.29-.29-.13-.09-.27-.17-.39-.29-.27-.26-.4-.6-.43-.97-.01-.14,0-.28.03-.41.03-.12.08-.28.18-.36.18-.14.38.08.54.14.13.05.26.07.39.08.15.01.3,0,.46-.01.11,0,.23,0,.34-.01.08-.01.15.02.22.04.22.05.43.13.63.25.2.12.39.27.61.34.07.02.14.03.2-.01.03-.02.05-.05.05-.09,0-.03,0-.05-.02-.08ZM10.16,12.35c-.05.06-.11.05-.25.1-.19.07-.21.14-.3.13-.12-.02-.19-.15-.2-.17,0-.01-.09-.16-.02-.25.03-.04.09-.05.21-.06.08,0,.14,0,.29,0,.24,0,.28.01.3.04.04.05.01.14-.03.2ZM10.25,10.96s-.07.07-.08.08c-.11.05-.24-.06-.26-.07-.02-.02-.08-.07-.1-.16-.01-.04-.03-.1,0-.16.04-.07.15-.07.16-.07.05,0,.08.02.09.02.06.03.09.08.13.15.04.08.07.14.05.2ZM11.95,10.39s-.01.12-.07.16c-.01,0-.09.06-.16.02-.04-.02-.07-.08-.06-.13.01-.07.1-.11.16-.1.02,0,.05,0,.08.02.04.01.06.02.06.03ZM10.68,9.23s.08-.03.12-.01c.05.03.05.11.04.16,0,.01-.03.09-.09.1-.06,0-.11-.05-.12-.11-.01-.05,0-.11.05-.14ZM10.77,13.48c-.02.06-.09.11-.15.1-.07,0-.11-.08-.16-.18,0-.02-.05-.11-.06-.24,0-.1.02-.12.03-.12.03-.02.06,0,.09,0,.08.03.13.08.14.09.04.05.06.1.08.2.02.08.03.12.02.15ZM10.79,10.68c-.03.07-.09.1-.12.11-.04.02-.13.05-.21,0-.06-.04-.07-.12-.07-.13,0-.01,0-.07.03-.11.05-.06.13-.06.17-.06.06,0,.1.02.11.02.03.01.07.03.09.08.01.04,0,.07,0,.08ZM10.7,10.1c-.04-.08.04-.17.05-.19.03-.04.04-.03.23-.15.07-.04.11-.07.13-.05.03.01.03.06.03.1,0,.03,0,.09-.03.16-.05.11-.18.23-.31.21-.01,0-.09-.02-.12-.07ZM10.92,11.8c-.08-.03-.07-.14-.07-.15,0-.02,0-.08.03-.1.04-.01.08.03.1.05.03.03.1.12.07.17-.02.04-.08.05-.13.03ZM11.27,13.57s-.11-.04-.15-.08c-.06-.07-.07-.15-.06-.19,0-.02,0-.03.02-.04.02-.02.06-.01.07,0,.04.01.07.04.08.05.06.06.06.14.06.17,0,.04,0,.08-.02.1ZM11.46,9.55s.08-.06.19-.11c.02-.01.03-.02.04-.02.01,0,.12-.04.19.03.04.05.05.12.03.17-.03.08-.13.11-.19.12-.09.02-.26.03-.29-.05-.03-.06.04-.14.04-.15ZM11.54,11.69c-.06,0-.11-.05-.11-.11,0-.04.02-.08.06-.1.04-.02.08,0,.11.02.04.04.03.09.03.1,0,.04-.04.08-.09.09ZM11.9,13.44s-.1.07-.16.06c-.08-.02-.11-.09-.13-.11-.03-.07-.04-.16,0-.22,0-.01.04-.07.09-.06.02,0,.03.01.07.04.07.05.1.08.1.09.03.04.06.14,0,.21ZM12.14,12.03c-.03.05-.11.08-.17.06-.09-.03-.12-.16-.12-.2,0-.03,0-.06.01-.09,0-.02.01-.05.02-.07,0-.02.01-.06.03-.08.01-.02.03-.03.06-.03.03,0,.05.03.07.06.01.02.03.04.04.07.02.04.04.08.05.12.02.08.03.13,0,.17ZM12.15,9.57s-.02-.1,0-.13c.03-.04.08-.07.13-.06.04,0,.08.03.09.08.01.04-.01.08-.03.1-.01.02-.05.07-.11.07-.05,0-.08-.05-.08-.05ZM12.2,10.51s-.01-.07.03-.12.11-.05.12-.05c.01,0,.07,0,.1.04.05.07-.02.17-.03.18-.02.02-.05.07-.1.07-.06,0-.11-.07-.12-.13ZM12.44,12.05s-.05.05-.09.03c-.04-.01-.05-.06-.05-.09-.01-.05,0-.15.05-.16.03-.01.06,0,.09.02.02.02.02.03.03.05,0,0,.03.09-.02.15ZM12.62,9.63s-.05-.13,0-.17c.02-.02.05-.02.08-.03.04,0,.1-.02.13.01.03.03.03.07.03.09,0,.02,0,.07-.02.1-.04.06-.17.07-.22,0ZM13.22,10.73c-.03.06-.09.08-.14.09-.03.01-.14.04-.24-.02-.01,0-.12-.08-.11-.17.01-.11.18-.16.22-.17.03-.01.07-.02.12,0,.09.02.13.11.14.11,0,.02.04.09.01.16ZM13.51,11.25c.04-.05.1-.07.15-.07.06,0,.1.05.11.06.04.04.05.11.03.17-.02.06-.08.11-.15.11-.09,0-.15-.08-.16-.14,0-.01-.02-.07.02-.13ZM13.84,12.93c-.05.05-.1.06-.2.08-.08.02-.15.03-.22,0-.04-.01-.12-.04-.14-.11-.02-.07.03-.13.04-.14.02-.03.07-.04.16-.07.1-.04.16-.04.17-.04.03,0,.03,0,.06,0,.08-.01.1-.03.13-.02.06.02.08.1.08.11.02.1-.06.18-.06.19ZM14.54,13.19c-.09.07-.16.14-.24.11s-.12-.11-.12-.13c0-.01-.03-.09,0-.18.03-.08.1-.12.15-.14.05-.03.18-.09.28-.02.05.03.08.1.08.16,0,.08-.06.12-.14.19Z"/>
    </g>
  </g>
</svg>