<?xml version="1.0" encoding="UTF-8"?>
<svg id="Layer_1" data-name="Layer 1" xmlns="http://www.w3.org/2000/svg" viewBox="0 0 24 24">
  <defs>
    <style>
      .cls-1 {
        fill: #000;
      }

      .cls-1, .cls-2, .cls-3, .cls-4, .cls-5 {
        stroke-width: 0px;
      }

      .cls-2 {
        fill: none;
      }

      .cls-3 {
        fill: #07219d;
      }

      .cls-4 {
        fill: #fff;
      }

      .cls-5 {
        fill: #009444;
      }
    </style>
  </defs>
  <rect class="cls-2" width="24" height="24"/>
  <g>
    <path class="cls-1" d="M16.71,7.34c2.92,2.92,3.18,7.42.57,10.03-2.61,2.61-7.11,2.35-10.03-.57-2.92-2.92-3.18-7.42-.57-10.03,2.61-2.61,7.11-2.35,10.03.57Z"/>
    <g>
      <g>
        <path class="cls-5" d="M20.25,15.59c-.14.31-.29.62-.46.91-1.56,2.69-4.47,4.5-7.79,4.5s-6.23-1.81-7.79-4.5c-.17-.29-.33-.6-.46-.91h16.51Z"/>
        <path class="cls-4" d="M21,12c0,1.28-.27,2.49-.75,3.59H3.75c-.48-1.1-.75-2.31-.75-3.59s.27-2.49.75-3.59h16.51c.48,1.1.75,2.32.75,3.59Z"/>
        <path class="cls-3" d="M20.25,8.41H3.75c.14-.31.29-.62.46-.91,1.56-2.69,4.47-4.5,7.79-4.5s6.23,1.81,7.79,4.5c.17.29.32.6.46.91Z"/>
      </g>
      <path class="cls-1" d="M14.4,13.46l-.16.08s-.09.04-.13.06l-1.35-1.84c.28-.57.37-1.05.4-1.2.04-.17.16-.77-.21-1.27-.23-.31-.53-.41-.73-.44-.03-.09-.11-.15-.21-.15s-.18.06-.21.15c-.2.03-.5.13-.73.44-.37.5-.25,1.11-.21,1.27.03.15.12.63.4,1.2l-1.35,1.84s-.09-.04-.13-.06l-.16-.08-.56,1.09.16.08c.86.44,1.83.67,2.79.67s1.93-.23,2.79-.67l.16-.08-.56-1.09ZM12.22,9.15c.14.03.33.11.48.31.19.26.25.63.16,1.03,0,.01,0,.03-.01.05-.03.16-.11.51-.3.95l-.25-.34v-.64h.34l-.42-.42v-.93ZM11.15,10.54s0-.03-.01-.05c-.09-.4-.03-.77.16-1.03.15-.2.34-.28.48-.31v.93l-.42.42h.34v.64l-.25.34c-.19-.43-.27-.79-.3-.95ZM9.77,13.95l.09.27-.28.09.19-.36ZM9.67,14.45l.25-.07.07.2c-.11-.04-.21-.08-.32-.13ZM10.02,13.92c.14.06.28.11.42.16l.09.2-.34.1-.16-.45ZM10.29,14.68l-.05-.15.36-.11.17.38c-.16-.03-.32-.08-.47-.12ZM10.76,14.17c.13.03.27.06.4.09l.11.17-.35.11-.16-.37ZM11.06,14.86l-.07-.17.37-.11.21.35c-.17-.01-.34-.03-.51-.06ZM11.49,14.3c.21.02.41.03.62.03l.07.11-.51.16-.18-.3ZM11.88,14.94l-.12-.19.52-.16.22.34c-.2.02-.41.02-.61.02ZM12.4,14.31c.16-.01.33-.03.49-.06l.09.13-.41.2-.17-.26ZM12.77,14.89l-.11-.17.42-.21.21.28c-.17.04-.35.07-.52.09ZM13.16,14.19c.15-.04.29-.08.43-.13l.1.15-.34.23-.19-.25ZM13.56,14.73l-.11-.15.34-.23.17.25c-.13.05-.26.09-.4.13ZM13.84,13.97c.11-.04.22-.09.33-.14l.09.17-.22.27-.2-.3ZM14.2,14.51l-.06-.08.21-.26.12.22c-.09.04-.18.08-.27.12Z"/>
    </g>
  </g>
</svg>