<?xml version="1.0" encoding="UTF-8"?>
<svg id="Layer_1" data-name="Layer 1" xmlns="http://www.w3.org/2000/svg" viewBox="0 0 24 24">
  <defs>
    <style>
      .cls-1 {
        fill: #002868;
      }

      .cls-1, .cls-2, .cls-3, .cls-4, .cls-5 {
        stroke-width: 0px;
      }

      .cls-2 {
        fill: #000;
      }

      .cls-3 {
        fill: #bf0a30;
      }

      .cls-4 {
        fill: none;
      }

      .cls-5 {
        fill: #fff;
      }
    </style>
  </defs>
  <rect class="cls-4" width="24" height="24"/>
  <g>
    <path class="cls-2" d="M16.71,7.34c2.92,2.92,3.18,7.42.57,10.03-2.61,2.61-7.11,2.36-10.03-.57-2.92-2.92-3.18-7.42-.57-10.03,2.61-2.61,7.11-2.36,10.03.57Z"/>
    <g>
      <g>
        <path class="cls-5" d="M12,14.45H3.34c.16.57.38,1.12.64,1.64h16.03c.27-.52.48-1.07.64-1.64h-8.66Z"/>
        <path class="cls-3" d="M12,16.09H3.99c.3.59.66,1.13,1.08,1.64h13.87c.42-.5.78-1.05,1.08-1.64h-8.02Z"/>
        <path class="cls-3" d="M12,19.36h-5.17c1.46,1.03,3.25,1.64,5.17,1.64h0c1.92,0,3.71-.61,5.17-1.64h-5.17Z"/>
        <path class="cls-5" d="M12,17.73h-6.94c.51.62,1.11,1.17,1.77,1.64h10.34c.66-.46,1.25-1.02,1.77-1.64h-6.94Z"/>
        <path class="cls-3" d="M12,12.82H3.04c.05.56.15,1.11.3,1.64h17.32c.15-.53.25-1.07.3-1.64h-8.96Z"/>
        <path class="cls-3" d="M17.17,4.64c-1.46-1.03-3.25-1.64-5.17-1.64h0v1.64h5.17Z"/>
        <path class="cls-5" d="M12,9.55h8.66c-.16-.57-.38-1.12-.64-1.64h-8.02v1.64Z"/>
        <path class="cls-3" d="M12,7.91h8.02c-.3-.59-.66-1.13-1.08-1.64h-6.94v1.64Z"/>
        <path class="cls-5" d="M12,6.27h6.94c-.51-.62-1.11-1.17-1.77-1.64h-5.17v1.64Z"/>
        <path class="cls-3" d="M12,11.18h8.96c-.05-.56-.15-1.11-.3-1.64h-8.66v1.64Z"/>
        <path class="cls-1" d="M6.83,4.64c-.66.46-1.25,1.02-1.77,1.64-.42.5-.78,1.05-1.08,1.64-.27.52-.48,1.07-.64,1.64-.15.53-.25,1.07-.3,1.64h8.96V3c-1.92,0-3.71.61-5.17,1.64Z"/>
        <path class="cls-5" d="M20.96,11.18H3.04c-.02.27-.04.54-.04.82s.01.55.04.82h17.93c.02-.27.04-.54.04-.82s-.01-.55-.04-.82Z"/>
      </g>
      <polygon class="cls-5" points="8.13 5.29 8.68 6.97 10.44 6.97 9.01 8.01 9.56 9.68 8.13 8.65 6.71 9.68 7.25 8.01 5.83 6.97 7.59 6.97 8.13 5.29"/>
    </g>
  </g>
</svg>