<?xml version="1.0" encoding="UTF-8"?>
<svg id="Layer_1" data-name="Layer 1" xmlns="http://www.w3.org/2000/svg" viewBox="0 0 24 24">
  <defs>
    <style>
      .cls-1 {
        fill: #e70013;
      }

      .cls-1, .cls-2, .cls-3, .cls-4, .cls-5 {
        stroke-width: 0px;
      }

      .cls-2 {
        fill: #000;
      }

      .cls-3 {
        fill: none;
      }

      .cls-4 {
        fill: #fff;
      }

      .cls-5 {
        fill: #239e46;
      }
    </style>
  </defs>
  <rect class="cls-3" width="24" height="24"/>
  <g>
    <path class="cls-2" d="M16.71,7.34c2.92,2.92,3.18,7.42.57,10.03-2.61,2.61-7.11,2.35-10.03-.57-2.92-2.92-3.18-7.42-.57-10.03,2.61-2.61,7.11-2.36,10.03.57Z"/>
    <g>
      <g>
        <path class="cls-1" d="M19.79,7.5H4.21c1.56-2.69,4.47-4.5,7.79-4.5s6.23,1.81,7.79,4.5Z"/>
        <path class="cls-5" d="M19.79,16.5c-1.56,2.69-4.47,4.5-7.79,4.5s-6.23-1.81-7.79-4.5h15.58Z"/>
        <path class="cls-2" d="M21,12c0,1.64-.44,3.18-1.21,4.5H4.21c-.77-1.32-1.21-2.86-1.21-4.5s.44-3.18,1.21-4.5h15.58c.77,1.32,1.21,2.86,1.21,4.5Z"/>
      </g>
      <g>
        <path class="cls-4" d="M11.52,13.95c-1.08,0-1.95-.87-1.95-1.95s.87-1.95,1.95-1.95c.46,0,.89.16,1.23.43-.41-.46-1.01-.75-1.68-.75-1.25,0-2.26,1.01-2.26,2.26s1.01,2.27,2.26,2.27c.67,0,1.27-.29,1.68-.75-.34.27-.76.44-1.23.44Z"/>
        <polygon class="cls-4" points="13.33 10.41 14.04 11.39 15.2 11.02 14.48 12 15.2 12.98 14.04 12.61 13.33 13.59 13.33 12.38 12.18 12 13.33 11.63 13.33 10.41"/>
      </g>
    </g>
  </g>
</svg>