<?xml version="1.0" encoding="UTF-8"?>
<svg id="Layer_1" data-name="Layer 1" xmlns="http://www.w3.org/2000/svg" viewBox="0 0 24 24">
  <defs>
    <style>
      .cls-1 {
        fill: #000;
      }

      .cls-1, .cls-2, .cls-3, .cls-4, .cls-5 {
        stroke-width: 0px;
      }

      .cls-2 {
        fill: #fed742;
      }

      .cls-3 {
        fill: none;
      }

      .cls-4 {
        fill: #cd1225;
      }

      .cls-5 {
        fill: #042b7d;
      }
    </style>
  </defs>
  <rect class="cls-3" width="24" height="24"/>
  <g>
    <path class="cls-1" d="M16.71,7.34c2.92,2.92,3.18,7.42.57,10.03-2.61,2.61-7.11,2.36-10.03-.57-2.92-2.92-3.18-7.42-.57-10.03,2.61-2.61,7.11-2.36,10.03.57Z"/>
    <g>
      <g>
        <path class="cls-5" d="M21,12H3c0-.06,0-.12,0-.18,0,0,0-.01,0-.02,0,0,0-.01,0-.02,0-.18.01-.36.03-.54,0,0,0-.02,0-.02s0-.02,0-.02c0-.06.01-.12.02-.18,0,0,0-.02,0-.02h0s0-.02,0-.02c.14-1.25.54-2.42,1.14-3.46.23-.4.48-.77.77-1.13,1.65-2.06,4.18-3.38,7.02-3.38s5.38,1.32,7.02,3.38c.29.35.54.73.77,1.13.44.75.77,1.58.97,2.45v.02s.01.02.01.02c.05.21.08.41.12.62,0,0,0,.01,0,.02,0,0,0,.01,0,.02.05.36.08.73.09,1.11,0,0,0,.01,0,.02,0,0,0,.01,0,.02,0,.06,0,.12,0,.18Z"/>
        <path class="cls-4" d="M21,12s0,.09,0,.13v.06s0,0,0,.01c0,0,0,.01,0,.02,0,.35-.04.71-.09,1.05,0,.04-.01.07-.02.11-.02.11-.04.23-.06.34,0,.02,0,.03-.01.05h0s0,.04-.01.05c-.2.95-.55,1.85-1.02,2.66-.23.4-.49.77-.77,1.13-1.65,2.06-4.18,3.37-7.02,3.37s-5.38-1.32-7.02-3.37c-.28-.36-.54-.73-.77-1.13-.45-.78-.79-1.64-.99-2.56,0-.02-.01-.03-.01-.05,0-.02,0-.03-.01-.05-.07-.33-.12-.66-.15-1,0-.03,0-.06,0-.09h0c-.02-.17-.03-.35-.03-.53,0,0,0-.02,0-.02,0,0,0-.01,0-.02,0-.04,0-.08,0-.13,0,0,0-.01,0-.02v-.03h18Z"/>
      </g>
      <g>
        <path class="cls-2" d="M9.6,6.77h.55c-.04.12-.14.2-.27.2s-.24-.08-.27-.2Z"/>
        <path class="cls-2" d="M10.14,6.58h-.17v-.16c.08.03.14.08.17.16Z"/>
        <path class="cls-2" d="M9.78,6.42v.16h-.17c.03-.07.09-.13.17-.16Z"/>
        <path class="cls-2" d="M10.16,6.69s0,.03,0,.05h-.56s0-.03,0-.05c0-.02,0-.05.01-.07h.2s.02,0,.02-.02v-.19s.04,0,.06,0,.04,0,.06,0v.19s0,.02.02.02h.2s.01.05.01.07Z"/>
        <path class="cls-2" d="M9.87,6.09l.14.26-.03.04s-.07-.02-.12-.02-.08,0-.12.02l-.03-.04.14-.26Z"/>
        <polygon class="cls-2" points="10.39 5.94 10.19 6.07 10.02 5.94 10.19 5.82 10.39 5.94"/>
        <polygon class="cls-2" points="9.87 5.32 10.02 5.58 9.87 5.8 9.73 5.58 9.87 5.32"/>
        <circle class="cls-2" cx="9.87" cy="5.94" r=".09"/>
        <path class="cls-1" d="M12.92,8.76c-.19-.14-.37-.2-.55-.18,0,0,0,0,0-.01.02-.05.05-.1.07-.16,0,.09.08.17.18.17s.17-.08.17-.18c0-.06-.03-.12-.08-.15.09-.01.16-.08.16-.17,0-.08-.05-.15-.13-.17.07-.02.12-.09.12-.17,0-.09-.08-.17-.17-.17.04-.03.07-.08.07-.14,0-.1-.08-.18-.17-.18-.02,0-.05,0-.06.01.03-.03.04-.07.04-.12,0-.1-.08-.18-.18-.18-.04,0-.08.02-.12.04,0-.01.01-.03.01-.05,0-.09-.08-.17-.18-.17-.06,0-.11.03-.14.07,0-.09-.08-.17-.17-.17-.07,0-.13.04-.16.09-.02-.07-.09-.13-.17-.13-.07,0-.14.05-.16.11-.03-.05-.09-.09-.15-.09-.09,0-.16.07-.17.15-.03-.05-.09-.09-.15-.09-.09,0-.17.07-.17.17-.03-.05-.09-.09-.15-.09-.1,0-.18.08-.18.17,0,0,0,.01,0,.01-.02-.07-.09-.12-.17-.12-.02,0-.04,0-.05,0,.05-.06.08-.13.08-.22,0-.03,0-.07-.02-.1h0c-.03-.08-.08-.15-.16-.19l.03-.04s0-.01,0-.02l-.15-.27s.09-.05.1-.09l.18.13s0,0,.01,0c0,0,0,0,0,0l.24-.15s0,0,0,0h0s0,0,0,0h0s0-.01,0-.01h0s0,0,0,0t0,0l-.24-.15s-.01,0-.02,0l-.18.13s-.05-.08-.1-.09l.15-.23s0-.01,0-.02l-.17-.3h0s0,0,0,0h0s0,0,0,0h0s0,0,0,0t0,0s0,0,0,0h0s0,0,0,0h0s0,0,0,0h0s-.16.3-.16.3c0,0,0,.01,0,.02l.15.23s-.08.05-.09.09l-.18-.13s-.01,0-.02,0l-.24.15s0,0,0,0h0s0,0,0,0h0v.02s0,0,0,0l.24.15s0,0,0,0c0,0,0,0,.01,0l.18-.13s.05.08.1.09l-.15.27s0,.01,0,.02l.03.04c-.07.04-.13.11-.15.18h0s-.02.07-.02.1c0,.08.03.16.08.22-.02,0-.04,0-.05,0-.08,0-.14.05-.17.12h0c0-.11-.08-.19-.17-.19-.06,0-.12.03-.15.09,0-.09-.08-.17-.17-.17-.07,0-.13.04-.16.09-.01-.08-.08-.15-.17-.15-.06,0-.12.03-.15.09-.03-.06-.09-.11-.16-.11-.08,0-.15.05-.17.13-.03-.06-.09-.09-.16-.09-.09,0-.17.07-.17.17-.03-.04-.08-.07-.14-.07-.09,0-.18.08-.18.17,0,.02,0,.04.01.05-.03-.03-.07-.04-.12-.04-.1,0-.17.08-.17.18,0,.04.02.08.04.12-.02,0-.04-.01-.06-.01-.1,0-.18.08-.18.18,0,.06.03.11.07.14-.09,0-.17.08-.17.17,0,.08.05.15.12.17-.07.02-.13.09-.13.17,0,.09.07.16.16.17-.05.03-.08.08-.08.15,0,.1.08.18.18.18.09,0,.17-.07.17-.17.02.06.04.11.07.16,0,0,0,0,0,.01-.18-.03-.36.03-.55.18,0,0,0,0,0,.01,0,0,0,0,0,.01.18.2.3.48.39.71.01.03.03.07.04.12.07.2.16.47.31.65.07.08.15.14.23.16.16.05.79.22,2.08.22s1.92-.17,2.08-.22c.08-.02.16-.08.23-.16.15-.18.24-.45.31-.65.02-.04.03-.08.04-.12.09-.23.2-.51.39-.71,0,0,0,0,0-.01,0,0,0-.01,0-.01ZM10.19,5.82l.2.12-.2.12-.17-.12.17-.12ZM9.56,6.07l-.2-.12.2-.12.17.12-.17.12ZM12.35,8.56c-.08.05-.18.07-.27.09.05-.07.09-.14.12-.23.03-.08.06-.17.08-.25.02-.09.03-.18.03-.27,0-.16-.03-.31-.11-.41,0-.01-.02-.02-.03-.03-.04-.04-.08-.08-.13-.11-.05-.03-.1-.06-.16-.08-.04-.02-.08-.03-.13-.04-.01,0-.02,0-.03,0-.05-.01-.1-.02-.15-.02-.05,0-.1,0-.15,0-.05,0-.1,0-.15.01-.02,0-.03,0-.05,0-.01,0-.03,0-.04,0h0s-.03,0-.05,0c-.04,0-.09.02-.15.03-.05.01-.11.02-.15.04l-.15.04-.15.04s-.1.02-.15.03c0,0-.01,0-.02,0-.06.01-.11.02-.16.03-.06,0-.12.02-.18.02-.01,0-.03,0-.04,0,.02-.02.03-.05.03-.08s-.01-.06-.03-.08c.01,0,.02,0,.04,0,.07,0,.13,0,.18-.01.06,0,.12-.01.18-.03.03,0,.05-.01.08-.02l.07-.02c.05-.01.1-.02.15-.04.05-.01.1-.02.15-.04.05-.01.1-.02.15-.03.26-.05.57-.1.88,0,.24.07.43.22.52.4.2.39.09.79-.04,1.05ZM11.8,8.65s.11.04.16.04c.04,0,.08,0,.12-.01.03,0,.05-.01.08-.02-.17.09-.28.25-.34.34,0-.13-.02-.27-.07-.4h0s.03.03.05.04ZM11.75,8.56v-1.31s0,0,0,0c.04,0,.07.02.11.04v1.36s-.03-.01-.05-.02c-.03-.02-.05-.04-.07-.06ZM11.9,8.65v-1.35s.08.04.12.06v1.29s-.08,0-.12,0ZM12.05,8.62v-1.23s.07.05.09.08c0,.01.01.02.02.03v.91c-.03.08-.07.15-.12.21ZM12.21,8.31v-.75c.07.12.07.26.07.34,0,.14-.03.28-.07.42ZM11.72,7.23v1.28l-.02-.02s-.03-.03-.04-.04c0,0,0-.01-.01-.01-.01-.02-.03-.03-.04-.04v-1.19s.08.01.12.02ZM11.57,7.21v1.17s-.07-.03-.11-.04v-1.13s.08,0,.11,0ZM11.41,7.21v1.12h-.05s-.04,0-.06,0v-1.12s.08,0,.12,0ZM11.26,7.23v1.12s-.08.01-.12.02v-1.11s.03-.01.03-.01c.02,0,.03,0,.05,0,.01,0,.02,0,.03,0ZM8.76,8.44c.11.03.21.05.31.06h0s.04,0,.06,0c.04,0,.07,0,.1-.02t0,0c.08-.03.14-.09.19-.16-.02.07-.04.14-.06.21-.09.1-.15.23-.17.4-.02-.03-.05-.07-.1-.12-.01-.01-.02-.03-.03-.03-.07-.09-.13-.15-.2-.21-.06-.05-.14-.11-.23-.16.04.01.09.02.13.03ZM8.63,8.37v-1.11s.07.03.12.04v1.09s-.08-.02-.12-.03ZM9.38,7.69h0c-.04-.05-.09-.11-.15-.16h0s0,0-.01-.01c-.08-.07-.19-.13-.29-.18-.05-.02-.1-.05-.14-.07.05.01.1.02.13.03l.15.04c.05.01.1.03.15.04.04.01.1.02.15.03,0,0,.01,0,.02,0,.05.01.1.02.14.02,0,.12-.01.28-.04.46-.02-.07-.05-.14-.1-.21ZM9.46,8.09s-.03.12-.07.2v-.52c.07.12.09.24.07.32ZM9.35,7.71v.63s-.07.07-.12.09v-.85s.08.08.12.13ZM9.2,7.56v.89s-.05.01-.08.01h-.04v-.98s.08.05.11.08c0,0,0,0,0,0ZM9.05,7.45v1s-.08-.01-.12-.02v-1.05s.08.04.12.06ZM8.9,7.38v1.06s-.08-.02-.11-.03v-1.08s.07.03.11.05ZM9.49,8.1s0,0,0,0h0s0-.01,0-.02c.04-.24.06-.46.06-.62.05,0,.09.01.14.02,0,.24-.04.58-.12.89-.05.02-.11.05-.16.09,0,0,0,0-.01.01.03-.11.06-.24.08-.37ZM9.74,7.48h.07s-.07.07-.07.13c0,.06.04.11.09.13-.06.02-.11.08-.11.15,0,.06.03.11.08.13-.07.03-.11.09-.11.17,0,.06.03.12.08.15-.04,0-.09.01-.15.02.08-.31.11-.64.12-.88ZM9.99,7.05s-.03-.04-.05-.05c.03,0,.05-.01.08-.03-.01.02-.02.05-.03.08ZM10.12,7.24s-.06,0-.1,0c-.02,0-.05,0-.07,0,0,0-.01,0-.01,0,.04-.02.06-.05.07-.09.02.05.06.08.11.09ZM9.97,7.12c0,.05-.04.1-.1.1s-.1-.04-.1-.1.04-.1.1-.1.1.05.1.1ZM9.76,7.05s-.01-.05-.03-.08c.02.01.05.02.08.03-.02.01-.04.03-.05.05ZM9.74,7.15s.03.08.07.09c0,0-.01,0-.01,0-.02,0-.05,0-.07,0-.03,0-.07,0-.1,0,.05-.01.09-.05.11-.09ZM9.81,7.29s.04,0,.06,0h0s.04,0,.06,0c.02.02.03.04.03.08,0,.04-.02.07-.05.09-.02,0-.03,0-.05,0s-.03,0-.05,0c-.03-.02-.05-.05-.05-.09,0-.03.01-.06.03-.08ZM9.77,7.6c0-.06.04-.1.1-.1s.1.04.1.1-.04.1-.1.1-.1-.04-.1-.1ZM9.99,7.88c0,.06-.05.12-.12.12s-.12-.05-.12-.12.05-.12.12-.12.12.05.12.12ZM9.72,8.18c0-.08.07-.15.15-.15s.15.07.15.15-.07.15-.15.15-.15-.07-.15-.15ZM10.06,8.18c0-.08-.04-.14-.11-.17.05-.03.08-.07.08-.13,0-.07-.05-.13-.11-.15.05-.02.09-.07.09-.13,0-.05-.03-.09-.07-.12h.07c.01.23.04.56.12.87-.05-.01-.1-.02-.15-.02.05-.03.08-.09.08-.15ZM10.04,7.47s.1-.01.15-.02c0,.16.02.38.06.62,0,0,0,0,0,0h0c.02.15.05.27.09.38,0,0,0,0-.01-.01-.05-.04-.11-.07-.16-.09-.08-.31-.11-.65-.12-.89ZM10.82,7.35h0c-.1.05-.21.11-.29.18,0,0,0,0-.01.01-.06.05-.11.1-.15.16h0c-.05.07-.09.15-.1.21-.02-.18-.03-.34-.04-.46.04,0,.09-.01.14-.02,0,0,.01,0,.02,0,.05-.01.11-.02.15-.03.05-.01.1-.02.15-.04l.15-.04s.08-.02.13-.03c-.05.02-.1.04-.14.07ZM10.96,7.32v1.08s-.08.02-.12.03v-1.06s.08-.04.12-.05ZM10.81,7.39v1.05s-.07.01-.11.02v-1s.08-.04.11-.06ZM10.66,7.48v.98h-.04s-.05,0-.08-.01v-.89s0,0,0,0c.03-.03.07-.05.11-.08ZM10.51,7.59v.85s-.08-.06-.12-.09v-.63s.07-.08.12-.13ZM10.28,8.08c-.01-.08,0-.2.07-.32v.52c-.04-.08-.06-.17-.07-.2h0s0,0,0,0ZM10.33,8.31c.04.07.11.14.19.16t0,0s.06.02.1.02c.02,0,.04,0,.05,0h0c.1,0,.2-.03.31-.06.04-.01.09-.02.13-.03-.09.04-.17.11-.23.16-.06.06-.13.13-.2.21,0,0-.02.02-.03.03-.04.05-.07.08-.1.12-.02-.17-.08-.31-.17-.4-.02-.06-.04-.13-.06-.21ZM11,8.4v-1.09s.08-.03.12-.04v1.11s-.08.02-.12.03ZM11.83,7.05s.08-.03.1-.06c0,.04.02.08.05.12-.03-.01-.07-.03-.11-.04-.01,0-.03,0-.04-.01ZM12.25,7.27s-.1-.08-.16-.12c0,0,.01,0,.02,0,.04,0,.08-.02.12-.04,0,.02,0,.03,0,.05,0,.04.01.08.04.11ZM12.41,7.47c-.03-.06-.07-.12-.12-.17.03.02.06.03.1.03.02,0,.04,0,.06-.01-.03.03-.04.07-.04.12,0,.01,0,.02,0,.03ZM12.52,7.82c.02.05.06.09.12.11-.05.01-.09.05-.11.1,0-.07,0-.14,0-.2ZM12.6,8.23s-.09.03-.12.06c.02-.06.03-.12.04-.18,0,.05.04.09.08.11ZM12.51,7.75c-.01-.06-.03-.13-.06-.19.03.04.08.06.13.06-.04.03-.07.08-.07.13ZM12.76,8.41c0,.08-.06.14-.14.14s-.14-.06-.14-.14.06-.14.14-.14.14.06.14.14ZM12.83,8.09c0,.08-.06.14-.14.14s-.14-.06-.14-.14.06-.14.14-.14.14.06.14.14ZM12.82,7.75c0,.08-.06.14-.14.14s-.14-.06-.14-.14.06-.14.14-.14.14.06.14.14ZM12.59,7.3c.07,0,.14.06.14.14s-.06.14-.14.14-.14-.06-.14-.14.06-.14.14-.14ZM12.39,7.02c.08,0,.14.06.14.14s-.06.14-.14.14-.14-.06-.14-.14.06-.14.14-.14ZM12.11,6.84c.08,0,.14.06.14.14s-.06.14-.14.14-.14-.06-.14-.14.06-.14.14-.14ZM11.79,6.74c.08,0,.14.06.14.14s-.06.14-.14.14-.14-.06-.14-.14.06-.14.14-.14ZM11.69,7.02c-.05,0-.1-.01-.15-.01.04-.02.07-.04.09-.08,0,.04.03.07.06.1ZM11.47,6.71c.08,0,.14.06.14.14s-.06.14-.14.14-.14-.06-.14-.14.06-.14.14-.14ZM11.32,6.93s.05.06.08.07c-.05,0-.11,0-.16.01.04-.02.06-.05.08-.09ZM11.16,6.73c.08,0,.14.06.14.14s-.06.14-.14.14-.14-.06-.14-.14.06-.14.14-.14ZM11,6.95s.07.08.12.09c-.05,0-.1.02-.14.03-.02,0-.04.01-.06.01.05-.03.08-.07.09-.13ZM10.83,6.79c.08,0,.14.06.14.14s-.06.14-.14.14-.14-.06-.14-.14.06-.14.14-.14ZM10.68,7.01c.03.05.08.08.14.09-.05.01-.1.02-.15.04-.03,0-.06.02-.09.02.06-.03.09-.08.1-.15ZM10.5,6.86c.08,0,.14.06.14.14s-.06.14-.14.14-.14-.06-.14-.14.06-.14.14-.14ZM10.34,7.07h0c.02.06.09.11.17.11h-.05s-.05.02-.08.03c-.04,0-.09.01-.13.02.05-.03.09-.09.09-.16ZM10.16,6.94c.08,0,.14.06.14.14s-.06.14-.14.14-.14-.06-.14-.14.06-.14.14-.14ZM10.14,6.58h-.17v-.16c.08.03.14.08.17.16ZM9.73,5.58l.14-.26.14.26-.14.22-.14-.22ZM9.78,5.94c0-.05.04-.09.09-.09s.09.04.09.09-.04.09-.09.09-.09-.04-.09-.09ZM9.87,6.09l.14.26-.03.04s-.08-.02-.12-.02-.08,0-.12.02l-.03-.04.14-.26ZM9.78,6.42v.16h-.17c.03-.07.09-.13.17-.16ZM9.59,6.69s0-.05.01-.07h.2s.02,0,.02-.02v-.19s.04,0,.06,0,.04,0,.06,0v.19s0,.02.02.02h.2s.01.05.01.07c0,.02,0,.03,0,.05h-.56s0-.03,0-.05ZM9.6,6.77h.55c-.04.12-.14.2-.27.2s-.24-.08-.27-.2ZM9.58,6.94c.08,0,.14.06.14.14s-.06.14-.14.14-.14-.06-.14-.14.06-.14.14-.14ZM9.41,7.06h0c0,.08.04.14.09.17-.04,0-.08-.01-.13-.02-.03,0-.05-.01-.08-.02h-.05c.08-.01.14-.06.17-.13ZM9.24,6.86c.08,0,.14.06.14.14s-.06.14-.14.14-.14-.06-.14-.14.06-.14.14-.14ZM9.17,7.16s-.06-.01-.09-.02l-.15-.04c.06,0,.11-.04.14-.09,0,.06.04.12.1.15ZM8.92,6.79c.08,0,.14.06.14.14s-.06.14-.14.14-.14-.06-.14-.14.06-.14.14-.14ZM8.83,7.08s-.04-.01-.06-.01c-.04-.01-.09-.02-.14-.03.05-.01.09-.04.12-.09,0,.06.04.1.09.13ZM8.59,6.73c.08,0,.14.06.14.14s-.06.14-.14.14-.14-.06-.14-.14.06-.14.14-.14ZM8.51,7.02c-.05,0-.11-.01-.16-.01.04-.02.06-.04.08-.07.02.04.04.07.08.09ZM8.28,6.71c.08,0,.14.06.14.14s-.06.14-.14.14-.14-.06-.14-.14.06-.14.14-.14ZM8.12,6.93s.05.07.09.08c-.05,0-.1,0-.15.01.03-.02.05-.06.07-.1ZM7.95,6.74c.08,0,.14.06.14.14s-.06.14-.14.14-.14-.06-.14-.14.06-.14.14-.14ZM7.81,6.99s.06.06.1.06h-.04s-.07.04-.11.05c.03-.03.05-.07.05-.12ZM7.64,6.84c.08,0,.14.06.14.14s-.06.14-.14.14-.14-.06-.14-.14.06-.14.14-.14ZM7.52,7.11s.07.04.12.04c0,0,.01,0,.02,0-.06.03-.11.07-.16.12.02-.03.04-.07.04-.11,0-.02,0-.04,0-.05ZM7.22,7.16c0-.08.06-.14.14-.14s.14.06.14.14-.06.14-.14.14-.14-.06-.14-.14ZM7.29,7.32s.04.01.06.01c.04,0,.07-.01.1-.03-.05.05-.09.11-.13.17,0-.01,0-.02,0-.03,0-.05-.02-.09-.04-.12ZM7.02,7.44c0-.08.06-.14.14-.14s.14.06.14.14-.06.14-.14.14-.14-.06-.14-.14ZM7.21,8.02s-.06-.08-.11-.1c.05-.02.09-.05.11-.11-.01.07-.01.14,0,.2ZM7.22,8.12c0,.06.02.12.04.18-.03-.03-.07-.06-.12-.06.04-.02.07-.06.08-.11ZM7.17,7.61c.05,0,.1-.02.13-.06-.03.06-.04.13-.06.19,0-.05-.03-.1-.07-.13ZM6.92,7.75c0-.07.06-.14.14-.14s.14.06.14.14-.06.14-.14.14-.14-.06-.14-.14ZM6.92,8.09c0-.08.06-.14.14-.14s.14.06.14.14-.06.14-.14.14-.14-.06-.14-.14ZM7.13,8.55c-.08,0-.14-.06-.14-.14s.06-.14.14-.14.14.06.14.14-.06.14-.14.14ZM7.36,7.5c.09-.19.28-.33.52-.4.32-.09.62-.05.88,0,.05.01.1.02.15.03l.15.04c.05.01.1.03.15.04l.07.02s.05.01.08.02c.06.01.12.02.18.03s.12.01.18.01c.01,0,.02,0,.04,0-.02.02-.02.05-.02.08s.01.06.03.08c-.01,0-.03,0-.04,0-.06,0-.12-.02-.18-.02-.05,0-.1-.02-.16-.03,0,0-.01,0-.02,0-.05-.01-.11-.02-.15-.03l-.15-.04-.15-.04s-.1-.02-.15-.04c-.06-.01-.11-.02-.15-.03-.02,0-.03,0-.05,0h0s-.03,0-.04,0c-.02,0-.04,0-.05,0-.05,0-.1-.01-.15-.01-.05,0-.1,0-.15,0-.05,0-.11.01-.15.02,0,0-.02,0-.03,0-.04.01-.08.03-.13.04-.05.02-.11.05-.15.08-.05.03-.09.07-.13.11-.01.01-.02.02-.03.03-.08.1-.12.25-.11.41,0,.18.04.36.11.52.03.08.07.16.12.23-.03,0-.07-.01-.1-.02h0c-.06-.01-.11-.03-.16-.07-.13-.27-.24-.66-.04-1.05ZM8.6,7.25v1.11s-.08-.01-.11-.02v-1.12s.02,0,.03,0c.01,0,.03,0,.05,0,0,0,.02,0,.03.01ZM8.45,7.22v1.12s-.04,0-.06,0h-.05v-1.12s.07,0,.12,0ZM8.29,7.21v1.13s-.08.02-.12.04v-1.17s.07,0,.12,0ZM8.14,7.22v1.19s-.03.02-.04.04c0,0-.01,0-.01.01-.01.01-.03.03-.04.04,0,0,0,.01-.01.02v-1.28s.07-.01.12-.02ZM7.78,8.69c.06,0,.12-.01.16-.04.02-.01.03-.02.05-.04h0c-.05.12-.07.27-.07.4-.05-.09-.17-.25-.34-.34.03,0,.05.01.08.02.04,0,.08.01.12.01ZM7.69,8.62c-.04-.06-.08-.14-.12-.21v-.91s.01-.02.02-.03c.03-.03.06-.06.09-.08v1.23ZM7.73,8.65v-1.29s.07-.05.12-.06v1.35s-.08,0-.12,0ZM7.93,8.62s-.03.02-.05.02v-1.36s.07-.03.11-.04c0,0,0,0,0,0v1.31s-.04.04-.07.06ZM7.54,7.55v.75c-.04-.13-.07-.27-.07-.42,0-.08,0-.22.07-.34ZM11.94,10.4c-.16.05-.78.22-2.07.22s-1.91-.17-2.07-.22c-.07-.02-.13-.07-.19-.14.03-.02.07-.04.12-.06.06-.03.14-.05.23-.07.09-.02.19-.04.32-.06.61-.07,1.6-.07,1.61-.07h.11c.13,0,.36,0,.62.01.02,0,.04,0,.06,0,.04,0,.09,0,.13,0,.02,0,.04,0,.07,0h.11c.16.01.31.03.45.04.02,0,.04,0,.06,0,.24.03.42.08.54.13.05.02.08.04.12.06-.06.07-.13.12-.2.14ZM12.5,9.48s-.03.07-.04.12c-.07.19-.16.46-.3.63-.03-.02-.07-.04-.12-.06v-.09s0-.02-.02-.02-.02,0-.02.02v.08s-.05-.02-.09-.03v-.11s0-.02-.02-.02-.02,0-.02.02v.09s-.05-.01-.07-.02v-.1s0-.02-.02-.02-.02,0-.02.02v.09s-.06-.01-.1-.02v-.08s0-.02-.02-.02-.02,0-.02.02v.07s-.08-.01-.13-.02v-.08s0-.02-.02-.02-.02,0-.02.02v.07s-.08,0-.13-.01v-.07s0-.02-.02-.02-.02,0-.02.02v.06s-.08,0-.12-.01v-.09s0-.02-.02-.02-.02,0-.02.02v.08s-.08,0-.13,0v-.08s0-.02-.02-.02-.02,0-.02.02v.07s-.07,0-.1,0v-.09s0-.02-.02-.02-.02,0-.02.02v.09s-.07,0-.11,0v-.11s0-.02-.02-.02-.02,0-.02.02v.11s-.08,0-.12,0v-.1s0-.02-.02-.02-.02,0-.02.02v.1s-.07,0-.11,0v-.1s0-.02-.02-.02c-.01,0-.02,0-.02.02v.1s-.08,0-.11,0v-.09s0-.02-.02-.02-.02,0-.02.02v.09c-.05,0-.1,0-.14,0v-.12s0-.02-.02-.02-.02,0-.02.02v.12h-.2v-.12s0-.02-.02-.02-.02,0-.02.02v.12h-.2v-.12s0-.02-.02-.02-.02,0-.02.02v.12s-.09,0-.14,0v-.09s0-.02-.02-.02-.02,0-.02.02v.09s-.07,0-.12,0v-.1s0-.02-.02-.02-.02,0-.02.02v.1s-.07,0-.11,0v-.1s0-.02-.02-.02-.02,0-.02.02v.1s-.08,0-.12,0v-.11s0-.02-.02-.02-.02,0-.02.02v.11s-.07,0-.11,0v-.09s0-.02-.02-.02-.02,0-.02.02v.09s-.07,0-.1,0v-.07s0-.02-.02-.02-.02,0-.02.02v.08s-.08,0-.13,0v-.08s0-.02-.02-.02-.02,0-.02.02v.09s-.08,0-.12.01v-.06s0-.02-.02-.02c0,0-.02,0-.02.02v.07s-.08,0-.13.01v-.07s0-.02-.02-.02-.02,0-.02.02v.08s-.08.01-.13.02v-.07s0-.02-.02-.02-.02,0-.02.02v.08s-.07.01-.1.02v-.09s0-.02-.02-.02-.02,0-.02.02v.1s-.05.01-.07.02v-.09s0-.02-.02-.02-.02,0-.02.02v.11s-.06.02-.09.03v-.08s0-.02-.02-.02-.02,0-.02.02v.09s-.08.04-.12.06c-.14-.17-.23-.44-.3-.63-.01-.04-.03-.08-.04-.12-.08-.22-.2-.5-.38-.71.19-.14.37-.19.55-.15.33.08.51.45.51.45,0,0,.01.01.02.01.01,0,.01-.01.01-.02-.01-.19.03-.45.16-.59.09-.08.18-.12.27-.12.18,0,.34.13.45.22.06.06.12.12.19.21,0,0,.02.02.03.04.03.04.12.13.12.16,0,.01,0,.02.01.02s.02,0,.02-.02c0-.12.04-.21.07-.3s.09-.15.16-.21c.19-.15.43-.12.43-.12,0,0,0,0,0,0,0,0,0,0,0,0,0,0,.24-.03.43.12.13.11.21.28.23.51,0,.01,0,.02.02.02h0s.02,0,.02-.02c0-.02.08-.12.12-.16.01-.01.03-.03.03-.04.07-.09.13-.15.19-.21.11-.09.27-.21.45-.22.09,0,.18.04.27.12.13.14.17.4.16.59,0,0,0,.02.01.02,0,0,.02,0,.02-.01,0,0,.19-.38.51-.45.18-.04.36.01.55.15-.18.2-.3.48-.38.71Z"/>
        <path class="cls-2" d="M12.69,7.95c.08,0,.14.06.14.14s-.06.14-.14.14-.14-.06-.14-.14.06-.14.14-.14Z"/>
        <path class="cls-2" d="M12.68,7.61c.08,0,.14.06.14.14s-.06.14-.14.14-.14-.06-.14-.14.06-.14.14-.14Z"/>
        <path class="cls-2" d="M12.62,8.27c.07,0,.14.06.14.14s-.06.14-.14.14-.14-.06-.14-.14.06-.14.14-.14Z"/>
        <path class="cls-2" d="M12.58,7.3c.08,0,.14.06.14.14s-.06.14-.14.14-.14-.06-.14-.14.06-.14.14-.14Z"/>
        <path class="cls-2" d="M12.34,8.63c-.33.08-.51.45-.51.45,0,0-.01.01-.02.01,0,0-.01-.01-.01-.02.01-.19-.03-.45-.16-.59-.09-.08-.18-.12-.27-.12-.18,0-.34.13-.45.22-.06.06-.12.12-.19.21,0,0-.02.02-.03.04-.03.04-.12.13-.12.16,0,.01,0,.02-.02.02h0s-.02,0-.02-.02c-.02-.23-.1-.4-.23-.51-.19-.15-.42-.12-.43-.12,0,0,0,0,0,0,0,0,0,0,0,0,0,0-.24-.03-.43.12-.07.05-.12.12-.16.21s-.06.18-.07.3c0,.01-.01.02-.02.02s-.02,0-.01-.02c0-.03-.08-.12-.12-.16-.01-.01-.03-.03-.03-.04-.07-.09-.13-.15-.19-.21-.11-.09-.27-.21-.45-.22-.09,0-.18.04-.27.12-.13.14-.17.4-.16.59,0,0,0,.02-.01.02,0,0-.02,0-.02-.01,0,0-.19-.38-.51-.45-.18-.04-.36.01-.55.15.18.2.29.48.38.71.01.03.03.07.04.12.07.19.16.46.3.63.03-.02.07-.04.12-.06v-.09s0-.02.02-.02.02,0,.02.02v.08s.06-.02.09-.03v-.11s0-.02.02-.02.02,0,.02.02v.09s.05-.01.07-.02v-.1s0-.02.02-.02.02,0,.02.02v.09s.06-.01.1-.02v-.08s0-.02.02-.02.02,0,.02.02v.07s.08-.01.13-.02v-.08s0-.02.02-.02.02,0,.02.02v.07s.08,0,.13-.01v-.07s.01-.02.02-.02c.01,0,.02,0,.02.02v.06s.08,0,.12-.01v-.09s0-.02.02-.02.02,0,.02.02v.08s.08,0,.13,0v-.08s0-.02.02-.02.02,0,.02.02v.07s.07,0,.1,0v-.09s0-.02.02-.02.02,0,.02.02v.09s.07,0,.11,0v-.11s0-.02.02-.02.02,0,.02.02v.11s.08,0,.12,0v-.1s0-.02.02-.02.02,0,.02.02v.1s.07,0,.11,0v-.1s0-.02.02-.02.02,0,.02.02v.1s.08,0,.12,0v-.09s0-.02.02-.02.02,0,.02.02v.09c.05,0,.1,0,.14,0v-.12s0-.02.02-.02.02,0,.02.02v.12h.2v-.12s0-.02.02-.02.02,0,.02.02v.12h.2v-.12s0-.02.02-.02.02,0,.02.02v.12s.09,0,.14,0v-.09s0-.02.02-.02.02,0,.02.02v.09s.07,0,.11,0v-.1s0-.02.02-.02c0,0,.02,0,.02.02v.1s.07,0,.11,0v-.1s0-.02.02-.02.02,0,.02.02v.1s.08,0,.12,0v-.11s0-.02.02-.02.02,0,.02.02v.11s.07,0,.11,0v-.09s0-.02.02-.02.02,0,.02.02v.09s.07,0,.1,0v-.07s0-.02.02-.02.02,0,.02.02v.08s.08,0,.13,0v-.08s0-.02.02-.02.02,0,.02.02v.09s.08,0,.12.01v-.06s0-.02.02-.02.02,0,.02.02v.07s.08,0,.13.01v-.07s0-.02.02-.02.02,0,.02.02v.08s.09.01.13.02v-.07s0-.02.02-.02.02,0,.02.02v.08s.07.01.1.02v-.09s0-.02.02-.02.02,0,.02.02v.1s.05.01.07.02v-.09s0-.02.02-.02.02,0,.02.02v.11s.06.02.09.03v-.08s0-.02.02-.02.02,0,.02.02v.09s.08.04.12.06c.14-.17.23-.44.3-.63.01-.04.03-.08.04-.12.08-.22.2-.5.38-.71-.19-.14-.37-.19-.55-.15ZM7.66,8.91s.02,0,.02.01l.05.12s0,.02-.01.02h0s-.01,0-.02-.01l-.05-.12s0-.02.01-.02ZM7.53,8.86s.02,0,.02,0l.05.11s0,.02-.01.02c0,0,0,0,0,0,0,0-.01,0-.02-.01l-.04-.11s0-.02,0-.02ZM7.38,8.81s.02,0,.02,0l.07.13s0,.02,0,.02c0,0,0,0,0,0,0,0-.01,0-.02,0l-.07-.13s0-.02,0-.02ZM7.21,8.93s0,0-.01,0,0,0-.01,0l-.1-.09s0-.02,0-.02c0,0,.02-.01.03,0l.1.09s0,.02,0,.02ZM7.33,8.92s0,0,0,0c0,0-.01,0-.02,0l-.07-.11s0-.02,0-.03c0,0,.02,0,.02,0l.07.11s0,.02,0,.03ZM7.81,9.75s-.02-.02-.03-.03c-.11-.14-.34-.32-.42-.38,0,0-.01,0-.01,0,0,0,0,0,0,0,.03.01.06.02.08.03.18.04.11-.08.05-.23.17.24.25.19.32.09-.05.18-.02.39.03.57,0-.01-.01-.02-.02-.03ZM8.67,8.59s.02,0,.02.01l.02.14s0,.02-.01.02h0s-.01,0-.02-.01l-.03-.14s0-.02.01-.02ZM8.52,8.54s.02,0,.02.01l.03.14s0,.02-.01.02h0s-.02,0-.02-.01l-.03-.14s0-.02.01-.02ZM8.39,8.54s.02,0,.02.01l.05.13s0,.02,0,.02c0,0,0,0,0,0,0,0-.01,0-.02-.01l-.05-.13s0-.02.01-.02ZM8.16,9.1s0,0-.01,0c0,0-.01,0-.01,0l-.09-.11s0-.02,0-.02c0,0,.02,0,.02,0l.09.11s0,.02,0,.03ZM8.22,8.95s0,0-.01,0c0,0-.01,0-.01,0l-.1-.11s0-.02,0-.02c0,0,.02,0,.02,0l.1.11s0,.02,0,.02ZM8.26,8.84s0,0-.01,0-.01,0-.01,0l-.08-.12s0-.02,0-.02c0,0,.02,0,.02,0l.08.12s0,.02,0,.02ZM8.31,8.72l-.04-.1s0-.02.01-.02.02,0,.02.01l.04.1s0,.02-.01.02c0,0,0,0,0,0,0,0-.01,0-.02-.01ZM8.71,9.61c-.04-.21-.38-.53-.38-.53.22.06.18-.06.13-.27.11.2.17.27.28.18-.04.08-.05.28-.03.62ZM8.85,8.81h0s-.02,0-.02-.01l-.03-.09s0-.02.01-.02c.01,0,.02,0,.02.01l.04.09s0,.02-.01.02ZM10.15,8.57s0-.02.02-.02.02,0,.02.02v.11s0,.02-.02.02-.02,0-.02-.02v-.11ZM10.02,8.51s0-.02.02-.02.02,0,.02.02v.12s0,.02-.02.02-.02,0-.02-.02v-.12ZM9.92,8.5s0-.02.02-.02.02.01.02.02v.13s0,.02-.02.02-.02,0-.02-.02v-.13ZM9.79,8.5s0-.02.02-.02.02.01.02.02v.13s0,.02-.02.02-.02,0-.02-.02v-.13ZM9.69,8.51s0-.02.02-.02.02,0,.02.02v.12s0,.02-.02.02-.02,0-.02-.02v-.12ZM9.56,8.57s0-.02.02-.02.02,0,.02.02v.11s0,.02-.02.02-.02,0-.02-.02v-.11ZM9.41,8.99s0,0,0,0c0,0-.01,0-.02-.01l-.04-.1s0-.02.01-.02c0,0,.02,0,.02,0l.04.1s0,.02,0,.02ZM9.47,8.85h0s-.02,0-.02-.01l-.02-.13s0-.02.02-.02c.01,0,.02,0,.02.02l.02.13s0,.02-.01.02ZM9.87,9.67c-.03-.36-.25-.6-.33-.77.28.25.33-.16.33-.16,0,0,.05.41.33.16-.08.17-.3.41-.33.77ZM10.3,8.84s-.01.01-.02.01h0s-.02-.01-.01-.02l.02-.13s.01-.02.02-.02c0,0,.01.01.01.02l-.02.13ZM10.4,8.88l-.04.1s-.01.01-.02.01c0,0,0,0,0,0-.01,0-.01-.01-.01-.02l.04-.1s.01-.01.02,0c.01,0,.01.01.01.02ZM10.92,8.8s0,.01-.02.01h0s-.01-.01-.01-.02l.03-.09s.01-.01.02-.01.01.01.01.02l-.03.09ZM11.34,8.55s.01-.01.02-.01c0,0,.01.01.01.02l-.05.13s0,.01-.02.01c0,0,0,0,0,0-.01,0-.01-.01-.01-.02l.05-.13ZM11.2,8.55s.01-.02.02-.01c.01,0,.02.01.01.02l-.03.14s0,.01-.02.01h0s-.02-.01-.01-.02l.03-.14ZM11.05,8.61s.01-.02.02-.01c.01,0,.02.01.01.02l-.03.14s0,.01-.02.01h0s-.02-.01-.01-.02l.02-.14ZM11.03,9.61c.02-.34,0-.54-.03-.62.11.09.17.02.28-.18-.04.21-.08.33.13.27,0,0-.34.32-.38.53ZM11.41,8.73s0,0,0,0c-.01,0-.01-.01-.01-.02l.04-.1s.01-.01.02-.01.01.01.01.02l-.04.1s-.01.01-.02.01ZM11.51,8.84s0,0-.01,0c0,0,0,0-.01,0,0,0-.01-.02,0-.02l.08-.12s.02-.01.02,0c0,0,.01.02,0,.02l-.08.12ZM11.54,8.96s0,0-.01,0c0,0,0-.02,0-.02l.1-.11s.02,0,.02,0c0,0,0,.02,0,.02l-.1.11s0,0-.01,0ZM11.7,8.99l-.09.11s0,0-.01,0c0,0-.01,0-.01,0,0,0-.01-.02,0-.03l.09-.11s.02,0,.02,0c0,0,0,.02,0,.02ZM12.27,8.95l.07-.13s.01-.01.02,0c0,0,.01.02,0,.02l-.07.13s0,0-.02,0c0,0,0,0,0,0,0,0-.01-.01,0-.02ZM12.15,8.97l.04-.11s.01-.01.02,0c0,0,.01.01,0,.02l-.04.11s-.01.01-.02.01c0,0,0,0,0,0,0,0-.01-.01,0-.02ZM12.06,8.92s.02-.01.02-.01c.01,0,.01.01.01.02l-.05.12s-.01.01-.02.01h0s-.01-.01,0-.02l.05-.12ZM12.39,9.33s0,0,0,0c-.01,0-.02.02-.04.03,0,0-.02.01-.03.02-.01.01-.02.02-.04.03,0,0-.01.01-.02.02-.01.01-.03.02-.04.03-.02.02-.04.04-.06.05-.01.01-.03.02-.04.04-.06.05-.11.11-.15.16,0,0-.01.02-.02.02-.01.01-.02.03-.02.04.06-.18.08-.39.03-.57.08.09.15.15.32-.09-.06.15-.13.27.05.23.02,0,.05-.01.08-.03,0,0,0,0-.01,0ZM12.51,8.81l-.07.11s0,0-.01,0c0,0,0,0-.01,0,0,0-.01-.02,0-.03l.07-.11s.02-.01.02,0c0,0,.01.02,0,.03ZM12.56,8.93s0,0-.01,0c0,0-.01,0-.01,0,0,0,0-.02,0-.02l.1-.09s.02,0,.02,0c0,0,0,.02,0,.02l-.1.09Z"/>
        <path class="cls-1" d="M12.66,8.82s0,.02,0,.03l-.1.09s0,0-.01,0-.01,0-.01,0c0,0,0-.02,0-.02l.1-.09s.02,0,.03,0Z"/>
        <path class="cls-1" d="M12.51,8.78s.01.02,0,.02l-.07.11s0,0-.01,0c0,0,0,0-.01,0,0,0-.01-.02,0-.03l.07-.11s.02-.01.02,0Z"/>
        <path class="cls-2" d="M12.39,7.02c.08,0,.14.06.14.14s-.06.14-.14.14-.14-.06-.14-.14.06-.14.14-.14Z"/>
        <path class="cls-2" d="M12.39,7.5c.2.39.09.79-.04,1.05-.08.05-.18.07-.27.09.05-.07.09-.14.12-.23h0c.03-.08.06-.17.08-.25.02-.09.03-.18.03-.27,0-.17-.03-.31-.11-.41,0-.01-.02-.02-.03-.03-.04-.04-.08-.08-.13-.11-.05-.03-.1-.06-.15-.08-.04-.02-.08-.03-.13-.04-.01,0-.02,0-.03,0-.05-.01-.1-.02-.15-.02-.05,0-.1,0-.15,0-.05,0-.1,0-.15.01-.02,0-.04,0-.05,0-.02,0-.03,0-.04,0h0s0,0,0,0h0s-.03,0-.05,0c-.04,0-.09.02-.15.03-.05.01-.11.03-.15.04l-.15.04-.15.04s-.1.02-.15.03c0,0-.01,0-.02,0-.05.01-.11.02-.15.03-.06,0-.12.02-.18.02-.01,0-.03,0-.04,0,.02-.02.03-.05.03-.08s0-.06-.02-.08c.01,0,.02,0,.04,0,.07,0,.13,0,.18-.01.06,0,.12-.01.18-.03.03,0,.05-.01.08-.02l.07-.02c.05-.01.1-.02.15-.04.05-.01.1-.02.15-.04.05-.01.1-.02.15-.03.26-.05.56-.1.88,0,.24.07.43.22.52.4Z"/>
        <path class="cls-1" d="M12.36,8.81s.01.02,0,.02l-.07.13s-.01,0-.02,0c0,0,0,0,0,0,0,0-.01-.01,0-.02l.07-.13s.01-.01.02,0Z"/>
        <path class="cls-2" d="M12.21,7.55c.07.12.07.26.07.34,0,.14-.03.28-.07.42v-.76Z"/>
        <path class="cls-1" d="M12.27,9.12c-.07.17-.15.31.14.2,0,0-.4.3-.49.46.06-.18.09-.39.03-.57.08.09.15.14.32-.09Z"/>
        <path class="cls-1" d="M12.22,8.86s.01.01.01.02l-.04.11s-.01.01-.02.01h0s-.01-.02,0-.02l.04-.11s.01-.01.02,0Z"/>
        <path class="cls-2" d="M12.11,6.84c.08,0,.14.06.14.14s-.06.14-.14.14-.14-.06-.14-.14.06-.14.14-.14Z"/>
        <path class="cls-2" d="M12.17,7.5v.91c-.03.08-.07.15-.12.21v-1.23s.07.05.09.08c0,.01.01.02.02.03Z"/>
        <path class="cls-1" d="M12.08,8.68s.05-.01.08-.02c-.17.09-.28.25-.34.34,0-.13-.02-.27-.07-.4h0s.03.03.05.04c.05.03.11.04.16.04.04,0,.08,0,.12-.01Z"/>
        <path class="cls-1" d="M12.09,8.91s.01.01.01.02l-.05.12s0,.01-.02.01c0,0,0,0,0,0,0,0-.01-.01,0-.02l.05-.12s.02-.01.02-.01Z"/>
        <path class="cls-1" d="M12.02,10.2s.08.04.12.06c-.06.07-.13.12-.19.14-.16.05-.78.22-2.07.22s-1.91-.17-2.07-.22c-.07-.02-.13-.07-.19-.14.03-.02.07-.04.12-.06.06-.03.14-.05.23-.07.09-.02.19-.04.32-.06.61-.07,1.6-.06,1.61-.06h0s1,0,1.61.06c.24.03.42.08.54.13h0Z"/>
        <path class="cls-2" d="M12.02,7.36v1.29s-.08,0-.12,0v-1.35s.08.04.12.06Z"/>
        <path class="cls-2" d="M11.79,6.74c.08,0,.14.06.14.14s-.06.14-.14.14-.14-.06-.14-.14.06-.14.14-.14Z"/>
        <path class="cls-2" d="M11.87,7.28v1.36s-.03-.01-.05-.02c-.03-.02-.05-.04-.07-.06v-1.31s0,0,0,0c.04,0,.07.02.11.04Z"/>
        <path class="cls-2" d="M11.72,7.23v1.28s-.01-.01-.01-.02l-.04-.04s0,0-.01-.01c-.01-.02-.03-.03-.04-.04v-1.19s.08,0,.12.02Z"/>
        <path class="cls-1" d="M11.7,8.97s0,.02,0,.02l-.09.11s0,0-.01,0-.01,0-.01,0c0,0,0-.02,0-.03l.09-.11s.02,0,.02,0Z"/>
        <path class="cls-1" d="M11.65,8.81s0,.02,0,.03l-.1.11s0,0-.01,0c0,0,0,0-.01,0,0,0,0-.02,0-.02l.1-.11s.02,0,.02,0Z"/>
        <path class="cls-1" d="M11.58,8.7s.01.02,0,.02l-.08.12s-.01,0-.01,0c0,0,0,0-.01,0,0,0,0-.02,0-.02l.08-.12s.02-.01.02,0Z"/>
        <path class="cls-2" d="M11.47,6.71c.08,0,.14.06.14.14s-.06.14-.14.14-.14-.06-.14-.14.06-.14.14-.14Z"/>
        <path class="cls-2" d="M11.57,7.21v1.17s-.07-.03-.11-.04v-1.13s.08,0,.11,0Z"/>
        <path class="cls-1" d="M11.46,8.59s.01.01.01.02l-.04.1s-.01.01-.02.01c0,0,0,0,0,0,0,0-.01-.01-.01-.02l.04-.1s.02-.01.02-.01Z"/>
        <path class="cls-2" d="M11.41,7.21v1.12s-.03,0-.05,0h0s-.04,0-.06,0v-1.12s.08,0,.11,0Z"/>
        <path class="cls-1" d="M11.36,8.54s.01.01.01.02l-.05.13s0,.01-.02.01c0,0,0,0,0,0-.01,0-.01-.01-.01-.02l.05-.13s.01-.01.02-.01Z"/>
        <path class="cls-1" d="M11.28,8.82c-.04.21-.08.33.14.27,0,0-.34.32-.38.53.02-.34,0-.54-.03-.62.11.09.17.02.28-.18Z"/>
        <path class="cls-2" d="M11.26,7.23v1.12s-.08.01-.12.02v-1.11s.03-.01.03-.01c.02,0,.03,0,.05,0,.01,0,.02,0,.03,0Z"/>
        <path class="cls-2" d="M11.16,6.73c.08,0,.14.06.14.14s-.06.14-.14.14-.14-.06-.14-.14.06-.14.14-.14Z"/>
        <path class="cls-1" d="M11.22,8.54s.02.01.01.02l-.03.14s-.01.01-.02.01h0s-.01-.01-.01-.02l.03-.14s.01-.01.02-.01Z"/>
        <path class="cls-2" d="M11.11,7.26v1.11s-.08.02-.12.03v-1.09s.08-.03.12-.04Z"/>
        <path class="cls-1" d="M11.08,8.59s.02.01.01.02l-.03.14s0,.01-.02.01h0s-.02-.01-.01-.02l.02-.14s.01-.02.02-.01Z"/>
        <path class="cls-1" d="M10.99,8.44s.09-.02.13-.03c-.09.04-.17.11-.23.16-.06.06-.13.13-.2.21,0,0-.02.02-.03.03-.04.05-.07.09-.1.12-.02-.17-.08-.31-.17-.4-.02-.06-.04-.14-.06-.21.04.07.11.14.19.16,0,0,0,0,0,0,.03.01.06.02.1.02.02,0,.04,0,.06,0h0c.1,0,.2-.03.31-.06Z"/>
        <path class="cls-2" d="M10.96,7.32v1.08s-.08.02-.12.03v-1.06s.08-.04.12-.05Z"/>
        <path class="cls-1" d="M10.94,8.68s.01.01.01.02l-.03.09s0,.01-.02.01c0,0,0,0,0,0,0,0-.01-.01-.01-.02l.03-.09s.01-.01.02-.01Z"/>
        <path class="cls-2" d="M10.83,6.79c.08,0,.14.06.14.14s-.06.14-.14.14-.14-.06-.14-.14.06-.14.14-.14Z"/>
        <path class="cls-1" d="M10.96,7.28s-.09.04-.14.06h0c-.1.05-.21.11-.29.18,0,0,0,0-.01.01h0c-.06.05-.11.11-.15.16h0c-.05.07-.08.15-.1.21-.02-.18-.03-.34-.04-.46.04,0,.09-.01.14-.02,0,0,.01,0,.02,0,.05-.01.11-.02.15-.03.05-.01.1-.02.15-.04l.15-.04s.08-.02.13-.03Z"/>
        <path class="cls-2" d="M10.81,7.39v1.05s-.08.01-.11.02v-1s.07-.04.11-.06Z"/>
        <path class="cls-2" d="M10.66,7.48v.98h-.04s-.05,0-.08-.01v-.89s0,0,0,0c.03-.03.07-.05.11-.08Z"/>
        <path class="cls-2" d="M10.5,6.87c.08,0,.14.06.14.14s-.06.14-.14.14-.14-.06-.14-.14.06-.14.14-.14Z"/>
        <path class="cls-2" d="M10.51,7.59v.85s-.08-.06-.12-.09v-.63s.07-.08.12-.13Z"/>
        <path class="cls-1" d="M10.39,8.86s.01.01.01.02l-.04.1s-.01.01-.02.01c0,0,0,0,0,0-.01,0-.01-.01-.01-.02l.04-.1s.02-.01.02-.01Z"/>
        <path class="cls-2" d="M10.36,7.77v.52c-.05-.08-.06-.17-.07-.2h0s0,0,0,0c-.01-.08,0-.2.07-.32Z"/>
        <path class="cls-2" d="M10.34,8.47h-.01c-.05-.05-.11-.08-.16-.1-.08-.32-.11-.66-.12-.89.05,0,.1-.01.14-.02,0,.16.02.38.06.62h0s0,.01,0,.02h0c.02.14.05.26.09.38Z"/>
        <path class="cls-1" d="M10.31,8.68s.02.01.02.02l-.02.13s-.01.01-.02.01h0s-.02-.01-.01-.02l.02-.13s.01-.02.02-.02Z"/>
        <path class="cls-2" d="M10.16,6.94c.08,0,.14.06.14.14s-.06.14-.14.14-.14-.06-.14-.14.06-.14.14-.14Z"/>
        <path class="cls-1" d="M10.19,8.57v.11s0,.02-.02.02-.02,0-.02-.02v-.11s0-.02.02-.02.02,0,.02.02Z"/>
        <path class="cls-1" d="M10.06,8.51v.12s0,.02-.02.02-.02,0-.02-.02v-.12s0-.02.02-.02.02,0,.02.02Z"/>
        <path class="cls-1" d="M9.87,8.74s.05.41.33.16c-.08.17-.3.41-.33.77-.03-.36-.25-.6-.33-.77.28.24.33-.16.33-.16Z"/>
        <path class="cls-1" d="M10.01,7.48c.01.23.04.57.12.88-.05-.02-.1-.02-.15-.02.05-.03.08-.09.08-.15,0-.08-.05-.14-.11-.17.05-.03.08-.07.08-.13,0-.07-.04-.13-.11-.15.05-.02.09-.07.09-.13,0-.05-.03-.09-.07-.12h.07Z"/>
        <path class="cls-2" d="M9.87,8.03c.08,0,.15.07.15.15s-.07.15-.15.15-.15-.07-.15-.15.07-.15.15-.15Z"/>
        <path class="cls-2" d="M9.87,7.76c.06,0,.12.05.12.12s-.05.12-.12.12-.12-.05-.12-.12.05-.12.12-.12Z"/>
        <path class="cls-1" d="M9.95,8.49v.14s0,.02-.02.02-.02,0-.02-.02v-.14s0-.02.02-.02.02,0,.02.02Z"/>
        <path class="cls-2" d="M9.87,7.02c.05,0,.1.04.1.1s-.05.1-.1.1-.1-.04-.1-.1.04-.1.1-.1Z"/>
        <path class="cls-2" d="M9.87,7.5c.05,0,.1.04.1.1s-.05.1-.1.1-.1-.04-.1-.1.04-.1.1-.1Z"/>
        <path class="cls-2" d="M9.94,7.29s.04.04.04.08c0,.04-.02.07-.05.09-.02,0-.03,0-.05,0-.01,0-.03,0-.05,0-.03-.02-.05-.05-.05-.09,0-.03.01-.06.03-.08.02,0,.04,0,.06,0h0s.04,0,.06,0Z"/>
        <path class="cls-1" d="M9.83,8.49v.14s0,.02-.02.02-.02,0-.02-.02v-.14s0-.02.02-.02.02,0,.02.02Z"/>
        <path class="cls-1" d="M9.74,7.48h.07s-.07.07-.07.13c0,.06.04.11.09.13-.06.02-.11.08-.11.15,0,.06.03.11.08.13-.06.03-.11.09-.11.17,0,.06.03.12.08.15-.04,0-.09,0-.15.02.08-.31.11-.64.12-.88Z"/>
        <path class="cls-2" d="M9.73,7.28s.02,0,.04,0c-.02.02-.02.05-.02.08s.01.06.03.08c-.01,0-.03,0-.04,0-.06,0-.12-.02-.18-.02-.05,0-.1-.02-.16-.03,0,0-.01,0-.02,0-.05-.01-.11-.02-.15-.03l-.15-.04-.15-.04s-.1-.02-.15-.04c-.06-.01-.11-.02-.15-.03-.02,0-.03,0-.05,0h0s0,0,0,0h0s-.03,0-.04,0c-.02,0-.04,0-.05,0-.05,0-.1,0-.15-.01-.05,0-.1,0-.15,0-.05,0-.11.01-.15.02,0,0-.02,0-.03,0-.04.01-.08.03-.13.04-.05.02-.11.05-.15.08-.05.03-.09.07-.13.11-.01.01-.02.02-.03.03-.08.1-.12.25-.11.41,0,.18.04.36.11.52.03.08.07.16.12.23-.03,0-.07-.01-.1-.02h0c-.06-.01-.12-.03-.17-.07-.13-.27-.24-.66-.04-1.05.09-.19.28-.33.52-.4.32-.09.62-.05.88,0,.05.01.1.02.15.03l.15.04c.05.01.1.03.15.04l.07.02s.05.01.08.02c.06.01.12.02.18.03.05,0,.12.01.18.01Z"/>
        <polygon class="cls-2" points="9.73 5.94 9.56 6.07 9.35 5.94 9.56 5.82 9.73 5.94"/>
        <path class="cls-1" d="M9.73,8.51v.12s0,.02-.02.02-.02,0-.02-.02v-.12s0-.02.02-.02.02,0,.02.02Z"/>
        <path class="cls-2" d="M9.58,6.94c.08,0,.14.06.14.14s-.06.14-.14.14-.14-.06-.14-.14.06-.14.14-.14Z"/>
        <path class="cls-2" d="M9.7,7.47c0,.24-.04.58-.12.89-.05.02-.11.05-.16.09h-.01c.03-.1.06-.22.09-.36h0s0-.02,0-.02c.04-.24.06-.46.06-.62.05,0,.09.01.14.02Z"/>
        <path class="cls-1" d="M9.59,8.57v.11s0,.02-.02.02-.02,0-.02-.02v-.11s0-.02.02-.02.02,0,.02.02Z"/>
        <path class="cls-1" d="M9.52,7.45c0,.12-.01.28-.04.46-.02-.07-.05-.14-.1-.21h0c-.04-.05-.09-.11-.15-.16h0s0,0-.01-.01c-.08-.07-.19-.13-.29-.18h0c-.05-.02-.1-.05-.14-.06.05.01.09.02.13.03l.15.04.15.04s.1.02.15.03c0,0,.01,0,.02,0,.05.01.1.02.14.02Z"/>
        <path class="cls-1" d="M9.48,8.83s0,.02-.01.02h0s-.02,0-.02-.01l-.02-.13s0-.02.02-.02c.01,0,.02,0,.02.02l.02.13Z"/>
        <path class="cls-2" d="M9.39,7.77c.07.12.09.24.07.32,0,.03-.02.12-.07.2v-.52Z"/>
        <path class="cls-1" d="M9.42,8.97s0,.02-.01.02c0,0,0,0,0,0,0,0-.01,0-.02-.01l-.04-.1s0-.02.01-.02c.01,0,.02,0,.02.01l.04.1Z"/>
        <path class="cls-1" d="M9.41,8.31c-.02.07-.04.14-.06.21-.09.1-.15.23-.17.4-.02-.03-.05-.07-.1-.12-.01-.01-.02-.03-.03-.03-.07-.09-.13-.15-.2-.21-.06-.05-.14-.11-.23-.16.04.01.09.02.13.03.11.03.21.05.31.06h0s.04,0,.06,0c.04,0,.07,0,.1-.02,0,0,0,0,0,0,.08-.03.14-.09.19-.16Z"/>
        <path class="cls-2" d="M9.35,7.71v.63s-.07.07-.12.09v-.85s.08.08.12.13Z"/>
        <path class="cls-2" d="M9.24,6.87c.08,0,.14.06.14.14s-.06.14-.14.14-.14-.06-.14-.14.06-.14.14-.14Z"/>
        <path class="cls-2" d="M9.2,7.56v.89s-.05.01-.08.01h-.04v-.98s.08.05.11.08c0,0,0,0,0,0Z"/>
        <path class="cls-2" d="M9.05,7.45v1s-.07,0-.12-.02v-1.05s.08.04.12.06Z"/>
        <path class="cls-2" d="M8.92,6.79c.07,0,.14.06.14.14s-.06.14-.14.14-.14-.06-.14-.14.06-.14.14-.14Z"/>
        <path class="cls-2" d="M8.9,7.37v1.06s-.08-.02-.11-.03v-1.08s.07.03.11.05Z"/>
        <path class="cls-1" d="M8.86,8.79s0,.02-.01.02c0,0,0,0,0,0,0,0-.01,0-.02-.01l-.03-.09s0-.02.01-.02c.01,0,.02,0,.02.01l.03.09Z"/>
        <path class="cls-2" d="M8.75,7.31v1.09s-.08-.02-.12-.03v-1.11s.07.03.12.04Z"/>
        <path class="cls-1" d="M8.72,8.74s0,.02-.01.02h0s-.02,0-.02-.01l-.03-.14s0-.02.01-.02c.01,0,.02,0,.02.01l.02.14Z"/>
        <path class="cls-1" d="M8.74,9c-.03.08-.05.28-.03.62-.04-.21-.38-.53-.38-.53.22.06.18-.06.13-.27.11.2.17.27.28.18Z"/>
        <path class="cls-2" d="M8.59,6.73c.08,0,.14.06.14.14s-.06.14-.14.14-.14-.06-.14-.14.06-.14.14-.14Z"/>
        <path class="cls-2" d="M8.6,7.25v1.11s-.07-.01-.11-.02v-1.12s.02,0,.03,0c.02,0,.03,0,.05,0,0,0,.02,0,.03.01Z"/>
        <path class="cls-1" d="M8.58,8.7s0,.02-.01.02h0s-.02,0-.02-.01l-.03-.14s0-.02.01-.02.02,0,.02.01l.03.14Z"/>
        <path class="cls-1" d="M8.46,8.68s0,.02-.01.02c0,0,0,0,0,0,0,0-.01,0-.02-.01l-.05-.13s0-.02.01-.02c.01,0,.02,0,.02.01l.05.13Z"/>
        <path class="cls-2" d="M8.44,7.22v1.12s-.04,0-.06,0h-.05v-1.12s.07,0,.11,0Z"/>
        <path class="cls-2" d="M8.28,6.71c.08,0,.14.06.14.14s-.06.14-.14.14-.14-.06-.14-.14.06-.14.14-.14Z"/>
        <path class="cls-1" d="M8.35,8.71s0,.02-.01.02c0,0,0,0,0,0,0,0-.01,0-.02-.01l-.04-.1s0-.02.01-.02c0,0,.02,0,.02.01l.04.1Z"/>
        <path class="cls-2" d="M8.29,7.21v1.13s-.08.02-.12.04v-1.17s.07,0,.12,0Z"/>
        <path class="cls-1" d="M8.27,8.82s0,.02,0,.02c0,0,0,0-.01,0s-.01,0-.01,0l-.08-.12s0-.02,0-.02c0,0,.02,0,.02,0l.08.12Z"/>
        <path class="cls-1" d="M8.22,8.93s0,.02,0,.02c0,0,0,0-.01,0,0,0-.01,0-.01,0l-.1-.11s0-.02,0-.03c0,0,.02,0,.03,0l.1.11Z"/>
        <path class="cls-1" d="M8.16,9.07s0,.02,0,.03c0,0,0,0-.01,0,0,0,0,0-.01,0l-.09-.11s0-.02,0-.02c0,0,.02,0,.02,0l.09.11Z"/>
        <path class="cls-2" d="M8.14,7.22v1.19s-.03.02-.05.04c0,0,0,0-.01.01-.01.01-.03.03-.04.04,0,0,0,.01-.01.02v-1.28s.07-.01.12-.02Z"/>
        <path class="cls-2" d="M7.95,6.74c.08,0,.14.06.14.14s-.06.14-.14.14-.14-.06-.14-.14.06-.14.14-.14Z"/>
        <path class="cls-1" d="M7.99,8.61h0c-.05.12-.07.27-.07.4-.05-.09-.17-.25-.34-.34.03,0,.05.01.08.02.04,0,.08.01.12.01.06,0,.12-.01.16-.04.02-.01.03-.02.05-.04Z"/>
        <path class="cls-2" d="M7.99,7.24v1.31s-.04.04-.07.06c-.01.01-.03.02-.05.02v-1.36s.07-.03.11-.04t0,0Z"/>
        <path class="cls-2" d="M7.84,7.3v1.35s-.08,0-.12,0v-1.29s.07-.05.12-.06Z"/>
        <path class="cls-1" d="M7.8,9.22c-.05.18-.02.39.03.57-.09-.16-.49-.46-.49-.46.28.11.2-.03.14-.2.17.24.24.19.32.09Z"/>
        <path class="cls-2" d="M7.64,6.84c.08,0,.14.06.14.14s-.06.14-.14.14-.14-.06-.14-.14.06-.14.14-.14Z"/>
        <path class="cls-1" d="M7.73,9.03s0,.02-.01.02c0,0,0,0,0,0,0,0-.01,0-.02-.01l-.05-.12s0-.02.01-.02c0,0,.02,0,.02.01l.05.12Z"/>
        <path class="cls-2" d="M7.69,7.39v1.23c-.04-.06-.08-.14-.12-.21v-.91s.01-.02.02-.03c.03-.03.06-.06.09-.08Z"/>
        <path class="cls-1" d="M7.6,8.97s0,.02,0,.02h0s-.01,0-.02-.01l-.04-.11s0-.02,0-.02c.01,0,.02,0,.02,0l.04.11Z"/>
        <path class="cls-2" d="M7.54,7.55v.76c-.04-.13-.07-.27-.07-.42,0-.08,0-.22.07-.34Z"/>
        <path class="cls-1" d="M7.48,8.95s0,.02,0,.02c0,0,0,0,0,0,0,0-.01,0-.02,0l-.07-.13s0-.02,0-.02c.01,0,.02,0,.02,0l.07.13Z"/>
        <path class="cls-2" d="M7.36,7.02c.08,0,.14.06.14.14s-.06.14-.14.14-.14-.06-.14-.14.06-.14.14-.14Z"/>
        <path class="cls-1" d="M7.33,8.89s0,.02,0,.03c0,0,0,0-.01,0,0,0-.01,0-.01,0l-.07-.11s0-.02,0-.02c0,0,.02,0,.02,0l.07.11Z"/>
        <path class="cls-2" d="M7.16,7.3c.08,0,.14.06.14.14s-.06.14-.14.14-.14-.06-.14-.14.06-.14.14-.14Z"/>
        <path class="cls-2" d="M7.13,8.27c.08,0,.14.06.14.14s-.06.14-.14.14-.14-.06-.14-.14.06-.14.14-.14Z"/>
        <path class="cls-1" d="M7.21,8.9s0,.02,0,.02c0,0-.01,0-.01,0s0,0-.01,0l-.1-.09s0-.02,0-.03c0,0,.02,0,.03,0l.1.09Z"/>
        <path class="cls-2" d="M7.06,7.61c.07,0,.14.06.14.14s-.06.14-.14.14-.14-.06-.14-.14.06-.14.14-.14Z"/>
        <path class="cls-2" d="M7.05,7.95c.07,0,.14.06.14.14s-.06.14-.14.14-.14-.06-.14-.14.06-.14.14-.14Z"/>
      </g>
    </g>
  </g>
</svg>