<?xml version="1.0" encoding="UTF-8"?>
<svg id="Layer_1" data-name="Layer 1" xmlns="http://www.w3.org/2000/svg" viewBox="0 0 24 24">
  <defs>
    <style>
      .cls-1 {
        fill: #000;
      }

      .cls-1, .cls-2, .cls-3, .cls-4, .cls-5 {
        stroke-width: 0px;
      }

      .cls-2 {
        fill: #00775e;
      }

      .cls-3 {
        fill: #fad023;
      }

      .cls-4 {
        fill: none;
      }

      .cls-5 {
        fill: #fff;
      }
    </style>
  </defs>
  <rect class="cls-4" width="24" height="24"/>
  <g>
    <path class="cls-1" d="M16.71,7.34c2.92,2.92,3.18,7.42.57,10.03s-7.11,2.36-10.03-.57c-2.92-2.92-3.18-7.42-.57-10.03,2.61-2.61,7.11-2.35,10.03.57Z"/>
    <g>
      <path class="cls-2" d="M21,12c0,4.96-4.04,9-9,9S3,16.96,3,12,7.04,3,12,3s9,4.04,9,9Z"/>
      <g>
        <g>
          <path class="cls-5" d="M12,13.75c2.69,2.04,4.55.02,4.55.02,0,0-.34,0-.61-.16,0,0-1.19,1.25-3.31.44.5.18,1.24.35,1.95.16,1.27-.34,2.02-1.69,2.02-1.69,0,0-1.32-.79-2.59-.45-.72.19-1.27.71-1.61,1.12,1.43-1.77,3.08-1.28,3.08-1.28.15-.27.45-.44.45-.44,0,0-1.43-.44-2.71.58.85-1.6-.03-3-.03-3,0,0-.09.33-.31.55,0,0,.9,1.47-.44,3.31.31-.44.66-1.1.66-1.85,0-1.32-1.11-2.38-1.11-2.38,0,0-1.11,1.07-1.11,2.38,0,.75.36,1.41.66,1.85-1.34-1.84-.44-3.31-.44-3.31-.22-.22-.31-.55-.31-.55,0,0-.88,1.4-.03,3-1.28-1.02-2.71-.58-2.71-.58,0,0,.29.18.45.44,0,0,1.65-.49,3.08,1.28-.34-.41-.89-.92-1.61-1.12-1.27-.34-2.59.45-2.59.45,0,0,.74,1.35,2.02,1.69.72.19,1.45.02,1.95-.16-2.13.81-3.31-.44-3.31-.44-.27.15-.61.16-.61.16,0,0,1.86,2.02,4.56-.02Z"/>
          <path class="cls-5" d="M12,17.3c.76,0,1.48-.15,2.13-.43h-4.27c.66.28,1.38.43,2.14.43Z"/>
          <path class="cls-5" d="M8.68,16.18h6.63c.09-.07.18-.14.26-.22h-7.16c.08.07.17.15.26.22Z"/>
          <path class="cls-5" d="M9.55,16.72h4.9c.2-.1.39-.21.57-.33h-6.05c.18.12.38.23.57.33Z"/>
          <path class="cls-5" d="M8.12,15.69h7.76s.09-.09.13-.14H7.99s.09.09.13.14Z"/>
          <path class="cls-5" d="M12.58,14.53l-.58-.36-.58.36c-.41.25-.88.39-1.36.39h-2.58c.07.11.15.21.24.32h2.48c.39,0,.77-.11,1.1-.32l.69-.43.69.43c.33.21.72.32,1.1.32h2.48c.08-.1.16-.21.24-.32h-2.58c-.48,0-.95-.14-1.36-.39Z"/>
        </g>
        <g>
          <polygon class="cls-3" points="12 6.7 12.21 7.34 12.89 7.34 12.34 7.74 12.55 8.39 12 7.99 11.45 8.39 11.66 7.74 11.11 7.34 11.79 7.34 12 6.7"/>
          <g>
            <polygon class="cls-3" points="8.24 9.44 8.32 9.92 8.8 10 8.37 10.22 8.44 10.7 8.1 10.35 7.66 10.58 7.88 10.14 7.54 9.8 8.02 9.87 8.24 9.44"/>
            <polygon class="cls-3" points="15.76 9.44 15.68 9.92 15.2 10 15.63 10.22 15.56 10.7 15.9 10.35 16.34 10.58 16.12 10.14 16.46 9.8 15.98 9.87 15.76 9.44"/>
          </g>
          <g>
            <polygon class="cls-3" points="9.17 7.88 9.55 8.16 9.94 7.89 9.79 8.34 10.17 8.61 9.7 8.61 9.55 9.06 9.41 8.61 8.93 8.61 9.31 8.34 9.17 7.88"/>
            <polygon class="cls-3" points="14.83 7.88 14.45 8.16 14.06 7.89 14.21 8.34 13.83 8.61 14.3 8.61 14.45 9.06 14.59 8.61 15.07 8.61 14.69 8.34 14.83 7.88"/>
          </g>
        </g>
      </g>
    </g>
  </g>
</svg>