<?xml version="1.0" encoding="UTF-8"?>
<svg id="Layer_1" data-name="Layer 1" xmlns="http://www.w3.org/2000/svg" viewBox="0 0 24 24">
  <defs>
    <style>
      .cls-1 {
        fill: #000;
      }

      .cls-1, .cls-2, .cls-3, .cls-4 {
        stroke-width: 0px;
      }

      .cls-2 {
        fill: none;
      }

      .cls-3 {
        fill: #d10201;
      }

      .cls-4 {
        fill: #fee51b;
      }
    </style>
  </defs>
  <rect class="cls-2" width="24" height="24"/>
  <g>
    <path class="cls-1" d="M16.71,7.34c2.92,2.92,3.18,7.42.57,10.03-2.61,2.61-7.11,2.36-10.03-.57-2.92-2.92-3.18-7.42-.57-10.03,2.61-2.61,7.11-2.35,10.03.57Z"/>
    <g>
      <path class="cls-3" d="M21,12c0,.3-.02.6-.04.89-.11,1.12-.42,2.17-.91,3.13-.23.46-.49.89-.79,1.3-1.31,1.78-3.25,3.06-5.49,3.51-.57.11-1.16.17-1.76.17s-1.19-.06-1.76-.17c-2.24-.45-4.19-1.73-5.5-3.51-.3-.41-.57-.84-.79-1.3-.48-.96-.8-2.01-.91-3.13-.03-.29-.05-.59-.05-.89s.02-.6.05-.89c.11-1.12.42-2.17.91-3.13.23-.46.49-.89.79-1.3,1.31-1.78,3.25-3.06,5.5-3.51.57-.11,1.16-.17,1.76-.17s1.19.06,1.76.17c2.24.45,4.19,1.73,5.49,3.51.3.41.57.84.79,1.3.48.96.8,2.02.91,3.13.03.29.04.59.04.89Z"/>
      <g>
        <g>
          <path class="cls-4" d="M9.51,14.04l-4.77,3.28c-.3-.41-.57-.84-.79-1.3l5.17-2.58c.11.21.24.41.39.6Z"/>
          <path class="cls-4" d="M20.05,16.02c-.23.46-.49.89-.79,1.3l-4.76-3.28c.15-.18.28-.38.39-.6l5.17,2.58Z"/>
          <path class="cls-4" d="M20.05,7.98l-5.17,2.59c-.11-.21-.24-.42-.39-.6l4.76-3.28c.3.41.57.84.79,1.3Z"/>
          <path class="cls-4" d="M9.51,9.96c-.15.18-.28.39-.39.6l-5.17-2.59c.23-.46.49-.89.79-1.3l4.77,3.28Z"/>
        </g>
        <g>
          <path class="cls-4" d="M13.76,20.83c-.57.11-1.16.17-1.76.17s-1.19-.06-1.76-.17l1.31-5.64c.15.02.29.03.45.03s.3-.01.45-.03l1.31,5.64Z"/>
          <path class="cls-4" d="M13.76,3.17l-1.31,5.64c-.15-.02-.29-.03-.45-.03s-.3.01-.45.03l-1.31-5.64c.57-.11,1.16-.17,1.76-.17s1.19.06,1.76.17Z"/>
        </g>
        <g>
          <path class="cls-4" d="M8.78,12c0,.11,0,.21.02.32l-5.75.58c-.03-.29-.05-.59-.05-.89s.02-.6.05-.89l5.75.58c0,.11-.02.21-.02.32Z"/>
          <path class="cls-4" d="M21,12c0,.3-.02.6-.04.89l-5.75-.58c.01-.1.02-.21.02-.32s0-.21-.02-.32l5.75-.58c.03.29.04.59.04.89Z"/>
        </g>
        <path class="cls-4" d="M14.57,12c0,.08,0,.17-.01.25-.03.32-.12.62-.26.9-.09.19-.21.36-.34.52-.41.48-1,.81-1.66.88-.1.01-.2.02-.3.02s-.2,0-.3-.02c-.66-.07-1.24-.4-1.65-.88-.14-.16-.25-.33-.35-.52-.14-.27-.23-.58-.26-.9,0-.08-.01-.17-.01-.25s0-.17.01-.25c.03-.32.12-.62.26-.9.09-.19.21-.36.35-.52.41-.48.99-.81,1.65-.88.1-.01.2-.02.3-.02s.2,0,.3.02c.66.07,1.24.4,1.66.88.14.16.25.33.34.52.14.27.23.58.26.9,0,.08.01.17.01.25Z"/>
      </g>
    </g>
  </g>
</svg>