<?xml version="1.0" encoding="UTF-8"?>
<svg id="Layer_1" data-name="Layer 1" xmlns="http://www.w3.org/2000/svg" viewBox="0 0 24 24">
  <defs>
    <style>
      .cls-1 {
        fill: #000;
      }

      .cls-1, .cls-2, .cls-3, .cls-4, .cls-5, .cls-6 {
        stroke-width: 0px;
      }

      .cls-2 {
        fill: none;
      }

      .cls-3 {
        fill: #fee81b;
      }

      .cls-4 {
        fill: #d9291c;
      }

      .cls-5 {
        fill: #085eb6;
      }

      .cls-6 {
        fill: #fff;
      }
    </style>
  </defs>
  <rect class="cls-2" width="24" height="24"/>
  <g>
    <path class="cls-1" d="M16.71,7.34c2.92,2.92,3.18,7.42.57,10.03-2.61,2.61-7.11,2.36-10.03-.57-2.92-2.92-3.18-7.42-.57-10.03,2.61-2.61,7.11-2.35,10.03.57Z"/>
    <g>
      <g>
        <path class="cls-5" d="M7.5,4.21v15.58c-1.36-.79-2.5-1.93-3.29-3.29-.77-1.33-1.21-2.86-1.21-4.5s.44-3.18,1.21-4.5c.79-1.36,1.93-2.5,3.29-3.29Z"/>
        <path class="cls-5" d="M21,12c0,1.64-.44,3.18-1.21,4.5-.79,1.36-1.93,2.5-3.29,3.29V4.21c1.36.79,2.5,1.93,3.29,3.29.77,1.32,1.21,2.86,1.21,4.5Z"/>
        <path class="cls-3" d="M16.5,4.21v15.58c-1.32.77-2.86,1.21-4.5,1.21s-3.18-.44-4.5-1.21V4.21c1.33-.77,2.86-1.21,4.5-1.21s3.18.44,4.5,1.21Z"/>
      </g>
      <g>
        <polygon class="cls-4" points="14.69 12.9 15.6 13.8 15.6 10.2 14.69 11.1 12.9 11.1 12.9 9.31 13.8 8.4 10.2 8.4 11.1 9.31 11.1 11.1 9.31 11.1 8.4 10.2 8.4 13.8 9.31 12.9 11.1 12.9 11.1 14.69 10.2 15.6 13.8 15.6 12.9 14.69 12.9 12.9 14.69 12.9"/>
        <polygon class="cls-6" points="14.7 11.69 12.31 11.69 12.31 9.3 11.69 9.3 11.69 11.69 9.3 11.69 9.3 12.31 11.69 12.31 11.69 14.7 12.31 14.7 12.31 12.31 14.7 12.31 14.7 11.69"/>
      </g>
    </g>
  </g>
</svg>