<?xml version="1.0" encoding="UTF-8"?>
<svg id="Layer_1" data-name="Layer 1" xmlns="http://www.w3.org/2000/svg" viewBox="0 0 24 24">
  <defs>
    <style>
      .cls-1 {
        fill: #000;
      }

      .cls-1, .cls-2, .cls-3, .cls-4 {
        stroke-width: 0px;
      }

      .cls-2 {
        fill: none;
      }

      .cls-3 {
        fill: #309d37;
      }

      .cls-4 {
        fill: #cd1225;
      }
    </style>
  </defs>
  <rect class="cls-2" width="24" height="24"/>
  <g>
    <path class="cls-1" d="M16.71,7.34c2.92,2.92,3.18,7.42.57,10.03-2.61,2.61-7.11,2.36-10.03-.57-2.92-2.92-3.18-7.42-.57-10.03,2.61-2.61,7.11-2.35,10.03.57Z"/>
    <g>
      <g>
        <path class="cls-1" d="M20.48,9H3.52c1.24-3.49,4.57-6,8.48-6s7.25,2.51,8.48,6Z"/>
        <path class="cls-4" d="M21,12c0,1.05-.18,2.06-.52,3H3.52c-.34-.94-.52-1.95-.52-3s.18-2.06.52-3h16.97c.34.94.52,1.95.52,3Z"/>
        <path class="cls-3" d="M20.48,15c-1.24,3.49-4.57,6-8.48,6s-7.25-2.51-8.48-6h16.97Z"/>
      </g>
      <g>
        <path class="cls-4" d="M12,5.97c-1.69,0-3.14,1.08-3.67,2.6h7.34c-.53-1.51-1.98-2.6-3.67-2.6Z"/>
        <path class="cls-4" d="M12,5.52c.09,0,.17-1.49.17-1.59s-.08-.21-.17-.21-.17.12-.17.21.07,1.59.17,1.59Z"/>
        <path class="cls-4" d="M11.62,5.54c.09,0,.04-1.5.03-1.6,0-.09-.09-.2-.19-.2s-.16.13-.15.22.21,1.58.31,1.57Z"/>
        <path class="cls-4" d="M11.25,5.59c.09-.02-.09-1.5-.11-1.59-.02-.09-.11-.2-.2-.18-.09.02-.15.15-.13.24.02.09.35,1.55.44,1.53Z"/>
        <path class="cls-4" d="M10.88,5.67c.09-.02-.22-1.49-.25-1.58s-.13-.18-.22-.16c-.09.02-.13.16-.11.25.02.09.48,1.52.57,1.49Z"/>
        <path class="cls-4" d="M10.52,5.79c.09-.03-.35-1.46-.38-1.55-.03-.09-.14-.17-.23-.14-.09.03-.12.17-.08.26.03.09.61,1.47.7,1.43Z"/>
        <path class="cls-4" d="M10.17,5.93c.08-.04-.48-1.43-.52-1.51-.04-.08-.16-.16-.24-.12-.08.04-.11.18-.06.26.04.08.74,1.41.82,1.37Z"/>
        <path class="cls-4" d="M9.83,6.11c.08-.05-.6-1.38-.65-1.46s-.17-.15-.25-.1-.09.19-.04.27c.05.08.86,1.34.94,1.29Z"/>
        <path class="cls-4" d="M9.51,6.31c.08-.05-.72-1.32-.77-1.4-.05-.08-.18-.13-.26-.07-.08.05-.07.19-.02.27.05.08.97,1.26,1.05,1.2Z"/>
        <path class="cls-4" d="M9.21,6.54c.07-.06-.83-1.25-.89-1.33-.06-.07-.19-.11-.26-.05-.07.06-.05.2,0,.27.06.07,1.08,1.17,1.15,1.11Z"/>
        <path class="cls-4" d="M8.93,6.79c.06-.06-.94-1.18-1-1.24-.06-.07-.2-.1-.27-.03-.06.07-.04.2.03.27s1.18,1.07,1.24,1Z"/>
        <path class="cls-4" d="M8.68,7.08c.06-.07-1.04-1.09-1.11-1.15-.07-.06-.21-.08-.27,0-.06.07-.02.21.05.26.07.06,1.26.96,1.32.89Z"/>
        <path class="cls-4" d="M7.05,6.6c.07.05,1.34.85,1.4.77.05-.08-1.13-.99-1.2-1.05-.07-.05-.22-.06-.27.02-.05.07,0,.2.08.26Z"/>
        <path class="cls-4" d="M6.78,7.05c.08.05,1.41.73,1.46.65s-1.21-.89-1.29-.94-.22-.04-.27.04c-.05.08.02.21.1.25Z"/>
        <path class="cls-4" d="M6.56,7.51c.09.04,1.47.6,1.51.52.04-.08-1.28-.78-1.37-.82-.08-.04-.22-.02-.26.06-.04.08.04.2.12.24Z"/>
        <path class="cls-4" d="M6.37,7.99c.09.03,1.52.47,1.55.39.03-.09-1.35-.67-1.43-.7-.09-.03-.22,0-.25.09s.05.2.14.23Z"/>
        <path class="cls-4" d="M6.07,8.28c-.02.09.07.19.16.22.03,0,.16.04.35.07h.9c-.42-.17-1.1-.39-1.16-.4-.09-.02-.22.02-.25.11Z"/>
        <path class="cls-4" d="M17.77,8.49c.09-.02.19-.13.16-.22-.02-.09-.16-.13-.25-.11-.06.02-.74.23-1.16.4h.9c.18-.04.32-.07.34-.07Z"/>
        <path class="cls-4" d="M16.08,8.38c.03.09,1.46-.35,1.55-.39.09-.03.17-.14.14-.23s-.17-.12-.26-.09c-.09.03-1.46.61-1.43.7Z"/>
        <path class="cls-4" d="M15.93,8.03c.04.08,1.42-.48,1.51-.52.08-.04.16-.16.12-.24-.04-.08-.18-.1-.26-.06-.08.04-1.41.74-1.37.82Z"/>
        <path class="cls-4" d="M15.76,7.69c.05.08,1.38-.6,1.46-.65.08-.05.15-.17.1-.25-.05-.08-.19-.09-.27-.04s-1.34.86-1.29.94Z"/>
        <path class="cls-4" d="M15.56,7.37c.05.08,1.32-.72,1.4-.77.08-.05.13-.18.08-.26-.05-.08-.19-.07-.27-.02-.07.05-1.26.97-1.2,1.05Z"/>
        <path class="cls-4" d="M15.33,7.08c.06.07,1.25-.83,1.32-.89.07-.06.11-.19.05-.26-.06-.07-.2-.05-.27,0-.07.06-1.17,1.08-1.11,1.15Z"/>
        <path class="cls-4" d="M15.07,6.79c.07.07,1.18-.94,1.24-1,.06-.07.09-.2.03-.27-.06-.07-.2-.04-.27.03-.06.06-1.07,1.18-1,1.24Z"/>
        <path class="cls-4" d="M14.79,6.54c.07.06,1.09-1.04,1.15-1.11.06-.07.08-.21,0-.27-.07-.06-.2-.02-.26.05-.06.07-.96,1.26-.89,1.33Z"/>
        <path class="cls-4" d="M14.49,6.31c.08.05,1-1.13,1.05-1.2.05-.08.06-.22-.02-.27-.08-.05-.21,0-.26.07-.05.08-.85,1.34-.77,1.4Z"/>
        <path class="cls-4" d="M14.17,6.11c.08.05.89-1.21.94-1.29s.04-.22-.04-.27-.2.02-.25.1c-.05.08-.73,1.41-.65,1.46Z"/>
        <path class="cls-4" d="M13.83,5.93c.08.04.78-1.28.82-1.37.04-.08.02-.22-.06-.26-.08-.04-.2.03-.24.12-.04.08-.6,1.47-.52,1.51Z"/>
        <path class="cls-4" d="M13.48,5.79c.09.03.67-1.35.7-1.43.03-.09,0-.22-.09-.26-.09-.03-.2.05-.23.14s-.47,1.52-.38,1.55Z"/>
        <path class="cls-4" d="M13.12,5.67c.09.02.55-1.4.57-1.49.02-.09-.02-.22-.11-.25-.09-.02-.19.07-.22.16s-.34,1.55-.25,1.58Z"/>
        <path class="cls-4" d="M12.75,5.59c.09.02.43-1.44.44-1.53.02-.09-.04-.22-.13-.24-.09-.02-.19.09-.2.18-.02.09-.2,1.58-.11,1.59Z"/>
        <path class="cls-4" d="M12.38,5.54c.09,0,.3-1.47.3-1.57s-.06-.22-.15-.22-.18.1-.19.2-.06,1.59.03,1.6Z"/>
      </g>
    </g>
  </g>
</svg>