<?xml version="1.0" encoding="UTF-8"?>
<svg id="Layer_1" data-name="Layer 1" xmlns="http://www.w3.org/2000/svg" viewBox="0 0 24 24">
  <defs>
    <style>
      .cls-1 {
        fill: #000;
      }

      .cls-1, .cls-2, .cls-3, .cls-4, .cls-5, .cls-6 {
        stroke-width: 0px;
      }

      .cls-2 {
        fill: none;
      }

      .cls-3 {
        fill: #040264;
      }

      .cls-4 {
        fill: #cb0202;
      }

      .cls-5 {
        fill: #fecb17;
      }

      .cls-6 {
        fill: #fff;
      }
    </style>
  </defs>
  <rect class="cls-2" width="24" height="24"/>
  <g>
    <path class="cls-1" d="M16.71,7.34c2.92,2.92,3.18,7.42.57,10.03-2.61,2.61-7.11,2.35-10.03-.57-2.92-2.92-3.18-7.42-.57-10.03,2.61-2.61,7.11-2.35,10.03.57Z"/>
    <g>
      <g>
        <path class="cls-4" d="M19.38,6.86H4.62c.32-.46.69-.89,1.09-1.29h12.58c.4.39.77.82,1.09,1.29Z"/>
        <path class="cls-6" d="M21,12c0,.44-.03.87-.09,1.29H3.09c-.06-.42-.09-.85-.09-1.29h18Z"/>
        <path class="cls-4" d="M20.91,13.29c-.06.44-.16.87-.28,1.28H3.38c-.13-.42-.22-.85-.28-1.28h17.81Z"/>
        <path class="cls-6" d="M20.62,14.57c-.13.44-.3.87-.49,1.29H3.87c-.2-.41-.36-.84-.49-1.29h17.25Z"/>
        <path class="cls-6" d="M16.63,19.71c-1.35.82-2.94,1.29-4.63,1.29s-3.28-.47-4.63-1.29h9.26Z"/>
        <path class="cls-4" d="M18.29,18.43c-.5.49-1.06.92-1.66,1.29H7.37c-.6-.36-1.16-.8-1.66-1.29h12.58Z"/>
        <path class="cls-6" d="M19.38,17.14c-.32.46-.69.89-1.09,1.29H5.71c-.4-.39-.77-.82-1.09-1.29h14.76Z"/>
        <path class="cls-4" d="M20.13,15.86c-.21.45-.46.88-.75,1.28H4.62c-.28-.4-.54-.83-.75-1.28h16.26Z"/>
        <path class="cls-4" d="M16.63,4.29H7.37c1.35-.82,2.94-1.29,4.63-1.29,1.18,0,2.31.23,3.34.64.45.18.88.4,1.29.64Z"/>
        <path class="cls-6" d="M18.29,5.57H5.71c.5-.49,1.06-.92,1.66-1.29h9.26c.6.36,1.16.8,1.66,1.29Z"/>
        <path class="cls-6" d="M20.13,8.14H3.87c.21-.45.46-.88.75-1.28h14.76c.28.4.54.83.75,1.28Z"/>
        <path class="cls-4" d="M20.62,9.43H3.38c.13-.44.3-.87.49-1.29h16.26c.2.41.36.84.49,1.29Z"/>
        <path class="cls-6" d="M20.91,10.71H3.09c.06-.44.16-.87.28-1.29h17.25c.13.42.22.85.28,1.29Z"/>
        <path class="cls-4" d="M21,12H3c0-.44.03-.87.09-1.29h17.81c.06.42.09.85.09,1.29Z"/>
      </g>
      <g>
        <path class="cls-3" d="M15.34,3.64v9.64H3.09c-.06-.42-.09-.85-.09-1.29s.03-.87.09-1.29c.06-.44.16-.87.28-1.29.13-.44.3-.87.49-1.29.21-.45.46-.88.75-1.28.32-.46.69-.89,1.09-1.29.5-.49,1.06-.92,1.66-1.29,1.35-.82,2.94-1.29,4.63-1.29,1.18,0,2.31.23,3.34.64Z"/>
        <g>
          <path class="cls-5" d="M9.61,10.96c-1.56,0-2.82-1.26-2.82-2.82s1.26-2.82,2.82-2.82c.35,0,.69.06,1,.18-.51-.35-1.13-.55-1.79-.55-1.76,0-3.19,1.43-3.19,3.19s1.43,3.19,3.19,3.19c.66,0,1.28-.2,1.79-.55-.31.12-.65.18-1,.18Z"/>
          <polygon class="cls-5" points="12 5.49 12.28 6.91 13.15 5.75 12.79 7.16 14.07 6.49 13.14 7.6 14.59 7.55 13.26 8.14 14.59 8.73 13.14 8.69 14.07 9.8 12.79 9.13 13.15 10.53 12.28 9.37 12 10.8 11.72 9.37 10.85 10.53 11.21 9.13 9.93 9.8 10.86 8.69 9.42 8.73 10.74 8.14 9.42 7.55 10.86 7.6 9.93 6.49 11.21 7.16 10.85 5.75 11.72 6.91 12 5.49"/>
        </g>
      </g>
    </g>
  </g>
</svg>