<?xml version="1.0" encoding="UTF-8"?>
<svg id="Layer_1" data-name="Layer 1" xmlns="http://www.w3.org/2000/svg" viewBox="0 0 24 24">
  <defs>
    <style>
      .cls-1 {
        fill: #000;
      }

      .cls-1, .cls-2, .cls-3, .cls-4, .cls-5 {
        stroke-width: 0px;
      }

      .cls-2 {
        fill: #d11133;
      }

      .cls-3 {
        fill: none;
      }

      .cls-4 {
        fill: #007d3b;
      }

      .cls-5 {
        fill: #fff;
      }
    </style>
  </defs>
  <rect class="cls-3" width="24" height="24"/>
  <g>
    <path class="cls-1" d="M16.71,7.34c2.92,2.92,3.18,7.42.57,10.03-2.61,2.61-7.11,2.35-10.03-.57-2.92-2.92-3.18-7.42-.57-10.03,2.61-2.61,7.11-2.35,10.03.57Z"/>
    <g>
      <path class="cls-2" d="M21,12c0,4.96-4.04,9-9,9S3,16.96,3,12,7.04,3,12,3s9,4.04,9,9Z"/>
      <rect class="cls-4" x="5.73" y="7.5" width="12.54" height="9.01"/>
      <path class="cls-5" d="M11.34,12c0-1.47,1.05-2.69,2.44-2.95-.18-.03-.37-.05-.56-.05-1.66,0-3,1.35-3,3.01s1.34,3,3,3c.19,0,.38-.02.56-.05-1.39-.26-2.44-1.49-2.44-2.95Z"/>
    </g>
  </g>
</svg>