<?xml version="1.0" encoding="UTF-8"?>
<svg id="Layer_1" data-name="Layer 1" xmlns="http://www.w3.org/2000/svg" viewBox="0 0 24 24">
  <defs>
    <style>
      .cls-1 {
        fill: #000;
      }

      .cls-1, .cls-2, .cls-3, .cls-4, .cls-5 {
        stroke-width: 0px;
      }

      .cls-2 {
        fill: #fbd023;
      }

      .cls-3 {
        fill: none;
      }

      .cls-4 {
        fill: #0cb43d;
      }

      .cls-5 {
        fill: #cd1225;
      }
    </style>
  </defs>
  <rect class="cls-3" width="24" height="24"/>
  <g>
    <path class="cls-1" d="M16.71,7.34c2.92,2.92,3.18,7.42.57,10.03-2.61,2.61-7.11,2.36-10.03-.57-2.92-2.92-3.18-7.42-.57-10.03,2.61-2.61,7.11-2.35,10.03.57Z"/>
    <g>
      <path class="cls-5" d="M21,12c0-3.91-2.51-7.25-6-8.48v16.97c3.49-1.24,6-4.58,6-8.49Z"/>
      <path class="cls-2" d="M12,21c1.05,0,2.06-.18,3-.51V3.52c-.94-.33-1.95-.52-3-.52s-2.06.18-3,.52v16.97c.94.33,1.95.51,3,.51Z"/>
      <path class="cls-4" d="M9,3.52c-3.49,1.24-6,4.57-6,8.48s2.51,7.25,6,8.49V3.52Z"/>
    </g>
  </g>
</svg>