<?xml version="1.0" encoding="UTF-8"?>
<svg id="Layer_1" data-name="Layer 1" xmlns="http://www.w3.org/2000/svg" viewBox="0 0 24 24">
  <defs>
    <style>
      .cls-1 {
        fill: #000;
      }

      .cls-1, .cls-2, .cls-3, .cls-4, .cls-5, .cls-6, .cls-7, .cls-8, .cls-9, .cls-10, .cls-11 {
        stroke-width: 0px;
      }

      .cls-2 {
        fill: #95867c;
      }

      .cls-3 {
        fill: #e50e2d;
      }

      .cls-4 {
        fill: none;
      }

      .cls-5 {
        fill: #97867a;
      }

      .cls-6 {
        fill: #97857c;
      }

      .cls-7 {
        fill: #95877c;
      }

      .cls-8 {
        fill: #231f20;
      }

      .cls-9 {
        fill: #fff;
      }

      .cls-10 {
        fill: #cbcbcb;
      }

      .cls-11 {
        fill: #ce142a;
      }
    </style>
  </defs>
  <rect class="cls-4" width="24" height="24"/>
  <g>
    <path class="cls-1" d="M16.71,7.34c2.92,2.92,3.18,7.42.57,10.03-2.61,2.61-7.11,2.36-10.03-.57-2.92-2.92-3.18-7.42-.57-10.03,2.61-2.61,7.11-2.36,10.03.57Z"/>
    <g>
      <g>
        <path class="cls-9" d="M9,3.52c-3.49,1.24-6,4.57-6,8.48s2.51,7.25,6,8.48c.94.33,1.95.52,3,.52V3c-1.05,0-2.06.18-3,.52Z"/>
        <path class="cls-11" d="M15,3.52c-.94-.33-1.95-.52-3-.52v18c1.05,0,2.06-.18,3-.52,3.49-1.24,6-4.57,6-8.48s-2.51-7.25-6-8.48Z"/>
      </g>
      <g>
        <path class="cls-3" d="M11.03,7.2h-1.34c-.05-.24-.23-.42-.47-.47v-1.34h-1.38v1.34c-.23.05-.42.23-.47.47h-1.34v1.38h1.34c.05.24.23.42.47.47v1.34h1.38v-1.34c.24-.05.42-.23.47-.47h1.34v-1.38Z"/>
        <path class="cls-5" d="M7.95,10.28v-1.32l-.08-.02c-.2-.04-.35-.19-.39-.39l-.02-.08h-1.33v-1.17h1.33l.02-.08c.04-.2.19-.35.39-.39l.08-.02v-1.32h1.17v1.32l.08.02c.19.04.35.19.38.39l.02.08h1.33v1.17h-1.33l-.02.08c-.04.2-.19.35-.38.39l-.08.02v1.32h-1.17Z"/>
        <path class="cls-10" d="M7.99,10.24v-1.31l-.12-.02c-.18-.04-.31-.18-.35-.35l-.02-.12h-1.32v-1.08h1.32l.02-.12c.04-.18.17-.32.35-.35l.12-.02v-1.31h1.08v1.31l.12.02c.18.04.32.18.35.35l.02.12h1.32v1.08h-1.32l-.02.12c-.03.18-.17.32-.35.35l-.12.02v1.31h-1.08Z"/>
        <g>
          <path class="cls-7" d="M8.54,8.63c-.41,0-.74-.33-.74-.74s.33-.74.74-.74.74.33.74.74-.33.74-.74.74ZM8.54,7.17c-.4,0-.72.32-.72.72s.33.72.72.72.72-.32.72-.72-.32-.72-.72-.72Z"/>
          <path class="cls-7" d="M8.54,8.86c-.53,0-.96-.43-.96-.96s.43-.96.96-.96.96.43.96.96-.43.96-.96.96ZM8.54,6.95c-.52,0-.95.43-.95.95s.42.95.95.95.95-.43.95-.95-.42-.95-.95-.95Z"/>
        </g>
        <g>
          <g>
            <g>
              <path class="cls-6" d="M7.9,6.87c.08.08.06.23-.05.34-.11.11-.26.13-.34.05-.08-.08-.06-.23.05-.34.11-.11.26-.13.34-.05Z"/>
              <g>
                <polygon class="cls-10" points="7.5 7.09 7.54 7.05 7.7 7.15 7.6 6.99 7.64 6.95 7.78 7.18 7.73 7.22 7.5 7.09"/>
                <rect class="cls-10" x="7.77" y="6.84" width=".06" height=".26" transform="translate(-2.65 7.56) rotate(-45)"/>
              </g>
            </g>
            <g>
              <path class="cls-6" d="M9.55,7.26c-.08.08-.23.06-.34-.05-.11-.11-.13-.26-.05-.34.08-.08.23-.06.34.05.11.11.13.26.05.34Z"/>
              <g>
                <polygon class="cls-10" points="9.33 6.86 9.37 6.9 9.27 7.06 9.43 6.96 9.47 7 9.24 7.14 9.2 7.09 9.33 6.86"/>
                <rect class="cls-10" x="9.32" y="7.13" width=".26" height=".06" transform="translate(-2.3 8.78) rotate(-45)"/>
              </g>
            </g>
          </g>
          <g>
            <g>
              <path class="cls-6" d="M9.16,8.91c-.08-.08-.06-.23.05-.34.11-.11.26-.13.34-.05.08.08.06.23-.05.34-.11.11-.26.13-.34.05Z"/>
              <g>
                <polygon class="cls-10" points="9.56 8.69 9.52 8.74 9.36 8.63 9.46 8.79 9.42 8.84 9.28 8.61 9.33 8.56 9.56 8.69"/>
                <rect class="cls-10" x="9.23" y="8.68" width=".06" height=".26" transform="translate(-3.52 9.13) rotate(-45)"/>
              </g>
            </g>
            <g>
              <path class="cls-6" d="M7.51,8.52c.08-.08.23-.06.34.05.11.11.13.26.05.34s-.23.06-.34-.05c-.11-.11-.13-.26-.05-.34Z"/>
              <g>
                <polygon class="cls-10" points="7.73 8.92 7.68 8.88 7.79 8.72 7.63 8.82 7.58 8.78 7.81 8.64 7.86 8.69 7.73 8.92"/>
                <rect class="cls-10" x="7.48" y="8.59" width=".26" height=".06" transform="translate(-3.88 8.19) rotate(-46.4)"/>
              </g>
            </g>
          </g>
        </g>
        <g>
          <path class="cls-1" d="M7.63,8.02h.07v-.02s0-.01-.01-.02c0,0-.02,0-.04,0h0s.1-.02.1-.02h0s-.01,0-.02.01h-.01s-.01.02-.01.03h0s.05,0,.05,0c.01,0,.02,0,.02,0,0,0,0-.01,0-.02h0s0,0,0,0v.08s0,0,0,0h0s0-.02-.01-.02c0,0-.01,0-.02,0h-.1s-.02.02-.02.02c0,0,0,.01,0,.02h0s0,0,0,0l-.02-.14h.07s0,0,0,0c0,0-.01,0-.02,0,0,0-.01,0-.01,0,0,0-.02,0-.02.01,0,0,0,.01-.01.02,0,0,0,.01,0,.02v.03Z"/>
          <path class="cls-1" d="M7.62,7.75s0-.02.01-.03c0,0,.02-.02.03-.02.01,0,.02,0,.03-.01s.02,0,.03,0c.02,0,.03,0,.04.02.01.01.02.02.03.03,0,.01,0,.03,0,.04,0,.01,0,.02-.01.03,0,0-.01.01-.02.02-.01,0-.02.01-.03.01-.01,0-.02,0-.03,0-.02,0-.03,0-.04-.02-.01-.01-.02-.02-.03-.03,0-.01,0-.03,0-.04ZM7.62,7.75s0,.01,0,.02c0,0,0,0,0,.01,0,0,.01.01.02.01,0,0,.01,0,.02.01,0,0,.02,0,.03,0,.01,0,.02,0,.03,0,.01,0,.02,0,.03,0s.01,0,.02-.01c0,0,0-.01,0-.02,0-.01,0-.02,0-.03,0,0-.01-.01-.03-.02-.01,0-.03-.01-.04-.01-.01,0-.02,0-.03,0s-.02,0-.03,0c0,0-.01,0-.02.01,0,0,0,0,0,0,0,0,0,0,0,.01Z"/>
          <path class="cls-1" d="M7.79,7.52v.02s.03.02.03.02c.01,0,.02,0,.02,0,0,0,.01,0,.01-.01h0s0,0,0,0l-.04.07h0s0,0,0,0c0,0,0-.01,0-.02,0,0,0-.01-.02-.02l-.09-.04s-.02,0-.02,0c0,0-.01,0-.01.01h0s0,0,0,0l.04-.09s.01-.02.02-.03c0,0,.01-.01.02-.01h.01s0,0,.01,0c.01,0,.02.01.02.03,0,0,0,.01,0,.02,0,0,0,.01,0,.02,0,0,0,.01,0,.02h0s.01,0,.02,0c0,0,0,0,.01,0,0,0,0,0,.01-.01h.04s.01,0,.01,0c0,0,.01,0,.01-.01h0s0,0,0,0l-.02.04h-.09ZM7.77,7.55l.02-.03s0-.01,0-.02,0-.01,0-.02c0,0-.01-.01-.02-.01-.02-.01-.04,0-.05.02l-.02.03.07.03Z"/>
          <path class="cls-1" d="M8.02,7.13h0s.04.06.04.06h0s-.01,0-.02-.01c0,0,0,0-.01,0-.01,0-.02,0-.03,0-.01,0-.02,0-.03,0,0,0,0,0-.01.01,0,0,0,.01,0,.02,0,0,0,.02,0,.03,0,.01.01.02.03.04,0,0,0,.01.01.01h.01s0,.02.01.02c0,0,0,0,0,0,0,0,0,0,.01,0,0,0,0,0,.01,0s0,0,.01,0c0,0,0,0,0,0,0,0,0,0,.01-.01,0,0,0-.01,0-.01,0,0,0-.02,0-.02h0s-.03-.03-.04-.02h0s0,0,0,0l.07-.05h0s0,0,0,0c0,0-.01.01-.01.02s0,.01.01.02l.02.03h0s0,0-.01,0c0,0,0,0,0,0,0,0,0,0,0,0s0,0,0,0c0,0,0,.01-.01.02,0,0,0,0-.01,0,0,0-.02.01-.03.01s-.02,0-.03,0c-.01,0-.02,0-.03-.01s-.02-.01-.03-.02c0,0,0-.01-.01-.02,0,0,0-.01,0-.02,0,0,0-.01,0-.02,0,0,0-.01,0-.02,0,0,0-.01,0-.02s0-.01.01-.01c0,0,.01,0,.02,0s.01,0,.02,0,.01,0,.01,0c0,0,0,0,0,0,0,0,0,0,0-.01Z"/>
          <path class="cls-1" d="M8.21,7.03h0l.1.12s0,0,0,0c0,0,0,0,.01,0h.01s0,0,0,0l-.07.03h0s0,0,0,0c0,0,0,0,.01,0h0s0-.01,0-.02c0,0,0,0-.01-.01,0,0,0,0,0,0,0,0,0,0,0,0h0s-.05.01-.05.01h0s0,.02,0,.03c0,0,0,0,0,.01,0,0,0,0,0,0h.01s-.05.02-.05.02h0s0,0,0-.01,0,0,0,0c0-.01,0-.02,0-.04v-.13ZM8.22,7.07v.08s.05-.02.05-.02l-.05-.06Z"/>
          <path class="cls-1" d="M8.39,6.98h.09s0,0,0,0h-.01s-.01,0-.02.01c0,0,0,.01,0,.02v.13s.04,0,.04,0c0,0,.01,0,.02,0,0,0,.01-.01.01-.02,0,0,0-.01,0-.01s0-.01,0-.02,0-.01,0-.02h0v.08s-.13.01-.13.01h0s0,0,0,0c.02,0,.02-.01.02-.03v-.1s-.02-.03-.03-.03h0Z"/>
          <path class="cls-1" d="M8.64,6.98l.08.02h0s0,0,0,0c0,0-.01,0-.02,0,0,0,0,.01-.01.02l-.02.13h.03s.01,0,.02,0c0,0,.01,0,.02-.01,0,0,0,0,.01-.01,0,0,0-.01,0-.01,0,0,0-.01,0-.02h0v.07s-.15-.02-.15-.02h0s0,0,0,0c.01,0,.02,0,.03-.03l.02-.1s0-.03-.02-.04h0Z"/>
          <path class="cls-1" d="M8.94,7.06h0l-.02.16h0s0,.02,0,.02c0,0,0,0,0,0h0s0,0,0,0l-.07-.03h0s0,0,0,0c0,0,0,0,.01,0,0,0,0,0,0,0,0,0,0,0,0,0,0,0,0-.01,0-.02h0s-.05-.04-.05-.04h-.01s0,.02,0,.02c0,0,0,0,0,.01s0,0,0,.01c0,0,0,0,0,0,0,0,0,0,0,0h0s-.05-.02-.05-.02h0s0,0,0,0,0,0,.01,0c0,0,.02-.01.03-.03l.09-.09ZM8.92,7.09l-.06.06.05.02v-.08Z"/>
          <path class="cls-1" d="M9.1,7.16l.04.03-.02.15.05-.05s.01-.01.01-.02c0,0,0-.01,0-.02,0,0,0,0,0,0,0,0,0,0,0,0h0s.04.04.04.04h0s0,0,0,0c0,0-.01,0-.02,0-.01,0-.02.01-.03.02l-.08.09h0s.02-.19.02-.19l-.07.07s-.01.01-.01.02c0,0,0,.01,0,.02s0,0,0,.01c0,0,0,0,0,0h0s-.05-.04-.05-.04h0s.01,0,.02,0c0,0,.01,0,.01,0,0,0,.01,0,.02-.01l.07-.07s0,0,0-.01c0,0,0-.01,0-.01,0,0,0,0,0-.01h0,0Z"/>
          <path class="cls-1" d="M9.29,7.37l.07.13-.08.04h0s.03-.03.04-.04c.01-.02.01-.03,0-.04h0s-.11.06-.11.06c-.02.01-.02.02-.02.03v.02s0,0,0,0l-.06-.09h0s.01.01.01.01c0,.01.02.01.04,0l.11-.07h0s-.02-.02-.04-.02c-.01,0-.02,0-.03,0,0,0-.01,0-.02,0h0s.07-.05.07-.05Z"/>
          <path class="cls-1" d="M9.35,7.7v-.03s-.05.01-.05.01c0,0-.02,0-.02.01,0,0,0,.01,0,.02h0s0,0,0,0l-.02-.08h0s0,0,0,0c0,0,0,.01.01.01,0,0,.01,0,.02,0l.1-.02s.02,0,.02-.01c0,0,0-.01,0-.02h0s0,0,0,0l.02.09s0,.02,0,.03c0,0,0,.01-.01.02,0,0,0,0-.01,0,0,0,0,0-.01,0-.01,0-.02,0-.03,0,0,0,0,0-.01-.01,0,0,0-.01,0-.02,0,0,0-.01,0-.02h0s0,.01,0,.02,0,0,0,.01c0,0,0,.01,0,.02h0s0,0,0,.01c0,0,0,0,0,0,0,0-.01.01-.02.01,0,0,0,0,0,.01,0,0,0,.01,0,.02h0s0,0,0,0v-.05s.06-.06.06-.06ZM9.35,7.67v.03s.01.02.02.02.01,0,.02,0c0,0,.01,0,.02,0,.03,0,.04-.02.03-.04v-.04s-.08.02-.08.02Z"/>
          <path class="cls-1" d="M9.46,7.88v.08h-.01,0s0-.02,0-.02c0,0,0,0,0,0h0s0,0-.01,0l-.06.03.05.03s.01,0,.02,0c0,0,.01,0,.01,0,0,0,0,0,0-.01h0s0,0,0,0v.06h0s0,0,0-.01c0,0,0,0,0,0,0,0,0,0,0-.01,0,0,0,0-.01-.01l-.05-.04h-.04s-.02,0-.02,0c0,0-.01.01-.01.02h0s0,0,0,0v-.09s.01,0,.01,0h0s0,.02,0,.03.01,0,.02,0h.04s.07-.03.07-.03c.01,0,.02,0,.02-.01,0,0,0-.01,0-.02h0s0,0,0,0Z"/>
        </g>
        <g>
          <path class="cls-1" d="M8.65,8.71h-.09v-.04s-.01-.03-.03-.03-.03.01-.03.03v.04h-.09s-.03.01-.03.03.01.03.03.03h.09v.04s.01.03.03.03.03-.01.03-.03v-.04h.09s.03-.01.03-.03-.01-.03-.03-.03Z"/>
          <g>
            <path class="cls-1" d="M8.87,8.69s-.02.04-.04.04-.04-.02-.04-.04.02-.04.04-.04.04.02.04.04Z"/>
            <path class="cls-1" d="M8.29,8.69s-.02.04-.04.04c-.02,0-.04-.02-.04-.04s.02-.04.04-.04c.02,0,.04.02.04.04Z"/>
          </g>
        </g>
        <path class="cls-2" d="M8.9,7.81s.05-.04.07-.09c0,0,.01,0,.02,0,.04,0,.11.01.12.02,0,0,.01.01.01.01.02.01.03.03.06,0t0,0s-.02-.07-.07-.07c0,0-.01,0-.02-.01-.06-.03-.12-.06-.14-.04-.01,0-.02.02-.04.03-.02.02-.04.05-.05.04-.01-.01-.08-.09-.11-.15.01,0,.02-.02.02-.02.01-.01.02-.03.03-.04,0,0,0,0,0,0,0,0,.02,0,.03,0,0,0,.02,0,.03,0,.01,0,.02-.02.02-.03,0-.02-.02-.07-.18-.06v-.04s0,0,0,0c0,0,0,0,0,0,0,0-.02.02-.03.04h-.01s0-.01,0-.01c0,0,0,0,0,0,0,0,0-.02,0-.03,0-.06-.04-.1-.1-.1-.05,0-.09.03-.1.08h-.01s-.04,0-.05,0c-.02,0-.05.01-.07.02-.01,0-.02.01-.03.02s-.02.01-.03.02c0,0,0,0,0,0,0,0,0,0,0,0,0,0,.02,0,.03,0,0,0,0,0,0,0,0,0,.01,0,.02,0,0,0,.01,0,.01,0-.01,0-.04,0-.07,0-.01,0-.02,0-.03-.01-.03-.01-.04-.02-.07-.01-.02,0-.03.02-.04.04,0,0,0,0,0,0,0,0,0,0-.01,0-.02,0-.03,0-.04.01,0,0,0,.01,0,.01,0,0,0,.01-.01.02,0,0-.01,0-.02,0,0,0-.02-.01-.02,0,0,0,0,.02,0,.04,0,.07-.02.1-.02.1,0,0-.03.02-.04.05,0,.01,0,.02.01.03,0,0,0,0,.01.01t0,.04s0,.02,0,.03c0,0,.03.01.05.01s.04,0,.06-.02c.01-.01.03-.02.06-.04-.03.05.01.08.03.1h0s0,0,.01,0,0-.01,0-.02l.07.08s-.06.06-.07.11c-.01,0-.02,0-.03-.01-.02,0-.03-.01-.04-.02-.01,0-.02-.01-.04-.02-.03,0-.05-.02-.07,0s-.03.04-.03.06c0,.02,0,.03.02.04s.02.02.02.04,0,.03-.01.04c0,0-.01,0-.01.01,0,0-.01,0-.02.01-.01.01-.02.04-.01.05,0,0,0,.01.01.01,0,0,0,0,0,.01,0,0,0,.01,0,.02,0,0,0,.01,0,.02,0,.02.02.04.03.05,0,0,0,0,0,0s0,0,0,0c0,0,0-.01,0-.03,0-.01-.01-.03,0-.03,0,0,.01,0,.02,0s.02,0,.02,0c0,0,0-.02,0-.04,0-.02-.01-.03,0-.05,0,0,.01-.01.02-.01,0,0,.02,0,.02-.02.02-.03,0-.06-.02-.08,0,0-.01-.02-.02-.02,0-.01-.01-.01-.01-.02,0,0,.01-.01.02-.01.01,0,.02,0,.03.02,0,0,0,.01.01.01.02.01.04.02.08.01.03.06.1.12.16.11-.01.04-.02.06-.03.08,0,0-.01.02,0,.03s.02.02.05.02c.02,0,.05,0,.07.01,0,.01-.01.02-.02.03h-.05s0,.01,0,.02l-.04.04h-.22s0,0,0,0,0,0,0,0l.16.04h-.13s0-.01,0,0h0s.05.06.05.06t0,0h.77l.06-.06s0,0,0,0h0s-.04-.03-.08-.06c.01,0,.02-.01.03-.02.03.01.07.03.08.03h0s.02-.01.03-.02c.01-.01.02-.03.02-.04,0-.02-.02-.02-.03-.02,0,0,0,0,0,0,0,0-.01.03-.03.03,0,0-.02,0-.03-.01.02-.01.06-.05.11-.1h0s0-.02,0-.02c0,0,0,0,0,0,0,0,0,0,0,0,0,0,0-.01,0-.02,0,0,0,0-.01,0-.01,0-.03.02-.04.04,0,.01-.01.02-.04.04,0,0-.02.01-.03.02,0-.03-.01-.05-.03-.06,0-.01-.01-.02-.02-.03,0,0,.02.01.03.01.03,0,.07-.01.1-.04,0,0,.01-.01.02-.02h.07s0,0,0,0,0,0,0,0h-.02s0-.01,0-.01c0,0,0,0,0,0s0,0,0,0h-.02s.01-.02.01-.02h0s0,0,0,0h-.04s-.01-.04-.03-.05c0,0-.02-.01-.03-.01,0,0-.02,0-.02,0,0,0,0-.01-.01-.02,0,0,0-.02-.01-.02,0,0,0,0-.01,0-.01,0-.02.02-.02.04,0,0,0,.02.02.03-.02,0-.04-.01-.04-.01t0,0s0,0,0,0c0,.02.02.03.03.04h-.01s0,0,0,0c0,0,0,0,0,0,0,.02.02.02.04.03.01,0,.02,0,.03.01s.01.01.01.02c0,0-.01,0-.02,0-.01,0-.02-.01-.04-.02-.01-.01-.03-.03-.05-.02-.01,0-.02.01-.03.02,0,.02.01.05.02.06,0,0,0,0,0,.01s0,0-.02.01c0-.01-.02-.02-.03-.04.01-.05.05-.14.08-.19h0s0,0,0,0c-.03,0-.07.04-.11.08-.01,0-.02-.01-.04-.02h0s0,0-.01-.01c-.01-.01-.03-.04-.05-.07,0,0,0,0,0,0,.01,0,.03,0,.04,0,.06,0,.14-.01.17-.03.03,0,.05.03.08.05.02.02.04.04.06.04h0s.02.05.05.05c0,0,.01,0,.02,0,0,0,0,0,0,0,0-.04-.02-.07-.06-.09-.02-.01-.04-.03-.06-.05-.03-.03-.05-.05-.07-.05-.01,0-.04,0-.06,0-.01,0-.02,0-.03,0,0,0,.01-.01.02-.02ZM8.77,7.53s-.01.02-.02.02c0-.02-.01-.03-.01-.04h.01s.03-.01.05-.02c0,.01-.01.02-.02.03ZM8.45,7.37s0,.01.01.02c0,0,0,.01,0,.02-.01,0-.02,0-.04,0,0,0,0,0,0,0,0,0,.01-.01.02-.02,0,0,0,0,0-.01ZM8.53,7.49s.02-.01.02-.02h0s0,0,0,0,.01,0,.02,0c0,.02-.02.03-.02.05l-.02-.02ZM8.21,7.73s0-.01,0-.02c0-.02.01-.04.03-.05.03-.01.07-.02.09-.03,0,.02.01.04.02.07,0,.02.02.04.03.06,0,.02.02.03.03.04-.02.01-.04.02-.05.02,0,0-.02,0-.03,0l-.09-.06s0,0,0,0c0-.01-.02-.02-.03-.03ZM8.73,8.04h0s-.1-.01-.15,0c0,0,0,0,0,0s0,0,0,0c.01,0,.02,0,.03,0,.02,0,.03,0,.03.03,0,0,0,0,0,0,0,0,0,0,0,0,.04,0,.06,0,.07.02,0,0,0,0,0,.01h0s0,0,0,0c.04,0,.05.02.05.04h0s0,0,0,0c.03,0,.05,0,.05.02-.02,0-.05-.01-.08-.01,0,0-.01-.02-.02-.03-.02-.02-.04-.03-.1-.01h0s-.03,0-.06,0v-.04s0-.07,0-.09c.04-.01.09-.03.13-.05.01.02.03.03.04.04,0,0,0,0,0,0,0,0,0,0,0,0,0,.01.02.02.01.04ZM8.42,8.19s.05-.05.06-.09c0,.02,0,.04,0,.06h0s0,0,0,0c0,0-.01.01-.01.03,0,0,0,0,0,0,0,0,0,0,.01,0,.01,0,.02,0,.03,0s.02,0,.03,0c.01,0,.03,0,.06,0,.02,0,.05-.01.05,0,0,0,0,0,.02,0-.02,0-.04.01-.06.03-.04-.01-.09-.01-.11,0,0,0-.01.01-.02.02-.03-.01-.07-.03-.07-.05Z"/>
        <path class="cls-8" d="M8.9,7.81s.05-.04.07-.09c0,0,.01,0,.02,0,.04,0,.11.01.12.02,0,0,.01.01.01.01.02.01.03.03.06,0t0,0s-.02-.07-.07-.07c0,0-.01,0-.02-.01-.06-.03-.12-.06-.14-.04-.01,0-.02.02-.04.03-.02.02-.04.05-.05.04-.01-.01-.08-.09-.11-.15.01,0,.02-.02.02-.02.01-.01.02-.03.03-.04,0,0,0,0,0,0,0,0,.02,0,.03,0,0,0,.02,0,.03,0,.01,0,.02-.02.02-.03,0-.02-.02-.07-.18-.06v-.04s0,0,0,0c0,0,0,0,0,0,0,0-.02.02-.03.04h-.01s0-.01,0-.01c0,0,0,0,0,0,0,0,0-.02,0-.03,0-.06-.04-.1-.1-.1-.05,0-.09.03-.1.08h-.01s-.04,0-.05,0c-.02,0-.05.01-.07.02-.01,0-.02.01-.03.02s-.02.01-.03.02c0,0,0,0,0,0,0,0,0,0,0,0,0,0,.02,0,.03,0,0,0,0,0,0,0,0,0,.01,0,.02,0,0,0,.01,0,.01,0-.01,0-.04,0-.07,0-.01,0-.02,0-.03-.01-.03-.01-.04-.02-.07-.01-.02,0-.03.02-.04.04,0,0,0,0,0,0,0,0,0,0-.01,0-.02,0-.03,0-.04.01,0,0,0,.01,0,.01,0,0,0,.01-.01.02,0,0-.01,0-.02,0,0,0-.02-.01-.02,0,0,0,0,.02,0,.04,0,.07-.02.1-.02.1,0,0-.03.02-.04.05,0,.01,0,.02.01.03,0,0,0,0,.01.01t0,.04s0,.02,0,.03c0,0,.03.01.05.01s.04,0,.06-.02c.01-.01.03-.02.06-.04-.03.05.01.08.03.1h0s0,0,.01,0,0-.01,0-.02l.07.08s-.06.06-.07.11c-.01,0-.02,0-.03-.01-.02,0-.03-.01-.04-.02-.01,0-.02-.01-.04-.02-.03,0-.05-.02-.07,0s-.03.04-.03.06c0,.02,0,.03.02.04s.02.02.02.04,0,.03-.01.04c0,0-.01,0-.01.01,0,0-.01,0-.02.01-.01.01-.02.04-.01.05,0,0,0,.01.01.01,0,0,0,0,0,.01,0,0,0,.01,0,.02,0,0,0,.01,0,.02,0,.02.02.04.03.05,0,0,0,0,0,0s0,0,0,0c0,0,0-.01,0-.03,0-.01-.01-.03,0-.03,0,0,.01,0,.02,0s.02,0,.02,0c0,0,0-.02,0-.04,0-.02-.01-.03,0-.05,0,0,.01-.01.02-.01,0,0,.02,0,.02-.02.02-.03,0-.06-.02-.08,0,0-.01-.02-.02-.02,0-.01-.01-.01-.01-.02,0,0,.01-.01.02-.01.01,0,.02,0,.03.02,0,0,0,.01.01.01.02.01.04.02.08.01.03.06.1.12.16.11-.01.04-.02.06-.03.08,0,0-.01.02,0,.03s.02.02.05.02c.02,0,.05,0,.07.01,0,.01-.01.02-.02.03h-.05s0,.01,0,.02l-.04.04h-.22s0,0,0,0,0,0,0,0l.16.04h-.13s0-.01,0,0h0s.05.06.05.06t0,0h.77l.06-.06s0,0,0,0h0s-.04-.03-.08-.06c.01,0,.02-.01.03-.02.03.01.07.03.08.03h0s.02-.01.03-.02c.01-.01.02-.03.02-.04,0-.02-.02-.02-.03-.02,0,0,0,0,0,0,0,0-.01.03-.03.03,0,0-.02,0-.03-.01.02-.01.06-.05.11-.1h0s0-.02,0-.02c0,0,0,0,0,0,0,0,0,0,0,0,0,0,0-.01,0-.02,0,0,0,0-.01,0-.01,0-.03.02-.04.04,0,.01-.01.02-.04.04,0,0-.02.01-.03.02,0-.03-.01-.05-.03-.06,0-.01-.01-.02-.02-.03,0,0,.02.01.03.01.03,0,.07-.01.1-.04,0,0,.01-.01.02-.02h.07s0,0,0,0,0,0,0,0h-.02s0-.01,0-.01c0,0,0,0,0,0s0,0,0,0h-.02s.01-.02.01-.02h0s0,0,0,0h-.04s-.01-.04-.03-.05c0,0-.02-.01-.03-.01,0,0-.02,0-.02,0,0,0,0-.01-.01-.02,0,0,0-.02-.01-.02,0,0,0,0-.01,0-.01,0-.02.02-.02.04,0,0,0,.02.02.03-.02,0-.04-.01-.04-.01t0,0s0,0,0,0c0,.02.02.03.03.04h-.01s0,0,0,0c0,0,0,0,0,0,0,.02.02.02.04.03.01,0,.02,0,.03.01s.01.01.01.02c0,0-.01,0-.02,0-.01,0-.02-.01-.04-.02-.01-.01-.03-.03-.05-.02-.01,0-.02.01-.03.02,0,.02.01.05.02.06,0,0,0,0,0,.01s0,0-.02.01c0-.01-.02-.02-.03-.04.01-.05.05-.14.08-.19h0s0,0,0,0c-.03,0-.07.04-.11.08-.01,0-.02-.01-.04-.02h0s0,0-.01-.01c-.01-.01-.03-.04-.05-.07,0,0,0,0,0,0,.01,0,.03,0,.04,0,.06,0,.14-.01.17-.03.03,0,.05.03.08.05.02.02.04.04.06.04h0s.02.05.05.05c0,0,.01,0,.02,0,0,0,0,0,0,0,0-.04-.02-.07-.06-.09-.02-.01-.04-.03-.06-.05-.03-.03-.05-.05-.07-.05-.01,0-.04,0-.06,0-.01,0-.02,0-.03,0,0,0,.01-.01.02-.02ZM8.77,7.53s-.01.02-.02.02c0-.02-.01-.03-.01-.04h.01s.03-.01.05-.02c0,.01-.01.02-.02.03ZM8.69,7.35v.03s0,0,0,0c.13,0,.17.02.18.05,0,.01,0,.02-.02.02,0,0-.02,0-.02,0,0,0-.02,0-.02,0,0-.01.01-.02.01-.03,0,0,0,0,0,0,0,0,0,0,0,0,0,.01-.01.03-.02.04-.02,0-.04.01-.05.02h-.01s0,0,0,0c0,.01,0,.03.02.05-.02.02-.05.04-.09.06-.03.02-.06.02-.08.03-.01-.14.04-.19.06-.22.01-.01.02-.02.02-.03,0,0,0,0,0-.01,0-.01.02-.03.03-.03ZM8.58,7.68s-.01.01-.02.02c0-.01,0-.03,0-.05,0,0,0,0,.01,0s.01,0,.01,0c0,.01,0,.02,0,.03ZM8.44,7.43h0s.07.05.11.09c0,.02,0,.07,0,.13,0,0,0,0,0,0,0,0,0-.01,0-.02,0,0,0-.02,0-.04,0-.02-.01-.04-.02-.06,0,0,0,0,0,0,0,0,0,0,0,0,.01.02.02.04.02.06,0,.02,0,.03,0,.04,0,.01,0,.02,0,.03,0,0,0,0,.01,0,0,.01,0,.02,0,.03-.08-.01-.1-.1-.11-.15,0,0,0-.01,0-.02,0,0,0,0,0,0-.01-.01-.03-.03-.05-.07.03,0,.04-.01.06-.01ZM8.53,7.32s.02,0,.03.01c0,0,.01,0,.02.01s0,.01,0,.02h0s-.05,0-.08-.01c0,0-.02,0-.02,0,0,0,0,0,0-.01,0,0,0,0,0,0,0,0,0,0,0,0,0,0,0,0,.01,0,0,0,0,0,.01,0ZM8.46,7.38s0-.01,0-.02c0,0,0,0,0,0,0,0,0,0,.01,0,0,0,0,.01-.01.02ZM8.45,7.37s0,.01.01.02c0,0,0,.01,0,.02-.01,0-.02,0-.04,0,0,0,0,0,0,0,0,0,.01-.01.02-.02,0,0,0,0,0-.01ZM8.48,7.36s.02,0,.03,0c.02,0,.05.01.08.02,0,.02-.01.06-.02.07,0,0-.03,0-.03.01,0,0,0,.02-.02.02-.02-.02-.04-.04-.06-.05,0-.03.02-.05.03-.07ZM8.53,7.49s.02-.01.02-.02h0s0,0,0,0,.01,0,.02,0c0,.02-.02.03-.02.05l-.02-.02ZM8.64,7.37h.01s0,.01,0,.01c0,0,0,0,0,.01,0,0,0,.01-.01.02-.03.03-.08.09-.07.23-.01,0-.02,0-.02,0,0-.04,0-.09,0-.13,0,0,0,0,0,0h0s.04-.09.05-.1c.01-.02.03-.03.04-.04h0s0,0,0,0ZM8.54,7.24c.05,0,.09.04.09.09,0,.01,0,.02,0,.03-.01.01-.03.03-.04.04h0s0-.03,0-.04h0s-.02-.06-.06-.06h0s-.04,0-.06,0h-.01s.05-.07.09-.07ZM8.29,7.39s0,0,0,0c0,0-.01,0-.02,0h.02s.02-.03.03-.03c.02-.01.04-.02.07-.02.02,0,.03,0,.05,0,.01,0,.02,0,.04,0h.04s-.01,0-.01,0v.02s-.01,0-.01,0c0,0-.01,0-.02,0-.01,0-.02.01-.02.02,0,0-.01.01-.02.02-.02.02-.06.01-.08,0h-.02s-.01-.01-.02-.01ZM8.07,7.74s-.08.02-.1,0c0,0,0-.01,0-.02.01-.03.01-.03-.01-.05,0,0,0,0-.01-.01,0,0,0-.01,0-.02,0-.02.03-.04.03-.04,0,0,.03-.03.02-.1,0-.03,0-.03,0-.03,0,0,0,0,.02,0s.02.01.02,0c.02,0,.02-.01.02-.02,0,0,0,0,0-.01,0,0,.02,0,.03-.01,0,0,.01,0,.02,0,0,0,0,0,0-.01,0-.01.01-.03.03-.03.02,0,.04,0,.06,0,0,0,.02,0,.03.01.05.02.08,0,.09,0,.01,0,.03,0,.05,0,0,0,.01,0,.02,0h0s.04,0,.05,0c0,0,0,0,0,0,0,0,0,0-.01,0-.02,0-.04,0-.08.02-.06.01-.1.07-.14.13-.03.02-.05.07-.07.12-.03.02-.06.04-.07.05ZM8.21,7.73s0-.01,0-.02c0-.02.01-.04.03-.05.03-.01.07-.02.09-.03,0,.02.01.04.02.07,0,.02.02.04.03.06,0,.02.02.03.03.04-.02.01-.04.02-.05.02,0,0-.02,0-.03,0l-.09-.06s0,0,0,0c0-.01-.02-.02-.03-.03ZM8.33,7.62s-.05.01-.08.02c.01-.01.02-.03.03-.03.02-.01.02-.01.04-.02,0,0,.01,0,.02-.01,0,.01,0,.03,0,.04ZM8.22,7.77l.13.09.04.07-.08-.02-.12-.12s0,0,0,0c0,0,0,0,.02,0h.01ZM8.13,8.01h-.01s-.02-.03-.03-.03c-.01,0-.02,0-.03.02,0,0,0,.02.01.02,0,0,.01.01.02.02.01.02.03.05.02.08,0,0-.01.01-.02.01,0,0-.02,0-.02.02,0,.02,0,.04,0,.05,0,.01,0,.02,0,.03,0,0-.01,0-.02,0s-.02,0-.03,0c-.01.01,0,.03,0,.04,0,0,0,.02,0,.02,0,0,0,0,0,0-.01,0-.02-.02-.03-.04v-.02s0-.02,0-.03c0,0,0-.01-.01-.01,0,0,0,0,0-.01,0-.01,0-.03,0-.05,0,0,.01,0,.02-.01,0,0,.01,0,.02-.01.01-.01.01-.03.01-.05s-.01-.03-.02-.04c0-.01-.01-.02-.02-.03,0-.02,0-.05.03-.06.02-.01.04,0,.07,0,.02,0,.03.01.04.02.01,0,.02.01.04.02.01,0,.02,0,.03,0h0s0,.03,0,.04c-.03,0-.06,0-.07-.01ZM8.38,8.26s-.03,0-.04-.01c0,0,0-.02,0-.02,0-.01.02-.03.03-.08,0,0,0,0,0,0,0,0,0,0,0,0-.06.01-.14-.05-.16-.11,0-.01,0-.02,0-.03,0,0,0,0,0-.01,0-.03.03-.07.07-.11l.03.03s0,0,0,0l.09.02h0s0,0,0,0t0,0l-.04-.07h0s-.03-.02-.03-.02c.01,0,.02,0,.02,0,.02,0,.04,0,.06-.02.05.03.14.04.2.04,0,.04.03.08.05.11-.04.02-.09.04-.13.05-.02,0-.03,0-.05,0t0,0h0s0,.06,0,.08h0s-.05.09-.06.1t0,0s.05.04.1.07c0,0,.01,0,.02,0h0s.06.02.08.05c0,0,0,0,0,.01,0,0,0,0,0,0,0,0-.02,0-.03,0,0,0-.04,0-.06-.02-.02-.03-.09-.06-.15-.06ZM8.73,8.04h0s-.1-.01-.15,0c0,0,0,0,0,0s0,0,0,0c.01,0,.02,0,.03,0,.02,0,.03,0,.03.03,0,0,0,0,0,0,0,0,0,0,0,0,.04,0,.06,0,.07.02,0,0,0,0,0,.01h0s0,0,0,0c.04,0,.05.02.05.04h0s0,0,0,0c.03,0,.05,0,.05.02-.02,0-.05-.01-.08-.01,0,0-.01-.02-.02-.03-.02-.02-.04-.03-.1-.01h0s-.03,0-.06,0v-.04s0-.07,0-.09c.04-.01.09-.03.13-.05.01.02.03.03.04.04,0,0,0,0,0,0,0,0,0,0,0,0,0,.01.02.02.01.04ZM8.42,8.19s.05-.05.06-.09c0,.02,0,.04,0,.06h0s0,0,0,0c0,0-.01.01-.01.03,0,0,0,0,0,0,0,0,0,0,.01,0,.01,0,.02,0,.03,0s.02,0,.03,0c.01,0,.03,0,.06,0,.02,0,.05-.01.05,0,0,0,0,0,.02,0-.02,0-.04.01-.06.03-.04-.01-.09-.01-.11,0,0,0-.01.01-.02.02-.03-.01-.07-.03-.07-.05ZM8.66,8.18s-.02,0-.06,0c-.02,0-.04,0-.05,0,0,0-.02,0-.03,0-.02,0-.04,0-.04,0h0s0-.02,0-.03c0,0,0,0,0-.01h0s0-.05,0-.07c0-.02.01-.05,0-.07.01,0,.03,0,.04,0,.01.02.03.06.02.09v.05s-.01,0-.01,0t0,0s.06,0,.06,0t0,0s.08-.01.09,0c.02.02.02.03.02.03,0,0,0,0-.01,0-.01,0-.05,0-.05-.01ZM8.62,8.31s-.01-.03-.03-.04c0,0,0,0,.01,0,0,0,0,0,0,.01,0,.01.01.02.02.03,0,0,0,0,0,.01,0,0,0,0,0,0ZM8.5,8.3s-.04.01-.06.01c0,0,.01-.02.02-.03.02,0,.03.01.04.02ZM9,8.4l-.05.05h-.76l-.04-.05h.17s0,.01,0,0c0,0,0,0,0,0l-.17-.04h.19s0,0,0,0l.04-.04h.05s0-.01,0,0c0,0,0,0,0,0,0,0,0,0,0,0h0s.04,0,.07-.01c0,0,.01.01.02.01.02.02.04.02.06.02h.01s.01,0,.01,0c0,0,0,.01,0,.01,0,0,0,.01,0,.01h0s.03.01.06.01c.05,0,.11,0,.11,0,.01,0,.02-.01.02-.03h0s.04,0,.06,0c.03,0,.05,0,.08-.01.03.02.07.04.08.05ZM9.13,8.05h0s0,0,0,.01,0,0,0,0h.02s0,.02,0,.02t0,0s0,0,0,0h.01s-.04,0-.04,0c0,0,0-.01,0-.02,0,0,0-.02,0-.02h.03ZM8.94,8s.03.01.05.01c0,0,0,0,0,0,0,0,0,0,.01,0,0,0-.02,0-.03,0,0,0-.02-.02-.03-.03ZM8.92,8.16s0,0,0-.01c-.01-.01-.02-.04-.02-.06,0,0,.01-.02.02-.02.01,0,.03,0,.04.02.01.01.03.02.04.02s.02,0,.03-.01c0,0,0-.02-.01-.03,0,0-.02,0-.03-.01-.01,0-.03-.01-.03-.02,0,0,.01,0,.02,0h0s.03,0,.04-.01c0,0,0,0,0,0,0,0,0,0-.01-.02-.01-.01-.03-.03-.03-.03,0-.01,0-.03.02-.03h0s0,.01.01.02c0,0,0,.01.01.02,0,0,.01,0,.02,0,.01,0,.02,0,.02,0,.03.03.04.06.04.07,0,.01,0,.03-.02.04-.03.02-.06.04-.09.03-.02,0-.03,0-.04-.02,0,0,0,0,0,0,0,0,0,0,0,0,0,.02.01.03.02.04.01.02.03.04.02.07,0,0,0,0,0,0,0,0,0,0,0,0,.02-.01.03-.02.04-.03.02-.02.03-.03.04-.04,0-.01.02-.03.03-.03,0,0,0,0,0,0,0,0,0,.01,0,.02,0,0,0,.01,0,.01,0,0,0,0,0,0,0,0,0,0,0,.01h0c-.05.06-.09.09-.11.1,0,0-.02-.01-.02-.02,0,0,0,0,0,0,0,0,0,0,0,0,0,0,.04.04.06.04.02,0,.03-.02.04-.03,0,0,.02,0,.02.01,0,0,0,.02-.02.04-.01.01-.02.02-.03.01-.02,0-.09-.03-.1-.04,0,0,0,0,0,0,0,0,0,0,0,0s0,0,.01.01c-.04.03-.11.03-.17.03,0-.01,0-.02-.02-.02-.02,0-.03,0-.04,0,0,0,0,0,0,0h0s-.02,0-.02,0c.01-.02.02-.04.02-.05,0,0,0,0,0,0s0,0,0,0c0,.02-.03.06-.04.07,0,0,0,0,0,0,0,0,0,0,0,0,.03,0,.04,0,.04,0h0s.03-.02.05-.01c.01,0,.02.01.02.02,0,.01-.01.02-.02.02-.03,0-.15.01-.16,0,0,0,0,0,0-.01,0,0,0-.01.01-.02,0,0,0,0,0,0h0s0,0,0,0c.01-.03.02-.05,0-.07,0,0,0,0,0,0h0s0,.02,0,.04c0,0,0-.02-.01-.03,0,0,0-.01,0-.01,0,0,0,0,0,0,0,0-.01,0-.02,0-.01-.01-.03-.02-.05-.01,0,0-.01,0-.02,0,0,0-.01,0-.02,0,0,0,.02-.01.02-.02.02-.01.06-.01.1,0h0s.05-.02.07-.03c.01,0,.02,0,.03,0,0,0,.01,0,.02,0,.04,0,.07,0,.09.01,0,0,0,0,0,0h0s.05.03.05.03h0s0,0,0,0,0,0,0,0c0,0,0,0-.04-.03,0-.04-.04-.04-.06-.04,0-.03-.03-.03-.05-.04,0,0,0-.01,0-.01,0-.01-.03-.02-.07-.02,0-.03-.02-.03-.03-.04,0,0-.01,0-.02,0,.05-.01.09,0,.14.01,0,.01.02.02.04.02.03.02.06.04.08.06h0s.02.03.03.04c0,.01.01.02.01.02s0,0,0,0h0s0,0,0,0c0,0,0-.01-.01-.02.02,0,.03-.01.02-.02ZM8.68,8.33s.02,0,.03,0c0,0,0,0,0,0,0,0-.01,0-.01,0,0,0-.01,0-.03,0,0,0,0,0,0-.01ZM8.93,7.96s-.06.12-.07.17c-.02-.02-.04-.04-.06-.05.01,0,.02,0,.04,0,0,0,.01,0,.02,0,0,0,0,0,0,0,0-.01,0-.02-.02-.03.04-.04.07-.07.1-.08ZM8.78,8.02h0s0,0,0,0c.04.02.06.03.06.05h-.02c-.06,0-.08,0-.09-.02.01-.02,0-.04-.01-.05h0s0,0,0-.01c-.02-.02-.09-.08-.09-.15,0,0,0,0,0,0h0c-.05,0-.21,0-.24-.08,0-.02-.02-.05-.03-.07-.02-.04-.04-.08-.02-.12,0,0,0,0,0,0,0,0,0,0,0,0-.01,0-.02.01-.03.02-.01,0-.02.01-.04.02-.02.01-.06.07-.07.1,0,.01,0,.02,0,.03h0s.03.02.03.02h0s-.01,0-.02,0c-.01,0-.02,0-.03.01,0,0,0,.01,0,.02,0,0,0,.02,0,.02,0,0,0,0,0,0h0s-.06-.05-.02-.1c.02-.05.04-.1.07-.13h0c.04-.06.08-.12.14-.13,0,0,0,0,.01,0,.02.04.04.06.05.07,0,0,0,.01,0,.02.01.05.03.14.12.16,0,0,0,.01,0,.02h0s0,.03.01.03h0s0,0,.01,0c.04,0,.1.02.11.09,0,.03.02.06.03.08h0s.04.06.05.08c0,0,0,.01.01.01ZM8.88,7.83s0,0,0,0h.04s.04,0,.06,0c.01,0,.04.03.06.05.02.02.04.04.06.05.03.02.05.05.05.08-.03.01-.04,0-.05-.04h0s0,0,0,0c-.02,0-.04-.02-.06-.04-.02-.02-.05-.04-.08-.05h0s-.11.02-.17.03c-.02,0-.03,0-.04,0,0,0,0,0,0,0h0s-.02-.05-.03-.07c-.02-.08-.08-.09-.12-.1,0,0,0,0-.01,0,0,0,0-.01,0-.02.01,0,.02-.02.03-.03,0,0,0,0,0,0,0-.01,0-.02,0-.03.03,0,.06-.02.08-.03.04-.02.07-.04.09-.06.03.06.1.14.11.15s.04-.02.06-.04c.01-.01.03-.03.03-.03.02-.01.08.02.14.04,0,0,.01,0,.02.01h0s.06.04.06.07c-.03.02-.04,0-.05,0,0,0,0,0-.01-.01-.02-.02-.09-.02-.13-.03,0,0-.01,0-.02,0h0c-.01.05-.04.07-.06.09-.01,0-.02.01-.02.02h0Z"/>
      </g>
    </g>
  </g>
</svg>