<?xml version="1.0" encoding="UTF-8"?>
<svg id="Layer_1" data-name="Layer 1" xmlns="http://www.w3.org/2000/svg" viewBox="0 0 24 24">
  <defs>
    <style>
      .cls-1 {
        fill: #000;
      }

      .cls-1, .cls-2, .cls-3, .cls-4, .cls-5 {
        stroke-width: 0px;
      }

      .cls-2 {
        fill: none;
      }

      .cls-3 {
        fill: #053891;
      }

      .cls-4 {
        fill: #fff;
      }

      .cls-5 {
        fill: #dc7409;
      }
    </style>
  </defs>
  <rect class="cls-2" width="24" height="24"/>
  <g>
    <path class="cls-1" d="M16.71,7.34c2.92,2.92,3.18,7.42.57,10.03-2.61,2.61-7.11,2.35-10.03-.57-2.92-2.92-3.18-7.42-.57-10.03,2.61-2.61,7.11-2.36,10.03.57Z"/>
    <g>
      <g>
        <path class="cls-3" d="M21,12c0,.74-.09,1.45-.26,2.13-.96,3.94-4.52,6.87-8.74,6.87-2.33,0-4.46-.89-6.06-2.35-.24-.22-.47-.45-.68-.69-.17-.19-.34-.39-.49-.6-1.11-1.5-1.77-3.35-1.77-5.36C3,7.04,7.04,3,12,3c4.11,0,7.58,2.76,8.65,6.53.2.68.31,1.4.34,2.14,0,.11,0,.22,0,.33Z"/>
        <path class="cls-5" d="M20.99,11.67l-15.73,6.29c-.17-.19-.34-.39-.49-.6l15.88-7.83c.2.68.31,1.4.34,2.14Z"/>
        <path class="cls-4" d="M21,12c0,.74-.09,1.45-.26,2.13l-14.8,4.52c-.24-.22-.47-.45-.68-.69l15.73-6.29c0,.11,0,.22,0,.33Z"/>
      </g>
      <polygon class="cls-4" points="8.77 5.37 8.94 8.23 9.54 6.65 9.26 8.32 10.25 6.95 9.56 8.49 10.87 7.42 9.8 8.73 11.34 8.03 9.97 9.02 11.63 8.75 10.05 9.35 12.91 9.52 10.05 9.68 11.63 10.28 9.97 10.01 11.34 11 9.8 10.31 10.87 11.61 9.56 10.54 10.25 12.08 9.26 10.71 9.54 12.38 8.94 10.8 8.77 13.66 8.6 10.8 8 12.38 8.27 10.71 7.29 12.08 7.98 10.54 6.67 11.61 7.74 10.31 6.2 11 7.57 10.01 5.9 10.28 7.48 9.68 4.62 9.52 7.48 9.35 5.9 8.75 7.57 9.02 6.2 8.03 7.74 8.73 6.67 7.42 7.98 8.49 7.29 6.95 8.27 8.32 8 6.65 8.6 8.23 8.77 5.37"/>
    </g>
  </g>
</svg>