<?xml version="1.0" encoding="UTF-8"?>
<svg id="Layer_1" data-name="Layer 1" xmlns="http://www.w3.org/2000/svg" viewBox="0 0 24 24">
  <defs>
    <style>
      .cls-1 {
        fill: #000;
      }

      .cls-1, .cls-2, .cls-3, .cls-4 {
        stroke-width: 0px;
      }

      .cls-2 {
        fill: #fec315;
      }

      .cls-3 {
        fill: none;
      }

      .cls-4 {
        fill: #006133;
      }
    </style>
  </defs>
  <rect class="cls-3" width="24" height="24"/>
  <g>
    <path class="cls-1" d="M16.71,7.34c2.92,2.92,3.18,7.42.57,10.03-2.61,2.61-7.11,2.36-10.03-.57-2.92-2.92-3.18-7.42-.57-10.03,2.61-2.61,7.11-2.36,10.03.57Z"/>
    <g>
      <path class="cls-4" d="M12,21c-4.96,0-9-4.04-9-9S7.04,3,12,3s9,4.04,9,9-4.04,9-9,9Z"/>
      <g>
        <path class="cls-2" d="M17.66,9.66c-.12,3.02-2.61,5.44-5.66,5.44s-5.54-2.41-5.66-5.44c-.1.42-.15.85-.15,1.3,0,3.21,2.6,5.81,5.81,5.81s5.81-2.6,5.81-5.81c0-.45-.05-.88-.15-1.3Z"/>
        <polygon class="cls-2" points="12 7.23 12.5 8.76 14.1 8.76 12.8 9.71 13.3 11.24 12 10.29 10.7 11.24 11.2 9.71 9.9 8.76 11.5 8.76 12 7.23"/>
      </g>
    </g>
  </g>
</svg>