<?xml version="1.0" encoding="UTF-8"?>
<svg id="Layer_1" data-name="Layer 1" xmlns="http://www.w3.org/2000/svg" viewBox="0 0 24 24">
  <defs>
    <style>
      .cls-1 {
        fill: #000;
      }

      .cls-1, .cls-2, .cls-3, .cls-4 {
        stroke-width: 0px;
      }

      .cls-2 {
        fill: none;
      }

      .cls-3 {
        fill: #75b1dc;
      }

      .cls-4 {
        fill: #fff;
      }
    </style>
  </defs>
  <rect class="cls-2" width="24" height="24"/>
  <g>
    <path class="cls-1" d="M16.71,7.34c2.92,2.92,3.18,7.42.57,10.03-2.61,2.61-7.11,2.35-10.03-.57-2.92-2.92-3.18-7.42-.57-10.03,2.61-2.61,7.11-2.36,10.03.57Z"/>
    <g>
      <path class="cls-3" d="M12,21c-4.96,0-9-4.04-9-9S7.04,3,12,3s9,4.04,9,9-4.04,9-9,9Z"/>
      <g>
        <g>
          <polygon class="cls-4" points="6.35 10.4 7.07 11.39 8.24 11 7.52 12 8.24 12.98 7.08 12.61 6.36 13.6 6.36 12.38 5.19 12 6.35 11.62 6.35 10.4"/>
          <polygon class="cls-4" points="17.65 10.4 16.93 11.39 15.76 11 16.48 12 15.76 12.98 16.92 12.61 17.64 13.6 17.64 12.38 18.81 12 17.65 11.62 17.65 10.4"/>
        </g>
        <g>
          <polygon class="cls-4" points="12 5.19 12.38 6.35 13.6 6.35 12.61 7.07 12.99 8.24 12 7.52 11.01 8.24 11.39 7.07 10.4 6.35 11.62 6.35 12 5.19"/>
          <polygon class="cls-4" points="12 18.81 11.62 17.65 10.4 17.65 11.39 16.93 11.01 15.76 12 16.48 12.99 15.76 12.61 16.93 13.6 17.65 12.38 17.65 12 18.81"/>
        </g>
      </g>
    </g>
  </g>
</svg>