<?xml version="1.0" encoding="UTF-8"?>
<svg id="Layer_1" data-name="Layer 1" xmlns="http://www.w3.org/2000/svg" viewBox="0 0 24 24">
  <defs>
    <style>
      .cls-1 {
        fill: #0846ac;
      }

      .cls-1, .cls-2, .cls-3, .cls-4, .cls-5, .cls-6, .cls-7 {
        stroke-width: 0px;
      }

      .cls-2 {
        fill: #000;
      }

      .cls-3 {
        fill: none;
      }

      .cls-4 {
        fill: #cb0b2e;
      }

      .cls-5 {
        fill: #fed117;
      }

      .cls-6 {
        fill: #067654;
      }

      .cls-7 {
        fill: #af7e55;
      }
    </style>
  </defs>
  <rect class="cls-3" width="24" height="24"/>
  <g>
    <path class="cls-2" d="M16.71,7.34c2.92,2.92,3.18,7.42.57,10.03-2.61,2.61-7.11,2.36-10.03-.57-2.92-2.92-3.18-7.42-.57-10.03,2.61-2.61,7.11-2.35,10.03.57Z"/>
    <g>
      <g>
        <path class="cls-1" d="M6.93,4.57v14.86c-2.37-1.62-3.93-4.35-3.93-7.43s1.56-5.81,3.93-7.43Z"/>
        <path class="cls-4" d="M21,12c0,3.08-1.56,5.8-3.92,7.43V4.57c2.37,1.62,3.92,4.35,3.92,7.43Z"/>
        <path class="cls-5" d="M17.08,4.57v14.86c-1.45.99-3.19,1.57-5.08,1.57s-3.63-.58-5.07-1.57V4.57c1.44-.99,3.19-1.57,5.07-1.57s3.63.58,5.08,1.57Z"/>
      </g>
      <g>
        <g>
          <path class="cls-5" d="M11.53,8.02s.02.06.02.09c0,.03,0,.06-.02.08,0-.01-.02-.03-.03-.05h0s-.22,0-.22,0v.67h0s.03.03.05.04c-.01.01-.02.03-.04.05-.01.03-.03.06-.05.06-.01,0-.03-.03-.05-.06-.01-.02-.02-.04-.04-.05.01,0,.03-.02.05-.03h0v-.67h-.21s-.03.04-.03.05c-.01-.02-.02-.05-.02-.08,0-.03,0-.06.02-.08,0,.01.02.03.03.05h0s.21,0,.21,0v-.2h0s-.04-.03-.05-.04c.05-.03.12-.03.17,0-.01,0-.03.02-.05.04h0v.2h.22s.03-.04.03-.05Z"/>
          <path class="cls-2" d="M11.54,8.01v-.02s-.02.01-.02.01c0,0-.02.03-.04.05h-.19v-.17s.05-.04.05-.04h.01s-.02-.02-.02-.02c-.06-.03-.14-.03-.2,0h-.02s.01.02.01.02c0,0,.02.01.05.04v.17h-.18s-.04-.05-.04-.05h0s-.01,0-.01,0c-.02.03-.03.06-.03.1,0,.03.01.07.03.1v.02s.02-.01.02-.01c0,0,.01-.03.04-.05h.18v.64s-.05.04-.05.04h-.01s.02.02.02.02c.01,0,.02.03.04.05.02.04.04.07.06.07.02,0,.04-.03.06-.07.01-.02.02-.04.03-.05h.02s-.01-.02-.01-.02c0,0-.03-.01-.05-.04v-.64h.19s.04.05.04.05h0s.01,0,.01,0c.02-.03.02-.06.02-.1,0-.04,0-.07-.02-.1ZM11.53,8.19s-.02-.03-.03-.05h0s-.22,0-.22,0v.67h0s.04.03.05.04c-.01.01-.02.03-.04.05-.01.03-.03.06-.05.06s-.03-.03-.05-.06c-.01-.02-.02-.04-.04-.05.01,0,.03-.02.05-.03h0v-.67h-.21s-.03.04-.03.05c-.01-.02-.02-.05-.02-.08,0-.03,0-.06.02-.08,0,.01.02.03.03.04h0s.21,0,.21,0v-.2h0s-.03-.03-.04-.04c.05-.03.12-.03.17,0-.01,0-.03.02-.05.04h0v.2h.22s.03-.04.03-.05c.02.02.02.05.02.08,0,.03,0,.06-.02.08Z"/>
        </g>
        <g>
          <g>
            <g>
              <path class="cls-7" d="M14.71,9.24l-.1.2-.12-.13c-.02-.06-.05-.13-.11-.14-.02,0-.05,0-.05.03,0,.02,0,.05.03.05.02,0,.03.03.04.07l-.13.17s0,0,0,0c0,0-.02,0-.02,0l-.12-.1c0-.06-.01-.15-.09-.17-.02,0-.04,0-.05.03,0,.02.01.05.03.05.02,0,.03.05.02.09l-.25.25-.05-.02v-.39c.19-.07.45-.32.54-.4.08.05.3.21.44.41Z"/>
              <path class="cls-7" d="M14.8,9.45v.45l-.13-.09v-.3h0s.09-.18.09-.18c.02.04.03.08.04.12Z"/>
              <polygon class="cls-7" points="14.8 10 14.8 10.26 14.67 10.36 14.67 9.91 14.8 10"/>
              <polygon class="cls-7" points="14.6 9.92 14.6 10.34 14.5 10.26 14.5 10 14.6 9.92"/>
              <polygon class="cls-7" points="14.6 9.55 14.6 9.81 14.5 9.89 14.5 9.44 14.6 9.55"/>
              <polygon class="cls-7" points="14.41 9.43 14.41 9.9 14.29 9.81 14.29 9.58 14.41 9.43"/>
              <polygon class="cls-7" points="14.41 10 14.41 10.26 14.29 10.35 14.29 9.91 14.41 10"/>
              <polygon class="cls-7" points="14.22 9.92 14.22 10.35 14.12 10.26 14.12 10 14.22 9.92"/>
              <polygon class="cls-7" points="14.22 9.58 14.22 9.81 14.12 9.89 14.12 9.49 14.22 9.58"/>
              <polygon class="cls-7" points="14.03 9.5 14.03 9.89 13.82 9.71 14.03 9.5"/>
              <polygon class="cls-7" points="14.03 10 14.03 10.26 13.92 10.35 13.92 9.9 14.03 10"/>
              <path class="cls-7" d="M13.69,9.73s-.29,0-.51.17l.09.05.07-.14.19.16c.06-.05.12-.17.15-.24h0Z"/>
              <path class="cls-7" d="M14.8,10.36v4.35c-.13-.12-.27-.29-.3-.41v-3.94l.11.09s0,0,.01,0l.03.03.15-.12Z"/>
              <path class="cls-7" d="M14.41,14.32s0,0,0,0c-.09-.06-.23-.18-.3-.4v-3.56l.14.12.16-.13v3.95h0Z"/>
              <path class="cls-7" d="M10.75,9.81c-.17-.07-.34-.07-.34-.07h0c.03.07.09.19.15.24l.19-.16.07.14.09-.05c-.05-.04-.11-.07-.16-.09Z"/>
              <polygon class="cls-7" points="10.19 9.9 10.19 10.35 10.07 10.26 10.07 10 10.19 9.9"/>
              <polygon class="cls-7" points="10.28 9.71 10.07 9.89 10.07 9.5 10.28 9.71"/>
              <polygon class="cls-7" points="9.99 9.49 9.99 9.89 9.88 9.81 9.88 9.58 9.99 9.49"/>
              <polygon class="cls-7" points="9.99 10 9.99 10.26 9.88 10.35 9.88 9.92 9.99 10"/>
              <polygon class="cls-7" points="9.81 9.91 9.81 10.35 9.69 10.26 9.69 10 9.81 9.91"/>
              <polygon class="cls-7" points="9.61 10 9.61 10.26 9.51 10.34 9.51 9.92 9.61 10"/>
              <polygon class="cls-7" points="9.44 9.91 9.44 10.36 9.31 10.26 9.31 10 9.44 9.91"/>
              <path class="cls-7" d="M9.35,9.32l.09.18h0v.3l-.13.09v-.45s.02-.08.04-.12Z"/>
              <polygon class="cls-7" points="9.61 9.44 9.61 9.89 9.51 9.81 9.51 9.55 9.61 9.44"/>
              <polygon class="cls-7" points="9.81 9.58 9.81 9.81 9.69 9.9 9.69 9.43 9.81 9.58"/>
              <path class="cls-7" d="M10.37,9.23v.39l-.05.02-.25-.25s0-.08.03-.09c.02,0,.04-.03.03-.05,0-.02-.03-.04-.05-.03-.08.02-.09.11-.09.17l-.12.1s-.01,0-.02,0c0,0,0,0,0,0l-.13-.17s.03-.07.04-.07c.02,0,.04-.03.03-.05,0-.02-.03-.04-.05-.03-.06.01-.09.08-.11.14l-.12.13-.1-.2c.14-.21.36-.36.44-.41.08.08.34.34.54.4Z"/>
              <path class="cls-7" d="M9.61,10.36v3.94c-.03.12-.17.29-.3.41v-4.35l.15.12.03-.03s.01,0,.01,0l.11-.09Z"/>
              <path class="cls-7" d="M9.69,14.32v-3.95l.16.13.14-.12v3.56c-.06.23-.2.35-.3.4,0,0,0,0,0-.01h0Z"/>
              <path class="cls-7" d="M14.03,10.36v3.4c-.11-.13-.32-.46-.42-1.14v-.04h-3.12v.04c-.11.68-.32,1.01-.43,1.14v-3.4l.15.12.3-.26s.02-.04,0-.06c-.01-.02-.04-.02-.06,0l-.21.18v-.5l.08-.07c.04.08.12.23.2.28h.02s.16-.12.16-.12l.06.12.22-.11c.31.06.41-.04.54-.08h1.02c.13.04.23.14.54.08l.22.11.06-.12.16.13h.02c.09-.06.16-.21.2-.3l.08.07v.5l-.21-.18s-.04-.01-.06,0c-.01.02-.01.04,0,.06l.3.26.15-.12Z"/>
              <path class="cls-2" d="M9.66,12.96l-.06-.15v1.1s.06-.01.08-.02v-.87l-.03-.06ZM12.41,9.79h-.09s.02.06.03.08h.16s-.07-.05-.1-.08ZM12.17,9.79h-.05v.03h0s0,.02.01.02l-.03.03h.11s-.03-.04-.05-.07h0ZM12,9.83h0v-.04h-.05s0,.02-.01.03h0s-.03.04-.04.05h.12l-.03-.04s0,0,0-.01ZM11.6,9.87h.16s.02-.06.03-.08h-.1s-.06.06-.1.08ZM14.91,14.82s-.02-.07-.02-.08v-5.31h0c-.02-.08-.05-.16-.09-.22-.08-.14-.21-.26-.31-.34-.11-.08-.19-.13-.2-.14l-.03-.02-.02.03s-.35.36-.55.42h-.03v.49c-.1,0-.36.05-.56.22-.28.05-.37-.02-.47-.06-.01,0-.03-.01-.04-.01h0s-1.05,0-1.05,0h0s-.02,0-.02.01c-.1.04-.19.13-.48.07-.2-.17-.46-.21-.56-.22v-.48h-.03c-.2-.06-.55-.42-.55-.42l-.02-.03-.03.02s-.34.2-.51.48c-.02.03-.04.07-.05.11-.02.04-.03.07-.04.11h0v5.31s-.01.04-.02.08l-.04.14.11-.09c.1-.09.28-.26.37-.42.06-.02.24-.11.36-.33.02-.03.03-.06.04-.09,0,0,0,0,0,0,0,0,0-.01,0-.01,0,0,0-.01,0-.02,0-.01,0-.02.01-.03h0v-.05s0,0,.01-.01c.01-.01.03-.02.04-.04.01-.01.03-.03.04-.05,0,0,0,0,0,0,.01-.02.03-.05.05-.07.02-.03.04-.06.06-.1.06-.12.13-.27.19-.48,0-.02.01-.04.02-.06,0-.02.01-.05.02-.07.02-.1.05-.21.06-.33h2.97c.02.12.04.23.06.32,0,.03.01.05.02.07l.02.06c.12.39.26.6.34.7,0,0,.01.01.02.02.01.02.02.03.03.04v.05h0s.03.08.04.12v.02c.13.25.33.34.39.36.09.16.27.34.37.42l.11.09-.04-.14ZM14.8,10.26l-.13.11v-.45l.13.09v.25ZM14.8,9.44v.46l-.13-.09v-.3h0s.09-.18.09-.18c.02.04.03.08.04.12ZM13.73,9.23c.19-.07.45-.33.53-.41.08.05.31.2.44.41l-.1.2-.12-.13c-.02-.06-.05-.13-.11-.14-.02,0-.05,0-.05.03,0,.02.01.05.03.05.01,0,.03.03.04.07l-.13.17s0,0-.01,0c0,0-.01,0-.02,0l-.12-.1c0-.06-.01-.15-.09-.17-.02,0-.04,0-.05.03,0,.02.01.04.03.05.02,0,.03.05.02.08l-.25.25-.05-.02v-.39ZM14.5,9.89v-.45l.1.11v.26l-.1.08ZM14.6,9.92v.42l-.1-.08v-.26l.1-.08ZM14.41,10v.25l-.12.1v-.44l.12.09ZM14.29,9.81v-.23l.12-.15v.47l-.12-.09ZM14.12,9.89v-.4l.11.09v.23l-.11.08ZM14.22,9.92v.43l-.11-.09v-.26l.11-.08ZM13.92,9.9l.12.1v.25l-.12.09v-.44ZM13.82,9.71l.21-.21v.39l-.21-.18ZM13.69,9.73h0c-.03.07-.09.19-.15.24l-.19-.16-.07.14-.1-.05c.22-.16.5-.17.51-.17ZM10.41,9.73s.17,0,.34.07c.05.02.11.05.16.09l-.09.05-.07-.14-.19.16c-.06-.05-.12-.17-.15-.24h0ZM9.84,8.82c.08.08.34.34.53.41v.39l-.05.02-.25-.25s0-.08.03-.08c.02,0,.04-.03.03-.05,0-.02-.03-.04-.05-.03-.08.02-.09.11-.09.17l-.12.1s-.01,0-.02,0c0,0,0,0,0,0l-.13-.17s.03-.06.04-.07c.02,0,.04-.03.03-.05,0-.02-.03-.04-.05-.03-.06.01-.09.08-.11.14l-.12.13-.1-.2c.13-.21.36-.36.44-.41ZM10.07,9.89v-.39l.21.21-.21.18ZM10.19,9.9v.44l-.12-.09v-.26l.12-.09ZM9.99,10v.26l-.11.09v-.43l.11.08ZM9.88,9.81v-.23l.11-.09v.4l-.11-.08ZM9.69,9.9v-.47l.12.15v.23l-.12.09ZM9.81,9.91v.44l-.12-.1v-.25l.12-.09ZM9.61,10v.26l-.1.08v-.42l.1.08ZM9.51,9.81v-.26l.1-.11v.45l-.1-.08ZM9.31,9.44s.02-.08.04-.12l.09.18h0v.3l-.13.09v-.46ZM9.31,10l.13-.09v.45l-.13-.11v-.25ZM9.61,14.31c-.03.12-.17.29-.3.41v-4.35l.15.12.03-.03s.01,0,.01,0l.11-.09v3.94ZM9.94,14.05s0,.02-.01.03c-.07.13-.17.21-.24.25,0,0,0,0,0-.01h0v-3.96l.16.13.14-.12v3.56s0,.02,0,.03c0,.01,0,.02-.01.03,0,.01,0,.02-.01.03,0,.01-.01.03-.02.04h0ZM13.7,13.03c-.01-.05-.03-.11-.04-.17-.01-.07-.03-.15-.04-.23v-.03h-3.12v.03c-.02.08-.03.16-.05.23-.01.06-.03.12-.04.17-.05.2-.11.35-.17.47,0,.02-.02.03-.02.05-.05.1-.1.17-.14.22v-3.4l.15.12.17-.15.04-.04.04-.04.04-.04s.02-.04.01-.05c0,0,0,0,0,0-.02-.02-.04-.02-.06,0h-.01s0,.01,0,.01l-.04.04-.04.03-.12.1v-.5l.08-.07c.04.08.12.23.2.28h.03s.16-.12.16-.12l.06.12.22-.11c.2.04.31.01.4-.02.04-.01.07-.03.1-.04h.04s1.02-.01,1.02-.01c.02,0,.03.01.05.02.03.01.06.03.09.04.09.03.2.06.39.02l.22.11.06-.12.16.13h.03c.09-.06.16-.21.2-.29l.08.07v.5l-.11-.1-.04-.04-.04-.03h0s-.01-.01-.01-.01c-.02-.01-.04-.01-.06,0,0,0,0,0,0,0-.01.02,0,.04.01.05l.04.04.04.04.04.04.17.15.15-.12v3.4s0,0,0-.01c-.08-.11-.22-.33-.33-.73ZM14.16,14.04v-.02s-.03-.05-.04-.09v-3.56l.14.12.16-.13v3.95h0s0,.01,0,.02c-.08-.05-.19-.13-.26-.29ZM14.8,14.72c-.13-.12-.27-.29-.3-.41v-3.94l.11.09s0,0,.01,0l.03.03.15-.12v4.35Z"/>
            </g>
            <g>
              <path class="cls-4" d="M11.64,8.59s-.03.05-.06.08c-.03-.03-.06-.06-.09-.09.05,0,.1.01.16,0Z"/>
              <path class="cls-4" d="M11.68,8.55c-.04-.06-.17-.2-.36-.16.02-.02.05-.04.09-.06.02,0,.08-.01.14,0h0s.03,0,.04,0c0,.02.02.06.04.09v.03s.05.09.04.1Z"/>
              <path class="cls-2" d="M11.77,8.57s.06.06.09.11c-.07-.03-.16-.06-.22-.03-.02,0-.03.02-.04.04h0s.06-.07.07-.1h.04s-.01-.02-.01-.02c0,0,0,0,0,0,.01-.02,0-.05-.02-.11.02.01.04.03.06.03.02,0,.03.01.04.02,0,.01,0,.03-.01.06h0s0,.01,0,.01Z"/>
              <path class="cls-2" d="M11.85,8.43s-.01.02-.02.02-.02,0-.02-.02.01-.02.02-.02.02.01.02.02Z"/>
              <path class="cls-5" d="M11.88,8.39h-.02s-.02-.02-.03-.02c-.03,0-.06.03-.06.06s.03.06.06.06c.03,0,.06-.03.06-.06,0-.02,0-.03-.02-.04ZM11.83,8.46s-.02-.01-.02-.02.01-.02.02-.02.02.01.02.02-.01.02-.02.02Z"/>
              <path class="cls-7" d="M11.83,9.7v-.51s-.01-.02-.03-.02-.02.01-.02.02v.49c-.07.12-.2.22-.34.28.29-.29.29-.97.24-1.13-.02-.05-.04-.09-.07-.13,0-.02.02-.03.03-.04.05-.03.15,0,.23.04h.02s-.01-.01-.01-.01c-.03-.06-.06-.1-.1-.13.01-.02.02-.04.01-.06.01,0,.02.01.04.01.04,0,.08-.04.08-.08,0-.02,0-.03-.01-.05,0,0,0,0,.01,0,.07-.01.21-.04.42.13.01.01.03,0,.03,0,.01-.01,0-.03,0-.04-.23-.19-.39-.16-.46-.14,0,0-.01,0-.02,0-.07-.04-.19-.06-.29-.07.02-.05.08-.1.21-.1.24,0,.43.09.58.16.05.02.1.05.14.06l-.05.04.02.02s.06.05.1.09c-.03.01-.06.01-.06.01h-.04s.02.04.02.04c0,0,.03.05.06.11-.04-.01-.06-.02-.06-.02l-.04-.02v.04c.02.05.04.2.03.25,0,.03-.03.06-.05.08-.03.04-.06.08-.05.12,0,.02.04.54.24.78-.11-.04-.23-.11-.32-.26v-.49s-.01-.03-.02-.03-.03.01-.03.03v.49h0s0,.01,0,.01h0s.06.19.11.29c-.13-.05-.17-.09-.23-.18v-.61s-.01-.02-.02-.02-.03.01-.03.02v.62h0s0,.02.01.02l-.08.09-.07-.1s0,0,0-.01h0v-.63s-.01-.02-.03-.02-.02.01-.02.02v.61s0,.01-.01.02h0c-.05.08-.1.12-.22.17.05-.1.1-.25.11-.28h0Z"/>
              <path class="cls-7" d="M11.62,8.32c.06,0,.13.02.18.03-.03.01-.05.04-.05.07,0,.01,0,.03.01.04,0,0-.01,0-.02,0-.07-.01-.11-.09-.12-.14Z"/>
              <path class="cls-2" d="M12.34,9.68v-.49s-.01-.03-.02-.03-.03.01-.03.03v.5h0s0,0,0,0c0,.01.02.04.03.09h.09s-.05-.06-.08-.11ZM12.14,9.17s-.03.01-.03.02v.59h.05v-.59s-.01-.02-.02-.02ZM11.97,9.17s-.02.01-.02.02v.59h.05v-.59s-.01-.02-.03-.02ZM11.81,9.17s-.02.01-.02.02v.49s-.05.07-.08.1h.1s.03-.07.03-.08h0v-.51s-.01-.02-.03-.02ZM12.75,10.03l.14.03-.12-.07s-.04-.03-.06-.05c-.03-.03-.06-.08-.09-.13-.13-.24-.15-.62-.16-.64,0-.03.02-.06.04-.09.02-.03.05-.07.06-.11,0-.05,0-.17-.02-.23.02,0,.04.01.07.02h.04s-.01-.03-.01-.03c-.01-.05-.04-.11-.06-.14.02,0,.05-.01.07-.02l.03-.02-.02-.02s-.07-.07-.1-.1l.07-.06h-.04c-.05-.03-.11-.06-.18-.09-.16-.07-.35-.17-.6-.17-.18,0-.25.09-.27.15-.07,0-.12,0-.14.01-.05.02-.08.04-.11.07,0,0-.01.01-.02.02-.01.02-.02.03-.02.05v.05s.02-.01.02-.01h0s0,0,0,0c.17-.05.27.04.33.09-.11,0-.23-.02-.23-.02l-.1-.02h-.02s-.04-.01-.04-.01h-.01s.05.03.05.03h.02s.08.05.08.05c0,0,.21.12.27.29.03.09.04.33,0,.56-.03.15-.07.28-.13.38-.03.05-.06.09-.1.13-.03.03-.06.05-.09.07l-.12.07.14-.02c.13-.02.25-.08.35-.17.02-.01.03-.02.04-.04,0,.01-.01.03-.02.04-.03.06-.05.12-.07.14l-.05.06h0s.03,0,.03,0l.06-.02c.16-.05.22-.09.29-.18l.09.14.11-.14c.06.08.13.12.29.17l.06.02h.03s0,0,0,0l-.05-.06s-.04-.08-.07-.14c0-.01,0-.02-.01-.03.01.01.02.02.04.03.11.1.23.13.32.15ZM11.32,8.39s.05-.05.09-.06c.02,0,.08-.01.14,0h0s.03,0,.04,0c0,.02.02.06.04.09,0,.01,0,.02.01.03.02.05.04.09.03.1-.04-.06-.17-.2-.36-.16ZM11.75,8.43s0,.03.01.04c0,0-.01,0-.02,0-.07-.01-.11-.1-.12-.14.06,0,.13.02.18.03-.03.01-.05.04-.05.07ZM11.83,8.37s.02.01.03.02h0s0,0,0,0h0s.02.03.02.04c0,.03-.03.06-.06.06-.04,0-.06-.03-.06-.06s.03-.06.06-.06ZM11.49,8.58s.1.01.16,0c-.01.02-.03.05-.06.08-.03-.03-.06-.06-.09-.09ZM11.59,8.68s.06-.06.07-.09h.04s-.01-.02-.01-.02c0,0,0,0,0,0,.01-.02,0-.05-.02-.11.02.01.04.03.06.03.02,0,.03.01.04.02s0,.03-.01.06h0s0,.01,0,.01c.03.03.06.06.09.11-.08-.03-.17-.06-.22-.03-.02,0-.03.02-.04.04,0,0,0,0,0,0ZM12.41,9.79s-.05-.06-.08-.11v-.49s-.01-.03-.02-.03-.03.01-.03.03v.5h0s0,0,0,0c0,.01.02.04.03.09.01.03.02.06.03.08.02.04.03.08.05.11-.09-.03-.14-.06-.18-.11-.02-.02-.03-.04-.05-.07v-.61s-.01-.02-.02-.02-.03.01-.03.02v.62h0s0,.02.01.02l-.03.03-.05.06-.04-.06-.03-.04s0,0,0-.01h0v-.63s-.01-.02-.03-.02-.02.01-.02.02v.61s0,.01-.01.02h0s-.03.04-.04.05c-.04.05-.09.08-.18.11.02-.03.03-.07.05-.11.01-.03.02-.06.03-.08.02-.04.03-.07.03-.08h0v-.51s-.01-.02-.03-.02c-.01,0-.02.01-.02.02v.49s-.05.07-.08.1c-.03.03-.06.06-.1.08-.05.04-.11.07-.16.09.02-.02.05-.05.06-.08.02-.03.04-.06.06-.1.17-.33.16-.82.12-.95-.02-.05-.04-.09-.07-.13,0-.02.02-.03.03-.04.05-.03.15,0,.23.04h.02s-.01-.01-.01-.01c-.03-.06-.06-.1-.1-.13.01-.02.02-.04.01-.06.01,0,.02.01.04.01.04,0,.08-.04.08-.08,0-.02,0-.03-.01-.04,0,0,.01,0,.01,0,.07-.01.21-.04.42.14.01,0,.03,0,.03,0,.01-.01,0-.03,0-.04-.23-.19-.39-.16-.46-.14,0,0-.01,0-.02,0-.07-.04-.19-.06-.29-.07.02-.05.08-.1.21-.1.23,0,.43.09.58.16.05.02.1.05.14.06l-.05.04.02.02s.06.05.09.09c-.03.01-.06.01-.06.01h-.04s.02.04.02.04c0,0,.03.05.06.11-.04-.01-.06-.02-.06-.02l-.04-.02v.04c.02.05.04.2.03.25,0,.03-.03.06-.05.08-.03.04-.06.08-.05.12,0,.02.03.36.14.62.02.04.04.07.06.1.01.02.03.04.04.06-.05-.02-.09-.04-.14-.07-.03-.02-.07-.05-.1-.08Z"/>
            </g>
          </g>
          <g>
            <path class="cls-7" d="M13.3,15.31c-.13.03-.27.09-.38.16-.13-.1-.41-.54-.59-.96l-.11-.24v.26c.02.44.2.79.33,1.05.01.02.02.04.03.06-.23.11-.45.32-.53.41-.09-.09-.31-.3-.53-.41,0-.02.02-.04.03-.06.13-.26.32-.61.33-1.05v-.26s-.1.24-.1.24c-.18.42-.46.86-.59.96-.11-.07-.25-.14-.38-.16.21-.2.77-.81,1.03-1.69h.42c.27.88.83,1.49,1.03,1.69Z"/>
            <path class="cls-2" d="M13.44,15.3s-.66-.57-1.01-1.51l-.02-.05s-.01-.03-.02-.05c-.02-.05-.03-.1-.05-.15v-.02s-.01-.02-.01-.02h-.57v.02s-.01.02-.01.02c-.02.05-.03.1-.05.15,0,.02-.01.03-.02.05l-.02.05c-.35.93-1,1.5-1.01,1.51l-.09.08h.12c.13.02.34.1.46.19l.03.02.03-.02c.12-.06.35-.41.53-.75-.06.28-.18.52-.28.71-.02.04-.04.08-.06.12l-.03.05.05.02c.28.11.58.44.58.44l.04.04.04-.04s.3-.34.58-.44l.05-.02-.02-.05s-.04-.07-.06-.12c-.09-.19-.22-.43-.28-.71.18.34.41.68.53.75l.03.02.03-.02c.12-.09.34-.17.46-.18h.12s-.09-.09-.09-.09ZM12.92,15.47c-.13-.1-.41-.54-.59-.96l-.11-.24v.26c.02.44.2.79.33,1.05.01.02.02.04.03.06-.23.11-.45.32-.53.41-.08-.09-.31-.3-.53-.41,0-.02.02-.04.03-.06.13-.26.32-.61.33-1.05v-.26s-.1.24-.1.24c-.18.42-.46.86-.59.96-.11-.07-.25-.13-.38-.17.19-.18.67-.7.95-1.46,0-.02.01-.03.02-.05s.01-.03.02-.05c.02-.04.03-.09.05-.14h.42s.03.09.04.14c0,.02.01.03.02.05,0,.02.01.03.02.05.28.76.77,1.28.95,1.46-.13.03-.27.09-.38.17Z"/>
          </g>
          <g>
            <path class="cls-5" d="M13.83,14.92l-.16.14-.03-.21.06-.02s.02.02.04.03c.02,0,.03,0,.05,0l.04.05Z"/>
            <path class="cls-5" d="M13.77,14.78s.04.03.03.05c0,.02-.03.02-.06.01-.03,0-.04-.03-.03-.05,0-.02.03-.02.06-.01Z"/>
            <path class="cls-5" d="M14.01,14.25l-.19.53s-.02-.01-.03-.02c-.01,0-.03,0-.04,0l.19-.53s.02.01.03.02c.01,0,.02,0,.04,0Z"/>
            <path class="cls-2" d="M15.06,11.49s.02-.02.03-.04c0-.02,0-.05,0-.07l.04-.03-.02-.21-.15.15v.05s-.03.03-.03.05c0,.01,0,.03,0,.04h-.04s-.08.02-.08.02l-.08.02h0s.05.32-.03.42h0s.02.09.02.09h0s-.01.02-.02.03c0,.02,0,.04,0,.05l-.2.55-.03.09s-.03.02-.04.03c0,.02,0,.03,0,.05h0s-.01.01-.02.01c-.03,0-.05.02-.06.05,0,.03,0,.06.02.09h0s-.03.03-.04.04c0,.02,0,.03,0,.05l-.23.62-.02.04s-.05.03-.07.05c0,0,0,0,0,0-.02.02-.03.05-.05.08,0,0,0,0,0,.01-.03.09-.02.19.03.22-.05,0-.1.01-.11.05-.01.03,0,.06.02.08h0s-.02.06-.02.06l-.04.12-.08.24-.03.08v.03s-.02.03-.02.03c-.01,0-.02.01-.02.03,0,.01,0,.02,0,.03l-.08.02.04.28.21-.19-.05-.06s.02-.01.02-.02c0,0,0,0,0,0,0,0,0-.02,0-.03v-.02s.03-.08.03-.08v-.04s.04-.08.04-.08l.02-.04.03-.08.02-.05.03-.09.02-.05v-.03s.07-.02.08-.05c.01-.04-.01-.08-.05-.11.01,0,.02,0,.03,0,.02,0,.05-.02.07-.04.03-.03.05-.06.06-.1.03-.07.02-.14,0-.19l.2-.53.05-.13s.03-.02.04-.03h0s0-.03,0-.04c0,0,0,0,0-.01h0s0-.01,0-.01c.03,0,.06-.02.07-.05.01-.03,0-.06-.02-.09h0s.03-.03.04-.04c0-.02,0-.03,0-.05l.21-.58.02-.05s.03-.02.04-.04c0-.01,0-.02,0-.03h0s.02-.02.02-.02l.05-.04h0c0-.13.24-.33.24-.33h0s-.13-.17-.13-.17ZM15.08,11.21v.14s-.02.02-.02.02c0-.01-.02-.02-.03-.02-.01,0-.03,0-.04,0v-.03s.09-.1.09-.1ZM14.95,11.4s.05-.05.08-.03c.03.01.05.05.03.08s-.05.05-.08.04c-.03-.01-.05-.05-.04-.08ZM14.85,11.55h.03s.08-.05.08-.05c0,0,0,0,0,0,0,0,0,0,0,0l.06.12s-.11.12-.16.21c-.03.04-.04.09-.04.12l-.04.04s0,0,0,0h0s0,0,0,0v-.05s0,0,0,0c.06-.08.05-.32.05-.37ZM14.75,11.5h.05s.08-.03.08-.03h.04s0-.01,0-.01c0,0,0,.01.01.02l-.06.03-.06.02h0c0,.08,0,.23-.02.33,0,.02-.02.04-.03.06h0v.06s-.02,0-.03,0l-.02-.07c.07-.1.04-.35.03-.41ZM13.72,14.79s.03-.02.06-.01c.01,0,.02.01.03.02.01.01.01.02.01.03,0,.02-.03.02-.06.01-.03,0-.04-.03-.04-.05ZM13.83,14.92l-.16.14-.03-.21.06-.02s.02.02.04.03c.02,0,.03,0,.05,0l.04.05ZM13.98,14.31l-.04.1-.02.05-.03.07v.04s-.04.08-.04.08v.04s-.04.08-.04.08h0s-.02,0-.03,0c0,0-.02,0-.03,0h0,0s.01-.04.01-.04l.03-.08v-.04s.04-.07.04-.07l.05-.14.04-.11.02-.05h0s.02.01.03.01c.01,0,.02,0,.04,0h0s-.02.06-.02.06ZM14.08,14.19s-.06.04-.1.03c-.04-.02-.07-.06-.06-.09.01-.03.06-.04.1-.03s.07.06.06.09ZM14.2,13.93s-.03.06-.05.09c-.02.02-.05.04-.07.04-.01,0-.02,0-.04,0-.05-.02-.07-.11-.04-.2h0c.02-.07.07-.12.12-.13.01,0,.03,0,.04,0,.06.02.07.11.04.2ZM14.41,13.14l-.21.58s-.02-.02-.03-.02-.03,0-.04,0l.23-.63s.02.02.03.02c0,0,.01,0,.02,0,0,0,.01,0,.02,0l-.02.05ZM14.48,13.04s-.03.03-.06.02c0,0,0,0,0,0-.03-.01-.05-.04-.04-.06,0-.02.03-.02.05-.02,0,0,.01,0,.02,0,.03.01.05.04.04.06ZM14.55,12.93s-.02.03-.05.03c-.02,0-.04,0-.06,0-.01,0-.02-.01-.03-.02-.03-.02-.04-.05-.03-.07,0-.01.02-.02.03-.03.02,0,.05,0,.07,0,0,0,0,0,.01,0,.04.02.06.05.05.08ZM14.57,12.79s-.04.03-.07.02c0,0,0,0,0,0-.03-.01-.05-.04-.04-.06,0-.02.02-.02.05-.02,0,0,.02,0,.02,0,.03.01.05.04.04.06ZM14.56,12.73s-.02-.01-.03-.02-.02,0-.03,0h0,0s.22-.61.22-.61c0,0,.02.01.03.02.01,0,.02,0,.04,0l-.22.61ZM14.83,12.07s-.02.02-.03.02c-.01,0-.02,0-.04,0-.03-.01-.05-.04-.04-.06,0-.02.04-.03.07-.02,0,0,0,0,.01,0,.02.01.04.04.03.05ZM14.91,11.98l-.03.02-.04.03s-.01-.02-.02-.02l.04-.04h0s0-.05.02-.08c.04-.08.14-.2.18-.25h0s-.06-.13-.06-.13c0,0,.02,0,.02,0h0s.11.15.11.15c-.04.04-.23.21-.24.33Z"/>
            <path class="cls-5" d="M15.04,11.51l.12.15s-.23.21-.24.33l-.06.04s-.01-.02-.02-.02l.04-.04h0c0-.08.14-.26.2-.33h0s-.06-.12-.06-.12c0,0,.01,0,.02,0h0Z"/>
            <path class="cls-5" d="M14.98,11.51l.06.12s-.2.23-.2.33l-.04.04s0,0,0,0c0,0,0,0,0,0v-.05c.06-.07.06-.33.06-.38l.12-.05s0,0,.01,0c0,0,0,0,0,0Z"/>
            <path class="cls-5" d="M14.16,13.73c.06.02.07.11.04.2-.03.09-.11.15-.16.13-.05-.02-.07-.11-.04-.2.03-.09.11-.15.16-.13Z"/>
            <path class="cls-5" d="M14.49,12.84s.07.06.06.09-.06.05-.11.03c-.05-.02-.07-.06-.06-.09.01-.03.06-.04.11-.03Z"/>
            <path class="cls-5" d="M14.02,14.1s.07.05.06.09c-.01.03-.06.04-.1.03-.04-.02-.07-.05-.06-.08.01-.03.06-.04.1-.03Z"/>
            <path class="cls-5" d="M15.08,11.21v.14s-.02.02-.02.02c0,0-.02-.02-.03-.02-.01,0-.03,0-.04,0v-.03s.09-.1.09-.1Z"/>
            <path class="cls-5" d="M15.02,11.37s.05.05.04.08c-.01.03-.05.05-.08.04-.03-.01-.05-.05-.04-.08.01-.03.05-.05.08-.04Z"/>
            <path class="cls-5" d="M14.79,12.01s.05.04.04.06-.04.03-.07.02-.05-.04-.04-.06c0-.02.04-.03.07-.02Z"/>
            <path class="cls-5" d="M14.52,12.74s.05.04.04.06c0,.02-.04.03-.07.02-.03-.01-.05-.04-.04-.06,0-.02.04-.03.07-.02Z"/>
            <path class="cls-5" d="M14.43,12.98s.05.04.04.06c0,.02-.04.03-.07.02-.03-.01-.05-.04-.04-.06,0-.02.04-.03.07-.02Z"/>
            <path class="cls-5" d="M14.43,13.09l-.23.63s-.02-.02-.03-.02-.03,0-.04,0l.23-.63s.02.01.03.02c.01,0,.03,0,.04,0Z"/>
            <path class="cls-5" d="M14.79,12.12l-.22.61s-.02-.01-.03-.02c-.01,0-.02,0-.04,0l.22-.61s.02.02.03.02c.01,0,.02,0,.04,0Z"/>
            <path class="cls-5" d="M14.77,11.92v.06s-.02,0-.03,0l-.02-.07c.07-.1.04-.35.03-.41l.18-.04h0s0,.01.01.02l-.12.05h0c0,.09,0,.33-.05.38h0Z"/>
          </g>
          <g>
            <g>
              <g>
                <path class="cls-6" d="M9.26,11.83h.01s0-.02,0-.02h0s0,0,0,0l.12.3h0c0,.09.01.15.02.15h0s-.03-.04-.05-.06l-.15-.39h.04Z"/>
                <path class="cls-6" d="M10.48,14.75s.04.04.04.08v.1s-.01.05-.04.06c-.02.01-.05,0-.07-.01l-.06-.07s-.03-.05-.03-.08v-.1s.07-.02.07-.02l.08.05Z"/>
                <path class="cls-6" d="M9.51,12.41s-.01,0-.02.01t0,0s-.01,0-.02,0c0,0,0,0,0-.01h0s0,0,0,0l.29.75s0,0,0,0l.02.02h-.01s.27.71.27.71c.01.02.02.04.03.05v.02s0,0,0,0h0s.01.01.01.02l.02.02h-.02s.26.69.26.69l.05-.02-.26-.68-.04-.11h0s-.06-.16-.06-.16h0s-.21-.56-.21-.56l-.04-.12h0s0,0,0,0l-.06-.15h0s0,0,0,0l-.19-.48Z"/>
                <path class="cls-6" d="M10.17,13.38s0,.03.01.05c.03.09.05.16.05.23,0,.07-.04.13-.13.18,0,0,0,0,0,0l-.04-.11h0c0-.11.02-.25.11-.34Z"/>
                <path class="cls-6" d="M10.35,13.61s0,.03,0,.05c-.01.13-.02.19-.2.31l-.03-.07h0s0-.02.01-.03c.09-.06.13-.12.14-.2.03-.02.06-.04.09-.05Z"/>
                <path class="cls-6" d="M9.51,13.94c.22-.09.41-.04.51.05-.23.08-.44-.01-.51-.05Z"/>
                <path class="cls-6" d="M9.55,13.66c.3.01.42.19.46.27-.07-.05-.17-.08-.28-.07-.09-.07-.16-.16-.18-.2Z"/>
                <path class="cls-6" d="M9.68,13.12c-.06-.04-.14-.06-.23-.06-.08-.06-.13-.13-.15-.17.24.01.35.15.38.23Z"/>
                <path class="cls-6" d="M9.28,13.13c.18-.07.34-.03.43.04-.19.07-.36,0-.43-.04Z"/>
                <path class="cls-6" d="M9.98,12.85s0,.02,0,.03c-.01.11-.02.16-.15.25l-.03-.07h0s0,0,0,0h0s.05-.11.11-.16c.02-.02.05-.04.07-.05Z"/>
                <path class="cls-6" d="M9.83,12.66s0,.03.01.04c.02.07.04.14.04.19-.05.05-.08.1-.1.14l-.04-.12h0c0-.11.04-.19.09-.24Z"/>
                <path class="cls-6" d="M9.4,12.35s0,0,.01,0c-.17.06-.32-.02-.38-.05.05-.02.09-.03.14-.03.06.04.13.08.22.07Z"/>
                <path class="cls-6" d="M9.05,12.08c.22.02.32.16.35.23-.18,0-.31-.17-.35-.23Z"/>
                <path class="cls-6" d="M9.5,12.23c.02-.05.06-.12.15-.17,0,.01,0,.02,0,.03,0,.11-.01.16-.17.25,0-.02,0-.06.02-.12Z"/>
                <path class="cls-6" d="M9.45,12.24s-.01-.06-.01-.11c0-.08.01-.19.07-.26,0,.01,0,.02.01.03.02.07.04.13.04.18-.05.05-.08.1-.1.15,0,0,0,0,0,0,0,0,0,0-.01,0Z"/>
                <path class="cls-6" d="M9.29,11.73s-.01-.05-.02-.09c0-.04,0-.07,0-.11,0-.08.01-.16.06-.24.06.08.09.17.07.26-.01.07-.05.13-.11.18Z"/>
                <path class="cls-6" d="M9.08,11.62c.03.05.07.1.09.13,0,.01,0,.02,0,.03h0s0,.02,0,.02c0,.01,0,.02,0,.03-.18.01-.29-.2-.32-.27.1,0,.17.03.22.06Z"/>
                <path class="cls-6" d="M9.02,11.23c.1.05.18.17.2.3,0,.04,0,.08.01.12,0,.03,0,.06-.01.09,0,0,0-.01-.01-.01-.01-.05-.04-.1-.1-.14-.06-.11-.12-.24-.09-.36Z"/>
                <path class="cls-2" d="M10.55,14.82s-.02-.08-.06-.11l-.07-.05h0s0,0,0,0l-.12-.3-.04-.11-.02-.05-.07-.18v-.03s.05-.04.07-.06c.12-.09.13-.16.14-.27,0-.02,0-.05,0-.08v-.03s-.02.01-.02.01c-.03.01-.06.03-.08.05,0,0-.01,0-.02,0,0-.04-.01-.08-.02-.12,0-.02-.02-.05-.02-.08,0-.02-.01-.04-.02-.07v-.02s-.03.02-.03.02c-.04.03-.07.07-.09.12-.03.06-.04.13-.05.19l-.03-.09-.11-.29-.04-.1h0s0,0,0-.01c.01,0,.02-.02.03-.02.06-.05.09-.08.11-.13.02-.04.02-.07.02-.12,0-.02,0-.04,0-.06v-.03s-.02.01-.02.01c0,0,0,0,0,0-.03.01-.05.03-.08.04,0-.05-.02-.11-.04-.17,0-.02-.01-.04-.02-.06v-.02s-.03.02-.03.02c-.06.05-.1.13-.12.23v-.04s-.1-.22-.1-.22l-.04-.1-.04-.1v-.02s.05-.05.08-.07c.07-.07.07-.12.08-.2,0-.02,0-.04,0-.06v-.03s-.02.01-.02.01c-.02.01-.04.02-.06.03,0,0-.01,0-.01,0,0-.05-.02-.1-.04-.16,0-.02-.01-.04-.02-.06v-.02s-.03.02-.03.02c-.07.06-.1.15-.11.23l-.07-.18-.03-.08v-.03s0,0,0,0c0,0,0,0,0,0,0,0,.02-.01.02-.02.06-.05.09-.11.1-.18.02-.1-.02-.21-.1-.3v-.02s-.03.02-.03.02c0,0,0,0,0,0-.04.06-.06.12-.07.18,0-.01,0-.02-.01-.03-.04-.1-.12-.19-.21-.22h-.02s0,.01,0,.01c-.04.12,0,.25.06.36-.05-.02-.12-.04-.21-.04h-.03v.02s.12.27.31.31c.03,0,.06,0,.09,0h0v.03s.02.03.02.03l.07.19.02.05s-.01-.01-.02-.02c-.02-.02-.05-.04-.08-.05-.05-.03-.12-.04-.2-.05h-.03v.02s.06.1.15.17c-.05,0-.1.02-.15.04h-.02s.02.03.02.03c0,0,.1.07.23.09.03,0,.06,0,.08,0,.03,0,.07,0,.11-.02l.02.06.03.08.14.35.05.14s-.03-.04-.05-.05c-.07-.05-.16-.1-.3-.11-.01,0-.02,0-.03,0h-.03v.02s.03.03.06.08c.02.03.05.07.09.11-.03,0-.06.01-.09.02-.03,0-.05.02-.08.03h0s-.02.01-.02.01h.02s0,.02,0,.02c0,0,.03.02.08.04.07.03.17.06.3.05.03,0,.05,0,.08-.02.01,0,.02,0,.03-.01h0l.02.04.03.08.19.48c-.06-.06-.14-.13-.27-.16-.03,0-.05-.01-.08-.01-.03,0-.06,0-.09,0h-.03v.02s.05.07.12.15c.02.02.04.05.07.07-.02,0-.05,0-.07.01-.04,0-.09.02-.14.04h-.03s.02.03.02.03c0,0,.05.04.14.07.02.01.05.02.08.02.07.02.15.02.23.01,0,0,.01,0,.02,0h0s.07-.01.1-.03h0v.03s.08.19.08.19l.02.05.04.11.02.05h0l.02.06.02.04.03.08v.04s.03.05.03.05h0v.04s-.01.05-.01.05v.02s0,.08.03.11l.06.07s.07.04.1.02c.04-.02.06-.05.06-.09v-.1ZM10.35,13.61s0,.03,0,.05c-.01.11-.02.17-.12.25-.02.02-.05.04-.08.06l-.02-.04h0s0-.03,0-.03h0v-.03s0,0,.01,0c.09-.05.13-.12.13-.19.03-.02.06-.04.09-.05ZM10.07,13.56c.02-.06.05-.13.1-.17,0,.02,0,.03.01.05.01.04.02.08.03.12.01.04.02.08.01.11,0,.02,0,.04-.01.06,0,.03-.03.05-.05.07,0,0,0,0,0,0-.02.01-.03.03-.05.04,0,0,0,0-.01,0,0,0,0,0,0,0l-.04-.11h0c0-.05,0-.11.02-.17ZM9.98,12.85s0,.02,0,.04c-.01.11-.02.16-.16.25l-.03-.07h0s.05-.11.11-.16c.02-.02.05-.04.07-.05ZM9.83,12.66s0,.02.01.03c.02.07.04.14.04.19-.05.05-.08.1-.1.14,0,0,0-.02,0-.02l-.03-.09h0c0-.11.04-.19.09-.24ZM9.61,12.09s.03-.02.04-.03c0,.01,0,.02,0,.03,0,.06,0,.11-.04.15-.02.03-.06.06-.13.1,0-.02,0-.07.02-.12.01-.04.04-.1.11-.14ZM9.31,11.32s.01-.02.02-.03c.06.08.09.17.07.26-.01.06-.04.12-.09.16,0,0-.01.01-.02.02,0-.02-.01-.05-.02-.09,0-.03,0-.07-.01-.1,0-.07.01-.14.05-.21ZM9.02,11.23c.1.05.18.17.2.29,0,0,0,0,0,0,0,.04,0,.08.01.12,0,.03,0,.06-.01.09,0,0,0,0,0,0,0,0,0-.01-.01-.01-.01-.05-.04-.1-.1-.14-.06-.11-.12-.24-.09-.36ZM8.87,11.56c.1,0,.17.03.22.06.03.05.07.1.09.13,0,.01,0,.02,0,.03h0s0,.02,0,.02c0,.01,0,.02,0,.03-.18.01-.29-.2-.32-.27ZM9.05,12.08c.07,0,.13.02.17.05.03.02.06.04.08.06.05.05.08.09.09.13-.03,0-.06,0-.09-.01-.03,0-.06-.02-.08-.04-.09-.05-.15-.14-.17-.18ZM9.31,12.37s-.06,0-.08,0c-.08-.01-.15-.05-.19-.07.05-.02.09-.03.14-.03.01.01.03.02.04.03.03.01.05.03.08.03.03,0,.06.01.09.01,0,0,0,0,.01,0-.03.01-.07.02-.1.02ZM9.37,12.21l-.06-.17-.08-.22s.02,0,.02,0c0,0,0,0,.01,0h0s.01,0,.01,0h0s0,0,0,0h0s.01.03.01.03h0s0,.02,0,.02l.09.25h0c0,.09.01.15.02.15h0s-.03-.03-.05-.06ZM9.44,12.13c0-.08.01-.19.07-.26,0,.01,0,.02,0,.03.02.07.04.13.04.18-.05.05-.08.1-.1.15,0,0,0,0,0,0,0,0,0,0-.01,0,0-.02-.01-.06-.01-.11ZM9.31,12.9s0,0,0,0h0c.14,0,.24.06.3.12.04.04.06.07.08.11-.02-.01-.05-.03-.08-.04-.04-.02-.1-.02-.15-.02-.07-.05-.12-.12-.15-.16ZM9.69,13.18s-.06.02-.08.02c-.13.02-.24-.02-.3-.05-.01,0-.02-.01-.03-.02,0,0,.02,0,.03-.01.12-.04.22-.03.3,0,.03.01.06.03.08.04h.01s0,.01-.01.02ZM9.61,13.75s-.05-.06-.06-.08h.06s.06.02.08.02c.16.04.25.14.29.22,0,.01.01.03.02.04,0,0-.01,0-.02-.01-.07-.04-.16-.06-.26-.06-.01,0-.03-.02-.04-.03-.03-.03-.06-.06-.08-.09ZM9.96,14.02s-.02,0-.03,0h0c-.09.01-.17,0-.24-.01-.03,0-.06-.02-.08-.03-.04-.01-.07-.03-.09-.04.03-.01.06-.02.09-.03.03,0,.06-.01.08-.02.12-.01.21.01.29.06.02.01.03.02.05.04-.02,0-.05.02-.07.02ZM10.33,14.69l-.02-.06v-.04s-.04-.07-.04-.07l-.05-.14-.04-.11-.02-.05-.07-.18v-.03s0,0,0,0l-.02-.02s0,0-.01,0,0,0,0,0h0s0,0,0,0v-.02s-.02-.03-.03-.05l-.04-.1v-.02s-.22-.56-.22-.56v-.03s0,0,0,0v-.02s-.02,0-.02,0l-.05-.14-.03-.06-.06-.15-.15-.4s0,0,0,0h0s0,0,.01,0c0,0,.01,0,.02,0h0s.01,0,.02-.01l.09.24.08.22v.02s.01,0,.01,0h0s0,0,0,0l.06.15h0s0,0,0,0l.05.12v.03s.02.03.02.03l.15.4.02.05v.04s.01,0,.01,0h0l.06.16h0s0,0,0,0l.02.06.02.05v.02s.02.03.02.03l.07.17.02.05.04.12.09.24.02.06h0s0,0,0,0l-.05.02ZM10.48,14.98s-.05,0-.07-.02l-.06-.07s-.03-.05-.03-.08v-.06s.01-.05.01-.05l.06-.02h0s.07.05.07.05c.03.02.04.04.04.08v.1s-.01.05-.04.06Z"/>
              </g>
              <path class="cls-2" d="M9.68,13.04l.07.19.05-.03s.04.01.04,0c0,0-.07-.2-.11-.3-.02-.05-.03-.04-.03-.04l-.03.08-.02.03.02.06Z"/>
              <path class="cls-2" d="M10,13.87s.05.14.05.14c0,0,.02.05.02.05l.02-.02.02-.02.04.04s-.06-.18-.03-.22c-.04.01-.09-.11-.09-.15,0-.04-.07,0-.07,0v.12s.02.06.02.06Z"/>
            </g>
            <path class="cls-2" d="M9.24,11.91s-.03.07-.07.07c-.04,0-.07-.03-.07-.07s.03-.07.07-.07c.04,0,.07.03.07.07Z"/>
            <path class="cls-2" d="M9.42,11.81s-.03.07-.07.07-.07-.03-.07-.07.03-.07.07-.07.07.03.07.07Z"/>
            <path class="cls-2" d="M9.47,12.51s-.03.07-.07.07-.07-.03-.07-.07.03-.07.07-.07.07.03.07.07Z"/>
            <path class="cls-2" d="M9.66,12.41s-.03.07-.07.07-.07-.03-.07-.07.03-.07.07-.07.07.03.07.07Z"/>
            <circle class="cls-2" cx="9.71" cy="13.3" r=".07"/>
            <path class="cls-2" d="M9.97,13.21s-.03.07-.07.07c-.04,0-.07-.03-.07-.07s.03-.07.07-.07c.04,0,.07.03.07.07Z"/>
            <path class="cls-2" d="M10.06,14.05s-.03.07-.07.07-.07-.03-.07-.07.03-.07.07-.07.07.03.07.07Z"/>
            <path class="cls-2" d="M10.24,13.95s-.03.07-.07.07c-.04,0-.07-.03-.07-.07s.03-.07.07-.07c.04,0,.07.03.07.07Z"/>
          </g>
          <g>
            <g>
              <path class="cls-7" d="M10.92,13.32c.05.03.2.1.42.21-.05.04-.13.12-.23.23-.04.04-.07.08-.1.11h0v-.02c0-.07,0-.15,0-.15v-.04l-.13.06v-.1s-.09,0-.09,0h-.01c.04-.05.07-.12.09-.18.02-.06.04-.11.05-.15Z"/>
              <path class="cls-4" d="M10.43,14.5l.02-.05-.11.03s.02-.05.04-.09l.04-.07-.08.03s-.03.01-.06.02c-.03,0-.07.02-.11.03-.02.01-.05.02-.07.03-.04.02-.08.05-.11.08.01-.06.05-.12.11-.19.09-.09.28-.07.29-.07h.01s.39-.55.39-.55h.02s-.01.12-.01.12l.14-.06s0,.07,0,.11c-.15.19-.43.58-.53.72,0-.03.01-.08.02-.09Z"/>
              <path class="cls-4" d="M10.38,14.67l-.13.12s-.02.01-.02.01c-.01,0-.02,0-.03-.01h0s-.01-.04,0-.05l.13-.13s.01,0,.02,0c0,0,.01,0,.01,0h0s.01.04.02.05c0,0,0,.01,0,.01Z"/>
              <path class="cls-4" d="M10.29,14.53h0s0,.01,0,.01c0,0,0,.01,0,.02s0,.02-.01.02l-.13.12s-.02.01-.02.01c-.01,0-.02,0-.03-.01h0s-.01-.02-.01-.03c0-.01,0-.02.01-.02l.13-.13s.01,0,.02,0c0,0,.01,0,.02,0Z"/>
              <path class="cls-4" d="M10.09,14.63s-.04.01-.05,0h0s0-.02,0-.03,0-.02.01-.02l.12-.11s.03-.01.04-.02c0,0,0,0,0,0,0,0,0,0,.01,0h0s.01.04,0,.05l-.13.12Z"/>
              <path class="cls-2" d="M11.4,13.52c-.32-.17-.49-.25-.49-.25h-.03s0,.02,0,.02c0,0,0,.02-.01.05,0,.01,0,.03-.02.05,0,.01-.01.03-.02.05-.03.08-.08.18-.13.23l-.05.05h.09s-.35.48-.35.48c-.03,0-.09,0-.15.01h-.02s-.04.02-.06.03c0,0-.02,0-.02.01-.02.01-.04.02-.06.04-.09.09-.13.19-.13.29v.05s.05-.05.05-.05h0s0,.01,0,.02c0,.02,0,.04.02.05h0s.03.03.05.03h0s0,.04.02.06h0s.03.02.05.03h0s0,0,0,0c0,.02,0,.04.02.06h0s.03.03.05.03h0s.03,0,.05-.02l.02-.02.04-.04.07-.06h0s.01-.02.02-.03c0,0,0,0,0,0h0c.05-.09.34-.49.52-.72v.06s.04-.04.04-.04c.04-.04.09-.09.15-.16.05-.06.12-.13.17-.18.01-.01.03-.03.04-.04.02-.01.03-.02.04-.03h.02s.05-.01.05-.01l-.06-.03ZM10.09,14.63s-.04.01-.05,0h0s0-.02,0-.03,0-.02.01-.02l.12-.11s.03-.01.04-.02c0,0,0,0,0,0h0s0,0,.01,0h0s.01.03,0,.05c0,0,0,0,0,0l-.13.13ZM10.17,14.71s-.02.01-.02.01c-.01,0-.02,0-.03-.01h0s-.01-.02-.01-.03,0-.02.01-.02l.13-.12h0s.01-.01.02-.01h0s.01,0,.02,0h0s0,.01,0,.01c0,0,0,.01,0,.02,0,.01,0,.02-.01.02h0s-.02.03-.02.03l-.1.09ZM10.3,14.75l-.05.05s-.02.01-.02.01c-.01,0-.02,0-.03-.01h0s-.01-.04,0-.05l.09-.09.04-.04s.01-.01.02-.01c0,0,0,0,0,0h0s.01.04.02.05c0,0,0,0,0,.01,0,0,0,0,0,0h0s-.08.07-.08.07ZM10.42,14.59s.01-.07.02-.09l.02-.05-.11.03s.02-.05.04-.09l.04-.07-.07.03s-.04.01-.06.02t0,0s-.01,0-.02,0c-.02,0-.04.01-.06.02,0,0-.02,0-.02,0,0,0,0,0,0,0-.02.01-.05.02-.07.03-.04.02-.08.05-.11.08.01-.06.05-.12.11-.19.01-.01.02-.02.04-.03,0,0,.01,0,.02-.01.02,0,.04-.01.06-.02,0,0,.02,0,.02,0,.07-.01.15,0,.15,0h.02s.39-.55.39-.55h.02s-.01.12-.01.12l.14-.06v.11c-.16.19-.43.58-.53.72ZM11.33,13.54s-.02.02-.04.03c-.01.01-.03.02-.04.04-.04.04-.09.1-.15.16-.03.04-.07.08-.1.11v-.02c0-.07,0-.15,0-.15v-.04l-.13.06v-.1s-.09,0-.09,0h-.01c.04-.05.07-.12.09-.18,0,0,0-.01,0-.02,0-.02.01-.03.02-.05,0-.02.01-.03.02-.05,0-.01,0-.02.01-.03.05.02.17.08.36.18.02.01.04.02.06.03Z"/>
            </g>
            <g>
              <path class="cls-7" d="M13.19,13.32c-.06.03-.2.1-.42.21.05.04.13.12.23.23.04.04.07.08.1.11h0v-.02c0-.07,0-.15,0-.15v-.04l.13.06v-.1s.09,0,.09,0h.01c-.04-.05-.07-.12-.09-.18-.02-.06-.04-.11-.05-.15Z"/>
              <path class="cls-4" d="M13.67,14.5l-.02-.05.11.03s-.02-.05-.04-.09l-.04-.07.08.03s.04.01.06.02c.03,0,.07.02.11.03.02.01.05.02.07.03.04.02.08.05.11.08-.01-.06-.05-.12-.11-.19-.09-.09-.28-.07-.28-.07h-.02s-.39-.55-.39-.55h-.02s.01.12.01.12l-.14-.06v.11c.15.19.43.58.53.72,0-.03-.01-.08-.02-.09Z"/>
              <path class="cls-4" d="M13.72,14.67l.13.12s.02.01.02.01c.01,0,.02,0,.02-.01h0s.01-.04,0-.05l-.13-.13s-.01,0-.02,0c0,0,0,0-.01,0h0s-.01.04-.02.05c0,0,0,.01,0,.01Z"/>
              <path class="cls-4" d="M13.81,14.53h0s0,.01,0,.01c0,0,0,.01,0,.02,0,0,0,.02.01.02l.13.12s.01.01.02.01.02,0,.02-.01h0s.01-.02.01-.03,0-.02-.01-.02l-.13-.13s-.02,0-.02,0c0,0-.01,0-.02,0Z"/>
              <path class="cls-4" d="M14.01,14.63s.04.01.05,0h0s0-.02,0-.03,0-.02,0-.02l-.12-.11s-.03-.01-.04-.02c0,0,0,0,0,0,0,0-.01,0-.02,0h0s-.01.04,0,.05l.13.12Z"/>
              <path class="cls-2" d="M14.03,14.28s0,0,0,0c0,0-.01-.01-.02-.02-.02-.02-.04-.03-.06-.04,0,0-.02,0-.02,0-.08-.03-.16-.02-.2-.02l-.34-.49h.09s-.05-.04-.05-.04c-.06-.05-.1-.15-.13-.23,0-.02-.01-.03-.02-.05,0-.02-.01-.04-.02-.05,0-.03-.01-.05-.01-.05v-.03s-.04.01-.04.01c0,0-.17.08-.49.25l-.06.03h.05s.02.01.02.01c0,0,.03.01.04.03.01.01.03.02.04.04.05.05.12.12.17.18.06.06.11.12.15.16l.05.04v-.06c.17.23.46.62.51.71h0s.01.03.02.04l.03.03.02.02h0s.05.05.05.05l.03.03s0,0,0,0c.01.01.03.02.04.02h0s.03,0,.05-.02h0s.02-.04.02-.06t0,0h0s.04,0,.05-.02h0s.02-.04.02-.05c0,0,0,0,0,0h0s.04,0,.05-.02h0s.02-.03.02-.05c0-.01,0-.02,0-.03,0,0,0,0,0,0l.05.05v-.05c0-.1-.04-.19-.13-.29ZM13.11,13.68v.04s0,.08,0,.15v.02s-.07-.07-.1-.11c-.06-.06-.11-.12-.15-.16-.02-.02-.03-.03-.04-.04-.01-.01-.03-.02-.04-.03.02-.01.04-.02.06-.03.19-.1.31-.16.36-.18,0,0,0,.02.01.03,0,.01.01.03.02.05,0,.01.01.03.02.05,0,0,0,.01,0,.02.03.06.06.13.09.18h-.11s.01.09.01.09l-.13-.06ZM13.91,14.79h0s-.01.01-.02.01c0,0-.02,0-.02-.01h-.02s-.02-.03-.02-.03l-.06-.05-.02-.02-.02-.02s0,0,0-.01c.01-.01.02-.03.02-.05h0s.01,0,.01,0c0,0,.01,0,.02,0h0s.01.02.01.02l.06.05.02.02.04.04s.01.03,0,.05ZM13.99,14.71h0s-.01.02-.02.02c0,0-.02,0-.02-.01l-.05-.05-.02-.02-.06-.05h0s-.01-.02-.01-.03c0,0,0-.02,0-.02h0s0-.01,0-.01c0,0,.01,0,.01,0h0s.02,0,.02,0l.04.03.02.02.08.07s.01.01.01.02,0,.02-.01.02ZM14.07,14.63h0s-.04.02-.05,0l-.09-.08-.02-.02-.02-.02s-.01-.04,0-.05h0s0-.01.01-.01c0,0,0,0,0,0,0,0,.02,0,.03.01,0,0,.01,0,.01,0h0s.11.11.11.11c0,0,0,.01,0,.02s0,.02,0,.03ZM13.99,14.43s-.02,0-.02,0c0,0-.02,0-.02-.01s-.02,0-.02-.01c-.01,0-.03-.01-.04-.01,0,0-.02,0-.02,0-.02,0-.03,0-.04-.01-.03,0-.05-.01-.06-.02l-.08-.03.04.07s.04.07.04.09l-.11-.03.02.05s.02.06.02.09c-.1-.15-.38-.53-.53-.72v-.11l.14.06v-.12s0,0,0,0l.39.55h.02s.1-.01.19.02c0,0,.02,0,.02.01.02,0,.04.02.06.04,0,0,0,0,0,0h.01c.05.07.09.13.1.19-.03-.03-.07-.06-.11-.08Z"/>
            </g>
          </g>
          <g>
            <g>
              <g>
                <path class="cls-1" d="M13.66,11.81v1.16s0,.05-.02.08c-.05.09-.22.31-.68.47-.59.21-.69.32-.91.48h0c-.21-.16-.32-.27-.91-.48-.46-.16-.62-.38-.68-.47-.01-.02-.02-.05-.02-.08v-1.16h3.21Z"/>
                <path class="cls-4" d="M12.08,10.13h1.66s-.05.09-.06.14c-.02.05-.02.1-.02.15v1.4h-3.21v-1.4c0-.1-.03-.2-.09-.28h1.72Z"/>
              </g>
              <path class="cls-5" d="M13.64,10.17s-.04-.01-.06,0c0,0,0,0,0,0h.08-.01ZM13.59,13.02c-.04.06-.13.18-.35.31,0,.01.01.03.02.05.21-.12.31-.24.36-.31,0-.02-.01-.05-.02-.07,0,0,0,.02,0,.02ZM10.47,10.17h-.01s.08.01.08.01c0,0,0,0,0,0-.02-.02-.04-.02-.06,0ZM10.26,10.08l.05.08s.04.06.05.1c.01.03.02.06.02.09,0,.02,0,.04,0,.07v2.56s0,.04.01.06c0,.01,0,.03.02.04.01.02.02.04.04.06.06.07.17.18.36.29.01,0,.03.01.04.02.07.04.16.08.26.11.04.02.08.03.13.05.02,0,.04.01.05.02.16.06.27.12.37.17.03.02.06.03.09.05.07.05.13.09.2.14.02.02.04.03.06.05h.01s.03.01.03.01h.01s.04-.04.06-.06c.06-.05.12-.09.2-.14.03-.02.06-.03.09-.05.09-.05.2-.11.37-.17.02,0,.03-.01.05-.02.04-.02.08-.03.13-.05.1-.03.18-.07.26-.11.01,0,.03-.02.04-.02.19-.11.3-.22.36-.29.02-.02.03-.04.04-.06,0-.01.01-.03.02-.04,0-.02.01-.04.01-.06v-2.56s0-.05,0-.07c0-.02,0-.04.01-.06,0-.01,0-.02.01-.03.01-.03.03-.07.05-.1l.05-.08h-3.57ZM13.65,10.18s-.02.04-.02.07c0,0,0,.01,0,.02-.01.05-.02.09-.02.14v2.56s0,.02,0,.03c0,0,0,.02,0,.02-.04.06-.13.18-.35.31-.01,0-.03.02-.04.03-.07.04-.16.08-.26.11-.04.01-.07.03-.11.04-.05.02-.09.04-.14.05-.12.05-.22.1-.3.14-.03.02-.06.04-.09.05-.09.05-.15.11-.22.16-.01,0-.02.02-.03.02-.01,0-.02-.02-.03-.02-.07-.06-.14-.11-.22-.16-.03-.02-.06-.03-.09-.05-.08-.04-.17-.08-.3-.14-.04-.02-.09-.03-.14-.05-.03-.01-.07-.03-.11-.04-.1-.03-.18-.07-.26-.11-.02-.01-.03-.02-.04-.03-.22-.13-.31-.25-.35-.31,0,0,0-.01,0-.02,0-.01,0-.02,0-.03v-2.56s0-.1-.02-.14c0-.03-.02-.06-.03-.09h0s3.21,0,3.21,0h0Z"/>
            </g>
            <g>
              <g>
                <rect class="cls-5" x="11.52" y="12.23" width=".15" height=".15" transform="translate(-5.31 11.98) rotate(-45.6)"/>
                <path class="cls-5" d="M13.12,11.59c.13.13.37.22.37.22,0,0-.26.14-.36.25-.14-.13-.38-.25-.38-.25,0,0,.25-.09.37-.22Z"/>
                <path class="cls-5" d="M13.28,12.76s-.04,0-.06,0c-.17,0-.31.14-.31.31,0,.07.02.13.06.18-.14-.03-.25-.15-.25-.3,0-.17.14-.31.31-.31.11,0,.2.05.25.13Z"/>
                <path class="cls-5" d="M12.87,10.52c.17.16.28.38.25.62-.03.29-.29.48-.54.59.06.15.12.27.12.27,0,0-.36.03-.42.36-.02.14-.03.28-.02.42,0,.06,0,.13.01.2.01.06.02.13.07.17.05.04.12.06.16.13.03.05.02.11-.02.14-.04.04-.08.05-.13.07-.05.02-.09.06-.14.09-.05.03-.1.05-.16.05h0c-.06,0-.11-.02-.16-.05-.05-.03-.08-.07-.14-.09-.05-.02-.1-.03-.14-.07-.04-.04-.04-.1-.02-.14.04-.07.11-.08.16-.13.05-.04.06-.11.07-.17.01-.06.01-.13.01-.2,0-.14,0-.28-.02-.42-.06-.33-.42-.36-.42-.36,0,0,.06-.12.12-.27-.25-.11-.51-.3-.54-.59-.03-.24.08-.46.25-.62,0,0,.14-.13.21-.18-.05.1-.2.42-.18.69,0,.1.04.22.12.29.07.06.15.09.23.11.03,0,.05.02.08.03l.06.02s.06-.07.12-.07c.02,0,.07.02.11.05.04.02.07.05.07.05h0s.14-.09.19-.09.12.07.12.07l.05-.02s.05-.02.08-.03c.09-.02.16-.05.23-.11.08-.07.12-.19.12-.29.02-.27-.13-.59-.18-.69.07.05.21.18.21.18Z"/>
                <polygon class="cls-5" points="12.62 12.3 12.51 12.41 12.4 12.3 12.51 12.19 12.62 12.3"/>
                <path class="cls-5" d="M12.37,12.91c0-.07-.06-.44.21-.42,0,0-.08.33-.07.62-.08-.06-.14-.13-.14-.2Z"/>
                <polygon class="cls-5" points="12.46 10.75 12.24 10.83 12.34 11.04 12.13 10.94 12.05 11.16 11.97 10.94 11.77 11.04 11.86 10.83 11.65 10.75 11.86 10.67 11.77 10.46 11.97 10.56 12.05 10.35 12.13 10.56 12.34 10.46 12.24 10.67 12.46 10.75"/>
                <path class="cls-5" d="M11.53,12.49c.27-.03.22.35.21.42s-.06.14-.14.2c0-.29-.07-.62-.07-.62Z"/>
                <path class="cls-5" d="M11.41,12.69c.04.06.02.15-.04.19-.02.01-.04.02-.07.02h0s-.02,0-.03,0c-.01,0-.02,0-.03-.01,0-.01,0-.02,0-.03-.01-.04-.04-.07-.07-.09,0-.01,0-.02,0-.04h0s0-.02.01-.03h0s.03-.04.05-.05c.06-.04.15-.02.19.04Z"/>
                <path class="cls-5" d="M11.36,12.93c.06.05.06.13.02.19-.05.06-.13.06-.19.02-.02-.02-.03-.03-.04-.06,0-.01,0-.02,0-.03,0-.01,0-.02,0-.03.05-.02.09-.06.09-.11.01,0,.02,0,.04,0,.01,0,.02,0,.03,0h0s.04.01.06.03Z"/>
                <path class="cls-5" d="M11.23,12.89s0,.01,0,.02c0,.05-.04.1-.09.11,0,0,0,0,0,0,0,0,0,0-.01,0-.05.01-.1-.01-.13-.05,0,0,0-.01-.01-.01,0-.01-.01-.02-.01-.03-.01-.04,0-.08.02-.11,0,0,0,0,.01-.01.02-.02.04-.03.06-.04.02,0,.05,0,.07,0,0,0,.01,0,.02,0,.04.02.06.05.07.09,0,.01,0,.02,0,.03Z"/>
                <path class="cls-5" d="M11.35,11.81s-.24.13-.38.25c-.11-.12-.36-.25-.36-.25,0,0,.24-.09.38-.22.12.13.37.22.37.22Z"/>
                <path class="cls-5" d="M11.17,12.63s0,.05,0,.07h0s0,.02-.01.02h0s-.01.02-.02.03c-.02,0-.05-.01-.07,0-.03,0-.05.02-.06.04h0s-.02,0-.03-.02h0s-.01-.01-.02-.02c-.02-.02-.03-.04-.03-.06-.02-.07.03-.15.1-.17s.15.03.16.1Z"/>
                <path class="cls-5" d="M11.15,13.08s0,.05,0,.07c-.03.07-.11.11-.18.08s-.1-.11-.08-.18c.01-.02.02-.04.04-.05h0s.02-.01.02-.02h0s.02-.01.04-.01h0s.08.06.13.05c0,.01.01.02.02.03,0,.01,0,.02,0,.03Z"/>
                <path class="cls-5" d="M10.99,12.81h0s-.03.07-.02.11c0,.01,0,.02.01.03,0,.01-.02.02-.03.03h0s-.02.01-.02.02h0s-.04.01-.07.01c-.07,0-.13-.07-.13-.14,0-.07.07-.13.15-.13.02,0,.05.01.07.02,0,0,.01.01.02.02,0,.01.02.02.02.03Z"/>
              </g>
              <g>
                <path class="cls-2" d="M12.56,10.75l-.27-.09.12-.26-.26.13-.1-.27-.1.27-.26-.13.13.26-.27.09.27.1-.13.26.26-.13.1.27.1-.27.26.13-.12-.26.27-.1ZM12.05,11.06l-.06-.17-.16.07.07-.16-.16-.06.16-.06-.07-.16.16.07.06-.17.06.17.16-.07-.07.16.16.06-.16.06.07.16-.16-.07-.06.17Z"/>
                <path class="cls-2" d="M12.89,10.5s-.14-.13-.22-.18l-.11-.08.06.12c.03.06.2.4.18.67,0,.09-.04.21-.11.27-.06.05-.13.08-.21.1-.03,0-.06.02-.08.03h-.04s-.07-.05-.12-.05-.14.05-.19.08c-.01,0-.03-.02-.06-.03-.08-.05-.11-.05-.13-.05-.05,0-.1.04-.12.06h-.03s-.05-.04-.08-.04c-.09-.02-.16-.05-.22-.1-.07-.06-.11-.18-.11-.27-.02-.27.15-.61.18-.67l.06-.12-.11.08c-.07.05-.21.17-.22.18-.2.18-.29.42-.26.65.03.31.3.5.53.61,0,.02-.02.04-.02.05-.05.11-.08.18-.08.18l-.02.04h.05s.34.03.39.34c.01.07.02.15.02.22,0,.03,0,.05,0,.08,0,.04,0,.07,0,.11v.02c0,.06,0,.12-.01.17s-.02.12-.06.15c-.02.01-.03.02-.05.03-.04.02-.08.05-.11.1-.03.06-.02.14.02.18.03.03.07.05.11.06.01,0,.02,0,.03.01,0,0,.01,0,.02.01.02.01.04.03.06.05.01.01.03.02.04.03,0,0,0,0,0,0,.05.04.12.06.18.06s.12-.02.18-.06h0s.03-.03.04-.04c.02-.02.04-.03.07-.05,0,0,.01,0,.02-.01.01,0,.02,0,.03-.01.04-.01.08-.03.12-.06.04-.05.05-.12.02-.18-.03-.05-.07-.08-.11-.1-.02-.01-.04-.02-.06-.03-.04-.03-.05-.1-.06-.15-.01-.05-.01-.12-.01-.17v-.02s0-.07,0-.11c0-.03,0-.06,0-.08,0-.08.01-.15.02-.22.05-.3.38-.33.39-.33h.05s-.02-.05-.02-.05c0,0-.04-.08-.08-.18,0-.02-.01-.03-.02-.05.23-.11.49-.29.53-.61.02-.23-.07-.47-.27-.65ZM13.09,11.14c-.03.29-.3.47-.52.57h-.03s.01.04.01.04c0,.02.02.04.02.06.03.07.06.13.07.17-.11.02-.36.1-.4.38-.01.07-.02.15-.03.23,0,.03,0,.05,0,.08,0,.04,0,.07,0,.11v.02c0,.06,0,.12.01.18.01.07.03.15.08.19.02.02.04.03.06.04.04.02.07.04.09.07.02.03.01.08-.01.11-.02.02-.05.03-.09.05h-.04s-.06.05-.09.07c0,0-.01,0-.01.01-.01.01-.03.02-.04.03-.05.03-.09.05-.14.05s-.09-.02-.14-.05c-.01-.01-.03-.02-.04-.03,0,0-.01,0-.01-.01-.03-.02-.05-.04-.09-.05-.01,0-.02,0-.03-.01-.04-.01-.06-.02-.09-.05-.02-.03-.03-.07-.01-.11.02-.03.05-.05.09-.07.02-.01.04-.02.06-.04.06-.04.07-.12.08-.19.01-.06.01-.12.01-.18v-.02s0-.07,0-.11c0-.03,0-.06,0-.08,0-.08-.01-.16-.02-.23-.05-.28-.3-.36-.41-.38.02-.04.05-.1.08-.17,0-.02.02-.04.02-.06v-.03s-.02-.01-.02-.01c-.22-.09-.49-.27-.52-.57-.02-.21.06-.42.24-.59,0,0,.05-.04.1-.08-.06.14-.14.37-.13.58,0,.05.02.22.14.32.06.06.15.1.24.12.02,0,.05.01.07.02l.08.03.02-.02s.06-.06.09-.06c0,0,.03,0,.09.04.04.02.07.04.07.04h0s.02,0,.02,0h0c.06-.05.14-.09.17-.09s.07.03.09.06v.02s.09-.03.09-.03c.02-.01.05-.02.07-.02.1-.02.18-.06.25-.12.11-.1.13-.26.13-.32.01-.2-.06-.43-.13-.58.05.04.1.08.1.08.18.17.27.38.24.59Z"/>
                <path class="cls-2" d="M11.59,12.16l-.14.14.14.14.14-.14-.14-.14ZM11.59,12.23l.07.07-.07.07-.07-.07.07-.07Z"/>
                <path class="cls-2" d="M11.76,12.67s-.01-.06-.02-.08c-.01-.03-.02-.05-.05-.07-.04-.04-.1-.06-.17-.05h-.03s0,.03,0,.03c0,0,0,.04.02.09,0,.02.01.05.01.08.02.12.04.29.04.44v.05s.04-.03.04-.03c.09-.07.15-.15.15-.22,0,0,0-.01,0-.02,0-.05.01-.13,0-.22ZM11.72,12.88s0,.02,0,.02c0,.06-.04.11-.09.15,0-.14-.02-.28-.04-.39,0-.03-.01-.06-.01-.08,0-.03-.01-.06-.01-.07.04,0,.07.01.1.04.01.01.02.02.03.04.01.02.02.05.03.08.01.08,0,.16,0,.21Z"/>
                <path class="cls-2" d="M12.51,12.16l-.14.14.14.14.14-.14-.14-.14ZM12.51,12.23l.07.07-.07.07-.07-.07.07-.07Z"/>
                <path class="cls-2" d="M12.58,12.47c-.07,0-.13.01-.17.05-.02.02-.03.04-.05.07-.01.02-.02.05-.02.08-.01.08,0,.17,0,.22,0,0,0,.02,0,.02,0,.07.06.15.15.22l.04.03v-.05c0-.15.01-.32.03-.44,0-.03,0-.06.01-.08.01-.06.02-.09.02-.09v-.03s-.02,0-.02,0ZM12.53,12.59s-.01.05-.02.08c-.02.11-.03.25-.03.39-.05-.04-.09-.09-.09-.15,0,0,0-.01,0-.02,0-.05-.01-.13,0-.21,0-.03.01-.06.03-.08,0-.01.02-.03.03-.04.03-.02.06-.04.1-.04,0,.02-.01.04-.01.07Z"/>
                <path class="cls-2" d="M11.36,11.78s-.24-.09-.36-.21l-.02-.02-.02.02c-.13.12-.36.21-.37.21l-.05.02h0s.04.03.04.03c0,0,.25.14.36.25l.02.02.02-.02c.13-.13.37-.25.37-.25l.04-.02h0s-.05-.02-.05-.02ZM11.29,11.81c-.07.04-.22.13-.32.21-.09-.08-.23-.17-.31-.21,0,0,0,0,0,0,.08-.03.21-.1.31-.19.09.08.22.15.3.19,0,0,0,0,0,0Z"/>
                <path class="cls-2" d="M13.51,11.78s-.24-.09-.37-.21l-.02-.02-.02.02c-.11.12-.36.21-.36.21l-.05.02h0s.04.03.04.03c0,0,.24.13.37.25l.02.02.02-.02c.1-.11.35-.25.36-.25l.04-.02h0s-.05-.02-.05-.02ZM13.44,11.81c-.07.04-.22.13-.31.21-.1-.09-.24-.17-.32-.21,0,0,0,0,0,0,.08-.03.21-.1.3-.19.1.08.23.15.31.19,0,0,0,0,0,0Z"/>
                <path class="cls-2" d="M13.3,12.75s-.05-.05-.07-.08c-.06-.04-.13-.06-.2-.06s-.14.02-.2.06c-.08.06-.14.16-.14.27,0,.16.11.3.27.33h.06s-.04-.04-.04-.04c-.03-.05-.05-.1-.05-.16,0-.16.13-.28.28-.28.02,0,.04,0,.05,0h.06s-.04-.04-.04-.04ZM12.89,13.07s.01.09.03.13c-.1-.04-.17-.15-.17-.26,0-.12.08-.23.19-.27.03-.01.06-.01.09-.01s.06,0,.09.01c.04.01.07.03.1.06-.18,0-.33.15-.33.33Z"/>
                <path class="cls-2" d="M11.45,12.8s0-.08-.02-.12c0,0,0,0,0,0-.05-.07-.15-.09-.22-.04,0,0,0,0,0,0,0,0,0,0,0,0,0-.01,0-.03-.01-.04-.01-.03-.03-.05-.06-.06-.04-.02-.08-.03-.12-.02-.04.01-.08.04-.1.07,0,0,0,0,0,0-.01.02-.02.05-.02.08,0,.01,0,.02,0,.03,0,0,0,0,0,0h0s-.08.01-.12.04-.05.07-.05.11.01.08.04.12c.03.03.07.05.11.05h.01s0,0,0,0c-.03.08,0,.18.09.21.02,0,.04.01.06.01.02,0,.04,0,.06-.01.04-.02.07-.05.08-.09,0,0,0,0,0,0,0,0,0,0,0,0,.03.02.06.04.1.04,0,0,.01,0,.02,0,.04,0,.08-.02.11-.06.03-.03.04-.07.04-.12,0-.04-.02-.08-.06-.11,0,0,0,0,0,0,0,0,0,0,0,0,.04-.02.06-.06.07-.1ZM11.2,13.12s-.03-.03-.03-.04c0-.01,0-.02,0-.03h0s.08-.07.09-.12c0,0,0,0,.01,0s.01,0,.02,0h0s.03.01.05.02c.02.02.04.04.04.07,0,.03,0,.06-.02.08-.02.02-.05.04-.07.04-.03,0-.06,0-.08-.02ZM11.06,13.21s-.06.01-.08,0c-.06-.02-.08-.09-.06-.14,0-.01.02-.03.03-.04h0s.01-.01.02-.02c0,0,.01,0,.01,0,.03.03.07.05.12.05,0,0,0,0,.01,0,0,0,0,0,0,.01,0,.01,0,.02,0,.03,0,.02,0,.04,0,.05-.01.03-.03.05-.06.06ZM10.87,12.76s.04,0,.05.02c0,0,.01.01.02.02,0,0,0,0,.01.01-.02.04-.03.08-.02.12,0,0,0,.01,0,.02,0,0,0,0-.01,0h-.02s-.02.02-.02.02c-.01,0-.03,0-.04,0-.03,0-.06-.02-.08-.04-.02-.02-.03-.05-.03-.08,0-.03.02-.06.04-.08.02-.02.05-.03.08-.03ZM10.95,12.61s.01-.01.01-.02c.01-.02.03-.03.05-.03.03,0,.06,0,.08.01.01,0,.02.01.02.02.01.01.02.03.03.05,0,.01,0,.02,0,.03,0,0,0,.01,0,.02,0,0,0,.01-.01.02h0s0,0,0,.01c-.02,0-.05,0-.07,0-.02,0-.05.02-.06.03,0,0-.01,0-.01,0,0,0-.01-.01-.02-.02-.01-.01-.02-.03-.03-.05,0,0,0-.01,0-.02,0-.02,0-.04.01-.06ZM11.23,12.67s0,0,0,0c.04-.02.09-.02.12,0,.01,0,.03.02.03.03.02.02.02.05.01.08s-.02.05-.05.07c-.02.01-.03.02-.05.02-.01,0-.02,0-.03,0,0,0,0,0-.01,0,0,0,0-.02,0-.02-.01-.04-.04-.07-.07-.1,0,0,0-.01,0-.01h0s0,0,0-.01v-.02s.03-.03.04-.04ZM11.13,13s0,0,0,0c-.04,0-.08-.01-.11-.04,0,0,0,0,0-.01,0,0,0-.02-.01-.03,0-.03,0-.06.02-.09,0,0,0,0,0-.01.02-.02.03-.03.05-.03,0,0,.02,0,.03,0,.01,0,.02,0,.03,0,0,0,0,0,.01,0,.03.01.05.04.06.07,0,.01,0,.02,0,.03h0s0,.01,0,.01c0,.04-.03.08-.07.09,0,0,0,0,0,0Z"/>
              </g>
            </g>
          </g>
        </g>
      </g>
    </g>
  </g>
</svg>