<?xml version="1.0" encoding="UTF-8"?>
<svg id="Layer_1" data-name="Layer 1" xmlns="http://www.w3.org/2000/svg" viewBox="0 0 24 24">
  <defs>
    <style>
      .cls-1 {
        fill: #000;
      }

      .cls-1, .cls-2, .cls-3, .cls-4, .cls-5 {
        stroke-width: 0px;
      }

      .cls-2 {
        fill: #015197;
      }

      .cls-3 {
        fill: #c4272f;
      }

      .cls-4 {
        fill: none;
      }

      .cls-5 {
        fill: #f9cf02;
      }
    </style>
  </defs>
  <rect class="cls-4" width="24" height="24"/>
  <g>
    <path class="cls-1" d="M16.72,7.34c2.92,2.92,3.17,7.42.57,10.03-2.61,2.61-7.11,2.35-10.03-.57-2.92-2.92-3.18-7.42-.57-10.03s7.11-2.35,10.03.57Z"/>
    <g>
      <g>
        <path class="cls-3" d="M9,3.51v16.97c-1.47-.52-2.76-1.41-3.76-2.55-.22-.25-.42-.5-.61-.77-.06-.08-.12-.17-.18-.26-.11-.18-.22-.35-.32-.54-.2-.36-.37-.73-.52-1.11-.39-1.01-.61-2.1-.61-3.25,0-.13,0-.27.01-.4.09-2.02.85-3.87,2.06-5.33.03-.03.05-.06.08-.09h0c1.02-1.2,2.34-2.12,3.85-2.66Z"/>
        <path class="cls-3" d="M21,12c0-3.91-2.51-7.25-6-8.49v16.97c3.49-1.24,6-4.57,6-8.49Z"/>
        <path class="cls-2" d="M12,3c-1.05,0-2.06.18-3,.51v16.97c.94.33,1.95.51,3,.51s2.06-.18,3-.51V3.51c-.94-.33-1.95-.51-3-.51Z"/>
      </g>
      <g>
        <g>
          <path class="cls-5" d="M3.61,11.6v3.64c-.39-1.01-.61-2.1-.61-3.25,0-.13,0-.27.01-.4h.6Z"/>
          <rect class="cls-5" x="6.79" y="11.6" width="1.31" height="6.35"/>
        </g>
        <path class="cls-5" d="M4.17,13.94c-.45.57-.36,1.4.21,1.86.07.05.14.1.21.14,0,0,0,0,0,0-.01-.01-.02-.02-.03-.04h0s-.02-.03-.03-.04c0,0,0,0,0-.01-.01-.01-.02-.02-.03-.04,0,0,0,0,0,0,0-.01-.01-.02-.02-.04,0,0,0,0,0,0,0-.01-.01-.03-.02-.04,0,0,0,0,0,0,0-.01-.01-.02-.01-.03,0,0,0,0,0,0v-.04s-.01,0-.01,0c0-.01,0-.02,0-.03,0,0,0,0,0,0,0-.01,0-.02,0-.03h0s0-.03,0-.04c0,0,0,0,0,0,0-.01,0-.02,0-.03h0v-.04h0s0-.03,0-.04h0s0-.03,0-.04h0s0-.02,0-.03c0,0,0,0,0,0,0,0,0-.02,0-.03.06-.24.24-.54.79-.59.17-.02.35-.06.49-.18.09-.08.15-.18.18-.29.06-.23-.04-.44-.19-.61-.15-.16-.38-.2-.59-.18-.13.01-.27.05-.39.1-.12.05-.24.13-.34.21-.06.05-.12.12-.17.18Z"/>
        <path class="cls-5" d="M6.23,15.58c.22-.27.32-.62.28-.97-.04-.35-.21-.66-.49-.88-.08-.07-.18-.12-.27-.17,0,0,0,0,0,0l.02.02c.09.11.17.23.2.37.03.13.01.25-.03.37-.07.2-.22.34-.41.42-.1.04-.22.06-.33.07-.23.02-.47.1-.61.3-.08.12-.12.28-.09.42.05.28.3.49.57.54.18.03.36,0,.53-.05.25-.08.47-.23.63-.43Z"/>
        <circle class="cls-3" cx="5.22" cy="15.43" r=".28"/>
        <path class="cls-3" d="M5.49,14.08c0,.15-.12.28-.28.28s-.28-.13-.28-.28.12-.28.28-.28.28.12.28.28Z"/>
        <rect class="cls-5" x="3.88" y="12.65" width="2.64" height=".54"/>
        <path class="cls-5" d="M6.52,16.36v.54h-2.07c-.11-.18-.22-.35-.32-.54h2.39Z"/>
        <path class="cls-5" d="M6.52,17.16l-.66.4-.62.38c-.22-.25-.42-.5-.61-.77h1.89Z"/>
        <polygon class="cls-5" points="5.2 11.6 6.52 11.6 5.86 12 5.2 12.39 4.54 12 3.88 11.6 5.2 11.6"/>
        <circle class="cls-5" cx="5.2" cy="9.48" r="1.07"/>
        <path class="cls-5" d="M5.2,8.16c-.36,0-.66-.3-.66-.66,0,0,0-.19.16-.35.01-.03-.01-.09-.02-.16,0-.07-.02-.12.03-.18.04-.05.07-.08.08-.09,0,.01-.02.08-.01.12.01.04.03.05.06.1.03.05.04.17,0,.26-.03.08-.07.19,0,.25.06.06.14.07.19,0,.06-.07.05-.11.02-.19-.03-.07-.11-.16-.08-.31.03-.15.07-.21.12-.31.05-.11,0-.24-.01-.3,0-.02,0-.05,0-.08.03-.03.05-.06.08-.09,0,.03,0,.05.02.07.18.22.41.53.25.87,0,0-.13.23-.06.3.02.03.14.16.24.01.02-.04.02-.11-.03-.2-.04-.09-.06-.2.02-.3.08-.09.03-.2.02-.22.01.01.11.08.12.2.01.12-.06.18.01.28.08.11.11.14.12.3.02.37-.29.66-.66.66Z"/>
        <path class="cls-5" d="M5.2,10.81c-.65,0-1.21-.39-1.45-.95,0,0,0,.01,0,.02,0,.8.65,1.45,1.46,1.45s1.45-.65,1.45-1.45v-.02c-.25.56-.81.95-1.45.95Z"/>
      </g>
    </g>
  </g>
</svg>