<?xml version="1.0" encoding="UTF-8"?>
<svg id="Layer_1" data-name="Layer 1" xmlns="http://www.w3.org/2000/svg" viewBox="0 0 24 24">
  <defs>
    <style>
      .cls-1 {
        fill: #000;
      }

      .cls-1, .cls-2, .cls-3, .cls-4 {
        stroke-width: 0px;
      }

      .cls-2 {
        fill: #c0262c;
      }

      .cls-3 {
        fill: none;
      }

      .cls-4 {
        fill: #006133;
      }
    </style>
  </defs>
  <rect class="cls-3" width="24" height="24"/>
  <g>
    <path class="cls-1" d="M16.71,7.34c2.92,2.92,3.18,7.42.57,10.03-2.61,2.61-7.11,2.36-10.03-.57-2.92-2.92-3.18-7.42-.57-10.03,2.61-2.61,7.11-2.36,10.03.57Z"/>
    <g>
      <path class="cls-2" d="M12,21c-4.96,0-9-4.04-9-9S7.04,3,12,3s9,4.04,9,9-4.04,9-9,9Z"/>
      <path class="cls-4" d="M14.77,11.38h-2.12l-.65-2.01-.65,2.01h-2.12l1.72,1.25-.65,2.01,1.71-1.24,1.71,1.24-.65-2.01,1.72-1.25ZM12.92,12.2l-.13-.41h.69l-.56.41ZM12,12.87h0l-.57-.41.22-.66h.7l.22.66-.57.41h0ZM12.21,11.38h-.43l.21-.65.21.65ZM10.52,11.8h.69l-.13.41-.56-.41ZM11.3,12.88l.34.25-.56.41.21-.66ZM12.36,13.13l.35-.25.21.66-.56-.41Z"/>
    </g>
  </g>
</svg>