<?xml version="1.0" encoding="UTF-8"?>
<svg id="Layer_1" data-name="Layer 1" xmlns="http://www.w3.org/2000/svg" viewBox="0 0 24 24">
  <defs>
    <style>
      .cls-1 {
        fill: #007067;
      }

      .cls-1, .cls-2, .cls-3, .cls-4, .cls-5, .cls-6 {
        stroke-width: 0px;
      }

      .cls-2 {
        fill: #000;
      }

      .cls-3 {
        fill: #d11133;
      }

      .cls-4 {
        fill: none;
      }

      .cls-5 {
        fill: #fbe019;
      }

      .cls-6 {
        fill: #fff;
      }
    </style>
  </defs>
  <rect class="cls-4" width="24" height="24"/>
  <g>
    <path class="cls-2" d="M16.71,7.34c2.92,2.92,3.18,7.42.57,10.03-2.61,2.61-7.11,2.36-10.04-.57-2.92-2.92-3.18-7.43-.57-10.03,2.61-2.61,7.11-2.36,10.04.57Z"/>
    <g>
      <g>
        <g>
          <path class="cls-5" d="M20.35,15.36c-.44,1.09-1.1,2.12-1.98,3-.35.35-.73.67-1.12.95-.31.22-.63.42-.96.6-1.33.72-2.81,1.08-4.29,1.08-.32,0-.64-.02-.96-.05-1.15-.12-2.28-.46-3.33-1.03-.33-.18-.65-.38-.96-.6-.32-.23-.62-.48-.92-.76-.07-.06-.13-.13-.2-.19-.88-.88-1.55-1.91-1.98-3h16.7Z"/>
          <path class="cls-1" d="M20.35,8.63H3.65c.32-.8.76-1.56,1.32-2.26,0,0,0-.01.01-.02s0-.01.01-.02c0,0,0-.01.01-.02,0,0,.01-.01.02-.02,0,0,0,0,0,0h0s.01-.02.02-.03c0,0,0,0,.01-.01,0,0,.01-.01.01-.02,0,0,0,0,0,0,0,0,0-.01.01-.02.1-.12.2-.24.31-.35,0,0,0,0,.01-.01h0s.01-.01.02-.02c0,0,0,0,.01-.01,0,0,.01-.01.02-.02,0,0,0,0,.01-.01.01-.01.02-.03.04-.04,0,0,0-.01.01-.02l.02-.02s.01-.01.02-.02c.02-.02.04-.04.06-.06.07-.07.13-.13.2-.19.11-.1.21-.19.32-.29,0,0,.01,0,.01-.01h.01s0-.02.01-.02c.1-.09.21-.17.31-.25,0,0,.01,0,.01-.01,0,0,0,0,.01-.01,0,0,0,0,.01-.01.07-.05.14-.1.2-.15.21-.15.43-.3.66-.43,0,0,.01,0,.02-.01.04-.03.09-.05.13-.08,0,0,.02-.01.03-.02.03-.02.06-.03.08-.05,0,0,.01,0,.02,0,0,0,.02-.01.03-.02,1.04-.57,2.17-.91,3.33-1.03.3-.03.59-.05.89-.05h.14c1.45.01,2.91.37,4.21,1.08.33.18.65.38.96.6.39.28.77.6,1.12.95.88.88,1.55,1.91,1.98,3Z"/>
          <path class="cls-2" d="M21,12c0,.95-.15,1.9-.44,2.8H3.44c-.3-.91-.44-1.86-.44-2.8s.15-1.9.44-2.81h17.11c.3.91.44,1.86.44,2.81Z"/>
          <path class="cls-6" d="M20.56,9.19H3.44l.07-.19c.04-.12.09-.24.14-.37h16.7c.05.12.1.24.14.37.02.06.04.13.06.19Z"/>
          <path class="cls-6" d="M20.56,14.8c-.02.06-.04.13-.06.2-.04.12-.09.24-.14.36H3.65c-.05-.12-.09-.24-.14-.36-.02-.06-.04-.13-.07-.2h17.11Z"/>
        </g>
        <path class="cls-3" d="M14.45,12l-3.68,2.8-.73.56-4.2,3.2c-.07-.06-.13-.13-.2-.19-.88-.88-1.55-1.91-1.98-3-.05-.12-.09-.24-.14-.36-.02-.06-.04-.13-.07-.2-.3-.91-.44-1.86-.44-2.8s.15-1.9.44-2.81l.07-.19c.04-.12.09-.24.14-.37.32-.8.76-1.56,1.32-2.26,0,0,0-.01.01-.02s0-.01.01-.02c0,0,0-.01.01-.02,0,0,.01-.01.02-.02,0,0,0,0,0,0h0s.01-.02.02-.03c0,0,0,0,.01-.01,0,0,.01-.01.01-.02,0,0,0,0,0,0,0,0,0-.01.01-.02.1-.12.2-.24.31-.35,0,0,0,0,.01-.01h0s.01-.01.02-.02c0,0,0,0,.01-.01,0,0,.01-.01.02-.02,0,0,0,0,.01-.01.01-.01.02-.03.04-.04,0,0,0-.01.01-.02l.02-.02s.01-.01.02-.02c.02-.02.04-.04.06-.06.07-.07.13-.13.2-.19l4.2,3.2.73.56,3.68,2.81Z"/>
      </g>
      <g>
        <polygon class="cls-5" points="7.22 8.64 8.06 11.21 10.76 11.21 8.57 12.79 9.41 15.36 7.22 13.77 5.04 15.36 5.88 12.79 3.69 11.21 6.39 11.21 7.22 8.64"/>
        <g>
          <polygon class="cls-6" points="5.88 11.7 5.55 13.16 5.3 13.5 5.69 11.87 5.88 11.7"/>
          <polygon class="cls-6" points="8.76 11.87 9.15 13.5 8.9 13.16 8.57 11.7 8.76 11.87"/>
          <path class="cls-6" d="M8.87,13.18l.28.38h-1.57c-.08-.1-.2-.18-.32-.23.59-.23,1.51-.16,1.6-.15Z"/>
          <path class="cls-6" d="M8.54,11.67l.33,1.48c-.15-.01-1.05-.07-1.62.16v-1.65c.33-.28,1.2-.02,1.3,0Z"/>
          <path class="cls-6" d="M7.24,13.35c.13.04.24.12.32.22-.35.26-.61.05-.67,0,.08-.1.2-.18.32-.22h.01s.01,0,.01,0Z"/>
          <path class="cls-6" d="M5.58,13.18c.09,0,1.01-.08,1.6.15-.13.05-.24.13-.32.23h-1.56l.28-.38Z"/>
          <path class="cls-6" d="M7.21,11.66v1.65c-.36-.15-.85-.18-1.2-.18-.2,0-.36.01-.42.02l.33-1.48c.09-.03.96-.29,1.29,0Z"/>
          <path class="cls-2" d="M9.11,13.2l-.16-.68-.16-.66s0,0,0,0l-.23-.21s0,0,0,0c-.03,0-.44-.14-.82-.14-.04,0-.07,0-.11,0-.05,0-.1.01-.15.02-.06.01-.11.03-.16.05-.03.02-.06.03-.09.06-.13-.1-.31-.14-.51-.14h0c-.38,0-.79.13-.82.14,0,0,0,0,0,0l-.23.21s0,0,0,0l-.14.6-.02.06v.02s-.08.31-.08.31l-.17.72h0s0,.01,0,.01h0s0,0,0,0c0,0,0,0,0,0h0s0,0,0,0c0,0,0,0,0,0h1.6s.17.14.36.14c.11,0,.23-.04.37-.14h1.6s0,0,0,0c0,0,0,0,0,0h0s0,0,0-.01h0s-.09-.38-.09-.38ZM8.76,11.87l.16.67.15.61.08.35-.26-.35-.06-.27-.05-.25-.21-.94.19.17ZM7.24,11.66s.06-.04.09-.06c.03-.01.06-.02.09-.03.07-.02.15-.03.22-.03.38-.02.82.11.89.13l.22.99.04.18.07.31s-.09,0-.17-.01h0c-.33-.01-.99-.01-1.44.17v-1.65ZM5.92,11.67c.06-.02.42-.13.76-.14.21,0,.41.02.53.13v1.65c-.3-.12-.68-.16-1-.17-.07,0-.14,0-.2,0-.04,0-.07,0-.1,0-.05,0-.1,0-.14,0-.05,0-.09,0-.12,0-.02,0-.04,0-.05,0l.1-.46v-.02s.02-.09.02-.09l.05-.24.15-.67ZM5.46,12.81v-.06s.06-.21.06-.21l.02-.09.14-.57.19-.17-.15.67-.05.24v.03s-.02.08-.02.08l-.1.44-.26.35.17-.7ZM6.86,13.56h-1.57l.28-.38s.03,0,.05,0c.03,0,.07,0,.12,0,.05,0,.1,0,.17,0,.09,0,.19,0,.3,0,.31.01.68.05.97.16-.13.05-.24.13-.32.23ZM6.89,13.58c.08-.1.2-.18.32-.22h.01s.01,0,.01,0c.13.04.24.12.32.22-.35.26-.61.05-.67,0ZM7.59,13.56c-.08-.1-.2-.18-.32-.23.46-.18,1.12-.18,1.43-.16h.01c.08,0,.14,0,.16.01l.28.38h-1.57Z"/>
        </g>
        <g>
          <path class="cls-2" d="M5.6,12.48l.98-.82.03-.06.28-.26.19.21.49-.41-.04-.03-.44.37-.11-.12.51-.46.04.04.39-.38h.24l.3-.28.03-.23.19.14s.16-.14.18-.05,0,.14,0,.14l1.28-.89-1.14,1.15-.13-.02-.68.58-.17-.13-.24.22v.06s-.78.71-.78.71l-.16-.17v.02s.08.14.08.14c0,0-.35.11-.14.27.21.17.89.2.89.2v.42s-.34.23-1.27-.38c-.06.06-.07.06-.07.06l.09.16-.25.28.11.43-.2.15s-.15-.45-.26-.52c.22-.2.25-.23.25-.23h.11s.1-.11.1-.11l-.06-.08-.08.07.05.04-.02.02h-.12s-.4.37-.4.37l-.03.1-.78.96s-.04.04-.07.04h0s-.09,0-.12-.04l-.33-.37s-.02-.06,0-.08l.59-.51s.07-.04.11-.05h.12s.32-.34.32-.34h.1s.59-.52.59-.52l.05.02.06-.07v-.04s.36-.31.36-.31l-.42.31-.05-.02-.63.57h-.05s.03-.29.03-.29l.06-.02.03.04Z"/>
          <path class="cls-2" d="M9.71,13.89l-3.06-3.48c.02-.08-.01-.18-.07-.24l-.2-.2c-.11-.11-.28-.11-.39,0-.06.06-.08.14-.08.21l-.33-.02c-.06,0-.12.03-.16.07l-.87,1.2.51.6,1.02-1.28.02-.3.08.08c.07.08.18.1.28.07l3.04,3.45c.05.06.14.06.2.01h0c.06-.05.06-.14.01-.2Z"/>
        </g>
      </g>
    </g>
  </g>
</svg>