<?xml version="1.0" encoding="UTF-8"?>
<svg id="Layer_1" data-name="Layer 1" xmlns="http://www.w3.org/2000/svg" viewBox="0 0 24 24">
  <defs>
    <style>
      .cls-1 {
        fill: #31b137;
      }

      .cls-1, .cls-2, .cls-3, .cls-4, .cls-5, .cls-6 {
        stroke-width: 0px;
      }

      .cls-2 {
        fill: #000;
      }

      .cls-3 {
        fill: #fdca16;
      }

      .cls-4 {
        fill: none;
      }

      .cls-5 {
        fill: #e92838;
      }

      .cls-6 {
        fill: #fff;
      }
    </style>
  </defs>
  <rect class="cls-4" width="24" height="24"/>
  <g>
    <path class="cls-2" d="M16.72,7.34c2.92,2.92,3.18,7.42.57,10.03-2.61,2.61-7.11,2.35-10.03-.57-2.92-2.92-3.17-7.42-.57-10.03,2.61-2.61,7.11-2.35,10.03.57Z"/>
    <g>
      <g>
        <path class="cls-5" d="M20.49,15c-1.24,3.49-4.57,6-8.48,6s-7.25-2.51-8.49-6h16.97Z"/>
        <path class="cls-1" d="M21,12c0,1.05-.18,2.06-.51,3H3.51c-.33-.94-.51-1.95-.51-3s.18-2.06.51-3h16.97c.33.94.51,1.95.51,3Z"/>
        <path class="cls-3" d="M20.49,9H3.51c1.24-3.49,4.58-6,8.49-6s7.25,2.51,8.49,6Z"/>
      </g>
      <polygon class="cls-6" points="12 6 13.49 10.58 18.31 10.58 14.41 13.42 15.9 18 12 15.17 8.1 18 9.59 13.42 5.69 10.58 10.51 10.58 12 6"/>
    </g>
  </g>
</svg>