<?xml version="1.0" encoding="UTF-8"?>
<svg id="Layer_1" data-name="Layer 1" xmlns="http://www.w3.org/2000/svg" viewBox="0 0 24 24">
  <defs>
    <style>
      .cls-1 {
        fill: #000;
      }

      .cls-1, .cls-2, .cls-3, .cls-4, .cls-5, .cls-6, .cls-7 {
        stroke-width: 0px;
      }

      .cls-2 {
        fill: #fecd17;
      }

      .cls-3 {
        fill: #d11133;
      }

      .cls-4 {
        fill: none;
      }

      .cls-5 {
        fill: #04357f;
      }

      .cls-6 {
        fill: #fff;
      }

      .cls-7 {
        fill: #009444;
      }
    </style>
  </defs>
  <rect class="cls-4" width="24" height="24"/>
  <g>
    <path class="cls-1" d="M16.71,7.34c2.92,2.92,3.18,7.42.57,10.03-2.61,2.61-7.11,2.35-10.03-.57-2.92-2.92-3.18-7.42-.57-10.03,2.61-2.61,7.11-2.36,10.03.57Z"/>
    <g>
      <g>
        <path class="cls-5" d="M17.38,4.79L3.27,14.2c-.18-.7-.27-1.44-.27-2.2,0-1.42.33-2.77.92-3.96.05-.11.11-.23.17-.34.12-.22.25-.44.39-.65.11-.17.23-.34.35-.5.11-.15.23-.29.35-.43.12-.14.24-.27.37-.4,1.63-1.68,3.92-2.73,6.44-2.73,2.02,0,3.88.67,5.38,1.79Z"/>
        <path class="cls-7" d="M21,12c0,4.96-4.04,9-9,9-2.01,0-3.88-.66-5.38-1.79l14.11-9.41c.18.71.27,1.44.27,2.2Z"/>
        <path class="cls-6" d="M17.99,5.29L3.5,14.96c-.09-.25-.16-.5-.23-.76l14.11-9.41c.21.16.42.33.61.5Z"/>
        <path class="cls-6" d="M20.73,9.8l-14.11,9.41h0c-.21-.16-.42-.33-.61-.5l14.49-9.66c.09.25.16.5.23.76Z"/>
        <path class="cls-3" d="M20.5,9.04l-14.49,9.66c-1.13-1.01-2-2.29-2.51-3.75l14.49-9.66c1.13,1.01,2,2.29,2.51,3.75Z"/>
      </g>
      <g>
        <path class="cls-2" d="M8.3,8.37l1.23-.47-1.23-.47.83-1.02-1.3.21.21-1.3-1.02.83-.47-1.23-.47,1.23-.52-.42c-.13.13-.25.26-.37.4l.08.49-.43-.07c-.12.16-.24.33-.35.5l.31.38-.7.27c-.06.11-.12.22-.17.34l.87.33-.83,1.02,1.3-.21-.21,1.3,1.02-.83.47,1.23.47-1.23,1.02.83-.21-1.3,1.3.21-.83-1.02ZM6.55,9.71c-1,0-1.81-.81-1.81-1.81s.81-1.81,1.81-1.81,1.81.81,1.81,1.81-.81,1.81-1.81,1.81Z"/>
        <path class="cls-2" d="M6.55,6.41c-.83,0-1.5.67-1.5,1.5s.67,1.5,1.5,1.5,1.5-.67,1.5-1.5-.67-1.5-1.5-1.5Z"/>
      </g>
    </g>
  </g>
</svg>