<?xml version="1.0" encoding="UTF-8"?>
<svg id="Layer_1" data-name="Layer 1" xmlns="http://www.w3.org/2000/svg" viewBox="0 0 24 24">
  <defs>
    <style>
      .cls-1 {
        fill: #000;
      }

      .cls-1, .cls-2, .cls-3, .cls-4, .cls-5 {
        stroke-width: 0px;
      }

      .cls-2 {
        fill: none;
      }

      .cls-3 {
        fill: #fec527;
      }

      .cls-4 {
        fill: #fff;
      }

      .cls-5 {
        fill: #042b7d;
      }
    </style>
  </defs>
  <rect class="cls-2" width="24" height="24"/>
  <g>
    <path class="cls-1" d="M16.71,7.34c2.92,2.92,3.18,7.42.57,10.03-2.61,2.61-7.11,2.36-10.03-.57-2.92-2.92-3.18-7.42-.57-10.03,2.61-2.61,7.11-2.36,10.03.57Z"/>
    <g>
      <g>
        <path class="cls-5" d="M21,12c0,.29-.01.58-.04.86-.43,4.56-4.29,8.14-8.96,8.14S3.47,17.42,3.04,12.86c-.03-.28-.04-.57-.04-.86s.01-.58.04-.86C3.47,6.58,7.33,3,12,3s8.53,3.58,8.96,8.14c.03.28.04.57.04.86Z"/>
        <polygon class="cls-4" points="9.49 12.87 9.86 14.35 10.92 13.25 10.5 14.72 11.96 14.3 10.87 15.36 12.35 15.73 10.87 16.09 11.96 17.15 10.5 16.73 10.92 18.2 9.86 17.1 9.49 18.58 9.12 17.1 8.07 18.2 8.48 16.73 7.02 17.15 8.12 16.09 6.64 15.73 8.12 15.36 7.02 14.3 8.48 14.72 8.07 13.25 9.12 14.35 9.49 12.87"/>
      </g>
      <path class="cls-3" d="M21,12c0,.29-.01.58-.04.86H3.04c-.03-.28-.04-.57-.04-.86s.01-.58.04-.86h17.92c.03.28.04.57.04.86Z"/>
    </g>
  </g>
</svg>