<?xml version="1.0" encoding="UTF-8"?>
<svg id="Layer_1" data-name="Layer 1" xmlns="http://www.w3.org/2000/svg" viewBox="0 0 24 24">
  <defs>
    <style>
      .cls-1 {
        fill: #000;
      }

      .cls-1, .cls-2, .cls-3, .cls-4, .cls-5 {
        stroke-width: 0px;
      }

      .cls-2 {
        fill: #003893;
      }

      .cls-3 {
        fill: none;
      }

      .cls-4 {
        fill: #dc143c;
      }

      .cls-5 {
        fill: #fff;
      }
    </style>
  </defs>
  <rect class="cls-3" width="24" height="24"/>
  <g>
    <path class="cls-1" d="M16.72,7.34c2.92,2.92,3.17,7.42.57,10.03-2.61,2.61-7.11,2.35-10.03-.57-2.92-2.92-3.18-7.42-.57-10.03s7.11-2.35,10.03.57Z"/>
    <g>
      <path class="cls-2" d="M12,21c-4.96,0-9-4.04-9-9S7.04,3,12,3s9,4.04,9,9-4.04,9-9,9Z"/>
      <path class="cls-4" d="M12,20c-4.41,0-8-3.59-8-8S7.59,4,12,4s8,3.59,8,8-3.59,8-8,8Z"/>
      <g>
        <polygon class="cls-5" points="14.01 15.2 15.36 14.66 14.01 14.12 14.91 12.98 13.47 13.19 13.68 11.75 12.54 12.65 12 11.3 11.46 12.65 10.32 11.75 10.53 13.19 9.09 12.98 9.99 14.12 8.64 14.66 9.99 15.2 9.09 16.34 10.53 16.13 10.32 17.57 11.46 16.67 12 18.01 12.54 16.67 13.68 17.57 13.47 16.13 14.91 16.34 14.01 15.2"/>
        <path class="cls-5" d="M11.96,9.87c1.7,0,3.08-1.38,3.08-3.08,0-.02,0-.04,0-.07-.21.78-.82,1.43-1.64,1.79l-.23-.27.62-.28-.62-.28.43-.51-.67.02.17-.65-.6.31-.13-.66-.41.54-.41-.54-.13.66-.6-.31.17.65-.67-.02.43.51-.62.28.62.28-.23.27c-.82-.36-1.44-1.01-1.64-1.79,0,.02,0,.04,0,.07,0,1.7,1.38,3.08,3.08,3.08Z"/>
      </g>
    </g>
  </g>
</svg>