<?xml version="1.0" encoding="UTF-8"?>
<svg id="Layer_1" data-name="Layer 1" xmlns="http://www.w3.org/2000/svg" viewBox="0 0 24 24">
  <defs>
    <style>
      .cls-1 {
        fill: #000;
      }

      .cls-1, .cls-2, .cls-3, .cls-4, .cls-5 {
        stroke-width: 0px;
      }

      .cls-2 {
        fill: #062a85;
      }

      .cls-3 {
        fill: none;
      }

      .cls-4 {
        fill: #fff;
      }

      .cls-5 {
        fill: #db171d;
      }
    </style>
  </defs>
  <rect class="cls-3" width="24" height="24"/>
  <g>
    <path class="cls-1" d="M16.71,7.34c2.92,2.92,3.18,7.42.57,10.03-2.61,2.61-7.11,2.36-10.03-.57s-3.18-7.42-.57-10.03c2.61-2.61,7.11-2.36,10.03.57Z"/>
    <g>
      <g>
        <path class="cls-4" d="M20.49,15c-.19.52-.42,1.02-.69,1.5-1.06,1.84-2.76,3.27-4.79,3.99-.94.33-1.95.52-3,.52s-2.06-.18-3-.52c-2.03-.72-3.73-2.15-4.79-3.99-.27-.47-.51-.98-.69-1.5h16.97Z"/>
        <path class="cls-4" d="M20.49,9H3.52c.19-.53.42-1.03.69-1.5,1.07-1.84,2.76-3.27,4.79-3.99.94-.33,1.95-.51,3-.51s2.06.18,3,.51c2.03.72,3.73,2.15,4.79,3.99.28.47.51.98.69,1.5Z"/>
        <path class="cls-5" d="M15,3.51v16.97c-.94.33-1.95.52-3,.52s-2.06-.18-3-.52V3.51c.94-.33,1.95-.51,3-.51s2.06.18,3,.51Z"/>
        <path class="cls-2" d="M21,12c0,1.05-.18,2.06-.51,3H3.52c-.33-.94-.52-1.95-.52-3s.18-2.06.52-3h16.97c.33.94.51,1.95.51,3Z"/>
      </g>
      <g>
        <polygon class="cls-4" points="7.99 11.27 8.17 11.83 8.75 11.83 8.28 12.17 8.46 12.73 7.99 12.38 7.52 12.73 7.7 12.17 7.23 11.83 7.81 11.83 7.99 11.27"/>
        <polygon class="cls-4" points="16.01 11.27 16.19 11.83 16.77 11.83 16.3 12.17 16.48 12.73 16.01 12.38 15.54 12.73 15.72 12.17 15.25 11.83 15.83 11.83 16.01 11.27"/>
        <polygon class="cls-4" points="10.57 9.27 10.75 9.83 11.33 9.83 10.86 10.17 11.04 10.73 10.57 10.38 10.09 10.73 10.27 10.17 9.8 9.83 10.39 9.83 10.57 9.27"/>
        <polygon class="cls-4" points="13.44 9.27 13.62 9.83 14.2 9.83 13.73 10.17 13.91 10.73 13.44 10.38 12.96 10.73 13.14 10.17 12.67 9.83 13.26 9.83 13.44 9.27"/>
        <polygon class="cls-4" points="10.57 13.27 10.75 13.83 11.33 13.83 10.86 14.17 11.04 14.72 10.57 14.38 10.09 14.72 10.27 14.17 9.8 13.83 10.39 13.83 10.57 13.27"/>
        <polygon class="cls-4" points="13.44 13.27 13.62 13.83 14.2 13.83 13.73 14.17 13.91 14.72 13.44 14.38 12.96 14.72 13.14 14.17 12.67 13.83 13.26 13.83 13.44 13.27"/>
      </g>
    </g>
  </g>
</svg>