<?xml version="1.0" encoding="UTF-8"?>
<svg id="Layer_1" data-name="Layer 1" xmlns="http://www.w3.org/2000/svg" viewBox="0 0 24 24">
  <defs>
    <style>
      .cls-1 {
        fill: #000;
      }

      .cls-1, .cls-2, .cls-3, .cls-4, .cls-5 {
        stroke-width: 0px;
      }

      .cls-2 {
        fill: none;
      }

      .cls-3 {
        fill: #cb142a;
      }

      .cls-4 {
        fill: #fff;
      }

      .cls-5 {
        fill: #00247d;
      }
    </style>
  </defs>
  <rect class="cls-2" width="24" height="24"/>
  <g>
    <path class="cls-1" d="M16.71,7.34c2.92,2.92,3.18,7.42.57,10.03-2.61,2.61-7.11,2.36-10.03-.57-2.92-2.92-3.18-7.42-.57-10.03,2.61-2.61,7.11-2.35,10.03.57Z"/>
    <g>
      <path class="cls-5" d="M19.14,6.52c-1.65-2.14-4.23-3.53-7.14-3.53s-5.49,1.38-7.14,3.53c-.16.21-.31.42-.45.64-.1.15-.19.31-.28.47-.06.11-.12.21-.17.32-.03.05-.05.11-.08.16-.04.08-.07.15-.11.23-.05.12-.11.24-.15.36-.14.36-.26.72-.35,1.1-.03.12-.06.24-.08.36-.04.21-.08.42-.11.63-.03.21-.05.42-.06.64,0,.14-.01.28-.01.42,0,.04,0,.09,0,.13,0,2.06.69,3.96,1.86,5.48,1.65,2.14,4.23,3.53,7.14,3.53s5.49-1.38,7.14-3.53c1.17-1.52,1.86-3.42,1.86-5.48s-.69-3.96-1.86-5.47Z"/>
      <g>
        <path class="cls-5" d="M4.35,10.17l-1.27.63c.03-.21.06-.42.11-.63h1.16Z"/>
        <path class="cls-5" d="M6.48,6.52v1.67l-2.06-1.03c.14-.22.29-.43.45-.64h1.62Z"/>
        <path class="cls-5" d="M4.35,8.35h-.57c.03-.08.07-.16.11-.23l.46.23Z"/>
        <polygon class="cls-5" points="12.86 8.35 12.86 7.13 10.43 8.35 12.86 8.35"/>
        <polygon class="cls-5" points="11.64 6.52 8.3 6.52 8.3 8.19 11.64 6.52"/>
        <polygon class="cls-5" points="12.86 11.39 12.86 10.17 10.43 10.17 12.86 11.39"/>
        <polygon class="cls-5" points="3.14 12 6.48 12 6.48 10.33 3.14 12"/>
        <polygon class="cls-5" points="8.3 12 11.64 12 8.3 10.33 8.3 12"/>
        <path class="cls-4" d="M12.86,7.13l-2.43,1.22h2.43v1.82h-2.43l2.43,1.22v.21l-2.84-1.42h-.82l3.65,1.82h-1.22l-3.34-1.67v1.67h-1.82v-1.67l-3.34,1.67h-.14s0-.09,0-.13l3.38-1.69h-.82l-2.55,1.27c.01-.22.03-.43.06-.64l1.27-.63h-1.16c.03-.12.05-.24.08-.36.09-.38.21-.74.35-1.1.05-.12.1-.24.15-.36h.57l-.46-.23c.03-.05.05-.11.08-.16l.79.39h.82l-1.44-.72c.09-.16.18-.32.28-.47l2.06,1.03v-1.67h1.82v1.67l3.34-1.67h.4l-3.65,1.83h.82l3.65-1.83h0v.61Z"/>
        <path class="cls-3" d="M5.57,8.35h-.82l-.79-.39c.05-.11.11-.22.17-.32l1.44.72Z"/>
        <polygon class="cls-3" points="9.2 10.17 12.85 12 12.86 12 12.86 11.6 10.02 10.17 9.2 10.17"/>
        <polygon class="cls-3" points="8.39 8.35 9.21 8.35 12.86 6.52 12.04 6.52 8.39 8.35"/>
        <path class="cls-3" d="M6.38,10.17l-3.38,1.69c0-.14,0-.28.01-.42l2.55-1.27h.82Z"/>
        <path class="cls-3" d="M12.86,8.71v1.1h-4.93v2.19h-1.09v-2.19h-3.57c.09-.38.21-.74.35-1.1h3.22v-2.19h1.09v2.19h4.93Z"/>
      </g>
      <g>
        <g>
          <polygon class="cls-3" points="17.06 15.62 16.57 15.96 16.75 15.39 16.27 15.04 16.86 15.02 17.06 14.47 17.25 15.02 17.84 15.04 17.37 15.39 17.54 15.96 17.06 15.62"/>
          <path class="cls-4" d="M17.99,14.99h-.7s-.23-.68-.23-.68l-.23.66h-.7s.56.44.56.44l-.2.67.58-.4.58.4-.2-.67.56-.42ZM17.06,15.56l-.39.27.14-.46-.38-.29h.48s.16-.46.16-.46l.16.45h.48s-.38.3-.38.3l.14.46-.39-.27Z"/>
        </g>
        <g>
          <polygon class="cls-3" points="17.06 9 16.62 9.31 16.78 8.8 16.35 8.48 16.88 8.47 17.06 7.96 17.23 8.47 17.76 8.48 17.34 8.8 17.49 9.31 17.06 9"/>
          <path class="cls-4" d="M17.91,8.43h-.64s-.21-.62-.21-.62l-.21.61h-.64s.52.4.52.4l-.19.62.53-.37.53.37-.19-.62.51-.39ZM17.06,8.94l-.35.24.12-.4-.34-.25h.42s.14-.4.14-.4l.14.4h.42s-.34.26-.34.26l.12.4-.34-.24Z"/>
        </g>
        <g>
          <polygon class="cls-3" points="14.51 11.56 14.07 11.87 14.22 11.36 13.79 11.03 14.33 11.02 14.51 10.51 14.68 11.02 15.22 11.03 14.79 11.36 14.95 11.87 14.51 11.56"/>
          <path class="cls-4" d="M15.37,10.98h-.65s-.21-.63-.21-.63l-.21.61h-.65s.52.41.52.41l-.19.62.54-.37.53.37-.19-.62.52-.39ZM14.51,11.5l-.35.24.12-.41-.34-.26h.43s.14-.41.14-.41l.14.4h.43s-.34.27-.34.27l.12.41-.35-.24Z"/>
        </g>
        <g>
          <polygon class="cls-3" points="19.22 10.87 18.83 11.14 18.97 10.69 18.6 10.41 19.06 10.4 19.22 9.96 19.37 10.4 19.84 10.41 19.47 10.69 19.6 11.14 19.22 10.87"/>
          <path class="cls-4" d="M19.99,10.36h-.58s-.19-.56-.19-.56l-.19.55h-.58s.46.36.46.36l-.17.56.48-.33.48.33-.17-.56.46-.35ZM19.22,10.81l-.29.21.11-.34-.28-.22h.36s.12-.34.12-.34l.12.34h.36s-.28.22-.28.22l.1.34-.29-.21Z"/>
        </g>
      </g>
    </g>
  </g>
</svg>