<?xml version="1.0" encoding="UTF-8"?>
<svg id="Layer_1" data-name="Layer 1" xmlns="http://www.w3.org/2000/svg" viewBox="0 0 24 24">
  <defs>
    <style>
      .cls-1 {
        fill: #0836ab;
      }

      .cls-1, .cls-2, .cls-3, .cls-4, .cls-5, .cls-6 {
        stroke-width: 0px;
      }

      .cls-2 {
        fill: #000;
      }

      .cls-3 {
        fill: #ec4035;
      }

      .cls-4 {
        fill: none;
      }

      .cls-5 {
        fill: #f9e51b;
      }

      .cls-6 {
        fill: #009444;
      }
    </style>
  </defs>
  <rect class="cls-4" width="24" height="24"/>
  <g>
    <path class="cls-2" d="M16.71,7.34c2.92,2.92,3.18,7.42.57,10.03-2.61,2.61-7.11,2.36-10.03-.57-2.92-2.92-3.18-7.42-.57-10.03,2.61-2.61,7.11-2.36,10.03.57Z"/>
    <g>
      <g>
        <path class="cls-1" d="M20.49,9H3.51c.19-.52.42-1.03.69-1.5,1.56-2.69,4.47-4.5,7.79-4.5s6.23,1.81,7.79,4.5c.27.47.51.98.69,1.5Z"/>
        <path class="cls-6" d="M20.49,15c-.19.52-.42,1.03-.69,1.5-1.56,2.69-4.47,4.5-7.79,4.5s-6.23-1.81-7.79-4.5c-.27-.47-.51-.98-.69-1.5h16.97Z"/>
        <path class="cls-3" d="M21,12c0,1.05-.18,2.06-.51,3H3.51c-.33-.94-.51-1.95-.51-3s.18-2.06.51-3h16.97c.33.94.51,1.95.51,3Z"/>
      </g>
      <g>
        <path class="cls-5" d="M12.76,13.26c-.16-.09-.35-.13-.53-.14-.01,0-.03,0-.05,0v-.08h.83v-.31h-.83v-.11c.35-.05.61-.25.61-.48s-.26-.43-.61-.48v-.11h.83v-.31h-.83v-.09h.02c.25,0,.55-.04.75-.21.09-.07.16-.17.2-.28.03-.09.05-.19.06-.29.02-.12.03-.25.04-.37.01-.11.03-.2.06-.31.01-.05.01-.13.05-.17-.05.06-.1.13-.16.18-.08.08-.26.44-.36.64-.11.22-.3.37-.54.42-.04,0-.08.01-.12.02v-.21c.35-.08.61-.4.61-.77s-.26-.69-.61-.77v-.93c.11-.09.22-.19.34-.31.33-.33.4-.75.4-.96-.04.13-.41.33-.64.49-.03.02-.06.04-.1.06v-1.12c3.09.09,5.57,2.64,5.57,5.75,0,2.37-1.44,4.4-3.48,5.28-.25-.26-.88-.9-1.16-1.13-.25-.2-.68-.26-.93-.28v-.25c.29-.11.5-.48.5-.92s-.21-.81-.5-.92v-.14c.24.07.55.28.65.55.14.35.32.71.54,1.01-.02-.04-.02-.08-.03-.13-.01-.06-.03-.13-.04-.19-.03-.16-.05-.32-.07-.48-.05-.41-.06-.92-.47-1.16Z"/>
        <path class="cls-5" d="M10.99,13.03h.83v.08s-.04,0-.05,0c-.18,0-.37.05-.53.14-.41.23-.42.74-.47,1.16-.02.16-.04.32-.07.48-.01.06-.02.13-.04.19-.01.04-.01.09-.03.13.22-.3.41-.66.54-1.01.1-.27.4-.47.65-.55v.14c-.29.11-.51.48-.51.92s.21.81.51.92v.25c-.24.02-.67.08-.93.28-.28.23-.91.87-1.16,1.13-2.05-.88-3.48-2.92-3.48-5.28,0-3.11,2.48-5.65,5.57-5.75v1.29c-.23.11-.47.23-.58.37-.2.25-.11.74-.07.7.08-.08.15-.07.42-.17.07-.03.15-.07.23-.12v.68c-.35.08-.61.4-.61.77s.26.69.61.77v.21s-.08,0-.12-.02c-.24-.05-.43-.21-.54-.42-.1-.2-.29-.56-.36-.64-.06-.05-.11-.12-.16-.18.03.04.03.12.05.17.03.1.04.2.06.31.02.12.03.25.04.37.02.09.03.2.06.29.04.11.11.21.2.28.2.17.49.2.75.21h.02v.09h-.83v.31h.83v.11c-.35.05-.61.25-.61.48s.26.43.61.48v.11h-.83v.31Z"/>
        <path class="cls-2" d="M12,5.95c3.34,0,6.05,2.72,6.05,6.05s-2.72,6.05-6.05,6.05-6.05-2.72-6.05-6.05,2.72-6.05,6.05-6.05ZM14.27,17.28c2.05-.88,3.48-2.92,3.48-5.28,0-3.11-2.48-5.65-5.57-5.75v1.12s.07-.04.1-.06c.23-.17.6-.37.64-.49,0,.21-.07.63-.4.96-.12.12-.23.22-.34.31v.93c.35.08.61.4.61.77s-.26.69-.61.77v.21s.08,0,.12-.02c.24-.05.43-.21.54-.42.1-.2.29-.56.36-.64.06-.05.11-.12.16-.18-.03.04-.03.12-.05.17-.03.1-.04.2-.06.31-.02.12-.03.25-.04.37-.01.09-.03.2-.06.29-.04.11-.11.21-.2.28-.2.17-.49.2-.75.21h-.02v.09h.83v.31h-.83v.11c.35.05.61.25.61.48s-.26.43-.61.48v.11h.83v.31h-.83v.08s.04,0,.05,0c.18,0,.37.05.53.14.41.23.42.74.47,1.16.02.16.04.32.07.48.01.06.02.13.04.19,0,.04.01.09.03.13-.22-.3-.41-.66-.54-1.01-.11-.27-.41-.47-.65-.55v.14c.29.11.5.48.5.92s-.21.81-.5.92v.25c.24.02.67.08.93.28.28.23.91.87,1.16,1.13ZM11.82,15.87v-.25c-.29-.11-.51-.48-.51-.92s.21-.81.51-.92v-.14c-.24.07-.55.28-.65.55-.14.35-.32.71-.54,1.01.02-.04.02-.08.03-.13.01-.06.03-.13.04-.19.03-.16.05-.32.07-.48.05-.41.06-.92.47-1.16.16-.09.35-.13.53-.14.01,0,.03,0,.05,0v-.08h-.83v-.31h.83v-.11c-.35-.05-.61-.25-.61-.48s.26-.43.61-.48v-.11h-.83v-.31h.83v-.09h-.02c-.25,0-.55-.04-.75-.21-.09-.07-.16-.17-.2-.28-.03-.09-.05-.19-.06-.29-.02-.12-.03-.25-.04-.37-.01-.11-.03-.2-.06-.31-.01-.05-.01-.13-.05-.17.05.06.1.13.16.18.08.08.26.44.36.64.11.22.3.37.54.42.04,0,.08.01.12.02v-.21c-.35-.08-.61-.4-.61-.77s.26-.69.61-.77v-.68c-.08.05-.16.09-.23.12-.27.11-.34.09-.42.17-.03.03-.13-.45.07-.7.11-.14.35-.26.58-.37v-1.29c-3.09.09-5.57,2.64-5.57,5.75,0,2.37,1.44,4.4,3.48,5.28.25-.26.88-.9,1.16-1.13.25-.2.68-.26.93-.28Z"/>
      </g>
    </g>
  </g>
</svg>