<?xml version="1.0" encoding="UTF-8"?>
<svg id="Layer_1" data-name="Layer 1" xmlns="http://www.w3.org/2000/svg" xmlns:xlink="http://www.w3.org/1999/xlink" viewBox="0 0 24 24">
  <defs>
    <style>
      .cls-1 {
        fill: #ff0303;
      }

      .cls-1, .cls-2, .cls-3, .cls-4, .cls-5, .cls-6, .cls-7, .cls-8, .cls-9, .cls-10, .cls-11, .cls-12, .cls-13, .cls-14, .cls-15, .cls-16, .cls-17, .cls-18, .cls-19, .cls-20, .cls-21, .cls-22, .cls-23, .cls-24 {
        stroke-width: 0px;
      }

      .cls-2 {
        fill: #000;
      }

      .cls-3 {
        fill: #120ffd;
      }

      .cls-4 {
        fill: #fdfe1f;
      }

      .cls-5 {
        fill: #0967c4;
      }

      .cls-6 {
        fill: #520200;
      }

      .cls-25 {
        clip-path: url(#clippath-2);
      }

      .cls-7 {
        fill: #810480;
      }

      .cls-8 {
        fill: none;
      }

      .cls-9 {
        fill: #fb3b3a;
      }

      .cls-10 {
        fill: #0642a1;
      }

      .cls-26 {
        clip-path: url(#clippath-1);
      }

      .cls-11 {
        fill: #ff0302;
      }

      .cls-12 {
        fill: #08ccfe;
      }

      .cls-13 {
        fill: #6fd7f2;
      }

      .cls-14 {
        fill: #80a0d1;
      }

      .cls-27 {
        clip-path: url(#clippath);
      }

      .cls-15 {
        fill: #95c82b;
      }

      .cls-28, .cls-23 {
        fill: #c5a310;
      }

      .cls-16 {
        fill: #ece62b;
      }

      .cls-17 {
        fill: #91bb35;
      }

      .cls-18 {
        fill: #c5ca2c;
      }

      .cls-19 {
        fill: #940101;
      }

      .cls-20 {
        fill: #fff;
      }

      .cls-21 {
        fill: #00fe1e;
      }

      .cls-22 {
        fill: #02275f;
      }

      .cls-24 {
        fill: #ff6407;
      }
    </style>
    <clipPath id="clippath">
      <path class="cls-23" d="M10.13,13.09h3.74l-1.87-3.24-1.87,3.24Z"/>
    </clipPath>
    <clipPath id="clippath-1">
      <path class="cls-8" d="M10.13,13.09h3.74l-1.87-3.24-1.87,3.24Z"/>
    </clipPath>
    <clipPath id="clippath-2">
      <path class="cls-8" d="M10.13,13.09h3.74l-1.87-3.24-1.87,3.24Z"/>
    </clipPath>
  </defs>
  <rect class="cls-8" width="24" height="24"/>
  <g>
    <path class="cls-2" d="M16.71,7.34c2.92,2.92,3.18,7.43.57,10.03-2.61,2.61-7.11,2.36-10.04-.57s-3.18-7.42-.57-10.03c2.61-2.61,7.11-2.36,10.04.57Z"/>
    <g>
      <g>
        <path class="cls-5" d="M20.49,15c-.6,1.68-1.67,3.13-3.07,4.18-1.51,1.14-3.38,1.82-5.42,1.82s-3.91-.68-5.41-1.81c-1.4-1.05-2.48-2.51-3.07-4.19h16.97Z"/>
        <path class="cls-5" d="M20.49,9H3.51c.59-1.68,1.67-3.13,3.07-4.19,1.51-1.14,3.38-1.81,5.41-1.81s3.91.68,5.42,1.82c1.4,1.05,2.48,2.51,3.07,4.18Z"/>
        <path class="cls-20" d="M21,12c0,1.05-.18,2.06-.51,3H3.51c-.33-.94-.51-1.95-.51-3s.18-2.06.51-3h16.97c.33.94.51,1.95.51,3Z"/>
      </g>
      <g>
        <g>
          <g>
            <path class="cls-23" d="M9.43,11.61s.05.02.06.05c.01-.02.03-.03.06-.03h.08s0,.06,0,.06h-.08s-.02,0-.03.02c0,0,0,.02,0,.04v.17s.1,0,.1,0v.06s-.31-.02-.31-.02l.02-.24s.01-.07.02-.09c.01-.02.04-.03.08-.03h.02ZM9.42,11.67h-.02s-.03,0-.04.02c0,0,0,.02,0,.05v.17s.08,0,.08,0v-.17s.02-.04.01-.05c0-.02-.01-.03-.03-.03Z"/>
            <path class="cls-23" d="M9.71,11.3l-.07.31-.3-.07.07-.31h.05s-.06.26-.06.26l.07.02.06-.24h.05s-.06.25-.06.25l.08.02.06-.25h.05Z"/>
            <path class="cls-23" d="M9.66,10.88s.05.03.06.05c0,.02,0,.05-.02.09l-.06.16.1.04-.02.05-.29-.11.08-.22s.03-.07.05-.08c.02-.02.05-.02.08,0h.02ZM9.64,10.94h-.02s-.03-.01-.04,0c0,0-.01.02-.02.05l-.06.15.09.04.06-.15s.01-.04.01-.04c0-.02,0-.03-.02-.04Z"/>
            <path class="cls-23" d="M9.94,10.56s.06.05.06.08c0,.02-.01.06-.04.1l-.05.08s-.05.08-.07.09c-.02.01-.06,0-.1-.02l-.17-.1.03-.05.16.09s.05.02.06.02.03-.03.05-.06l.03-.06s.03-.06.03-.07c0-.01-.02-.03-.04-.04l-.16-.09.03-.05.17.1Z"/>
            <path class="cls-23" d="M10.22,10.26s.04.04.04.06c0,.02-.02.06-.05.1l-.15.18-.23-.2.15-.18s.05-.05.07-.06c.02-.01.05,0,.07.01.02.02.03.04.03.06.03-.01.05-.01.08.01ZM10.08,10.23s-.04-.01-.06.01l-.12.15.06.05.13-.15s.02-.04,0-.05ZM10.18,10.31s-.02-.02-.03-.01c0,0-.02.01-.03.03l-.13.15.06.05.12-.14s.02-.03.03-.04c0-.01,0-.03-.01-.04Z"/>
            <path class="cls-23" d="M10.53,10.11l-.22.2-.2-.23.04-.04.17.19.18-.16.03.04Z"/>
            <path class="cls-23" d="M10.59,10.07l-.05.04-.18-.25.05-.04.19.25Z"/>
            <path class="cls-23" d="M10.88,9.78s.02.06.01.08-.04.05-.09.07l-.07.04s-.08.04-.11.04c-.03,0-.06-.03-.08-.07l-.02-.04s-.04-.08-.03-.11c0-.03.04-.06.09-.09l.05-.03s.08-.04.11-.04c.03,0,.05.01.06.04h0s-.05.04-.05.04h0s-.02-.03-.05-.02c-.01,0-.03.02-.06.04l-.03.02s-.06.04-.07.06c0,.01,0,.04.03.08v.02s.05.05.06.05c.02,0,.04,0,.09-.03l.04-.02s.06-.04.07-.05c0-.01,0-.02,0-.04h0s.05-.04.05-.04h0Z"/>
            <path class="cls-23" d="M11.32,9.7l-.06.02-.05-.04-.22.08v.07s-.07.02-.07.02l.05-.35.07-.03.28.22ZM11.16,9.64l-.13-.1h0s-.03.17-.03.17l.16-.06Z"/>
            <path class="cls-23" d="M11.9,9.48c0,.05,0,.09-.02.11-.02.02-.05.03-.11.03l-.25.03-.04-.31.24-.03c.06,0,.1,0,.13.02.02.01.03.05.04.11v.04ZM11.84,9.47v-.03s-.02-.07-.03-.08c-.01-.01-.04-.01-.09,0l-.17.02.02.2.17-.02s.08-.02.09-.03c0-.01.01-.03,0-.07Z"/>
            <path class="cls-23" d="M12.26,9.62h-.32s.01-.32.01-.32h.31s0,.06,0,.06h-.26s0,.06,0,.06h.24s0,.06,0,.06h-.24s0,.07,0,.07h.26s0,.06,0,.06Z"/>
            <path class="cls-23" d="M12.87,9.76l-.08-.02-.18-.31-.07.24-.06-.02.08-.29.08.02.18.31.07-.24.06.02-.08.29Z"/>
            <path class="cls-23" d="M12.95,9.8l-.05-.02.12-.28.05.02-.12.28Z"/>
            <path class="cls-23" d="M13.35,9.9s-.04.05-.06.05c-.02,0-.06-.01-.11-.04l-.07-.04s-.08-.05-.09-.07c-.01-.02,0-.06.02-.11l.02-.04s.05-.08.08-.08c.03,0,.07,0,.12.03l.06.03s.08.05.09.07c.02.02.02.05,0,.07v.02s-.06-.03-.06-.03h0s0-.04-.01-.06c0,0-.03-.02-.06-.04l-.04-.02s-.07-.03-.09-.03-.03.03-.05.06v.02s-.04.05-.03.06c0,.02.03.04.07.06l.04.02s.06.03.08.03c.01,0,.02,0,.03-.02h0s.05.02.05.02h0Z"/>
            <path class="cls-23" d="M13.64,10.24l-.05-.04v-.07s-.17-.14-.17-.14l-.07.03-.05-.04.33-.13.06.05-.05.35ZM13.61,10.07l.02-.16h0s-.16.06-.16.06l.14.11Z"/>
            <path class="cls-23" d="M14.04,10.37s-.05.03-.07.01c.01.02,0,.04-.02.07l-.06.05-.04-.04.06-.05s.01-.02,0-.04c0,0-.01-.02-.03-.03l-.12-.13-.08.08-.04-.04.22-.21.17.18s.05.06.05.07c0,.02,0,.05-.03.07h-.01ZM14,10.33h.01s.02-.04.01-.05c0,0-.01-.02-.03-.04l-.12-.13-.07.06.12.13s.03.03.03.03c.01.01.03,0,.04,0Z"/>
            <path class="cls-23" d="M14.13,10.86l-.04-.06.03-.06-.13-.19h-.07s-.04-.05-.04-.05l.36-.02.04.06-.16.32ZM14.15,10.69l.07-.15h0s-.17,0-.17,0l.1.15Z"/>
            <path class="cls-23" d="M14.39,11.16s-.08.02-.11.01c-.02-.01-.04-.04-.06-.09l-.04-.1c-.02-.05-.03-.09-.02-.11,0-.03.03-.05.08-.07l.04-.02c.05-.02.09-.03.11-.02.03.01.05.04.08.1l.04.08s.03.09.02.11c0,.02-.03.04-.06.06l-.02-.05s.03-.02.03-.03c0-.02,0-.04-.02-.07l-.03-.06s-.04-.07-.05-.07c-.01,0-.04,0-.08.02h-.02s-.05.04-.05.05c0,.02,0,.04.02.08l.03.07s.03.06.04.07c.01,0,.03,0,.05,0l-.06-.14.05-.02.09.2-.04.02Z"/>
            <path class="cls-23" d="M14.49,11.56s-.08.01-.1,0c-.02-.01-.03-.05-.04-.1l-.02-.09c-.01-.05-.02-.09-.01-.11.01-.02.04-.04.09-.05l.19-.05v.06s-.16.04-.16.04c-.03.01-.05.02-.06.03,0,.01,0,.04.01.08l.02.06s.02.07.03.08c0,0,.03,0,.06,0l.18-.05v.06s-.17.05-.17.05Z"/>
            <path class="cls-23" d="M14.42,12.02v-.07s.05-.04.05-.04l-.02-.23-.06-.03v-.07s.32.15.32.15v.07s-.29.21-.29.21ZM14.52,11.88l.14-.1h0s-.15-.08-.15-.08v.17Z"/>
          </g>
          <g>
            <path class="cls-23" d="M9.56,12.87l-.05-.16h.04s.05.14.05.14h-.04Z"/>
            <path class="cls-23" d="M9.78,13.54l-.03-.06.04-.06-.12-.2h-.07l-.03-.06h.36s.04.07.04.07l-.18.31ZM9.82,13.37l.08-.14h0s-.17,0-.17,0l.09.15Z"/>
            <path class="cls-23" d="M10.15,13.97l-.04-.04.19-.17h0s-.3.04-.3.04l-.03-.03.08-.29h0s-.19.17-.19.17l-.04-.04.23-.2.06.07-.07.27.28-.04.06.07-.23.2Z"/>
            <path class="cls-23" d="M10.47,14.22l-.25-.2.19-.24.25.2-.03.04-.2-.16-.04.06.19.15-.03.04-.19-.15-.05.06.2.16-.03.04Z"/>
            <path class="cls-23" d="M10.94,14.26s-.04.04-.07.04c.02.02.02.04,0,.07l-.04.07-.05-.03.04-.07s0-.02-.01-.04c0,0-.02-.01-.03-.02l-.15-.09-.06.1-.05-.03.15-.27.21.12s.06.04.07.06c.01.02,0,.05-.01.08h-.01ZM10.89,14.24v-.02s.02-.03,0-.04c0,0-.02-.02-.05-.03l-.15-.08-.05.08.15.08s.04.02.04.02c.02,0,.03,0,.04-.02Z"/>
            <path class="cls-23" d="M10.95,14.49l-.05-.02.12-.28.05.02-.12.28Z"/>
            <path class="cls-23" d="M11.39,14.54s-.03.05-.05.06-.06,0-.12-.02l-.08-.02c-.05-.02-.09-.03-.1-.05-.02-.02-.02-.06,0-.11v-.04c.03-.05.05-.08.07-.09.03-.01.07-.01.13.01l.06.02c.05.02.09.03.1.05.02.02.02.04.01.07v.02s-.06-.02-.06-.02h0s0-.04-.02-.05c0,0-.03-.01-.07-.03h-.04s-.08-.03-.09-.02c-.01,0-.03.03-.04.07v.03s-.02.05-.02.06c0,.02.03.03.08.04h.04s.07.03.08.03c.01,0,.02-.01.03-.03h0s.05,0,.05,0h0Z"/>
            <path class="cls-23" d="M11.83,14.7h-.07s-.02-.07-.02-.07l-.23-.03-.04.06h-.06s.22-.29.22-.29h.07s.13.34.13.34ZM11.72,14.57l-.06-.15h0l-.11.13.17.02Z"/>
            <path class="cls-23" d="M12.48,14.57s0,.06-.02.08c-.02.01-.05.02-.11.03h-.08c-.05.01-.09.01-.11,0-.02-.01-.04-.05-.05-.1v-.04c0-.05,0-.09.01-.11.02-.02.06-.04.12-.04h.06c.05-.01.09-.01.12,0,.02.01.04.03.04.06v.02s-.05,0-.05,0h0s-.01-.04-.04-.04c0,0-.03,0-.07,0h-.04s-.08.02-.09.03c0,.01-.01.04,0,.08v.02s.01.06.02.06c.01.01.04.01.09,0h.05s.07-.02.08-.02.02-.02.02-.03h0s.06-.02.06-.02h0Z"/>
            <path class="cls-23" d="M12.86,14.57l-.31.08-.08-.3.31-.08v.05s-.23.07-.23.07l.02.07.24-.06v.05s-.22.06-.22.06l.02.08.25-.06v.05Z"/>
            <path class="cls-23" d="M13.29,14.38l-.07.03-.34-.12.1.23-.05.02-.13-.28.07-.03.34.12-.1-.23.05-.02.13.28Z"/>
            <path class="cls-23" d="M13.5,13.94l-.13.08.14.21-.05.03-.14-.21-.13.08-.03-.04.3-.2.03.04Z"/>
            <path class="cls-23" d="M13.83,13.72s.03.05.01.07c.02-.01.05,0,.07.02l.05.06-.04.04-.05-.06s-.02-.01-.04,0c0,0-.02.01-.03.03l-.13.12.07.08-.04.04-.21-.23.18-.16s.06-.05.08-.05c.02,0,.05,0,.07.03h.01ZM13.78,13.76h-.01s-.03-.03-.04-.02c0,0-.02.01-.04.03l-.13.12.06.07.13-.12s.03-.03.03-.03c.01-.01.01-.03,0-.04Z"/>
            <path class="cls-23" d="M14.26,13.49l-.04.05h-.07s-.14.17-.14.17l.03.07-.04.05-.13-.33.05-.06.35.05ZM14.09,13.53l-.16-.02h0s.06.16.06.16l.11-.14Z"/>
            <path class="cls-23" d="M14.43,13.19l-.15.26-.27-.15.03-.05.22.13.12-.21.04.03Z"/>
            <path class="cls-23" d="M14.5,12.74l-.05.16h-.04s.05-.17.05-.17h.04Z"/>
          </g>
        </g>
        <g>
          <g>
            <path class="cls-28" d="M10.13,13.09h3.74l-1.87-3.24-1.87,3.24Z"/>
            <g class="cls-27">
              <path class="cls-13" d="M11.9,14.56c-.07,0-.13,0-.2-.01l.29-2.71h0l-.1,2.72ZM12.1,14.56l-.1-2.72h0l.3,2.71c-.07,0-.13.01-.2.01ZM11.5,14.51c-.06-.01-.13-.03-.2-.04l.69-2.64h0l-.49,2.68ZM12.5,14.51l-.49-2.68h0l.69,2.64c-.06.02-.13.03-.2.04ZM11.12,14.41c-.06-.02-.13-.05-.19-.07l1.07-2.51h0l-.88,2.58ZM12.89,14.41l-.88-2.58h0l1.07,2.51c-.06.03-.13.05-.19.07ZM10.74,14.25c-.06-.03-.12-.06-.17-.1l1.42-2.33h0l-1.25,2.42ZM13.26,14.25l-1.25-2.42h0l1.42,2.33c-.06.03-.12.07-.17.1ZM10.4,14.05c-.05-.04-.11-.08-.16-.12l1.74-2.1h0l-1.59,2.22ZM13.6,14.04l-1.59-2.22h0l1.75,2.1c-.05.04-.1.08-.16.12ZM10.1,13.79s-.1-.09-.14-.14l2.03-1.82h0s-1.89,1.97-1.89,1.97ZM13.91,13.79l-1.89-1.96h0s2.03,1.82,2.03,1.82c-.04.05-.09.1-.14.14ZM9.83,13.49c-.04-.05-.08-.11-.12-.16l2.27-1.51s0,0,0,0l-2.16,1.67ZM14.17,13.49l-2.16-1.67s0,0,0,0l2.27,1.51c-.04.05-.08.11-.12.16ZM9.61,13.16c-.03-.06-.06-.12-.09-.18l2.47-1.16h0l-2.38,1.34ZM14.39,13.16l-2.38-1.34h0l2.47,1.16c-.03.06-.06.12-.09.18ZM9.44,12.8c-.02-.06-.05-.13-.07-.19l2.61-.79h0s-2.54.98-2.54.98ZM14.56,12.79l-2.55-.97s0,0,0,0l2.61.78c-.02.06-.04.13-.06.19ZM9.32,12.41c-.01-.07-.03-.13-.04-.2l2.7-.4h0l-2.66.59ZM14.68,12.41l-2.66-.59h0s2.7.39,2.7.39c-.01.07-.02.13-.04.2ZM9.26,12.01c0-.06,0-.13,0-.2h2.73s0,0,0,0l-2.72.2ZM14.74,12.01l-2.72-.2h0s2.73-.01,2.73-.01h0c0,.07,0,.14,0,.21ZM11.98,11.81l-2.72-.19c0-.06.01-.13.02-.2l2.7.39h0ZM12.02,11.81h0s2.7-.4,2.7-.4c0,.07.02.13.02.2l-2.72.2ZM12.02,11.81h0s2.61-.79,2.61-.79c.02.06.04.13.05.19l-2.66.6ZM11.98,11.81l-2.66-.59c.01-.06.03-.13.05-.19l2.61.78h0ZM11.98,11.81l-2.55-.97c.02-.06.05-.12.08-.18l2.47,1.16h0ZM12.02,11.81h0l2.47-1.17c.03.06.05.12.08.19l-2.55.98ZM11.98,11.8l-2.38-1.33c.03-.06.07-.12.1-.17l2.28,1.51h0ZM12.02,11.8h0l2.27-1.51c.04.05.07.11.11.17l-2.37,1.34ZM11.98,11.8l-2.16-1.66c.04-.05.08-.11.13-.15l2.03,1.82h0ZM12.02,11.8h0s2.03-1.83,2.03-1.83c.04.05.09.1.13.15l-2.15,1.67ZM11.99,11.8l-1.9-1.96s.1-.09.15-.13l1.75,2.09h0ZM12.01,11.8h0l1.74-2.1c.05.04.1.09.15.13l-1.89,1.97ZM11.99,11.8l-1.59-2.21c.05-.04.11-.07.17-.11l1.43,2.32h0ZM12.01,11.8h0l1.42-2.33c.06.03.11.07.17.11l-1.59,2.22ZM11.99,11.8l-1.25-2.42c.06-.03.12-.06.18-.09l1.07,2.51h0ZM12.01,11.8h0s1.06-2.51,1.06-2.51c.06.03.12.06.18.09l-1.24,2.43ZM12.01,11.79h0l.68-2.64c.06.02.13.03.19.06l-.87,2.58ZM11.99,11.79l-.88-2.58c.06-.02.13-.04.19-.06l.69,2.64h0ZM12,11.79l-.5-2.68c.06-.01.13-.02.2-.03l.3,2.71h0ZM12.01,11.79h0l.29-2.71c.07,0,.13.02.2.03l-.49,2.68ZM12,11.79l-.1-2.73s.07,0,.1,0c.03,0,.06,0,.09,0l-.09,2.73h0Z"/>
            </g>
          </g>
          <g class="cls-26">
            <g>
              <path class="cls-1" d="M13.35,12.32h-.03c0-.35-.14-.68-.39-.93-.25-.25-.58-.39-.93-.39s-.68.14-.93.39c-.25.25-.39.58-.39.93h-.03c0-.36.14-.7.39-.95.25-.25.59-.4.95-.4s.7.14.95.4.39.59.39.95Z"/>
              <path class="cls-24" d="M13.32,12.32h-.03c0-.35-.14-.67-.38-.92s-.57-.38-.92-.38-.67.14-.91.38c-.24.24-.38.57-.38.92h-.03c0-.35.14-.68.39-.93.25-.25.58-.39.93-.39s.68.14.93.39c.25.25.39.58.39.93Z"/>
              <path class="cls-4" d="M13.29,12.32h-.03c0-.34-.13-.66-.37-.9s-.56-.37-.9-.37-.66.13-.9.37c-.24.24-.37.56-.37.9h-.03c0-.35.14-.67.38-.92.24-.24.57-.38.91-.38s.67.14.92.38.38.57.38.92Z"/>
              <path class="cls-21" d="M13.27,12.32h-.03c0-.33-.13-.64-.36-.88s-.55-.36-.88-.36-.64.13-.88.36-.36.55-.36.88h-.03c0-.34.13-.66.37-.9.24-.24.56-.37.9-.37s.66.13.9.37.37.56.37.9Z"/>
              <path class="cls-12" d="M13.24,12.32h-.03c0-.33-.13-.63-.36-.86-.23-.23-.54-.36-.86-.36s-.63.13-.86.36c-.23.23-.36.54-.36.86h-.03c0-.33.13-.64.36-.88s.55-.36.88-.36.64.13.88.36.36.55.36.88Z"/>
              <path class="cls-3" d="M13.22,12.32h-.03c0-.32-.12-.62-.35-.84-.23-.22-.52-.35-.84-.35s-.62.12-.84.35c-.22.23-.35.52-.35.84h-.03c0-.33.13-.63.36-.86.23-.23.54-.36.86-.36s.63.13.86.36c.23.23.36.54.36.86Z"/>
              <path class="cls-7" d="M13.19,12.32h-.03c0-.64-.52-1.16-1.16-1.16s-1.16.52-1.16,1.16h-.03c0-.32.12-.62.35-.84.22-.22.52-.35.84-.35s.62.12.84.35c.22.23.35.52.35.84Z"/>
            </g>
          </g>
          <g>
            <path class="cls-20" d="M13.86,13.07h0s-.1.01-.1.01c.03,0,.05-.01.09-.01Z"/>
            <path class="cls-10" d="M12,12.6c.16,0,.16.03.32.03s.16-.03.32-.03.16.03.32.03.16-.03.32-.03.16.03.32.03h.02l.02.03s-.05,0-.09,0c-.16,0-.16-.03-.32-.03s-.16.03-.32.03-.16-.03-.32-.03-.16.03-.32.03-.16-.03-.32-.03-.16.03-.32.03-.16-.03-.32-.03-.16.03-.32.03-.16-.03-.32-.03c-.15,0-.16.03-.3.03l.02-.04h.02c.16,0,.16-.03.32-.03s.16.03.32.03.16-.03.32-.03.16.03.32.03.16-.03.32-.03Z"/>
            <path class="cls-22" d="M12,12.67c.16,0,.16.03.32.03s.16-.03.32-.03.16.03.32.03.16-.03.32-.03.16.03.32.03c.02,0,.04,0,.06,0l.02.03s-.07.01-.13.01c-.16,0-.16-.03-.32-.03s-.16.03-.32.03-.16-.03-.32-.03-.16.03-.32.03-.16-.03-.32-.03-.16.03-.32.03-.16-.03-.32-.03-.16.03-.32.03-.16-.03-.32-.03-.16.03-.32.03c0,0-.02,0-.02,0l.02-.04s.04,0,.06,0c.16,0,.16-.03.32-.03s.16.03.32.03.16-.03.32-.03.16.03.32.03.16-.03.32-.03Z"/>
            <path class="cls-22" d="M10.41,12.77c.16,0,.16-.03.32-.03s.16.03.32.03.16-.03.32-.03.16.03.32.03.16-.03.32-.03.16.03.32.03.16-.03.32-.03.16.03.32.03.16-.03.32-.03.16.03.32.03c.04,0,.07,0,.1,0v.02s-.07.02-.16.02c-.16,0-.16-.03-.32-.03s-.16.03-.32.03-.16-.03-.32-.03-.16.03-.32.03-.16-.03-.32-.03-.16.03-.32.03-.16-.03-.32-.03-.16.03-.32.03-.16-.03-.32-.03-.16.03-.32.03c-.02,0-.05,0-.06,0l.02-.04s.06,0,.1,0Z"/>
            <path class="cls-22" d="M10.41,12.84c.16,0,.16-.03.32-.03s.16.03.32.03.16-.03.32-.03.16.03.32.03.16-.03.32-.03.16.03.32.03.16-.03.32-.03.16.03.32.03.16-.03.32-.03.16.03.32.03c.06,0,.1,0,.14-.01v.02c-.05.01-.08.02-.19.02-.16,0-.16-.03-.32-.03s-.16.03-.32.03-.16-.03-.32-.03-.16.03-.32.03-.16-.03-.32-.03-.16.03-.32.03-.16-.03-.32-.03-.16.03-.32.03-.16-.03-.32-.03-.16.03-.32.03c-.04,0-.08,0-.1,0l.02-.04s.07.01.14.01Z"/>
            <path class="cls-22" d="M10.41,12.92c.16,0,.16-.03.32-.03s.16.03.32.03.16-.03.32-.03.16.03.32.03.16-.03.32-.03.16.03.32.03.16-.03.32-.03.16.03.32.03.16-.03.32-.03.16.03.32.03c.09,0,.13-.01.17-.02l.02.03c-.09,0-.12.03-.25.03-.16,0-.16-.03-.32-.03s-.16.03-.32.03-.16-.03-.32-.03-.16.03-.32.03-.16-.03-.32-.03-.16.03-.32.03-.16-.03-.32-.03-.16.03-.32.03-.16-.03-.32-.03-.16.03-.32.03c-.07,0-.11,0-.14-.01l.02-.04s.08.02.17.02Z"/>
            <path class="cls-22" d="M12,12.96c.16,0,.16.03.32.03s.16-.03.32-.03.16.03.32.03.16-.03.32-.03.16.03.32.03c.11,0,.15-.02.21-.02l.02.03c-.13,0-.14.03-.29.03-.16,0-.16-.03-.32-.03s-.16.03-.32.03-.16-.03-.32-.03-.16.03-.32.03-.16-.03-.32-.03-.16.03-.32.03-.16-.03-.32-.03-.16.03-.32.03-.16-.03-.32-.03-.16.03-.32.03c-.09,0-.13-.01-.18-.02l.02-.04c.07,0,.1.02.21.02.16,0,.16-.03.32-.03s.16.03.32.03.16-.03.32-.03.16.03.32.03.16-.03.32-.03Z"/>
            <path class="cls-22" d="M10.41,13.06c.16,0,.16-.03.32-.03s.16.03.32.03.16-.03.32-.03.16.03.32.03.16-.03.32-.03.16.03.32.03.16-.03.32-.03.16.03.32.03.16-.03.32-.03.16.03.32.03c.13,0,.15-.02.25-.03l.02.04s-.06.01-.09.01h-.25c-.05,0-.09-.02-.19-.02s-.14.01-.19.02h-.25c-.05,0-.09-.02-.19-.02s-.14.01-.19.02h-.25c-.05,0-.09-.02-.19-.02s-.14.01-.19.02h-.25c-.05,0-.09-.02-.19-.02s-.14.01-.19.02h-.25c-.05,0-.09-.02-.19-.02s-.14.01-.19.02h-.25c-.05,0-.1-.02-.2-.02l.02-.03c.1,0,.12.03.25.03Z"/>
            <path class="cls-14" d="M10.67,12.49c.16,0,.16.03.32.03s.16-.03.32-.03.16.03.32.03.16-.03.32-.03.16.03.32.03.16-.03.32-.03.16.03.32.03.16-.03.32-.03.16.03.32.03h.01l.02.04c-.14,0-.14-.03-.29-.03-.16,0-.16.03-.32.03s-.16-.03-.32-.03-.16.03-.32.03-.16-.03-.32-.03-.16.03-.32.03-.16-.03-.32-.03-.16.03-.32.03-.16-.03-.32-.03c-.15,0-.16.03-.29.03l.02-.04c.07-.01.1-.02.21-.02Z"/>
            <path class="cls-20" d="M11.94,12.63c.16,0,.16.03.32.03s.16-.03.32-.03.16.03.32.03.16-.03.32-.03.16.03.32.03c.04,0,.07,0,.09,0l.02.04s-.04,0-.06,0c-.16,0-.16-.03-.32-.03s-.16.03-.32.03-.16-.03-.32-.03-.16.03-.32.03-.16-.03-.32-.03-.16.03-.32.03-.16-.03-.32-.03-.16.03-.32.03-.16-.03-.32-.03-.16.03-.32.03c-.02,0-.04,0-.06,0l.02-.03c.14,0,.15-.03.3-.03.16,0,.16.03.32.03s.16-.03.32-.03.16.03.32.03.16-.03.32-.03Z"/>
            <path class="cls-20" d="M11.94,12.71c.16,0,.16.03.32.03s.16-.03.32-.03.16.03.32.03.16-.03.32-.03.16.03.32.03c.06,0,.1,0,.13-.01l.02.04s-.06,0-.1,0c-.16,0-.16-.03-.32-.03s-.16.03-.32.03-.16-.03-.32-.03-.16.03-.32.03-.16-.03-.32-.03-.16.03-.32.03-.16-.03-.32-.03-.16.03-.32.03-.16-.03-.32-.03-.16.03-.32.03c-.04,0-.07,0-.1,0l.02-.03s.02,0,.02,0c.16,0,.16-.03.32-.03s.16.03.32.03.16-.03.32-.03.16.03.32.03.16-.03.32-.03Z"/>
            <path class="cls-20" d="M11.94,12.78c.16,0,.16.03.32.03s.16-.03.32-.03.16.03.32.03.16-.03.32-.03.16.03.32.03c.09,0,.13,0,.17-.02l.02.04s-.07.01-.14.01c-.16,0-.16-.03-.32-.03s-.16.03-.32.03-.16-.03-.32-.03-.16.03-.32.03-.16-.03-.32-.03-.16.03-.32.03-.16-.03-.32-.03-.16.03-.32.03-.16-.03-.32-.03-.16.03-.32.03c-.06,0-.1,0-.14-.01l.02-.03s.04,0,.06,0c.16,0,.16-.03.32-.03s.16.03.32.03.16-.03.32-.03.16.03.32.03.16-.03.32-.03Z"/>
            <path class="cls-20" d="M11.94,12.85c.16,0,.16.03.32.03s.16-.03.32-.03.16.03.32.03.16-.03.32-.03.16.03.32.03c.11,0,.14-.01.21-.02l.02.04s-.08.02-.17.02c-.16,0-.16-.03-.32-.03s-.16.03-.32.03-.16-.03-.32-.03-.16.03-.32.03-.16-.03-.32-.03-.16.03-.32.03-.16-.03-.32-.03-.16.03-.32.03-.16-.03-.32-.03-.16.03-.32.03c-.09,0-.13-.01-.17-.02v-.02s.07,0,.12,0c.16,0,.16-.03.32-.03s.16.03.32.03.16-.03.32-.03.16.03.32.03.16-.03.32-.03Z"/>
            <path class="cls-20" d="M10.21,12.94s.07.01.14.01c.16,0,.16-.03.32-.03s.16.03.32.03.16-.03.32-.03.16.03.32.03.16-.03.32-.03.16.03.32.03.16-.03.32-.03.16.03.32.03.16-.03.32-.03.16.03.32.03c.13,0,.15-.02.25-.03l.02.04c-.07,0-.1.02-.21.02-.16,0-.16-.03-.32-.03s-.16.03-.32.03-.16-.03-.32-.03-.16.03-.32.03-.16-.03-.32-.03-.16.03-.32.03-.16-.03-.32-.03-.16.03-.32.03-.16-.03-.32-.03-.16.03-.32.03c-.11,0-.15-.02-.21-.02v-.02Z"/>
            <path class="cls-20" d="M11.94,13c.16,0,.16.03.32.03s.16-.03.32-.03.16.03.32.03.16-.03.32-.03.16.03.32.03c.15,0,.16-.02.29-.03l.02.04c-.1,0-.12.03-.25.03-.16,0-.16-.03-.32-.03s-.16.03-.32.03-.16-.03-.32-.03-.16.03-.32.03-.16-.03-.32-.03-.16.03-.32.03-.16-.03-.32-.03-.16.03-.32.03-.16-.03-.32-.03-.16.03-.32.03c-.13,0-.16-.02-.25-.03l.02-.03s.09.02.18.02c.16,0,.16-.03.32-.03s.16.03.32.03.16-.03.32-.03.16.03.32.03.16-.03.32-.03Z"/>
            <path class="cls-14" d="M13.45,12.36l.02.04c-.06-.01-.1-.02-.21-.02-.16,0-.16.03-.32.03s-.16-.03-.32-.03-.16.03-.32.03-.16-.03-.32-.03-.16.03-.32.03-.16-.03-.32-.03-.16.03-.32.03-.16-.03-.32-.03c-.11,0-.14.01-.21.02l.02-.04h2.91Z"/>
            <polygon class="cls-10" points="13.43 12.33 13.45 12.36 10.54 12.36 10.57 12.33 13.43 12.33"/>
            <path class="cls-20" d="M13.33,13.07c.1,0,.14.01.19.02h-.38c.05,0,.09-.02.19-.02Z"/>
            <polygon class="cls-14" points="13.41 12.29 13.43 12.33 10.57 12.33 10.59 12.29 13.41 12.29"/>
            <path class="cls-10" d="M12,12.53c.16,0,.16.03.32.03s.16-.03.32-.03.16.03.32.03.16-.03.32-.03c.15,0,.16.03.29.03l.02.04h-.05c-.16,0-.16-.03-.32-.03s-.16.03-.32.03-.16-.03-.32-.03-.16.03-.32.03-.16-.03-.32-.03-.16.03-.32.03-.16-.03-.32-.03-.16.03-.32.03-.16-.03-.32-.03c-.14,0-.16.02-.26.03l.02-.03c.14,0,.14-.03.29-.03.16,0,.16.03.32.03s.16-.03.32-.03.16.03.32.03.16-.03.32-.03Z"/>
            <path class="cls-10" d="M12,12.45c.16,0,.16.03.32.03s.16-.03.32-.03.16.03.32.03.16-.03.32-.03c.13,0,.15.02.25.03l.02.04h-.01c-.16,0-.16-.03-.32-.03s-.16.03-.32.03-.16-.03-.32-.03-.16.03-.32.03-.16-.03-.32-.03-.16.03-.32.03-.16-.03-.32-.03-.16.03-.32.03-.16-.03-.32-.03c-.11,0-.15.01-.21.02l.02-.03c.1,0,.12-.03.25-.03.16,0,.16.03.32.03s.16-.03.32-.03.16.03.32.03.16-.03.32-.03Z"/>
            <polygon class="cls-10" points="13.4 12.27 13.41 12.29 10.59 12.29 10.6 12.27 13.4 12.27"/>
            <polygon class="cls-14" points="13.39 12.25 13.4 12.27 10.6 12.27 10.61 12.25 13.39 12.25"/>
            <polygon class="cls-10" points="13.38 12.24 13.39 12.25 10.61 12.25 10.62 12.24 13.38 12.24"/>
            <polygon class="cls-14" points="13.38 12.24 10.62 12.24 10.62 12.23 13.38 12.23 13.38 12.24"/>
            <path class="cls-14" d="M10.67,12.56c.16,0,.16.03.32.03s.16-.03.32-.03.16.03.32.03.16-.03.32-.03.16.03.32.03.16-.03.32-.03.16.03.32.03.16-.03.32-.03.16.03.32.03h.05l.02.04h-.02c-.16,0-.16-.03-.32-.03s-.16.03-.32.03-.16-.03-.32-.03-.16.03-.32.03-.16-.03-.32-.03-.16.03-.32.03-.16-.03-.32-.03-.16.03-.32.03-.16-.03-.32-.03-.16.03-.32.03h-.02l.02-.04c.1,0,.12-.03.26-.03Z"/>
            <path class="cls-14" d="M10.67,12.42c.16,0,.16.03.32.03s.16-.03.32-.03.16.03.32.03.16-.03.32-.03.16.03.32.03.16-.03.32-.03.16.03.32.03.16-.03.32-.03c.15,0,.16.03.29.03l.02.03c-.1,0-.12-.03-.25-.03-.16,0-.16.03-.32.03s-.16-.03-.32-.03-.16.03-.32.03-.16-.03-.32-.03-.16.03-.32.03-.16-.03-.32-.03-.16.03-.32.03-.16-.03-.32-.03c-.13,0-.15.02-.25.03l.03-.05s.08-.02.17-.02Z"/>
            <path class="cls-10" d="M12,12.38c.16,0,.16.03.32.03s.16-.03.32-.03.16.03.32.03.16-.03.32-.03c.11,0,.14.01.21.02l.02.04c-.13,0-.14-.03-.29-.03-.16,0-.16.03-.32.03s-.16-.03-.32-.03-.16.03-.32.03-.16-.03-.32-.03-.16.03-.32.03-.16-.03-.32-.03-.16.03-.32.03-.16-.03-.32-.03c-.08,0-.12,0-.17.02l.02-.03c.06-.01.1-.02.21-.02.16,0,.16.03.32.03s.16-.03.32-.03.16.03.32.03.16-.03.32-.03Z"/>
            <path class="cls-20" d="M12.69,13.07c.1,0,.14.01.19.02h-.38c.05,0,.09-.02.19-.02Z"/>
            <path class="cls-20" d="M12.06,13.07c.1,0,.14.01.19.02h-.38c.05,0,.09-.02.19-.02Z"/>
            <path class="cls-20" d="M11.42,13.07c.1,0,.14.01.19.02h-.38c.05,0,.09-.02.19-.02Z"/>
            <path class="cls-20" d="M10.78,13.07c.1,0,.14.01.19.02h-.38c.05,0,.09-.02.19-.02Z"/>
            <path class="cls-20" d="M10.34,13.09h-.21v-.02c.11,0,.16.01.21.02Z"/>
          </g>
          <g>
            <path class="cls-9" d="M12.1,11.48s0,.03,0,.03c0,.01-.02.02-.02.02,0,0,0,0,0-.01,0-.01-.01-.02-.02-.03-.02-.02-.02-.04-.02-.06,0-.01,0-.02,0-.03.03.01.05.05.07.09Z"/>
            <path class="cls-9" d="M12.15,11.7h0s-.05,0-.07.01c-.01,0-.02.02-.03.03,0,.01,0,.02,0,.03h0s0,.01,0,.01c0,.01-.01.03-.02.03,0,0,0,0,0,0,0,0,0,0,0,0,0,0,0-.01,0-.02,0,0,.01-.01.01-.02,0-.01,0-.03.01-.05,0,0,0-.02.01-.02.01-.01.03-.02.04-.02.01,0,.02,0,.03,0,0,0,.01,0,.02,0,0,0,0,0,0,.01Z"/>
            <path class="cls-11" d="M12.12,11.72s-.03,0-.03,0c0,0-.02,0-.03.01,0,0-.01.02-.01.02h0s0,.01,0,.02h0s0-.02,0-.03c0-.01.01-.03.03-.03.02-.01.05,0,.07-.01,0,0,0,.01-.01.02,0,0-.01,0-.01,0Z"/>
            <path class="cls-6" d="M12.14,11.72s-.03,0-.04,0c-.01,0-.03.01-.04.03,0,0,0-.02.01-.02,0,0,.02-.01.03-.01,0,0,.01,0,.03,0,0,0,.01,0,.01,0Z"/>
            <path class="cls-6" d="M11.98,11.76s0,.02,0,.04c0,0,0,0,0,.01s0,.01,0,.01c0,0-.01-.01-.01-.02h0s0-.04,0-.05c0-.02-.02-.04-.03-.05-.02-.01-.04-.02-.05-.03-.01,0-.03-.02-.04-.03.01,0,.03,0,.04,0,.02,0,.03.01.05.02,0,0,.01.01.02.02.01.02.02.04.02.05,0,.01,0,.02,0,.02Z"/>
            <path class="cls-19" d="M11.97,11.57s0,.04,0,.06c0,.01,0,.03-.01.04-.02-.01-.03-.02-.05-.02-.01,0-.03,0-.04,0,0,0,0-.01,0-.01,0-.01,0-.03.01-.04.02-.04.04-.07.05-.07h0s-.03.02-.05.01c0-.02.02-.04.04-.05.03,0,.06-.02.06-.03,0,.01,0,.02,0,.03,0,.01,0,.03,0,.04,0,.01,0,.03,0,.04Z"/>
            <path class="cls-11" d="M12.05,11.78s-.01.04-.02.05c-.01,0-.02,0-.04,0h0s0-.01,0-.01,0,0,0-.01c0-.02,0-.03,0-.04,0,0,0-.01,0-.02,0,0,0-.03-.02-.05,0,0-.01-.01-.02-.02,0-.01.01-.03.01-.04,0-.02,0-.04,0-.06,0-.01,0-.03,0-.04,0-.01,0-.03,0-.04,0-.01,0-.02,0-.03,0,.01-.03.02-.06.03-.02,0-.04.03-.04.05,0,0,0,0-.01-.01-.01-.04.07-.13.15-.13,0,0,.02,0,.02,0,0,0,0,.02,0,.03,0,.02,0,.04.02.06.01.01.02.02.02.03,0,0,0,.01,0,.01,0,0,.01,0,.02-.02,0,0,0-.01,0-.03.03.05.04.11.05.14,0,.01,0,.02,0,.04,0,0,0,.02,0,.02t0,0s-.01,0-.02,0c-.01,0-.02,0-.03,0-.02,0-.03,0-.04.02,0,0,0,.02-.01.02,0,.02,0,.03-.01.05,0,0,0,.01-.01.02,0,0,0,.01,0,.02,0,0,0,0,0,0,0,0,0,0,0,0,.01,0,.02-.02.02-.03,0,0,0-.01,0-.01h0s0,0,0,0Z"/>
          </g>
          <g class="cls-25">
            <g>
              <path class="cls-17" d="M11.04,12c-.03.24-.09.36-.19.53-.1.16-.21.14-.33.16.39-.18.52-.68.52-.68Z"/>
              <path class="cls-16" d="M12.93,11.93c.03.25,0,.46-.06.54-.02-.02-.05-.04-.07-.05.05-.1.09-.29.09-.43-.03.17-.12.31-.17.36,0,0,0,0-.01-.01.01-.02.02-.05.02-.05,0,.01-.02.03-.03.04-.01-.02-.02-.03-.02-.03.05-.06.1-.13.13-.2.01-.03.03-.06.04-.1,0-.02.01-.05.04-.06.01,0,.03,0,.04,0Z"/>
              <path class="cls-18" d="M12.89,11.98c0,.14-.04.34-.09.43-.03-.02-.05-.05-.07-.07.04-.05.14-.19.17-.36Z"/>
              <path class="cls-15" d="M11.22,12.23c.1.15.27.34.39.37.05,0,.09-.01.09-.01-.09-.03-.18-.08-.25-.15-.02-.02-.04-.03-.06-.05.03-.07.11-.31.1-.42,0,0-.05.21-.15.36-.01-.02-.02-.03-.04-.05.03-.05.06-.1.09-.15.02-.04.04-.07.05-.11.02-.04.03-.09.08-.1,0,.09,0,.19,0,.28,0,.06,0,.14.03.2.03.07.08.12.14.16.08.05.17.07.25.09.05,0,.1.01.15.01-.08-.05-.37-.26-.42-.44.1.13.25.37.48.37-.05-.02-.1-.04-.15-.07-.04-.02-.07-.05-.11-.07-.02-.01-.03-.03-.05-.04.07-.09.09-.23.11-.35h0s0-.09,0-.12c.01,0,.02,0,.04,0,0,0,.01,0,.01,0,0,.13.02.7.59.66-.07-.03-.15-.07-.21-.12.08-.13.07-.41.06-.55t0,0c.05.01.06.07.08.12.02.04.03.08.05.12.02.04.05.08.07.12,0,0,0,.01.02.03,0,0,0,0,.01.01s0,0,.01.01c.02.02.04.05.07.07.02.02.04.04.07.05.06-.08.09-.29.06-.54.02,0,.04.01.05.03,0,.02.01.03.02.05.03.07.06.14.09.2.18.36.57.39.57.39l.08.17c-.17-.03-.31-.02-.4-.01-.14.02-.16.04-.27.04-.16,0-.19-.05-.35-.04-.11,0-.11.03-.24.04-.05,0-.06,0-.24,0-.17,0-.26,0-.3,0-.12.01-.12.04-.23.04-.04,0-.05,0-.21,0-.13,0-.19-.01-.22,0-.13,0-.13.03-.25.04-.02,0-.03,0-.25-.01-.14,0-.17-.01-.22-.01-.08,0-.13,0-.2.02-.08.02-.14.05-.18.07l.05-.25s.25,0,.41-.13c.08-.07.15-.14.21-.23.04-.05.07-.11.1-.17.02-.04.04-.07.05-.11.02-.04.03-.09.08-.1,0,.07-.02.25,0,.34.03.12.03.37.57.4-.12-.09-.33-.24-.42-.44ZM10.85,12.53c.1-.16.16-.28.19-.53,0,0-.13.5-.52.68.12-.01.23,0,.33-.16Z"/>
              <path class="cls-17" d="M12.7,12.32s.02-.02.03-.04c0,0,0,.03-.02.05,0,0,0,0-.01-.01Z"/>
              <path class="cls-16" d="M12.47,11.93c.01.13.02.42-.06.55-.01-.01-.03-.02-.04-.03-.02-.02-.04-.03-.05-.05.03-.05.1-.18.13-.42-.04.14-.11.29-.17.38,0-.01-.01-.02-.02-.03h0l.02-.05-.03.04s-.01-.02-.02-.03c.03-.05.06-.1.09-.15.02-.04.04-.07.05-.11.02-.05.04-.11.1-.1Z"/>
              <path class="cls-18" d="M12.28,12.36c.06-.09.12-.24.17-.38-.03.24-.09.37-.13.42-.01-.01-.03-.03-.04-.04Z"/>
              <path class="cls-16" d="M12.05,11.98s.05.55.36.56c-.07-.03-.32-.29-.36-.56ZM12.26,12.33h0s.01.02.02.03c.01.01.03.03.04.04.02.02.03.03.05.05.01.01.03.02.04.03.06.05.14.09.21.12-.57.04-.59-.53-.59-.66.04.02.05.07.06.11.02.04.03.08.05.12.02.04.05.08.07.12,0,.01.01.02.02.03,0,0,0,0,.01.01Z"/>
              <path class="cls-17" d="M12.28,12.28l-.02.05s0,0-.01-.01l.03-.04Z"/>
              <path class="cls-18" d="M12.05,11.98c.04.27.29.53.36.56-.31-.01-.36-.56-.36-.56Z"/>
              <path class="cls-16" d="M11.55,11.98s.05.52.36.6c-.03-.03-.26-.21-.36-.6ZM12.1,12.67c-.05,0-.1,0-.15-.01-.09-.01-.18-.04-.25-.09-.06-.04-.12-.09-.14-.16-.03-.06-.03-.13-.03-.2,0-.09,0-.19,0-.28,0,0,.02,0,.03,0,.06.01.06.07.08.12.02.04.03.08.06.12.02.04.05.08.07.12,0,0,.01.01.02.02l.02.02h.01s.03.05.05.06c.01.02.03.03.05.04.03.03.07.05.11.07.05.03.09.05.15.07-.23,0-.38-.24-.48-.37.05.19.34.4.42.44Z"/>
              <path class="cls-16" d="M11.98,11.94s0,.07,0,.12h0c-.04.12-.13.25-.16.29h-.01s.01-.05.02-.08c0,.02-.03.04-.04.04,0,0-.01-.01-.02-.02.03-.05.06-.1.09-.15.02-.04.04-.07.05-.11.02-.04.03-.08.06-.09Z"/>
              <path class="cls-18" d="M11.97,12.06c-.01.11-.04.26-.11.35-.02-.02-.03-.03-.05-.05.03-.04.11-.17.16-.29Z"/>
              <path class="cls-17" d="M11.78,12.32s.03-.02.04-.04c-.01.03-.02.05-.02.07l-.02-.02Z"/>
              <path class="cls-18" d="M11.55,11.98c.1.4.33.57.36.6-.31-.08-.36-.6-.36-.6Z"/>
              <path class="cls-16" d="M11.71,12.6s-.04,0-.09.01c-.11-.03-.29-.22-.39-.37.1.2.3.35.42.44-.54-.03-.54-.28-.57-.4-.02-.09-.01-.27,0-.34,0,0,.02,0,.03,0,.05.01.06.07.08.12.02.04.03.08.05.12.02.04.05.08.07.12.01.02.03.03.04.05.02.02.03.04.05.05s.04.04.06.05c.07.06.16.11.25.15ZM11.22,12.41c.08.12.16.17.25.17-.04-.04-.23-.15-.37-.6,0,0,.04.32.12.43Z"/>
              <path class="cls-17" d="M11.5,11.98c0,.11-.08.35-.1.42-.02-.02-.03-.04-.05-.05.1-.16.15-.36.15-.36Z"/>
              <path class="cls-18" d="M11.47,12.58c-.09,0-.17-.05-.25-.17-.08-.12-.12-.43-.12-.43.14.45.33.57.37.6Z"/>
            </g>
          </g>
        </g>
      </g>
    </g>
  </g>
</svg>