<?xml version="1.0" encoding="UTF-8"?>
<svg id="Layer_1" data-name="Layer 1" xmlns="http://www.w3.org/2000/svg" viewBox="0 0 24 24">
  <defs>
    <style>
      .cls-1 {
        fill: #000;
      }

      .cls-1, .cls-2, .cls-3, .cls-4, .cls-5 {
        stroke-width: 0px;
      }

      .cls-2 {
        fill: #df510b;
      }

      .cls-3 {
        fill: #04af2f;
      }

      .cls-4 {
        fill: none;
      }

      .cls-5 {
        fill: #fff;
      }
    </style>
  </defs>
  <rect class="cls-4" width="24" height="24"/>
  <g>
    <path class="cls-1" d="M16.71,7.34c2.92,2.92,3.18,7.42.57,10.03-2.61,2.61-7.11,2.35-10.03-.57-2.92-2.92-3.18-7.42-.57-10.03,2.61-2.61,7.11-2.36,10.03.57Z"/>
    <g>
      <g>
        <path class="cls-2" d="M20.48,9H3.51c1.24-3.49,4.57-6,8.48-6s7.25,2.51,8.48,6Z"/>
        <path class="cls-3" d="M20.48,15c-1.24,3.49-4.57,6-8.48,6s-7.25-2.51-8.48-6h16.97Z"/>
        <path class="cls-5" d="M21,12c0,1.05-.18,2.06-.52,3H3.51c-.34-.94-.51-1.95-.51-3s.18-2.06.51-3h16.97c.33.94.52,1.95.52,3Z"/>
      </g>
      <path class="cls-2" d="M14.42,12c0,1.34-1.08,2.43-2.42,2.43s-2.43-1.09-2.43-2.43,1.08-2.42,2.43-2.42,2.42,1.08,2.42,2.42Z"/>
    </g>
  </g>
</svg>