<?xml version="1.0" encoding="UTF-8"?>
<svg id="Layer_1" data-name="Layer 1" xmlns="http://www.w3.org/2000/svg" viewBox="0 0 24 24">
  <defs>
    <style>
      .cls-1 {
        fill: #000;
      }

      .cls-1, .cls-2, .cls-3, .cls-4, .cls-5, .cls-6 {
        stroke-width: 0px;
      }

      .cls-2 {
        fill: #fbd023;
      }

      .cls-3 {
        fill: none;
      }

      .cls-4 {
        fill: #032774;
      }

      .cls-5 {
        fill: #fff;
      }

      .cls-6 {
        fill: #df0333;
      }
    </style>
  </defs>
  <rect class="cls-3" width="24" height="24"/>
  <g>
    <path class="cls-1" d="M16.71,7.34c2.92,2.92,3.18,7.42.57,10.03-2.61,2.61-7.11,2.35-10.03-.57-2.92-2.92-3.18-7.42-.57-10.03,2.61-2.61,7.11-2.36,10.03.57Z"/>
    <g>
      <path class="cls-2" d="M21,12c0,2.06-.69,3.96-1.86,5.47-1.65,2.14-4.23,3.52-7.14,3.52s-5.49-1.38-7.14-3.52c-1.17-1.52-1.86-3.42-1.86-5.47,0-.1,0-.2,0-.3,0-.21.02-.42.04-.63.03-.3.08-.6.14-.9.03-.12.05-.24.08-.36.09-.37.21-.74.35-1.09.05-.12.1-.24.15-.36.06-.15.13-.29.21-.43.03-.05.06-.11.08-.16.06-.11.12-.21.18-.32.09-.16.19-.32.29-.46.1-.16.21-.31.32-.45,1.65-2.14,4.23-3.52,7.14-3.52s5.49,1.38,7.14,3.52c1.17,1.52,1.86,3.42,1.86,5.47Z"/>
      <g>
        <g>
          <path class="cls-4" d="M4.84,10.17l-1.79.9c.03-.3.08-.6.14-.9h1.66Z"/>
          <path class="cls-4" d="M6.98,6.53v1.67l-2.44-1.22c.1-.16.21-.31.32-.45h2.11Z"/>
          <path class="cls-4" d="M4.84,8.35h-1.07c.06-.15.13-.29.21-.43l.86.43Z"/>
          <polygon class="cls-4" points="13.36 8.35 13.36 7.13 10.93 8.35 13.36 8.35"/>
          <polygon class="cls-4" points="12.13 6.53 8.8 6.53 8.8 8.19 12.13 6.53"/>
          <polygon class="cls-4" points="13.36 11.39 13.36 10.17 10.93 10.17 13.36 11.39"/>
          <polygon class="cls-4" points="3.64 12 6.98 12 6.98 10.33 3.64 12"/>
          <polygon class="cls-4" points="8.8 12 12.13 12 8.8 10.33 8.8 12"/>
          <path class="cls-5" d="M13.36,7.13l-2.43,1.22h2.43v1.82h-2.43l2.43,1.22v.2l-2.84-1.42h-.82l3.65,1.83h-1.22l-3.33-1.67v1.67h-1.82v-1.67l-3.33,1.67h-.41l3.65-1.83h-.82l-3.05,1.53c0-.21.02-.42.04-.63l1.79-.9h-1.66c.03-.12.05-.24.08-.36.09-.37.21-.74.35-1.09.05-.12.1-.24.15-.36h1.07l-.86-.43c.03-.05.06-.11.08-.16l1.18.59h.82l-1.82-.91c.09-.16.19-.32.29-.46l2.44,1.22v-1.67h1.82v1.67l3.33-1.67h.4l-3.65,1.83h.82l3.65-1.83h0v.61Z"/>
          <path class="cls-6" d="M6.07,8.35h-.82l-1.18-.59c.06-.11.12-.21.18-.32l1.82.91Z"/>
          <polygon class="cls-6" points="9.7 10.17 13.35 12 13.36 12 13.36 11.6 10.52 10.17 9.7 10.17"/>
          <polygon class="cls-6" points="8.89 8.35 9.71 8.35 13.35 6.53 12.54 6.53 8.89 8.35"/>
          <path class="cls-6" d="M6.88,10.17l-3.65,1.83h-.23c0-.1,0-.2,0-.3l3.05-1.53h.82Z"/>
          <path class="cls-6" d="M13.36,8.72v1.09h-4.93v2.19h-1.09v-2.19H3.27c.09-.37.21-.74.35-1.09h3.72v-2.19h1.09v2.19h4.93Z"/>
        </g>
        <g>
          <g>
            <path class="cls-4" d="M8.82,9.26c0,.51-.42.93-.93.93s-.93-.42-.93-.93.42-.93.93-.93.93.42.93.93Z"/>
            <polygon class="cls-2" points="7.89 8.33 8.09 8.98 8.77 8.98 8.22 9.37 8.43 10.02 7.89 9.62 7.34 10.02 7.55 9.37 7 8.98 7.68 8.98 7.89 8.33"/>
          </g>
          <g>
            <polygon class="cls-2" points="7.89 6.95 8.01 7.32 8.4 7.32 8.08 7.55 8.2 7.92 7.89 7.69 7.57 7.92 7.69 7.55 7.38 7.32 7.77 7.32 7.89 6.95"/>
            <polygon class="cls-2" points="7.89 10.6 8.01 10.98 8.4 10.98 8.08 11.2 8.2 11.58 7.89 11.35 7.57 11.58 7.69 11.2 7.38 10.98 7.77 10.98 7.89 10.6"/>
          </g>
          <g>
            <polygon class="cls-2" points="4.69 8.78 4.81 9.15 5.2 9.15 4.89 9.38 5.01 9.75 4.69 9.52 4.38 9.75 4.49 9.38 4.18 9.15 4.57 9.15 4.69 8.78"/>
            <polygon class="cls-2" points="11.08 8.78 11.2 9.15 11.59 9.15 11.28 9.38 11.4 9.75 11.08 9.52 10.76 9.75 10.89 9.38 10.57 9.15 10.96 9.15 11.08 8.78"/>
          </g>
        </g>
      </g>
    </g>
  </g>
</svg>