<?xml version="1.0" encoding="UTF-8"?>
<svg id="Layer_1" data-name="Layer 1" xmlns="http://www.w3.org/2000/svg" viewBox="0 0 24 24">
  <defs>
    <style>
      .cls-1 {
        fill: #000;
      }

      .cls-1, .cls-2, .cls-3, .cls-4 {
        stroke-width: 0px;
      }

      .cls-2 {
        fill: none;
      }

      .cls-3 {
        fill: #007835;
      }

      .cls-4 {
        fill: #fff;
      }
    </style>
  </defs>
  <rect class="cls-2" width="24" height="24"/>
  <g>
    <path class="cls-1" d="M16.71,7.34c2.92,2.92,3.18,7.42.57,10.03-2.61,2.61-7.11,2.36-10.03-.57-2.92-2.92-3.18-7.42-.57-10.03,2.61-2.61,7.11-2.36,10.03.57Z"/>
    <g>
      <g>
        <path class="cls-3" d="M6.4,4.96v14.07c-.88-.7-1.62-1.56-2.19-2.54-.77-1.32-1.21-2.86-1.21-4.5s.44-3.18,1.21-4.5c.57-.98,1.31-1.84,2.19-2.54Z"/>
        <path class="cls-3" d="M21,12c0,1.64-.44,3.18-1.21,4.5-.57.98-1.31,1.84-2.19,2.54V4.96c.88.7,1.62,1.56,2.19,2.54.77,1.33,1.21,2.86,1.21,4.5Z"/>
        <path class="cls-4" d="M17.6,4.96v14.07c-1.54,1.23-3.48,1.96-5.6,1.96s-4.06-.73-5.6-1.96V4.96c1.54-1.23,3.49-1.96,5.6-1.96s4.06.73,5.6,1.96Z"/>
      </g>
      <path class="cls-3" d="M15.97,15.43c-.14,0-.17.03-.29.04-.24.02-.26-.08-.47-.07-.2.01-.29.1-.39.04-.04-.03-.09-.08-.08-.12.01-.04.08-.07.44-.09.35-.02.42,0,.56-.05.17-.05.35-.16.33-.22,0-.03-.19-.05-.57-.08-.1,0-.16-.01-.26-.02-.17,0-.25-.01-.36.01-.16.03-.14.08-.29.12-.04.01-.12.03-.52-.01-.32-.03-.34-.05-.34-.06,0-.05.27-.12.47-.16.66-.14.93.01,1.3-.2.16-.09.32-.24.29-.3-.03-.06-.24-.06-.41.02-.13.06-.16.14-.27.15-.12.01-.14-.06-.26-.07-.15-.01-.2.09-.41.16-.18.07-.42.1-.45.04-.03-.07.2-.32.49-.39.22-.05.27.04.6,0,.23-.02.47-.09.47-.14,0,0-.01-.02-.13-.04-.27-.04-.43.02-.65.03-.24.02-.48-.03-.48-.06,0-.04.28-.1.57-.12.4-.02.62.06.72-.07.03-.05.05-.12.02-.17-.06-.12-.34-.09-.39-.08-.27.03-.42.16-.52.08-.03-.03-.02-.04-.05-.07-.09-.08-.23.03-.46,0-.1-.01-.21-.05-.21-.08s.11-.04.29-.08c.29-.07.26-.11.44-.14.3-.05.47.04.53-.05.03-.05.01-.12-.02-.16-.05-.06-.14-.06-.41,0-.24.05-.5.11-.8.13-.1,0-.16,0-.18-.03-.03-.06.08-.2.21-.26.1-.04.18-.02.29-.02.25.01.43-.09.73-.25.33-.17.34-.27.33-.3,0-.04-.02-.09-.06-.11-.13-.05-.37.31-.43.27-.03-.02.02-.08-.01-.12-.03-.04-.12-.06-.57.08-.28.09-.4.15-.45.09-.04-.04-.03-.12,0-.16.04-.04.09-.02.16-.03.2-.01.23-.2.57-.38.06-.03.1-.05.16-.08.18-.06.31-.05.32-.08,0-.03-.1-.05-.11-.12-.01-.07.07-.1.06-.14-.02-.08-.37-.01-.81-.09-.12-.02-.26-.06-.26-.08,0-.03.18-.02.44-.06.11-.02.47-.09.47-.18,0-.09-.31-.17-.34-.18-.36-.09-.58.01-.64-.1-.03-.06,0-.17.05-.21.1-.08.24.05.36-.04.06-.05.09-.13.11-.18.01-.03.01-.04.03-.14.03-.15.05-.23.04-.24-.04-.08-.27,0-.65.08-.58.14-.41.06-.78.16-.3.07-.48.14-.59.04-.05-.04-.09-.11-.07-.16.02-.06.15-.06.2-.06.36,0,.27-.09.83-.14.41-.03.59,0,.61-.07.02-.07-.13-.17-.17-.2-.24-.16-.66-.26-1.07-.16-.12.03-.25.08-.31.02-.04-.04-.03-.11,0-.16.02-.04.07-.07.16-.09.22-.05.31.06.56.07.18,0,.38-.05.39-.11,0-.04-.06-.07-.08-.08-.14-.07-.26,0-.5.05-.18.03-.42.05-.43.02,0-.03.1-.08.17-.11.29-.14.52-.15.52-.18,0-.02-.15-.04-.31-.03-.31.02-.47.12-.54.05-.03-.04-.03-.12,0-.16.06-.08.21,0,.51.01.22,0,.35.01.43-.07.09-.1.08-.31-.02-.42-.05-.05-.1-.07-.15-.09-.14-.05-.23-.02-.54.02-.23.03-.32.03-.33,0,0-.02.01-.05.02-.06.07-.09.22-.09.31-.09.32,0,.63-.12.63-.16,0-.02-.1-.05-.19-.05-.21-.02-.41.08-.61.09-.02,0-.06,0-.11-.03-.03-.02-.07-.06-.06-.1,0-.01,0-.05.09-.09.11-.06.22-.04.53-.03.12,0,.19,0,.22-.03.03-.04.02-.1,0-.13-.02-.03-.06-.04-.21-.03-.15.02-.19.04-.29.05-.19.03-.38-.02-.38-.05,0-.02.09-.04.13-.05.07-.02.13-.02.2-.02.2,0,.23.01.33,0,.07-.01.17-.04.16-.07,0-.03-.15-.04-.17-.04-.21-.01-.29.05-.46.02-.06-.01-.15-.04-.15-.06,0-.03.11-.04.2-.05.24-.03.31,0,.42-.06.09-.04.17-.13.16-.15-.03-.06-.59.28-.74.12-.05-.05-.06-.15-.03-.21.04-.08.16-.11.15-.13,0-.02-.05,0-.1-.02-.07-.04-.07-.15-.07-.16,0-.16.15-.27.12-.3-.02-.02-.08.04-.13.02-.06-.03-.06-.19,0-.23.03-.02.05,0,.09-.03.03-.02.05-.06.05-.1-.01-.06-.11-.08-.21-.1-.03-.48-.06-.91-.06-.91-.02,0-.05.36-.09.89h-.03c-.14,0-.27.01-.28.04,0,.02.07.02.13.07.07.06.11.17.08.23-.05.08-.25,0-.27.06-.03.07.29.23.26.3-.02.06-.28.01-.29.07-.01.05.21.1.28.29.03.09.03.2,0,.21-.03.01-.07-.07-.17-.16-.16-.13-.36-.12-.44-.12-.09,0-.2.02-.2.03,0,.01.09.02.14.03.33.06.64.32.62.37-.01.02-.15-.03-.42-.05-.2-.02-.42-.02-.42,0,0,.02.22.1.45.13.15.02.3.03.36.12,0,0,.02.04.01.06-.02.02-.09,0-.14-.02-.14-.04-.25-.02-.47,0-.05,0-.27.04-.27.08,0,.02.08.04.15.05.15.03.28.03.5.04.13,0,.19.01.22.06.02.03.04.09.01.13-.02.03-.05.04-.05.04-.06.02-.12,0-.14-.02-.06-.03-.31-.14-.49-.14-.13,0-.25.07-.24.1,0,.03.18,0,.44.04.22.03.43.11.42.13,0,.03-.32,0-.48-.02-.58-.06-.86-.15-.89-.08-.02.05.08.14.16.2.29.19.52,0,.93.16.15.06.3.15.29.17,0,.01-.07,0-.17-.02-.25-.04-.47-.08-.69-.02-.09.02-.21.07-.21.1,0,.04.2.02.56.04.31.02.56.03.58.11,0,.04-.05.08-.1.1-.11.05-.24-.02-.31-.05-.26-.13-.51-.12-.95-.09-.18,0-.41.02-.44.13-.02.05.01.11.05.15.07.07.19.05.2.08,0,.03-.09.06-.09.09,0,.05.23.06.37.08.59.07.92.32.99.37.05.04.21.17.19.21-.04.07-.5-.02-.9-.22-.24-.12-.37-.23-.62-.24-.12,0-.33,0-.35.09-.01.05.03.12.09.16.08.06.19.02.2.07,0,.02-.02.03-.02.09,0,.02,0,.05.01.07.02.02.05.02.06.02.09,0,1.32.05,1.47.44.01.02.04.09,0,.13-.05.07-.24-.02-.57-.14-.38-.14-.64-.22-.92-.25-.15-.01-.35-.02-.43.09-.01.01-.05.06-.03.11.03.08.21.07.22.13,0,0,0,.03-.07.08-.15.1-.25.1-.26.13,0,.05.28.12.38.14.23.06.46.12.7.18.07.02,1.12.28,1.11.51,0,.05-.05.08-.06.08-.28.17-1-.7-1.25-.54-.06.04-.04.13-.11.16-.13.06-.26-.2-.56-.27-.22-.06-.48,0-.49.08-.02.08.19.24.41.28.13.02.18,0,.26.04.16.08.23.31.18.35-.07.06-.39-.27-.46-.21-.04.04.06.18.02.22-.06.05-.27-.19-.46-.13-.11.03-.19.14-.17.21.01.07.11.06.16.17.03.07,0,.1.02.16.05.21.59.24.59.27,0,.01-.11,0-.27,0-.23,0-.25.02-.26.03,0,.03.1.09.13.1.31.16.75.15,1.04.19.47.06.78.06,1.06.29.09.07.24.23.24.24,0,0-.04-.03-.09-.06-.15-.11-.4-.24-.45-.19-.03.03.02.12-.01.14-.02.02-.07-.02-.08-.03-.04-.02-.45-.29-.56-.21-.03.02-.02.06-.06.07-.05.02-.11-.03-.15-.06-.18-.13-.43-.22-.5-.15-.02.02-.03.05-.08.07,0,0-.03.01-.06.02-.09,0-.19-.07-.25-.11-.18-.09-.46,0-.5.12-.01.04-.01.08.01.12.05.09.18.08.53.09.29.01.37.02.47.05.11.03.22.08.31.19,0,.01.09.12.07.16-.03.03-.15-.04-.31-.1-.05-.02-.44-.16-.86-.1-.1.01-.25.05-.25.08,0,.02.08.04.15.05.17.04.34.08.51.11.7.15,1.16.21,1.46.36.09.05.15.09.27.12.15.04.24.03.29.11.03.04.04.12.01.15-.1.11-.59-.17-.7-.23-.26-.14-.41-.27-.49-.21-.07.05-.01.19-.08.22-.04.02-.09-.01-.3-.14-.13-.08-.26-.16-.27-.14-.01.02.07.08.05.13-.01.03-.06.04-.07.04-.13.03-.24-.08-.39-.15-.24-.1-.51-.06-.53,0-.01.04.12.11.17.13.27.14.43.08.74.16.26.06.49.19.48.23,0,.02-.11.02-.27.01-.11,0-.19-.01-.27-.03-.26-.03-.39-.05-.47-.07-.23-.05-.32-.11-.36-.06s-.02.17.05.25c.12.14.28.05.72.13.4.07.48.19.69.14.04,0,.14-.04.19.01.04.03.05.1.02.14-.06.09-.36,0-.48-.03-.17-.05-.31-.12-.34-.07-.02.03.01.08-.01.1-.02.02-.08,0-.1-.02-.19-.09-.35-.17-.43-.13-.07.03-.04.11-.1.13-.07.02-.13-.1-.28-.18-.15-.07-.31-.08-.33-.05-.01.03.17.14.24.17.19.1.4.18.84.29.25.06.46.11.46.13,0,.02-.11,0-.31.04-.12.02-.17.04-.23.07-.06.04-.05.06-.09.07-.08.03-.14-.07-.31-.16-.21-.11-.28-.16-.38-.14-.07.02-.07.05-.16.08-.15.04-.24-.04-.27,0-.03.04.04.16.13.24.1.11.17.1.33.24.08.07.11.11.12.17,0,.04,0,.13-.04.17-.11.08-.32-.22-.66-.23-.22,0-.47.11-.48.24-.02.16.31.31.38.34.08.03.41.18,1.07.09.39-.05.44-.13.84-.15.23-.01.61-.03.68.14.02.04.02.11-.01.15-.1.09-.36-.18-.68-.11-.16.04-.13.11-.3.15-.32.08-.55-.14-.67-.03-.06.06,0,.14-.06.22-.15.22-.83-.05-.85.02-.02.04.23.25.6.34.48.11,1.02-.02,1.51-.14.14-.03.25-.07.4-.05.2.02.28.11.42.06.12-.03.17-.12.23-.09.06.03.02.12.08.16.08.07.24-.08.41-.14-.04,1.32-.07,2.29-.07,2.29h.86s-.14-.94-.14-1.63v-.23c0-.08,0-.16,0-.23,0-.06,0-.12.05-.16.09-.07.23-.06.34-.06.19,0,.25.05.46.03.14-.01.2-.04.24-.08.04-.05.03-.08.07-.12.06-.04.12.01.2-.03.04-.02.08-.07.08-.12,0-.04-.03-.07-.02-.09.02-.03.12,0,.13,0,.36.1,1.14.33,1.72.29.33-.03.38-.12.39-.16.02-.07,0-.18-.06-.22-.01,0-.04-.02-.18.02-.15.05-.18.08-.25.09-.11.01-.18-.06-.27-.11-.18-.1-.29-.02-.68-.01-.36.01-.72-.05-.73-.09,0-.02.11-.05.19-.06.27-.05.49-.04.6-.03.78.05.63-.03.93.02.14.03.32.07.44-.02.05-.04.09-.11.07-.14-.01-.02-.04-.03-.3-.02-.14,0-.19.01-.29,0-.07,0-.08,0-.15,0-.26,0-.31.03-.43,0-.11-.02-.09-.05-.23-.09-.04-.01-.14-.05-.44-.06-.34-.01-.51.02-.55-.06-.01-.03-.01-.06,0-.09.03-.06.15-.15,1.27.05.23.04.87.16,1.12-.01.02-.02.08-.06.07-.09-.01-.07-.27-.08-.29-.08ZM10.25,15.93l-.31-.16s-.06-.07.05-.07.27.08.27.08c0,.04-.02.14-.02.14ZM11.25,14.39s.04,0,.13,0c.06,0,.08,0,.11,0,.11,0,.29.07.32.19,0,.02.02.06,0,.09-.05.06-.27-.03-.41-.13-.07-.05-.15-.13-.14-.15ZM10.98,15.19s.09-.1.21-.05c.11.05.09.1.29.1s.34.03.34.03v.16l-.48-.04s-.37-.18-.37-.2ZM11.84,15.82s-.13.13-.22.07c-.1-.06-.24-.13-.24-.15s.13-.12.24-.1c.11.02.2.04.2.04.04.04.02.14.02.14ZM10.92,9.04c-.14-.03-.15-.03-.15-.04,0-.02.23-.04.43-.04.22,0,.33.01.41.06.05.03.13.11.22.1.01,0,.04,0,.05.01.03.02.03.08,0,.11-.02.02-.04.01-.05.01-.13-.01-.29-.08-.29-.08-.09-.04-.18-.05-.35-.08-.06-.01-.14-.02-.28-.05ZM10.88,10.38s.02-.03.15-.01c.13.02.22.05.26.06.17.06.33.15.51.19.01,0,.1.02.11.06,0,.01,0,.02,0,.04,0,.03-.02.04-.02.05,0,.03.02.05.01.05-.02.04-.55-.24-.81-.28-.02,0-.1-.02-.17-.08-.01-.01-.06-.06-.04-.08ZM11.88,12.48s-.01.02-.03.02c-.08.02-.35-.11-.43-.14-.12-.05-.26-.08-.53-.13-.16-.03-.3-.05-.32-.13,0,0-.01-.04.01-.07.06-.08.29.07.72.14,0,0,.29.04.53.17.01,0,.04.02.06.05.01.03.03.07,0,.1ZM11.35,11.74c-.11-.01-.3,0-.42-.12-.01-.01-.05-.05-.04-.08.02-.04.14-.02.22,0,.04,0,.19.03.4.11.21.08.17.1.26.12.02,0,.12.02.12.06,0,.01,0,.01,0,.04,0,0,0,0,0,.05,0,0,0,.01,0,.01,0,.02,0,.05,0,.05-.22-.17-.41-.22-.55-.23ZM11.92,11.08s0,.02,0,.03c0,0,0,.02-.01.03-.03.04-.67-.27-.95-.34-.1-.02-.18-.06-.28-.1-.05-.02-.09-.03-.09-.05,0-.03.08-.07.16-.07.09,0,.14.03.24.07.15.06.12.03.33.11.26.1.23.12.34.14.06.01.11.03.21.07.01,0,.08.03.08.07,0,0,0,.02-.01.04ZM11.93,9.57s-.06-.03-.15-.07c-.12-.05-.18-.02-.23-.08,0,0-.03-.04-.02-.07.03-.05.2,0,.24.02.08.03.14.04.17.1.02.04.01.09-.01.11ZM11.94,8.24s-.01.03-.01.03c-.02.02-.05-.01-.11-.02-.06-.01-.09,0-.09-.01,0-.01.07-.04.15-.05.01,0,.08-.01.09,0,0,0,0,.01-.02.05ZM13.58,12.93s-.05.05-.09.07c-.36.18-.3.16-.36.18-.33.12-.37.05-.55.15-.02.01-.12.06-.14.03,0,0,0-.03,0-.06,0-.03,0-.05,0-.09.01-.08,0-.08.01-.08.02-.06.14-.07.2-.07.04,0,.16-.03.4-.08.17-.04.25-.07.4-.07.04,0,.14,0,.14.03ZM12.44,13.61s0-.02,0-.04c0-.03,0-.04,0-.05.01-.02.06,0,.08,0,.06.01.04,0,.28,0,.11,0,.13,0,.13.02,0,0,0,.01-.06.04-.1.04-.15.03-.27.05-.07.01-.14.03-.16.01,0,0,0-.01,0-.04ZM12.44,13.91s0-.04,0-.05c.01-.02.04-.02.09-.03.03,0,.03-.01.07-.03.05-.02.09-.03.14-.04.15-.03.23-.05.24-.05.16-.03.29-.06.3-.03,0,0,0,.01-.02.03-.06.06-.15.08-.19.09,0,0-.1.02-.22.05-.12.03-.24.06-.36.1-.01,0-.05.02-.07,0,0,0,0,0,0-.05ZM12.41,12.4s.24,0,.25.03c0,.01-.03.02-.08.05-.06.03-.16.07-.18.05,0,0,0-.02,0-.06,0-.01,0-.02,0-.03,0-.03,0-.04,0-.04ZM12.41,12.88s0-.03,0-.05c0-.03,0-.04.01-.05.02-.03.09-.01.15,0,.09,0,.07-.02.25-.04.03,0,.21-.02.22,0,0,0-.02.02-.04.03-.11.06-.19.08-.25.1-.15.05-.19.06-.19.06-.07.02-.14.05-.16.03,0,0,0-.01,0-.06ZM12.45,10.63c.12,0,.11-.05.36-.08.17-.02.18,0,.18,0,0,.01-.02.03-.04.05-.1.07-.19.09-.31.13-.13.04-.25.08-.26.05,0,0,0,0,0-.02,0-.03,0-.05,0-.06,0-.03,0-.04,0-.05.01-.03.07-.03.08-.03ZM12.26,8.36s.06.01.16.03c.06,0,.06,0,.13,0,.07.01.15.03.15.05,0,0-.05,0-.13.01-.16.02-.24.08-.29.03-.02-.01-.02-.03-.03-.04,0-.02-.02-.07,0-.09ZM12.26,8.67s0-.04,0-.06c.04-.04.17.01.16.03,0,0-.02.01-.06.02-.07.02-.1.02-.11.01ZM12.31,9.94s0-.04,0-.11c0-.05,0-.08.01-.09.03-.03.07-.01.16-.02.06,0,.05-.01.14-.02.16-.02.26,0,.3,0,.03,0,.13.02.13.03,0,.01-.06.02-.15.04-.18.04-.36.11-.4.12-.1.04-.16.07-.19.04ZM12.37,11.3s.09-.02.15-.01c.05,0,.14,0,.31-.04.17-.03.24-.06.4-.06.04,0,.11,0,.11,0,0,.02-.22.07-.33.1-.36.08-.36.03-.5.09-.04.02-.1.05-.13.03-.03-.02-.03-.08,0-.11ZM12.37,11.8s0-.1,0-.04c0,0,0-.03,0-.06,0-.02,0-.04.01-.05.01-.02.05-.02.06-.02.09,0,.18-.02.27-.01.22.02.37-.03.37-.02,0,.02-.19.06-.22.07-.22.05-.23.03-.34.08-.05.02-.13.06-.14.05ZM12.4,12.07s.13-.04.26-.04c.22,0,.35-.01.35,0,0,0,0,.01-.06.03-.13.05-.19.05-.32.09-.12.03-.19.06-.21.03-.01-.02-.02-.05-.02-.06,0-.03,0-.05,0-.07ZM12.82,15.88c-.15.03-.21-.03-.34-.02,0,0-.03,0-.04,0-.02-.02-.02-.08,0-.11.05-.06.2-.03.29,0,.03,0,.2.05.2.09,0,.03-.07.04-.11.05ZM12.94,15.32c-.04.08-.14.09-.29.12-.14.02-.21.01-.22,0,0,0,0-.01,0-.03,0-.01,0-.02-.01-.03s-.01-.03,0-.06c.04-.01.1-.03.18-.05.14-.03.32-.08.36-.02.01.02,0,.06-.02.08ZM12.43,14.91s0-.03,0-.03c0-.04.13-.09.24-.07.03,0,.1.01.11.05,0,.03-.02.05-.03.06-.02.02-.04.03-.16.05-.07.01-.13.02-.15,0,0-.01-.01-.02-.01-.02,0-.01,0-.02,0-.04ZM13.57,14.47c-.06.03-.15,0-.15-.02,0-.04.11-.11.16-.08.02.01.03.03.03.05,0,.03-.04.05-.04.05ZM13.42,14.08c-.26,0-.67.08-.86.2-.01,0-.12.07-.15.04,0-.01-.01-.03-.01-.05,0-.02.01-.02.01-.04,0-.02,0-.03,0-.03-.01-.07.57-.24.57-.24.25-.07.35-.1.52-.11.08,0,.27-.02.29.04.01.04-.06.1-.07.11-.11.08-.23.08-.3.08Z"/>
    </g>
  </g>
</svg>