<?xml version="1.0" encoding="UTF-8"?>
<svg id="Layer_1" data-name="Layer 1" xmlns="http://www.w3.org/2000/svg" viewBox="0 0 24 24">
  <defs>
    <style>
      .cls-1 {
        fill: #000;
      }

      .cls-1, .cls-2, .cls-3, .cls-4, .cls-5 {
        stroke-width: 0px;
      }

      .cls-2 {
        fill: none;
      }

      .cls-3 {
        fill: #084fa0;
      }

      .cls-4 {
        fill: #ec1c26;
      }

      .cls-5 {
        fill: #fff;
      }
    </style>
  </defs>
  <rect class="cls-2" width="24" height="24"/>
  <g>
    <path class="cls-1" d="M16.71,7.34c2.92,2.92,3.18,7.42.57,10.03-2.61,2.61-7.11,2.35-10.03-.57s-3.18-7.42-.57-10.03c2.61-2.61,7.11-2.35,10.03.57Z"/>
    <g>
      <g>
        <path class="cls-4" d="M21,12c0,2.07-.7,3.98-1.88,5.5H4.88c-1.18-1.52-1.88-3.43-1.88-5.5s.7-3.98,1.88-5.5h14.24c1.18,1.52,1.88,3.43,1.88,5.5Z"/>
        <path class="cls-3" d="M18.7,6H5.3c1.65-1.84,4.04-3,6.7-3s5.05,1.16,6.7,3Z"/>
        <path class="cls-3" d="M18.7,18c-1.65,1.84-4.04,3-6.7,3s-5.06-1.16-6.7-3h13.41Z"/>
        <path class="cls-5" d="M19.12,17.5c-.13.17-.27.34-.42.5H5.3c-.15-.16-.28-.33-.42-.5h14.24Z"/>
        <path class="cls-5" d="M19.12,6.5H4.88c.13-.17.27-.34.42-.5h13.4c.15.16.29.33.42.5Z"/>
      </g>
      <g>
        <path class="cls-5" d="M13.98,12c0,2.23-1.81,4.03-4.03,4.03s-4.04-1.81-4.04-4.03,1.81-4.04,4.04-4.04,4.03,1.81,4.03,4.04Z"/>
        <polygon class="cls-4" points="9.95 8.09 10.83 10.79 13.67 10.79 11.37 12.46 12.25 15.16 9.95 13.49 7.65 15.16 8.53 12.46 6.23 10.79 9.07 10.79 9.95 8.09"/>
      </g>
    </g>
  </g>
</svg>