<?xml version="1.0" encoding="UTF-8"?>
<svg id="Layer_1" data-name="Layer 1" xmlns="http://www.w3.org/2000/svg" viewBox="0 0 24 24">
  <defs>
    <style>
      .cls-1 {
        fill: #000;
      }

      .cls-1, .cls-2, .cls-3, .cls-4 {
        stroke-width: 0px;
      }

      .cls-2 {
        fill: none;
      }

      .cls-3 {
        fill: #fff;
      }

      .cls-4 {
        fill: #e20c17;
      }
    </style>
  </defs>
  <rect class="cls-2" width="24" height="24"/>
  <g>
    <path class="cls-1" d="M16.71,7.34c2.92,2.92,3.18,7.42.57,10.03-2.61,2.61-7.11,2.36-10.03-.57-2.92-2.92-3.18-7.42-.57-10.03,2.61-2.61,7.11-2.36,10.03.57Z"/>
    <g>
      <g>
        <path class="cls-3" d="M17.39,19.2c-1.5,1.13-3.37,1.8-5.39,1.8s-3.89-.67-5.39-1.8h10.79Z"/>
        <path class="cls-3" d="M17.39,4.8H6.61c1.51-1.13,3.37-1.8,5.39-1.8s3.89.67,5.39,1.8Z"/>
        <path class="cls-4" d="M19.19,17.4c-.51.68-1.12,1.29-1.8,1.8H6.61c-.68-.51-1.29-1.12-1.8-1.8h14.39Z"/>
        <path class="cls-3" d="M21,12c0,2.02-.67,3.89-1.81,5.4H4.8c-1.13-1.51-1.8-3.38-1.8-5.4s.67-3.89,1.8-5.4h14.39c1.14,1.51,1.81,3.38,1.81,5.4Z"/>
        <path class="cls-4" d="M19.19,6.6H4.8c.51-.68,1.12-1.29,1.8-1.8h10.79c.68.51,1.29,1.12,1.8,1.8Z"/>
      </g>
      <g>
        <path class="cls-4" d="M10.59,15.62c-2,0-3.62-1.62-3.62-3.62s1.62-3.62,3.62-3.62c1.06,0,2.01.45,2.67,1.18-.8-1.25-2.2-2.07-3.8-2.07-2.49,0-4.51,2.02-4.51,4.51s2.02,4.52,4.51,4.52c1.59,0,2.99-.83,3.8-2.07-.66.72-1.61,1.18-2.67,1.18Z"/>
        <polygon class="cls-4" points="14.83 9.87 15.79 11.19 17.34 10.69 16.38 12 17.33 13.32 15.79 12.81 14.83 14.13 14.83 12.5 13.28 12 14.83 11.49 14.83 9.87"/>
      </g>
    </g>
  </g>
</svg>