<?xml version="1.0" encoding="UTF-8"?>
<svg id="Layer_1" data-name="Layer 1" xmlns="http://www.w3.org/2000/svg" viewBox="0 0 24 24">
  <defs>
    <style>
      .cls-1 {
        fill: #000;
      }

      .cls-1, .cls-2, .cls-3, .cls-4 {
        stroke-width: 0px;
      }

      .cls-2 {
        fill: #00401c;
      }

      .cls-3 {
        fill: none;
      }

      .cls-4 {
        fill: #fff;
      }
    </style>
  </defs>
  <rect class="cls-3" width="24" height="24"/>
  <g>
    <path class="cls-1" d="M16.71,7.34c2.92,2.92,3.18,7.42.57,10.03-2.61,2.61-7.11,2.35-10.03-.57-2.92-2.92-3.18-7.42-.57-10.03,2.61-2.61,7.11-2.35,10.03.57Z"/>
    <g>
      <g>
        <path class="cls-4" d="M3,12c0,3.38,1.87,6.33,4.64,7.87V4.13c-2.76,1.54-4.64,4.49-4.64,7.87Z"/>
        <path class="cls-2" d="M12,3c-1.58,0-3.07.41-4.36,1.13v15.74c1.29.72,2.78,1.13,4.36,1.13,4.96,0,9-4.04,9-9S16.96,3,12,3Z"/>
      </g>
      <g>
        <path class="cls-4" d="M15.68,15.04c-2.32,0-4.2-1.88-4.2-4.2,0-1.35.64-2.55,1.63-3.32-1.85.59-3.18,2.32-3.18,4.37,0,2.53,2.05,4.58,4.58,4.58,1.87,0,3.48-1.12,4.19-2.72-.76.79-1.84,1.29-3.02,1.29Z"/>
        <polygon class="cls-4" points="18.13 10.62 17.04 10.39 16.47 11.36 16.36 10.24 15.26 10.01 16.29 9.55 16.17 8.44 16.92 9.27 17.95 8.82 17.39 9.79 18.13 10.62"/>
      </g>
    </g>
  </g>
</svg>