<?xml version="1.0" encoding="UTF-8"?>
<svg id="Layer_1" data-name="Layer 1" xmlns="http://www.w3.org/2000/svg" viewBox="0 0 24 24">
  <defs>
    <style>
      .cls-1 {
        fill: #000;
      }

      .cls-1, .cls-2, .cls-3, .cls-4, .cls-5 {
        stroke-width: 0px;
      }

      .cls-2 {
        fill: #00793d;
      }

      .cls-3 {
        fill: none;
      }

      .cls-4 {
        fill: #cd1225;
      }

      .cls-5 {
        fill: #fff;
      }
    </style>
  </defs>
  <rect class="cls-3" width="24" height="24"/>
  <g>
    <path class="cls-1" d="M16.71,7.34c2.92,2.92,3.18,7.42.57,10.03-2.61,2.61-7.11,2.36-10.03-.57-2.92-2.92-3.18-7.42-.57-10.03,2.61-2.61,7.11-2.36,10.03.57Z"/>
    <g>
      <g>
        <path class="cls-1" d="M20.49,9H3.52c.46-1.29,1.2-2.45,2.16-3.39,1.63-1.61,3.86-2.61,6.33-2.61,3.91,0,7.25,2.51,8.48,6Z"/>
        <path class="cls-5" d="M21,12c0,1.05-.18,2.06-.51,3H3.51c-.33-.94-.51-1.95-.51-3s.18-2.06.52-3h16.97c.33.94.51,1.95.51,3Z"/>
        <path class="cls-2" d="M20.49,15c-1.24,3.49-4.57,6-8.48,6-2.46,0-4.7-1-6.33-2.61-.96-.94-1.7-2.1-2.16-3.39h16.97Z"/>
      </g>
      <path class="cls-4" d="M14.18,12l-3.99,3-4.52,3.39c-.96-.94-1.7-2.1-2.16-3.39-.33-.94-.51-1.95-.51-3s.18-2.06.52-3c.46-1.29,1.2-2.45,2.16-3.39l4.51,3.39,3.99,3Z"/>
    </g>
  </g>
</svg>