<?xml version="1.0" encoding="UTF-8"?>
<svg id="Layer_1" data-name="Layer 1" xmlns="http://www.w3.org/2000/svg" viewBox="0 0 24 24">
  <defs>
    <style>
      .cls-1 {
        fill: #000;
      }

      .cls-1, .cls-2, .cls-3, .cls-4, .cls-5 {
        stroke-width: 0px;
      }

      .cls-2 {
        fill: #fbd023;
      }

      .cls-3 {
        fill: none;
      }

      .cls-4 {
        fill: #cd1225;
      }

      .cls-5 {
        fill: #fff;
      }
    </style>
  </defs>
  <rect class="cls-3" width="24" height="24"/>
  <g>
    <path class="cls-1" d="M16.71,7.34c2.92,2.92,3.18,7.42.57,10.03-2.61,2.61-7.11,2.36-10.03-.57-2.92-2.92-3.18-7.42-.57-10.03,2.61-2.61,7.11-2.36,10.03.57Z"/>
    <g>
      <g>
        <g>
          <path class="cls-1" d="M19.2,17.4c-1.64,2.19-4.26,3.6-7.2,3.6-2.17,0-4.16-.77-5.72-2.05-.05-.05-.11-.09-.16-.14-1.35-1.17-2.35-2.73-2.82-4.5,0-.03-.02-.05-.02-.08h0c-.09-.33-.15-.67-.2-1.02h0c0-.07-.02-.14-.03-.21-.04-.33-.05-.66-.05-1,0-2.02.67-3.89,1.8-5.4l14.4,10.8Z"/>
          <path class="cls-4" d="M21,12c0,2.02-.67,3.89-1.8,5.4L4.8,6.6c1.64-2.19,4.26-3.6,7.2-3.6,4.96,0,9,4.04,9,9Z"/>
        </g>
        <g>
          <polygon class="cls-5" points="6.72 8.66 6.99 9.5 7.87 9.5 7.16 10.01 7.43 10.85 6.72 10.34 6.01 10.85 6.28 10.01 5.57 9.5 6.45 9.5 6.72 8.66"/>
          <path class="cls-5" d="M4.39,13.52l.27.84-.71-.52-.65.47s-.02-.05-.02-.08h0l.23-.71-.43-.31h0c0-.07-.02-.14-.03-.21h.62l.27-.84.27.84h.88l-.71.52Z"/>
          <polygon class="cls-5" points="9.44 11.93 9.72 12.77 10.6 12.77 9.88 13.29 10.16 14.13 9.44 13.61 8.73 14.13 9 13.29 8.29 12.77 9.17 12.77 9.44 11.93"/>
          <polygon class="cls-5" points="7.93 14.94 8.07 15.38 8.53 15.38 8.16 15.65 8.3 16.09 7.93 15.82 7.56 16.09 7.7 15.65 7.33 15.38 7.79 15.38 7.93 14.94"/>
          <path class="cls-5" d="M7.16,18.31l.27.84-.71-.52-.44.32c-.05-.05-.11-.09-.16-.14l.16-.5-.71-.52h.88l.27-.84.27.84h.88l-.71.52Z"/>
        </g>
      </g>
      <path class="cls-2" d="M18.48,11.36c-.06-.09-.13-.18-.19-.26-.02-.53-.22-1-.41-1.37.02-.1.03-.2.13-.17.15.05.19.32.29.19.09-.14-.05-.55-.21-.72-.16-.18.2,0,.2-.09,0-.1-.64-.83-.79-.93-.16-.1.15-.11.15-.15,0-.05-.59-.46-.76-.54-.17-.08.27-.08.17-.19-.1-.11-1.12-.22-1.5-.1-.38.12,0-.24.07-.31.07-.06-.04-.17-.03-.25,0-.09-.01-.01.14-.15.15-.14-.07-.18-.16-.18-.09,0,.21-.15.21-.29s-.31.02-.28-.02c.04-.04.27-.39.12-.4-.15,0-.2.02-.2-.04,0-.06.36-.44.22-.45-.05,0-.11.03-.15.05-.1.04-.19.1-.28.16-.26.17-.49.39-.66.64-.14.21-.24.46-.29.71-.02.13-.04.26-.03.4,0,.14.04.26.05.4,0,.08,0,.18-.06.25-.1.16-.28.14-.39,0-.1-.12-.21-.24-.33-.34-.07-.05-.15-.1-.24-.11-.09-.01-.2,0-.29.03-.17.04-.35.09-.53.05-.11-.02-.25-.07-.36-.03.08.06.18.1.27.14.13.07.25.13.37.22.11.09.22.19.36.21.05.01.1.01.16.02.14.02.24.15.33.24,0,0,.01.02.02.03,0,.01,0,.02-.01.03-.06.12-.13.26-.28.26-.19,0-.35-.28-.75-.29s-.71.14-.93.35c-.22.2-.85,1.03-.85,1.21,0,.18.21.01.31-.07.09-.09.01.14.01.14,0,0-.02.22.3-.13.07-.06.12.01.12.15,0,.14.05.17.24-.1.12,0,.04.17.03.27,0,.1.28-.24.39-.24s-.02.13.07.17c.09.05.36-.32.48-.31s-.02.31.04.33c.07.02.34-.57.46-.44.13.13-.13.58.6,1.24.73.65.6.45.61.36,0-.09-.05-.34.09-.22.14.12.23.41.34.32.11-.1.13-.23.13-.23,0,0,1.02,1.05,1.4,1.06.08-.07.02-.23-.04-.29s.31.14.27-.03c-.04-.17-.56-.57-.39-.57.17,0,.29-.02.12-.2-.17-.18-.46-.61-.31-.6.12,0-.03-.32-.05-.37-.01-.03-.02-.06-.03-.08,0-.01,0-.03,0-.04,0-.02.03-.06.05-.06.01,0,.02,0,.03.02.07.06.15.12.23.17.07.05.16.11.25.13.02,0,.04,0,.06,0,.06-.02.09-.06.11-.12.25.21.87.75,1.3,1.32.02.03,0,.15,0,.19,0,.07-.01.14-.03.2-.02.13-.07.26-.14.38-.14.25-.39.47-.67.56-.28.09-.59.08-.88.06-.02,0-.06,0-.08,0,.08.05,1.28.78,1.88-.37.1-.2.17-.39.2-.58.03.06.06.12.09.18.37.91-.13,1.53-.13,1.53-.29.36-.82.47-1.25.47.52.2,1.2.13,1.58-.31.17-.2.24-.45.27-.7.06-.48-.06-.97-.33-1.38ZM17.31,10.06c-.13-.11-.27-.22-.42-.32-.06-.05-.13-.09-.2-.13,0-.14.17-.12.26-.02.1.1.29.14.36.11.14-.06.24.05.32.16.17.23.22.51.27.79-.19-.21-.4-.41-.6-.59Z"/>
    </g>
  </g>
</svg>