<?xml version="1.0" encoding="UTF-8"?>
<svg id="Layer_1" data-name="Layer 1" xmlns="http://www.w3.org/2000/svg" viewBox="0 0 24 24">
  <defs>
    <style>
      .cls-1 {
        fill: #000;
      }

      .cls-1, .cls-2, .cls-3, .cls-4, .cls-5, .cls-6, .cls-7 {
        stroke-width: 0px;
      }

      .cls-2 {
        fill: #0738a6;
      }

      .cls-3 {
        fill: #d42b1e;
      }

      .cls-4 {
        fill: none;
      }

      .cls-5 {
        fill: #fdde19;
      }

      .cls-6 {
        fill: #fff;
      }

      .cls-7 {
        fill: #009a3c;
      }
    </style>
  </defs>
  <rect class="cls-4" width="24" height="24"/>
  <g>
    <path class="cls-1" d="M16.71,7.34c2.92,2.92,3.18,7.42.57,10.03-2.61,2.61-7.11,2.35-10.03-.57-2.92-2.92-3.18-7.42-.57-10.03,2.61-2.61,7.11-2.35,10.03.57Z"/>
    <g>
      <g>
        <path class="cls-2" d="M20.49,15c-.43,1.23-1.14,2.38-2.12,3.37-1.75,1.76-4.06,2.63-6.37,2.63s-4.61-.88-6.37-2.63c-.98-.98-1.69-2.14-2.12-3.37h16.98Z"/>
        <path class="cls-6" d="M21,12c0,1.02-.17,2.03-.51,3H3.51c-.34-.97-.51-1.98-.51-3s.17-2.03.51-3h16.98c.34.97.51,1.98.51,3Z"/>
        <path class="cls-3" d="M20.49,9H3.51c.43-1.23,1.14-2.38,2.12-3.37,1.74-1.74,4.01-2.61,6.29-2.63h.15c2.28.02,4.56.89,6.29,2.63.98.98,1.69,2.14,2.12,3.37Z"/>
      </g>
      <g>
        <g>
          <path class="cls-1" d="M14.15,11.09c-.12-.28-.29-.53-.5-.74-.21-.21-.46-.38-.74-.5-.29-.12-.59-.18-.91-.18s-.62.06-.91.18c-.28.12-.53.29-.74.5-.21.21-.38.46-.5.74-.12.29-.18.59-.18.91s.06.62.18.91c.12.28.29.53.5.74.22.22.46.38.74.5.29.12.59.18.91.18s.62-.06.91-.18c.28-.12.53-.28.74-.5.22-.21.38-.46.5-.74.12-.29.18-.59.18-.91s-.06-.62-.18-.91ZM12,14.24c-1.23,0-2.24-1-2.24-2.24s1-2.23,2.24-2.23,2.23,1,2.23,2.23-1,2.24-2.23,2.24Z"/>
          <path class="cls-1" d="M13.78,11.25c-.1-.23-.24-.44-.41-.61-.18-.18-.38-.32-.61-.41-.24-.1-.49-.15-.75-.15s-.51.05-.75.15c-.23.09-.44.23-.61.41-.18.18-.32.38-.41.61-.1.24-.15.49-.15.75s.05.51.15.75c.1.23.24.44.41.61s.38.32.61.41c.24.1.49.15.75.15s.51-.05.75-.15c.23-.1.44-.24.61-.41.18-.18.31-.38.41-.61.1-.24.15-.49.15-.75s-.05-.51-.15-.75ZM12,13.89c-1.04,0-1.89-.85-1.89-1.89s.85-1.89,1.89-1.89,1.89.85,1.89,1.89-.85,1.89-1.89,1.89Z"/>
          <path class="cls-1" d="M13.34,11.44c-.07-.17-.18-.33-.31-.46s-.29-.24-.46-.31c-.18-.07-.37-.12-.56-.12s-.39.04-.57.12c-.17.07-.33.18-.46.31s-.24.29-.31.46c-.08.18-.11.37-.11.56s.04.39.11.57c.07.17.18.33.31.46s.29.24.46.31c.18.07.37.11.57.11s.38-.04.56-.11c.17-.07.33-.18.46-.31s.24-.29.31-.46c.07-.18.11-.37.11-.57s-.04-.39-.11-.56ZM12,13.41c-.78,0-1.41-.63-1.41-1.41s.63-1.41,1.41-1.41,1.41.63,1.41,1.41-.63,1.41-1.41,1.41Z"/>
          <g>
            <path class="cls-1" d="M10.73,12.79l-.07.04-.04-.06s0-.02,0-.03c0,0,0-.02.02-.02l.04-.02-.05-.08-.06.03s-.03.02-.03.04c0,.01,0,.03.01.05h0s-.04-.04-.06-.03c-.01,0-.03,0-.06.02-.03.02-.05.04-.05.07,0,.02,0,.05.03.09l.09.16.28-.16-.05-.08ZM10.51,12.92l-.04-.06s-.01-.03,0-.03c0,0,0-.01.02-.02.02,0,.03-.01.04-.01.01,0,.02,0,.03.02l.04.06-.08.05Z"/>
            <path class="cls-1" d="M10.53,12.33l-.07.02.05.16-.06.02-.05-.15-.06.02.05.15-.06.02-.05-.16-.07.02.08.25.31-.1-.08-.25Z"/>
            <path class="cls-1" d="M10.52,12.2h-.09s0-.08,0-.08c0-.05-.02-.08-.04-.09s-.05-.02-.1-.01c-.04,0-.07.02-.09.04s-.02.05-.02.1l.02.18.32-.03v-.09ZM10.26,12.22v-.06s0-.02,0-.02c0,0,0-.01,0-.01,0,0,0,0,.01,0,0,0,.01,0,.02,0,.02,0,.03,0,.04,0,0,0,.01.02.01.04v.06s-.08,0-.08,0Z"/>
            <path class="cls-1" d="M10.51,11.69s-.04-.04-.08-.04l-.22-.03v.1s.2.02.2.02c.02,0,.03,0,.03.02s0,.02,0,.04c0,.02,0,.04-.01.05,0,0-.02.01-.03.01l-.21-.02v.09s.21.03.21.03c.04,0,.07,0,.09-.02.02-.02.03-.06.04-.13,0-.05,0-.09,0-.12Z"/>
            <path class="cls-1" d="M10.56,11.31s-.04-.01-.05,0c-.02,0-.03.02-.04.04h0s0-.04,0-.05c0-.01-.02-.02-.04-.03-.03-.01-.06-.01-.07,0-.01.01-.03.04-.04.07l-.06.18.31.11.06-.18s.02-.07.02-.09c0-.02-.03-.04-.06-.05ZM10.41,11.41l-.02.06-.06-.02.03-.08s.01-.02.01-.02c0,0,.01,0,.02,0,.01,0,.02.01.02.02,0,0,0,.02,0,.03ZM10.53,11.44l-.02.07-.06-.02.02-.07s.01-.03.02-.03c0,0,.02,0,.03,0,.01,0,.02.01.02.02,0,0,0,.02,0,.03Z"/>
            <path class="cls-1" d="M10.73,11.07l-.08.13-.21-.13-.05.08.28.17.13-.21-.06-.04Z"/>
            <path class="cls-1" d="M10.62,10.81l-.06.07.25.21.06-.07-.25-.21Z"/>
            <path class="cls-1" d="M11.07,10.73s-.02-.02-.03-.04h0s-.07.06-.07.06h0s.02.03.01.04c0,0-.01.02-.03.04-.02.02-.04.03-.06.02,0,0-.02-.01-.03-.03l-.03-.04s-.02-.03-.02-.04c0-.01,0-.02.03-.04.01-.01.02-.02.03-.02.01,0,.02,0,.03,0h0s.07-.06.07-.06h0s-.06-.06-.09-.05c-.02,0-.05.03-.09.06-.04.04-.07.07-.08.1-.01.03,0,.07.03.11l.06.06s.07.06.11.05c.02,0,.06-.03.1-.07.02-.02.04-.03.05-.04.03-.04.03-.07.02-.1Z"/>
            <path class="cls-1" d="M11.17,10.37l-.13.07.07.34.08-.05v-.06s.1-.06.1-.06l.04.04.08-.05-.25-.23ZM11.17,10.61l-.03-.15.11.1-.08.04Z"/>
            <path class="cls-1" d="M11.92,10.37v-.07s-.02-.04-.03-.06-.02-.03-.03-.03c-.01,0-.03-.01-.05-.02-.02,0-.04,0-.06,0l-.18.03.05.32.19-.03s.04,0,.06-.02c.02,0,.03-.02.04-.03,0-.01.01-.03.02-.04,0-.02,0-.04,0-.06ZM11.78,10.44h-.08s-.03-.16-.03-.16h.08s.03-.01.04,0,.01.02.02.04v.07s0,.06-.03.06Z"/>
            <path class="cls-1" d="M12.24,10.26v-.07s-.25-.02-.25-.02l-.02.33.26.02v-.07s-.16-.01-.16-.01v-.06s.16.01.16.01v-.06s-.15-.01-.15-.01v-.06s.17.01.17.01Z"/>
            <path class="cls-1" d="M12.38,10.47l.06-.24-.09-.03-.08.32.24.06.02-.07-.15-.04Z"/>
            <path class="cls-1" d="M13.04,10.5l-.15-.1-.18.27.08.05.05-.07.07.05s.07.04.1.03c.02,0,.05-.03.07-.07.02-.04.03-.07.03-.09,0-.02-.03-.05-.06-.07ZM13,10.59s0,.01-.01.02c-.01.02-.02.03-.03.03,0,0-.02,0-.03-.01l-.06-.04.05-.07.05.03s.01.01.02.01c0,0,0,0,0,.01,0,0,0,.01,0,.01Z"/>
            <path class="cls-1" d="M13.24,10.66l-.31.16.07.07.05-.03.09.09-.03.05.07.07.15-.31-.1-.11ZM13.18,10.89l-.06-.06.13-.07-.07.13Z"/>
            <path class="cls-1" d="M13.56,11.06l-.1-.16-.27.17.05.08.07-.05.04.06s.01.02,0,.03c0,0,0,.02-.02.02l-.04.02.05.08h0s.05-.03.05-.03c.02-.01.02-.02.03-.04,0-.02,0-.03-.01-.05h0s.04.03.06.03c.01,0,.03-.01.06-.03.03-.02.05-.04.05-.07,0-.02-.01-.05-.03-.09ZM13.48,11.14s-.03.02-.03.02c-.01,0-.02,0-.03-.02l-.04-.06.07-.05.04.06s.01.02.01.03c0,0-.01.01-.02.02Z"/>
            <path class="cls-1" d="M13.69,11.32h-.34s0,0,0,0h0s.03.09.03.09h.06s.04.12.04.12l-.05.04.03.09.27-.21-.05-.14ZM13.54,11.5l-.03-.08h.15s-.12.08-.12.08Z"/>
            <path class="cls-1" d="M13.81,11.79c0-.06-.02-.1-.04-.12-.02-.03-.06-.04-.11-.03h-.08c-.05.02-.08.03-.1.06-.01.02-.01.07,0,.13,0,.06.02.11.04.13.02.02.06.02.11.02h.06s-.02-.17-.02-.17h-.06s0,.07,0,.07c-.02,0-.04,0-.05,0,0,0-.01-.02-.02-.05,0-.03,0-.05,0-.06,0-.01.02-.02.05-.02h.05s.05-.01.06,0c.01,0,.02.03.02.06,0,.02,0,.03,0,.04,0,.01-.01.02-.03.02v.1c.06,0,.09-.02.1-.06,0-.02,0-.06,0-.11Z"/>
            <path class="cls-1" d="M13.57,12.14s.02-.02.03-.01l.21.02v-.09s-.21-.02-.21-.02c-.04,0-.07,0-.09.02-.02.02-.03.06-.04.13,0,.05,0,.09.01.12.01.03.04.04.08.04l.22.02v-.09s-.2-.02-.2-.02c-.02,0-.03,0-.03-.02,0,0,0-.02,0-.04,0-.02,0-.04.01-.05Z"/>
            <path class="cls-1" d="M13.47,12.33l-.03.09.05.04-.04.12h-.06s-.03.09-.03.09h.34s.05-.13.05-.13l-.27-.21ZM13.51,12.58l.03-.08.12.09h-.15Z"/>
            <path class="cls-1" d="M13.6,12.87l.05-.09h-.25s-.1-.06-.1-.06l-.05.08.1.06.11.22.06-.09-.07-.12h0s.14,0,.14,0Z"/>
          </g>
        </g>
        <g>
          <polygon class="cls-5" points="12 11.49 12.11 11.84 12.48 11.84 12.18 12.06 12.3 12.41 12 12.19 11.7 12.41 11.81 12.06 11.51 11.84 11.88 11.84 12 11.49"/>
          <path class="cls-1" d="M12.51,11.83h-.39l-.12-.37-.12.37h-.39l.32.23-.12.37.32-.23.32.23-.12-.37.32-.23ZM12,12.18l-.28.21.11-.33-.29-.21h.35l.11-.34.11.34h.35l-.28.21.11.33-.28-.21Z"/>
        </g>
        <g>
          <path class="cls-7" d="M12.7,11.06h0s0,.02,0,.02c0-.02-.01-.03-.02-.04s-.01-.02-.02-.03c0,0-.01-.01-.02-.02-.01-.02-.02-.04-.03-.06,0,0,0,0-.01,0,0,0,0,0,0,.01,0,.02.02.04.04.06.01.01.02.02.02.03,0,0,.01.01.02.02,0,.01.01.02.02.03-.03-.04-.06-.07-.1-.09h0s0,0,0,0c0,0,0,0,0,0,0-.02,0-.04-.02-.07,0-.02-.02-.04-.02-.05,0-.01-.01-.02-.01-.02,0,0,.01,0,.06.02.02.01.05.03.08.07.03.04.04.08.04.1,0,.01,0,.02,0,.03Z"/>
          <path class="cls-1" d="M13.13,12.07s.04-.03.06-.06c.03-.05.05-.09.06-.15.02-.08.03-.19.01-.21,0,0,0,0-.01,0,0,0-.01,0-.02.02h0s-.03.04-.05.05c0-.01,0-.03,0-.04,0,0,0,0,0-.01,0-.01-.01-.03,0-.06,0,0,0,0,0-.01,0-.01,0-.02,0-.02,0,0-.01-.01-.05.04,0,.01-.01.02-.02.03h0s0-.02,0-.03c0-.02,0-.03,0-.05,0-.01,0-.02.01-.04,0-.03.02-.08.01-.15,0-.01,0-.02,0-.03,0-.02,0-.04,0-.06,0-.01,0-.02,0-.03,0-.01,0-.02,0-.03,0,0,0,0,0,0-.01,0-.02.03-.03.05-.01.03,0,.05,0,.07,0,.01,0,.02,0,.04,0,.02,0,.04,0,.06,0-.02,0-.04,0-.07,0-.08-.03-.15-.04-.19,0-.02-.01-.03-.01-.04,0-.02-.01-.03-.02-.06,0,0,0,0,0,0,0-.01,0-.02-.01-.02,0,0,0,0-.01,0-.01.01-.03.06-.04.12-.02-.02-.04-.03-.06-.05-.03-.02-.04-.04-.05-.05,0-.01,0-.02,0-.03,0-.02-.03-.02-.03-.02-.02,0-.03,0-.04,0,0,0,0,0-.01,0,0-.01,0-.02,0-.03,0-.02-.02-.07-.05-.11-.03-.04-.07-.06-.09-.07-.03-.02-.06-.03-.08-.02,0,.01,0,.02,0,.04,0,.01.01.03.02.05.01.03.01.04.02.06-.02,0-.03-.01-.05-.02-.02,0-.04,0-.05,0-.02,0-.03,0-.05-.01-.02,0-.03-.02-.04-.03,0,0-.01-.01-.02,0,0,0-.01.01,0,.04,0,.02.02.04.03.06.01.02.02.04.03.05-.02,0-.03,0-.05,0-.02,0-.04,0-.05,0-.01,0-.02,0-.03,0,0,0,0,.02.04.05.02.02.05.04.08.05.04.02.1.05.17.05,0,.01,0,.02.02.03.01.01.03.02.04.02h0s.03,0,.04-.02c0,0,0,0,0-.01,0,0,.01.01.02.02,0,0,0,0,0,.01,0,0,0,0,0,0t0,0h0s0,0,0,.01c0,.02,0,.04,0,.06,0,.02,0,.04.01.05,0,0,0,0,0,0h0s-.04-.02-.05-.01c0,0,0,.01,0,.02,0,.01.02.03.04.06.03.04.05.07.08.09.01,0,.02.01.02.01.01,0,.02,0,.03,0,0,0,.01,0,.02,0,0,0,0,0,.03.01.01,0,.04.02.07.04,0,.01.01.02.01.03-.02-.01-.04-.03-.05-.02-.01,0-.01.02,0,.05,0,.01,0,.03.01.05,0,.01,0,.03,0,.04,0,0-.01,0-.02,0-.01-.01-.02-.02-.03-.03,0,0-.01-.01-.02-.01,0,0-.01,0-.01.01-.01.02-.02.08,0,.13.01.04.03.06.05.09.02.02.03.04.05.07.01.03.02.05.03.08-.02,0-.03,0-.03,0,0,0-.02.01-.02.02,0,0,0,0,0,0-.01-.01-.03-.02-.03-.03,0,0,0-.01,0-.02,0-.01,0-.02-.01-.02s-.02,0-.02.02h0s-.02.03-.02.03c0,0-.01.01-.01.02-.01.03,0,.05,0,.07,0,.02,0,.04,0,.06,0,.02,0,.03-.01.04,0,.01,0,.02,0,.05s0,.04.01.05c0,.02.01.03.02.06h0s0,.02,0,.02c0,0,0,.01-.01.02,0,0,0,0,0,.01,0,0,0,0,0,0-.02-.06-.03-.06-.03-.06,0,0,0,.01-.01.02,0,0,0,.01,0,.02,0,.01-.01.02-.03.03,0,0,0,0-.01,0,0,0-.03.02-.06.05h0s0-.03,0-.04c-.02-.02-.08,0-.12.03-.02.02-.03.04-.05.06-.01.02-.02.03-.02.04,0,.01,0,.02-.02.04-.01.02-.02.03-.03.03,0,0-.01.01-.02.03-.01.03-.02.05-.02.06,0,.02,0,.03-.01.05,0,0-.01.01-.07.04-.02.01-.04.02-.07.03,0,0-.01,0-.02,0-.03-.01-.06-.03-.09-.03-.04,0-.07,0-.1.02-.02,0-.03-.02-.05-.03-.04-.02-.08-.05-.12-.08-.05-.04-.09-.06-.13-.11-.02-.03-.04-.05-.05-.08-.02-.04-.04-.07-.08-.12-.02-.02-.03-.03-.05-.04-.02-.02-.03-.02-.04-.02,0,.01,0,.03.02.07.02.04.04.06.05.09.01.01.02.03.03.05.02.04.05.08.05.09-.02,0-.11-.05-.16-.14-.04-.07-.06-.14-.07-.21-.01-.05-.01-.09-.01-.12,0-.05,0-.09-.03-.15-.01-.03-.06-.13-.08-.12,0,0,0,0-.01.01,0,0,0-.01-.02-.01,0,0-.01,0-.02.01,0-.04.01-.06.02-.07,0-.01,0-.03.01-.04.01-.04.03-.08.02-.14,0-.04-.01-.1-.02-.11,0,0,0,0,0,0-.01,0-.01.01-.01.03,0,.01,0,.03-.01.05,0,.03-.02.05-.03.06,0,.01-.01.02-.02.03-.05.09-.04.2-.03.23,0,.02,0,.03.01.05-.02-.04-.04-.1-.05-.17,0-.1.03-.17.04-.21.04-.1.12-.17.18-.23.03-.03.06-.05.08-.07.05-.04.07-.05.06-.07,0,0-.02-.01-.09.02-.08.03-.14.08-.16.11h0s.07-.07.12-.11c.05-.03.1-.06.1-.06.03-.01.05-.02.06-.03.02-.01.04-.02.06-.03.05-.05.07-.11.07-.12,0,0,0,0,0-.01,0,0-.01,0-.02.01-.02.02-.05.07-.11.09,0,0-.02,0-.02,0,0,0-.02,0-.04,0,0,0,0,0-.01,0-.04,0-.08.01-.12.05-.02.01-.02.03-.03.05-.01.02-.02.04-.05.08,0-.01.01-.02.02-.03.04-.06.06-.1.08-.12.02-.02.04-.03.06-.04.01,0,.03-.01.05-.03.08-.05.14-.1.2-.16.03-.03.05-.05.06-.06.01-.02.03-.03.06-.06h0s.02-.03.02-.03c0,0,0,0,0,0-.02,0-.12.03-.19.08-.08.05-.14.11-.17.13,0,.01-.02.02-.02.03,0-.01,0-.02,0-.03,0-.01,0-.02.01-.03,0-.01.01-.03.03-.07,0,0,0-.01,0-.02.01-.04.02-.06.03-.08.01-.02.02-.03.02-.03,0,0,0-.01,0-.02,0,0-.01,0-.01,0-.03.01-.19.12-.2.25v.03s0,.05-.01.09c0,.02-.01.03-.02.04,0,.01-.01.02-.02.04-.03.05-.04.09-.05.13,0,0,0,.01,0,.02,0-.02,0-.03,0-.04,0-.03,0-.05.01-.09,0-.05,0-.07,0-.09,0-.02,0-.03,0-.05.01-.03.02-.05.04-.07.01-.02.03-.04.05-.08.03-.07.04-.14.04-.15,0,0,0,0,0,0,0,0,0,0,0,0,0,0,0,0,0,.01,0,0,0,.02-.01.03,0,0,0,.01-.01.02-.02.03-.06.07-.06.07-.04.04-.09.12-.12.18-.01.03-.02.05-.02.09,0,.02,0,.05-.01.09,0,0,0,0,0,.01,0-.1-.02-.15-.04-.17,0,0,0-.01-.02-.03-.02-.02-.02-.03-.03-.03s0,.01,0,.02c0,.02.02.09,0,.2,0,.05-.02.08-.02.1,0,.02-.01.04-.02.09,0,.06,0,.11.01.16,0,0,0,0,0,.01,0-.02-.01-.03-.02-.04-.02-.05-.03-.07-.06-.09-.01-.01-.03-.02-.08-.05h0s-.05-.03-.05-.02c-.01,0,0,.03.03.08.03.04.06.1.1.17.03.05.05.11.07.16.01.03.02.06.03.09-.02-.01-.05-.03-.09-.05-.04-.02-.05-.03-.06-.02,0,0,0,.02.01.03,0,0,0,0,0,0,.02.02.02.04.03.07,0,.02.01.03.02.05.02.04.05.07.08.09.04.04.08.07.11.11.02.02.03.04.05.06.02.02.03.05.05.07.01.01.02.02.03.03-.03-.02-.05-.03-.07-.04s-.04-.02-.07-.04c-.03-.02-.09-.07-.13-.14,0,0,0,0,0,0-.01-.02-.02-.03-.03-.03,0,0,0,0,0,0,0,.01.02.09.04.13.05.13.13.2.19.23.02.02.04.02.06.03.03.01.07.03.15.07.06.03.09.05.09.05-.02.01-.15,0-.26-.05-.01,0-.02-.01-.03-.02-.02-.01-.04-.02-.04-.01,0,0,0,0,0,0,0,.02.06.09.12.13.02.01.03.02.05.03.07.03.15.05.23.06.03,0,.07,0,.1,0,.06,0,.11,0,.17.01.02,0,.07.02.08.03h0s.03.01.04.02c-.04.02-.08.03-.11.04-.03.01-.06.02-.09.03,0,0,0,0-.01,0-.02,0-.05.01-.06.02h0s0,0,0,.01c0,0,0,.01,0,.01.01.02.04.02.05.02h0s.02,0,.03,0c.02,0,.04,0,.07-.02,0,0,0,0,.01,0,.03-.01.06-.02.08-.04.04-.02.08-.04.12-.05.02.01.05.02.08.02.01,0,.02,0,.03,0,0,0,.01,0,.02-.01,0,0,.02,0,.03.01h0s.05.03.07.04c.02.01.04.02.07.04.04.02.07.02.1.03h0s.05-.01.05-.03c0-.01,0-.02,0-.03h0s-.01-.02-.02-.02l-.06-.03s-.04-.02-.06-.03h0s.04-.01.06-.01c.01,0,.03,0,.06.01.02,0,.03,0,.04.01.01,0,.02,0,.03,0h0s.02,0,.02,0c0,0,.01,0,.03,0,.02,0,.02,0,.04,0h.01s.07,0,.1-.01c.02,0,.04-.02.08-.04.04-.02.05-.03.04-.04,0,0-.01,0-.02,0h0s-.02,0-.03,0c0,0,.02,0,.02,0,.02,0,.04-.01.07-.03.07-.03.08-.04.09-.05,0,0,.05-.04.04-.06,0,0-.02,0-.03,0,0,0-.01,0-.02,0-.02,0-.04,0-.07,0,0,0-.02,0-.03,0,0,0-.02,0-.03,0,0,0,.02-.01.02-.02,0,0,.01,0,.02,0s.01,0,.02,0c.03-.01.05-.05.04-.07,0,0,0,0,0-.01.02,0,.04-.01.06-.01.04,0,.06-.01.08-.02.03,0,.04,0,.05-.01.03-.02.06-.06.1-.14.05-.08.05-.09.04-.1s-.02,0-.06.01h0s-.03.01-.04.02h0s0-.02,0-.02c0-.01,0-.02,0-.03,0-.01.01-.02.02-.03,0,0,.01-.01.02-.02,0,0,.04-.06.03-.08,0,0-.02,0-.03,0-.01,0-.03.02-.06.03,0,0-.02,0-.02,0,.02,0,.03-.02.03-.02.02-.02.03-.06.01-.08,0-.01-.02-.02-.04-.02,0,0-.01,0-.02,0,0-.01.01-.02.02-.03.02-.03.04-.05.06-.07ZM13.13,11.63s.02-.02.02-.03c0,0,0,0,0,.01,0,.03,0,.05,0,.06,0,0,0,0,0,.01,0,0,0,0,0,0h0s0-.03-.02-.03c0,0-.01,0-.02,0,0,0,0-.01.01-.02ZM13.1,11.66h0s.01,0,.02,0c0,0,.01.01.02.01,0,0,0,.02.01.03v.02s-.01.01-.02.02c0,0-.02.02-.03.03-.01,0-.03-.02-.03-.04,0,0-.01-.03,0-.05,0,0,0-.02.01-.02,0,0,.02-.01.03-.01ZM13.07,11.51s.02-.07.02-.11c0-.02,0-.03,0-.04,0-.02,0-.04,0-.06,0-.01,0-.02.01-.03,0,0,0,.01,0,.02,0,.03,0,.05,0,.07,0,.01,0,.02,0,.03,0,.06,0,.12-.01.15,0,.02,0,.02-.01.03,0,.02-.01.03-.01.05,0,.01,0,.02,0,.03,0,0-.01,0-.02.01,0,0,0,0,0,0,0-.02-.01-.04,0-.05,0,0,0-.02,0-.02h0s0-.02,0-.02c0-.01.01-.03.02-.07ZM12.91,11.42h0s.02.04.03.05c.04.07.03.09.03.09,0,0-.05-.02-.07-.05-.03-.03-.08-.06-.13-.12-.02-.03-.04-.05-.05-.07,0-.02-.01-.02-.01-.03h0s0,0,0,0h0s.09.03.13.07c.02.02.04.04.05.06ZM12.9,11.38s0,0,0,0c0,0,0,0,0,0h0ZM12.8,11.13s.03.02.05.04c.02.02.04.04.06.06,0,.02,0,.04,0,.06-.02-.03-.03-.05-.05-.08-.01-.02-.02-.03-.04-.05,0,0,0,0-.01,0,0,0,0,0,0,.01.01.02.02.03.04.05.02.03.04.06.06.09,0,.02,0,.03,0,.05-.02-.02-.05-.05-.06-.07-.02-.03-.04-.06-.05-.1,0-.01-.01-.03-.01-.05,0,0,.01,0,.02-.01,0,0,0,0,0,0ZM12.73,11.07s0,0,.02,0c0,0,0,0,.01,0s.02,0,.02.02c0,0,0,.02,0,.02,0,0,0,0,0,0,0,.01-.02.01-.02.01-.02,0-.04,0-.05-.02h0s-.01-.01-.01-.02c0-.01.01-.02.03-.03ZM12.71,11.14s0,.02,0,.03c0,.01-.02.01-.02.01-.01,0-.03,0-.03-.02,0-.01,0-.03,0-.03,0,0,0,0,.01-.01,0,0,.01,0,.01,0,0,0,0,0,0,0,.01,0,.02.01.02.02ZM12.54,10.92s-.02-.04-.02-.05c0-.01-.01-.02-.01-.02,0,0,.01,0,.06.02.02.01.05.03.08.07.03.04.04.08.04.1,0,.01,0,.02,0,.03h0s0,.02,0,.02c0-.02-.01-.03-.02-.04,0-.01-.01-.02-.02-.03,0,0-.01-.01-.02-.02-.01-.02-.02-.04-.03-.06,0,0,0,0-.01,0,0,0,0,0,0,.01,0,.02.02.04.04.06,0,.01.02.02.02.03,0,0,.01.01.02.02,0,.01.01.02.01.03-.03-.04-.06-.07-.1-.09h0s0,0,0,0,0,0,0,0c0-.02,0-.04-.02-.07ZM12.39,11.02s-.03-.06-.04-.07c0,0,.02.02.04.03,0,0,.02,0,.02,0,.01,0,.02,0,.03,0s.03,0,.04,0c.02,0,.04.01.06.02,0,0,0,0,0,0h0s.07.05.1.09c0,0-.02.01-.02.02h0s-.02,0-.03-.01c-.01,0-.02,0-.03-.01,0,0-.01,0-.02-.01-.03-.01-.05-.02-.06-.03-.01,0-.02-.01-.04-.02-.02-.01-.03-.03-.04-.05,0,0,0,0,0,0h0s0,0,0,.01c.01.02.03.04.05.05.02.01.03.02.04.02.01,0,.03.01.06.03,0,0,.01,0,.02.01,0,0,.01,0,.03.01s.02.01.03.02h0s-.03.01-.05.01c-.02,0-.07,0-.12-.04-.01-.01-.03-.02-.03-.03,0,0,0,0,0,0-.01-.02-.03-.04-.04-.06ZM12.37,11.12s.05.04.08.05c.03.01.06.02.1.02,0,0,.02,0,.02,0,0,0,0,.01,0,.02-.07,0-.12-.03-.16-.05-.06-.03-.1-.06-.11-.07h0s.03,0,.05,0h.01s.04,0,.05,0c.01.01.02.02.03.03.05.03.1.04.12.04h.02s.02,0,.03,0c0,0,0,0,0,0,0,0,0,0,0,0-.02,0-.04,0-.05.01h0s-.02,0-.03,0c-.04-.01-.07-.01-.1-.03-.03-.01-.06-.03-.08-.05,0,0,0,0,0,0s0,0,0,0c0,0,0,.01,0,.01ZM12.66,11.26s-.02.01-.03.01c-.01,0-.03,0-.03-.01,0-.01-.01-.02-.01-.03,0-.01,0-.02.01-.03,0,0,.02-.01.02-.01s.02,0,.02,0c0,0,.01,0,.02.01.01.01.01.03,0,.05ZM12.68,11.24s0-.02-.01-.03c0,0,0,0,0,0,0,0,0,0,.01,0h0s.03,0,.04-.02c0-.01,0-.03,0-.04.01,0,.02,0,.03,0,0,.02.01.04.01.05.01.04.03.07.05.11.01.02.02.03.04.05-.04-.04-.11-.07-.14-.07,0,0,0-.01-.01-.02,0,0-.02-.02-.03-.02ZM12.87,11.59s-.03-.01-.03-.01c-.01,0-.02,0-.02,0,0,0-.01,0-.02,0,0,0-.01,0-.02-.01-.03-.01-.05-.04-.08-.08-.03-.04-.04-.05-.04-.06,0,0,.02,0,.03.01h0s.02.01.03.01c.02.04.05.07.07.08h0s.03.02.05.03c.01,0,.02.01.04.02.01.01.02.02.03.04-.02-.01-.03-.02-.04-.02ZM12.95,11.63s-.04-.06-.06-.08c-.02-.01-.03-.02-.04-.03s-.02-.01-.04-.03c-.02-.02-.08-.07-.09-.14,0-.01,0-.02,0-.03.01.02.03.04.05.08.05.06.09.1.13.13.04.03.06.05.08.05,0,0,0,0,.01,0,.01,0,.02-.03-.02-.11,0-.01-.02-.03-.03-.05,0-.04,0-.08,0-.12,0-.02,0-.05,0-.07h0c.01-.06.03-.11.04-.12,0,0,0,0,0,0h0s.01.05.02.07c0,.01,0,.02.01.04.01.04.03.11.04.18,0,.06,0,.13-.02.19h0s0,.02,0,.03c0,.03,0,.05.02.08,0,.03,0,.06,0,.06,0,.02.02.04.04.05-.02.02-.04.05-.06.08-.02.04-.02.06-.02.1,0-.02,0-.04,0-.06,0-.02.01-.05.02-.08,0-.03,0-.12-.06-.19,0,0,0,0-.01-.01ZM12.96,11.71s.03.08.03.14v.03s0,.03,0,.04h0s0,.08.02.12c0,0,0,.01,0,.02,0-.02,0-.03-.02-.05-.01-.03-.02-.04-.03-.05-.01-.01-.02-.02-.03-.04,0-.03,0-.04,0-.06,0-.01,0-.02,0-.04,0-.02,0-.03,0-.05,0-.02,0-.04,0-.05,0-.01,0-.03,0-.03,0,0,.03.01.05.04ZM12.93,12.04s-.03-.05-.05-.07c-.02-.02-.03-.04-.04-.08-.02-.06,0-.12,0-.12h0s.01.02.03.03c0,0,.02.01.03.01,0,.01,0,.02,0,.03,0,.02,0,.04,0,.07.01.03.02.04.03.05.01.01.02.02.03.05s.02.05.02.08c0,.01,0,.03-.01.04,0,0,0,0,0,0h0s-.02-.07-.03-.1ZM12.91,12.18h0s0-.02.02-.02c0,0,.01,0,.02,0,0,0,0,0,.01,0,0,0,.01.01.01.02,0,.01,0,.03,0,.04,0,0,0,.01,0,.02,0,0,0,.01-.01.02,0,0-.02,0-.03,0-.01,0-.02-.02-.03-.03,0,0,0-.02,0-.03ZM12.79,12.43s-.01-.03-.01-.05,0-.03.01-.04c0-.01.01-.02.01-.05,0-.03,0-.05,0-.07,0-.02,0-.04,0-.06,0,0,0,0,0-.01,0,0,.01-.01.03-.03h0s0,0,0,0h0s0,.02,0,.02c0,.02.02.03.04.04,0,0,0,0,0,0-.01.01-.02.03-.02.04-.02.05-.01.1-.01.13,0,.02,0,.04,0,.05,0,.02,0,.03,0,.05,0,.01,0,.03,0,.04h-.01s-.02,0-.03.01c0,0,0-.01,0-.01h0s-.01-.05-.02-.06ZM12.8,12.54s.02-.03.05-.03h0s0,0,.01,0c0,0,.01,0,.01,0,.01.02-.01.05-.02.06-.02.03-.04.05-.05.05,0,0,0,0-.01-.01,0,0,0,0,0-.01,0,0,0-.02,0-.02,0-.01,0-.03.01-.04ZM12.61,12.64s.01-.01.02-.02c.03-.03.06-.05.06-.05,0,0,.01,0,.01,0,.02-.01.03-.02.04-.04,0,0,0-.01,0-.02,0,0,.01.02.01.04,0,.01,0,.02,0,.04,0,.01,0,.02,0,.02h0c0,.06-.03.1-.05.13-.01.02-.02.03-.04.04,0,0-.01.01-.02.02,0,.01-.02.02-.03.03,0,0,0,0,0,.01,0,.01-.01.02-.03.03-.01.01-.02.02-.03.03h0c-.05,0-.1.02-.13.03.01-.01.03-.02.05-.05.01-.02.02-.03.02-.04,0-.02.01-.03.03-.06,0-.01.01-.02.02-.02,0,0,.01-.01.02-.03.01-.02.03-.05.04-.09h0ZM11.22,12.11s.01-.03.01-.03c0,0,0,.01.01.04,0,.03.01.06.02.09,0,.04,0,.07,0,.11,0,.02,0,.04,0,.06,0,.04,0,.07.01.11,0,0,0,.02,0,.02,0-.01-.02-.02-.02-.04-.04-.07-.05-.14-.06-.18,0-.04,0-.08,0-.13,0-.02.01-.04.02-.06ZM10.95,11.97c-.02-.05-.04-.11-.07-.16-.04-.07-.07-.13-.1-.17-.01-.02-.02-.04-.03-.05,0,0,.02.01.03.02h0s.07.04.08.05c.03.02.03.04.05.09,0,.02.02.05.03.08,0,0,0,.01,0,.02,0,.02.02.04.03.06.01.03.02.06.04.09,0,0,0,0,0,0h0s0,0,0-.01c-.03-.07-.06-.15-.08-.22-.01-.05-.02-.09-.02-.15,0-.04.01-.06.02-.08s.02-.05.03-.11c0-.08,0-.14,0-.18,0,0,0,0,0,.01.02.03.04.08.04.22,0,.05,0,.08,0,.12,0,.04,0,.07,0,.13,0,.04.01.07.03.11,0,0,0,0,.01,0,0,0,0,0,0-.01-.01-.03-.02-.07-.02-.1,0-.05,0-.08,0-.12,0-.03,0-.05,0-.09,0-.03.01-.06.02-.09,0-.04.01-.07.01-.1,0-.03,0-.05.02-.08.02-.06.07-.13.11-.17,0,0,.03-.03.05-.07,0,.02-.02.04-.03.07-.02.04-.03.06-.05.07-.01.02-.03.04-.04.07,0,.02,0,.03,0,.05,0,.02,0,.04,0,.09,0,.03,0,.06-.01.08,0,.03-.01.06-.02.12,0,.02,0,.05,0,.06,0,.02,0,.03,0,.03h0s0,0,.01-.02c0-.03.01-.09.04-.16.01-.04.02-.08.05-.13,0-.02.02-.03.02-.04,0-.01.02-.02.02-.04.02-.04.02-.07.01-.1v-.03c0-.1.11-.19.16-.22,0,0,0,0,0,0-.02.03-.02.05-.04.08,0,0,0,.01,0,.02-.01.04-.02.06-.03.07,0,.02-.01.02-.01.04,0,.02,0,.04,0,.05-.03.04-.06.08-.09.13,0,0,0,.01,0,.01s0,0,.01,0c.03-.04.05-.09.09-.13.01-.02.03-.03.04-.04.03-.03.08-.08.16-.13.07-.04.15-.07.17-.07,0,0,0,0-.01.01h0s-.05.05-.06.07c-.01.02-.03.03-.06.06-.06.06-.11.11-.19.16-.02.01-.04.02-.05.03-.03.01-.04.02-.06.04-.02.02-.04.06-.08.12-.02.03-.03.05-.04.06-.01.02-.02.03-.01.04,0,0,.02,0,.03-.02,0-.01.02-.02.03-.03.03-.04.04-.06.05-.08.01-.02.02-.03.03-.05.03-.03.08-.04.11-.04,0,0,0,0,0,0,.02,0,.03,0,.03,0,0,0,.02,0,.03,0,.05-.01.09-.05.11-.07-.01.02-.03.05-.06.07-.02.02-.03.02-.05.03-.02,0-.04.01-.06.03,0,0-.05.02-.1.06-.14.09-.2.26-.2.27,0,0,0,0,0,0h0s0,0,.01,0c.03-.06.07-.11.09-.14.02-.02.08-.07.15-.11.04-.02.05-.02.06-.02-.01.01-.03.03-.05.04-.03.02-.06.04-.09.07-.06.06-.14.13-.19.23-.01.04-.05.11-.04.21,0,.12.07.21.08.22,0,0,0,0,0,0,0,0,0,0,0,0s0-.01,0-.02c0-.01-.02-.04-.02-.08,0-.03-.02-.13.03-.22,0-.01.01-.02.02-.03.01-.02.02-.04.03-.07,0-.02,0-.04,0-.05,0,.02.01.05.01.08,0,.05-.01.09-.02.13,0,.01,0,.02-.01.04,0,.02-.02.08-.03.16,0,.02,0,.04,0,.06,0,.02,0,.04,0,.06,0,.03.01.07.02.11l-.02-.03s-.03-.06-.04-.08c0-.02-.02-.04-.03-.07-.01-.03-.05-.08-.11-.13t-.02-.01s-.02-.07-.03-.11ZM11.67,13.14h0s-.04,0-.04-.02c0,0,0,0,0,0,.02,0,.03,0,.05,0,.04,0,.06,0,.07.01,0,0,0,0,.01,0-.03.01-.05.01-.08,0ZM11.85,13.09s-.05.03-.08.04c0,0,0,0-.01,0,0,0-.01-.01-.02-.01-.01,0-.03-.01-.07-.01h-.01s0,0,.01,0c0,0,.01,0,.01,0,.03-.01.06-.02.09-.03.04-.01.08-.03.13-.05.01,0,.02.01.03.01,0,0,.01,0,.02.01,0,0,0,0,0,0-.04.01-.07.03-.11.05ZM12.09,13.05s0,0-.01,0c-.03.01-.06,0-.09-.02,0,0-.02,0-.03-.01,0,0-.01,0-.02-.01,0,0-.02-.01-.03-.02-.02,0-.04-.02-.06-.02h0s-.06-.03-.08-.03c-.03-.01-.07-.01-.1-.01-.02,0-.04,0-.07,0-.03,0-.06,0-.1,0-.08,0-.16-.03-.22-.06-.02-.01-.03-.02-.05-.03-.05-.04-.09-.09-.11-.11,0,0,.01,0,.02.01,0,0,.02.01.03.02.11.05.24.06.27.05,0,0,.01,0,.01-.01,0,0,0-.01-.02-.02-.01-.01-.04-.03-.09-.05-.08-.04-.13-.06-.15-.07-.02-.01-.04-.02-.06-.03-.05-.04-.13-.11-.18-.23-.02-.04-.03-.07-.03-.1,0,0,0,0,0,0,0,0,0,0,0,0,.05.07.11.12.14.14.03.02.05.03.07.04.02.01.05.02.1.06.01,0,.02.01.03.02.03.02.03.02.04.02,0,0,0-.01,0-.02l-.02-.02s-.05-.04-.08-.08c-.02-.02-.03-.04-.05-.07-.02-.02-.03-.04-.05-.06-.03-.04-.07-.07-.11-.11-.03-.02-.06-.05-.08-.09,0-.01-.01-.03-.02-.05,0-.02-.01-.05-.03-.07,0,0,0,0,0,0,0,0,.02.01.03.01.05.03.09.05.1.06.02.01.02.01.02.01.06.04.09.1.1.13.01.03.02.05.03.06.01.03.02.05.04.09.02.02.03.05.05.07,0,0,.01.02.02.03.05.08.11.13.12.13,0,0,0,0,0,0s0,0,0,0c0,0,0,0,0-.01-.01-.01-.05-.05-.07-.11-.01-.04-.01-.06,0-.1,0-.02,0-.04,0-.06,0-.04,0-.08,0-.12,0-.04-.01-.06-.01-.08,0-.02,0-.03,0-.04.01,0,.04.05.06.11.02.06.02.09.03.14,0,.03,0,.07.01.12.01.08.02.15.07.22.05.08.14.15.17.15,0,0,.01,0,.02,0,.01-.01,0-.04-.05-.12,0-.02-.02-.03-.03-.05-.02-.02-.03-.05-.05-.08-.01-.02-.02-.04-.02-.05.01,0,.04.03.06.05.04.04.06.08.08.11.01.02.03.05.05.08.04.05.07.07.13.11.04.03.09.06.12.08.02.01.03.02.05.03.02,0,.03.01.05.02.01,0,.02,0,.03.01,0,0,.01,0,.02,0,0,0,0,0,0,0,0,0,.01,0,.02.01,0,0,0,0,0,0h0ZM12.42,13.13s0,.01,0,.02c0,.02-.03.02-.04.02-.03,0-.05,0-.08-.02,0,0,0-.01.02-.01.03-.02.05-.01.07-.01.01,0,.03,0,.04,0ZM12.34,13.08s.04.02.05.03c0,0,0,0-.01,0-.02,0-.05,0-.08.01,0,0-.02.01-.02.02-.02-.01-.04-.02-.06-.03-.02-.01-.05-.03-.07-.04h0s-.02-.01-.03-.01h0s0-.02-.01-.02c0,0-.02-.01-.02-.01,0,0,0,0,0,0,0,0-.01,0-.02,0h-.03s-.02-.02-.03-.03c.03-.01.05-.02.08-.01.03,0,.06.01.08.03,0,0,.01,0,.02,0,0,0,0,0,0,0,.02.01.05.02.08.04h0s.05.03.08.04ZM12.76,12.96h0s-.01,0-.03.02c-.04.02-.06.03-.07.04-.02,0-.05,0-.09.01h-.01s-.02,0-.04,0-.02,0-.03,0c0,0-.01,0-.02,0-.01,0-.02,0-.03,0-.01,0-.02,0-.04-.01-.03,0-.05-.01-.06-.01-.03,0-.05,0-.07.01h0s-.01,0-.02,0c-.02-.01-.04-.02-.06-.03.02,0,.03-.01.05-.02.06-.02.07-.03.08-.04.01-.02.02-.04.02-.05,0-.02,0-.03.01-.06,0-.01.01-.02.02-.02,0,0,.02-.02.03-.04,0-.01.01-.03.02-.04,0-.01,0-.02.02-.04.02-.02.03-.04.05-.06.03-.03.08-.04.1-.03,0,0,0,.03,0,.05h0s-.02.07-.03.09c0,.01-.01.02-.02.02,0,0-.01.01-.02.02-.02.03-.03.04-.03.06,0,.01,0,.02-.02.04-.02.03-.05.05-.07.06-.01,0-.02.01-.02.02,0,.01.01,0,.04,0,.03,0,.08-.02.14-.03h0s.03,0,.05,0c.02,0,.03,0,.04,0,.01,0,.02.01.04.01,0,0,.01,0,.02,0,.01,0,.03.01.06.01ZM12.82,12.81s.02,0,.03,0c.01,0,.02,0,.02,0,.02,0,.03,0,.05,0,0,0,.02,0,.02,0h0s-.01.02-.02.02c0,0,0,0,0,.01,0,0-.02.02-.09.05-.03.01-.05.02-.07.03-.02,0-.03,0-.05.01h-.01s-.02-.02-.04-.02c0,0-.01,0-.02,0,0,0,0,0,0,0h0s.02-.02.04-.02c.02,0,.04,0,.05,0,0,0,.01,0,.02,0,.03,0,.07,0,.11-.03,0,0,0,0,0-.01,0,0,0,0,0,0t0,0s-.07.03-.1.03h-.02s-.03,0-.06,0c-.02,0-.04.02-.05.02h0s-.02.01-.04.02h-.02s.01-.01.02-.01c.01-.01.02-.02.03-.04,0,0,0,0,0-.01,0-.01.01-.02.02-.03.02,0,.05,0,.07,0,.04,0,.08,0,.08,0ZM12.85,12.76s-.03,0-.04,0-.02-.02-.02-.03c0-.02,0-.04.03-.05,0,0,0,0,.02,0,.02,0,.03.01.04.02,0,0,0,0,0,0,0,0,0,0,0,.01,0,.02,0,.05-.03.05ZM13.13,12.45s.03-.01.04-.02h0l.04-.02s0,.03-.04.08c-.04.07-.07.11-.1.13-.01,0-.01,0-.05.01-.02,0-.04.01-.08.02-.02,0-.04.01-.06.01h-.01s.03-.03.05-.03c.02,0,.03,0,.05,0,.01,0,.03,0,.05,0,.05-.02.08-.06.09-.07.01-.02.02-.04.03-.06,0,0,0,0,0-.01,0,0-.01,0-.01,0,0,.02-.02.04-.03.06,0,.01-.04.05-.08.06-.02,0-.03,0-.05,0-.02,0-.03,0-.05,0-.02,0-.04.02-.05.03,0,0,.01-.02.02-.02,0-.01.02-.02.04-.02,0,0,.02,0,.04-.02.06-.03.15-.07.17-.13h0ZM13.1,12.31s.05-.02.07-.03c0,0,0,0,.01,0,0,0-.01.03-.03.06,0,.01-.01.02-.02.02,0,0-.01.02-.02.03,0,.02,0,.03,0,.04,0,0,0,.01,0,.02,0,.06-.11.11-.17.14-.01,0-.03.01-.03.02-.02,0-.03.01-.04.03,0,.01-.01.02-.02.03-.01,0-.02,0-.03,0,0,0,0,0,0,0-.03.01-.04.04-.04.07,0,.02.01.03.02.04-.01.01-.02.02-.04.03h-.02s-.03,0-.05,0c0,0,0,0,0,0,.01-.01.02-.02.04-.04.02-.02.05-.06.05-.11,0,0,0,0,.01,0,0,0,0,0,0,0s.01,0,.01,0c.02-.01.04-.04.05-.06.01-.02.04-.06.02-.08,0,0-.01-.01-.02-.01,0-.01,0-.03.01-.04,0-.02,0-.03,0-.05,0-.01,0-.03,0-.05,0-.03,0-.08.01-.13,0,0,0-.01,0-.02,0,0,0,0,0,.01,0,.02.02.03.04.04,0,.02,0,.05,0,.08,0,.05-.02.09-.03.11,0,.02-.01.03,0,.03s.01,0,.02-.02c0-.01.01-.02.03-.03.01-.02.02-.02.03-.03,0,0,.01-.01.02-.02.01-.02.02-.03.03-.04,0-.01,0-.02.02-.02,0,0,.01,0,.02,0,0,0,.02,0,.04,0ZM13.07,12.19s.03,0,.03.01c.01.01,0,.04-.01.06,0,0-.02.02-.05.01,0,0-.02,0-.02-.02,0-.02,0-.03.01-.04,0,0,0,0,.01-.01,0,0,.02,0,.03,0ZM13.04,12.19s-.01.01-.01.01c-.02.02-.02.04-.01.06,0,.02.03.03.03.03,0,0,0,0,0,0,0,0,0,0-.01,0-.01,0-.02.02-.02.03,0,0-.01.02-.02.04,0,.01-.01.02-.02.02,0,0-.02.01-.03.03,0,0-.01.02-.02.02,0-.02.02-.06.02-.1,0-.02,0-.05,0-.07h0s.01,0,.02,0c.02,0,.03-.03.03-.04,0-.02,0-.04,0-.05t0,0s0,0,0,0c0,.01,0,.02.01.02h0s.03-.03.05-.08c.02-.04.02-.06.03-.07s0-.03.02-.05c.01-.02.03-.03.04-.05.01-.01.03-.02.04-.05.01-.02.02-.05.02-.08,0,0,0,0,0,0s0,0,0,0c0,.03,0,.05-.02.07-.01.03-.02.04-.04.05-.01.01-.03.02-.04.05-.01.02-.02.03-.02.05,0,.02-.01.04-.03.07-.01.02-.03.06-.04.07,0,0,0-.02,0-.03,0,0,0-.02,0-.03h0s.01-.04.01-.06c0-.02,0-.04,0-.06,0-.04,0-.06.02-.09.03-.05.07-.09.09-.12.01-.02.03-.03.04-.03.02-.02.04-.03.06-.06h0s0,0,0,0c0,.02,0,.11-.02.2-.01.05-.02.09-.06.14-.02.03-.03.04-.05.06-.02.02-.04.04-.06.07,0,.02-.02.03-.02.05Z"/>
          <path class="cls-7" d="M13.25,11.67s0,.11-.01.2c-.01.05-.02.09-.06.14-.02.02-.04.04-.05.06-.02.02-.04.04-.06.07-.01.02-.02.03-.02.05,0,0-.01.01-.01.01-.02.02-.02.04-.01.06,0,.02.03.03.03.03,0,0,0,0,0,0,0,0-.01,0-.02,0-.01,0-.02.02-.02.03,0,.01-.01.02-.02.04,0,.01-.01.01-.02.02,0,0-.02.01-.03.03,0,0-.01.02-.02.02,0-.02.02-.06.02-.1,0-.02,0-.05,0-.07,0,0,0,0,0,0,0,0,.01,0,.02,0,.02,0,.03-.03.03-.04,0-.02,0-.04,0-.05t0,0s0,0,0,0c0,.01,0,.02.01.02h0s.03-.03.05-.08c.02-.04.02-.06.03-.07,0-.02,0-.03.02-.05.01-.02.03-.03.04-.05.01-.01.03-.03.04-.05s.02-.05.02-.08c0,0,0,0,0,0h0s0,0,0,0c0,.03,0,.05-.02.08,0,.02-.02.03-.04.05-.01.01-.03.03-.04.05-.01.02-.02.03-.02.05,0,.02-.01.04-.03.07-.01.02-.03.06-.04.07,0,0,0-.02,0-.03,0,0,0-.02,0-.03h0s.01-.04.01-.06c0-.02,0-.04,0-.06,0-.04,0-.06.02-.09.03-.05.07-.09.09-.12.01-.01.03-.02.04-.03.02-.02.04-.03.06-.06h0s0,0,0,0Z"/>
          <path class="cls-7" d="M13.22,12.42s0,.02-.04.08c-.04.08-.07.11-.1.13-.01,0-.01,0-.05.01-.02,0-.04.01-.08.02-.02,0-.04.01-.06.01h0s0,0-.01,0c.01-.01.03-.02.05-.02.02,0,.03,0,.05,0,.02,0,.03,0,.05,0,.05-.02.08-.06.09-.07.01-.02.02-.04.03-.06,0,0,0,0,0-.01,0,0-.01,0-.01,0,0,.02-.02.04-.03.06,0,.01-.04.05-.08.06-.02,0-.03,0-.05,0s-.03,0-.05,0c-.02,0-.04.02-.05.03,0,0,0-.02.01-.02,0-.01.02-.02.04-.02,0,0,.02,0,.04-.02.06-.03.15-.07.17-.13h0s.03-.02.05-.02h0s.03-.02.04-.02Z"/>
          <path class="cls-7" d="M13.16,11.68s0,0,0,0h0s0-.03-.02-.03c0,0-.01,0-.02,0,0,0,0-.01.01-.02,0-.01.02-.02.02-.03h0s0,.06,0,.07c0,0,0,0,0,.01Z"/>
          <path class="cls-7" d="M13.15,11.72v.02s-.01.01-.02.02c0,0-.02.02-.03.03-.01,0-.03-.02-.03-.04,0,0-.01-.03,0-.05h0s0-.02.01-.02c0,0,.02-.01.03-.01h0s.02,0,.02,0c0,0,.01.01.02.01,0,0,0,.02.01.03Z"/>
          <path class="cls-7" d="M13.1,12.2s0,.04-.01.06c0,0-.02.02-.05.01,0,0-.02,0-.02-.02,0-.02,0-.03.01-.04,0,0,0,0,.01-.01h0s.01,0,.03,0c.02,0,.03,0,.03.01Z"/>
          <path class="cls-7" d="M13.1,11.38c0,.06,0,.12-.01.15,0,.01,0,.03-.01.03,0,.02-.01.03-.01.05,0,.01,0,.02,0,.03,0,0-.01,0-.02.01,0,0,0,0,0,0,0-.02,0-.04,0-.05,0-.01,0-.02,0-.02h0s0-.01,0-.02c0-.01.01-.03.02-.07.01-.05.02-.07.02-.11,0-.02,0-.03,0-.04,0-.02,0-.04,0-.06,0-.01,0-.02.01-.03,0,0,0,.01,0,.02,0,.03,0,.05,0,.07,0,0,0,.02,0,.03Z"/>
          <path class="cls-1" d="M13.1,12.33s0,.01,0,.01c-.03.01-.05.02-.06.04,0,0,0,.01,0,.02,0,.01,0,.02,0,.03,0,.02-.01.03-.06.07-.02.02-.03.03-.05.05,0,0,0,0,0,0s0,0,0,0c0,0,0-.01,0-.01.02-.02.03-.03.05-.05.04-.04.05-.05.06-.07,0-.01,0-.02,0-.03,0-.01,0-.02,0-.03.01-.02.04-.04.07-.05,0,0,.01,0,.01,0Z"/>
          <path class="cls-7" d="M13.05,11.75s-.01-.03,0-.06c-.01-.02-.02-.05-.02-.08,0,0,0-.02,0-.03h0c.02-.07.02-.13.02-.2,0-.07-.03-.14-.04-.18,0-.02-.01-.03-.01-.04,0-.02-.01-.03-.02-.06h0s0-.01,0-.01c0,.02-.03.06-.04.12h0s0,.05,0,.07c0,.04,0,.08,0,.12.01.02.02.04.03.05.04.08.03.1.02.11,0,0,0,0-.01,0-.02,0-.04-.02-.08-.05-.04-.03-.08-.06-.13-.13-.03-.03-.04-.06-.05-.08,0,.01,0,.02,0,.03,0,.07.07.12.09.14.02.02.03.02.04.03s.02.01.04.03c.03.02.05.05.06.08,0,0,0,0,.01.01.06.07.06.16.06.19,0,.03,0,.05-.02.08,0,.02,0,.04,0,.06,0-.04,0-.06.02-.1.01-.03.04-.06.06-.08-.02-.01-.03-.03-.04-.05ZM13,11.54h0s0,0,0,0c0-.01,0-.03,0-.04,0-.01,0-.02,0-.03,0-.01,0-.03,0-.05,0-.04,0-.05,0-.06,0-.01,0-.02,0-.02,0,0,0-.01,0-.02,0-.01,0-.02,0-.04,0,0,0-.01,0-.02,0-.02,0-.04,0-.06,0,0,0,0,0,0s0,0,0,0c0,.02,0,.04,0,.06,0,0,0,.02,0,.02,0,.02,0,.03,0,.04,0,.01,0,.02,0,.02,0,0,0,0,0,.02,0,0,0,.02,0,.05,0,.02,0,.03.01.05,0,.01,0,.02,0,.03,0,.01,0,.03,0,.04,0,0,0,0,0,.01Z"/>
          <path class="cls-1" d="M13.01,11.53s0,0,0,0h0s0,0,0,0c0-.01,0-.03,0-.04,0-.01,0-.02,0-.03,0-.01,0-.03,0-.05,0-.04,0-.05,0-.06,0-.01,0-.02,0-.02,0,0,0,0,0-.02,0-.01,0-.02,0-.04,0,0,0-.01,0-.02,0-.02,0-.04,0-.06,0,0,0,0,0,0,0,0,0,0,0,0,0,.02,0,.04,0,.06,0,.01,0,.02,0,.02,0,.02,0,.03,0,.04,0,.01,0,.02,0,.02,0,0,0,0,0,.02,0,0,0,.02,0,.05,0,.02,0,.03,0,.05,0,.01,0,.02,0,.03,0,.02,0,.03,0,.05Z"/>
          <path class="cls-7" d="M13,12.04s0,.01,0,.02c0-.02,0-.03-.01-.05-.01-.03-.02-.04-.03-.05-.01-.01-.02-.02-.03-.04,0-.03,0-.04,0-.07,0-.01,0-.02,0-.04,0-.02,0-.03,0-.05,0-.02,0-.04,0-.05,0-.01,0-.03,0-.03,0,0,.03.01.05.04.03.04.03.08.03.14v.07h0s0,.08.02.12Z"/>
          <path class="cls-7" d="M12.98,12.17s0,.03,0,.04c0,0,0,.01,0,.02,0,0,0,.01-.01.02,0,0-.02,0-.03,0-.01,0-.02-.02-.03-.03,0-.01,0-.02,0-.03h0s.01-.02.02-.02c0,0,.01,0,.02,0,0,0,0,0,.01,0,0,0,.01.01.01.02Z"/>
          <path class="cls-7" d="M12.97,12.02s.02.05.02.08c0,.01,0,.03-.01.04,0,0,0,0,0,0,0,0,0,0,0,0,0-.03-.02-.06-.03-.09-.02-.03-.03-.05-.05-.07-.02-.02-.04-.04-.04-.08-.02-.06,0-.12,0-.12h0s.01.02.03.03c0,0,.02.01.02.01,0,.01,0,.02,0,.03,0,.02,0,.04,0,.07,0,.03.02.04.03.05.01.01.02.02.03.05Z"/>
          <path class="cls-7" d="M12.94,11.48c.04.07.03.09.03.09,0,0-.04-.02-.07-.05-.03-.03-.08-.06-.13-.12-.02-.02-.04-.05-.05-.07,0-.02-.01-.02-.01-.03h0s0,0,0,0h0s.09.03.14.06c.02.02.04.04.05.06h0s.02.04.03.05Z"/>
          <path class="cls-7" d="M12.91,11.23s0,.04,0,.06c-.02-.03-.03-.05-.05-.08-.01-.02-.02-.03-.04-.05,0,0,0,0-.01,0,0,0,0,0,0,.01.01.02.02.03.04.05.02.03.04.06.06.09v.05s-.04-.05-.06-.07c-.02-.03-.04-.06-.05-.1,0-.01-.01-.03-.01-.05,0,0,.01,0,.02-.01,0,0,0,0,0,0,.01,0,.03.02.05.04.02.02.05.04.07.06Z"/>
          <path class="cls-7" d="M12.91,11.61s-.03-.02-.04-.02c-.02,0-.03-.01-.03-.01-.01,0-.02,0-.02,0,0,0-.01,0-.02,0,0,0-.01,0-.02-.01-.03-.02-.05-.04-.08-.08-.03-.04-.04-.05-.04-.06,0,0,.02,0,.03.01h0s.02.01.03.01c.02.04.05.06.07.08h0s.03.02.05.03c.01,0,.02.01.04.02.01.01.02.02.03.04Z"/>
          <path class="cls-7" d="M12.88,12.7s0,.04-.03.05c-.01,0-.03,0-.04,0s-.02-.02-.02-.03c0-.02,0-.04.03-.05,0,0,0,0,.02,0,.02,0,.03.01.04.02h0s0,.01,0,.02Z"/>
          <path class="cls-7" d="M12.88,12.18s0,0,0,0c-.01.01-.02.03-.02.04-.02.05-.01.1-.01.13,0,.02,0,.04,0,.05,0,.02,0,.03,0,.05,0,.01,0,.03-.01.04h-.01s-.02,0-.03.01c0,0,0,0,0-.01h0s-.01-.05-.02-.06c0-.02-.01-.03-.01-.05s0-.03.01-.04c0-.01.01-.02.01-.05,0-.03,0-.05,0-.07,0-.02,0-.04,0-.06,0,0,0,0,0-.01,0,0,.01-.01.03-.03h0s0,0,0,0h0s0,.02,0,.02c0,.02.02.03.04.04Z"/>
          <path class="cls-7" d="M12.95,12.81s-.01,0-.02,0c-.02,0-.03,0-.05,0,0,0-.01,0-.02,0-.01,0-.02,0-.03,0,0,0-.05,0-.08,0-.02,0-.05,0-.07,0,0,0-.01.02-.02.03,0,0,0,0,0,.01,0,.01-.02.02-.03.04,0,0-.01.01-.02.01h.02s.03-.01.04-.02h0s.03-.02.05-.02c.02,0,.04,0,.06,0,0,0,.01,0,.02,0,.03,0,.06,0,.1-.03,0,0,0,0,0,0,0,0,0,0,0,0,0,0,0,.01,0,.01-.04.02-.07.03-.11.03,0,0-.01,0-.02,0-.02,0-.03,0-.05,0-.02,0-.03.01-.04.02h0s0,0,0,0c0,0,.01,0,.01,0,.02,0,.03.01.04.02h.01s.03,0,.05,0c.02,0,.04-.01.07-.03.07-.03.08-.04.09-.05.01-.01.03-.03.03-.03h0Z"/>
          <path class="cls-7" d="M12.87,12.52s-.01.05-.02.06c-.02.03-.04.05-.05.05,0,0,0,0-.01-.01,0,0,0,0,0-.01s0-.01,0-.02c0-.01,0-.03.01-.04,0-.01.02-.03.05-.03h0s0,0,.01,0h0s.01,0,.01,0Z"/>
          <path class="cls-7" d="M13.17,12.27s-.04.03-.07.03c-.02,0-.03,0-.04,0-.01,0-.02,0-.02,0-.01,0-.01.01-.02.02,0,.01-.01.03-.03.04,0,.01-.01.02-.02.02,0,0-.01.01-.03.03-.01.01-.02.02-.03.03-.01.01-.02.02-.02.02s0-.01,0-.03c0-.02.02-.06.03-.11,0-.02,0-.05,0-.08-.02,0-.03-.02-.04-.04,0,0,0,0,0-.01,0,0,0,.01,0,.02-.02.05-.01.09-.01.13,0,.02,0,.04,0,.05,0,.02,0,.03,0,.05,0,.02,0,.03-.01.04,0,0,.01,0,.02.01.02.02,0,.06-.02.08-.01.02-.03.04-.05.06,0,0-.01,0-.01,0s0,0,0,0c0,0,0,0-.01,0,0,.05-.04.08-.05.11-.01.02-.03.03-.04.04,0,0,0,0,0,0,.02,0,.04,0,.05,0h.02s.03-.02.04-.03c-.01,0-.02-.02-.02-.04,0-.03,0-.06.04-.07,0,0,0,0,0,0,.01,0,.02,0,.03,0,0-.01.01-.02.02-.03.01-.02.02-.02.04-.03,0,0,.02-.01.03-.02.06-.03.16-.08.17-.14,0,0,0-.01,0-.02,0-.01,0-.02,0-.04,0-.01.01-.02.02-.03,0,0,.01-.01.02-.02.02-.02.03-.05.03-.06,0,0,0,0-.01,0ZM13.09,12.34s-.05.02-.06.04c0,0,0,.01,0,.02s0,.02,0,.03c0,.02-.01.02-.06.07-.02.02-.03.03-.05.05,0,0,0,0,0,0,0,0,0,0,0,0,0,0,0,0,0-.01.01-.02.03-.03.05-.05.04-.04.05-.05.06-.07,0-.01,0-.02,0-.03,0-.01,0-.02,0-.03.01-.02.03-.04.07-.05,0,0,0,0,.01,0,0,0,0,0,0,.01Z"/>
          <path class="cls-7" d="M12.79,11.09s0,.02,0,.02h0s0,0,0,0c0,0-.02.01-.02.01-.02,0-.04,0-.05-.01h0s-.01-.01-.01-.02c0-.01.01-.02.03-.03,0,0,.01,0,.02,0h.01s.02,0,.02.02Z"/>
          <path class="cls-7" d="M12.77,12.59s0-.03,0-.04c0-.02-.01-.03-.01-.04,0,0,0,.01,0,.02,0,.02-.02.03-.04.04,0,0-.01,0-.01,0,0,0-.03.02-.06.05,0,0-.01.01-.02.02h0s-.03.08-.04.09c-.01.01-.01.02-.02.03,0,0-.01.01-.02.02-.02.03-.02.04-.03.06,0,.01,0,.03-.02.04-.02.02-.04.04-.05.05.03,0,.07-.02.13-.03h0s.02-.02.03-.03c.01-.01.02-.02.03-.03,0,0,0,0,0-.01.01-.01.02-.02.03-.03.01-.01.02-.02.02-.02.01-.01.02-.02.04-.04.02-.03.05-.07.05-.13h0s0-.02,0-.03ZM12.74,12.58s-.04.06-.06.09c0,0-.01.01-.02.02-.01.01-.02.02-.03.03,0,.01,0,.01-.01.02,0,0,0,.02-.01.03,0,.01-.01.02-.02.03,0,0-.01.01-.02.03,0,0,0,.01,0,.02,0,.01,0,.02-.01.02-.01.01-.02.02-.04.03,0,0,0,0,0,0s0,0,0,0c0,0,0,0,0-.01.01,0,.03-.02.03-.03,0,0,0-.01,0-.02,0,0,0-.01,0-.02,0-.01.01-.02.02-.03,0,0,0-.01.02-.03,0-.02.01-.02.01-.03,0,0,0-.01.01-.02.01-.02.02-.03.04-.04,0,0,.01,0,.02-.01.02-.02.04-.05.06-.08,0,0,0,0,.01,0,0,0,0,0,0,.01Z"/>
          <path class="cls-7" d="M12.76,12.96s-.04,0-.06-.01c0,0,0,0-.02,0-.01,0-.02-.01-.04-.01-.01,0-.03,0-.04,0-.01,0-.03,0-.05,0h0c-.06,0-.11.02-.14.03-.03.01-.04.01-.04,0,0,0,0-.01.02-.02.02,0,.05-.02.07-.06.01-.01.02-.03.02-.04,0-.02.01-.03.03-.06,0-.01.01-.02.02-.02,0,0,0-.01.02-.02.01-.02.02-.04.03-.08h0s.01-.06,0-.06c-.01-.01-.06,0-.1.03-.02.02-.03.04-.05.06-.01.02-.02.03-.02.04,0,.01-.01.02-.02.04-.02.02-.03.03-.03.04,0,0-.01.01-.02.02-.01.02-.01.04-.01.06,0,.02,0,.04-.02.05,0,.01-.02.02-.08.04-.02,0-.03.01-.05.02.02.01.04.02.06.03,0,0,.01,0,.02,0h0s.04-.01.07-.01c.01,0,.03,0,.06.01.02,0,.03,0,.04.01.01,0,.02,0,.03,0,0,0,.01,0,.02,0,0,0,.01,0,.03,0s.03,0,.04,0h.01s.07,0,.09-.01c.01,0,.03-.02.07-.04.01,0,.02-.01.03-.02h0ZM12.37,12.93s0,0,0-.01c0-.02.02-.03.02-.05,0,0,0-.01,0-.02,0-.01,0-.02.01-.03,0-.01.01-.02.02-.02,0,0,0,0,.01-.01.01-.01.01-.02.01-.03,0,0,0-.01,0-.02,0-.03.03-.05.06-.08,0,0,0,0,.01,0s0,0,0,.01c-.03.02-.04.05-.05.07,0,0,0,.01,0,.02,0,.01,0,.03-.02.04,0,0-.01.01-.02.02,0,0-.01,0-.01.02,0,0,0,.02-.01.02,0,0,0,.01,0,.02,0,.02-.02.04-.03.05,0,0,0,0,0,0t0,0ZM12.64,12.99s-.02,0-.04,0c-.03,0-.04,0-.06,0,0,0-.02,0-.02,0-.01,0-.03,0-.05,0-.01,0-.03,0-.05,0,0,0,0,0,0,0s0,0,0,0c.03,0,.06,0,.09,0,0,0,.01,0,.02,0,.02,0,.03,0,.06,0h.04s0,0,0,0c0,0,0,0,0,0Z"/>
          <path class="cls-1" d="M12.73,12.57s0,0,0,.01c-.02.03-.04.06-.06.09,0,0-.01.01-.02.02-.01.01-.02.02-.03.03,0,.01,0,.01,0,.02,0,0,0,.02-.02.03,0,.01-.01.02-.02.03,0,0-.01.01-.02.03,0,0,0,.01,0,.02,0,.01,0,.02-.01.02-.01.01-.02.02-.04.03h0s0,0,0,0c0,0,0,0,0-.01.01,0,.03-.02.03-.03,0,0,0-.01,0-.02,0,0,0-.01,0-.02,0-.02.01-.02.02-.03,0,0,0-.01.02-.03,0-.02.01-.02.01-.03,0,0,0-.01.01-.02.01-.02.02-.03.04-.04,0,0,.01,0,.02-.01.02-.02.04-.05.06-.08,0,0,0,0,.01,0Z"/>
          <path class="cls-7" d="M12.71,11.14s0,.02,0,.03c0,.01-.02.01-.02.01-.01,0-.03,0-.03-.02,0-.01,0-.02,0-.04,0,0,0,0,.01,0s.01,0,.01,0h0s.02.01.02.02Z"/>
          <path class="cls-7" d="M12.66,11.21s.01.03,0,.05c0,0-.02.01-.03.01-.01,0-.03,0-.04-.01,0,0-.01-.02-.01-.03,0-.01,0-.02.01-.03,0,0,.01,0,.02,0,0,0,.02,0,.02,0,0,0,.01,0,.02.01Z"/>
          <path class="cls-1" d="M12.64,12.98s0,0,0,0h-.04s-.04,0-.06,0c0,0-.02,0-.02,0-.01,0-.03,0-.05,0-.01,0-.03,0-.05,0,0,0,0,0,0,0s0,0,0,0c.03,0,.06,0,.09,0,0,0,.01,0,.02,0,.02,0,.03,0,.06,0h.04s0,0,0,0Z"/>
          <path class="cls-7" d="M12.56,11.01h0s0,0-.01,0c-.02-.01-.04-.02-.06-.02-.02,0-.03,0-.04,0s-.02,0-.03,0c0,0-.01,0-.02,0-.02,0-.03-.02-.04-.03,0,.02.02.04.04.08.01.02.03.04.04.06h0s.02.02.04.03c.05.03.1.04.12.04.02,0,.03,0,.05,0h0s-.02-.02-.03-.03c-.01,0-.02-.01-.03-.01,0,0,0,0-.02-.01-.03-.01-.05-.02-.06-.03-.02,0-.03-.01-.04-.02-.02-.01-.03-.03-.05-.05,0,0,0-.01,0-.01h0s0,0,0,0c.01.02.03.03.04.05.01.01.02.01.04.02.01,0,.03.01.06.03,0,0,.01,0,.02.01,0,0,.01,0,.03.01.01,0,.02.01.03.02,0,0,0,0,0,0,0,0,.01-.01.02-.02-.03-.04-.06-.07-.1-.09Z"/>
          <path class="cls-7" d="M12.64,11.18s0,0,0,0c-.01,0-.02,0-.03,0h-.02s-.07,0-.12-.04c-.01,0-.02-.02-.03-.03-.02,0-.03,0-.05,0h-.01s-.04,0-.05,0h0s.05.05.11.07c.04.02.09.05.16.05,0,0,0-.01,0-.02,0,0-.02,0-.02,0-.04,0-.07-.01-.1-.03s-.06-.03-.09-.05c0,0,0,0,0-.01,0,0,0,0,0,0s0,0,0,0c.02.02.05.04.08.05.03.01.05.02.09.02.01,0,.02,0,.03,0h0s.04-.02.05-.01c0,0,0,0,0,0Z"/>
          <path class="cls-1" d="M12.53,12.65s0,0,0,.01c-.03.02-.04.05-.05.07,0,0,0,.01,0,.02,0,.01,0,.03-.02.04,0,0-.01.01-.02.02,0,0-.01,0-.01.02,0,0,0,.02-.01.02,0,0,0,.01,0,.02,0,.02-.01.04-.03.05,0,0,0,0,0,0,0,0,0,0,0,0,0,0,0,0,0-.01.01-.02.02-.03.02-.05,0,0,0-.01,0-.02,0-.01,0-.02.01-.03,0-.01.01-.02.02-.02,0,0,0,0,.01-.01.01-.01.01-.02.01-.04,0,0,0-.01,0-.02,0-.03.03-.06.06-.08,0,0,0,0,.01,0Z"/>
          <path class="cls-7" d="M12.42,13.13s0,.01,0,.02c0,.02-.03.02-.04.02-.02,0-.05,0-.08-.02,0,0,0-.01.02-.01.03-.02.05-.01.07-.01.01,0,.03,0,.04,0Z"/>
          <path class="cls-7" d="M12.39,13.1s0,0-.01,0c-.02,0-.05,0-.08.01,0,0-.02.01-.02.02-.02-.01-.04-.02-.06-.03-.02-.01-.05-.03-.07-.04h0s-.02-.01-.03-.01h0s0-.02-.01-.02c0,0-.02-.01-.02-.01,0,0,0,0,0,0,0,0-.01,0-.02,0-.01,0-.02,0-.03-.01,0,0-.02,0-.03-.01.03,0,.05-.02.08-.01.03,0,.05.01.08.03,0,0,.01,0,.02.01h0s.05.02.08.04h0s.05.03.08.04c.02,0,.03.02.05.03Z"/>
          <path class="cls-7" d="M12.09,13.04s0,0,0,0,0,0,0,0c0,0,0,0-.01,0-.03.01-.06,0-.09-.02,0,0-.02,0-.03-.01,0,0-.01,0-.02-.01,0,0-.02-.01-.03-.02h0s-.04-.02-.06-.02h0s-.06-.02-.08-.03c-.03-.01-.07-.01-.1-.01-.02,0-.04,0-.07,0-.03,0-.06,0-.1,0-.08,0-.16-.02-.22-.06-.02-.01-.03-.02-.05-.03-.05-.04-.09-.09-.11-.11,0,0,.01,0,.02.01,0,0,.02.01.03.02.11.06.24.06.27.05,0,0,.01,0,.01-.01,0,0,0-.01-.02-.02-.01-.01-.04-.03-.09-.05-.08-.04-.13-.06-.15-.07-.02-.01-.04-.01-.06-.03-.05-.04-.13-.11-.18-.23-.02-.04-.03-.07-.03-.1,0,0,0,0,0,0,0,0,0,0,0,0,.05.07.11.12.14.14.03.02.05.03.07.04.02.01.05.02.1.06.01,0,.02.01.03.02.03.02.03.02.04.02,0,0,0-.01,0-.02,0,0-.01,0-.02-.01-.02-.02-.05-.04-.08-.08-.02-.02-.03-.04-.05-.07-.01-.02-.03-.04-.05-.06-.04-.04-.07-.07-.11-.11-.03-.02-.06-.05-.08-.09,0-.01-.01-.03-.01-.05,0-.02-.02-.05-.03-.07,0,0,0,0,0,0,0,0,.02.01.02.01.05.03.09.05.1.06.02.01.02.01.02.01.06.04.09.1.1.13.01.03.02.05.03.06.01.03.02.05.04.09.02.02.03.05.05.06,0,.01.01.02.02.03.05.08.11.13.12.13,0,0,0,0,0,0s0,0,0,0c0,0,0,0,0-.01-.01-.01-.05-.05-.08-.11-.01-.04-.01-.06,0-.1,0-.02,0-.04,0-.06,0-.04,0-.08,0-.12h0s-.01-.06-.01-.08c0-.02,0-.03,0-.04.01.01.04.06.06.11.02.06.02.09.03.14,0,.03,0,.07.01.12.01.08.02.15.07.22.05.08.14.15.17.15,0,0,.01,0,.02,0,.01-.01,0-.04-.05-.12,0-.02-.02-.03-.03-.05-.02-.02-.03-.05-.05-.08,0-.02-.02-.04-.03-.05.01,0,.04.03.06.05.04.04.06.08.08.11.01.02.03.05.05.08.04.05.07.07.13.11.04.03.08.05.12.08.02.01.03.02.05.03.01,0,.03.02.04.02.01,0,.02,0,.03.01,0,0,.01,0,.02,0,0,0,0,0,0,0,0,0,.01,0,.02.01Z"/>
          <path class="cls-7" d="M11.95,13.04s0,0,0,0c-.04.01-.07.03-.11.05-.03.01-.05.03-.08.04,0,0,0,0,0,0,0,0-.01-.01-.02-.01-.01,0-.03-.01-.07-.01h-.01s0,0,.01,0c0,0,.01,0,.01,0,.03-.01.06-.02.09-.03.04-.01.08-.03.13-.05.01,0,.02.01.03.01,0,0,.01,0,.02.01Z"/>
          <path class="cls-7" d="M11.73,13.13s0,0,.01,0c-.03.01-.05.01-.08,0h0s-.04,0-.04-.02c0,0,0,0,0,0,.02,0,.03,0,.05,0,.04,0,.06,0,.07.01Z"/>
          <path class="cls-7" d="M11.55,11.04c-.08.05-.14.11-.16.13-.01.01-.03.03-.04.04-.03.04-.06.08-.09.13,0,0,0,0-.01,0s0,0,0-.01c.03-.04.05-.09.09-.13,0-.02,0-.04,0-.05,0-.02,0-.02.01-.04,0-.01.01-.03.03-.07,0,0,0-.01,0-.02.01-.04.02-.06.04-.08,0,0,0,0,0,0-.05.03-.16.12-.17.22v.03s0,.06-.01.1c0,.02-.01.03-.02.04,0,0-.01.02-.02.04-.03.05-.04.08-.05.13-.02.07-.03.13-.03.16,0,.02,0,.02-.01.02h0s0,0,0-.03c0-.02,0-.04,0-.06,0-.06.01-.09.02-.12,0-.03,0-.05.01-.09,0-.05,0-.07,0-.09,0-.02,0-.03,0-.05.01-.04.02-.05.04-.07.01-.02.03-.04.05-.07.01-.02.02-.05.03-.07-.02.04-.05.06-.05.07-.04.04-.09.11-.11.17-.01.03-.01.05-.02.08,0,.02,0,.05-.01.1,0,.03-.01.06-.02.09,0,.04,0,.07,0,.09,0,.04,0,.07,0,.12,0,.03.01.07.02.1,0,0,0,0,0,.01,0,0-.01,0-.01,0-.01-.03-.02-.07-.03-.11,0-.05,0-.08,0-.13,0-.03,0-.06,0-.12,0-.14-.02-.19-.04-.22,0,0,0-.01,0-.01,0,.04.01.1,0,.18,0,.06-.02.08-.02.11s-.01.04-.02.08c0,.06,0,.1.02.15.02.07.04.15.08.22,0,0,0,.01,0,.01h0s0,0,0,0c-.01-.03-.03-.06-.04-.09-.01-.02-.02-.04-.03-.06,0,0,0-.02,0-.02-.01-.03-.02-.06-.03-.08-.02-.05-.03-.07-.05-.09-.01,0-.03-.02-.08-.05h0s-.02-.01-.03-.02c0,.01.02.03.03.05.03.04.06.1.1.17.03.05.05.11.07.16.01.04.02.07.03.11t.02.01c.06.05.09.11.11.13.01.03.02.05.03.07.01.02.02.05.04.08l.02.03s-.02-.08-.02-.11c0-.02,0-.04,0-.06v-.06c0-.08.02-.15.03-.16,0-.01,0-.03.01-.04.01-.04.02-.08.02-.13,0-.03,0-.06-.01-.08,0,.01,0,.03,0,.05-.01.03-.02.05-.03.07,0,.01-.01.02-.02.03-.05.09-.03.19-.03.22,0,.04.02.07.02.08,0,0,0,.01,0,.02s0,0,0,0c0,0,0,0-.01,0-.01,0-.07-.1-.08-.22,0-.1.03-.18.04-.21.05-.11.12-.18.19-.23.03-.03.06-.05.08-.07.02-.02.04-.03.05-.04,0,0-.03,0-.06.02-.08.03-.13.08-.15.11-.03.03-.07.07-.09.14,0,0,0,0,0,0,0,0,0,0,0,0,0,0,0,0,0,0,0,0,.06-.18.2-.27.05-.04.1-.06.1-.06.03-.02.05-.02.06-.03.02-.01.04-.02.05-.03.03-.02.05-.05.06-.07-.02.03-.06.06-.11.07-.01,0-.02,0-.03,0,0,0-.02,0-.03,0,0,0,0,0-.01,0-.03,0-.08.01-.11.04-.01.01-.02.03-.03.04-.01.02-.02.04-.05.08,0,.01-.02.02-.03.03-.01.01-.02.02-.03.02,0,0,0-.02.01-.04,0-.02.02-.04.04-.06.04-.07.06-.1.08-.12.02-.02.04-.03.06-.04.01,0,.03-.01.05-.03.08-.05.13-.1.19-.16.03-.03.04-.05.06-.06s.03-.03.06-.06h0s0,0,.01-.01c-.03,0-.1.03-.17.07Z"/>
        </g>
      </g>
    </g>
  </g>
</svg>