<?xml version="1.0" encoding="UTF-8"?>
<svg id="Layer_1" data-name="Layer 1" xmlns="http://www.w3.org/2000/svg" viewBox="0 0 24 24">
  <defs>
    <style>
      .cls-1 {
        fill: #000;
      }

      .cls-1, .cls-2, .cls-3, .cls-4, .cls-5, .cls-6 {
        stroke-width: 0px;
      }

      .cls-2 {
        fill: #0738a6;
      }

      .cls-3 {
        fill: #fbd023;
      }

      .cls-4 {
        fill: none;
      }

      .cls-5 {
        fill: #cd1225;
      }

      .cls-6 {
        fill: #fff;
      }
    </style>
  </defs>
  <rect class="cls-4" width="24" height="24"/>
  <g>
    <path class="cls-1" d="M16.71,7.34c2.92,2.92,3.18,7.42.57,10.03-2.61,2.61-7.11,2.35-10.03-.57-2.92-2.92-3.18-7.42-.57-10.03,2.61-2.61,7.11-2.35,10.03.57Z"/>
    <g>
      <g>
        <path class="cls-2" d="M21,12H3c0-2.21.8-4.23,2.13-5.8,1.65-1.95,4.12-3.2,6.87-3.2,4.96,0,9,4.04,9,9Z"/>
        <path class="cls-5" d="M21,12c0,4.96-4.04,9-9,9-2.75,0-5.22-1.24-6.87-3.2-1.33-1.57-2.13-3.59-2.13-5.8h18Z"/>
      </g>
      <g>
        <path class="cls-6" d="M15.17,12l-10.05,5.8c-1.33-1.57-2.13-3.59-2.13-5.8s.8-4.23,2.13-5.8l10.05,5.8Z"/>
        <g>
          <path class="cls-3" d="M10.82,12.16l.15-.16-.15-.16-1.22.08s0-.05,0-.08l1.1-.14-.14-.14-.98.21c-.03-.16-.09-.32-.19-.45l.84-.54v-.2s-.88.68-.88.68c-.02-.02-.03-.04-.05-.06l.92-.81v-.22s-.23,0-.23,0l-.81.92s-.04-.03-.06-.05l.68-.88h-.2s-.54.83-.54.83c-.13-.09-.28-.15-.45-.18l.21-.98-.14-.14-.14,1.1s-.05,0-.08,0l.08-1.22-.16-.15-.16.15.08,1.22s-.05,0-.08,0l-.14-1.1-.15.14.21.98c-.16.03-.32.09-.45.18l-.54-.84h-.2s.68.88.68.88c-.02.02-.04.03-.06.05l-.81-.92h-.22s0,.23,0,.23l.92.81s-.04.04-.05.06l-.88-.68v.2s.83.54.83.54c-.09.13-.15.28-.19.45l-.97-.21-.14.14,1.1.14s0,.05,0,.08l-1.22-.08-.15.16.15.16,1.22-.08s0,.05,0,.08l-1.1.14.14.15.97-.21c.03.16.09.32.19.45l-.84.54v.2s.88-.68.88-.68c.02.02.03.04.05.06l-.92.81v.22s.23,0,.23,0l.81-.92s.04.04.06.05l-.68.88h.2s.54-.83.54-.83c.13.09.28.15.45.19l-.21.97.15.14.14-1.1s.05,0,.08,0l-.08,1.22.16.15.16-.15-.08-1.22s.05,0,.08,0l.14,1.1.14-.14-.21-.97c.16-.03.32-.1.45-.19l.54.84h.2s-.68-.88-.68-.88c.02-.02.04-.03.06-.05l.81.92h.22s0-.23,0-.23l-.92-.81s.04-.04.05-.06l.88.68v-.2s-.83-.54-.83-.54c.09-.13.16-.28.19-.45l.98.21.14-.15-1.1-.14s0-.05,0-.08l1.22.08Z"/>
          <g>
            <polygon class="cls-3" points="13.48 11.36 13.48 11.85 13.94 12 13.48 12.15 13.48 12.64 13.19 12.24 12.72 12.4 13.01 12 12.72 11.6 13.19 11.75 13.48 11.36"/>
            <g>
              <polygon class="cls-3" points="6.13 16.2 5.77 16.53 5.96 16.98 5.54 16.73 5.17 17.06 5.28 16.58 4.85 16.33 5.34 16.28 5.45 15.8 5.64 16.25 6.13 16.2"/>
              <polygon class="cls-3" points="5.17 6.94 5.54 7.27 5.96 7.02 5.77 7.47 6.13 7.8 5.64 7.75 5.45 8.2 5.34 7.72 4.85 7.67 5.28 7.42 5.17 6.94"/>
            </g>
          </g>
        </g>
      </g>
    </g>
  </g>
</svg>