<?xml version="1.0" encoding="UTF-8"?>
<svg id="Layer_1" data-name="Layer 1" xmlns="http://www.w3.org/2000/svg" viewBox="0 0 24 24">
  <defs>
    <style>
      .cls-1 {
        fill: #000;
      }

      .cls-1, .cls-2, .cls-3, .cls-4, .cls-5 {
        stroke-width: 0px;
      }

      .cls-2 {
        fill: none;
      }

      .cls-3 {
        fill: #ec0302;
      }

      .cls-4 {
        fill: #fff;
      }

      .cls-5 {
        fill: #0f51ee;
      }
    </style>
  </defs>
  <rect class="cls-2" width="24" height="24"/>
  <g>
    <path class="cls-1" d="M16.71,7.34c2.92,2.92,3.18,7.42.57,10.03-2.61,2.61-7.11,2.36-10.03-.57-2.92-2.92-3.18-7.42-.57-10.03,2.61-2.61,7.11-2.36,10.03.57Z"/>
    <g>
      <g>
        <g>
          <path class="cls-3" d="M19.19,17.4c-1.64,2.18-4.26,3.6-7.19,3.6-2.36,0-4.51-.92-6.12-2.41-.39-.36-.75-.76-1.07-1.19h14.39Z"/>
          <path class="cls-4" d="M20.82,13.8c-.2.96-.55,1.87-1.03,2.7-.18.31-.38.61-.6.9H4.8c-.22-.29-.42-.59-.6-.9-.48-.83-.83-1.74-1.03-2.7h17.64Z"/>
          <path class="cls-3" d="M21,12c0,.62-.06,1.22-.18,1.8H3.18c-.12-.58-.18-1.18-.18-1.8s.06-1.22.18-1.8h17.64c.12.58.18,1.18.18,1.8Z"/>
          <path class="cls-4" d="M20.82,10.2H3.18c.2-.96.55-1.87,1.03-2.7.18-.31.38-.61.6-.9h14.39c.22.29.42.59.6.9.48.83.83,1.74,1.03,2.7Z"/>
          <path class="cls-3" d="M19.19,6.6H4.8c.32-.43.68-.83,1.07-1.19,1.61-1.49,3.76-2.41,6.12-2.41,2.94,0,5.55,1.42,7.19,3.6Z"/>
        </g>
        <path class="cls-5" d="M17.28,12l-3.12,1.8-6.23,3.6-2.06,1.19c-.39-.36-.75-.76-1.07-1.19-.22-.29-.42-.59-.6-.9-.48-.83-.83-1.74-1.03-2.7-.12-.58-.18-1.18-.18-1.8s.06-1.22.18-1.8c.2-.96.55-1.87,1.03-2.7.18-.31.38-.61.6-.9.32-.43.68-.83,1.07-1.19l2.06,1.19,6.23,3.6,3.12,1.8Z"/>
      </g>
      <polygon class="cls-4" points="8.2 8.99 8.88 11.07 11.06 11.07 9.29 12.36 9.97 14.43 8.2 13.15 6.43 14.43 7.11 12.36 5.34 11.07 7.53 11.07 8.2 8.99"/>
    </g>
  </g>
</svg>