<?xml version="1.0" encoding="UTF-8"?>
<svg id="Layer_1" data-name="Layer 1" xmlns="http://www.w3.org/2000/svg" viewBox="0 0 24 24">
  <defs>
    <style>
      .cls-1 {
        fill: #8c1b3c;
      }

      .cls-1, .cls-2, .cls-3, .cls-4 {
        stroke-width: 0px;
      }

      .cls-2 {
        fill: #000;
      }

      .cls-3 {
        fill: none;
      }

      .cls-4 {
        fill: #fff;
      }
    </style>
  </defs>
  <rect class="cls-3" width="24" height="24"/>
  <g>
    <path class="cls-2" d="M16.71,7.34c2.92,2.92,3.18,7.42.57,10.03-2.61,2.61-7.11,2.35-10.03-.57-2.92-2.92-3.18-7.42-.57-10.03,2.61-2.61,7.11-2.35,10.03.57Z"/>
    <g>
      <path class="cls-1" d="M21,12c0,4.96-4.04,9-9,9-.95,0-1.87-.15-2.74-.43-3.63-1.16-6.26-4.57-6.26-8.57s2.63-7.41,6.26-8.57c.86-.28,1.79-.43,2.74-.43,4.96,0,9,4.04,9,9Z"/>
      <path class="cls-4" d="M11.36,6l-3.66,1,3.66,1-3.66,1,3.66,1-3.66,1,3.66,1-3.66,1,3.66,1-3.66,1,3.66,1-3.66,1,3.66,1-3.66,1,3.66,1-2.1.57c-3.63-1.16-6.26-4.57-6.26-8.57s2.63-7.41,6.26-8.57l2.1.57-3.66,1,3.66,1Z"/>
    </g>
  </g>
</svg>