<?xml version="1.0" encoding="UTF-8"?>
<svg id="Layer_1" data-name="Layer 1" xmlns="http://www.w3.org/2000/svg" viewBox="0 0 24 24">
  <defs>
    <style>
      .cls-1 {
        fill: #fadd4e;
      }

      .cls-1, .cls-2, .cls-3, .cls-4, .cls-5 {
        stroke-width: 0px;
      }

      .cls-2 {
        fill: #000;
      }

      .cls-3 {
        fill: none;
      }

      .cls-4 {
        fill: #db241f;
      }

      .cls-5 {
        fill: #009444;
      }
    </style>
  </defs>
  <rect class="cls-3" width="24" height="24"/>
  <g>
    <path class="cls-2" d="M16.71,7.34c2.92,2.92,3.18,7.42.57,10.03-2.61,2.61-7.11,2.36-10.03-.57-2.92-2.92-3.18-7.42-.57-10.03,2.61-2.61,7.11-2.36,10.03.57Z"/>
    <g>
      <path class="cls-5" d="M15.7,3.8L3.8,15.7c-.51-1.13-.8-2.38-.8-3.7C3,7.04,7.04,3,12,3c1.32,0,2.57.28,3.7.8Z"/>
      <path class="cls-4" d="M21,12c0,4.96-4.04,9-9,9-1.32,0-2.57-.28-3.7-.8l11.9-11.91c.51,1.13.8,2.38.8,3.7Z"/>
      <path class="cls-1" d="M20.2,8.3l-11.9,11.91c-1.99-.9-3.6-2.51-4.5-4.5L15.7,3.8c1.99.9,3.6,2.51,4.5,4.5Z"/>
    </g>
  </g>
</svg>