<?xml version="1.0" encoding="UTF-8"?>
<svg id="Layer_1" data-name="Layer 1" xmlns="http://www.w3.org/2000/svg" viewBox="0 0 24 24">
  <defs>
    <style>
      .cls-1 {
        fill: #000;
      }

      .cls-1, .cls-2, .cls-3, .cls-4, .cls-5 {
        stroke-width: 0px;
      }

      .cls-2 {
        fill: none;
      }

      .cls-3 {
        fill: #1e5f3d;
      }

      .cls-4 {
        fill: #f9d117;
      }

      .cls-5 {
        fill: #08a1dc;
      }
    </style>
  </defs>
  <rect class="cls-2" width="24" height="24"/>
  <g>
    <path class="cls-1" d="M16.71,7.34c2.92,2.92,3.18,7.43.57,10.04-2.61,2.61-7.11,2.35-10.04-.57-2.92-2.92-3.18-7.43-.57-10.04,2.61-2.61,7.11-2.36,10.04.57Z"/>
    <g>
      <g>
        <path class="cls-3" d="M19.79,16.5c-1.56,2.69-4.47,4.5-7.79,4.5s-6.24-1.81-7.79-4.5h15.59Z"/>
        <path class="cls-4" d="M21,12c0,1.64-.44,3.18-1.21,4.5H4.21c-.77-1.33-1.21-2.86-1.21-4.5h18Z"/>
        <path class="cls-5" d="M21,12H3C3,7.04,7.04,3,12,3s9,4.04,9,9Z"/>
      </g>
      <g>
        <path class="cls-4" d="M15.61,7.62l1.91-.12-1.91-.12,1.81-.61-1.88.38,1.59-1.06-1.72.85,1.26-1.44-1.44,1.27.85-1.72-1.06,1.59.38-1.88-.61,1.81-.12-1.91-.12,1.91-.61-1.81.38,1.88-1.06-1.59.85,1.72-1.44-1.27,1.26,1.44-1.72-.85,1.59,1.06-1.88-.38,1.81.61-1.91.12,1.91.12-1.81.61,1.88-.38-1.59,1.06,1.72-.85-1.26,1.44,1.44-1.26-.85,1.72,1.06-1.59-.38,1.88.61-1.81.12,1.91.12-1.91.61,1.81-.38-1.88,1.06,1.59-.85-1.72,1.44,1.26-1.26-1.44,1.72.85-1.59-1.06,1.88.38-1.81-.61ZM14.69,8.42c-.51,0-.92-.41-.92-.92s.41-.92.92-.92.92.41.92.92-.41.92-.92.92Z"/>
        <path class="cls-4" d="M15.51,7.5c0,.45-.36.81-.81.81s-.81-.36-.81-.81.36-.81.81-.81.81.36.81.81Z"/>
      </g>
    </g>
  </g>
</svg>