<?xml version="1.0" encoding="UTF-8"?>
<svg id="Layer_1" data-name="Layer 1" xmlns="http://www.w3.org/2000/svg" viewBox="0 0 24 24">
  <defs>
    <style>
      .cls-1 {
        fill: #000;
      }

      .cls-1, .cls-2, .cls-3, .cls-4, .cls-5, .cls-6 {
        stroke-width: 0px;
      }

      .cls-2 {
        fill: #fbd023;
      }

      .cls-3 {
        fill: none;
      }

      .cls-4 {
        fill: #009d4a;
      }

      .cls-5 {
        fill: #cd1225;
      }

      .cls-6 {
        fill: #fff;
      }
    </style>
  </defs>
  <rect class="cls-3" width="24" height="24"/>
  <g>
    <path class="cls-1" d="M16.71,7.34c2.92,2.92,3.18,7.42.57,10.03-2.61,2.61-7.11,2.36-10.03-.57-2.92-2.92-3.18-7.42-.57-10.03,2.61-2.61,7.11-2.36,10.03.57Z"/>
    <g>
      <g>
        <path class="cls-4" d="M16.67,4.31L3.1,13.37c-.07-.45-.1-.9-.1-1.37C3,7.04,7.04,3,12,3c1.71,0,3.31.48,4.67,1.31Z"/>
        <path class="cls-5" d="M21,12c0,4.96-4.04,9-9,9-1.71,0-3.31-.48-4.67-1.31l13.57-9.06c.07.45.11.9.11,1.37Z"/>
        <path class="cls-1" d="M20.64,9.48l-14.28,9.53c-1.42-1.14-2.48-2.71-3.01-4.5l14.28-9.53c1.42,1.14,2.48,2.7,3.01,4.49Z"/>
        <path class="cls-2" d="M17.64,4.99L3.36,14.52c-.11-.37-.19-.76-.25-1.15l13.57-9.05c.34.2.66.43.96.68Z"/>
        <path class="cls-2" d="M20.89,10.63l-13.57,9.06c-.34-.21-.66-.43-.96-.68l14.28-9.53c.11.37.19.76.25,1.15Z"/>
      </g>
      <polygon class="cls-6" points="9.14 14.28 9.72 12.73 8.33 13.65 7.03 12.62 7.48 14.22 6.1 15.14 7.76 15.2 8.21 16.8 8.78 15.25 10.44 15.31 9.14 14.28"/>
      <polygon class="cls-6" points="16.52 9.37 17.1 7.81 15.72 8.73 14.41 7.7 14.86 9.3 13.48 10.22 15.14 10.29 15.59 11.89 16.16 10.33 17.82 10.4 16.52 9.37"/>
    </g>
  </g>
</svg>