<?xml version="1.0" encoding="UTF-8"?>
<svg id="Layer_1" data-name="Layer 1" xmlns="http://www.w3.org/2000/svg" viewBox="0 0 24 24">
  <defs>
    <style>
      .cls-1 {
        fill: #000;
      }

      .cls-1, .cls-2, .cls-3, .cls-4, .cls-5 {
        stroke-width: 0px;
      }

      .cls-2 {
        fill: #009d60;
      }

      .cls-3 {
        fill: #fbd023;
      }

      .cls-4 {
        fill: none;
      }

      .cls-5 {
        fill: #0872c4;
      }
    </style>
  </defs>
  <rect class="cls-4" width="24" height="24"/>
  <g>
    <path class="cls-1" d="M16.71,7.34c2.92,2.92,3.18,7.42.57,10.03-2.61,2.61-7.11,2.36-10.03-.57-2.92-2.92-3.18-7.42-.57-10.03,2.61-2.61,7.11-2.35,10.03.57Z"/>
    <g>
      <g>
        <path class="cls-5" d="M6.59,4.82v14.37c-2.18-1.64-3.59-4.25-3.59-7.19s1.41-5.54,3.59-7.18Z"/>
        <path class="cls-2" d="M21,12c0,2.93-1.41,5.54-3.58,7.19V4.82c2.18,1.65,3.58,4.25,3.58,7.18Z"/>
        <path class="cls-3" d="M17.42,4.82v14.37c-1.51,1.14-3.38,1.82-5.42,1.82s-3.91-.68-5.41-1.82V4.82c1.51-1.14,3.38-1.82,5.41-1.82s3.91.68,5.42,1.82Z"/>
      </g>
      <g>
        <polygon class="cls-2" points="10.51 13.91 9.29 11.53 10.51 9.16 11.72 11.53 10.51 13.91"/>
        <polygon class="cls-2" points="13.49 13.91 12.28 11.53 13.49 9.16 14.71 11.53 13.49 13.91"/>
        <polygon class="cls-2" points="12 16.91 10.79 14.54 12 12.16 13.21 14.54 12 16.91"/>
      </g>
    </g>
  </g>
</svg>