<?xml version="1.0" encoding="UTF-8"?>
<svg id="Layer_1" data-name="Layer 1" xmlns="http://www.w3.org/2000/svg" viewBox="0 0 24 24">
  <defs>
    <style>
      .cls-1 {
        fill: #000;
      }

      .cls-1, .cls-2, .cls-3, .cls-4, .cls-5 {
        stroke-width: 0px;
      }

      .cls-2 {
        fill: none;
      }

      .cls-3 {
        fill: #cd1225;
      }

      .cls-4 {
        fill: #fff;
      }

      .cls-5 {
        fill: #042b7d;
      }
    </style>
  </defs>
  <rect class="cls-2" width="24" height="24"/>
  <g>
    <path class="cls-1" d="M16.71,7.34c2.92,2.92,3.18,7.42.57,10.03-2.61,2.61-7.11,2.35-10.03-.57-2.92-2.92-3.18-7.42-.57-10.03,2.61-2.61,7.11-2.36,10.03.57Z"/>
    <g>
      <g>
        <path class="cls-5" d="M12,3v9H3c0-1.67.46-3.23,1.25-4.58.22-.38.48-.74.75-1.08.58-.72,1.26-1.34,2.03-1.85.22-.15.45-.28.68-.41,1.27-.69,2.73-1.08,4.28-1.08Z"/>
        <path class="cls-3" d="M12,3v9H3c0,4.96,4.04,9,9,9s9-4.04,9-9S16.96,3,12,3Z"/>
      </g>
      <g>
        <path class="cls-4" d="M7.87,4.54l.24.73-.62-.45-.62.45.24-.73-.06-.05c.22-.15.45-.28.68-.41h0s.77.01.77.01l-.62.45Z"/>
        <path class="cls-4" d="M5.12,6.79l.24.73-.62-.45-.49.35c.22-.38.48-.74.75-1.08h.74l-.62.45Z"/>
        <polygon class="cls-4" points="10.31 5.22 10.53 5.92 11.26 5.92 10.67 6.35 10.9 7.05 10.31 6.62 9.71 7.05 9.94 6.35 9.35 5.92 10.08 5.92 10.31 5.22"/>
        <polygon class="cls-4" points="7.49 9.23 7.79 10.15 8.76 10.15 7.97 10.72 8.27 11.64 7.49 11.07 6.71 11.64 7.01 10.72 6.22 10.15 7.19 10.15 7.49 9.23"/>
        <polygon class="cls-4" points="8.87 7.54 9.02 8 9.51 8 9.11 8.29 9.26 8.76 8.87 8.47 8.47 8.76 8.62 8.29 8.23 8 8.72 8 8.87 7.54"/>
      </g>
    </g>
  </g>
</svg>