<?xml version="1.0" encoding="UTF-8"?>
<svg id="Layer_1" data-name="Layer 1" xmlns="http://www.w3.org/2000/svg" viewBox="0 0 24 24">
  <defs>
    <style>
      .cls-1 {
        fill: #000;
      }

      .cls-1, .cls-2, .cls-3, .cls-4 {
        stroke-width: 0px;
      }

      .cls-2 {
        fill: none;
      }

      .cls-3 {
        fill: #fff;
      }

      .cls-4 {
        fill: #006b35;
      }
    </style>
  </defs>
  <rect class="cls-2" width="24" height="24"/>
  <g>
    <path class="cls-1" d="M16.71,7.34c2.92,2.92,3.18,7.42.57,10.03-2.61,2.61-7.11,2.35-10.03-.57-2.92-2.92-3.18-7.42-.57-10.03,2.61-2.61,7.11-2.35,10.03.57Z"/>
    <g>
      <path class="cls-4" d="M21,12c0,4.96-4.04,9-9,9S3,16.96,3,12,7.04,3,12,3s9,4.04,9,9Z"/>
      <g>
        <path class="cls-3" d="M16.84,15.82s-.05-.02-.07-.02c-.08-.02-.17,0-.25,0-.09,0-.18,0-.27,0h-.55s-.19-.01-.19,0c0-.01,0-.02,0-.03,0-.04.04-.02.07-.08.03-.05-.03-.15-.1-.15,0,0-.02,0-.02,0-.01,0-.01-.02-.01-.03,0-.07-.1-.1-.15-.06-.05.04-.06.11-.05.17,0,.03.02.06.03.09,0,0,.03.09.02.09l-8.17-.1c.32.56,1.01.51,1.01.51h7.12c0,.08.01.17.03.26.01.05.02.1.05.14.03.06.08.08.15.07.04,0,.06-.04.07-.08h1s.04.03.05.04c.02.02.03.03.05.05.06.04.12.03.18.03.09,0,.2-.08.2-.46,0-.17-.07-.33-.22-.41ZM16.55,16.36s-.32.03-.32.03c0,0-.05-.09-.12-.09s-.13.06-.15.08c-.02.02-.41,0-.41,0,0,0-.06-.08,0-.18h.98s.07.11.03.16Z"/>
        <g>
          <path class="cls-3" d="M5.51,10.9s-.17.23-.23.5c-.04.2-.02.31,0,.35.01.05.08.27.22.28.12.01.22-.14.25-.24.04-.12.02-.25-.02-.26-.03,0-.06.06-.14.07-.01,0-.05,0-.08-.02-.05-.04-.02-.14-.01-.21.04-.21.04-.46,0-.47Z"/>
          <path class="cls-3" d="M6.53,9.84c0-.05-.11-.12-.22-.14-.12-.02-.21.02-.28.05-.26.11-.39.31-.52.53-.04.06-.04.07-.03.08.05.08.69-.35,1-.47.02,0,.05-.02.06-.05Z"/>
          <path class="cls-3" d="M5.78,7.72c-.05-.06-.14-.16-.12-.24.01-.04.05-.07.09-.08.09-.02.17.08.19.09.13.16.04.4.03.42-.02.06-.07.13-.09.13-.03,0-.03-.11-.03-.14,0-.06,0-.09-.01-.13-.01-.03-.03-.04-.04-.05Z"/>
          <path class="cls-3" d="M5.37,8.13c-.04.17,0,.43,0,.43.05.26,0,.25.05.45.04.14.08.28.2.32.08.03.17,0,.17-.01.13-.07.16-.26.17-.36.02-.16-.02-.2.02-.34.03-.09.08-.19.11-.18.04.01,0,.28.04.7.02.18.05.26.11.31.08.05.18.02.26.1.04.04.05.08.06.12.06.23.03.46.03.73,0,.32.05.35.06.35.06.02.14-.09.19-.16.03-.05.09-.17.08-.5,0-.21,0-.33-.03-.5-.02-.15-.06-.27.01-.33.04-.04.1-.04.12-.04.09,0,.12.06.21.09.13.05.26-.01.3-.03.03-.02.15-.07.21-.19.06-.1.08-.21.05-.38-.04-.2-.06-.27-.1-.37,0-.01-.02-.08,0-.1,0-.01.03,0,.05-.02.01-.01.02-.03.02-.08-.01-.15-.09-.23-.09-.23-.05-.05-.17-.15-.26-.1-.09.04-.1.18-.1.24-.01.2.09.39.13.46.07.12.14.19.12.28,0,.01-.02.07-.06.09-.06.03-.13-.02-.19-.06-.05-.04-.13-.09-.17-.18-.05-.12.02-.16.01-.38-.01-.21-.09-.29-.11-.32-.02-.02-.07-.07-.13-.06-.17.01-.15.22-.14.34,0,.07.02.14.04.2,0,.03.02.06.03.08.04.1.08.19.04.25,0,0-.02.03-.04.02-.04,0-.05-.08-.07-.15-.04-.18-.04-.32-.04-.33,0,0-.01-.18-.05-.37-.03-.17-.08-.45-.2-.46-.06,0-.12.06-.15.12-.05.1,0,.19.05.36.04.16,0,.13.05.38.06.33.13.46.05.57,0,0-.05.07-.08.06-.06-.01-.07-.17-.08-.23-.01-.12,0-.17.01-.39,0-.17,0-.23-.04-.28,0,0-.07-.09-.15-.09-.07,0-.12.09-.18.2-.05.1-.12.23-.14.41-.02.17.02.26-.05.31-.03.02-.07.03-.11.01-.08-.03-.1-.15-.12-.33-.02-.16-.01-.21-.06-.32,0,0-.03-.11-.08-.13,0,0-.02,0-.04,0,0,0-.02,0-.02.02Z"/>
          <path class="cls-3" d="M6.91,7.5c-.04.06-.01.13,0,.16,0,.02.04.1.12.15.09.05.18.02.22,0,.04-.01.11-.03.16-.1.03-.05.03-.1.03-.14,0-.03,0-.11-.04-.13-.03,0-.07.02-.08.05-.02.03-.01.06-.03.07-.02,0-.04,0-.05-.02-.03-.03-.01-.07-.03-.09-.02-.02-.06,0-.08.02-.03.03,0,.09-.03.09-.01,0-.03-.02-.04-.04-.03-.04-.03-.06-.04-.06-.03-.01-.08.01-.1.04Z"/>
          <path class="cls-3" d="M9.52,9.42s-.09-.04-.14-.03c-.02,0-.06.01-.09.05-.03.04,0,.07-.04.12,0,.02-.03.05-.05.05-.02,0-.02-.06-.06-.1-.04-.05-.13-.07-.19-.04-.03.02-.03.03-.12.17-.04.06-.05.07-.07.08-.04.02-.11.03-.15,0-.04-.04,0-.1-.03-.17-.03-.05-.09-.09-.15-.09-.05,0-.06.04-.09.03-.06-.01-.04-.22-.08-.51-.03-.26-.05-.38-.08-.48-.03-.09-.06-.18-.02-.22.05-.05.16.02.2-.03.04-.04-.04-.13-.12-.34-.06-.16-.08-.3-.17-.38-.05-.04-.08-.04-.1-.04-.05,0-.08.02-.1.04-.04.02-.09.04-.11.1-.02.06,0,.13.02.17.05.13.04.28.07.42.03.15,0,.09.09.57.02.13.04.23.06.43.05.33.05.46-.01.5-.05.03-.11,0-.13,0-.12-.04-.11-.16-.2-.21s-.22.01-.29.05c-.06.03-.18.11-.25.26-.01.03-.12.28.03.45.08.09.23.14.34.11.1-.03.18-.12.2-.09.01,0,0,.03,0,.04-.03.19-.09.29-.09.29-.09.14-.22.21-.31.27-.2.12-.31.18-.46.15-.13-.03-.26-.14-.31-.27-.05-.14.02-.26-.08-.44-.03-.06-.05-.07-.07-.07-.06,0-.11.21-.12.32-.02.14-.04.29.04.47.08.2.23.29.27.32.2.13.4.11.46.11.23-.02.38-.14.47-.21.09-.07.29-.23.36-.5.05-.21,0-.38.12-.48.01-.01.05-.04.08-.03.06.03.01.22,0,.31-.03.15-.07.33-.21.54-.07.11-.18.27-.4.4-.25.14-.48.15-.53.15-.12,0-.41,0-.57-.19-.07-.09-.1-.2-.11-.23-.04-.14-.01-.25-.09-.39-.03-.06-.05-.06-.06-.06-.07,0-.1.32-.11.35-.01.16-.03.3.03.47.03.07.09.26.27.39.16.11.32.1.54.09.34,0,.58-.12.67-.16.22-.1.36-.23.42-.29.1-.09.25-.24.34-.49.05-.15.05-.28.06-.37,0-.25-.04-.57,0-.59.02,0,.03,0,.03,0,.02,0,.03.02.05.03.02.02.04.02.09.03.07.01.13,0,.15,0,.04-.01.07-.03.12-.05.08-.05.08-.07.13-.08.03-.01.05,0,.14,0,.2.03.21.03.22.03.09-.01.17-.09.2-.15.08-.16-.03-.32.05-.46,0-.01.02-.04.01-.06ZM7.56,10.01s-.11.03-.15-.01c-.03-.03-.05-.08-.02-.13.03-.04.09-.05.13-.02.04.02.05.07.05.09s0,.05-.01.07Z"/>
          <path class="cls-3" d="M8.79,10.52c.07.1.1.09.13.14.04.1-.06.21-.01.25.02.02.06.01.08,0,.08-.04.08-.19.08-.24,0-.05,0-.17-.09-.26-.03-.04-.08-.1-.15-.09-.04,0-.09.05-.09.09,0,.02,0,.04.05.11Z"/>
          <path class="cls-3" d="M12.8,11.5c0-.06.01-.13-.02-.16-.03-.02-.09,0-.14.03-.04.02-.18.09-.17.17,0,.04.05.07.1.08.04,0,.06-.02.07,0,.03.02-.01.07.01.14.01.04.05.07.08.09.05.02.11,0,.18-.03.23-.09.33-.05.36-.13.02-.04,0-.11-.04-.13-.06-.04-.15,0-.29.04-.08.03-.13.05-.15.03-.02-.02,0-.05.01-.12Z"/>
          <path class="cls-3" d="M9.25,8.72s.02-.05.01-.08c0,0,0-.05-.03-.06-.04-.02-.1.04-.13.09-.04.06-.06.17,0,.25.01.01.05.08.14.1.07.02.15-.01.2-.05.04-.04.07-.1.06-.12-.01-.01-.03,0-.1,0-.06,0-.1,0-.12-.02-.03-.03-.02-.09-.02-.12Z"/>
          <path class="cls-3" d="M11.37,9.33s-.07-.03-.09-.02c-.04.03-.01.14-.01.14.02.07.07.15.17.18.02,0,.12.05.21,0,.06-.03.08-.09.09-.12.03-.08.05-.2,0-.22-.03-.02-.1,0-.12.05-.02.03-.02.06-.03.06-.01,0,0-.07-.05-.09-.02-.01-.04-.01-.06,0-.03.02-.02.08-.04.08-.02,0-.02-.03-.06-.06Z"/>
          <path class="cls-3" d="M9.56,7.63c0-.07-.05-.16-.12-.19-.1-.05-.22-.01-.28.07-.06.08-.06.19-.02.26.03.05.1.08.12.15,0,.03,0,.05,0,.06,0,.02-.03.04-.03.04-.09.06-.14.18-.37.31-.16.1-.18.14-.32.21-.03.02-.09.08-.08.12.03.06.26.06.41,0,.19-.08.15-.18.42-.4.11-.09.25-.18.23-.26,0-.03-.03-.06-.04-.12,0-.01,0-.03.02-.09.03-.11.05-.11.06-.15ZM9.4,7.78s-.08,0-.11-.03c-.03-.03-.04-.09,0-.12.03-.02.08,0,.11.02.04.04.04.11.01.13Z"/>
          <path class="cls-3" d="M9.72,7.77c-.07.01-.07.32-.05.53.03.28.05.62.27.71.09.04.23.04.31-.02.09-.08.04-.21.14-.46.04-.09.1-.21.13-.2.04.01-.06.26.03.51,0,.02.12.31.34.34.19.03.41-.15.44-.17.09-.07.15-.16.23-.15.04,0,.06.03.09.06.03.02.24.22.41.2.13-.02.22-.16.23-.18.05-.09.05-.17.1-.18.03,0,.08.03.1.06.02.04,0,.08.03.1.03.03.09,0,.1,0,.11-.04.16-.17.18-.23.02-.05.04-.13.01-.16-.02-.02-.06,0-.16.03-.08.02-.13.03-.15.02-.06-.01-.09-.06-.14-.15-.13-.24-.21-.38-.15-.48,0-.01.05-.08.1-.08.03,0,.04.02.05.01.03-.02,0-.24-.15-.39-.04-.03-.13-.12-.23-.09-.13.03-.17.23-.17.34,0,.12.05.21.13.36.07.13.09.13.12.21.03.1.05.28-.05.34-.06.04-.15.01-.21-.02-.1-.07-.12-.19-.15-.39-.02-.13-.02-.23-.03-.41,0-.13,0-.21-.04-.33-.02-.08-.06-.19-.12-.2-.07,0-.14.12-.15.15-.05.1-.05.19-.05.23,0,.12.05.15.09.29.03.12.02.22.02.26-.01.12-.02.28-.14.38-.02.02-.11.09-.22.07-.11-.02-.17-.13-.19-.16-.05-.1-.03-.16-.02-.41.01-.37-.03-.42-.06-.44-.07-.04-.17,0-.19,0-.26.11-.33.56-.34.64,0,.04-.01.05-.02.09-.03.13-.05.22-.09.23-.05.01-.1-.06-.12-.09-.04-.05-.08-.13-.11-.33-.02-.2,0-.28-.07-.39-.02-.03-.05-.08-.08-.07Z"/>
          <path class="cls-3" d="M10.15,7.3c-.09.02-.15.17-.16.19-.02.04-.04.11-.03.19,0,.04.01.1.06.13.05.03.12-.02.15-.05.03-.03.06-.08.04-.11-.02-.03-.06,0-.09-.04-.03-.03-.01-.1,0-.11.02-.06.06-.07.08-.14.01-.04,0-.05,0-.06-.01-.01-.04,0-.05,0Z"/>
          <path class="cls-3" d="M11,7.34s-.08.06-.09.22c0,.1,0,.09,0,.24,0,.08.03.13.05.14.02.01.07-.05.08-.06.09-.11.09-.24.09-.41,0-.06,0-.11-.03-.12-.03-.01-.07-.02-.09,0Z"/>
          <path class="cls-3" d="M14.5,10.39c-.15-.4-.36-.67-.43-.78-.15-.25-.3-.49-.45-.73-.02-.26-.04-.48-.06-.61.01-.05.04-.06.04-.06.03-.01.04.01.06,0,.03-.02,0-.14,0-.14-.05-.18-.15-.27-.35-.55-.03-.04-.07-.11-.11-.1-.06,0-.1.14-.11.23,0,.08,0,.16.02.22-.04-.08-.13-.19-.15-.21-.02-.02-.11-.13-.25-.24-.15-.12-.19-.12-.21-.11-.04.02-.05.07-.07.15-.02.07-.04.18,0,.3.02.04.04.08.06.1.33.39.59.75.82,1.09.08.86.11,1.95.1,2.24,0,.11-.02.36.06.38.06.02.16-.14.21-.22.14-.23.11-.44.08-.63,0,0-.04-.57-.08-1.17.08.15.16.28.22.41.27.54.55,1.05.6,1.06.08.03.11-.37,0-.64ZM13.01,7.98s-.02-.02-.01-.03c.01-.02.11.02.13,0,0,0,0,0,0-.01.02.07.05.12.05.13.02.06.03.14.05.23-.07-.11-.15-.21-.22-.31Z"/>
          <path class="cls-3" d="M13.78,7.6c0,.07.06.09.14.24.01.03.05.1.07.2.02.13,0,.2.02.21.03.01.09-.08.13-.18,0-.01.09-.25-.05-.46-.03-.05-.1-.15-.19-.14-.06,0-.12.07-.12.13Z"/>
          <path class="cls-3" d="M13.9,8.61s-.02-.07-.04-.08c-.02-.01-.07.03-.09.08-.03.07-.01.15.03.21.08.1.22.08.24.07s.14-.02.2-.11c.04-.06.06-.16.02-.21-.02-.02-.05-.04-.06-.03-.03.01-.02.08-.04.09-.02,0-.05-.03-.06-.05-.03-.04-.02-.06-.03-.07-.02,0-.06.02-.08.06-.01.03-.01.04-.02.05-.02,0-.04,0-.05-.02Z"/>
          <path class="cls-3" d="M16.04,8.92s-.04-.06-.07-.09c-.04-.03-.12-.01-.16.03-.05.05-.04.13-.04.15,0,.04.02.11.25.31.16.14.2.15.22.14.03-.01.04-.06.05-.12.03-.17-.04-.25.01-.31.03-.04.08-.02.12-.08.02-.03.03-.06.03-.08.01-.07,0-.2-.09-.25-.06-.03-.15-.02-.18.02-.05.07.04.2-.01.24-.02.02-.07.02-.08.02-.02,0-.03,0-.05,0Z"/>
          <path class="cls-3" d="M17.44,11.69c0-.05.05-.06.05-.1,0-.05-.09-.11-.19-.11-.06,0-.14.05-.13.08,0,.05.12.05.14.13.01.04,0,.08-.01.09-.04.1-.14.1-.14.17,0,.04.03.08.07.09.06.02.1-.05.27-.12.09-.03.14-.04.15-.08,0-.03-.01-.07-.05-.09-.05-.03-.11.02-.14-.02-.02-.02-.02-.05-.01-.06Z"/>
          <path class="cls-3" d="M15.6,10.34s-.05-.39-.17-1.31c-.04-.27-.09-.54-.12-.82.02,0,.05,0,.07,0,.03,0,.09,0,.12-.02.03-.03-.03-.1-.04-.13-.03-.06-.06-.12-.1-.18-.05-.09-.1-.19-.15-.28-.02-.04-.07-.19-.12-.18-.07,0-.11.28-.13.47-.03.35.04.62.06.67.13.52.29,1.46.33,2.33,0,.2-.04.49.03.51.05.01.15-.14.2-.25.13-.29.06-.57.03-.81Z"/>
          <path class="cls-3" d="M14.48,7.47c-.13.21-.13.41-.13.41,0,.2.05.24.08.55,0,.07,0,.12.01.17.04,1,.13,1.41.15,1.8.01.17.07.29.04.61,0,.09-.07.16-.15.25-.09.11-.57.45-.78.57-.03.01-.09.02-.1.05-.01.04.06.11.11.14.17.1.4,0,.46-.02.34-.14.5-.46.56-.6.1-.2.13-.39.16-.6.11-1.02-.15-1.98-.15-1.98,0,0-.16-.6-.06-.63.01,0,.04,0,.06,0,.04-.02.05-.08.05-.1.01-.09-.03-.16-.06-.21-.15-.26-.17-.45-.23-.44-.02,0-.03.02-.03.03Z"/>
          <g>
            <path class="cls-3" d="M16.63,9.81c.07-.07.08-.34,0-.32-.01,0-.56.36-.61.42s-.1.1-.1.17-.02.15,0,.16c.02.02.64-.36.71-.43Z"/>
            <path class="cls-3" d="M16.44,10.02s0,.24.02.29c.03.06.05.36.05.39,0,.03.03.15.08.1s.14-.22.14-.31-.1-.4-.14-.48c-.01-.03-.11-.04-.15,0Z"/>
            <path class="cls-3" d="M17.9,8.24c0,.05.02.13.02.23,0,.14,0,.21.01.22.03,0,.1-.11.13-.25.03-.14-.01-.26-.05-.36-.03-.1-.06-.18-.13-.2-.04-.01-.09,0-.12.04-.04.06,0,.15.02.19.04.07.09.11.12.13Z"/>
            <path class="cls-3" d="M17.65,11.29c.09-.13.15-.15.18-.29.01-.05.02-.26.02-.54.14.21.26.41.36.59.13.18.15.21.15.22,0,0,.12-.35-.03-.64-.12-.24-.4-.63-.49-.75-.02-.37-.05-.74-.1-.97-.13-.57-.15-.65-.06-.65s-.12-.57-.2-.72c-.08-.14-.18-.1-.21-.07s-.1.07-.08.2c.06.32.11.64.15.97.03.22.06.44.08.66-.11-.15-.24-.33-.36-.49-.03-.34-.04-.6-.04-.61,0-.03.1-.04.1-.08,0-.04-.11-.29-.18-.36-.17-.17-.14-.34-.2-.33-.06,0-.11.12-.11.15.01.18.03.43.05.68-.1-.15-.17-.25-.17-.26,0-.06,0-.06.04-.06.04,0,.06-.02.08-.04s-.58-.68-.54-.46c0,0-.14.43.04.64.06.08.31.39.61.8.01.08.02.16.03.2,0,0,.15,1.04.07,1.82,0,.07-.08.24-.18.25-.08.01-.15-.07-.21-.13-.15-.16-.16-.26-.25-.29-.08-.02-.14.02-.18.05-.07.05-.13.12-.23.39-.09.25-.1.38-.19.46-.04.03-.1.05-.19.04-.17-.03-.23-.36-.25-.45-.05-.22,0-.37-.01-.37-.01,0-.21.53.02.92.12.21.36.37.49.31.13-.06.2-.26.27-.62.02-.13.13-.2.23-.2.17-.01.23.28.45.34.19.05.39-.09.49-.2s.17-.34.06-1.42c-.02-.18-.04-.38-.05-.57.12.17.25.35.37.52.04.5.07.98.08,1.45,0,0,0,.06.09-.06Z"/>
            <path class="cls-3" d="M18.54,8.15s.22.07.19-.05-.34-.7-.49-.68c-.05,0-.11.18-.11.25s.04.47.08.76c.04.29.3,2.55.24,2.75s-.22.34-.32.44c-.1.1-.56.28-.56.41s.24.11.47.03.57-.25.62-.62c.05-.36.09-1.34.03-1.95-.06-.6-.21-1.3-.16-1.35Z"/>
          </g>
          <path class="cls-3" d="M13.33,10.35s-.13-.02-.16-.02c-.31.03-1.21,0-1.21-.03,0,0,.08-.01.22-.05.1-.03.3-.08.48-.24.11-.09.24-.22.25-.41,0-.15-.06-.35-.24-.44-.13-.07-.31-.07-.43.01-.14.09-.17.25-.21.41-.04.19,0,.21-.05.28-.11.16-.37.01-.67.16-.19.09-.3.24-.36.34-.01-.08-.02-.16-.04-.27-.09-.58-.19-.74-.28-.85-.04-.04-.13-.15-.21-.12-.09.03-.09.23-.09.28,0,.21.07.31.16.56.08.21.12.34.13.51,0,.32-.14.56-.2.64-.17.25-.39.4-.53.46-.16.08-.28.09-.38.04-.06-.03-.09-.09-.11-.17.02-.01.03-.02.04-.03.14-.09.27-.18.42-.34.18-.19.36-.38.39-.66.02-.18,0-.46-.11-.58,0,0-.05-.06-.04-.07.01-.02.08.02.11,0,.03-.03-.02-.16-.08-.25-.05-.08-.13-.18-.25-.19-.07,0-.17.02-.22.09-.08.12.03.3.05.34.06.09.1.07.16.17.08.12.09.24.09.29,0,.05,0,.14-.06.26-.09.19-.25.35-.54.55,0-.26.03-.41,0-.42-.04-.01-.16.21-.22.46-.01.04-.02.08-.03.12-.24.15-.24.14-.46.28-.17.11-.75.47-.71.55.04.08.8-.23.84-.25.12-.05.21-.09.3-.14.01.06.04.13.07.19.13.19.36.28.56.27.19,0,.31-.09.52-.24.13-.09.38-.28.56-.64.01-.02.02-.04.03-.06,0,.06.03.12.06.19.04.08.09.13.18.21.2.17.39.26.51.31.12.05.35.13.47.05.06-.04.08-.09.08-.09,0-.02.03-.08.01-.14-.03-.09-.14-.07-.24-.18-.01-.01-.09-.12-.07-.21.02-.07.1-.11.23-.15.25-.08.47-.09.78-.15.17-.03.27-.05.31-.13.04-.07-.02-.11.03-.22,0-.02.05-.12.13-.22.01-.02.03-.04.02-.05ZM12.3,9.56s.08-.04.13-.02c.05.02.06.07.08.14.01.03,0,.04,0,.05-.02.02-.07.01-.12,0-.06-.03-.12-.12-.09-.16ZM11.51,11.03c-.05.1.01.2-.05.23-.04.02-.08,0-.12-.01-.13-.05-.28-.18-.3-.38,0-.03-.02-.2.07-.25.06-.03.1.03.24.05.21.03.31-.06.4.02.03.02.07.07.06.12-.02.11-.23.08-.3.22Z"/>
        </g>
      </g>
    </g>
  </g>
</svg>