<?xml version="1.0" encoding="UTF-8"?>
<svg id="Layer_1" data-name="Layer 1" xmlns="http://www.w3.org/2000/svg" viewBox="0 0 24 24">
  <defs>
    <style>
      .cls-1 {
        fill: #000;
      }

      .cls-1, .cls-2, .cls-3, .cls-4, .cls-5 {
        stroke-width: 0px;
      }

      .cls-2 {
        fill: #008440;
      }

      .cls-3 {
        fill: none;
      }

      .cls-4 {
        fill: #e21b23;
      }

      .cls-5 {
        fill: #fcee48;
      }
    </style>
  </defs>
  <rect class="cls-3" width="24" height="24"/>
  <g>
    <path class="cls-1" d="M16.71,7.34c2.92,2.92,3.18,7.42.57,10.03-2.61,2.61-7.11,2.36-10.03-.57s-3.18-7.42-.57-10.03c2.61-2.61,7.11-2.36,10.03.57Z"/>
    <g>
      <g>
        <path class="cls-2" d="M7.5,4.21v15.58c-2.69-1.56-4.5-4.47-4.5-7.79s1.81-6.23,4.5-7.79Z"/>
        <path class="cls-4" d="M21,12c0,3.32-1.81,6.23-4.5,7.79V4.21c2.69,1.56,4.5,4.47,4.5,7.79Z"/>
        <path class="cls-5" d="M16.5,4.21v15.58c-1.33.77-2.86,1.21-4.5,1.21s-3.18-.44-4.5-1.21V4.21c1.32-.77,2.86-1.21,4.5-1.21s3.18.44,4.5,1.21Z"/>
      </g>
      <polygon class="cls-2" points="12 9.28 12.67 11.36 14.86 11.36 13.09 12.64 13.77 14.72 12 13.43 10.23 14.72 10.91 12.64 9.14 11.36 11.33 11.36 12 9.28"/>
    </g>
  </g>
</svg>