<?xml version="1.0" encoding="UTF-8"?>
<svg id="Layer_1" data-name="Layer 1" xmlns="http://www.w3.org/2000/svg" viewBox="0 0 24 24">
  <defs>
    <style>
      .cls-1 {
        fill: #fbd759;
      }

      .cls-1, .cls-2, .cls-3, .cls-4, .cls-5, .cls-6, .cls-7 {
        stroke-width: 0px;
      }

      .cls-2 {
        fill: #000;
      }

      .cls-3 {
        fill: #d52827;
      }

      .cls-4 {
        fill: #00793d;
      }

      .cls-5 {
        fill: #043f85;
      }

      .cls-6 {
        fill: none;
      }

      .cls-7 {
        fill: #fff;
      }
    </style>
  </defs>
  <rect class="cls-6" width="24" height="24"/>
  <g>
    <path class="cls-2" d="M16.71,7.34c2.92,2.92,3.18,7.42.57,10.03-2.61,2.61-7.11,2.36-10.03-.57-2.92-2.92-3.18-7.42-.57-10.03,2.61-2.61,7.11-2.36,10.03.57Z"/>
    <g>
      <path class="cls-5" d="M11.44,3.02L3.48,14.91c-.32-.92-.48-1.89-.48-2.91C3,7.23,6.74,3.31,11.44,3.02Z"/>
      <path class="cls-3" d="M21,12c0,.63-.07,1.25-.19,1.85l-14.73,4.92c-.56-.49-1.06-1.05-1.48-1.66l14.38-10.78c1.26,1.55,2.02,3.52,2.02,5.67Z"/>
      <path class="cls-1" d="M18.98,6.33l-14.38,10.78c-.47-.67-.84-1.41-1.11-2.2L11.44,3.02c.19-.01.37-.02.56-.02,2.81,0,5.33,1.3,6.98,3.33Z"/>
      <path class="cls-7" d="M20.81,13.85c-.31,1.46-.97,2.79-1.89,3.9l-11.59,1.93c-.44-.27-.85-.57-1.24-.91l14.73-4.92Z"/>
      <path class="cls-4" d="M18.91,17.75c-1.65,1.98-4.14,3.25-6.91,3.25-1.71,0-3.31-.48-4.68-1.32l11.59-1.93Z"/>
    </g>
  </g>
</svg>