<?xml version="1.0" encoding="UTF-8"?>
<svg id="Layer_1" data-name="Layer 1" xmlns="http://www.w3.org/2000/svg" viewBox="0 0 24 24">
  <defs>
    <style>
      .cls-1 {
        fill: #000;
      }

      .cls-1, .cls-2, .cls-3, .cls-4 {
        stroke-width: 0px;
      }

      .cls-2 {
        fill: none;
      }

      .cls-3 {
        fill: #fff;
      }

      .cls-4 {
        fill: #ec2938;
      }
    </style>
  </defs>
  <rect class="cls-2" width="24" height="24"/>
  <g>
    <path class="cls-1" d="M16.71,7.34c2.92,2.92,3.18,7.42.57,10.03-2.61,2.61-7.11,2.35-10.03-.57-2.92-2.92-3.18-7.42-.57-10.03,2.61-2.61,7.11-2.35,10.03.57Z"/>
    <g>
      <g>
        <path class="cls-4" d="M21,12H3C3,7.04,7.04,3,12,3s9,4.04,9,9Z"/>
        <path class="cls-3" d="M21,12c0,4.96-4.04,9-9,9S3,16.96,3,12h18Z"/>
      </g>
      <g>
        <path class="cls-3" d="M8.26,7.5c0-1.71,1.36-3.11,3.07-3.2-.35-.12-.73-.19-1.12-.19-1.87,0-3.39,1.52-3.39,3.39s1.52,3.39,3.39,3.39c.39,0,.77-.07,1.12-.19-1.71-.09-3.07-1.49-3.07-3.2Z"/>
        <polygon class="cls-3" points="10.17 6.11 10.35 6.67 10.94 6.67 10.46 7.01 10.65 7.57 10.17 7.23 9.69 7.57 9.88 7.01 9.4 6.67 9.99 6.67 10.17 6.11"/>
        <polygon class="cls-3" points="13.78 6.11 13.96 6.67 14.55 6.67 14.07 7.01 14.25 7.57 13.78 7.23 13.3 7.57 13.48 7.01 13.01 6.67 13.6 6.67 13.78 6.11"/>
        <polygon class="cls-3" points="11.97 4.76 12.16 5.31 12.74 5.31 12.27 5.66 12.45 6.22 11.97 5.87 11.5 6.22 11.68 5.66 11.2 5.31 11.79 5.31 11.97 4.76"/>
        <polygon class="cls-3" points="13.1 8.24 13.28 8.8 13.87 8.8 13.4 9.14 13.58 9.7 13.1 9.36 12.63 9.7 12.81 9.14 12.33 8.8 12.92 8.8 13.1 8.24"/>
        <polygon class="cls-3" points="10.84 8.24 11.03 8.8 11.61 8.8 11.14 9.14 11.32 9.7 10.84 9.36 10.37 9.7 10.55 9.14 10.08 8.8 10.66 8.8 10.84 8.24"/>
      </g>
    </g>
  </g>
</svg>