<?xml version="1.0" encoding="UTF-8"?>
<svg id="Layer_1" data-name="Layer 1" xmlns="http://www.w3.org/2000/svg" viewBox="0 0 24 24">
  <defs>
    <style>
      .cls-1 {
        fill: #fcdb19;
      }

      .cls-1, .cls-2, .cls-3, .cls-4, .cls-5, .cls-6 {
        stroke-width: 0px;
      }

      .cls-2 {
        fill: #000;
      }

      .cls-3 {
        fill: #055da3;
      }

      .cls-4 {
        fill: #ec1c24;
      }

      .cls-5 {
        fill: none;
      }

      .cls-6 {
        fill: #fff;
      }
    </style>
  </defs>
  <rect class="cls-5" width="24" height="24"/>
  <g>
    <path class="cls-2" d="M16.71,7.34c2.92,2.92,3.18,7.42.57,10.03-2.61,2.61-7.11,2.35-10.03-.57-2.92-2.92-3.18-7.42-.57-10.03,2.61-2.61,7.11-2.36,10.03.57Z"/>
    <g>
      <g>
        <path class="cls-6" d="M20.48,9H3.52c1.24-3.49,4.57-6,8.48-6s7.25,2.51,8.48,6Z"/>
        <path class="cls-4" d="M20.48,15c-1.24,3.49-4.57,6-8.48,6s-7.25-2.51-8.48-6h16.97Z"/>
        <path class="cls-3" d="M21,12c0,1.05-.18,2.06-.52,3H3.52c-.33-.94-.52-1.95-.52-3s.18-2.06.52-3h16.97c.34.94.52,1.95.52,3Z"/>
      </g>
      <g>
        <path class="cls-6" d="M9.25,10.38c.29,0,.29-.15.58-.15s.29.15.58.15c.21,0,.27-.08.4-.12-.03.07-.07.14-.11.21-.07.04-.14.07-.28.07-.29,0-.29-.15-.58-.15s-.29.15-.58.15-.29-.15-.58-.15-.29.15-.58.15c-.14,0-.21-.03-.28-.07-.04-.07-.08-.14-.12-.21.13.04.19.12.4.12.29,0,.29-.15.58-.15s.29.15.58.15Z"/>
        <path class="cls-6" d="M9.25,10.7c.29,0,.29-.15.58-.15s.29.15.58.15c.05,0,.1,0,.14-.01-.26.36-.67.71-1.29.94-.62-.22-1.03-.58-1.29-.94.04.01.08.01.14.01.29,0,.29-.15.58-.15s.29.15.58.15Z"/>
        <path class="cls-6" d="M9.83,10.07c-.29,0-.29.15-.58.15s-.29-.15-.58-.15-.29.15-.58.15c-.25,0-.28-.11-.47-.14-.07-.18-.11-.33-.13-.44l.89-1.18.35.48.52-1.03.52,1.03.35-.48.89,1.18c-.02.11-.06.26-.13.44h0c-.19.03-.22.14-.47.14-.29,0-.29-.15-.58-.15Z"/>
        <path class="cls-3" d="M10.39,6.06c-.76-.15-1.53-.15-2.29,0-.53.1-.87.24-1.05.33v.15s.2,2.46.2,2.46l.04.49c0,.07.17,1.71,1.96,2.31,1.78-.6,1.95-2.24,1.96-2.31l.04-.49.19-2.46v-.15s.01,0,.01,0c-.17-.08-.51-.22-1.05-.33ZM9.73,6.33h.12s.02-.04.02-.04l.03-.06.03.07.02.04h.12s-.07.09-.07.09l.07.1h-.12s-.05.1-.05.1l-.05-.11h-.12s.07-.08.07-.08l-.07-.1ZM9.08,7.2h.12s.05-.1.05-.1l.05.11h.12s-.07.08-.07.08l.07.1h-.12s-.05.1-.05.1l-.05-.11h-.12s.07-.09.07-.09l-.07-.1ZM8.43,6.33h.12s.02-.03.02-.03l.03-.07.03.06.02.05h.12s-.07.09-.07.09l.07.1h-.12s-.05.1-.05.1l-.05-.11h-.12s.07-.08.07-.08l-.07-.1ZM9.25,11.62c-.62-.22-1.03-.58-1.29-.94.04.01.08.01.14.01.29,0,.29-.15.58-.15s.29.15.58.15.29-.15.58-.15.29.15.58.15c.05,0,.1,0,.14-.01-.26.36-.67.71-1.29.94ZM10.69,10.46c-.07.04-.14.07-.28.07-.29,0-.29-.15-.58-.15s-.29.15-.58.15-.29-.15-.58-.15-.29.15-.58.15c-.14,0-.21-.03-.28-.07-.04-.07-.08-.14-.11-.21.13.04.18.12.39.12.29,0,.29-.15.58-.15s.29.15.58.15.29-.15.58-.15.29.15.58.15c.21,0,.27-.08.4-.12-.03.07-.07.14-.11.21ZM11.01,9.64c-.02.11-.06.26-.13.44h0c-.19.03-.22.14-.47.14-.29,0-.29-.15-.58-.15s-.29.15-.58.15-.29-.15-.58-.15-.29.15-.58.15c-.25,0-.28-.11-.47-.14-.07-.18-.11-.33-.13-.44l.48-.64.41-.54.35.48.52-1.03.52,1.03.35-.48.41.54.48.64Z"/>
        <polygon class="cls-1" points="9.85 6.52 9.73 6.53 9.8 6.43 9.73 6.33 9.85 6.35 9.87 6.29 9.87 6.29 9.9 6.23 9.93 6.3 9.93 6.3 9.95 6.35 10.07 6.33 10 6.43 10.07 6.53 9.95 6.52 9.9 6.63 9.85 6.52"/>
        <polygon class="cls-1" points="9.3 7.21 9.42 7.2 9.35 7.3 9.42 7.4 9.3 7.38 9.25 7.5 9.2 7.38 9.08 7.4 9.15 7.3 9.08 7.2 9.2 7.21 9.25 7.1 9.3 7.21"/>
        <polygon class="cls-1" points="8.65 6.52 8.6 6.63 8.55 6.52 8.43 6.53 8.5 6.43 8.43 6.33 8.55 6.35 8.57 6.3 8.6 6.23 8.63 6.29 8.65 6.35 8.77 6.33 8.7 6.43 8.77 6.53 8.65 6.52"/>
        <path class="cls-4" d="M11.35,9.5s-.16,1.82-2.09,2.44c-1.94-.63-2.1-2.44-2.1-2.44l-.23-3.04s.04-.03.14-.07v.15s.23,2.95.23,2.95c0,.07.17,1.71,1.96,2.31,1.78-.6,1.95-2.24,1.96-2.31l.22-2.95v-.15s.01,0,.01,0c.09.04.13.07.13.07l-.23,3.04Z"/>
      </g>
    </g>
  </g>
</svg>