<?xml version="1.0" encoding="UTF-8"?>
<svg id="Layer_1" data-name="Layer 1" xmlns="http://www.w3.org/2000/svg" viewBox="0 0 24 24">
  <defs>
    <style>
      .cls-1 {
        fill: #000;
      }

      .cls-1, .cls-2, .cls-3, .cls-4, .cls-5 {
        stroke-width: 0px;
      }

      .cls-2 {
        fill: none;
      }

      .cls-3 {
        fill: #ed1c24;
      }

      .cls-4 {
        fill: #fff;
      }

      .cls-5 {
        fill: #0f4ea0;
      }
    </style>
  </defs>
  <rect class="cls-2" width="24" height="24"/>
  <g>
    <path class="cls-1" d="M16.71,7.34c2.92,2.92,3.18,7.43.57,10.04-2.61,2.61-7.11,2.35-10.04-.57-2.92-2.92-3.18-7.43-.57-10.04,2.61-2.61,7.11-2.36,10.04.57Z"/>
    <g>
      <g>
        <path class="cls-4" d="M20.48,9H3.52c1.24-3.49,4.57-6,8.48-6s7.25,2.51,8.49,6Z"/>
        <path class="cls-3" d="M20.48,15c-1.24,3.49-4.57,6-8.49,6s-7.25-2.51-8.48-6h16.97Z"/>
        <path class="cls-5" d="M21,12c0,1.05-.18,2.06-.52,3H3.52c-.33-.94-.52-1.95-.52-3s.18-2.06.52-3h16.97c.34.94.52,1.95.52,3Z"/>
      </g>
      <g>
        <path class="cls-4" d="M13.78,10.44c0-.15-.01-.28-.02-.42l-.03-1.03-.06-1.85h-7.58l-.06,1.85-.03,1.03c0,.13-.01.27-.02.42-.06,1.27-.14,3,1.27,4.56.07.08.15.16.23.24h0s.17.16.17.16c.56.48,1.18.91,1.84,1.26l.37.2.37-.2c.66-.35,1.28-.77,1.84-1.26l.17-.15h0c.08-.09.16-.17.23-.25,1.42-1.56,1.34-3.29,1.27-4.56ZM12.78,14.08c-.19.31-.43.62-.74.92h0s-.16.14-.16.14c-.55.47-1.14.87-1.78,1.22l-.21.11-.21-.11c-.64-.34-1.23-.75-1.78-1.22l-.16-.14h0c-.31-.3-.55-.61-.74-.92-.89-1.44-.68-2.95-.65-4.04l.03-1.04.05-1.51h6.93l.05,1.51.03,1.04c.03,1.1.24,2.61-.65,4.04Z"/>
        <path class="cls-3" d="M13.43,10.04c.03,1.1.24,2.61-.64,4.04-.8-1.21-1.48-.47-1.75-.21-.31-.59-.61-.83-.82-.94v-1.44c.63.02,1.25.08,1.87.2v-1.07c-.62.12-1.24.19-1.87.2v-.98c.5.02.99.09,1.47.2v-1.07c-.47.11-.96.18-1.45.2.03-.45.07-.89.14-1.33h-.98c.07.44.12.88.14,1.33-.49-.02-.97-.09-1.45-.2v1.07c.48-.11.98-.18,1.47-.2,0,.06,0,.13,0,.19v.79c-.63-.02-1.26-.08-1.87-.2v1.07c.62-.12,1.25-.19,1.87-.2v1.44c-.22.1-.52.35-.82.94-.27-.27-.96-1-1.75.21-.89-1.44-.68-2.95-.65-4.04l.08-2.55h6.93l.08,2.55Z"/>
        <path class="cls-4" d="M12.08,10.63v1.07c-.62-.12-1.24-.19-1.87-.2v1.44c-.13-.06-.23-.07-.28-.07h-.09c-.05,0-.15.01-.28.07h0v-1.44c-.63.02-1.26.08-1.87.2v-1.07c.62.12,1.25.19,1.87.2v-.79c0-.06,0-.13,0-.19-.5.02-.99.09-1.47.2v-1.07c.48.11.96.18,1.45.2-.03-.45-.07-.89-.14-1.33h.98c-.07.44-.12.88-.14,1.33.49-.02.97-.09,1.45-.2v1.07c-.48-.11-.98-.18-1.47-.2v.98c.63-.02,1.25-.08,1.87-.2Z"/>
        <path class="cls-5" d="M11.03,13.87c-.31-.59-.61-.83-.82-.94-.13-.06-.23-.07-.28-.07h-.09c-.05,0-.15.01-.28.07h0c-.22.1-.52.35-.82.94-.27-.27-.96-1-1.75.21.19.31.43.62.74.92l.17.14c.55.47,1.15.87,1.78,1.22l.21.11.21-.11c.64-.34,1.23-.75,1.78-1.22l.17-.14c.31-.3.55-.61.74-.92-.8-1.21-1.48-.47-1.75-.21Z"/>
      </g>
    </g>
  </g>
</svg>