<?xml version="1.0" encoding="UTF-8"?>
<svg id="Layer_1" data-name="Layer 1" xmlns="http://www.w3.org/2000/svg" viewBox="0 0 24 24">
  <defs>
    <style>
      .cls-1 {
        fill: #0951b8;
      }

      .cls-1, .cls-2, .cls-3, .cls-4, .cls-5, .cls-6 {
        stroke-width: 0px;
      }

      .cls-2 {
        fill: #000;
      }

      .cls-3 {
        fill: #fbd023;
      }

      .cls-4 {
        fill: none;
      }

      .cls-5 {
        fill: #1f5a33;
      }

      .cls-6 {
        fill: #fff;
      }
    </style>
  </defs>
  <rect class="cls-4" width="24" height="24"/>
  <g>
    <path class="cls-2" d="M16.71,7.34c2.92,2.92,3.18,7.42.57,10.03-2.61,2.61-7.11,2.36-10.03-.57s-3.18-7.42-.57-10.03c2.61-2.61,7.11-2.35,10.03.57Z"/>
    <g>
      <g>
        <path class="cls-1" d="M19.63,7.24L3.61,15.25c-.39-1.01-.61-2.11-.61-3.25,0-1.83.55-3.54,1.49-4.96.26-.39.54-.75.85-1.09,1.65-1.81,4.02-2.95,6.65-2.95,3.22,0,6.04,1.7,7.63,4.24Z"/>
        <path class="cls-5" d="M21,12c0,4.96-4.04,9-9,9-3.21,0-6.04-1.69-7.63-4.24l16.03-8.01c.39,1.01.61,2.11.61,3.25Z"/>
        <path class="cls-3" d="M20.39,8.75L4.37,16.76c-.3-.47-.55-.98-.76-1.51L19.63,7.24c.3.47.55.98.76,1.51Z"/>
      </g>
      <g>
        <polygon class="cls-6" points="7.41 7.16 7.67 7.97 8.54 7.97 7.84 8.48 8.11 9.3 7.41 8.79 6.71 9.3 6.98 8.48 6.28 7.97 7.14 7.97 7.41 7.16"/>
        <g>
          <g>
            <path class="cls-6" d="M5.53,6.51l.27.82-.7-.51-.69.51.09-.28c.26-.39.54-.75.85-1.09l.02.05h.86l-.69.51Z"/>
            <polygon class="cls-6" points="9.72 5.18 9.99 6 10.85 6 10.15 6.51 10.42 7.32 9.72 6.82 9.02 7.32 9.29 6.51 8.59 6 9.45 6 9.72 5.18"/>
          </g>
          <polygon class="cls-6" points="5.1 9.13 5.36 9.95 6.22 9.95 5.53 10.45 5.79 11.27 5.1 10.77 4.4 11.27 4.67 10.45 3.97 9.95 4.83 9.95 5.1 9.13"/>
          <polygon class="cls-6" points="9.72 9.13 9.99 9.95 10.85 9.95 10.15 10.45 10.42 11.27 9.72 10.77 9.02 11.27 9.29 10.45 8.59 9.95 9.45 9.95 9.72 9.13"/>
        </g>
      </g>
    </g>
  </g>
</svg>