<?xml version="1.0" encoding="UTF-8"?>
<svg id="Layer_1" data-name="Layer 1" xmlns="http://www.w3.org/2000/svg" viewBox="0 0 24 24">
  <defs>
    <style>
      .cls-1 {
        fill: #4289db;
      }

      .cls-1, .cls-2, .cls-3, .cls-4 {
        stroke-width: 0px;
      }

      .cls-2 {
        fill: #000;
      }

      .cls-3 {
        fill: none;
      }

      .cls-4 {
        fill: #fff;
      }
    </style>
  </defs>
  <rect class="cls-3" width="24" height="24"/>
  <g>
    <path class="cls-2" d="M16.71,7.34c2.92,2.92,3.18,7.42.57,10.03-2.61,2.61-7.11,2.36-10.03-.57-2.92-2.92-3.18-7.42-.57-10.03,2.61-2.61,7.11-2.36,10.03.57Z"/>
    <g>
      <path class="cls-1" d="M12,21c-4.96,0-9-4.04-9-9S7.04,3,12,3s9,4.04,9,9-4.04,9-9,9Z"/>
      <polygon class="cls-4" points="12 8.04 12.98 11.07 16.16 11.07 13.59 12.93 14.57 15.96 12 14.09 9.43 15.96 10.41 12.93 7.84 11.07 11.02 11.07 12 8.04"/>
    </g>
  </g>
</svg>