<?xml version="1.0" encoding="UTF-8"?>
<svg id="Layer_1" data-name="Layer 1" xmlns="http://www.w3.org/2000/svg" viewBox="0 0 24 24">
  <defs>
    <style>
      .cls-1 {
        fill: #de0201;
      }

      .cls-1, .cls-2, .cls-3, .cls-4, .cls-5 {
        stroke-width: 0px;
      }

      .cls-2 {
        fill: #000;
      }

      .cls-3 {
        fill: none;
      }

      .cls-4 {
        fill: #006c23;
      }

      .cls-5 {
        fill: #fff;
      }
    </style>
  </defs>
  <rect class="cls-3" width="24" height="24"/>
  <g>
    <path class="cls-2" d="M16.71,7.34c2.92,2.92,3.18,7.42.57,10.03-2.61,2.61-7.11,2.36-10.03-.57-2.92-2.92-3.18-7.42-.57-10.03,2.61-2.61,7.11-2.36,10.03.57Z"/>
    <g>
      <g>
        <g>
          <path class="cls-1" d="M20.49,15c-1.24,3.49-4.57,6-8.48,6s-7.25-2.51-8.49-6h16.97Z"/>
          <path class="cls-4" d="M20.49,9H3.52c.45-1.27,1.17-2.4,2.1-3.34.11-.11.22-.22.34-.32.05-.05.11-.09.16-.14.07-.06.15-.12.22-.18.05-.04.11-.09.17-.13.08-.06.16-.13.25-.18.02-.02.04-.03.06-.04.11-.08.22-.15.33-.22h0c.06-.04.12-.08.18-.12.09-.05.17-.11.26-.15.06-.04.13-.07.19-.11.11-.06.22-.12.34-.17,1.18-.57,2.5-.88,3.89-.88s2.82.35,4.04.96c.18.09.36.19.54.29.03.02.05.03.08.05.13.08.25.16.37.24.09.06.19.13.28.2.13.1.26.2.39.3.21.17.42.36.62.56.14.14.28.28.41.43.77.86,1.37,1.87,1.77,2.98Z"/>
          <path class="cls-5" d="M21,12c0,1.05-.18,2.06-.51,3H3.51c-.33-.94-.51-1.95-.51-3s.18-2.06.52-3h16.97c.34.94.51,1.95.51,3Z"/>
        </g>
        <polygon class="cls-2" points="12 10.38 12.4 11.62 13.71 11.62 12.65 12.38 13.05 13.62 12 12.85 10.95 13.62 11.35 12.38 10.29 11.62 11.6 11.62 12 10.38"/>
      </g>
      <g>
        <path class="cls-5" d="M5.51,7.24s-.17.23-.23.49c-.04.2-.02.31,0,.35.01.05.08.27.22.28.12.01.22-.14.25-.24.04-.12.02-.25-.02-.26-.03,0-.06.06-.14.07-.01,0-.05,0-.08-.02-.05-.04-.02-.14-.01-.21.04-.21.04-.46,0-.47Z"/>
        <path class="cls-5" d="M6.53,6.18c0-.05-.11-.12-.22-.14-.11-.02-.21.02-.28.05-.26.11-.39.31-.52.53-.04.06-.04.07-.03.08.05.08.69-.35,1-.47.02,0,.06-.02.06-.05Z"/>
        <path class="cls-5" d="M5.62,5.66c.11-.11.22-.22.34-.32-.02.1-.05.25-.16.31,0,0-.09.04-.17.01t0,0Z"/>
        <path class="cls-5" d="M7.76,5.42c-.07.12-.18.17-.21.19-.04.02-.17.08-.3.03-.09-.03-.12-.09-.21-.09-.02,0-.08,0-.12.04-.07.06-.04.18-.01.33.03.17.03.29.03.5,0,.34-.05.45-.08.5-.04.07-.13.18-.19.16-.01,0-.06-.02-.06-.35,0-.26.02-.5-.04-.73-.01-.04-.02-.08-.06-.12-.08-.08-.18-.04-.26-.1-.07-.04-.09-.13-.11-.31-.01-.11-.02-.2-.02-.28.07-.06.15-.12.22-.18,0,.01,0,.03,0,.04,0,.07.02.22.08.24.04,0,.08-.05.08-.06.06-.08.04-.17,0-.35.08-.06.16-.13.25-.18,0,.06.02.15.04.26.01.07.03.15.07.15.02,0,.04-.02.04-.03.04-.05,0-.15-.04-.25-.01-.03-.02-.06-.03-.08,0-.03-.02-.07-.02-.1.11-.08.22-.15.33-.22.01.04.02.1.03.16.01.22-.06.26-.01.38.04.09.11.14.17.18.05.04.13.09.19.06.04-.02.06-.08.06-.09.02-.1-.05-.17-.12-.28-.04-.08-.15-.26-.13-.46,0-.01,0-.03,0-.06.09-.05.17-.11.26-.15.04.02.08.05.1.08,0,0,.08.08.09.23,0,.05,0,.07-.02.08-.02.02-.05,0-.06.02-.01.02,0,.08,0,.1.04.09.06.17.1.37.03.17.01.27-.05.38Z"/>
        <path class="cls-5" d="M9.52,5.75s-.09-.04-.14-.03c-.02,0-.06.01-.09.05-.03.04,0,.07-.04.12-.01.01-.03.05-.05.04-.03,0-.02-.06-.06-.1-.04-.05-.13-.07-.19-.04-.03.02-.03.04-.12.17-.04.06-.05.07-.07.08-.04.02-.11.03-.15,0-.04-.04,0-.1-.04-.17-.03-.05-.09-.09-.14-.09-.05,0-.06.04-.09.03-.06-.01-.04-.22-.08-.51-.03-.25-.05-.38-.08-.48-.03-.09-.06-.18-.02-.22.05-.05.15.01.2-.03.04-.04-.04-.13-.12-.34-.05-.14-.07-.26-.14-.35-.11.05-.23.11-.34.17,0,.02.01.04.02.05.05.13.04.28.07.43.03.15,0,.09.09.57.02.13.04.23.06.43.05.33.06.46,0,.5-.05.03-.11,0-.13,0-.12-.04-.11-.16-.2-.21-.1-.05-.22.02-.29.05-.06.03-.18.11-.25.26-.01.03-.12.28.03.44.08.09.22.14.34.11.1-.03.17-.12.2-.09.01.01,0,.03,0,.04-.03.19-.09.29-.09.29-.09.14-.22.21-.31.27-.2.12-.31.18-.46.15-.13-.03-.26-.14-.31-.27-.05-.14.02-.26-.08-.44-.03-.06-.06-.07-.07-.07-.06,0-.11.21-.12.32-.02.14-.04.29.04.47.08.2.23.29.27.32.2.13.4.11.46.11.23-.02.38-.14.47-.21.08-.07.29-.23.36-.51.05-.21,0-.38.12-.48.01,0,.05-.04.08-.03.05.03.01.22,0,.31-.03.15-.07.33-.21.54-.07.11-.18.28-.4.4-.25.15-.48.15-.53.15-.11,0-.41,0-.57-.19-.07-.09-.1-.2-.11-.23-.03-.14,0-.25-.09-.39-.04-.06-.05-.06-.06-.06-.07,0-.1.32-.11.35-.02.16-.03.3.03.47.02.08.09.26.27.39.16.11.32.1.54.09.34-.01.58-.12.67-.16.22-.11.36-.23.42-.29.1-.09.25-.24.34-.49.05-.15.05-.28.06-.37,0-.24-.04-.57,0-.59.02,0,.03,0,.03,0,.02,0,.03.02.05.03.02.02.04.02.09.03.07.01.13,0,.15,0,.04-.01.07-.03.12-.05.08-.04.08-.07.13-.08.03,0,.05,0,.14,0,.2.03.21.03.23.03.09-.01.17-.09.2-.16.08-.16-.03-.32.05-.46,0-.01.02-.04.01-.06ZM7.55,6.35s-.11.03-.15-.01c-.03-.03-.05-.08-.02-.13.03-.04.09-.04.13-.02.04.02.05.07.05.09,0,.02.01.05-.01.08Z"/>
        <path class="cls-5" d="M8.79,6.86c.07.1.1.09.13.14.05.1-.06.21-.01.25.02.02.06.01.08,0,.08-.04.08-.19.08-.24s0-.17-.09-.26c-.03-.03-.09-.1-.15-.09-.04,0-.09.05-.09.09,0,.01,0,.04.05.11Z"/>
        <path class="cls-5" d="M12.81,7.84c0-.06.01-.13-.02-.16-.03-.02-.09,0-.14.03-.04.02-.18.09-.17.17,0,.04.05.08.1.08.04,0,.06-.02.07,0,.03.02,0,.07.01.14.01.04.05.07.08.09.05.02.11,0,.18-.04.23-.09.33-.05.36-.13.02-.05,0-.11-.04-.14-.06-.04-.15,0-.29.04-.08.03-.13.05-.15.03-.02-.02,0-.05.01-.12Z"/>
        <path class="cls-5" d="M9.25,5.05s.02-.05.01-.08c0,0,0-.05-.03-.06-.04-.02-.1.04-.13.09-.04.06-.06.17,0,.25.01.02.05.08.14.1.07.02.15,0,.2-.05.04-.04.07-.1.06-.12-.01-.01-.03,0-.1,0-.06,0-.1,0-.12-.02-.03-.03-.02-.09-.02-.12Z"/>
        <path class="cls-5" d="M11.37,5.67s-.07-.03-.09-.02c-.04.03-.01.13-.01.14.02.07.07.15.17.18.02,0,.12.05.21,0,.06-.03.08-.09.1-.12.03-.08.05-.2,0-.23-.03-.02-.1,0-.12.05-.02.03-.02.06-.03.06-.01,0,0-.07-.05-.09-.02-.01-.04-.01-.06,0-.03.02-.02.08-.04.08-.02,0-.02-.03-.06-.06Z"/>
        <path class="cls-5" d="M9.51,4.12c.03-.11.05-.11.06-.15,0-.07-.05-.16-.12-.19-.1-.05-.22-.02-.28.06-.06.08-.06.19-.02.26.03.05.1.08.12.15,0,.03,0,.05,0,.06-.01.03-.03.04-.03.04-.09.06-.14.18-.37.31-.17.1-.18.14-.32.21-.03.02-.09.08-.08.12.03.06.26.06.41,0,.19-.08.15-.18.42-.4.11-.09.25-.18.23-.26,0-.03-.04-.06-.04-.12,0-.01,0-.03.02-.09ZM9.4,4.12s-.08,0-.11-.03c-.02-.03-.04-.09,0-.11.03-.02.08,0,.11.02.04.04.04.11.01.13Z"/>
        <path class="cls-5" d="M9.72,4.11c-.07.01-.07.32-.05.53.03.28.05.62.27.71.09.04.23.04.31-.02.09-.08.04-.21.14-.46.04-.09.1-.21.13-.2.04.01-.06.26.03.51,0,.02.12.31.34.34.19.03.41-.15.44-.17.09-.07.15-.16.23-.15.04,0,.06.03.09.06.03.03.24.22.41.2.13-.02.22-.17.23-.18.05-.09.05-.17.1-.18.03,0,.08.03.1.06.02.04,0,.08.03.1.03.03.09,0,.1,0,.11-.04.16-.17.18-.23.02-.05.04-.13.01-.16-.02-.02-.06,0-.16.03-.08.02-.13.03-.15.03-.06-.01-.09-.06-.14-.16-.13-.24-.21-.38-.15-.48,0-.01.05-.08.1-.08.03,0,.04.02.05.01.03-.01,0-.24-.15-.39-.04-.03-.13-.12-.23-.09-.13.03-.17.23-.17.34,0,.12.05.21.13.36.07.13.09.13.12.21.03.1.05.28-.05.35-.06.04-.15.01-.21-.03-.1-.07-.12-.19-.15-.39-.02-.13-.02-.23-.03-.41,0-.12,0-.21-.04-.33-.02-.08-.06-.19-.12-.2-.07,0-.14.12-.15.15-.05.1-.05.19-.05.23,0,.12.05.15.09.3.03.12.02.22.02.26-.01.12-.02.28-.14.38-.02.01-.11.09-.22.07-.12-.02-.17-.13-.19-.16-.05-.1-.03-.16-.02-.41.01-.36-.03-.42-.06-.44-.07-.04-.17,0-.19,0-.26.11-.33.56-.34.64,0,.04,0,.05-.02.09-.03.13-.05.22-.09.23-.05.01-.1-.06-.12-.09-.04-.05-.08-.13-.11-.33-.02-.2,0-.28-.07-.39-.02-.03-.05-.08-.08-.07Z"/>
        <path class="cls-5" d="M10.15,3.64c-.09.02-.15.17-.16.19-.02.04-.04.11-.03.19,0,.04.01.11.06.13.05.03.12-.02.15-.05.03-.03.06-.08.04-.11s-.06,0-.09-.04c-.03-.03,0-.1,0-.11.02-.06.06-.07.08-.14.01-.04,0-.05,0-.06-.01-.01-.04,0-.05,0Z"/>
        <path class="cls-5" d="M11,3.67s-.08.06-.09.22c-.01.1,0,.09,0,.24,0,.08.03.13.05.13.02.01.07-.05.09-.06.09-.11.09-.24.09-.41,0-.06,0-.1-.03-.12-.03-.01-.07-.02-.09,0Z"/>
        <path class="cls-5" d="M14.51,6.72c-.15-.4-.36-.67-.43-.78-.15-.25-.3-.49-.45-.73-.02-.26-.04-.47-.06-.61.01-.05.04-.06.04-.06.03-.01.04,0,.06,0,.03-.02,0-.14,0-.14-.05-.18-.15-.27-.35-.55-.03-.04-.07-.11-.11-.1-.06,0-.1.14-.11.23,0,.08,0,.16.02.23-.04-.08-.13-.19-.15-.22-.02-.02-.11-.13-.25-.24-.15-.12-.19-.12-.21-.11-.04.02-.05.07-.07.15-.02.07-.04.18,0,.3.02.04.04.08.06.1.33.39.6.75.82,1.09.08.86.11,1.96.1,2.24,0,.1-.02.36.06.38.06.02.17-.14.21-.22.14-.24.11-.44.08-.63,0,0-.04-.57-.08-1.17.08.15.16.28.22.41.27.54.55,1.04.6,1.06.08.03.11-.37,0-.64ZM13.01,4.32s-.02-.02-.01-.03c.01-.03.11.02.13,0,0,0,0,0,0-.01.02.07.05.12.05.13.02.06.03.14.05.23-.07-.11-.15-.21-.22-.32Z"/>
        <path class="cls-5" d="M13.78,3.93c0,.07.06.09.14.24.02.03.05.11.07.21.02.12,0,.2.02.2.03.01.09-.08.13-.18,0-.01.09-.25-.05-.46-.03-.05-.1-.15-.19-.14-.06,0-.12.07-.12.13Z"/>
        <path class="cls-5" d="M13.9,4.94s-.02-.07-.04-.08c-.02-.01-.07.03-.09.08-.03.07-.01.15.03.21.08.1.21.08.24.07.02,0,.14-.02.2-.11.04-.06.06-.16.01-.21-.02-.02-.04-.04-.06-.03-.03.01-.02.08-.04.09-.02,0-.05-.03-.06-.05-.03-.04-.02-.06-.03-.07-.02,0-.06.02-.08.06-.01.03,0,.04-.02.05s-.04,0-.05-.02Z"/>
        <path class="cls-5" d="M16.04,5.25s-.04-.06-.07-.09c-.04-.03-.12-.01-.16.03-.05.05-.04.13-.04.15,0,.04.02.11.25.31.16.14.2.15.22.14.03-.01.04-.06.05-.12.03-.17-.04-.25.01-.31.03-.04.08-.02.12-.08.02-.03.03-.06.03-.08.01-.07,0-.2-.09-.25-.06-.03-.15-.02-.18.03-.05.07.04.2-.01.24-.02.02-.07.02-.08.02-.02,0-.03,0-.05,0Z"/>
        <path class="cls-5" d="M17.44,8.02c0-.05.05-.06.05-.1,0-.05-.09-.12-.19-.11-.06,0-.14.05-.13.08,0,.05.12.05.14.13.01.04,0,.07-.01.09-.04.1-.14.1-.14.16,0,.04.03.08.07.09.06.03.1-.04.27-.12.09-.04.14-.04.15-.08,0-.03-.01-.08-.05-.09-.05-.03-.11.02-.14-.02-.02-.02-.01-.04-.01-.06Z"/>
        <path class="cls-5" d="M15.61,6.67s-.05-.39-.17-1.31c-.04-.27-.09-.54-.12-.82.02,0,.05,0,.07,0,.03,0,.09,0,.12-.02.03-.03-.03-.1-.04-.13-.03-.06-.06-.12-.1-.18-.05-.09-.1-.19-.15-.28-.02-.04-.07-.18-.12-.18-.07,0-.11.28-.13.47-.03.35.04.62.06.67.13.52.29,1.46.33,2.33,0,.2-.04.49.03.51.06.01.15-.14.2-.25.13-.29.06-.57.02-.81Z"/>
        <path class="cls-5" d="M14.49,3.81c-.13.21-.14.41-.14.41,0,.2.05.24.08.55,0,.07.01.12.01.17.04,1,.13,1.41.15,1.8.01.17.07.29.04.61,0,.09-.07.16-.15.25-.09.11-.57.45-.78.57-.03.02-.09.02-.1.05-.01.04.06.11.11.14.17.1.4,0,.46-.02.34-.14.5-.46.56-.6.1-.2.13-.39.16-.6.11-1.02-.15-1.98-.15-1.98,0,0-.16-.6-.06-.63.01,0,.04,0,.06,0,.04-.02.05-.08.05-.1,0-.09-.03-.16-.06-.21-.15-.26-.17-.45-.23-.44-.02,0-.03.02-.03.03Z"/>
        <g>
          <path class="cls-5" d="M16.64,6.15c.07-.07.08-.34,0-.32-.01,0-.56.36-.62.42-.06.06-.1.1-.1.17s-.02.15,0,.17c.02.02.64-.36.72-.43Z"/>
          <path class="cls-5" d="M16.45,6.36s-.01.23.02.29c.03.06.05.36.05.39s.03.15.08.1c.05-.05.14-.22.14-.31s-.1-.4-.14-.48c-.01-.03-.11-.04-.15,0Z"/>
          <path class="cls-5" d="M18.36,7.6h0s0,0,0,0Z"/>
          <path class="cls-5" d="M18.36,7.6s-.02-.03-.15-.21c-.1-.18-.22-.38-.36-.59,0,.28,0,.49-.02.54-.03.14-.09.17-.18.29-.09.13-.09.06-.09.06-.01-.46-.04-.95-.08-1.45-.12-.18-.25-.35-.37-.52.01.19.03.39.05.57.11,1.09.04,1.32-.06,1.42-.1.11-.31.25-.49.2-.22-.06-.28-.35-.45-.34-.09,0-.2.08-.23.2-.07.36-.14.56-.27.62-.13.06-.37-.11-.49-.31-.23-.39-.03-.92-.02-.92,0,0-.04.16.01.37.02.1.08.42.25.45.09.02.15,0,.19-.04.09-.08.1-.2.19-.46.1-.27.16-.33.23-.38.04-.03.1-.07.18-.05.1.03.11.14.26.29.05.06.13.14.2.13.1-.01.17-.18.18-.25.08-.79-.07-1.83-.07-1.83-.01-.05-.02-.12-.03-.2-.31-.41-.55-.72-.61-.8-.09-.12-.1-.3-.08-.44.18.09.36.19.54.29-.01,0-.02,0-.03,0-.04,0-.04,0-.04.06,0,.01.06.12.17.26,0-.1-.01-.19-.02-.28.13.08.25.16.37.24,0,.05.02.29.04.6.12.17.24.34.36.49-.02-.21-.05-.43-.08-.65-.01-.08-.02-.16-.04-.24.13.1.26.2.39.3.01.06.03.12.04.19.05.23.08.61.1.97.09.13.37.51.49.75.15.29.03.64.03.64Z"/>
          <path class="cls-5" d="M18.67,7.78c-.05.37-.39.54-.62.62-.23.08-.47.09-.47-.03s.46-.31.56-.41.25-.23.32-.44c.04-.14-.06-1.17-.14-1.93.14.14.28.28.41.43.04.6,0,1.43-.05,1.76Z"/>
        </g>
        <path class="cls-5" d="M13.34,6.69s-.13-.02-.16-.02c-.31.03-1.21,0-1.21-.03,0-.01.08-.01.22-.05.1-.03.31-.08.48-.24.11-.09.24-.22.25-.41,0-.16-.06-.35-.24-.44-.13-.07-.31-.07-.43.01-.14.09-.17.25-.21.41-.04.19,0,.21-.05.28-.11.16-.37.01-.67.16-.19.09-.3.24-.36.34,0-.07-.02-.16-.04-.27-.09-.58-.19-.74-.29-.85-.04-.04-.13-.15-.21-.12-.09.03-.09.23-.09.28,0,.21.07.31.16.56.08.21.12.35.13.51,0,.32-.14.56-.2.64-.17.25-.39.4-.53.46-.16.07-.28.09-.38.04-.06-.03-.09-.09-.11-.17.01,0,.03-.02.04-.02.14-.09.27-.18.42-.34.18-.19.36-.38.39-.66.02-.18,0-.46-.11-.58,0,0-.05-.05-.04-.07s.08.03.11,0c.03-.03-.02-.16-.08-.25-.05-.08-.13-.18-.25-.19-.07,0-.17.02-.22.09-.08.12.03.3.05.34.06.09.1.08.16.17.08.12.09.24.09.29,0,.05,0,.14-.06.26-.08.19-.25.35-.53.55,0-.26.03-.41,0-.42-.04-.01-.15.22-.22.46-.01.04-.02.08-.03.12-.24.15-.24.13-.47.28-.17.11-.75.47-.71.55.04.08.8-.23.84-.25.12-.05.22-.09.3-.13.01.06.04.12.07.18.13.19.36.28.56.27.19,0,.31-.09.52-.24.13-.09.38-.28.56-.64,0-.02.02-.04.03-.06.01.06.03.12.06.19.04.08.09.13.19.21.19.17.39.26.51.31.12.05.35.13.47.05.06-.04.08-.09.08-.09,0-.02.03-.08.01-.14-.03-.09-.14-.07-.24-.18-.01-.01-.09-.11-.07-.21.02-.07.1-.11.23-.15.25-.08.47-.09.78-.15.17-.03.27-.05.31-.13.04-.07-.02-.11.03-.22,0-.02.05-.12.13-.22.01-.01.03-.04.02-.05ZM12.3,5.9s.08-.04.13-.02c.05.02.06.07.08.13,0,.03,0,.04,0,.05-.02.02-.07.01-.12,0-.06-.03-.12-.12-.09-.16ZM11.52,7.37c-.05.1,0,.19-.05.23-.03.02-.08,0-.12-.01-.13-.05-.28-.18-.3-.38,0-.03-.02-.2.07-.25.06-.03.1.02.24.05.21.03.31-.06.4.02.03.02.07.07.06.12-.02.11-.23.08-.3.22Z"/>
      </g>
    </g>
  </g>
</svg>