<?xml version="1.0" encoding="UTF-8"?>
<svg id="Layer_1" data-name="Layer 1" xmlns="http://www.w3.org/2000/svg" viewBox="0 0 24 24">
  <defs>
    <style>
      .cls-1 {
        fill: #028832;
      }

      .cls-1, .cls-2, .cls-3, .cls-4, .cls-5, .cls-6, .cls-7 {
        stroke-width: 0px;
      }

      .cls-2 {
        fill: #000;
      }

      .cls-3 {
        fill: none;
      }

      .cls-4 {
        fill: #d9131a;
      }

      .cls-5 {
        fill: #1447ad;
      }

      .cls-6 {
        fill: #fff;
      }

      .cls-7 {
        fill: #fbdc1d;
      }
    </style>
  </defs>
  <rect class="cls-3" width="24" height="24"/>
  <g>
    <path class="cls-2" d="M16.71,7.34c2.92,2.92,3.18,7.42.57,10.03-2.61,2.61-7.11,2.35-10.03-.57-2.92-2.92-3.18-7.42-.57-10.03,2.61-2.61,7.11-2.36,10.03.57Z"/>
    <g>
      <g>
        <path class="cls-2" d="M20.48,9H3.51c.07-.2.15-.4.23-.59.38-.86.88-1.65,1.49-2.34,1.65-1.88,4.07-3.07,6.76-3.07,3.69,0,6.86,2.23,8.25,5.41.08.19.16.39.23.59Z"/>
        <path class="cls-4" d="M21,12c0,.94-.15,1.85-.42,2.71-.03.1-.06.2-.1.29H3.51c-.03-.1-.07-.2-.1-.29-.27-.85-.42-1.76-.42-2.71s.15-1.85.42-2.71c.03-.1.06-.2.1-.29h16.97c.03.1.07.2.1.29.27.85.42,1.76.42,2.71Z"/>
        <path class="cls-1" d="M20.48,15c-.07.2-.15.4-.23.59-1.39,3.18-4.56,5.41-8.25,5.41-2.69,0-5.11-1.19-6.76-3.07-.61-.69-1.11-1.48-1.49-2.34-.08-.19-.16-.39-.23-.59h16.97Z"/>
      </g>
      <g>
        <path class="cls-6" d="M20.58,9.29H3.42c.03-.1.06-.2.1-.29.07-.2.15-.4.23-.59h16.5c.08.19.16.39.23.59.03.1.07.2.1.29Z"/>
        <path class="cls-6" d="M20.58,14.71c-.03.1-.06.2-.1.29-.07.2-.15.4-.23.59H3.75c-.08-.19-.16-.39-.23-.59-.03-.1-.07-.2-.1-.29h17.17Z"/>
      </g>
      <path class="cls-5" d="M15.5,12l-4.68,2.71-.51.29-1.02.59-4.05,2.34c-.61-.69-1.11-1.48-1.49-2.34-.08-.19-.16-.39-.23-.59-.03-.1-.07-.2-.1-.29-.27-.85-.42-1.76-.42-2.71s.15-1.85.42-2.71c.03-.1.06-.2.1-.29.07-.2.15-.4.23-.59.38-.86.88-1.65,1.49-2.34l4.05,2.34,1.02.59.51.29,4.68,2.71Z"/>
      <polygon class="cls-7" points="6.57 9.31 7.77 10.97 9.73 10.34 8.52 12 9.73 13.66 7.78 13.03 6.57 14.69 6.57 12.63 4.62 12 6.57 11.37 6.57 9.31"/>
    </g>
  </g>
</svg>