<?xml version="1.0" encoding="UTF-8"?>
<svg id="Layer_1" data-name="Layer 1" xmlns="http://www.w3.org/2000/svg" viewBox="0 0 24 24">
  <defs>
    <style>
      .cls-1 {
        fill: #feb51d;
      }

      .cls-1, .cls-2, .cls-3, .cls-4, .cls-5, .cls-6, .cls-7 {
        stroke-width: 0px;
      }

      .cls-2 {
        fill: #000;
      }

      .cls-3 {
        fill: #062493;
      }

      .cls-4 {
        fill: none;
      }

      .cls-5 {
        fill: #00794d;
      }

      .cls-6 {
        fill: #fff;
      }

      .cls-7 {
        fill: #dd3831;
      }
    </style>
  </defs>
  <rect class="cls-4" width="24" height="24"/>
  <g>
    <path class="cls-2" d="M16.71,7.34c2.92,2.92,3.18,7.42.57,10.03-2.61,2.61-7.11,2.35-10.03-.57-2.92-2.92-3.18-7.42-.57-10.03,2.61-2.61,7.11-2.35,10.03.57Z"/>
    <g>
      <path class="cls-2" d="M8.73,12l-5.07,3.38c-.42-1.04-.66-2.19-.66-3.38s.23-2.34.66-3.38l5.07,3.38Z"/>
      <path class="cls-3" d="M20.49,14.99c-1.23,3.49-4.57,6.01-8.49,6.01-1.56,0-3.03-.4-4.32-1.11l7.35-4.9h5.45Z"/>
      <path class="cls-7" d="M20.49,9.01h-5.45l-7.35-4.9c1.28-.71,2.75-1.11,4.32-1.11,3.91,0,7.25,2.51,8.49,6.01Z"/>
      <path class="cls-1" d="M10.86,12l-6.68,4.45c-.2-.34-.37-.7-.52-1.07l5.07-3.38-5.07-3.38c.15-.37.33-.73.52-1.07l6.68,4.45Z"/>
      <path class="cls-6" d="M20.82,13.81c-.08.4-.19.8-.33,1.18h-5.45l-7.35,4.9c-.38-.21-.74-.44-1.08-.7l8.08-5.38h6.14Z"/>
      <path class="cls-6" d="M20.82,10.19h-6.14L6.6,4.8c.34-.26.7-.49,1.08-.7l7.35,4.9h5.45c.14.38.25.78.33,1.18Z"/>
      <path class="cls-5" d="M21,12c0,.62-.06,1.23-.18,1.81h-6.14l-8.08,5.38c-.98-.74-1.81-1.67-2.42-2.74l6.68-4.45-6.68-4.45c.61-1.07,1.44-2.01,2.42-2.75l8.08,5.39h6.14c.12.59.18,1.19.18,1.81Z"/>
    </g>
  </g>
</svg>