<?xml version="1.0" encoding="UTF-8"?>
<svg id="Layer_1" data-name="Layer 1" xmlns="http://www.w3.org/2000/svg" viewBox="0 0 24 24">
  <defs>
    <style>
      .cls-1 {
        fill: #000;
      }

      .cls-1, .cls-2, .cls-3, .cls-4, .cls-5 {
        stroke-width: 0px;
      }

      .cls-2 {
        fill: none;
      }

      .cls-3 {
        fill: #c60c30;
      }

      .cls-4 {
        fill: #003478;
      }

      .cls-5 {
        fill: #fff;
      }
    </style>
  </defs>
  <rect class="cls-2" width="24" height="24"/>
  <g>
    <path class="cls-1" d="M16.71,7.34c2.92,2.92,3.18,7.42.57,10.03-2.61,2.61-7.11,2.35-10.03-.57-2.92-2.92-3.18-7.42-.57-10.03,2.61-2.61,7.11-2.35,10.03.57Z"/>
    <g>
      <path class="cls-5" d="M21,12c0,4.96-4.04,9-9,9S3,16.96,3,12,7.04,3,12,3s9,4.04,9,9Z"/>
      <g>
        <path class="cls-3" d="M12,8.9c-1.24,0-2.31.73-2.81,1.79h0c0,.33.02,1.32.64,1.72.56.35,1.29.51,2.16-.4.88-.9,1.63-.73,2.02-.54.39.19.92.64.79,1.86h0c.19-.4.29-.85.29-1.32,0-1.71-1.39-3.1-3.1-3.1Z"/>
        <path class="cls-4" d="M14.81,13.32c.13-1.22-.4-1.68-.79-1.86-.39-.19-1.14-.36-2.02.54-.88.9-1.61.75-2.16.4-.62-.39-.65-1.39-.64-1.72h0c-.19.4-.29.85-.29,1.32,0,1.71,1.39,3.1,3.1,3.1,1.24,0,2.31-.73,2.81-1.79h0Z"/>
      </g>
      <g>
        <g>
          <g>
            <rect class="cls-1" x="7.65" y="13.18" width=".51" height="3.1" transform="translate(-6.84 6.86) rotate(-33.69)"/>
            <rect class="cls-1" x="6.36" y="14.04" width=".51" height="3.1" transform="translate(-7.54 6.29) rotate(-33.69)"/>
          </g>
          <g>
            <rect class="cls-1" x="6.54" y="13.75" width=".51" height="1.42" transform="translate(-6.88 6.2) rotate(-33.69)"/>
            <polygon class="cls-1" points="7.12 15.41 7.91 16.6 8.34 16.31 7.55 15.13 7.12 15.41"/>
          </g>
        </g>
        <g>
          <rect class="cls-1" x="17.14" y="14.63" width="1.42" height=".51" transform="translate(-4.4 21.6) rotate(-56.62)"/>
          <rect class="cls-1" x="16.21" y="16.04" width="1.42" height=".51" transform="translate(-6 21.41) rotate(-56.5)"/>
          <rect class="cls-1" x="16.49" y="14.21" width="1.42" height=".51" transform="translate(-4.36 20.8) rotate(-56.44)"/>
          <rect class="cls-1" x="15.56" y="15.61" width="1.42" height=".51" transform="translate(-5.94 20.68) rotate(-56.5)"/>
          <rect class="cls-1" x="14.92" y="15.18" width="1.42" height=".51" transform="translate(-5.88 19.88) rotate(-56.31)"/>
          <rect class="cls-1" x="15.85" y="13.78" width="1.42" height=".51" transform="translate(-4.29 20.07) rotate(-56.44)"/>
        </g>
      </g>
      <g>
        <g>
          <polygon class="cls-1" points="17.81 9.98 17.38 10.27 15.67 7.68 16.1 7.39 17.81 9.98"/>
          <g>
            <rect class="cls-1" x="17.59" y="8.39" width=".51" height="1.42" transform="translate(-2.07 11.32) rotate(-33.38)"/>
            <polygon class="cls-1" points="16.74 6.97 16.32 7.25 17.1 8.43 17.52 8.15 16.74 6.97"/>
            <rect class="cls-1" x="16.31" y="9.25" width=".51" height="1.42" transform="translate(-2.75 10.79) rotate(-33.5)"/>
            <rect class="cls-1" x="15.38" y="7.84" width=".51" height="1.42" transform="translate(-2.12 10.11) rotate(-33.69)"/>
          </g>
        </g>
        <g>
          <rect class="cls-1" x="7.65" y="7.71" width=".51" height="3.1" transform="translate(6.5 -2.84) rotate(33.88)"/>
          <polygon class="cls-1" points="6.61 10.26 6.19 9.98 7.91 7.4 8.34 7.68 6.61 10.26"/>
          <polygon class="cls-1" points="5.97 9.83 5.55 9.55 7.27 6.97 7.7 7.25 5.97 9.83"/>
        </g>
      </g>
    </g>
  </g>
</svg>