<?xml version="1.0" encoding="UTF-8"?>
<svg id="Layer_1" data-name="Layer 1" xmlns="http://www.w3.org/2000/svg" viewBox="0 0 24 24">
  <defs>
    <style>
      .cls-1 {
        fill: #000;
      }

      .cls-1, .cls-2, .cls-3, .cls-4, .cls-5, .cls-6, .cls-7 {
        stroke-width: 0px;
      }

      .cls-2 {
        fill: #005540;
      }

      .cls-3 {
        fill: #ff5a06;
      }

      .cls-4 {
        fill: none;
      }

      .cls-5 {
        fill: #feb613;
      }

      .cls-6 {
        fill: #000101;
      }

      .cls-7 {
        fill: #8c1f28;
      }
    </style>
  </defs>
  <rect class="cls-4" width="24" height="24"/>
  <g>
    <path class="cls-1" d="M16.71,7.34c2.92,2.92,3.18,7.42.57,10.03-2.61,2.61-7.11,2.36-10.03-.57-2.92-2.92-3.18-7.42-.57-10.03s7.11-2.36,10.03.57Z"/>
    <g>
      <path class="cls-5" d="M21,12c0,.74-.09,1.46-.26,2.15,0,.02,0,.04-.01.06-.06.25-.14.51-.23.75,0,.02-.01.05-.02.07-.66,1.84-1.9,3.4-3.51,4.47-1.42.95-3.13,1.5-4.97,1.5s-3.54-.55-4.97-1.5c-.96-.63-1.78-1.44-2.43-2.39-1.01-1.45-1.6-3.21-1.6-5.11s.59-3.66,1.6-5.11c.65-.94,1.48-1.75,2.43-2.39,1.42-.95,3.13-1.5,4.97-1.5s3.55.55,4.97,1.5c1.08.72,2.01,1.67,2.69,2.78.01.02.02.03.03.05.11.17.2.35.3.53.01.03.03.05.04.08.07.13.13.27.19.4,0,.02.02.04.02.06.05.11.09.21.13.32,0,.02.02.05.03.07.03.09.06.17.09.26,0,.02.02.04.02.07.08.24.16.49.22.74,0,.02.01.04.02.06.09.38.16.76.2,1.16,0,.02,0,.04,0,.06.03.29.04.58.04.87Z"/>
      <path class="cls-2" d="M4.6,6.89v10.23c-1.01-1.45-1.6-3.21-1.6-5.11s.59-3.66,1.6-5.11Z"/>
      <path class="cls-3" d="M8.31,4.5v15h-1.28c-.96-.63-1.78-1.44-2.43-2.39V6.89c.65-.94,1.48-1.75,2.43-2.39h1.28Z"/>
      <g>
        <g>
          <path class="cls-7" d="M21,12c0,.74-.09,1.46-.26,2.15,0,.02,0,.04-.01.06-.06.25-.14.51-.23.75,0,.02-.01.05-.02.07-.66,1.84-1.9,3.4-3.51,4.47h-7.76V4.5h7.76c1.08.72,2.01,1.67,2.69,2.78.01.02.02.03.03.05.11.17.2.35.3.53.01.03.03.05.04.08.07.13.13.27.19.4,0,.02.02.04.02.06.05.11.09.21.13.32,0,.02.02.05.03.07.03.09.06.17.09.26,0,.02.02.04.02.07.08.24.16.49.22.74,0,.02.01.04.02.06.09.38.16.76.2,1.16,0,.02,0,.04,0,.06.03.29.04.58.04.87Z"/>
          <g>
            <g>
              <path class="cls-5" d="M9.55,18.94s0,.04,0,.05c0,.02,0,.18,0,.18.13.01.26,0,.39.06.21.08.42.16.65.07.22-.08.38-.28.43-.51.03-.13.01-.25.01-.38,0-.16.02-.32.06-.47.05-.2.15-.4.16-.6,0-.08.03-.23,0-.29-.05.04-.08.14-.12.2-.2.27-.5.42-.81.52-.24.08-.51.13-.72.28-.08.06-.14.15-.18.24-.05.13-.01.28.03.41.03.08.07.16.09.25Z"/>
              <path class="cls-6" d="M11.28,17.03l-.02-.03-.03.02s-.06.08-.08.13c-.01.03-.03.06-.04.08-.21.29-.56.43-.8.51-.05.02-.11.03-.16.05-.2.05-.4.11-.56.24-.09.07-.15.16-.19.25-.04.12-.03.26.03.43.01.03.02.05.03.08.02.05.05.11.06.16,0,.02,0,.03,0,.05v.06c0,.14,0,.14.02.14h.09c.1.01.2.02.29.05.15.06.29.12.45.12.07,0,.15-.01.22-.04.22-.08.39-.29.45-.53.02-.09.02-.18.01-.27,0-.04,0-.08,0-.12,0-.16.02-.31.06-.46.02-.07.04-.14.06-.21.04-.13.09-.26.09-.4,0-.02,0-.04,0-.06,0-.08.02-.19-.02-.25ZM11.01,18.41s0,.08,0,.12c0,.09,0,.17-.01.25-.05.22-.21.41-.41.49-.22.08-.43,0-.63-.07-.1-.04-.21-.05-.31-.05-.02,0-.04,0-.06,0,0-.02,0-.06,0-.08,0-.04,0-.06,0-.07,0-.02,0-.04,0-.06-.01-.06-.04-.12-.06-.17-.01-.03-.02-.05-.03-.08-.06-.16-.07-.29-.03-.39.03-.09.09-.17.17-.23.15-.12.35-.18.54-.23.06-.02.11-.03.17-.05.25-.08.61-.22.83-.53.02-.03.03-.06.05-.09.01-.02.02-.04.03-.06,0,.05,0,.12,0,.17,0,.02,0,.04,0,.06,0,.13-.05.26-.09.39-.02.07-.05.14-.07.21-.04.16-.06.32-.06.48Z"/>
            </g>
            <g>
              <path class="cls-5" d="M9.55,5.06s0-.03,0-.05c0-.02,0-.18,0-.18.13-.01.26,0,.39-.06.21-.08.42-.16.65-.07.22.08.38.28.43.51.03.13.01.25.01.38,0,.16.02.32.06.47.05.2.15.4.16.6,0,.08.03.23,0,.3-.05-.04-.08-.14-.12-.2-.2-.27-.5-.42-.81-.52-.24-.07-.51-.12-.72-.28-.08-.06-.14-.15-.18-.24-.05-.13-.01-.28.03-.41.03-.08.07-.16.09-.25Z"/>
              <path class="cls-6" d="M11.29,6.72s0-.04,0-.06c0-.14-.05-.27-.09-.4-.02-.07-.05-.14-.06-.21-.04-.15-.06-.31-.06-.46,0-.04,0-.08,0-.12,0-.09,0-.18-.01-.27-.06-.24-.23-.45-.45-.53-.08-.03-.15-.04-.22-.04-.16,0-.31.06-.45.12-.09.03-.19.04-.29.05h-.09s-.03.02-.02.15v.06s0,.03,0,.05c-.01.05-.04.11-.06.16-.01.03-.02.05-.03.08-.06.17-.08.32-.03.43.03.1.1.19.19.26.16.13.36.18.56.24.06.02.11.03.16.05.24.08.59.21.8.51.02.02.03.05.04.08.02.05.05.09.08.13l.03.02.02-.03c.03-.06.02-.17.02-.25ZM11.24,6.9s-.02-.04-.03-.06c-.02-.03-.03-.06-.05-.09-.22-.31-.58-.45-.83-.53-.05-.02-.11-.03-.17-.05-.19-.05-.39-.11-.54-.23-.08-.06-.14-.14-.17-.23-.04-.1-.03-.23.03-.39.01-.03.02-.05.03-.08.02-.06.05-.12.06-.18h0s0-.04,0-.06c0,0,0-.02,0-.07,0-.02,0-.06,0-.08.02,0,.04,0,.06,0,.1,0,.21-.01.31-.05.2-.08.41-.16.63-.07.2.08.36.26.41.49.02.08.02.17.01.25,0,.04,0,.08,0,.12,0,.16.02.33.06.48.02.07.04.14.07.21.04.13.09.26.09.39,0,.02,0,.04,0,.06,0,.05.01.12,0,.17Z"/>
            </g>
          </g>
        </g>
        <g>
          <path class="cls-5" d="M20.74,9.85c-.06-.25-.13-.5-.22-.74,0-.02-.01-.04-.02-.07-.05.06-.07.09-.08.12-.03-.03-.08-.11-.08-.18,0-.05.02-.13.07-.2-.01-.02-.02-.05-.03-.07-.04-.11-.09-.21-.13-.32,0-.02-.02-.04-.02-.06-.18.05-.34.19-.41.26-.04-.02-.15-.11-.21-.24-.05-.11-.04-.2,0-.3.06-.1.14-.16.25-.16.06,0,.12.01.18.04-.01-.03-.03-.05-.04-.08-.09-.18-.19-.35-.3-.53-.01-.02-.02-.03-.03-.05-.28.17-.55.42-.64.8-.13.5.27.91.38,1-.05.06-.17.21-.13.39v.05c.06.23.13.49.27.49.09,0,.11-.09.12-.17.01-.08.03-.16.1-.19.11-.04.36.06.56.14.09.04.18.07.25.09.04.01.1.02.17.03,0-.02-.01-.04-.02-.06ZM20.96,11.13s0-.04,0-.06c-.07,0-.14,0-.2,0-.2,0-.4,0-.6,0-.07,0-.14,0-.21,0-.08,0-.17,0-.25,0-.21,0-.44.01-.65,0-.05,0-.11-.01-.16-.04h.03s.02-.03.02-.04c0,0,0,0,0,0,0-.01,0-.02-.02-.02-.02-.03-.1-.17-.11-.2-.03-.06-.05-.13-.06-.2,0,0,0,0,0-.02,0,0,0-.03-.01-.04,0,0,.02,0,.02.01h0s.06.02.08.03c.04.02.07.03.09.01.02-.02.02-.05.02-.11,0-.06-.04-.16-.06-.25-.02-.09-.06-.22-.06-.24,0,0,.02,0,.04,0,.03,0,.1.01.12-.06,0-.02.16-1.46-.21-1.69.01-.01.02-.03.04-.04.13-.13.33-.33.35-.79,0-.03-.02-.04-.03-.05-.02,0-.07-.03-.32.22-.09.09-.16.15-.25.04-.12-.12-.36-.29-.42-.32h0c-.07-.03-.21-.1-.29-.02-.04.04-.04.09-.05.15,0,.05-.01.11-.05.14-.02.02-.04.02-.06.01-.07-.01-.14-.08-.15-.11-.02-.05-.26-.21-.42-.25-.07-.02-.13,0-.16.03-.07.07-.07.18-.06.26,0,.04,0,.08,0,.1-.02,0-.09-.04-.14-.07-.1-.06-.22-.14-.33-.15-.16-.02-.59,0-.62.04-.02.03-.01.07.03.17,0,.02.01.03.01.04,0,.04,0,.07-.03.11-.03.04-.09.07-.14.1-.02.02-.05.03-.07.04-.09.06-.19.06-.31.06-.06,0-.12,0-.18.01-.08.01-.16.04-.24.06-.1.03-.21.06-.31.07,0,0-.02,0-.03,0-.01,0-.05,0-.06,0h0s0-.01,0-.02c0-.02,0-.04,0-.06,0-.02,0-.03,0-.05,0-.04,0-.1-.03-.16-.04-.08-.12-.14-.22-.17-.13-.04-.26-.02-.37.03-.26.14-.21.47-.18.6.06.26.21.44.37.62.02.02.03.04.05.05.18.21.38.39.65.59.01,0,.02,0,.03,0,.01,0,.02-.01.02-.03l-.02-.23c.27.21.28.21.29.21.02,0,.04,0,.09-.24.09.11.31.38.4.52-.17-.01-.66-.07-.99-.24-.15-.08-.27-.13-.39-.18-.01,0-.03-.01-.04-.02-.12-.05-.27-.11-.39-.04-.06.04-.1.09-.09.16.01.13.14.22.24.28-.06.03-.13.11-.16.24-.04.18-.13.47-.13.47,0,.01,0,.02,0,.03s.02.01.03.01c.07,0,.39-.03.55-.05-.09.09-.15.17-.13.22,0,.02.02.04.06.05.14.02.4-.05.49-.09.01.04.04.11.11.13.05.02.1.01.16-.02.05-.02.09-.06.11-.1,0,0,0,.01.01.02.01.03.03.06.05.09.05.09.17.23.26.2.04-.01.05-.05.06-.09.02-.05.03-.1.1-.12.08-.03.13-.01.15,0,.02.02.01.03.01.05-.03.1-.12.21-.23.29-.04.03-.08.05-.13.07-.03.02-.07.03-.1.05-.08.05-.15.1-.22.16-.23.2-.42.4-.57.6-.31.41-.46.91-.42,1.38,0,.07.02.15.03.22-.27-.23-.92-.88-1.06-1.02.05-.03.09-.07.12-.12.12-.17.08-.37.05-.45-.05-.11-.18-.23-.4-.2,0-.32.07-2.66.11-3.18,0-.13.02-.25.02-.38.01-.21.03-.43.05-.64.03-.36.07-.7.21-1.04,0,0,.01-.02.02-.03.05-.09.09-.19.07-.24,0-.02-.02-.03-.03-.03-.03-.01-.06,0-.07,0-.5.18-.79.69-.95,1.09-.06.15-.11.31-.15.48-.31,1.26-.23,3.59-.22,3.98-.01,0-.03-.01-.05-.02-.24-.05-.39.07-.44.19-.03.08-.07.29.05.45.09.13.25.21.47.25-.02.02-.03.05-.03.08,0,.06,0,.09.02.12-.06,0-.14.05-.14.15,0,.08,0,.13.07.19.02.02.05.04.08.05-.04.03-.1.1-.06.18.03.05.08.09.13.12-.01,0-.02.01-.03.02-.01.01-.03.04-.02.08.02.12.08.19.17.23-.01,0-.02.02-.01.03.02.06-.01.11-.03.13,0,0-.03,0-.05-.02,0,0,0,0-.01,0,0,0-.02-.01-.03-.01-.03-.02-.06-.04-.1-.04-.06-.01-.14.02-.17.08-.03.07-.02.16.04.23.05.07.12.1.2.1h.02s.08,0,.1.01c0,0,0,0,0,0,0,.03-.04.08-.06.11h-.01c-.04.06-.08.1-.13.15,0,.01-.01.02,0,.04l.02.03c.05.1.1.19.14.3.02.06-.01.16-.09.28h-.01s-.08-.09-.08-.09c-.03-.03-.07-.05-.12-.05-.04,0-.08.02-.11.05-.03.03-.04.07-.05.12-.02.14,0,.24.08.31.04.04.09.06.16.08,0,0,.02,0,.03,0,.02,0,.04,0,.06.01-.01.02-.03.03-.04.05-.01.01-.03.03-.04.04-.03.04-.06.07-.09.11,0,.01-.01.02,0,.03.01.03.15.06.36.08.06.25.23.31.24.32h.02s.18-.06.24-.32c.21-.02.35-.05.36-.08,0-.01,0-.02,0-.03-.03-.03-.06-.07-.1-.11-.01-.01-.03-.03-.04-.04-.01-.02-.03-.03-.05-.05.02,0,.04-.01.06-.01.02,0,.03,0,.03,0,.07-.02.12-.04.16-.08.07-.07.1-.17.08-.31,0-.05-.03-.09-.05-.12-.03-.03-.07-.05-.11-.05-.04,0-.08.02-.12.05l-.08.08s0,0-.01.01c-.08-.12-.11-.21-.09-.28.04-.1.09-.2.14-.3l.02-.03s0-.03,0-.04c-.05-.05-.09-.09-.13-.14h-.01s-.06-.08-.06-.12c0,0,0,0,0,0,.02-.02.07-.01.1-.01h.02c.08,0,.15-.03.2-.1.06-.08.07-.16.04-.23-.02-.05-.08-.08-.13-.08,0,0,.02,0,.03-.01.03-.01.05-.02.06-.03.04.02.15.11.15.26,0,.2.1.62.16.68.06.06.14-.01.19-.06.01-.01.02-.02.03-.03.02.01.05.05.09.08.19.18.53.52.74.52.25,0,.49-.04.81-.45.12.07.24.14.36.2.14.07.28.13.43.17.04.17.1.34.18.49.24.51.17.81.07.98-.1.16-.25.22-.32.22-.08,0-.16-.01-.23-.02-.07-.01-.14-.02-.21-.02-.16,0-.32.05-.45.14-.13.1-.28.28-.27.48,0,.04.01.08.03.11.03.04.07.06.11.06.09,0,.19-.06.24-.09h0s.02,0,.03.02c.02.04.05.07.18.07.18,0,.31-.04.4-.12h0s.02.01.03.02c.01.02.03.03.05.04.05.02.11.02.16.02.02,0,.03,0,.04,0,.02,0,.04,0,.07,0,.1,0,.23.01.3-.05.03.03.1.05.22.06h.06c.12.02.26.03.37-.04.08-.06.13-.15.15-.26.03-.16-.01-.36-.1-.48,0-.01-.02-.02-.01-.04,0-.02.05-.04.08-.05h.03c.3-.13.68-.28.78-.62.01-.04,0-.07-.01-.1-.02-.02-.05-.04-.09-.04-.02,0-.05,0-.07,0-.21,0-.39-.02-.39-.17,0-.09.04-.19.08-.28,0-.01.01-.03.02-.04.03-.06.06-.12.09-.18.03-.07.07-.13.1-.21.01-.02.02-.05.04-.09.04-.02.08-.03.12-.05.31-.12.6-.26.89-.39.1-.05.2-.09.31-.14.45-.21.94-.32,1.43-.35-.04.19.02.4.08.55.04.1.09.19.15.28.01-.02.02-.05.02-.07.09-.25.16-.5.23-.75,0-.02,0-.04.01-.06.17-.69.26-1.41.26-2.15,0-.29-.01-.58-.04-.87ZM12.4,13.97h.05s.05,0,.06-.02c0,0,.01.01.02.01,0,0,0,0,.01,0,.02,0,.04.02.07.02-.04,0-.07.02-.09.04-.01,0-.02.01-.03.01,0,0,0,0-.01,0-.03.02-.04.02-.05.02-.02-.02-.04-.06-.03-.11Z"/>
          <g>
            <path class="cls-6" d="M20.5,9.04c-.05.06-.07.09-.08.12-.03-.03-.08-.11-.08-.18,0-.05.02-.13.07-.2-.01-.02-.02-.05-.03-.07-.07.09-.1.19-.1.27,0,.11.09.25.15.25.03,0,.04-.02.04-.03,0,0,.01-.03.05-.08,0-.02-.01-.04-.02-.07ZM19.81,8.6s-.15-.11-.21-.24c-.05-.11-.04-.2,0-.3.06-.1.14-.16.25-.16.06,0,.12.01.18.04-.01-.03-.03-.05-.04-.08-.04-.01-.09-.02-.14-.02-.09,0-.21.04-.3.19-.14.25.06.5.19.59.05.04.08.05.1.03h0c.06-.07.22-.21.4-.26,0-.02-.02-.04-.02-.06-.18.05-.34.19-.41.26ZM20.74,9.85c-.06,0-.1-.02-.14-.03-.07-.02-.16-.05-.25-.09-.23-.09-.48-.18-.61-.13-.11.04-.13.15-.14.23-.02.08-.03.12-.06.12-.1,0-.16-.26-.2-.44v-.05c-.06-.19.12-.35.13-.36,0,0,.01-.02,0-.02,0,0,0-.02-.01-.02,0,0-.52-.42-.38-.96.09-.36.34-.6.61-.76-.01-.02-.02-.03-.03-.05-.28.17-.55.42-.64.8-.13.5.27.91.38,1-.05.06-.17.21-.13.39v.05c.06.23.13.49.27.49.09,0,.11-.09.12-.17.01-.08.03-.16.1-.19.11-.04.36.06.56.14.09.04.18.07.25.09.04.01.1.02.17.03,0-.02-.01-.04-.02-.06ZM19.69,11.16c.08,0,.17,0,.25,0,.07,0,.14,0,.21,0,.2,0,.4,0,.6,0,.07,0,.14,0,.21,0,0-.02,0-.04,0-.06-.07,0-.14,0-.2,0-.2,0-.4,0-.6,0-.07,0-.14,0-.21,0-.08,0-.17,0-.25,0-.21,0-.44.01-.65,0-.05,0-.11-.01-.16-.04h.03s.02-.03.02-.04c0,0,0,0,0,0,0-.01,0-.02-.02-.02-.02-.03-.1-.17-.11-.2-.03-.06-.05-.13-.06-.2,0,0,0,0,0-.02,0,0,0-.03-.01-.04,0,0,.02,0,.02.01h0s.06.02.08.03c.04.02.07.03.09.01.02-.02.02-.05.02-.11,0-.06-.04-.16-.06-.25-.02-.09-.06-.22-.06-.24,0,0,.02,0,.04,0,.03,0,.1.01.12-.06,0-.02.16-1.46-.21-1.69.01-.01.02-.03.04-.04.13-.13.33-.33.35-.79,0-.03-.02-.04-.03-.05-.02,0-.07-.03-.32.22-.09.09-.16.15-.25.04-.12-.12-.36-.29-.42-.32h0c-.07-.03-.21-.1-.29-.02-.04.04-.04.09-.05.15,0,.05-.01.11-.05.14-.02.02-.04.02-.06.01-.07-.01-.14-.08-.15-.11-.02-.05-.26-.21-.42-.25-.07-.02-.13,0-.16.03-.07.07-.07.18-.06.26,0,.04,0,.08,0,.1-.02,0-.09-.04-.14-.07-.1-.06-.22-.14-.33-.15-.16-.02-.59,0-.62.04-.02.03-.01.07.03.17,0,.02.01.03.01.04,0,.04,0,.07-.03.11-.03.04-.09.07-.14.1-.02.02-.05.03-.07.04-.09.06-.19.06-.31.06-.06,0-.12,0-.18.01-.08.01-.16.04-.24.06-.1.03-.21.06-.31.07,0,0-.02,0-.03,0-.01,0-.05,0-.06,0h0s0-.01,0-.02c0-.02,0-.04,0-.06,0-.02,0-.03,0-.05,0-.04,0-.1-.03-.16-.04-.08-.12-.14-.22-.17-.13-.04-.26-.02-.37.03-.26.14-.21.47-.18.6.06.26.21.44.37.62.02.02.03.04.05.05.18.21.38.39.65.59.01,0,.02,0,.03,0,.01,0,.02-.01.02-.03l-.02-.23c.27.21.28.21.29.21.02,0,.04,0,.09-.24.09.11.31.38.4.52-.17-.01-.66-.07-.99-.24-.15-.08-.27-.13-.39-.18-.01,0-.03-.01-.04-.02-.12-.05-.27-.11-.39-.04-.06.04-.1.09-.09.16.01.13.14.22.24.28-.06.03-.13.11-.16.24-.04.18-.13.47-.13.47,0,.01,0,.02,0,.03s.02.01.03.01c.07,0,.39-.03.55-.05-.09.09-.15.17-.13.22,0,.02.02.04.06.05.14.02.4-.05.49-.09.01.04.04.11.11.13.05.02.1.01.16-.02.05-.02.09-.06.11-.1,0,0,0,.01.01.02.01.03.03.06.05.09.05.09.17.23.26.2.04-.01.05-.05.06-.09.02-.05.03-.1.1-.12.08-.03.13-.01.15,0,.02.02.01.03.01.05-.03.1-.12.21-.23.29-.04.03-.08.05-.13.07-.03.02-.07.03-.1.05-.08.05-.15.1-.22.16-.23.2-.42.4-.57.6-.31.41-.46.91-.42,1.38,0,.07.02.15.03.22-.27-.23-.92-.88-1.06-1.02.05-.03.09-.07.12-.12.12-.17.08-.37.05-.45-.05-.11-.18-.23-.4-.2,0-.32.07-2.66.11-3.18,0-.13.02-.25.02-.38.01-.21.03-.43.05-.64.03-.36.07-.7.21-1.04,0,0,.01-.02.02-.03.05-.09.09-.19.07-.24,0-.02-.02-.03-.03-.03-.03-.01-.06,0-.07,0-.5.18-.79.69-.95,1.09-.06.15-.11.31-.15.48-.31,1.26-.23,3.59-.22,3.98-.01,0-.03-.01-.05-.02-.24-.05-.39.07-.44.19-.03.08-.07.29.05.45.09.13.25.21.47.25-.02.02-.03.05-.03.08,0,.06,0,.09.02.12-.06,0-.14.05-.14.15,0,.08,0,.13.07.19.02.02.05.04.08.05-.04.03-.1.1-.06.18.03.05.08.09.13.12-.01,0-.02.01-.03.02-.01.01-.03.04-.02.08.02.12.08.19.17.23-.01,0-.02.02-.01.03.02.06-.01.11-.03.13,0,0-.03,0-.05-.02,0,0,0,0-.01,0,0,0-.02-.01-.03-.01-.03-.02-.06-.04-.1-.04-.06-.01-.14.02-.17.08-.03.07-.02.16.04.23.05.07.12.1.2.1h.02s.08,0,.1.01c0,0,0,0,0,0,0,.03-.04.08-.06.11h-.01c-.04.06-.08.1-.13.15,0,.01-.01.02,0,.04l.02.03c.05.1.1.19.14.3.02.06-.01.16-.09.28h-.01s-.08-.09-.08-.09c-.03-.03-.07-.05-.12-.05-.04,0-.08.02-.11.05-.03.03-.04.07-.05.12-.02.14,0,.24.08.31.04.04.09.06.16.08,0,0,.02,0,.03,0,.02,0,.04,0,.06.01-.01.02-.03.03-.04.05-.01.01-.03.03-.04.04-.03.04-.06.07-.09.11,0,.01-.01.02,0,.03.01.03.15.06.36.08.06.25.23.31.24.32h.02s.18-.06.24-.32c.21-.02.35-.05.36-.08,0-.01,0-.02,0-.03-.03-.03-.06-.07-.1-.11-.01-.01-.03-.03-.04-.04-.01-.02-.03-.03-.05-.05.02,0,.04-.01.06-.01.02,0,.03,0,.03,0,.07-.02.12-.04.16-.08.07-.07.1-.17.08-.31,0-.05-.03-.09-.05-.12-.03-.03-.07-.05-.11-.05-.04,0-.08.02-.12.05l-.08.08s0,0-.01.01c-.08-.12-.11-.21-.09-.28.04-.1.09-.2.14-.3l.02-.03s0-.03,0-.04c-.05-.05-.09-.09-.13-.14h-.01s-.06-.08-.06-.12c0,0,0,0,0,0,.02-.02.07-.01.1-.01h.02c.08,0,.15-.03.2-.1.06-.08.07-.16.04-.23-.02-.05-.08-.08-.13-.08,0,0,.02,0,.03-.01.03-.01.05-.02.06-.03.04.02.15.11.15.26,0,.2.1.62.16.68.06.06.14-.01.19-.06.01-.01.02-.02.03-.03.02.01.05.05.09.08.19.18.53.52.74.52.25,0,.49-.04.81-.45.12.07.24.14.36.2.14.07.28.13.43.17.04.17.1.34.18.49.24.51.17.81.07.98-.1.16-.25.22-.32.22-.08,0-.16-.01-.23-.02-.07-.01-.14-.02-.21-.02-.16,0-.32.05-.45.14-.13.1-.28.28-.27.48,0,.04.01.08.03.11.03.04.07.06.11.06.09,0,.19-.06.24-.09h0s.02,0,.03.02c.02.04.05.07.18.07.18,0,.31-.04.4-.12h0s.02.01.03.02c.01.02.03.03.05.04.05.02.11.02.16.02.02,0,.03,0,.04,0,.02,0,.04,0,.07,0,.1,0,.23.01.3-.05.03.03.1.05.22.06h.06c.12.02.26.03.37-.04.08-.06.13-.15.15-.26.03-.16-.01-.36-.1-.48,0-.01-.02-.02-.01-.04,0-.02.05-.04.08-.05h.03c.3-.13.68-.28.78-.62.01-.04,0-.07-.01-.1-.02-.02-.05-.04-.09-.04-.02,0-.05,0-.07,0-.21,0-.39-.02-.39-.17,0-.09.04-.19.08-.28,0-.01.01-.03.02-.04.03-.06.06-.12.09-.18.03-.07.07-.13.1-.21.01-.02.02-.05.04-.09.04-.02.08-.03.12-.05.31-.12.6-.26.89-.39.1-.05.2-.09.31-.14.45-.21.94-.32,1.43-.35-.04.19.02.4.08.55.04.1.09.19.15.28.01-.02.02-.05.02-.07-.05-.07-.09-.15-.12-.23-.06-.15-.11-.35-.07-.53.02,0,.05,0,.07,0h.02c.1,0,.21,0,.32.01,0-.02,0-.04.01-.06-.11-.02-.23-.01-.34-.01h-.02c-.55,0-1.1.13-1.59.36-.1.05-.2.09-.31.14-.29.13-.59.27-.89.39-.02,0-.04.02-.05.02,0-.02.02-.03.03-.05.18-.34.48-.88.48-1.46,0-.05,0-.1,0-.15,0-.02-.01-.03-.03-.03-.02,0-.03.01-.03.03t0,0s0,.09,0,.14c0,.57-.3,1.1-.48,1.43-.02.04-.05.08-.07.12-.02.04-.04.08-.05.1-.03.07-.06.14-.1.2-.03.06-.06.12-.09.18,0,.01-.01.03-.02.04-.04.1-.09.2-.09.31,0,.23.28.23.45.23.03,0,.05,0,.07,0,.02,0,.03,0,.04.02,0,.01.01.03,0,.05-.09.31-.46.46-.75.57h-.03s-.11.05-.12.1c0,.03,0,.06.02.09.08.11.12.29.09.43-.01.07-.04.16-.13.22-.08.06-.21.05-.33.04-.02,0-.04,0-.06,0-.17-.01-.18-.05-.18-.05,0-.01,0-.03-.02-.03,0,0-.02,0-.04.01,0,0,0,0-.01.02-.05.05-.18.04-.27.04-.03,0-.05,0-.07,0-.02,0-.03,0-.05,0-.05,0-.1,0-.14-.01-.01,0-.02-.02-.03-.03-.02-.02-.04-.04-.07-.04-.01,0-.03,0-.04.02-.07.07-.19.11-.35.11-.11,0-.12-.02-.13-.04-.01-.02-.03-.05-.09-.05,0,0-.01,0-.02,0h0c-.11.07-.23.13-.27.06-.01-.02-.02-.04-.02-.08,0-.17.13-.34.24-.43.12-.09.27-.14.41-.13.06,0,.13.01.2.02.08.01.16.02.24.02s.25-.06.37-.24c.11-.18.19-.5-.06-1.04-.07-.15-.14-.32-.18-.5-.07-.28-.09-.55-.09-.78,0-.33.05-.55.05-.56,0,0,0,0,0,0,0-.01-.01-.03-.02-.03-.02,0-.03,0-.04.02,0,0-.05.23-.05.57,0,.21.02.47.08.74-.14-.04-.26-.09-.38-.15-.24-.13-.47-.25-.65-.44-.38-.4-.63-.89-.67-1.33-.04-.45.11-.94.41-1.34.14-.2.33-.4.56-.59.07-.06.14-.11.21-.15.03-.02.06-.03.09-.05.05-.02.09-.04.14-.07.12-.09.21-.21.25-.32.01-.04,0-.08-.02-.11-.04-.04-.12-.05-.21-.02-.1.03-.12.11-.14.16,0,.02-.01.05-.02.05-.03.01-.12-.06-.19-.18-.02-.03-.04-.06-.05-.09-.02-.05-.04-.08-.07-.07-.03,0-.03.03-.04.04,0,.02-.04.06-.09.09-.02.01-.07.03-.11.01-.05-.02-.07-.07-.08-.1,0-.02-.01-.04-.03-.04,0,0-.02,0-.03,0-.03.02-.33.12-.48.09-.01,0-.02,0-.02,0,0-.02.02-.06.14-.19.04-.05.06-.06.04-.08,0,0-.02-.02-.04,0-.04.02-.36.05-.58.06.03-.09.09-.29.12-.43.04-.17.14-.21.17-.22h0s0,0,0,0c.03,0,.22.05.33.1.08.04.37.07.61.11.12.01.22.03.25.04,0,0,0,0,0,0-.01.01-.07.09-.05.15,0,.01.02.04.06.04.03,0,.09,0,.17.02.31.03.42.04.45,0,.04-.04,0-.14-.11-.33-.02-.03-.03-.06-.05-.09-.06-.12-.47-.62-.49-.64,0-.01-.02-.01-.03-.01-.01,0-.02.01-.02.02-.02.09-.05.2-.06.24-.05-.04-.18-.14-.29-.23,0,0-.02,0-.03,0-.01,0-.02.02-.02.03l.02.23c-.24-.18-.43-.35-.59-.54-.02-.02-.03-.04-.05-.06-.16-.19-.31-.35-.36-.6-.03-.12-.07-.41.15-.54.09-.05.21-.06.32-.03.08.02.15.07.18.14.02.03.03.07.03.13,0,.01,0,.03,0,.04,0,.03,0,.05,0,.08,0,0,0,.01,0,.01,0,.03.01.04.03.05s.05,0,.1,0c0,0,.02,0,.02,0,.11-.01.22-.04.33-.07.07-.02.15-.05.23-.06.05-.01.11-.01.17-.01.12,0,.24,0,.34-.07.02-.01.04-.03.06-.04.05-.03.11-.07.15-.12.04-.05.05-.1.04-.16,0,0,0-.02-.02-.05,0-.02-.03-.08-.03-.11.07-.01.39-.04.57-.02.1.01.21.08.3.14.11.06.17.11.21.07.03-.03.03-.08.03-.15,0-.07,0-.16.04-.21.02-.02.05-.02.08-.01.15.02.38.18.4.22.02.05.11.13.19.15.05.01.09,0,.12-.03.05-.05.06-.12.06-.18,0-.05.01-.09.03-.11.05-.05.17,0,.23.03h0c.06.03.28.19.4.31.07.06.13.09.19.07.06-.02.11-.07.15-.11.12-.12.21-.19.24-.2-.02.42-.21.61-.33.73-.03.03-.05.05-.07.07,0,0,0,.02,0,.03,0,.01.01.02.02.02.34.12.24,1.5.21,1.64,0,.02,0,.02-.05.02,0,0-.01,0-.02,0-.02,0-.05-.04-.1-.09-.04-.05-.09-.1-.13-.14-.05-.05-.09-.1-.12-.14-.07-.07-.09-.16-.13-.27-.01-.04-.02-.09-.04-.14-.04-.12-.11-.2-.15-.21-.02,0-.03,0-.04.01-.02.02,0,.05,0,.07.03.07.01.36,0,.46-.05-.04-.16-.15-.26-.25-.01-.01-.03-.01-.04,0-.01.01-.01.03,0,.04.29.28.31.28.32.28.01,0,.02,0,.03-.01.03-.04.05-.39.03-.52.02.03.05.07.07.14.01.05.03.09.04.13.03.12.06.22.14.3.03.03.07.08.12.13.09.11.16.18.2.22,0,0,0,.01,0,.01-.02.04,0,.13.05.28.03.09.05.18.06.24,0,.02,0,.04,0,.05,0,0-.02,0-.03-.01-.02-.01-.05-.02-.09-.04,0,0,0,0,0,0,0,0-.02,0-.02,0-.11-.05-.27-.21-.4-.33-.18-.17-.23-.21-.27-.2-.01,0-.02.01-.03.03-.01.04-.07.08-.11.11-.19-.19-.21-.18-.23-.17-.02.01-.02.03,0,.06,0,.01,0,.04-.01.07-.03.08-.11.17-.14.19-.05-.06-.27-.29-.27-.29-.01-.01-.03-.01-.04,0-.01.01-.01.03,0,.04.01.01.25.28.28.3.01.01.03.02.07,0,.05-.04.16-.17.17-.27.04.03.09.09.14.14.01.01.02.01.04,0,.01,0,.11-.06.15-.14.04.02.13.11.2.18.13.12.26.25.37.32,0,.02,0,.05.01.09,0,0,0,.01,0,.01.01.07.04.14.07.21,0,.01.03.07.06.12.02.03.03.05.04.07-.01,0-.02.01-.03.02-.02,0-.09,0-.24-.02-.1-.01-.27-.2-.38-.32-.11-.12-.15-.16-.18-.15-.01,0-.02.01-.03.03,0,.02-.01.04-.01.07-.01.06-.03.15-.06.17,0,0-.02,0-.03,0-.05-.01-.16-.12-.24-.2-.13-.13-.21-.21-.25-.16h-.01s-.06.07-.08.09h0c0-.12-.25-.34-.31-.34-.01,0-.02,0-.03.01,0,0-.01.01-.01.03,0,.05-.09.2-.14.26-.05-.04-.2-.23-.32-.41,0-.01-.03-.02-.04,0-.01.01-.02.03,0,.04.13.2.31.44.37.44.01,0,.02,0,.03-.01.03-.03.14-.19.16-.29.07.03.24.2.24.27,0,.04.01.06.03.07.04.02.09-.03.15-.09h0s.11.09.18.15c.11.11.21.21.27.22.03,0,.06,0,.08-.01.06-.04.07-.14.09-.21,0-.01,0-.02,0-.03.03.02.07.08.11.12.13.15.29.33.42.34.14.02.21.02.24.02h0s.07.04.11.05c.11.09.18.15.24.19.03.02.05.04.07.05-.01,0-.02,0-.04,0-.03,0-.06.01-.1.02-.09.02-.17.02-.24.01-.09,0-.18,0-.23.04-.04.04-.06.09-.06.18,0,.09.01.17.02.23,0,.04,0,.09,0,.11,0,0-.03,0-.07-.04-.05-.03-.12-.08-.18-.12-.13-.09-.23-.18-.31-.16-.02,0-.05.02-.06.06-.07.15-.27.4-.32.39,0,0,0,0,0-.05,0-.22-.26-.62-.39-.65-.04,0-.07,0-.08.04-.05.11-.18.28-.24.33-.02-.09-.14-.3-.21-.31-.01,0-.05,0-.06.05-.02.09-.13.25-.19.34-.07-.44-.09-.44-.12-.44-.03,0-.03.04-.03.07,0,.15-.27.4-.37.46,0-.41-.05-.43-.07-.44,0,0-.03,0-.05.01-.06.06-.28.12-.34.11.01-.06.09-.29.17-.49,0-.01,0-.03-.02-.04s-.03,0-.04.02c-.03.08-.17.47-.17.52,0,.02.01.03.03.04.07.03.32-.04.4-.12.02.04.03.19.03.41,0,.01,0,.02.01.03,0,0,.01,0,.02,0,.06,0,.36-.24.43-.45.02.09.04.23.06.36,0,.01.01.02.02.02.01,0,.02,0,.03-.01,0-.01.21-.28.24-.42h0s.15.21.15.27c0,.02.02.04.03.04.07.02.28-.29.32-.38,0,0,0,0,.01,0,.1.02.35.39.35.59,0,.06.02.1.05.11h.01c.12,0,.33-.33.38-.42,0-.02.02-.02.02-.02.05-.01.16.07.26.15.06.05.13.09.18.13.06.04.11.05.14.03.03-.02.03-.07.02-.16,0-.06-.01-.13-.01-.22,0-.07.01-.11.04-.14.04-.03.1-.03.19-.03.08,0,.16,0,.26-.02.04-.01.07-.02.1-.02.06-.01.09-.02.1-.05,0-.03-.02-.05-.11-.12-.04-.03-.09-.07-.16-.13h0c.22.02.44.01.66,0ZM12.03,7.84c.04-.17.09-.33.15-.48.15-.39.44-.89.92-1.06,0,0,.02,0,.03,0,0,.01,0,.06-.07.19l-.02.04c-.15.34-.19.69-.22,1.05-.02.21-.03.43-.05.64,0,.13-.01.25-.02.38-.04.53-.11,2.94-.11,3.2-.08.02-.13.09-.16.17-.02.08,0,.17.04.22,0,0,0,0,0,0,0,.01,0,.02-.01.03-.06.06-.26.08-.33.08-.07,0-.27-.02-.33-.08-.01-.01-.01-.02-.01-.03,0,0,0,0,0,0,.05-.04.06-.13.04-.22-.01-.05-.04-.09-.07-.12-.01-.2-.11-2.69.21-4.01ZM11.37,12.4c-.1-.15-.07-.32-.04-.4.04-.1.16-.2.37-.15.09.02.13.1.13.14.02.06,0,.13-.02.16-.01.01-.02.03-.02.05,0,.03,0,.05.03.08.08.09.34.1.37.11.03,0,.29-.01.37-.11.02-.02.03-.05.03-.08,0-.02,0-.03-.02-.05-.03-.03-.04-.09-.02-.16.01-.04.04-.12.14-.14.21-.05.33.05.37.15.03.07.06.25-.04.4-.12.18-.4.26-.82.24-.05,0-.1,0-.15,0-.01,0-.03,0-.04,0-.31-.01-.52-.09-.62-.24ZM12.52,12.96s.01.02.01.03h0s-.01.04-.01.04c-.01,0-.04.02-.06.02,0,0-.02,0-.03.01-.03.01-.09,0-.18-.03-.08-.03-.16-.06-.24-.08-.07-.02-.12-.05-.14-.06-.04-.02-.05-.03-.05-.12,0-.02,0-.03.02-.04.02-.02.04-.02.06-.02h0s.06,0,.09,0c.01,0,.03,0,.04,0,.33.02.43.18.48.25ZM11.75,13.18s-.05-.08-.05-.14c0-.08.08-.09.1-.09.06.02.13.04.2.06.07.03.16.06.24.08.09.04.18.07.22.1.02.02.05.04.04.06,0,.03-.04.07-.1.08-.03.01-.07,0-.11,0h-.01c-.07,0-.13-.02-.19-.03-.04,0-.08-.02-.12-.02-.03,0-.05-.01-.08-.02-.06-.01-.12-.05-.16-.09ZM11.78,13.44s.02-.09.04-.11c.15.02.52.07.53.07,0,0,.14.03.2.13.01.02.02.04.01.05-.01.02-.07.04-.14.04-.09,0-.31-.04-.41-.06h-.04c-.06-.02-.15-.05-.19-.13ZM12.6,12.98s0-.03.01-.04c.03-.03.19-.16.23-.16.02,0,.04,0,.04.02,0,0,0,.01-.01.05-.03.06-.07.11-.12.15h-.01c-.05.06-.1.11-.16.1,0,0,0,0,0,0,0,0,0,0,0-.02v-.03s.03-.02.03-.03c0-.01,0-.03,0-.04ZM12.61,13.61s.01-.07-.01-.11c0,0,0-.01-.01-.02,0,0,.01,0,.02,0,0,0,.01,0,.02,0,.03,0,.06-.02.09-.04.04-.03.09-.08.13-.12.02.03.07.14-.02.22-.04.04-.07.07-.09.1-.05.06-.07.08-.11.08-.04,0-.07-.04-.08-.06.03-.01.06-.03.07-.05ZM11.87,13.68s0-.03,0-.03c0-.01.03-.01.03-.01.11,0,.22.02.35.05.05.01.1.02.14.04.03.01.07.04.09.09.02.03.02.06,0,.08,0,0-.01.02-.04.02h0s-.04,0-.06,0c-.2,0-.48,0-.51-.23ZM12.52,13.95s.01.01.02.01c0,0,0,0,.01,0,.02,0,.04.02.07.02-.04,0-.07.02-.09.04-.01,0-.02.01-.03.01,0,0,0,0-.01,0-.03.02-.04.02-.05.02-.02-.02-.04-.06-.03-.11h.05s.05,0,.06-.02ZM12.74,14.1c.03.06,0,.13-.03.17-.04.05-.09.08-.15.08h-.01s-.11,0-.14.03c-.01.01-.02.03-.02.05,0,.06.04.11.07.15h.01c.03.05.07.09.12.14v.02c-.06.1-.12.2-.15.31-.03.08,0,.19.1.33,0,.01.02.03.04.03s.03-.01.05-.03c0,0,0,0,.01-.01l.08-.08s.05-.03.07-.03c.03,0,.05.01.06.03.02.02.03.05.04.09.02.12,0,.2-.06.26-.03.03-.07.05-.13.07,0,0-.02,0-.03,0q-.12.03-.12.04s0,.02,0,.03c.02.03.05.06.08.09l.04.04s.04.05.07.08c-.04.01-.13.03-.31.05-.01,0-.02.01-.03.02-.04.2-.17.27-.2.29-.03-.02-.15-.08-.2-.29,0-.01-.01-.02-.03-.02-.19-.02-.27-.04-.31-.05.02-.03.05-.05.07-.08l.04-.04s.06-.06.08-.09c0,0,0-.02,0-.03t-.12-.04s-.03,0-.03,0c-.06-.02-.1-.04-.13-.07-.06-.05-.08-.14-.06-.26,0-.04.02-.07.04-.09.02-.02.04-.03.07-.03.03,0,.05.01.07.03l.08.08s0,0,.01.01c.01.01.02.03.05.03.02,0,.03-.02.04-.03.09-.14.13-.25.1-.33-.03-.11-.09-.21-.14-.31v-.02s.07-.08.11-.13h0c.03-.05.07-.1.07-.16,0-.02,0-.04-.02-.05-.03-.03-.1-.03-.14-.03h-.01c-.06,0-.11-.02-.15-.08-.03-.05-.06-.12-.03-.17.02-.04.07-.05.11-.05.03,0,.06.02.08.03,0,0,.02.01.03.02,0,0,0,0,.01,0,.03.02.09.05.12.02.03-.03.07-.1.05-.19,0,0,0,0,0,0,.1.03.21.04.31.04,0,.07.03.13.05.15.03.03.09,0,.12-.02,0,0,0,0,0,0,.01,0,.02-.01.03-.02.03-.02.05-.03.08-.03.04,0,.09.01.11.05ZM12.67,13.93s-.07,0-.1-.01c0,0-.02-.01-.03-.01.01-.04,0-.09-.01-.12-.02-.04-.05-.08-.08-.1,0,0,.01,0,.02,0,.02.03.06.09.13.11,0,0,.02,0,.02,0,.06,0,.09-.04.14-.1.02-.02.03-.04.05-.06,0,0,0,.02.01.03,0,.03-.02.12-.05.18-.03.05-.03.05-.11.09ZM14.02,13.67c.1.36.32.73.62,1.04.08.08.16.15.26.21-.31.39-.52.42-.76.42-.18,0-.53-.34-.7-.51-.1-.1-.11-.11-.13-.11-.02,0-.04.01-.07.04-.03.02-.1.08-.11.06-.04-.04-.15-.44-.15-.64,0-.16-.11-.26-.16-.3,0-.01.01-.02.02-.04.03-.06.07-.17.06-.23-.01-.03-.02-.05-.03-.06.1-.11.05-.24.01-.3,0,0,0,0-.01,0,0-.01.01-.02.01-.03.02-.08.05-.18,0-.22-.01-.01-.03-.01-.04,0s-.01.03,0,.04c0,0,.02.03-.02.16-.01.04-.09.12-.16.17-.04.03-.05.03-.05.03,0,0,0,0-.02-.03-.02-.05.01-.15.03-.17l.2-.2s.01-.02,0-.03c.03-.04.06-.07.08-.11.02-.05.03-.08.02-.11-.02-.03-.05-.04-.08-.05-.07-.02-.28.17-.28.17,0,0,0,0,0,.01-.04-.05-.11-.15-.25-.21.24,0,.43-.04.56-.12.13.13.9.91,1.14,1.09ZM15.64,9.94c.04.07.12.22.11.26-.05.01-.28-.01-.4-.03-.08,0-.15-.02-.18-.02,0,0,0,0,0,0,0-.02.02-.07.03-.08,0,0,0,0,0,0,.01-.01.04-.03.03-.05,0-.03-.04-.04-.05-.05-.03-.01-.11-.02-.26-.04-.21-.03-.52-.07-.59-.1-.12-.06-.32-.11-.36-.11h0c-.09-.06-.24-.15-.25-.26,0-.05.04-.08.06-.1.1-.06.23,0,.34.04.01,0,.03.01.04.02.11.05.23.1.39.18.38.19.95.24,1.05.25.01.03.03.06.05.09Z"/>
            <path class="cls-6" d="M15.95,8.76c.06,0,.11-.02.14-.06.04-.04.05-.1.04-.15-.01-.05-.05-.1-.11-.12-.01,0-.03,0-.04.02,0,.02,0,.03.02.04.04.02.06.05.07.08,0,.03,0,.07-.03.1-.04.04-.09.05-.16.03-.04-.01-.13-.05-.13-.12s.03-.14.07-.19c.05-.05.12-.07.2-.04.05.02.1.04.15.07.02.01.05.03.07.04.09.04.16.08.23.11.2.09.37.13.54.13h.07s.02-.01.03-.02,0-.02,0-.03l-.02-.02c-.07-.07-.14-.13-.17-.21.21.13.55.22.95.14.01,0,.02-.01.02-.02,0,0,0-.02,0-.03-.04-.05-.09-.09-.13-.13-.05-.04-.09-.08-.13-.13.45,0,.8-.11,1.02-.3.01-.01.01-.03,0-.04-.01-.01-.03-.01-.04,0-.22.19-.57.29-1.04.29-.01,0-.02,0-.02.01,0,0,0,.02,0,.03.04.08.11.14.17.19.03.03.06.05.09.08-.41.07-.75-.05-.93-.19-.01,0-.02,0-.03,0s-.02.02-.01.03c.02.11.1.2.19.29-.15,0-.31-.04-.51-.12-.07-.03-.14-.06-.22-.1-.02-.01-.05-.03-.07-.04-.05-.03-.1-.06-.16-.08-.11-.04-.2-.02-.27.05-.06.06-.09.15-.09.23,0,.08.06.14.17.18.03,0,.05.01.08.01Z"/>
            <path class="cls-6" d="M17.72,9.13s-.03.01-.03.03c0,.11-.08.24-.12.29-.04-.04-.12-.12-.18-.21,0-.01-.02-.02-.03-.01s-.02.01-.02.03c0,.11-.06.2-.09.23l-.1-.1s-.02-.01-.03,0c-.01,0-.02.02-.02.03,0,.14-.02.29-.04.3-.03,0-.17-.13-.29-.28,0-.01-.02-.01-.03-.01-.01,0-.02.01-.02.03,0,0-.02.06-.15.25-.24-.1-.31-.34-.31-.34,0-.02-.02-.03-.04-.02-.01,0-.02.02-.02.04,0,.01.08.29.37.39,0,0,0,0,.01,0,.01,0,.02,0,.02-.01.07-.11.12-.19.15-.25.08.09.24.26.31.26.08,0,.1-.16.1-.29l.07.07s.03.01.04,0c0,0,.09-.09.13-.22.08.11.16.18.17.18,0,0,.01,0,.02,0,0,0,.02,0,.02-.01,0,0,.16-.2.16-.36,0-.02-.01-.03-.03-.03Z"/>
            <path class="cls-6" d="M16.23,10.62s-.03,0-.04.03c-.02.05-.14.18-.21.26l-.07-.29s-.02-.03-.04-.02-.03.02-.02.04l.08.35s.01.02.02.02c.01,0,.02,0,.03,0,.02-.02.17-.18.24-.27.01.07.02.22.02.25,0,.02.01.03.03.03.05.01.22-.12.28-.24.02,0,.09.05.31.36.02.03.03.05.04.05,0,0,.02.01.02.01,0,0,.01,0,.01,0,.05-.02.15-.27.17-.38.05.03.17.14.37.33.02.02.05.03.07.02.05-.02.07-.09.07-.21v-.18s-.01-.03-.03-.03c-.02,0-.03.01-.03.03v.18c0,.1-.03.15-.04.15,0,0,0,0-.01,0-.38-.38-.42-.36-.44-.35-.02,0-.02.02-.02.04,0,.06-.08.26-.12.33,0,0-.01-.01-.02-.02-.2-.28-.31-.39-.37-.38-.01,0-.03,0-.05.04-.04.08-.14.16-.19.19,0-.08-.02-.3-.07-.31Z"/>
          </g>
        </g>
      </g>
    </g>
  </g>
</svg>