<?xml version="1.0" encoding="UTF-8"?>
<svg id="Layer_1" data-name="Layer 1" xmlns="http://www.w3.org/2000/svg" viewBox="0 0 24 24">
  <defs>
    <style>
      .cls-1 {
        fill: #000;
      }

      .cls-1, .cls-2, .cls-3, .cls-4, .cls-5 {
        stroke-width: 0px;
      }

      .cls-2 {
        fill: #d11133;
      }

      .cls-3 {
        fill: #00712a;
      }

      .cls-4 {
        fill: none;
      }

      .cls-5 {
        fill: #fff;
      }
    </style>
  </defs>
  <rect class="cls-4" width="24" height="24"/>
  <g>
    <path class="cls-1" d="M16.71,7.34c2.92,2.92,3.18,7.42.57,10.03-2.61,2.61-7.11,2.36-10.03-.57-2.92-2.92-3.18-7.42-.57-10.03,2.61-2.61,7.11-2.36,10.03.57Z"/>
    <g>
      <g>
        <path class="cls-2" d="M20.49,9H3.52c.43-1.23,1.13-2.34,2.02-3.25,1.64-1.69,3.93-2.75,6.47-2.75,3.91,0,7.25,2.51,8.48,6Z"/>
        <path class="cls-5" d="M21,12c0,1.05-.18,2.06-.51,3H3.52c-.34-.94-.52-1.95-.52-3s.18-2.06.52-3h16.97c.33.94.51,1.95.51,3Z"/>
        <path class="cls-1" d="M20.49,15c-1.24,3.49-4.57,6-8.48,6-2.54,0-4.83-1.05-6.47-2.75-.89-.92-1.58-2.02-2.02-3.25h16.97Z"/>
      </g>
      <path class="cls-3" d="M13.85,12l-3.99,3-4.33,3.25c-.89-.92-1.58-2.02-2.02-3.25-.34-.94-.52-1.95-.52-3s.18-2.06.52-3c.43-1.23,1.13-2.34,2.02-3.25l4.33,3.25,3.99,3Z"/>
    </g>
  </g>
</svg>