<?xml version="1.0" encoding="UTF-8"?>
<svg id="Layer_1" data-name="Layer 1" xmlns="http://www.w3.org/2000/svg" viewBox="0 0 24 24">
  <defs>
    <style>
      .cls-1 {
        fill: #000;
      }

      .cls-1, .cls-2, .cls-3, .cls-4, .cls-5, .cls-6 {
        stroke-width: 0px;
      }

      .cls-2 {
        fill: #ebc726;
      }

      .cls-3 {
        fill: none;
      }

      .cls-4 {
        fill: #b30b2c;
      }

      .cls-5 {
        fill: #357d40;
      }

      .cls-6 {
        fill: #fff;
      }
    </style>
  </defs>
  <rect class="cls-3" width="24" height="24"/>
  <g>
    <path class="cls-1" d="M16.71,7.34c2.92,2.92,3.18,7.42.57,10.03-2.61,2.61-7.11,2.36-10.03-.57-2.92-2.92-3.18-7.42-.57-10.03,2.61-2.61,7.11-2.35,10.03.57Z"/>
    <g>
      <g>
        <path class="cls-5" d="M19.19,6.6H4.8c1.64-2.18,4.26-3.6,7.2-3.6s5.55,1.42,7.19,3.6Z"/>
        <path class="cls-5" d="M19.19,17.4c-1.64,2.18-4.26,3.6-7.19,3.6s-5.55-1.41-7.2-3.6h14.39Z"/>
        <path class="cls-6" d="M20.24,8.39H3.76c.28-.64.63-1.24,1.05-1.79h14.39c.42.55.77,1.15,1.05,1.79Z"/>
        <path class="cls-4" d="M21,12c0,1.28-.27,2.5-.76,3.61H3.76c-.49-1.11-.76-2.33-.76-3.61s.27-2.5.76-3.61h16.49c.49,1.11.76,2.33.76,3.61Z"/>
        <path class="cls-6" d="M20.24,15.61c-.28.64-.63,1.24-1.05,1.79H4.8c-.41-.55-.77-1.15-1.05-1.79h16.49Z"/>
      </g>
      <polygon class="cls-2" points="12 8.75 12.81 11.23 15.42 11.23 13.31 12.77 14.11 15.25 12 13.72 9.88 15.25 10.69 12.77 8.58 11.23 11.19 11.23 12 8.75"/>
    </g>
  </g>
</svg>