<?xml version="1.0" encoding="UTF-8"?>
<svg id="Layer_1" data-name="Layer 1" xmlns="http://www.w3.org/2000/svg" viewBox="0 0 24 24">
  <defs>
    <style>
      .cls-1 {
        fill: #000;
      }

      .cls-1, .cls-2, .cls-3, .cls-4, .cls-5, .cls-6, .cls-7 {
        stroke-width: 0px;
      }

      .cls-2 {
        fill: #3f5eb7;
      }

      .cls-3 {
        fill: none;
      }

      .cls-4 {
        fill: #fff;
      }

      .cls-5 {
        fill: #b00d0c;
      }

      .cls-6 {
        fill: #fed818;
      }

      .cls-7 {
        fill: #3d5da5;
      }
    </style>
  </defs>
  <rect class="cls-3" width="24" height="24"/>
  <g>
    <path class="cls-1" d="M16.71,7.34c2.92,2.92,3.18,7.42.57,10.03-2.61,2.61-7.11,2.36-10.03-.57-2.92-2.92-3.18-7.42-.57-10.03,2.61-2.61,7.11-2.36,10.03.57Z"/>
    <g>
      <g>
        <path class="cls-2" d="M20.28,8.48c-.13-.3-.27-.6-.43-.88-.57-1.02-1.34-1.92-2.25-2.64-1.54-1.22-3.48-1.96-5.6-1.96s-4.06.73-5.6,1.96c-.91.72-1.68,1.62-2.25,2.64-.16.28-.31.58-.43.88-.46,1.08-.71,2.27-.71,3.52s.25,2.44.71,3.52c.13.3.27.6.43.88.58,1.02,1.34,1.92,2.25,2.64,1.54,1.22,3.48,1.96,5.6,1.96s4.06-.73,5.6-1.96c.91-.72,1.68-1.62,2.25-2.64.16-.28.31-.58.43-.88.46-1.08.72-2.27.72-3.52s-.25-2.44-.72-3.52Z"/>
        <path class="cls-6" d="M20.28,15.52c-.13.3-.27.6-.43.88H4.15c-.16-.28-.31-.58-.43-.88h16.57Z"/>
        <path class="cls-6" d="M20.28,8.48H3.71c.13-.3.27-.6.43-.88h15.7c.16.28.31.58.43.88Z"/>
        <path class="cls-5" d="M21,12c0,1.25-.25,2.44-.72,3.52H3.71c-.46-1.08-.71-2.27-.71-3.52s.25-2.44.71-3.52h16.57c.46,1.08.72,2.27.72,3.52Z"/>
      </g>
      <g>
        <g>
          <g>
            <g>
              <polygon class="cls-4" points="17.97 10.99 17.11 11.3 17.97 11.6 18.82 11.3 17.97 10.99"/>
              <path class="cls-1" d="M17.97,10.97l-.57.2-.05.02-.04.02h0s-.04.01-.04.01l-.05.02h-.03s-.06.03-.06.03h-.03s-.03.02-.03.02h.03s.03.02.03.02l.06.02h.03s.04.03.04.03h.04s0,.01,0,.01l.04.02.05.02.57.2.9-.32-.9-.32ZM17.4,11.38l-.08-.03h-.03s-.06-.03-.06-.03h-.03s-.04-.03-.04-.03h.04s.03-.02.03-.02l.06-.02h.03s.08-.04.08-.04h.03s0-.01,0-.01h.02s.51-.19.51-.19l.8.29-.8.29-.51-.18h-.02s-.03-.02-.03-.02Z"/>
            </g>
            <g>
              <path class="cls-6" d="M17.41,11.4H5.04c-.06,0-.1-.05-.1-.1h0c0-.06.05-.1.1-.1h12.37c.06,0,.1.05.1.1h0c0,.06-.05.1-.1.1Z"/>
              <path class="cls-1" d="M11.09,11.19s0,.01,0,.02h.17v-.02h-.16ZM10.52,11.19v.02h.08s0-.01-.01-.02h-.07ZM17.46,11.19s-.02,0-.02,0h0s-.02,0-.03,0H5.04c-.06,0-.12.05-.12.12s.05.12.12.12h12.37s.02,0,.03,0,.02,0,.02-.01c.04-.02.07-.06.07-.11s-.03-.09-.07-.11ZM5.04,11.38s-.09-.04-.09-.09.04-.09.09-.09h12.37s.08.04.08.09-.04.09-.08.09H5.04ZM10.59,11.19h-.07v.02h.08s0-.01-.01-.02ZM11.09,11.19s0,.01,0,.02h.17v-.02h-.16Z"/>
            </g>
            <path class="cls-1" d="M17.22,11.42v-.03s.09-.04.09-.09-.04-.09-.09-.09v-.03c.06,0,.12.05.12.12s-.05.12-.12.12Z"/>
            <path class="cls-1" d="M17.12,11.42v-.03s.09-.04.09-.09-.04-.09-.09-.09v-.03c.06,0,.12.05.12.12s-.05.12-.12.12Z"/>
            <path class="cls-1" d="M17.01,11.42v-.03s.09-.04.09-.09-.04-.09-.09-.09v-.03c.07,0,.12.05.12.12s-.05.12-.12.12Z"/>
          </g>
          <g>
            <g>
              <polygon class="cls-4" points="18.79 10.39 17.94 10.7 18.79 11 19.65 10.7 18.79 10.39"/>
              <path class="cls-1" d="M18.79,10.37l-.57.2-.05.02-.04.02h0s-.03.01-.03.01l-.05.02h-.03s-.06.03-.06.03h-.03s-.03.02-.03.02h.03s.03.02.03.02l.06.02h.03s.05.03.05.03h.04s0,.01,0,.01l.05.02.04.02.57.2.91-.32-.91-.32ZM18.27,10.8h-.04s-.08-.04-.08-.04h-.03s0-.01,0-.01l-.06-.02h-.03s-.04-.03-.04-.03h.04s.03-.02.03-.02l.06-.02h.03s.08-.04.08-.04h.03s.02-.02.02-.02l.51-.18.81.29-.81.29-.51-.18h-.02Z"/>
            </g>
            <g>
              <path class="cls-6" d="M18.24,10.8H5.87c-.06,0-.1-.05-.1-.1h0c0-.06.04-.1.1-.1h12.37c.06,0,.1.05.1.1h0c0,.06-.05.1-.1.1Z"/>
              <path class="cls-1" d="M18.29,10.59s-.01,0-.02,0h0s-.02,0-.03,0H5.87c-.07,0-.12.05-.12.12s.05.12.12.12h12.37s.02,0,.03,0c0,0,.02,0,.02-.01.04-.02.07-.06.07-.11s-.03-.09-.07-.11ZM5.87,10.78s-.09-.04-.09-.09.04-.09.09-.09h12.37s.09.04.09.09-.04.09-.09.09H5.87Z"/>
            </g>
            <path class="cls-1" d="M18.04,10.82v-.03s.09-.04.09-.09-.04-.09-.09-.09v-.03c.07,0,.12.05.12.12s-.05.12-.12.12Z"/>
            <path class="cls-1" d="M17.94,10.82v-.03s.09-.04.09-.09-.04-.09-.09-.09v-.03c.07,0,.12.05.12.12s-.05.12-.12.12Z"/>
            <path class="cls-1" d="M17.84,10.82v-.03s.09-.04.09-.09-.04-.09-.09-.09v-.03c.07,0,.12.05.12.12s-.05.12-.12.12Z"/>
          </g>
        </g>
        <g>
          <path class="cls-6" d="M20.39,12.16H3.61c-.09,0-.16-.07-.16-.16h0c0-.09.07-.16.16-.16h16.78c.09,0,.16.07.16.16h0c0,.09-.07.16-.16.16Z"/>
          <path class="cls-1" d="M4.24,12.14h.01s0,0,0,0h-.01ZM20.39,11.82H3.61c-.09,0-.18.08-.18.18s.08.18.18.18h16.78c.1,0,.18-.08.18-.18s-.08-.18-.18-.18ZM20.39,12.14H3.61c-.08,0-.14-.06-.14-.14s.06-.14.14-.14h16.78c.08,0,.14.06.14.14s-.06.14-.14.14ZM4.24,12.14h.01s0,0,0,0h-.01Z"/>
        </g>
        <g>
          <g>
            <path class="cls-1" d="M12.18,14.27c-.11-.03-.3-.06-.34-.17,0,0-.02-.05,0-.09.03-.04.09-.05.13-.06.12-.01.23-.06.35-.08.18-.04.3-.07.32-.13,0-.05-.05-.09-.1-.13-.1-.08-.19-.1-.41-.18-.15-.06-.19-.08-.21-.12-.02-.06,0-.14.03-.18.04-.06.08-.06.16-.1.13-.08.19-.2.21-.23.06-.13.01-.16.07-.33.04-.11.06-.18.13-.24.09-.08.19-.07.23-.17,0,0,.03-.06,0-.12-.02-.06-.07-.09-.12-.13,0,0-.11-.08-.18-.21-.07-.13-.03-.24-.05-.6,0-.04,0-.09-.04-.14-.04-.05-.09-.03-.12-.08-.05-.06,0-.11-.03-.19s-.11-.11-.2-.15c-.14-.07-.18-.04-.23-.1s-.05-.11-.08-.25c-.05-.23-.12-.24-.13-.38-.02-.16.05-.28.13-.44.04-.08.11-.19.22-.31-2.73.06-4.96,3.03-4.96,3.03,0,0,2.28,3.03,5.04,3.03.35,0,.7-.05,1.03-.14-.03-.12-.08-.19-.13-.24-.16-.19-.47-.32-.72-.38Z"/>
            <path class="cls-4" d="M17.04,12s-2.28-3.03-5.04-3.03h-.08c-.11.12-.18.23-.22.31-.09.16-.15.28-.13.44.02.14.08.15.13.38.03.14.02.2.08.25s.09.03.23.1c.08.04.16.08.2.15s-.01.13.03.19c.03.04.08.03.12.08.04.04.04.1.04.14.02.36-.02.47.05.6.07.13.18.21.18.21.05.04.11.06.12.13.02.05,0,.11,0,.12-.04.09-.14.08-.23.17-.07.06-.09.13-.13.24-.06.18-.01.21-.07.33-.02.03-.08.15-.21.23-.07.04-.12.04-.16.1-.03.05-.06.12-.03.18.02.04.06.07.21.12.23.08.31.1.41.18.05.04.11.09.1.13-.01.06-.13.09-.32.13-.12.03-.23.07-.35.08-.04,0-.11.01-.13.06-.02.04,0,.08,0,.09.04.11.23.14.34.17.25.06.56.19.72.38.04.05.09.13.13.24,2.28-.59,4.01-2.89,4.01-2.89Z"/>
          </g>
          <path class="cls-1" d="M17.05,11.99s-.04-.05-.11-.13c0,0,0-.01-.02-.02,0,0,0-.01-.01-.02-.08-.1-.2-.24-.36-.41,0,0-.01-.01-.01-.02,0,0-.01-.01-.01-.02-.05-.05-.11-.11-.17-.17,0,0-.01-.01-.02-.02,0,0-.01-.01-.02-.02-.11-.12-.24-.24-.37-.36,0,0-.01-.01-.02-.02,0,0-.01-.01-.02-.02-.06-.06-.13-.12-.2-.17,0,0-.01-.01-.02-.02,0,0-.01-.01-.02-.02-.04-.03-.08-.07-.12-.1-.53-.44-1.07-.79-1.61-1.04-.69-.33-1.38-.49-2.04-.47-.62.01-1.27.18-1.93.5-.53.25-1.06.6-1.58,1.04-.03.03-.06.05-.1.08,0,0-.01.01-.02.02,0,0-.01.01-.02.02-.07.06-.13.12-.2.17,0,0-.01.01-.02.02,0,0-.01.01-.02.02-.14.13-.26.25-.37.36,0,0-.01.01-.02.02s-.01.01-.02.02c-.06.06-.11.12-.17.17,0,0-.01.01-.01.02l-.02.02c-.15.17-.27.31-.36.41,0,0,0,.01-.01.02,0,0-.01.01-.01.02-.07.08-.1.13-.11.13h0s0,.02,0,.02c0,0,.04.05.11.13,0,0,.01.01.01.02,0,0,0,.01.01.02.22.26.7.81,1.36,1.35.53.44,1.07.79,1.61,1.04.67.31,1.33.47,1.96.47.34,0,.68-.05,1.03-.14,1.18-.31,2.21-1.08,2.87-1.67.48-.44.84-.84,1.02-1.06,0,0,0-.01.01-.02,0,0,0-.01.01-.02.07-.08.1-.13.11-.13h0s0-.02,0-.02ZM16.89,12.16s0,.01-.01.02c-.19.22-.53.62-1,1.04-.65.59-1.68,1.36-2.85,1.66h0c-.35.09-.69.14-1.02.14-1.42,0-2.71-.82-3.55-1.51-.63-.53-1.11-1.05-1.33-1.33,0,0-.01-.01-.01-.02s0-.01-.01-.02c-.06-.07-.1-.12-.12-.14.02-.02.05-.07.12-.14,0,0,.01-.01.01-.02s.01-.01.01-.02c.08-.1.21-.24.36-.41,0,0,.01-.01.01-.02,0,0,.01-.01.02-.02.05-.05.11-.11.17-.17l.02-.02s.01-.01.02-.02c.11-.12.24-.24.38-.36,0,0,.01-.01.02-.02,0,0,.01-.01.02-.02.06-.06.13-.12.2-.17,0,0,.01-.01.02-.02,0,0,.01-.01.02-.02.02-.02.05-.04.07-.06.82-.68,2.08-1.49,3.48-1.53h.02s.05,0,.08,0c1.42,0,2.71.82,3.55,1.51.03.03.06.05.09.08,0,0,.01.01.02.02,0,0,.01.01.02.02.07.06.13.12.2.17,0,0,.01.01.02.02,0,0,.01.01.02.02.14.13.26.25.38.36,0,0,.01.01.02.02,0,0,.01.01.02.02.06.06.12.12.17.17,0,0,.01.01.01.02l.02.02c.15.16.27.31.36.41,0,0,0,.01.01.02s0,.01.01.02c.06.07.1.12.12.14-.02.02-.05.07-.12.14,0,0,0,.01-.01.02Z"/>
          <g>
            <g>
              <rect class="cls-4" x="8.81" y="10.92" width=".25" height=".81"/>
              <rect class="cls-4" x="9.3" y="10.92" width=".25" height=".81"/>
              <rect class="cls-4" x="9.79" y="10.92" width=".25" height=".81"/>
              <rect class="cls-4" x="10.27" y="10.92" width=".25" height=".81"/>
              <rect class="cls-4" x="10.76" y="10.92" width=".25" height=".81"/>
              <rect class="cls-4" x="11.25" y="10.92" width=".25" height=".81"/>
            </g>
            <g>
              <rect class="cls-4" x="8.81" y="12.27" width=".25" height=".81"/>
              <rect class="cls-4" x="9.3" y="12.27" width=".25" height=".81"/>
              <rect class="cls-4" x="9.79" y="12.27" width=".25" height=".81"/>
              <rect class="cls-4" x="10.27" y="12.27" width=".25" height=".81"/>
              <rect class="cls-4" x="10.76" y="12.27" width=".25" height=".81"/>
              <rect class="cls-4" x="11.25" y="12.27" width=".25" height=".81"/>
            </g>
          </g>
          <g>
            <g>
              <rect class="cls-1" x="12.5" y="10.92" width=".25" height=".81"/>
              <rect class="cls-1" x="12.99" y="10.92" width=".25" height=".81"/>
              <rect class="cls-1" x="13.48" y="10.92" width=".25" height=".81"/>
              <rect class="cls-1" x="13.96" y="10.92" width=".25" height=".81"/>
              <rect class="cls-1" x="14.45" y="10.92" width=".25" height=".81"/>
              <rect class="cls-1" x="14.94" y="10.92" width=".25" height=".81"/>
            </g>
            <g>
              <rect class="cls-1" x="12.5" y="12.27" width=".25" height=".81"/>
              <rect class="cls-1" x="12.99" y="12.27" width=".25" height=".81"/>
              <rect class="cls-1" x="13.48" y="12.27" width=".25" height=".81"/>
              <rect class="cls-1" x="13.96" y="12.27" width=".25" height=".81"/>
              <rect class="cls-1" x="14.45" y="12.27" width=".25" height=".81"/>
              <rect class="cls-1" x="14.94" y="12.27" width=".25" height=".81"/>
            </g>
          </g>
          <path class="cls-7" d="M10.33,9.56s-.55.32-.68.91c.14-.08.12-.08.17-.1-.04.09-.1.2-.05.47.06-.08.13-.14.12-.14s.08.29.23.4c.04-.11.08-.15.08-.15,0,0,.12.24.26.3.04-.04.1-.09.1-.09,0,0,.18.29.48.31,0-.13.04-.28.07-.34.04-.06,0-.2,0-.2l.17.08s-.09-.12-.06-.24c.12.05.15.08.15.08,0,0,0-.29-.23-.55.21.09.31.15.31.15,0,0,0-.83-1.1-.8-.03-.03-.03-.09-.03-.09Z"/>
          <g>
            <path class="cls-5" d="M10.19,10.1c.04.05.07.12.08.18,0,.03,0,.06,0,.1s-.02.06-.02.09c-.01.03-.02.06-.03.09-.01.03-.03.06-.04.08-.03.05-.07.11-.11.15,0,0,0,0,0,0,0,0,0,0,0,0,.02-.06.04-.11.06-.17,0-.03.01-.06.02-.08,0-.03,0-.06.01-.08,0-.03,0-.05,0-.08,0-.03,0-.05,0-.08,0-.06.02-.12.04-.18,0,0,0,0,.01,0,0,0,0,0,0,0Z"/>
            <path class="cls-5" d="M10.53,9.92s.07.02.1.03c.03.01.06.02.08.04.03.01.05.03.07.04.02.02.05.03.07.05s.05.03.08.04c.03.01.05.03.08.04.06.02.11.04.17.06,0,0,0,0,0,0,0,0,0,0,0,0-.06,0-.13,0-.19,0-.03,0-.06-.01-.09-.02-.03,0-.06-.02-.09-.03-.03-.01-.06-.02-.09-.04-.03-.02-.06-.04-.08-.06-.05-.04-.09-.09-.12-.16,0,0,0,0,0-.01h0Z"/>
            <path class="cls-5" d="M10.43,10.54s.04.03.06.04c.02.02.03.04.04.06s.01.04.01.07c0,.02,0,.04,0,.07s0,.04,0,.07c0,.02,0,.04-.01.06-.01.04-.02.08-.04.12,0,0,0,0,0,0,0,0,0,0,0,0,0-.04,0-.08-.01-.12,0-.02,0-.04-.01-.06,0-.02,0-.04-.01-.06,0-.02-.01-.04-.02-.05,0-.02-.01-.03-.01-.05,0-.02,0-.04,0-.06s0-.04.01-.07h0s0,0,0,0h0Z"/>
            <path class="cls-5" d="M10.72,10.95s.04.02.06.03.03.02.04.04c.01.01.02.03.02.04,0,.02,0,.04.01.05l.04.1.04.1s0,0,0,0c0,0,0,0,0,0-.03-.02-.06-.05-.08-.07-.01-.01-.03-.03-.04-.04-.01-.01-.02-.03-.04-.04s-.03-.03-.04-.04-.02-.03-.03-.05c0-.02,0-.04,0-.06s0-.04.01-.06c0,0,0,0,.01,0Z"/>
            <path class="cls-5" d="M10.78,10.39s.05.02.07.03c.02.01.04.02.05.03.02.01.03.03.04.04.01.02.02.03.04.05s.03.03.05.04c.02.01.03.03.05.04.04.02.08.04.12.06,0,0,0,0,0,.01,0,0,0,0,0,0-.05,0-.1,0-.14-.02-.02,0-.05-.01-.07-.02-.02-.01-.04-.02-.07-.03l-.07-.04s-.04-.03-.05-.05c-.01-.02-.02-.05-.03-.07,0-.03-.01-.05,0-.08,0,0,0,0,.01,0h0Z"/>
          </g>
        </g>
        <g>
          <g>
            <path class="cls-7" d="M4.24,12.01v.12s-.16-.02-.28.16-.2.34-.25.56c.07-.06.1-.06.1-.06,0,0,0,.24.03.35l.13-.14s.06.35.1.44l.05-.24s.12.01.13.21.13.27.22.34l.08-.07s.07.05.21.07c0-.08.25-.27.33-.3l.04.09s.05-.32.17-.43l.02.12s.08-.39,0-.65l.07.05s.07-.3-.05-.46-.38-.14-.46-.1c-.14.02-.37-.03-.46-.11v.15s-.08-.03-.08-.03l-.09-.06Z"/>
            <path class="cls-1" d="M5.36,12.18s0-.01-.01-.02,0-.01-.01-.02c0,0,0,0,0,0-.13-.16-.4-.14-.47-.11-.14.02-.36-.03-.44-.1l-.03-.02v.16s-.05-.02-.05-.02l-.11-.08v.14s-.08,0-.14.03c0,0-.02.01-.03.02,0,0-.02.01-.02.02-.03.02-.06.06-.09.1-.12.18-.21.34-.26.56v.05s.03-.04.03-.04c.03-.03.06-.04.07-.05,0,.06,0,.24.03.33v.03s.13-.14.13-.14c.02.09.06.33.09.41l.02.05.06-.27s.09.05.1.19c.02.19.12.27.2.34,0,0,.01.01.02.01h.01s.08-.06.08-.06c.02.02.09.05.2.07h.02s0-.01,0-.01c0-.07.22-.24.3-.28l.06.13v-.05s.05-.28.15-.4l.03.16.02-.08s.07-.35.01-.62l.05.04v-.02s.07-.27-.02-.43ZM5.27,12.52v.04c.07.19.05.43.03.56v-.05s-.03.02-.03.02c-.1.08-.15.29-.17.39l-.02-.05h-.01c-.07.02-.3.2-.33.3-.12-.02-.19-.07-.19-.07h-.01s-.08.06-.08.06h0c-.08-.07-.18-.14-.19-.32-.02-.21-.14-.22-.15-.22h-.02l-.04.19c-.04-.13-.08-.37-.08-.37v-.03s-.14.15-.14.15c-.03-.12-.02-.31-.02-.32v-.02h-.02s-.03,0-.07.03c.05-.19.13-.34.24-.5.04-.06.09-.1.13-.12.01,0,.02-.01.04-.02.02-.01.04-.01.06-.02.03,0,.05,0,.05,0h0s.01,0,.01,0v-.11l.06.04.11.04v-.14c.1.07.3.11.44.09h0c.06-.03.3-.05.42.08,0,0,.01.01.01.01h0s0,.01.01.02c.08.12.05.33.04.4l-.09-.06Z"/>
          </g>
          <g>
            <path class="cls-5" d="M4.29,12.36s.02.06.02.08c0,.03,0,.06,0,.08,0,.03-.02.05-.03.08-.01.02-.03.04-.04.07-.02.02-.03.04-.05.07-.02.02-.03.04-.05.06-.04.04-.08.07-.12.11h-.01c.03-.05.05-.1.07-.14.01-.02.02-.04.03-.07.01-.02.02-.04.03-.07,0-.02.01-.05.02-.07,0-.02.01-.05.02-.07.01-.02.03-.04.04-.06.02-.02.03-.04.06-.06h.01Z"/>
            <path class="cls-5" d="M4.41,12.78s.03.05.03.07c0,.02.01.05.01.07,0,.02,0,.04-.02.07,0,.02-.02.04-.03.06,0,.02-.02.04-.03.06-.01.02-.02.04-.03.06-.03.04-.05.07-.08.11h-.01c.01-.05.02-.09.03-.13v-.06s.02-.04.02-.06c0-.02,0-.04,0-.06,0-.02,0-.04.01-.06,0-.02.02-.04.03-.06.01-.02.03-.04.05-.06h.01Z"/>
            <path class="cls-5" d="M4.6,13.08s.03.04.04.06.02.04.02.06c0,.02,0,.04,0,.06,0,.02-.01.04-.02.06,0,.02-.01.04-.02.06,0,.02-.02.04-.02.06-.02.03-.04.07-.06.1h-.01s0-.08,0-.12c0-.02,0-.04,0-.06v-.05s0-.04,0-.05c0-.02,0-.03,0-.05s.01-.04.02-.05c.01-.02.02-.04.04-.06h.01Z"/>
            <path class="cls-5" d="M4.74,12.74s.04.03.05.05c.01.01.03.03.04.04.01.02.02.03.02.05,0,.02.01.04.02.05,0,.02.02.03.03.05s.02.03.03.05c.02.03.05.06.08.09h0s-.08-.02-.12-.04c-.02-.01-.04-.03-.05-.04-.02-.01-.03-.03-.05-.05-.01-.02-.03-.03-.05-.05-.01-.02-.02-.04-.03-.06,0-.02,0-.05,0-.07,0-.02.01-.05.02-.07h.01Z"/>
            <path class="cls-5" d="M4.64,12.3s.05.02.08.03c.02.01.04.03.06.04.02.01.04.03.05.05.01.02.03.04.04.06s.03.04.05.05c.02.02.03.03.05.05.03.03.07.07.11.1h0s-.09-.02-.14-.05c-.02-.01-.04-.02-.07-.04-.02-.01-.04-.03-.06-.04-.02-.02-.04-.03-.06-.04-.02-.01-.04-.03-.05-.05-.01-.02-.03-.04-.03-.07,0-.03-.02-.05-.02-.08h.01Z"/>
          </g>
        </g>
        <g>
          <g>
            <path class="cls-7" d="M19.4,11.87s-.59.25-.77.97c.15-.12.18-.13.18-.13,0,0-.09.24,0,.44.1.2.1.32.1.32,0,0,.16-.04.21-.2.05.12.4.46.55.62.02-.12.22-.4.22-.4l.06.1s.07-.25.09-.27c.04.06.13.11.13.11,0,0,.03-.25,0-.35l.09.13s-.03-.25,0-.37c.09.09.13.11.13.11,0,0-.08-.27-.06-.36.07.06.09.11.09.11,0,0,.05-.69-1.01-.71,0-.03-.02-.1-.02-.1Z"/>
            <path class="cls-1" d="M20.28,12.26s-.05-.06-.09-.08c0,0-.01-.01-.02-.02s-.02-.01-.02-.02c-.17-.12-.41-.18-.72-.19,0-.03-.01-.08-.01-.08v-.02s0,0,0,0h0s0,0,0,0c0,0-.19.08-.39.28,0,0-.01.01-.02.02s-.01.01-.02.02c-.14.15-.28.37-.36.66v.05s.02-.03.02-.03c.07-.05.12-.09.14-.11-.02.08-.06.25.02.41.1.2.1.31.1.31v.02h.02s.15-.04.21-.18c.08.13.35.4.51.56l.05.05v-.03c.02-.1.16-.3.21-.37l.07.12v-.04c.04-.1.07-.21.09-.25.04.05.12.09.12.09h.02s0-.01,0-.01c0,0,.02-.17.01-.28l.09.13v-.07s-.04-.22-.02-.34c.08.07.11.09.12.09h.03s0-.02,0-.02c0,0-.06-.22-.06-.32.05.05.06.08.06.08l.03.06v-.07s.02-.23-.16-.43ZM20.35,12.56l-.02-.02v.03c-.02.07.02.25.04.33-.02-.01-.05-.04-.09-.08l-.02-.02v.03c-.03.08-.02.22-.01.31l-.12-.17.03.11c.03.08.01.26,0,.32-.03-.02-.07-.05-.1-.09v-.02s-.03.01-.03.01c-.02.02-.06.16-.09.24l-.05-.09v.02s-.19.24-.23.37h-.01c-.16-.18-.47-.48-.51-.59l-.02-.04v.04c-.05.12-.15.17-.19.19,0-.04-.02-.15-.1-.3-.09-.19,0-.43,0-.43l.02-.04-.04.02s-.03.02-.15.11c.08-.28.22-.48.36-.63,0,0,.01-.01.02-.02,0,0,.01-.01.02-.02.15-.15.29-.22.34-.24,0,.02.01.06.01.08h0s.01.01.01.01c.28,0,.5.05.67.15.01,0,.02.01.03.02.01,0,.02.01.02.02.04.03.08.06.12.1.12.13.15.27.16.35-.02-.02-.04-.04-.06-.07Z"/>
          </g>
          <g>
            <path class="cls-5" d="M19.16,12.69s.02.05.02.07,0,.05,0,.07c0,.02-.01.04-.03.06-.01.02-.03.04-.04.05-.01.02-.03.04-.04.05-.02.02-.03.03-.05.05-.03.03-.07.05-.11.07h0s.05-.08.07-.11l.03-.05s.02-.03.03-.05c0-.02.01-.04.02-.06,0-.02.01-.04.02-.05.01-.02.02-.03.03-.05.01-.02.03-.03.05-.05h.01Z"/>
            <path class="cls-5" d="M19.34,13.09s.03.02.04.04c.01.01.02.03.02.04,0,.02,0,.03,0,.04s0,.03-.01.04v.04s-.02.03-.03.04c-.01.03-.03.05-.04.07h-.01s0-.06,0-.08c0-.01,0-.03,0-.04,0-.01,0-.02,0-.04,0-.01,0-.02,0-.04,0-.01,0-.02,0-.04,0-.01,0-.02.01-.04,0-.01.02-.03.03-.04h.01Z"/>
            <path class="cls-5" d="M19.57,13.1s.04.03.05.05c.01.02.02.04.03.06,0,.02.01.04.01.06,0,.02,0,.04,0,.07s0,.04,0,.06c0,.02,0,.04,0,.06,0,.04-.01.08-.02.13h-.01s-.02-.08-.02-.12c0-.02,0-.04-.01-.06,0-.02,0-.04-.01-.06,0-.02-.01-.04-.02-.06,0-.02-.01-.04-.01-.06s0-.04,0-.06c0-.02,0-.04.02-.07h.01Z"/>
            <path class="cls-5" d="M19.68,12.86s.02.03.03.04c0,.01.02.02.02.03,0,.01,0,.02,0,.03,0,.01,0,.02,0,.04,0,.01,0,.02.02.03s.01.02.02.03c.01.02.03.04.06.06h0s-.06,0-.09-.02c-.01,0-.03-.02-.04-.03-.01-.01-.03-.02-.04-.04-.01-.01-.02-.03-.03-.04,0-.01-.02-.03-.02-.05,0-.02,0-.04,0-.05,0-.02.02-.03.04-.05h.01Z"/>
            <path class="cls-5" d="M19.61,12.52s.04,0,.06.01c.02,0,.03.01.04.02.01,0,.02.01.03.02,0,.01.02.02.03.03s.02.02.04.03.03.02.04.02c.03.02.06.03.09.04h0s-.07.02-.1.02c-.02,0-.04,0-.05,0-.02,0-.03-.01-.05-.02-.02,0-.03-.01-.05-.02-.02,0-.03-.02-.04-.03-.01-.01-.02-.03-.03-.05,0-.02-.01-.04,0-.06h0Z"/>
          </g>
        </g>
      </g>
    </g>
  </g>
</svg>