<?xml version="1.0" encoding="UTF-8"?>
<svg id="Layer_1" data-name="Layer 1" xmlns="http://www.w3.org/2000/svg" viewBox="0 0 24 24">
  <defs>
    <style>
      .cls-1 {
        fill: #000;
      }

      .cls-1, .cls-2, .cls-3, .cls-4 {
        stroke-width: 0px;
      }

      .cls-2 {
        fill: #fecc00;
      }

      .cls-3 {
        fill: none;
      }

      .cls-4 {
        fill: #006aa7;
      }
    </style>
  </defs>
  <rect class="cls-3" width="24" height="24"/>
  <g>
    <path class="cls-1" d="M16.71,7.34c2.92,2.92,3.18,7.43.57,10.04-2.61,2.61-7.11,2.35-10.04-.57-2.92-2.92-3.18-7.43-.57-10.04,2.61-2.61,7.11-2.36,10.04.57Z"/>
    <g>
      <path class="cls-4" d="M21,12c0,.62-.06,1.22-.18,1.8-.84,4.1-4.47,7.2-8.82,7.2-.27,0-.54-.01-.81-.04-1.3-.12-2.52-.51-3.6-1.12-2.24-1.26-3.88-3.45-4.41-6.05-.12-.58-.18-1.18-.18-1.8s.06-1.22.18-1.8c.53-2.59,2.18-4.78,4.41-6.05,1.08-.61,2.3-1,3.6-1.12.26-.02.54-.04.81-.04,4.35,0,7.98,3.1,8.82,7.2.12.58.18,1.18.18,1.8Z"/>
      <path class="cls-2" d="M21,12c0,.62-.06,1.22-.18,1.8h-9.63v7.16c-1.3-.12-2.52-.51-3.6-1.12v-6.05H3.18c-.12-.58-.18-1.18-.18-1.8s.06-1.22.18-1.8h4.41v-6.05c1.08-.61,2.3-1,3.6-1.12v7.16h9.63c.12.58.18,1.18.18,1.8Z"/>
    </g>
  </g>
</svg>