<?xml version="1.0" encoding="UTF-8"?>
<svg id="Layer_1" data-name="Layer 1" xmlns="http://www.w3.org/2000/svg" viewBox="0 0 24 24">
  <defs>
    <style>
      .cls-1 {
        fill: #000;
      }

      .cls-1, .cls-2, .cls-3, .cls-4, .cls-5 {
        stroke-width: 0px;
      }

      .cls-2 {
        fill: #00793d;
      }

      .cls-3 {
        fill: none;
      }

      .cls-4 {
        fill: #cd1225;
      }

      .cls-5 {
        fill: #fff;
      }
    </style>
  </defs>
  <rect class="cls-3" width="24" height="24"/>
  <g>
    <path class="cls-1" d="M16.72,7.34c2.92,2.92,3.17,7.42.57,10.03-2.61,2.61-7.11,2.35-10.03-.57-2.92-2.92-3.18-7.42-.57-10.03,2.61-2.61,7.11-2.35,10.03.57Z"/>
    <g>
      <g>
        <path class="cls-1" d="M20.49,15c-1.24,3.49-4.58,6-8.49,6s-7.25-2.51-8.49-6h16.97Z"/>
        <path class="cls-5" d="M21,12c0,1.05-.18,2.06-.51,3H3.51c-.33-.94-.51-1.95-.51-3s.18-2.06.51-3h16.97c.34.94.51,1.95.51,3Z"/>
        <path class="cls-4" d="M20.49,9H3.51c1.24-3.49,4.57-6,8.49-6s7.25,2.51,8.49,6Z"/>
      </g>
      <g>
        <polygon class="cls-2" points="8 10.23 8.44 11.58 9.86 11.58 8.71 12.42 9.15 13.77 8 12.94 6.84 13.77 7.28 12.42 6.13 11.58 7.55 11.58 8 10.23"/>
        <polygon class="cls-2" points="16.11 10.23 16.55 11.58 17.97 11.58 16.82 12.42 17.26 13.77 16.11 12.94 14.95 13.77 15.39 12.42 14.24 11.58 15.66 11.58 16.11 10.23"/>
      </g>
    </g>
  </g>
</svg>