<?xml version="1.0" encoding="UTF-8"?>
<svg id="Layer_1" data-name="Layer 1" xmlns="http://www.w3.org/2000/svg" viewBox="0 0 24 24">
  <defs>
    <style>
      .cls-1 {
        fill: #000;
      }

      .cls-1, .cls-2, .cls-3, .cls-4, .cls-5 {
        stroke-width: 0px;
      }

      .cls-2 {
        fill: #fd0302;
      }

      .cls-3 {
        fill: none;
      }

      .cls-4 {
        fill: #060593;
      }

      .cls-5 {
        fill: #fff;
      }
    </style>
  </defs>
  <rect class="cls-3" width="24" height="24"/>
  <g>
    <path class="cls-1" d="M16.72,7.34c2.92,2.92,3.17,7.42.57,10.03-2.61,2.61-7.11,2.35-10.03-.57-2.92-2.92-3.18-7.42-.57-10.03,2.61-2.61,7.11-2.35,10.03.57Z"/>
    <g>
      <path class="cls-2" d="M21,12c0,4.96-4.04,9-9,9S3,16.96,3,12,7.04,3,12,3h1.04v.06c4.47.52,7.96,4.33,7.96,8.94Z"/>
      <g>
        <path class="cls-4" d="M13.04,3v9H3C3,7.04,7.04,3,12,3h1.04Z"/>
        <g>
          <g>
            <path class="cls-5" d="M9.06,6.19c-.12-.03-.25-.04-.38-.04s-.26.01-.38.04l.38-1.36.38,1.36Z"/>
            <path class="cls-5" d="M8.15,6.23c-.24.08-.47.21-.65.38l-.36-1.37,1.01.99Z"/>
            <path class="cls-5" d="M7.39,6.72c-.17.19-.3.41-.38.65l-.99-1.01,1.37.36Z"/>
            <path class="cls-5" d="M6.93,7.9c0,.13.01.26.04.38l-1.36-.38,1.36-.38c-.03.12-.04.25-.04.38Z"/>
            <path class="cls-5" d="M7.39,9.08l-1.37.36.99-1.01c.08.24.21.47.38.65Z"/>
            <path class="cls-5" d="M8.15,9.57l-1.01.99.36-1.37c.19.17.41.3.65.38Z"/>
            <path class="cls-5" d="M9.06,9.61l-.38,1.36-.38-1.36c.12.03.25.04.38.04s.25-.01.38-.04Z"/>
            <path class="cls-5" d="M10.22,10.56l-1.01-.99c.25-.08.47-.21.65-.38l.35,1.37Z"/>
            <path class="cls-5" d="M11.34,9.43l-1.37-.36c.17-.19.3-.41.38-.65l.99,1.01Z"/>
            <path class="cls-5" d="M10.39,8.27c.03-.12.04-.25.04-.38s-.01-.25-.04-.38l1.36.38-1.36.38Z"/>
            <path class="cls-5" d="M11.34,6.36l-.99,1.01c-.08-.25-.21-.47-.38-.65l1.37-.35Z"/>
            <path class="cls-5" d="M10.22,5.24l-.35,1.37c-.19-.17-.41-.3-.65-.38l1.01-.99Z"/>
          </g>
          <circle class="cls-5" cx="8.68" cy="7.9" r="1.55"/>
        </g>
      </g>
    </g>
  </g>
</svg>