<?xml version="1.0" encoding="UTF-8"?>
<svg id="Layer_1" data-name="Layer 1" xmlns="http://www.w3.org/2000/svg" viewBox="0 0 24 24">
  <defs>
    <style>
      .cls-1 {
        fill: #000;
      }

      .cls-1, .cls-2, .cls-3, .cls-4, .cls-5, .cls-6 {
        stroke-width: 0px;
      }

      .cls-2 {
        fill: #cb0201;
      }

      .cls-3 {
        fill: none;
      }

      .cls-4 {
        fill: #f7c215;
      }

      .cls-5 {
        fill: #006506;
      }

      .cls-6 {
        fill: #fff;
      }
    </style>
  </defs>
  <rect class="cls-3" width="24" height="24"/>
  <g>
    <path class="cls-1" d="M16.71,7.34c2.92,2.92,3.18,7.42.57,10.03-2.61,2.61-7.11,2.36-10.03-.57-2.92-2.92-3.18-7.42-.57-10.03,2.61-2.61,7.11-2.36,10.03.57Z"/>
    <g>
      <g>
        <path class="cls-2" d="M20.13,8.14H3.87c.11-.22.22-.43.34-.64,1.56-2.69,4.47-4.5,7.79-4.5s6.23,1.81,7.79,4.5c.12.21.23.42.34.64Z"/>
        <path class="cls-5" d="M20.13,15.86c-.1.22-.22.43-.34.64-1.56,2.69-4.47,4.5-7.79,4.5s-6.23-1.81-7.79-4.5c-.12-.21-.23-.42-.34-.64h16.26Z"/>
        <path class="cls-6" d="M21,12c0,1.38-.31,2.69-.87,3.86H3.87c-.56-1.17-.87-2.48-.87-3.86s.31-2.69.87-3.86h16.26c.56,1.17.87,2.48.87,3.86Z"/>
      </g>
      <g>
        <g>
          <path class="cls-4" d="M14.45,15.47c-.74-.23-1.59-.35-2.45-.35s-1.71.12-2.45.35l-.13-.4c.78-.24,1.67-.37,2.58-.37s1.8.13,2.58.37l-.13.4Z"/>
          <path class="cls-4" d="M12.16,14.24c0-.31-.16-.37-.16-.37,0,0-.16.06-.16.37-.09-.06-.27,0-.27,0,0,.18.19.32.43.32s.43-.15.43-.32c0,0-.17-.06-.27,0Z"/>
          <g>
            <path class="cls-4" d="M10.63,14.31c-.07-.3-.24-.32-.24-.32,0,0-.15.09-.08.39-.1-.04-.26.06-.26.06.04.17.26.27.49.22.23-.05.39-.23.35-.41,0,0-.18-.03-.26.06Z"/>
            <path class="cls-4" d="M13.37,14.31c.07-.3.24-.32.24-.32,0,0,.15.09.08.39.11-.04.26.06.26.06-.04.17-.26.27-.49.22-.23-.05-.39-.23-.35-.41,0,0,.18-.03.26.06Z"/>
          </g>
        </g>
        <g>
          <polygon class="cls-4" points="12 8.53 12.14 8.95 12.58 8.95 12.22 9.21 12.36 9.63 12 9.37 11.64 9.63 11.78 9.21 11.42 8.95 11.86 8.95 12 8.53"/>
          <g>
            <polygon class="cls-4" points="8.88 10.32 9.02 10.74 9.46 10.74 9.1 11 9.24 11.42 8.88 11.16 8.52 11.42 8.66 11 8.3 10.74 8.75 10.74 8.88 10.32"/>
            <polygon class="cls-4" points="15.12 10.32 15.25 10.74 15.7 10.74 15.34 11 15.48 11.42 15.12 11.16 14.76 11.42 14.9 11 14.54 10.74 14.98 10.74 15.12 10.32"/>
          </g>
          <g>
            <polygon class="cls-4" points="15.6 12.13 15.74 12.55 16.18 12.55 15.82 12.81 15.96 13.23 15.6 12.97 15.24 13.23 15.38 12.81 15.02 12.55 15.46 12.55 15.6 12.13"/>
            <polygon class="cls-4" points="8.4 12.13 8.54 12.55 8.98 12.55 8.62 12.81 8.76 13.23 8.4 12.97 8.04 13.23 8.18 12.81 7.82 12.55 8.26 12.55 8.4 12.13"/>
          </g>
          <g>
            <polygon class="cls-4" points="10.19 9.02 10.33 9.44 10.77 9.44 10.41 9.7 10.55 10.12 10.19 9.86 9.83 10.12 9.97 9.7 9.61 9.44 10.06 9.44 10.19 9.02"/>
            <polygon class="cls-4" points="13.81 9.02 13.94 9.44 14.39 9.44 14.03 9.7 14.17 10.12 13.81 9.86 13.45 10.12 13.59 9.7 13.23 9.44 13.67 9.44 13.81 9.02"/>
          </g>
        </g>
        <path class="cls-4" d="M15.29,13.75c-1.01.45-1.35-.12-1.53-.45-1.04.66-1.46-.08-1.6-.49-.04-.12-.06-.25-.06-.38v-.67c.05-.07.23-.26.51-.17l.15.05-.02-.15c-.05-.47-.31-.66-.52-.73-.14-.05-.3-.05-.44,0-.21.08-.47.27-.52.73l-.02.15.15-.05c.28-.09.46.1.51.17v.67c0,.13-.02.25-.06.38-.14.4-.56,1.15-1.6.49-.18.33-.52.9-1.53.45-.04.44,1.13,1.13,1.6-.11,0,0,.98,1.03,1.69-.41.71,1.44,1.69.41,1.69.41.47,1.24,1.64.56,1.6.11ZM11.53,11.38s-.03,0-.05,0c.05-.22.17-.36.37-.43.1-.04.21-.04.3,0,.19.07.31.21.37.43-.23-.02-.41.09-.52.2-.1-.1-.26-.2-.47-.2Z"/>
      </g>
    </g>
  </g>
</svg>