<?xml version="1.0" encoding="UTF-8"?>
<svg id="Layer_1" data-name="Layer 1" xmlns="http://www.w3.org/2000/svg" viewBox="0 0 24 24">
  <defs>
    <style>
      .cls-1 {
        fill: #000;
      }

      .cls-1, .cls-2, .cls-3, .cls-4, .cls-5 {
        stroke-width: 0px;
      }

      .cls-2 {
        fill: #241d4e;
      }

      .cls-3 {
        fill: #ec1c24;
      }

      .cls-4 {
        fill: none;
      }

      .cls-5 {
        fill: #fff;
      }
    </style>
  </defs>
  <rect class="cls-4" width="24" height="24"/>
  <g>
    <path class="cls-1" d="M16.71,7.34c2.92,2.92,3.18,7.42.57,10.03-2.61,2.61-7.11,2.36-10.03-.57-2.92-2.92-3.18-7.42-.57-10.03,2.61-2.61,7.11-2.35,10.03.57Z"/>
    <g>
      <path class="cls-3" d="M18.71,6H5.29c1.65-1.84,4.04-3,6.71-3s5.06,1.16,6.71,3Z"/>
      <path class="cls-5" d="M20.49,9.01H3.51c.39-1.12,1-2.14,1.78-3h13.41c.78.87,1.39,1.88,1.78,3Z"/>
      <path class="cls-5" d="M20.49,14.99c-.39,1.12-1.01,2.14-1.78,3H5.29c-.78-.87-1.39-1.88-1.78-3h16.97Z"/>
      <path class="cls-2" d="M21,12c0,1.05-.18,2.06-.51,2.99H3.51c-.33-.94-.51-1.94-.51-2.99s.18-2.05.51-2.99h16.97c.33.94.51,1.94.51,2.99Z"/>
      <path class="cls-3" d="M18.71,18c-1.65,1.84-4.04,3-6.71,3s-5.06-1.16-6.71-3h13.41Z"/>
    </g>
  </g>
</svg>