<?xml version="1.0" encoding="UTF-8"?>
<svg id="Layer_1" data-name="Layer 1" xmlns="http://www.w3.org/2000/svg" viewBox="0 0 24 24">
  <defs>
    <style>
      .cls-1 {
        fill: #ce1126;
      }

      .cls-1, .cls-2, .cls-3, .cls-4, .cls-5, .cls-6 {
        stroke-width: 0px;
      }

      .cls-2 {
        fill: #000;
      }

      .cls-3 {
        fill: #3a7728;
      }

      .cls-4 {
        fill: none;
      }

      .cls-5 {
        fill: #fff;
      }

      .cls-6 {
        fill: #0c1c8c;
      }
    </style>
  </defs>
  <rect class="cls-4" width="24" height="24"/>
  <g>
    <path class="cls-2" d="M16.71,7.34c2.92,2.92,3.18,7.42.57,10.03s-7.11,2.36-10.03-.57c-2.92-2.92-3.18-7.42-.57-10.03,2.61-2.61,7.11-2.35,10.03.57Z"/>
    <g>
      <g>
        <path class="cls-1" d="M20.48,9H3.52c1.24-3.49,4.57-6,8.48-6s7.25,2.51,8.48,6Z"/>
        <path class="cls-3" d="M20.48,15c-1.24,3.49-4.57,6-8.48,6s-7.25-2.51-8.48-6h16.97Z"/>
        <path class="cls-6" d="M21,12c0,.68-.08,1.34-.22,1.97-.08.35-.18.69-.3,1.03H3.52c-.12-.33-.22-.68-.3-1.03-.14-.63-.22-1.29-.22-1.97s.07-1.34.22-1.97c.08-.35.18-.69.3-1.03h16.97c.12.34.22.68.3,1.03.14.63.22,1.29.22,1.97Z"/>
      </g>
      <path class="cls-5" d="M20.78,10.03H3.22c.08-.35.18-.69.3-1.03h16.97c.12.34.22.68.3,1.03Z"/>
      <path class="cls-5" d="M20.78,13.97c-.08.35-.18.69-.3,1.03H3.52c-.12-.33-.22-.68-.3-1.03h17.56Z"/>
    </g>
  </g>
</svg>