<?xml version="1.0" encoding="UTF-8"?>
<svg id="Layer_1" data-name="Layer 1" xmlns="http://www.w3.org/2000/svg" viewBox="0 0 24 24">
  <defs>
    <style>
      .cls-1 {
        fill: #000;
      }

      .cls-1, .cls-2, .cls-3, .cls-4, .cls-5 {
        stroke-width: 0px;
      }

      .cls-2 {
        fill: #dc241f;
      }

      .cls-3 {
        fill: none;
      }

      .cls-4 {
        fill: #fff;
      }

      .cls-5 {
        fill: #ffc726;
      }
    </style>
  </defs>
  <rect class="cls-3" width="24" height="24"/>
  <g>
    <path class="cls-1" d="M16.71,7.34c2.92,2.92,3.18,7.42.57,10.03-2.61,2.61-7.11,2.35-10.03-.57-2.92-2.92-3.18-7.42-.57-10.03,2.61-2.61,7.11-2.35,10.03.57Z"/>
    <g>
      <path class="cls-2" d="M21,12c0,4.96-4.04,9-9,9-2.57,0-4.89-1.08-6.53-2.81-.13-.13-.25-.27-.37-.42-1.31-1.56-2.1-3.58-2.1-5.77s.79-4.21,2.1-5.77c.12-.14.24-.28.37-.42,1.64-1.73,3.96-2.81,6.53-2.81,4.96,0,9,4.04,9,9Z"/>
      <g>
        <path class="cls-5" d="M17.84,12l-12.37,6.19c-.13-.13-.25-.27-.37-.42-1.31-1.56-2.1-3.58-2.1-5.77s.79-4.21,2.1-5.77c.12-.14.24-.28.37-.42l12.37,6.19Z"/>
        <path class="cls-1" d="M12.76,12l-7.66,5.77c-1.31-1.56-2.1-3.58-2.1-5.77s.79-4.21,2.1-5.77l7.66,5.77Z"/>
        <polygon class="cls-4" points="6.69 10.92 8.36 10.18 7.58 11.83 8.81 13.19 6.99 12.97 6.08 14.55 5.73 12.76 3.94 12.37 5.54 11.49 5.35 9.67 6.69 10.92"/>
      </g>
    </g>
  </g>
</svg>