<?xml version="1.0" encoding="UTF-8"?>
<svg id="Layer_1" data-name="Layer 1" xmlns="http://www.w3.org/2000/svg" viewBox="0 0 24 24">
  <defs>
    <style>
      .cls-1 {
        fill: #000;
      }

      .cls-1, .cls-2, .cls-3, .cls-4, .cls-5, .cls-6 {
        stroke-width: 0px;
      }

      .cls-2 {
        fill: #00694e;
      }

      .cls-3 {
        fill: #fecd17;
      }

      .cls-4 {
        fill: #d11133;
      }

      .cls-5 {
        fill: none;
      }

      .cls-6 {
        fill: #fff;
      }
    </style>
  </defs>
  <rect class="cls-5" width="24" height="24"/>
  <g>
    <path class="cls-1" d="M16.71,7.34c2.92,2.92,3.18,7.42.57,10.03-2.61,2.61-7.11,2.36-10.03-.57-2.92-2.92-3.18-7.42-.57-10.03,2.61-2.61,7.11-2.36,10.03.57Z"/>
    <g>
      <g>
        <path class="cls-3" d="M12,13.8H3.18c.27,1.33.84,2.55,1.62,3.6h14.39c.79-1.05,1.35-2.27,1.62-3.6h-8.82Z"/>
        <path class="cls-2" d="M12,17.4h-7.2c1.64,2.18,4.26,3.6,7.2,3.6h0c2.94,0,5.55-1.42,7.2-3.6h-7.2Z"/>
        <path class="cls-3" d="M12,10.2h8.82c-.27-1.33-.83-2.55-1.62-3.6h-7.2v3.6Z"/>
        <path class="cls-2" d="M20.82,10.2h-8.82v3.6h8.82c.12-.58.18-1.18.18-1.8s-.06-1.22-.18-1.8Z"/>
        <path class="cls-4" d="M4.8,6.6c-.79,1.05-1.35,2.27-1.62,3.6-.12.58-.18,1.18-.18,1.8s.06,1.22.18,1.8h8.82V3c-2.94,0-5.55,1.42-7.2,3.6Z"/>
        <path class="cls-2" d="M19.2,6.6c-1.64-2.18-4.26-3.6-7.2-3.6h0v3.6h7.2Z"/>
      </g>
      <polygon class="cls-6" points="7.7 5.28 8.47 7.66 10.98 7.66 8.95 9.14 9.73 11.52 7.7 10.05 5.67 11.52 6.45 9.14 4.42 7.66 6.92 7.66 7.7 5.28"/>
    </g>
  </g>
</svg>