<?xml version="1.0" encoding="UTF-8"?>
<svg id="Layer_1" data-name="Layer 1" xmlns="http://www.w3.org/2000/svg" viewBox="0 0 24 24">
  <defs>
    <style>
      .cls-1 {
        fill: #000;
      }

      .cls-1, .cls-2, .cls-3, .cls-4, .cls-5 {
        stroke-width: 0px;
      }

      .cls-2 {
        fill: #fdd017;
      }

      .cls-3 {
        fill: none;
      }

      .cls-4 {
        fill: #04247b;
      }

      .cls-5 {
        fill: #fff;
      }
    </style>
  </defs>
  <rect class="cls-3" width="24" height="24"/>
  <g>
    <path class="cls-1" d="M16.71,7.34c2.92,2.92,3.18,7.42.57,10.03-2.61,2.61-7.11,2.36-10.03-.57-2.92-2.92-3.18-7.42-.57-10.03,2.61-2.61,7.11-2.36,10.03.57Z"/>
    <g>
      <path class="cls-4" d="M21,12c0,1.64-.44,3.18-1.21,4.5-1.56,2.69-4.47,4.5-7.79,4.5s-6.23-1.81-7.79-4.5c-.77-1.32-1.21-2.86-1.21-4.5s.44-3.18,1.21-4.5c1.56-2.69,4.47-4.5,7.79-4.5s6.23,1.81,7.79,4.5c.77,1.32,1.21,2.86,1.21,4.5Z"/>
      <g>
        <path class="cls-2" d="M16.76,8.44c-2.48,3.55.72,7.56,2.77,7.6.02,0,0,.08,0,.08H4.7s7.15-5.66,12.06-7.68Z"/>
        <polygon class="cls-2" points="19.4 16.7 4.63 16.7 4.42 16.51 4.63 16.32 19.4 16.32 19.58 16.51 19.4 16.7"/>
      </g>
      <g>
        <polygon class="cls-5" points="6.9 6.08 7.04 6.5 7.47 6.5 7.12 6.76 7.26 7.17 6.9 6.92 6.55 7.17 6.68 6.76 6.33 6.5 6.77 6.5 6.9 6.08"/>
        <polygon class="cls-5" points="6.9 12.01 7.06 12.5 7.58 12.5 7.16 12.8 7.32 13.29 6.9 12.99 6.49 13.29 6.64 12.8 6.23 12.5 6.74 12.5 6.9 12.01"/>
        <polygon class="cls-5" points="8.33 7.83 8.44 8.18 8.82 8.18 8.52 8.4 8.63 8.76 8.33 8.54 8.02 8.76 8.14 8.4 7.84 8.18 8.21 8.18 8.33 7.83"/>
        <polygon class="cls-5" points="5.1 8.44 5.24 8.85 5.67 8.85 5.32 9.11 5.45 9.52 5.1 9.26 4.75 9.52 4.88 9.11 4.53 8.85 4.97 8.85 5.1 8.44"/>
      </g>
    </g>
  </g>
</svg>