<?xml version="1.0" encoding="UTF-8"?>
<svg id="Layer_1" data-name="Layer 1" xmlns="http://www.w3.org/2000/svg" viewBox="0 0 24 24">
  <defs>
    <style>
      .cls-1 {
        fill: #000;
      }

      .cls-1, .cls-2, .cls-3, .cls-4, .cls-5 {
        stroke-width: 0px;
      }

      .cls-2 {
        fill: #038d6b;
      }

      .cls-3 {
        fill: none;
      }

      .cls-4 {
        fill: #fed618;
      }

      .cls-5 {
        fill: #dd0201;
      }
    </style>
  </defs>
  <rect class="cls-3" width="24" height="24"/>
  <g>
    <path class="cls-1" d="M16.71,7.34c2.92,2.92,3.18,7.42.57,10.03-2.61,2.61-7.11,2.36-10.03-.57-2.92-2.92-3.18-7.42-.57-10.03,2.61-2.61,7.11-2.36,10.03.57Z"/>
    <g>
      <g>
        <path class="cls-5" d="M20.72,14.24c-1,3.88-4.53,6.76-8.72,6.76s-7.72-2.87-8.72-6.76h17.43Z"/>
        <path class="cls-2" d="M21,12c0,.77-.1,1.53-.28,2.24H3.28c-.19-.72-.28-1.47-.28-2.24s.1-1.53.28-2.24h17.43c.18.72.28,1.47.28,2.24Z"/>
        <path class="cls-5" d="M20.72,9.76H3.28c1-3.88,4.53-6.76,8.72-6.76s7.72,2.87,8.72,6.76Z"/>
      </g>
      <g>
        <g>
          <path class="cls-4" d="M10.57,9.06c-.09.1-.25.1-.35,0l-.36-.36-.43-.43-1.19-1.19-.26.27s-.1.04-.14,0l-.27-.26s-.04-.1,0-.14l.6-.63s.06-.04.1-.04l.55.06s.06.06.03.09l-.33.34,1.32,1.24.37.35.35.33c.1.09.11.25,0,.35Z"/>
          <path class="cls-4" d="M10.34,8.17c-.04.07-.08.14-.13.21-.11.15-.23.25-.35.33-.72.41-1.6-.28-1.6-.28h-.02s-.02.05-.04.06c-.03.03-.08.04-.12.04l-.4.54c-.07.08-.17.13-.26.13-.06,0-.12-.02-.16-.06-.11-.11-.1-.3.03-.43l.53-.46s.02-.08.05-.11c.04-.04.11-.05.17-.04h.39c.44.17.77.22,1.02.18.19-.03.33-.12.42-.24.39-.54-.07-1.79-.67-2.33.26.14,1.83,1.22,1.17,2.47Z"/>
        </g>
        <path class="cls-4" d="M9.82,4.38h-.6l-.19-.57-.19.57h-.6l.49.35-.19.57.49-.35.49.35-.19-.57.49-.35ZM9.03,4.81l-.27.19.11-.32-.27-.2h.33l.11-.32.1.32h.33l-.27.2.1.32-.27-.19Z"/>
      </g>
    </g>
  </g>
</svg>