<?xml version="1.0" encoding="UTF-8"?>
<svg id="Layer_1" data-name="Layer 1" xmlns="http://www.w3.org/2000/svg" viewBox="0 0 24 24">
  <defs>
    <style>
      .cls-1 {
        fill: #000;
      }

      .cls-1, .cls-2, .cls-3, .cls-4 {
        stroke-width: 0px;
      }

      .cls-2 {
        fill: none;
      }

      .cls-3 {
        fill: #d91b34;
      }

      .cls-4 {
        fill: #fff;
      }
    </style>
  </defs>
  <rect class="cls-2" width="24" height="24"/>
  <g>
    <path class="cls-1" d="M16.71,7.34c2.92,2.92,3.18,7.42.57,10.03-2.61,2.61-7.11,2.36-10.03-.57-2.92-2.92-3.18-7.42-.57-10.03,2.61-2.61,7.11-2.36,10.03.57Z"/>
    <g>
      <path class="cls-3" d="M21,12c0,1.16-.22,2.26-.62,3.28L7.54,4.18c1.32-.75,2.84-1.18,4.45-1.18,4.96,0,9,4.04,9,9Z"/>
      <path class="cls-3" d="M16.46,19.82c-1.31.75-2.84,1.18-4.46,1.18-4.96,0-9-4.04-9-9,0-1.16.22-2.26.62-3.28l12.84,11.09Z"/>
      <path class="cls-4" d="M20.38,15.28c-.13.32-.27.63-.43.94L6.68,4.74c.27-.2.56-.39.86-.56l12.84,11.09Z"/>
      <path class="cls-4" d="M17.32,19.25c-.27.2-.56.39-.86.56L3.62,8.72c.13-.32.27-.63.43-.94l13.27,11.47Z"/>
      <path class="cls-1" d="M19.95,16.21c-.64,1.2-1.54,2.24-2.63,3.04L4.05,7.79c.64-1.2,1.54-2.24,2.63-3.04l13.27,11.47Z"/>
    </g>
  </g>
</svg>