<?xml version="1.0" encoding="UTF-8"?>
<svg id="Layer_1" data-name="Layer 1" xmlns="http://www.w3.org/2000/svg" viewBox="0 0 24 24">
  <defs>
    <style>
      .cls-1 {
        fill: #000;
      }

      .cls-1, .cls-2, .cls-3, .cls-4 {
        stroke-width: 0px;
      }

      .cls-2 {
        fill: none;
      }

      .cls-3 {
        fill: #fff;
      }

      .cls-4 {
        fill: #e60313;
      }
    </style>
  </defs>
  <rect class="cls-2" width="24" height="24"/>
  <g>
    <path class="cls-1" d="M16.71,7.34c2.92,2.92,3.18,7.42.57,10.03-2.61,2.61-7.11,2.35-10.03-.57-2.92-2.92-3.18-7.42-.57-10.03,2.61-2.61,7.11-2.36,10.03.57Z"/>
    <g>
      <path class="cls-4" d="M12,21c-4.96,0-9-4.04-9-9S7.04,3,12,3s9,4.04,9,9-4.04,9-9,9Z"/>
      <g>
        <path class="cls-3" d="M16.52,12c0,2.49-2.02,4.52-4.52,4.52s-4.51-2.02-4.51-4.52,2.02-4.51,4.51-4.51,4.52,2.02,4.52,4.51Z"/>
        <g>
          <path class="cls-4" d="M13.23,14.72c-1.5,0-2.72-1.22-2.72-2.72s1.22-2.71,2.72-2.71c.7,0,1.33.26,1.81.69-.62-.82-1.6-1.36-2.71-1.36-1.86,0-3.38,1.51-3.38,3.38s1.51,3.38,3.38,3.38c1.11,0,2.09-.53,2.71-1.36-.48.43-1.12.69-1.81.69Z"/>
          <polygon class="cls-4" points="12.61 10.09 13.47 11.27 14.85 10.81 14 11.99 14.86 13.17 13.47 12.72 12.62 13.91 12.62 12.45 11.23 12 12.61 11.55 12.61 10.09"/>
        </g>
      </g>
    </g>
  </g>
</svg>