<?xml version="1.0" encoding="UTF-8"?>
<svg id="Layer_1" data-name="Layer 1" xmlns="http://www.w3.org/2000/svg" viewBox="0 0 24 24">
  <defs>
    <style>
      .cls-1 {
        fill: #000;
      }

      .cls-1, .cls-2, .cls-3, .cls-4 {
        stroke-width: 0px;
      }

      .cls-2 {
        fill: none;
      }

      .cls-3 {
        fill: #fff;
      }

      .cls-4 {
        fill: #e20c17;
      }
    </style>
  </defs>
  <rect class="cls-2" width="24" height="24"/>
  <g>
    <path class="cls-1" d="M16.72,7.34c2.92,2.92,3.18,7.42.57,10.03-2.61,2.61-7.11,2.35-10.03-.57-2.92-2.92-3.17-7.42-.57-10.03,2.61-2.61,7.11-2.35,10.03.57Z"/>
    <g>
      <path class="cls-4" d="M12,21c-4.96,0-9-4.04-9-9S7.04,3,12,3s9,4.04,9,9-4.04,9-9,9Z"/>
      <g>
        <path class="cls-3" d="M10.55,15.41c-1.88,0-3.41-1.53-3.41-3.41s1.53-3.41,3.41-3.41c.96,0,1.82.39,2.44,1.03-.77-1.13-2.06-1.87-3.53-1.87-2.35,0-4.26,1.91-4.26,4.26s1.91,4.26,4.26,4.26c1.47,0,2.76-.74,3.53-1.87-.62.63-1.48,1.03-2.44,1.03Z"/>
        <polygon class="cls-3" points="16.68 13.24 15.22 12.77 14.32 14.01 14.32 12.47 12.85 12 14.32 11.53 14.32 9.99 15.22 11.23 16.68 10.75 15.78 12 16.68 13.24"/>
      </g>
    </g>
  </g>
</svg>