<?xml version="1.0" encoding="UTF-8"?>
<svg id="Layer_1" data-name="Layer 1" xmlns="http://www.w3.org/2000/svg" viewBox="0 0 24 24">
  <defs>
    <style>
      .cls-1 {
        fill: #000;
      }

      .cls-1, .cls-2, .cls-3, .cls-4, .cls-5, .cls-6, .cls-7 {
        stroke-width: 0px;
      }

      .cls-2 {
        fill: #fecd17;
      }

      .cls-3 {
        fill: none;
      }

      .cls-4 {
        fill: #032774;
      }

      .cls-5 {
        fill: #cb142a;
      }

      .cls-6 {
        fill: #fff;
      }

      .cls-7 {
        fill: #5b96b0;
      }
    </style>
  </defs>
  <rect class="cls-3" width="24" height="24"/>
  <g>
    <path class="cls-1" d="M16.71,7.34c2.92,2.92,3.18,7.42.57,10.03-2.61,2.61-7.11,2.36-10.03-.57-2.92-2.92-3.18-7.42-.57-10.03,2.61-2.61,7.11-2.36,10.03.57Z"/>
    <g>
      <path class="cls-7" d="M19.14,6.53c-1.65-2.14-4.23-3.53-7.14-3.53s-5.49,1.38-7.14,3.53c-.16.21-.31.42-.45.64-.1.16-.19.31-.28.47-.06.11-.12.21-.17.32-.03.05-.05.11-.08.16-.04.08-.07.16-.11.23-.05.12-.11.24-.15.36-.14.36-.26.72-.35,1.09-.03.12-.06.24-.08.36-.04.21-.08.42-.11.63-.03.21-.05.42-.06.64-.01.14-.01.28-.02.42,0,.04,0,.09,0,.13,0,2.06.69,3.96,1.86,5.47,1.65,2.14,4.23,3.53,7.14,3.53s5.49-1.38,7.14-3.53c1.17-1.52,1.86-3.42,1.86-5.47s-.69-3.96-1.86-5.47Z"/>
      <g>
        <path class="cls-4" d="M4.35,10.17l-1.26.63c.03-.21.06-.43.11-.63h1.16Z"/>
        <path class="cls-4" d="M6.48,6.53v1.67l-2.06-1.03c.14-.22.29-.43.45-.64h1.61Z"/>
        <path class="cls-4" d="M4.35,8.35h-.57c.03-.08.07-.15.11-.23l.46.23Z"/>
        <polygon class="cls-4" points="12.86 8.35 12.86 7.14 10.43 8.35 12.86 8.35"/>
        <polygon class="cls-4" points="11.63 6.53 8.3 8.19 8.3 6.53 11.63 6.53"/>
        <polygon class="cls-4" points="12.86 11.39 12.86 10.17 10.43 10.17 12.86 11.39"/>
        <polygon class="cls-4" points="3.14 12 6.48 12 6.48 10.33 3.14 12"/>
        <polygon class="cls-4" points="8.3 12 11.64 12 8.3 10.33 8.3 12"/>
        <path class="cls-6" d="M12.86,7.14l-2.43,1.22h2.43v1.82h-2.43l2.43,1.22v.2l-2.84-1.42h-.82l3.65,1.83h-1.22l-3.33-1.67v1.67h-1.82v-1.67l-3.33,1.67h-.14s0-.09,0-.13l3.38-1.69h-.82l-2.55,1.27c.01-.22.03-.43.06-.64l1.26-.63h-1.16c.03-.12.05-.24.08-.36.09-.37.21-.74.35-1.09.05-.12.1-.24.15-.36h.57l-.46-.23c.02-.05.05-.11.08-.16l.79.39h.82l-1.43-.72c.09-.16.18-.32.28-.47l2.06,1.03v-1.67h1.82v1.67l3.33-1.67h.41l-3.65,1.83h.82l3.65-1.83h0v.61Z"/>
        <path class="cls-5" d="M5.57,8.35h-.82l-.79-.39c.05-.11.11-.22.17-.32l1.43.72Z"/>
        <polygon class="cls-5" points="9.2 10.17 12.85 12 12.86 12 12.86 11.6 10.02 10.17 9.2 10.17"/>
        <polygon class="cls-5" points="12.86 6.53 9.21 8.35 8.39 8.35 12.04 6.53 12.86 6.53"/>
        <path class="cls-5" d="M6.38,10.17l-3.38,1.69c0-.14,0-.28.02-.42l2.55-1.27h.82Z"/>
        <path class="cls-5" d="M12.86,8.72v1.09h-4.93v2.19h-1.1v-2.19h-3.57c.09-.37.21-.74.35-1.09h3.22v-2.19h1.1v2.19h4.93Z"/>
      </g>
      <g>
        <polygon class="cls-2" points="10.07 15.49 10.27 16.11 10.93 16.11 10.4 16.5 10.6 17.13 10.07 16.74 9.53 17.13 9.74 16.5 9.2 16.11 9.86 16.11 10.07 15.49"/>
        <polygon class="cls-2" points="16.47 12.73 16.67 13.36 17.33 13.36 16.8 13.75 17 14.37 16.47 13.99 15.94 14.37 16.14 13.75 15.61 13.36 16.26 13.36 16.47 12.73"/>
        <polygon class="cls-2" points="18.41 11.48 18.61 12.11 19.27 12.11 18.74 12.5 18.94 13.12 18.41 12.74 17.87 13.12 18.08 12.5 17.55 12.11 18.2 12.11 18.41 11.48"/>
        <polygon class="cls-2" points="18.41 7.21 18.61 7.84 19.27 7.84 18.74 8.23 18.94 8.85 18.41 8.47 17.87 8.85 18.08 8.23 17.55 7.84 18.2 7.84 18.41 7.21"/>
        <polygon class="cls-2" points="16.91 10.57 16.7 9.94 16.04 9.94 16.58 9.55 16.37 8.93 16.91 9.32 17.44 8.93 17.23 9.55 17.77 9.94 17.11 9.94 16.91 10.57"/>
        <polygon class="cls-2" points="14.96 11.24 14.76 10.61 14.1 10.61 14.63 10.22 14.43 9.59 14.96 9.98 15.5 9.59 15.29 10.22 15.83 10.61 15.17 10.61 14.96 11.24"/>
        <polygon class="cls-2" points="14.96 16.08 14.76 15.46 14.1 15.46 14.63 15.07 14.43 14.44 14.96 14.83 15.5 14.44 15.29 15.07 15.83 15.46 15.17 15.46 14.96 16.08"/>
        <polygon class="cls-2" points="12.67 14.4 12.47 13.77 11.81 13.77 12.34 13.38 12.14 12.75 12.67 13.14 13.2 12.75 13 13.38 13.53 13.77 12.87 13.77 12.67 14.4"/>
        <polygon class="cls-2" points="12.67 16.63 12.47 16.01 11.81 16.01 12.34 15.62 12.14 14.99 12.67 15.38 13.2 14.99 13 15.62 13.53 16.01 12.87 16.01 12.67 16.63"/>
      </g>
    </g>
  </g>
</svg>