<?xml version="1.0" encoding="UTF-8"?>
<svg id="Layer_1" data-name="Layer 1" xmlns="http://www.w3.org/2000/svg" viewBox="0 0 24 24">
  <defs>
    <style>
      .cls-1 {
        fill: #000;
      }

      .cls-1, .cls-2, .cls-3, .cls-4, .cls-5, .cls-6 {
        stroke-width: 0px;
      }

      .cls-2 {
        fill: #fbdb1b;
      }

      .cls-3 {
        fill: none;
      }

      .cls-4 {
        fill: #fff;
      }

      .cls-5 {
        fill: #9ba59b;
      }

      .cls-6 {
        fill: #d80201;
      }
    </style>
  </defs>
  <rect class="cls-3" width="24" height="24"/>
  <g>
    <path class="cls-1" d="M16.71,7.34c2.92,2.92,3.18,7.42.57,10.03-2.61,2.61-7.11,2.36-10.03-.57-2.92-2.92-3.18-7.42-.57-10.03,2.61-2.61,7.11-2.36,10.03.57Z"/>
    <g>
      <g>
        <g>
          <path class="cls-1" d="M21,12c0,1.05-.18,2.06-.51,3H3.51c-.33-.94-.51-1.95-.51-3h18Z"/>
          <path class="cls-2" d="M20.49,15c-.4,1.12-1.01,2.13-1.78,3H5.29c-.78-.87-1.39-1.88-1.78-3h16.98Z"/>
          <path class="cls-6" d="M21,12H3c0-1.05.18-2.06.51-3h16.98c.33.94.51,1.95.51,3Z"/>
          <path class="cls-6" d="M18.71,18c-1.65,1.84-4.04,3-6.71,3s-5.06-1.16-6.71-3h13.41Z"/>
          <path class="cls-1" d="M18.71,6H5.29c1.65-1.84,4.04-3,6.71-3s5.06,1.16,6.71,3Z"/>
          <path class="cls-2" d="M20.49,9H3.51c.39-1.12,1-2.14,1.78-3h13.41c.78.86,1.39,1.88,1.78,3Z"/>
        </g>
        <path class="cls-4" d="M14.85,12c0,1.57-1.27,2.84-2.85,2.84s-2.84-1.27-2.84-2.84,1.27-2.85,2.84-2.85,2.85,1.27,2.85,2.85Z"/>
      </g>
      <g>
        <g>
          <path class="cls-6" d="M11.48,10.31c-.09.01-.18.16-.15.25.03.07.17.12.23.06.03-.03.03-.08.02-.12,0-.04-.05-.2-.11-.19Z"/>
          <path class="cls-1" d="M11.6,10.5s-.03-.16-.09-.2c-.01,0-.02-.01-.03-.01h0s-.06.03-.09.06c-.01.02-.03.04-.04.05-.03.05-.04.11-.02.15.01.03.05.06.09.08.01,0,.03.01.04.01.01,0,.03,0,.04,0,.03,0,.06,0,.08-.03.03-.03.03-.07.02-.13ZM11.46,10.63s-.02,0-.03,0c-.04-.02-.08-.04-.09-.07-.01-.03,0-.08.02-.13.02-.03.03-.05.05-.07.02-.02.04-.03.06-.03,0,0,.01,0,.02,0,.04.03.07.14.08.18,0,.05,0,.09-.02.11-.02.02-.06.03-.1.02Z"/>
        </g>
        <g>
          <path class="cls-2" d="M12.24,9.6l-.28.38-.3-.08v-.51s.1,0,.16,0c.22.03.34.13.42.2Z"/>
          <path class="cls-6" d="M12.42,9.97c-.18.03-.29.06-.31.06l-.13-.04.27-.37s.04.04.05.06c0,0,0,0,.01.01.04.05.1.2.11.27Z"/>
          <path class="cls-6" d="M11.64,9.39v.51l-.14-.04-.21-.36s.16-.09.35-.11Z"/>
          <path class="cls-1" d="M12.45,9.97c-.01-.07-.08-.24-.12-.29,0,0,0,0,0-.01-.05-.07-.19-.24-.5-.29-.33-.05-.55.11-.55.11h0s.19.34.19.34l.03.05.41.11.11.03.11.03h0s.02,0,.04-.01c.05-.01.15-.03.28-.05h.01s0-.01,0-.01ZM11.64,9.9l-.14-.04-.03-.05-.18-.31s.16-.09.35-.11v.51ZM11.96,9.98l-.07-.02-.23-.06v-.51s.1,0,.16.01c.22.03.34.13.42.2l-.17.24-.09.13h-.01ZM12.29,9.99s-.05,0-.07.01c-.03,0-.06.01-.07.02,0,0-.02,0-.02,0-.01,0-.02,0-.02,0l-.13-.03h0s0,0,0,0l.09-.13.18-.24s.04.04.05.06c0,0,0,0,.01.01.04.05.1.2.11.27-.05,0-.09.01-.13.02Z"/>
        </g>
        <g>
          <path class="cls-1" d="M13.33,12.71c-.03-.13-.25-.24-.38-.33-.08-.05-.17-.11-.25-.16l-.09-.06h0l-.12-.08s-.08-.05-.12-.08c-.06-.04-.13-.09-.19-.14-.07-.06-.15-.12-.22-.19h-.02v-.02s-.02-.02-.02-.03c-.07-.08-.11-.17-.13-.26,0,0,0-.02,0-.03,0-.02,0-.04,0-.06-.01-.12-.01-.25,0-.38,0-.12.03-.23.1-.33.04-.06.09-.11.14-.16.07-.07.12-.12.14-.22.01-.05.01-.11,0-.16,0,0,0-.01,0-.02,0-.02-.01-.05-.02-.07-.01-.03-.03-.06-.05-.09,0,0,0-.01-.01-.02-.07-.07-.16-.12-.26-.13-.05,0-.09,0-.14,0,0,0-.01,0-.02,0-.06.02-.12.04-.17.09,0,0-.01,0-.02.01-.06.06-.1.14-.09.24,0,.03,0,.06.01.09-.08.02-.28.08-.39.19.28-.06.35-.08.42-.09,0,.01.01.02.01.03-.07.01-.36.07-.41.09,0,0,.15,0,.38-.02,0,0,.01,0,.02,0h.02s.02,0,.04,0c0,.01.02.03.03.04.03.05.06.09.02.14-.02.03-.05.06-.07.1,0,0,0,0,0,0,0,0,0,0,0,0,0,0,0,0-.01.01-.1.13-.21.25-.31.38-.18.22-.21.62-.11.88.01.03.03.06.05.09.02.03.05.07.07.1h0s.03.03.04.05l.14.15s.02.02.03.02c.01,0,.02,0,.03,0,.12.1.25.19.38.28.07.04.13.08.2.12,0,.11.01.3.01.5-.19-.01-.37-.02-.56-.03,0,0-.13,0-.26.01-.33.07-.3.31-.29.56,0-.06.02-.05.11-.22-.01.03.04.15.11.2,0-.1,0-.19.04-.27,0,.03.06.18.1.17,0-.12.17-.3.17-.3,0,0,.3,0,.59,0,0,.11,0,.22,0,.31.01.38.03.51.03.51,0,0-.57-.05-.69.14.16.01.37.01.37.01,0,0-.18.23-.11.31.13-.11.38-.28.6-.31.22-.03.43,0,.43,0,0,0,.03-.18-.43-.18-.01-.08-.03-.45-.04-.8.02,0,.03,0,.05,0,.12,0,.24.01.36,0,.08,0,.14-.07.12-.17,0-.02-.02-.04-.03-.06-.04-.06-.28-.36-.15-.4.02,0,.03,0,.05,0,.13,0,.25.02.37.06.02,0,.05.01.07.02.01,0,.02,0,.03,0,.01,0,.02,0,.03.01h.02s.07.02.1.03c0,0,.02,0,.02,0h.04c.06,0,.15-.03.12-.13ZM12.36,13.21s-.01.02-.03.03c0,0-.01,0-.02,0-.07,0-.13,0-.2-.01,0-.16-.01-.31-.01-.41,0,0,0,0,.01.01.11.07.16.18.23.28.02.03.03.07.01.1Z"/>
          <path class="cls-4" d="M11.66,10.12s-.03.06-.06.06-.06-.03-.06-.06.03-.06.06-.06.06.03.06.06Z"/>
          <path class="cls-5" d="M11.89,9.9c0,.07.01.2-.04.25-.04.04-.09.07-.13.11-.02.02-.04.05-.02.08.02.05.07.07.12.06.02,0,.05-.02.07-.03.08-.06.13-.15.14-.25,0-.09-.04-.18-.13-.22Z"/>
          <path class="cls-5" d="M11.67,10.52s-.17.2-.27.39c-.1.18-.18.38-.18.58s.08.39.08.39c0,0,0-.16.01-.17.06.06.07.07.07.07v-.14s.07.03.07.03l-.03-.09h.1l-.03-.11h.11s-.05-.11-.05-.13c-.01-.05-.02-.1-.03-.15,0-.11,0-.22.03-.33.01-.06.04-.13.06-.19.01-.03.03-.06.04-.09,0,0,.02-.08.01-.08,0,0,0,0-.01.01Z"/>
          <path class="cls-5" d="M11.83,12.12s-.05.2.02.35c.04-.01.18-.07.27-.02.03,0-.24-.21-.3-.33Z"/>
          <g>
            <path class="cls-4" d="M12.85,12.15c-.09-.03-.32-.08-.33-.09h-.04s.18.14.18.14h-.16s-.02-.02-.03-.03c-.01-.01-.02-.02-.04-.04-.08-.08-.16-.16-.27-.21,0,0-.02,0-.03-.01-.08-.04-.17-.08-.17-.19,0-.04.01-.06.03-.08.04-.03.12-.02.16,0,.06.02.12.05.18.08.02.01.04.02.06.03.08.05.17.07.27.1.02,0,.04.02.07.02.05.02.1.04.16.04.02.01.12.1.18.18-.06-.04-.18-.08-.37-.16,0,0,0,0-.01,0v.02s0,0,0,0c.03.02.11.09.16.19Z"/>
            <path class="cls-6" d="M12.92,13.48l.07-.09-.08-.03c.11-.05.35-.2.27-.68v-.06s-.02.06-.02.06c-.04.24-.09.33-.13.36.03-.14.01-.21,0-.22-.01-.06-.04-.12-.08-.18-.04-.06-.09-.11-.15-.17-.04-.04-.08-.07-.12-.11-.06-.05-.12-.1-.17-.16h.19l-.16-.13c.09.02.27.07.31.09l.03.02-.02-.03c-.04-.06-.09-.14-.13-.18.21.08.31.13.35.16l.05.05-.04-.06c-.06-.11-.21-.23-.22-.24-.03-.03-.05-.05-.07-.07l.15.02s.03.01.04.02c.19.08.38.17.53.32.11.11.17.24.18.45,0,.12,0,.24-.03.36-.02.11-.07.19-.13.28-.11.14-.25.31-.44.36.01-.02.04-.06.06-.08.04-.05.08-.11.09-.14v-.03s-.16.11-.16.11l.04-.12h-.02c-.13.07-.19.1-.22.11Z"/>
            <path class="cls-5" d="M12.86,11.89s-.09-.02-.13-.04c-.02-.01-.05-.02-.07-.03-.09-.03-.18-.05-.26-.1-.02-.01-.04-.02-.06-.03-.06-.03-.12-.06-.18-.09-.06-.02-.13-.02-.18.01-.03.02-.04.06-.04.1,0,.12.1.16.19.2.01,0,.02,0,.03.01.1.05.18.13.26.21.01.01.02.02.04.04.07.07.15.14.23.21.04.04.08.07.12.11.12.11.19.22.22.33l-.02.03c0-.06-.05-.19-.27-.38-.12-.1-.26-.21-.42-.26h-.01c-.14-.05-.28-.09-.38-.19-.14-.12-.24-.42-.16-.6.02-.05.05-.08.08-.09,0,0,.01,0,.01,0,.03,0,.06.01.09.02,0,0,.02,0,.03.01.06.02.11.04.17.07.26.13.52.26.77.37,0,0,0,0,.01,0l-.15-.03.03.03s.03.02.07.07Z"/>
            <path class="cls-1" d="M12.94,12.06s-.05-.02-.08-.03c.03.01.06.02.08.03ZM13.76,12.64c-.02-.21-.07-.35-.19-.46-.07-.07-.15-.13-.24-.18-.1-.06-.2-.11-.3-.15-.04-.02-.08-.04-.12-.06-.25-.12-.51-.24-.77-.37-.05-.03-.11-.05-.17-.07,0,0-.02,0-.03-.01-.03-.01-.06-.03-.09-.02,0,0-.01,0-.02,0-.01,0-.02.01-.03.02-.02.02-.04.05-.06.08-.07.17,0,.43.12.58.01.02.03.04.05.05.11.1.25.14.39.19h.01c.16.05.3.16.41.26.15.12.21.22.24.29.03.06.02.1.02.1v.04s.05-.07.05-.07c0,.03,0,.11-.02.21v.02s.02-.01.02-.01c.04-.02.09-.07.14-.24,0-.02.01-.05.02-.08,0,.03,0,.05,0,.08.01.34-.16.46-.3.53h-.02s.1.04.1.04l-.09.11h.02s.05,0,.24-.09l-.04.13.16-.11s-.05.07-.07.1c-.04.06-.07.09-.07.11h0s.01.01.01.01c.21-.04.36-.22.47-.38.06-.08.11-.17.13-.28.03-.12.04-.24.03-.37ZM13,12.86s0-.03-.01-.06h0s0-.02-.01-.03c0-.01,0-.02-.02-.03-.02-.03-.04-.07-.08-.12,0,0-.01-.01-.02-.02-.03-.04-.07-.08-.13-.12-.12-.1-.26-.21-.42-.26h-.01c-.14-.05-.28-.09-.38-.19-.01-.01-.02-.02-.04-.04h0s-.02-.03-.03-.04c0,0,0,0,0-.01,0-.01-.02-.02-.02-.04-.03-.04-.05-.09-.06-.15,0,0,0-.02,0-.02,0-.02,0-.03-.01-.05s0-.03,0-.05v-.02s0-.03,0-.05c0-.05.01-.11.03-.15.01-.03.03-.05.04-.07,0,0,.01-.01.02-.02,0,0,.01,0,.02-.01,0,0,.01,0,.02,0,.03,0,.05.01.08.02,0,0,.02,0,.03.01.06.02.11.04.17.07.26.13.52.26.77.37,0,0,0,0,.01,0l-.15-.03.03.03s.03.02.07.07c-.04,0-.09-.02-.13-.04-.02-.01-.05-.02-.07-.03-.09-.03-.18-.05-.26-.1-.02-.01-.04-.02-.06-.03-.06-.03-.12-.06-.18-.09-.06-.02-.13-.02-.18.01,0,0-.01.01-.02.02,0,0-.01.01-.01.02h0s-.01.04-.01.06c0,.12.1.16.19.21.01,0,.02,0,.03.01.02,0,.03.02.05.03.02.01.03.02.05.04,0,0,.01,0,.02.01.02.01.03.02.05.04.03.03.06.06.09.09l.04.04c.07.07.15.14.23.21.04.04.08.07.12.11.01.01.03.03.04.04.01,0,.02.02.03.02.03.04.06.07.09.11,0,0,.01.02.02.03,0,.01.01.02.01.03,0,.01,0,.02.02.03,0,.01.01.03.01.04,0,0,0,.02,0,.02l-.02.03ZM12.69,11.96s.03.02.05.04c.03.03.07.09.11.15-.09-.03-.32-.08-.33-.09h-.04s.13.1.13.1h0s.04.04.04.04h-.16s-.02-.02-.03-.03l-.04-.04s-.09-.09-.14-.13h0s-.03-.03-.05-.04c0,0-.01,0-.02-.01-.02-.01-.04-.02-.06-.03-.01,0-.02,0-.03-.01-.08-.04-.17-.08-.17-.19,0,0,0-.02,0-.02,0,0,0-.01,0-.02h0s.02-.03.03-.04c.04-.03.12-.02.16,0,.06.02.12.05.18.09.02.01.04.02.06.03.08.05.17.07.27.1.02,0,.04.02.07.02.05.02.1.04.16.04.01,0,.05.04.09.09.03.03.06.06.09.09-.03-.02-.08-.04-.15-.07-.02,0-.04-.02-.06-.02-.05-.02-.1-.04-.16-.06,0,0,0,0-.01,0v.02s0,0,0,0ZM13.71,13c-.02.11-.07.19-.13.28-.11.14-.25.31-.44.36.01-.02.04-.06.06-.08.04-.05.08-.11.09-.14v-.03s-.16.11-.16.11l.04-.12h-.02c-.13.07-.19.09-.22.11l.07-.09-.08-.03c.1-.05.3-.17.29-.53,0-.02,0-.05,0-.07h0s0-.05-.01-.08v-.06s-.02.06-.02.06c-.01.06-.02.11-.03.15,0,.02,0,.03-.01.05,0,.02-.01.05-.02.06,0,0,0,0,0,0,0,.01,0,.02-.01.03-.02.03-.03.05-.05.07.03-.13,0-.21,0-.22,0,0,0-.01,0-.02,0-.01,0-.03-.01-.04,0-.01-.01-.03-.02-.04-.01-.03-.03-.05-.04-.08-.04-.06-.09-.12-.15-.17-.04-.04-.08-.07-.12-.11l-.18-.16h.19l-.16-.13c.09.02.27.07.31.09l.03.02-.02-.03s-.02-.03-.03-.04c0-.01-.01-.02-.02-.03-.02-.03-.05-.06-.07-.09,0,0-.01-.01-.01-.02.01,0,.03.01.04.02.02,0,.04.02.06.02.03.01.06.02.08.03.01,0,.02.01.03.01.01,0,.02,0,.03.01.01,0,.03.01.04.02,0,0,.02,0,.02.01.02.01.03.02.04.03l.05.05-.04-.06s-.07-.09-.11-.13c-.01-.01-.03-.03-.04-.04,0,0-.01-.01-.02-.02-.03-.03-.05-.05-.06-.05-.03-.03-.05-.05-.07-.07l.15.02s.03.01.04.02c.09.04.18.08.27.13.02.01.05.03.07.04s.05.03.07.04c.04.03.09.07.13.11.11.11.17.24.18.45,0,.12,0,.24-.03.36Z"/>
          </g>
        </g>
      </g>
    </g>
  </g>
</svg>