<?xml version="1.0" encoding="UTF-8"?>
<svg id="Layer_1" data-name="Layer 1" xmlns="http://www.w3.org/2000/svg" viewBox="0 0 24 24">
  <defs>
    <style>
      .cls-1 {
        fill: #000;
      }

      .cls-1, .cls-2, .cls-3, .cls-4, .cls-5 {
        stroke-width: 0px;
      }

      .cls-2 {
        fill: none;
      }

      .cls-3 {
        fill: #04247b;
      }

      .cls-4 {
        fill: #ce152a;
      }

      .cls-5 {
        fill: #fff;
      }
    </style>
  </defs>
  <rect class="cls-2" width="24" height="24"/>
  <g>
    <path class="cls-1" d="M16.72,7.34c2.92,2.92,3.17,7.42.57,10.03-2.61,2.61-7.11,2.35-10.03-.57-2.92-2.92-3.18-7.42-.57-10.03,2.61-2.61,7.11-2.35,10.03.57Z"/>
    <g>
      <path class="cls-3" d="M9.01,3.51v4.98l-4.08-2.04c1.05-1.33,2.46-2.36,4.08-2.93Z"/>
      <path class="cls-3" d="M19.08,6.45l-4.08,2.04V3.51c1.63.57,3.04,1.6,4.08,2.93Z"/>
      <path class="cls-3" d="M9.01,15.51v4.97c-1.63-.57-3.04-1.6-4.08-2.93l4.08-2.04Z"/>
      <path class="cls-3" d="M19.08,17.55c-1.05,1.33-2.46,2.36-4.08,2.93v-4.97l4.08,2.04Z"/>
      <path class="cls-5" d="M21,12c0,.62-.06,1.22-.18,1.8-.08.41-.2.81-.33,1.2h-2.52l2.08,1.04c-.27.54-.6,1.05-.97,1.52l-4.08-2.04v4.97c-.39.14-.79.25-1.19.33-.58.12-1.18.18-1.8.18s-1.22-.06-1.8-.18c-.41-.08-.81-.19-1.2-.33v-4.97l-4.08,2.04c-.13-.16-.25-.33-.36-.49l4.13-2.06h-2.69l-2.05,1.03c-.35-.69-.61-1.44-.77-2.22-.12-.58-.18-1.18-.18-1.8s.06-1.22.18-1.8c.08-.41.19-.81.33-1.2h2.5l-2.06-1.03c.27-.54.6-1.05.97-1.53l4.08,2.04V3.51c.39-.14.79-.25,1.2-.33.58-.12,1.18-.18,1.8-.18s1.22.06,1.8.18c.41.08.81.19,1.19.33v4.98l4.08-2.04c.13.16.24.32.36.49l-4.14,2.07h2.69l2.06-1.03c.35.7.61,1.44.77,2.23.12.58.18,1.18.18,1.8Z"/>
      <path class="cls-4" d="M6.02,9h-2.5c.13-.36.27-.7.44-1.03l2.06,1.03Z"/>
      <path class="cls-4" d="M20.49,15c-.13.36-.27.7-.44,1.04l-2.08-1.04h2.52Z"/>
      <path class="cls-4" d="M20.05,7.97l-2.06,1.03h-2.69l4.14-2.07c.23.33.43.68.61,1.04Z"/>
      <path class="cls-4" d="M8.69,15l-4.13,2.06c-.23-.33-.43-.68-.61-1.04l2.05-1.03h2.69Z"/>
      <path class="cls-4" d="M21,12c0,.62-.06,1.22-.18,1.8h-7.02v7.02c-.58.12-1.18.18-1.8.18s-1.22-.06-1.8-.18v-7.02H3.18c-.12-.58-.18-1.18-.18-1.8s.06-1.22.18-1.8h7.02V3.18c.58-.12,1.18-.18,1.8-.18s1.22.06,1.8.18v7.02h7.02c.12.58.18,1.18.18,1.8Z"/>
    </g>
  </g>
</svg>