<?xml version="1.0" encoding="UTF-8"?>
<svg id="Layer_1" data-name="Layer 1" xmlns="http://www.w3.org/2000/svg" viewBox="0 0 24 24">
  <defs>
    <style>
      .cls-1 {
        fill: #000;
      }

      .cls-1, .cls-2, .cls-3, .cls-4, .cls-5 {
        stroke-width: 0px;
      }

      .cls-2 {
        fill: #0738a6;
      }

      .cls-3 {
        fill: #fbd023;
      }

      .cls-4 {
        fill: none;
      }

      .cls-5 {
        fill: #fff;
      }
    </style>
  </defs>
  <rect class="cls-4" width="24" height="24"/>
  <g>
    <path class="cls-1" d="M16.71,7.34c2.92,2.92,3.18,7.42.57,10.03-2.61,2.61-7.11,2.36-10.03-.57-2.92-2.92-3.18-7.42-.57-10.03,2.61-2.61,7.11-2.35,10.03.57Z"/>
    <g>
      <g>
        <g>
          <path class="cls-5" d="M20.48,15c-.18.53-.42,1.03-.69,1.5-.1.17-.2.34-.31.5H4.52c-.11-.16-.21-.33-.31-.5-.27-.47-.51-.98-.69-1.5h16.97Z"/>
          <path class="cls-2" d="M20.94,13c-.07.69-.23,1.36-.46,2H3.52c-.23-.64-.38-1.31-.46-2h17.89Z"/>
          <path class="cls-2" d="M19.48,17c-.51.76-1.13,1.43-1.83,2H6.35c-.71-.57-1.33-1.25-1.83-2h14.96Z"/>
          <path class="cls-5" d="M17.65,19c-1.55,1.25-3.51,2-5.65,2s-4.1-.75-5.65-2h11.29Z"/>
          <path class="cls-5" d="M20.48,9H3.52c.18-.52.42-1.02.69-1.5.1-.17.2-.34.31-.5h14.96c.11.16.21.33.31.5.27.47.51.98.69,1.5Z"/>
          <path class="cls-5" d="M21,12c0,.34-.02.67-.06,1H3.05c-.04-.33-.05-.66-.05-1s.02-.67.05-1h17.89c.04.33.06.66.06,1Z"/>
          <path class="cls-2" d="M19.48,7H4.52c.05-.08.11-.15.16-.23.02-.04.05-.07.08-.11.25-.34.53-.67.83-.97.04-.04.08-.08.12-.12.21-.21.43-.4.65-.58h11.29c.71.57,1.33,1.24,1.83,2Z"/>
          <path class="cls-5" d="M17.65,5H6.35s.09-.07.14-.11c.05-.04.11-.08.16-.12,1.5-1.11,3.35-1.77,5.35-1.77.34,0,.67.02,1,.05,1.75.19,3.35.89,4.65,1.94Z"/>
          <path class="cls-2" d="M20.94,11H3.05c.08-.69.23-1.36.46-2h16.97c.23.64.38,1.31.46,2Z"/>
        </g>
        <path class="cls-5" d="M13,3.06v9.95H3.05c-.04-.33-.05-.66-.05-1s.02-.67.05-1c.08-.69.23-1.36.46-2,.18-.52.42-1.02.69-1.5.1-.17.2-.34.31-.5.05-.08.11-.15.16-.23.02-.04.05-.07.08-.11.25-.34.53-.67.83-.97.04-.04.08-.08.12-.12.21-.21.43-.4.65-.58.05-.04.09-.07.14-.11.05-.04.11-.08.16-.12,1.5-1.11,3.35-1.77,5.35-1.77.34,0,.67.02,1,.05Z"/>
      </g>
      <g>
        <g>
          <path class="cls-3" d="M6.65,5.46c.04.06.08.15.15.27.14.27.17.52.17.65,0,.03,0,.06,0,.08l.54.38h0c-.06-.19-.11-.35-.23-.62-.13-.29-.18-.36-.51-.79,0,0-.01-.01-.01-.02-.14-.18-.19-.34-.21-.47,0,0,0,.01,0,.02-.01.08-.02.16,0,.22.02.1.03.14.12.28Z"/>
          <path class="cls-3" d="M6.81,5.39c.33.43.38.51.51.8.11.24.16.39.21.56l.08-.44c-.07-.22-.21-.46-.4-.71-.11-.14-.24-.23-.44-.37-.07-.05-.12-.11-.15-.18,0,0,0-.01,0-.01.03.1.08.21.17.33,0,0,.01.01.01.02Z"/>
          <path class="cls-3" d="M7.69,6.8c.09-.02.18-.04.28-.04v-2.03l-.38,2.1s.06-.02.1-.03Z"/>
          <path class="cls-3" d="M8.41,6.83l-.38-2.1v2.03s.06,0,.09,0c.1,0,.2.03.29.06Z"/>
          <path class="cls-3" d="M8.74,6.22c.1-.27.12-.36.18-.77,0-.05.01-.11.02-.17.03-.22.11-.38.19-.48-.07.05-.14.11-.18.17-.03.04-.04.06-.06.1-.02.04-.03.09-.06.19-.02.07-.05.16-.09.29-.12.37-.34.58-.4.63l.12.65c.09-.17.17-.33.27-.6Z"/>
          <path class="cls-3" d="M9.1,5.02s.02-.06.03-.09c-.05.09-.09.2-.12.36,0,.06-.02.12-.02.17-.06.42-.08.52-.18.79-.09.24-.16.39-.24.55l.37-.26h0c.1-.21.18-.47.22-.78.02-.17,0-.33-.05-.57-.01-.06,0-.11,0-.16Z"/>
          <path class="cls-3" d="M8.54,6.88c.12.06.22.13.32.22l1.43-1.43-1.32.92-.43.3Z"/>
          <path class="cls-3" d="M9.7,7.62c.21-.07.43-.19.67-.37.01-.01.03-.02.04-.03.14-.11.23-.24.37-.44.05-.08.12-.12.2-.15-.1.03-.21.08-.33.17-.45.34-.52.39-.82.53-.12.05-.22.09-.31.13l-.11.04c-.05.02-.1.03-.15.05l.44.08h0Z"/>
          <path class="cls-3" d="M9.55,6.96h0l-.38.54c.07-.02.14-.04.21-.07.12-.04.24-.09.41-.16.29-.13.36-.19.81-.52.18-.14.34-.19.47-.2,0,0-.01,0-.02,0-.08-.01-.16-.02-.22,0-.1.02-.13.04-.28.12-.06.03-.15.08-.27.14-.35.18-.64.17-.72.16Z"/>
          <path class="cls-3" d="M9.12,7.46h0l1.21-1.75-1.43,1.43c.09.09.16.2.22.32Z"/>
          <path class="cls-3" d="M9.24,7.97h2.03l-2.09-.38c.04.12.06.25.07.38Z"/>
          <path class="cls-3" d="M9.17,8.41l2.09-.38h-2.03c0,.13-.03.26-.07.38Z"/>
          <path class="cls-3" d="M11.03,8.96c-.08-.06-.12-.07-.28-.12-.07-.02-.16-.05-.29-.09-.37-.12-.58-.34-.63-.4l-.65.12c.18.09.33.17.6.27.28.11.37.12.84.19.03,0,.06.01.1.01.22.03.37.11.47.19-.01-.02-.02-.04-.04-.05-.04-.05-.08-.09-.13-.13Z"/>
          <path class="cls-3" d="M10.61,9c-.47-.07-.57-.09-.85-.19-.24-.09-.39-.16-.55-.24h0s.26.37.26.37c.21.1.47.18.78.21.17.02.33,0,.57-.05.06-.01.11,0,.16,0,.03,0,.06.02.09.03-.09-.05-.2-.09-.36-.12-.03,0-.07-.01-.1-.01Z"/>
          <path class="cls-3" d="M9.12,8.54s-.01.02-.01.03c-.05.11-.12.2-.2.29l1.43,1.43-.92-1.32-.3-.43Z"/>
          <path class="cls-3" d="M8.54,9.12l1.75,1.21-1.43-1.43c-.09.09-.2.16-.32.22Z"/>
          <path class="cls-3" d="M9.35,10.54c-.03-.06-.08-.15-.14-.27-.18-.35-.17-.64-.16-.72l-.54-.38c.06.18.11.34.22.59,0,0,0,.02.01.02.13.29.18.36.52.81.14.18.19.34.2.47,0,0,0-.01,0-.02.01-.08.02-.16,0-.22-.02-.1-.03-.14-.12-.28Z"/>
          <path class="cls-3" d="M8.67,9.81s0-.01,0-.02c-.05-.11-.09-.2-.12-.28-.03-.09-.06-.17-.09-.25l-.08.44h0c.07.22.21.46.4.71.11.14.23.23.44.37.07.05.12.11.15.18,0,0,0,.01,0,.01-.03-.1-.08-.21-.17-.33-.34-.45-.39-.53-.53-.82Z"/>
          <path class="cls-3" d="M8.03,9.24v2.03l.38-2.1c-.12.04-.25.07-.38.07Z"/>
          <path class="cls-3" d="M7.97,11.27v-2.03c-.13,0-.26-.03-.38-.07l.38,2.1Z"/>
          <path class="cls-3" d="M7.26,9.78c-.08.21-.11.32-.15.57-.02.1-.03.22-.06.37-.03.22-.11.38-.19.48.02-.01.04-.03.05-.04.05-.04.09-.08.13-.13.06-.08.07-.12.12-.28.02-.07.05-.16.09-.29.06-.19.14-.33.22-.43.08-.11.15-.17.18-.19l-.12-.65c-.09.17-.17.33-.27.6Z"/>
          <path class="cls-3" d="M6.9,10.98s-.01.06-.03.09c.05-.09.09-.2.12-.36.02-.16.04-.28.06-.38.04-.25.07-.36.15-.58.09-.24.16-.39.24-.55l-.37.26c-.1.21-.18.47-.22.78-.02.17,0,.33.05.57.01.06,0,.11,0,.16Z"/>
          <path class="cls-3" d="M7.15,8.9l-1.43,1.43,1.75-1.21c-.12-.06-.22-.13-.32-.22Z"/>
          <path class="cls-3" d="M6.88,8.54l-.42.6-.79,1.15,1.43-1.43c-.09-.09-.16-.2-.22-.32Z"/>
          <path class="cls-3" d="M6.38,9.04s.06,0,.07,0l.38-.54c-.07.02-.14.04-.21.07-.12.04-.24.09-.41.16-.29.13-.36.19-.81.52-.18.14-.34.19-.47.2.09.02.18.02.24.01.1-.02.14-.04.28-.12.06-.03.15-.08.27-.14.27-.14.52-.17.65-.17Z"/>
          <path class="cls-3" d="M5.6,8.78c-.12.1-.21.21-.33.38-.01.02-.02.04-.04.06-.05.08-.12.12-.2.15.1-.03.21-.08.34-.17.45-.34.52-.39.82-.53.17-.08.3-.13.41-.17l.15-.05-.44-.08h0c-.22.07-.46.21-.71.4Z"/>
          <path class="cls-3" d="M6.76,7.91c0-.11.03-.22.07-.32l-2.09.38h2.03s0-.04,0-.06Z"/>
          <path class="cls-3" d="M6.83,8.41c-.04-.12-.07-.25-.07-.38h-2.03l1.46.26.64.12Z"/>
          <path class="cls-3" d="M6.24,7.2h0c.24.09.39.16.55.24h0l-.26-.37c-.21-.1-.47-.18-.78-.21-.17-.02-.33,0-.57.05-.06.01-.11,0-.16,0-.03,0-.06-.02-.09-.03.09.05.2.09.36.12.56.08.65.09.95.21Z"/>
          <path class="cls-3" d="M4.97,7.04c.08.06.12.07.28.12.07.02.16.05.29.09.37.12.58.34.63.4l.65-.12c-.17-.09-.33-.17-.6-.27-.3-.11-.39-.12-.94-.2-.22-.03-.37-.11-.48-.19,0,.01.01.02.02.03.04.06.09.12.15.15Z"/>
          <path class="cls-3" d="M6.88,7.46s0-.02.01-.03c.05-.11.12-.2.2-.29l-1.43-1.43,1.17,1.69.04.06Z"/>
          <path class="cls-3" d="M7.46,6.88l-1.75-1.21,1.43,1.43c.09-.09.2-.16.32-.22Z"/>
          <path class="cls-3" d="M8.59,7.62s0,0,0,0c0,.04.04.15-.04.2,0,0,0,0,0,0,.05-.01.1-.04.13-.05,0-.02,0-.08,0-.11-.03-.01-.05-.03-.07-.03Z"/>
          <path class="cls-3" d="M7.45,7.81c-.07-.04-.05-.16-.04-.2,0,0,0,0-.01,0-.02,0-.04.02-.07.03-.01.03,0,.09,0,.11.03.02.08.04.13.05,0,0,0,0,0,0Z"/>
          <path class="cls-3" d="M9.18,7.97c0-.13-.03-.25-.07-.37,0,0,0-.01,0-.02h0s0-.02,0-.02c0,0,0-.01,0-.02,0,0,0-.01,0-.02s0-.01,0-.02c-.05-.12-.13-.22-.21-.32,0,0-.01-.01-.02-.02,0,0-.01-.02-.02-.02-.06-.06-.12-.11-.19-.15-.05-.03-.1-.06-.15-.08h0s-.01,0-.02-.01c-.11-.04-.21-.07-.33-.08-.04,0-.07,0-.11,0-.1,0-.2.01-.29.04-.04.01-.09.02-.13.04,0,0,0,0,0,0,0,0,0,0,0,0h0s-.01,0-.02.01c0,0,0,0-.01,0,0,0,0,0,0,0-.05.02-.1.05-.14.08-.08.05-.15.1-.21.17-.09.09-.16.19-.21.29-.01.02-.03.05-.04.08,0,0,0,.01,0,.01,0,0,0,0,0,0,0,0,0,.01,0,.02-.04.11-.07.22-.08.34,0,.02,0,.03,0,.05v.06c0,.13.03.25.07.37,0,0,0,.01,0,.01v.02s.01.01.02.02c0,0,0,.01,0,.02,0,0,0,.01,0,.02.05.12.13.22.22.32,0,0,.01.01.02.02s.02.01.02.02c.06.06.12.11.19.15.04.03.08.05.13.07,0,0,.01,0,.02,0s.01,0,.02,0c0,0,.01,0,.02,0,0,0,.01,0,.02,0,0,0,.01,0,.02,0,.12.04.24.07.37.07h.06c.13,0,.25-.03.37-.07,0,0,.01,0,.01,0h.02s.01-.01.02-.02c0,0,.01,0,.01,0,0,0,.01,0,.02,0,.04-.02.08-.04.12-.07.07-.04.13-.09.19-.15,0,0,.02-.01.02-.02l.02-.02c.08-.08.14-.17.19-.27,0-.01.01-.03.02-.04,0,0,0-.01,0-.02s0-.01,0-.02c0,0,0-.01,0-.02v-.02s.01-.01.01-.02c.04-.12.07-.24.07-.37v-.06ZM8.17,8.08s.08.02.1.15c.03.01.06.02.08.04.03.02.05.04.07.06,0,0-.01,0-.02-.01,0,0-.01,0-.02-.01-.02,0-.03-.01-.04-.02-.03-.01-.07-.02-.11-.03-.03,0-.07,0-.1,0,0,0-.05.06-.14.06s-.14-.06-.14-.06c-.03,0-.07-.01-.1,0-.04,0-.07.01-.11.03-.02,0-.03.01-.04.02,0,0-.01,0-.02.01,0,0,0,0,0,0,0,0,0,0-.01,0,.02-.02.04-.04.06-.06.03-.02.05-.03.08-.04.02-.13.1-.15.1-.15-.12.18.05.14.07.12,0,.06.07.07.1.07h.02s.1,0,.09-.07c.02.02.19.06.07-.12ZM8.02,8.74h-.03s-.14,0-.21-.03c-.09-.04-.14-.1-.25-.12,0,0,.02,0,.06,0,.05,0,.14.02.23.06.06.02.15.02.2.02s.13,0,.2-.02c.09-.04.17-.05.22-.06.04,0,.06,0,.06,0-.11.02-.16.08-.25.12-.07.03-.17.03-.21.03ZM8.12,8.87h-.01s-.02,0-.03,0c-.02,0-.05,0-.08,0-.01,0-.03,0-.04,0-.01,0-.03,0-.04,0-.02,0-.04,0-.04,0,0,0,.01,0,.04-.02.01,0,.02,0,.04,0,0,0,.01,0,.02,0h.02s.03,0,.05,0c0,0,.01,0,.02,0,0,0,.01,0,.02,0,.01,0,.02,0,.03.01h0ZM8.42,8.55c-.18.02-.19,0-.25,0-.06,0-.13,0-.15.01,0,0-.02,0-.02,0-.03,0-.09-.01-.15-.01-.06,0-.07.02-.25,0-.03,0-.06,0-.1-.01,0,0,.15-.02.26-.06.07-.02.14-.03.21-.01,0,0,.02,0,.03,0s.02,0,.03,0h.03c.07-.02.15-.02.21,0,.11.04.26.06.26.06-.04,0-.07,0-.1.01ZM7.14,7.55s-.03-.01-.02-.03c0,0,0,0,0,0,0,0,.01,0,.02-.01.04-.02.07-.04.11-.06.11-.06.22-.11.34-.07.09.03.18.1.25.16.01.01.04.04.01.05-.02,0-.07-.04-.08-.06-.09-.06-.21-.08-.32-.07-.05,0-.11.02-.16.03-.02.01-.05.02-.07.03-.02.01-.05.03-.07.03ZM7.29,7.73s.01,0,.03.02c0-.02,0-.03,0-.05,0,0,0-.02,0-.02,0,0,0-.02,0-.02-.02,0-.04.02-.06.03-.02.01-.03.02-.05.03,0,0-.02.01-.03.01,0,0,0,0,0,0,0-.01.15-.14.29-.15.14-.01.21.02.26.07.05.05.04.08.04.08,0,0-.07-.07-.12-.08h0s0,.08-.02.1c-.01.02-.06.09-.12.1.05,0,.09,0,.13-.03.02-.01.05-.03.06-.05,0,0,.01,0,.02-.01,0,0,.01,0,.02,0s0,0,0,0c0,0,0,.01,0,.02,0,.01-.02.03-.04.03-.03.02-.06.03-.09.04-.08.02-.16.01-.24-.03-.12-.07-.11-.09-.09-.08ZM7.38,8.61s0,0,0,0c0,0,0-.01,0-.02,0-.01,0-.02.01-.03,0,0,0-.01,0-.02,0,0,0-.01,0-.01,0-.01.02-.02.03-.03.01,0,.02-.01.03-.02,0,0,.01,0,.02-.01,0,0,0,0,0,0h0s-.01.02-.01.02c0,0,0,0,0,.01,0,0,0,0-.01.01,0,0,0,.01-.01.01,0,0,0,0-.01.01,0,0-.01.02-.02.03,0,0-.01.02-.01.02,0,.02-.01.03-.01.03ZM8.63,8.6s0,0,0,0c0,0,0-.01-.01-.03,0,0,0-.02-.01-.02,0-.01-.01-.02-.02-.03,0,0,0-.01-.01-.01,0,0,0-.01-.01-.01,0,0,0,0-.01-.01,0,0,0,0-.01-.01,0,0-.01-.01-.01-.02,0,0,0,0,0,0,0,0,0,0,0,0,0,0,.01,0,.02.01,0,0,.02.01.03.02,0,0,.02.02.02.03,0,0,0,.01.01.01,0,0,0,.01.01.02,0,.01,0,.02.01.03v.02ZM8.8,7.72s-.02,0-.03-.01c-.01,0-.03-.02-.05-.03-.02,0-.03-.02-.05-.03,0,0,0,.02,0,.02,0,0,0,.02,0,.02,0,.02,0,.04,0,.05.02-.01.03-.02.03-.02.01-.01.03.01-.09.08-.08.04-.16.05-.24.03-.03,0-.06-.02-.09-.04-.01,0-.03-.02-.04-.03,0,0,0-.01,0-.02,0,0,0,0,0,0s.01,0,.02,0c0,0,.01,0,.02.01.02.02.04.03.06.05.04.02.08.03.13.03-.06-.01-.11-.08-.13-.1-.01-.02-.02-.07-.02-.1h0s-.12.08-.12.08c0,0-.02-.04.04-.08.05-.04.12-.08.26-.07.14.01.29.14.29.15,0,0,0,0,0,0ZM8.86,7.55s-.05-.02-.07-.03c-.02-.01-.05-.02-.08-.03-.05-.02-.11-.03-.16-.03-.11-.01-.22.01-.32.07-.02.01-.06.06-.08.06-.03,0,0-.04.01-.05.07-.07.16-.14.25-.16.12-.04.23.02.34.07.04.02.08.04.11.06,0,0,.01,0,.02.01,0,0,0,0,0,0,.01.02,0,.03-.02.03Z"/>
        </g>
        <g>
          <path class="cls-1" d="M11.21,9.04s-.02-.03-.04-.04c-.03-.04-.07-.07-.1-.09-.09-.06-.14-.08-.3-.13-.07-.02-.16-.05-.29-.08-.31-.1-.5-.27-.57-.35l1.89-.34-1.98-.36c.18-.07.38-.19.58-.34.01-.01.03-.02.04-.03.09-.07.17-.16.25-.27.04-.05.08-.12.13-.19.13-.19.39-.17.55-.16h.13s-.11-.06-.11-.06c-.1-.06-.22-.1-.34-.12-.09-.02-.17-.02-.24,0-.11.02-.16.04-.3.13-.06.03-.15.08-.27.14-.29.15-.54.16-.65.16l1.09-1.58-1.65,1.15c.08-.2.14-.43.18-.7.02-.18,0-.34-.05-.59,0-.05,0-.09,0-.14,0-.01,0-.02,0-.03.04-.14.17-.26.27-.34l.1-.09-.13.03c-.19.05-.4.19-.5.32-.02.02-.03.05-.04.07,0,.01-.02.03-.02.04-.02.05-.04.1-.06.19-.02.07-.05.16-.09.29-.1.31-.27.5-.35.57l-.2-1.1-.05-.27-.09-.52-.09.52-.05.27-.21,1.18c-.08-.2-.21-.41-.37-.62-.11-.14-.24-.24-.45-.38-.06-.04-.1-.09-.13-.15,0,0,0-.02,0-.02-.03-.07-.03-.15-.03-.23-.05.04-.11.08-.16.12,0,.02,0,.04-.01.06,0,.02,0,.04,0,.05-.01.07-.01.14,0,.19.02.11.04.16.12.3.03.06.08.15.14.27.15.28.16.54.16.65l-1.2-.83s-.08.08-.12.12l.88,1.27c-.19-.08-.43-.14-.7-.18-.18-.02-.34,0-.59.05-.05.01-.09,0-.14,0-.11-.02-.2-.09-.27-.17-.03.03-.05.07-.08.11.03.05.06.11.09.15.02.03.04.05.06.07.03.04.07.07.1.09.09.06.14.08.3.13.07.02.16.05.29.09.31.1.5.27.57.35l-1.37.25-.52.09,1.98.36c-.2.08-.41.2-.62.37-.09.07-.17.16-.25.27-.03.04-.06.08-.09.13-.01.02-.03.04-.04.06-.13.19-.38.17-.55.16h-.13s.11.06.11.06c.09.05.21.09.32.12.06.01.12.02.17.02.03,0,.06,0,.09,0,.11-.02.16-.04.3-.13.06-.03.15-.08.27-.14.29-.15.54-.16.65-.16l-1.1,1.58,1.65-1.15c-.08.2-.14.43-.18.71-.02.18,0,.34.05.59,0,.05,0,.09,0,.14,0,0,0,.02,0,.03-.04.15-.17.26-.27.34l-.1.09.13-.03c.12-.03.26-.1.37-.18.06-.04.1-.09.14-.14.02-.02.03-.05.04-.07.03-.06.05-.12.08-.23.02-.07.05-.16.09-.29.09-.31.27-.5.35-.57l.2,1.09.14.8.14-.8.21-1.18c.04.1.09.2.15.3s.14.21.22.32c.11.14.24.24.45.38.06.04.1.09.13.15,0,0,0,.01,0,.02.04.13.03.27.02.38v.13s.06-.12.06-.12c.06-.09.1-.22.12-.34,0-.02,0-.04,0-.05.01-.07.01-.14,0-.19-.02-.11-.04-.16-.12-.3-.04-.06-.08-.15-.14-.26-.15-.29-.16-.55-.16-.65l1.58,1.09-1.15-1.65c.2.08.43.14.71.18.18.02.34,0,.59-.05.05-.01.09,0,.14,0,.16.03.28.18.37.28l.09.1-.03-.13c-.03-.12-.1-.26-.19-.36ZM9.17,8.41c.04-.12.07-.25.07-.38h2.03l-2.09.38ZM9.1,8.41v.02s-.01.01-.01.02c0,0,0,.01,0,.02,0,0,0,.01,0,.02s0,.01,0,.02c0,.01-.01.03-.02.04-.05.1-.12.19-.19.27l-.02.02s-.01.01-.02.02c-.06.06-.12.11-.19.15-.04.03-.08.05-.12.07,0,0-.01,0-.02,0,0,0-.01,0-.01,0,0,0-.01,0-.02,0h-.02s0,0,0,0c0,0,0,0-.01,0-.12.04-.25.07-.37.07h-.06c-.13,0-.25-.03-.37-.07,0,0-.01,0-.02,0,0,0-.01,0-.02,0,0,0-.01,0-.02,0,0,0-.01,0-.02,0s0,0-.02,0c-.04-.02-.08-.04-.13-.07-.07-.04-.13-.09-.19-.15,0,0-.02-.01-.02-.02s-.01-.01-.02-.02c-.09-.09-.16-.2-.22-.32,0,0,0-.01,0-.02,0,0,0-.01,0-.02,0,0,0-.01,0-.02v-.02s-.01,0-.01-.01c-.04-.12-.07-.24-.07-.37v-.06s0-.03,0-.05c0-.12.03-.23.08-.34,0,0,0-.01,0-.02,0,0,0,0,0,0,0,0,0-.01,0-.01.01-.03.02-.05.04-.08.06-.11.13-.21.21-.29.06-.06.14-.12.21-.17.05-.03.09-.05.14-.08,0,0,0,0,0,0,0,0,0,0,.01,0,0,0,.01,0,.02,0h0s0,0,0,0c0,0,0,0,0,0,.04-.02.08-.03.13-.04.09-.02.19-.04.29-.04.04,0,.07,0,.11,0,.11.01.22.04.33.08,0,0,.01,0,.02,0h0c.05.03.11.05.15.08.07.04.13.09.19.15,0,0,.02.01.02.02,0,0,.02.01.02.02.09.09.16.2.21.32,0,0,0,.01,0,.02s0,.01,0,.02c0,0,0,.01,0,.02v.02s0,0,0,0c0,0,0,.01,0,.02.04.12.07.24.07.37v.06c0,.13-.03.25-.07.37ZM11.26,7.97h-2.03c0-.13-.03-.26-.07-.38l2.09.38ZM10.77,6.78c-.06.08-.11.16-.16.22-.07.09-.13.16-.21.22-.01.01-.03.02-.04.03-.24.18-.46.3-.67.37l-.44-.08c.05-.02.1-.03.15-.05l.11-.04c.09-.03.19-.07.31-.13.02,0,.04-.02.05-.02.02,0,.03-.02.05-.02.02,0,.03-.02.05-.02.03-.02.05-.03.08-.04.01,0,.03-.02.04-.02.03-.02.07-.04.1-.06.01-.01.03-.02.04-.03,0,0,.01,0,.02-.01.01,0,.02-.02.04-.03.01-.01.03-.02.05-.03.01,0,.02-.01.03-.02.07-.05.16-.12.27-.2.12-.09.24-.14.33-.17-.07.03-.14.08-.2.15ZM10.27,6.79c.12-.06.2-.11.27-.14.15-.08.18-.1.28-.12.06-.01.14,0,.22,0,0,0,.01,0,.02,0-.13.01-.29.07-.47.2-.15.11-.25.19-.34.25-.09.06-.16.11-.23.15-.01,0-.02.01-.03.02-.03.01-.05.03-.08.04-.02.01-.04.02-.06.03-.02.01-.04.02-.07.03-.17.07-.29.12-.41.17-.07.02-.14.04-.21.06l.35-.5.03-.04h0c.08,0,.38.02.72-.16ZM9.44,7l-.32.46c-.06-.12-.13-.22-.22-.32l.15-.15,1.28-1.29-.89,1.29ZM10.28,5.67l-1.43,1.43s-.03-.03-.05-.04c0,0,0,0,0,0s0,0,0,0c0,0,0,0,0,0-.02-.01-.03-.03-.05-.04,0,0,0,0,0,0s0,0,0,0c-.01-.01-.03-.02-.04-.03-.01,0-.03-.02-.04-.02,0,0,0,0,0,0h0s-.02-.01-.03-.02c0,0,0,0,0,0-.02-.01-.05-.02-.07-.04l.43-.3,1.32-.92ZM9.09,5.18c.04.24.07.4.05.57-.04.31-.11.58-.22.78l-.37.25c.08-.15.15-.3.24-.55.1-.27.12-.37.18-.79,0-.05.01-.11.02-.17,0-.03.01-.06.02-.08,0-.03.01-.05.02-.07h0s.01-.05.02-.07c0-.02.01-.03.02-.05,0,0,0,0,0-.01.01-.02.02-.05.03-.07,0,.02-.02.05-.02.07,0,0,0,.01,0,.02-.01.05-.01.1,0,.16ZM8.75,5.54c.04-.13.07-.22.09-.29.03-.09.04-.14.06-.19.01-.02.02-.04.04-.07,0-.01.01-.02.02-.03.04-.06.11-.12.18-.17-.04.05-.08.12-.11.2,0,.02-.01.04-.02.06,0,.02-.02.05-.02.07-.01.05-.02.1-.03.16-.01.06-.02.12-.02.17-.06.41-.08.51-.18.77-.1.27-.18.43-.27.6l-.12-.65c.06-.05.28-.25.4-.63ZM8.03,4.74l.05.26.33,1.83c-.09-.03-.19-.05-.29-.06-.03,0-.06,0-.09,0v-2.02ZM7.92,5l.05-.26v2.02c-.09,0-.19.02-.28.04-.03,0-.07.02-.1.03l.33-1.83ZM6.78,5.23c.2.14.33.23.44.37.19.25.33.49.4.71l-.08.44c-.05-.17-.11-.32-.21-.56-.14-.29-.19-.37-.51-.8,0,0-.01-.01-.02-.02-.09-.12-.14-.24-.17-.33,0,0,0,0,0,.01.03.07.07.13.15.18ZM6.79,5.73c-.06-.12-.11-.2-.14-.27-.08-.15-.1-.18-.12-.28,0-.03,0-.06,0-.09,0-.02,0-.03,0-.05,0-.01,0-.02,0-.04,0-.01,0-.03,0-.04,0,0,0-.01,0-.02,0,.02,0,.03,0,.05,0,0,0,.01,0,.01,0,.02,0,.03.01.04,0,.02,0,.03.01.05,0,.02.01.04.02.06,0,.02.02.04.03.06s.02.04.03.06c0,0,0,0,0,0,.01.01.02.03.03.05,0,0,.01.01.01.02.01.02.03.04.04.06,0,0,.01.01.02.02.32.43.37.5.51.79.12.26.17.43.23.62l-.54-.38s0-.04,0-.08c0-.13-.02-.37-.17-.65ZM7.46,6.88s-.06.03-.08.05c-.02.01-.04.03-.06.04h0s-.03.02-.04.03c0,0,0,0,0,0,0,0,0,0,0,0-.02.01-.03.02-.05.04t0,0h0s0,0,0,.01c-.02.01-.03.03-.05.04l-.1-.1-1.33-1.33,1.75,1.21ZM5.67,5.71l1.29,1.29.15.15c-.08.09-.15.18-.2.29,0,0,0,.02-.01.03l-.04-.06-.28-.4-.89-1.29ZM5.02,6.9s.1.01.16,0c.24-.04.4-.07.57-.05.04,0,.08.01.12.02.03,0,.05.01.08.01,0,0,0,0,0,0,.01,0,.02,0,.04,0h.04s.01,0,.02.01c.01,0,.02,0,.03,0,.03,0,.05.01.08.02,0,0,0,0,.01,0,0,0,.01,0,.02,0,.03.01.06.02.09.03.03.01.06.02.09.03h0c.06.02.11.05.16.07l.26.37c-.08-.04-.15-.08-.24-.12-.09-.04-.19-.08-.31-.13-.15-.06-.25-.09-.38-.12-.06-.01-.12-.02-.2-.04-.02,0-.03,0-.05,0-.01,0-.03,0-.04,0-.02,0-.05,0-.08-.01-.03,0-.07-.01-.11-.02-.03,0-.05,0-.08-.01-.15-.02-.27-.06-.36-.12.03.01.06.02.09.03ZM5.54,7.25c-.13-.04-.22-.07-.29-.09-.16-.05-.2-.06-.28-.12-.01,0-.03-.02-.04-.03,0,0-.01-.01-.02-.01-.03-.03-.06-.07-.09-.11,0-.01-.01-.02-.02-.03.01.01.03.02.04.03.01,0,.03.02.04.03.02.01.04.02.06.03.01,0,.03.01.05.02.02,0,.04.02.06.02h0s.03.01.05.02c.01,0,.03,0,.04.01.04,0,.08.02.13.02.56.08.64.09.94.2.27.1.42.18.6.27l-.65.12c-.05-.06-.25-.28-.63-.4ZM6.83,7.59c-.04.11-.06.21-.07.33,0,.02,0,.04,0,.05h-2.03l2.09-.38ZM4.74,8.03h2.03c0,.13.03.26.07.38l-.64-.12-1.46-.26ZM5.23,9.22s.02-.04.04-.05c.04-.06.08-.12.12-.17.03-.04.05-.07.09-.1.01-.02.03-.03.04-.04.03-.03.05-.05.08-.08.25-.19.49-.33.71-.4l.44.08-.15.05c-.12.04-.25.09-.41.17-.04.02-.08.04-.11.05-.02.01-.04.02-.06.03,0,0,0,0,0,0l-.07.04s-.04.02-.06.03-.04.02-.05.04c-.01,0-.02.01-.03.02,0,0,0,0-.01,0-.02.01-.03.02-.05.03-.03.02-.07.05-.11.08-.04.03-.08.06-.12.09-.01,0-.02.02-.04.03-.04.03-.07.06-.12.09-.13.09-.24.14-.34.17.07-.03.14-.08.2-.15ZM6.38,9.04c-.13,0-.37.02-.65.17-.12.06-.2.11-.26.14-.15.08-.18.1-.28.12-.07.01-.16,0-.24-.01.13-.01.29-.07.47-.2.06-.05.12-.09.17-.13.01-.01.02-.02.04-.03.01-.01.03-.02.04-.03,0,0,.02-.01.03-.02,0,0,.02-.01.03-.02,0,0,.02-.01.03-.02,0,0,.01,0,.01-.01.06-.04.11-.08.16-.11.01-.01.03-.02.04-.02.04-.03.09-.05.14-.07l.06-.03s.04-.02.07-.03c.16-.07.29-.12.41-.16.07-.02.14-.05.21-.07l-.35.5-.03.04s-.04,0-.07,0ZM6.46,9.14l.1-.14.32-.46c.05.12.13.22.22.32l-.15.15-1.29,1.29.79-1.15ZM5.72,10.33l1.33-1.33.1-.1s.05.04.07.06c.02.01.03.03.05.04t0,0s.03.02.04.03c.01,0,.02.02.04.02,0,0,0,0,0,0h0s.02.01.03.02c.02.01.05.03.07.04l-1.75,1.21ZM6.91,10.82c-.05-.24-.07-.4-.05-.57.04-.32.11-.58.22-.78l.37-.26c-.08.15-.15.3-.24.55-.08.22-.11.33-.15.58-.02.1-.03.22-.06.38,0,.02,0,.04-.01.07s0,.04-.02.07h0s0,.03-.01.04c0,.01,0,.02,0,.03-.01.03-.02.06-.03.08-.01.03-.02.05-.04.07.01-.02.02-.04.02-.07v-.02s.02-.1,0-.16ZM7.47,10.02c-.07.11-.16.25-.22.43-.04.13-.07.22-.09.29,0,.02,0,.03-.01.04,0,0,0,0,0,.01,0,.02-.01.03-.01.05,0,0,0,0,0,0,0,.01,0,.02-.01.03,0,.01,0,.02-.01.03-.01.03-.02.05-.04.08,0,.01-.01.02-.02.03-.03.04-.07.09-.13.13-.02.01-.03.03-.05.04.02-.03.04-.05.06-.09.01-.02.02-.03.03-.05.01-.02.02-.04.03-.06,0-.02.01-.04.02-.06,0-.02.02-.04.02-.07.01-.05.02-.1.03-.15.02-.16.04-.28.06-.38.04-.25.07-.35.15-.57.1-.27.18-.42.27-.6l.12.65s-.1.09-.18.19ZM7.97,11.27l-.05-.27-.33-1.83c.12.04.25.06.38.07v2.03ZM8.08,11l-.05.27v-2.03c.13,0,.26-.02.38-.07l-.33,1.83ZM9.22,10.77c-.2-.14-.33-.23-.44-.37-.19-.25-.33-.49-.4-.71l.08-.44c.03.08.05.16.08.25.03.08.07.18.12.28,0,0,0,.01,0,.02.14.3.19.37.53.82.09.12.15.23.17.33,0,0,0-.01,0-.01-.03-.07-.07-.13-.15-.18ZM9.21,10.27c.06.12.11.2.14.27.08.15.1.18.12.28,0,.03,0,.05,0,.09,0,.02,0,.04,0,.06h0s0,.03,0,.04c0,.01,0,.03,0,.04,0,0,0,.01,0,.02,0-.02,0-.03,0-.05,0,0,0,0,0-.01,0-.01,0-.03-.01-.04,0-.02-.01-.03-.01-.05,0-.02-.01-.04-.02-.06,0-.02-.02-.04-.03-.06,0-.02-.02-.04-.03-.06,0-.01-.01-.02-.02-.03,0,0,0,0,0,0,0,0,0,0,0,0,0,0,0,0,0,0,0,0-.01-.01-.02-.02,0,0,0,0,0,0-.01-.02-.02-.03-.04-.05-.34-.45-.39-.52-.52-.81,0,0,0-.02-.01-.02-.11-.25-.16-.41-.22-.59l.54.38c0,.08-.02.38.16.72ZM8.54,9.12s.05-.02.08-.04c0,0,.02-.01.03-.02h0s0,0,0,0c.01,0,.03-.02.04-.02.01-.01.03-.02.04-.03t0,0s.08-.06.12-.1l.1.1,1.33,1.33-1.75-1.21ZM10.33,10.29l-1.28-1.29-.15-.15c.08-.09.15-.18.21-.29,0-.01.01-.02.01-.03l.3.43.02.03.89,1.29ZM10.98,9.1c-.05-.01-.1-.01-.16,0-.24.04-.4.07-.57.05-.04,0-.08-.01-.12-.02-.03,0-.06-.01-.08-.01-.02,0-.04,0-.05-.01-.03,0-.05-.01-.08-.02-.03,0-.07-.02-.1-.03-.03,0-.05-.01-.08-.02h-.04s-.05-.03-.07-.04h0c-.06-.02-.11-.05-.16-.07l-.26-.37c.08.04.15.08.24.12.09.04.19.08.31.13.29.11.38.13.85.19h.02s.05.01.08.01c.15.02.27.06.36.12-.03-.01-.06-.02-.09-.03ZM11.16,9.11s-.03-.02-.04-.03c-.02-.01-.04-.02-.06-.03-.01,0-.03-.01-.04-.02,0,0-.01,0-.02,0l-.05-.02s0,0,0,0h0s-.04-.01-.06-.02c-.02,0-.04-.01-.06-.02-.03,0-.06-.01-.09-.02-.03,0-.07-.01-.1-.01-.47-.07-.56-.08-.84-.19-.27-.1-.42-.18-.6-.27l.65-.12c.05.06.25.28.63.4.13.04.22.07.29.09.16.05.2.06.28.12.02.01.03.03.05.04.01.01.02.02.03.03.02.02.03.03.05.05s.03.03.04.05c-.01-.01-.03-.02-.04-.03Z"/>
          <path class="cls-1" d="M8.62,8.54s0-.01,0-.02c0,0,0-.01-.01-.01,0-.01-.02-.02-.02-.03-.01,0-.02-.01-.03-.02,0,0-.02,0-.02-.01,0,0,0,0,0,0,0,0,0,0,0,0,0,0,0,.01.01.02,0,0,0,0,.01.01,0,0,0,0,.01.01s0,.01.01.01,0,0,.01.01c0,0,.01.02.02.03,0,0,.01.02.01.02,0,.02.01.03.01.03,0,0,0,0,0,0v-.02s0-.02-.01-.03Z"/>
          <path class="cls-1" d="M7.98,8.74h.03s.14,0,.21-.03c.1-.04.14-.1.25-.12,0,0-.02,0-.06,0-.05,0-.14.02-.22.06-.06.02-.15.02-.2.02s-.14,0-.2-.02c-.09-.04-.17-.05-.22-.06-.04,0-.06,0-.06,0,.11.02.16.08.25.12.07.03.17.03.21.03Z"/>
          <path class="cls-1" d="M8.8,7.71s-.15-.14-.29-.15c-.14-.01-.2.02-.26.07-.05.05-.04.08-.04.08,0,0,.08-.07.12-.08h0s.01.08.02.1c.01.02.06.09.13.1-.05,0-.09,0-.13-.03-.02-.01-.05-.03-.06-.05,0,0,0,0-.02-.01,0,0-.01,0-.02,0s0,0,0,0c0,0,0,.01,0,.02,0,.01.02.03.04.03.03.02.06.03.09.04.08.02.16.01.24-.03.12-.07.1-.09.09-.08,0,0-.01,0-.03.02,0-.02,0-.03,0-.05,0,0,0-.02,0-.02,0,0,0-.02,0-.02.02,0,.04.02.05.03.02.01.03.02.05.03,0,0,.02.01.03.01,0,0,0,0,0,0ZM8.67,7.76s-.08.04-.13.06c0,0,0,0,0,0,.07-.04.05-.16.04-.2,0,0,0,0,0,0,.02,0,.04.02.07.03.01.03,0,.09,0,.11Z"/>
          <path class="cls-1" d="M8.15,7.58s.06-.04.08-.06c.09-.06.21-.08.32-.07.05,0,.11.02.16.03.03.01.05.02.08.03.02.01.05.03.07.03.01,0,.03-.01.02-.03t0,0s-.01,0-.02-.01c-.04-.02-.07-.04-.11-.06-.11-.05-.22-.11-.34-.07-.09.03-.18.1-.25.17-.01.01-.04.04-.01.05Z"/>
          <path class="cls-1" d="M7.84,8.55c.06,0,.13,0,.15.01,0,0,.02,0,.02,0,.03,0,.09-.01.15-.01.06,0,.07.02.25,0,.03,0,.06,0,.1-.01,0,0-.15-.02-.26-.06-.07-.02-.14-.03-.21-.01h-.03s-.02,0-.03,0h-.03c-.07-.02-.14-.02-.21,0-.11.04-.26.06-.26.06.04,0,.07,0,.1.01.18.02.19,0,.25,0Z"/>
          <path class="cls-1" d="M8.11,8.87s.01,0,.01,0c0,0,0,0,0,0,0,0-.02,0-.03-.01,0,0-.01,0-.02,0,0,0-.01,0-.02,0-.01,0-.03,0-.05,0h-.02s-.01,0-.02,0c-.01,0-.03,0-.04,0-.02,0-.04.02-.04.02,0,0,.02,0,.04,0,0,0,.02,0,.04,0s.03,0,.04,0c.03,0,.06,0,.08,0,.01,0,.02,0,.03,0Z"/>
          <path class="cls-1" d="M7.82,8.08s-.08.02-.1.15c-.03.01-.06.02-.08.04-.02.02-.05.04-.07.06,0,0,.02,0,.02-.01,0,0,.01,0,.02-.01.01,0,.03-.01.04-.02.03-.01.07-.02.11-.03.03,0,.07,0,.1,0,0,0,.05.06.14.06s.14-.06.14-.06c.03,0,.07-.01.1,0,.04,0,.07.01.11.03.01,0,.03.01.04.02,0,0,.01,0,.02.01,0,0,.02,0,.02.01-.02-.02-.04-.04-.07-.06-.03-.02-.06-.03-.08-.04-.02-.13-.1-.15-.1-.15.12.18-.05.14-.07.12,0,.06-.06.07-.09.07h-.02s-.1,0-.1-.07c-.02.02-.19.06-.07-.12Z"/>
          <path class="cls-1" d="M7.45,8.47s-.02.01-.03.02c0,0-.02.02-.02.03,0,0,0,.01-.01.01,0,0,0,.01,0,.02,0,.01,0,.02-.01.03,0,0,0,.02,0,.02s0,0,0,0c0,0,0-.01.01-.03,0,0,0-.02.01-.02,0-.01.01-.02.02-.03,0,0,0,0,.01-.01s0-.01.01-.01,0,0,.01-.01c0,0,0,0,0-.01,0,0,.01-.01.01-.02h0s0,0,0,0c0,0-.01,0-.02.01Z"/>
          <path class="cls-1" d="M7.64,7.73s.03-.07.02-.1h0s.12.08.12.08c0,0,.02-.04-.04-.08-.05-.04-.12-.08-.26-.07-.14.01-.28.14-.29.15,0,0,0,0,0,0,0,0,.02,0,.03-.01.02,0,.03-.02.05-.03.02,0,.04-.02.06-.03,0,0,0,.02,0,.02,0,0,0,.02,0,.02,0,.02,0,.04,0,.05-.02-.01-.03-.02-.03-.02-.01-.01-.03.01.09.08.07.04.16.05.24.03.03,0,.07-.02.09-.04.01,0,.03-.02.04-.03,0,0,0-.01,0-.02,0,0,0,0,0,0s-.01,0-.02,0c0,0-.01,0-.02.01-.02.02-.04.03-.06.05-.04.02-.08.03-.13.03.06-.01.11-.08.12-.1ZM7.33,7.76s0-.07,0-.11c.03-.01.06-.03.07-.03,0,0,0,0,.01,0-.01.04-.04.15.04.2,0,0,0,0,0,0-.05-.01-.1-.04-.13-.06Z"/>
          <path class="cls-1" d="M7.28,7.49c.05-.02.11-.03.16-.03.11-.01.22.01.32.07.02.01.06.06.08.06.03,0,0-.04-.01-.05-.07-.07-.16-.14-.25-.17-.12-.04-.23.02-.34.07-.04.02-.07.04-.11.06,0,0-.01,0-.02.01,0,0,0,0,0,0-.01.02,0,.03.02.03.03,0,.05-.02.07-.03.03-.01.05-.02.08-.03Z"/>
        </g>
      </g>
    </g>
  </g>
</svg>