<?xml version="1.0" encoding="UTF-8"?>
<svg id="Layer_1" data-name="Layer 1" xmlns="http://www.w3.org/2000/svg" viewBox="0 0 24 24">
  <defs>
    <style>
      .cls-1 {
        fill: #000;
      }

      .cls-1, .cls-2, .cls-3, .cls-4, .cls-5 {
        stroke-width: 0px;
      }

      .cls-2 {
        fill: #b12233;
      }

      .cls-3 {
        fill: none;
      }

      .cls-4 {
        fill: #3c3b6d;
      }

      .cls-5 {
        fill: #fff;
      }
    </style>
  </defs>
  <rect class="cls-3" width="24" height="24"/>
  <g>
    <path class="cls-1" d="M16.71,7.34c2.92,2.92,3.18,7.42.57,10.03-2.61,2.61-7.11,2.35-10.03-.57s-3.18-7.42-.57-10.03c2.61-2.61,7.11-2.35,10.03.57Z"/>
    <g>
      <g>
        <path class="cls-5" d="M20.31,15.46c-.2.48-.45.95-.73,1.38H4.42c-.28-.44-.53-.9-.73-1.38h16.61Z"/>
        <path class="cls-2" d="M20.76,14.08c-.11.48-.26.94-.45,1.39H3.69c-.19-.44-.34-.91-.45-1.39h17.52Z"/>
        <path class="cls-5" d="M20.97,12.69c-.04.47-.11.93-.22,1.39H3.24c-.11-.45-.18-.91-.22-1.39h17.95Z"/>
        <path class="cls-2" d="M19.58,16.85c-.32.5-.68.96-1.09,1.39H5.51c-.41-.42-.77-.89-1.09-1.39h15.16Z"/>
        <path class="cls-2" d="M16.79,19.62c-1.39.88-3.03,1.39-4.79,1.39s-3.4-.51-4.79-1.39h9.58Z"/>
        <path class="cls-5" d="M18.49,18.23c-.5.53-1.07.99-1.7,1.39H7.21c-.62-.39-1.19-.86-1.7-1.39h12.98Z"/>
        <path class="cls-5" d="M18.49,5.77H5.51c.51-.53,1.08-.99,1.7-1.39h9.58c.62.39,1.19.86,1.7,1.39Z"/>
        <path class="cls-2" d="M16.79,4.38H7.21c.28-.18.58-.35.89-.49.03-.01.06-.03.09-.04.1-.05.21-.09.32-.14.05-.02.1-.04.14-.06,1.04-.42,2.17-.65,3.36-.65h0c1.76,0,3.4.51,4.79,1.39Z"/>
        <path class="cls-2" d="M19.58,7.15H4.42c.08-.12.16-.25.25-.37,0-.01.01-.02.02-.03.25-.35.53-.68.82-.99h12.98c.41.42.78.89,1.09,1.38Z"/>
        <path class="cls-2" d="M20.76,9.92H3.24c.11-.48.26-.94.45-1.39h16.61c.19.45.34.91.45,1.39Z"/>
        <path class="cls-5" d="M20.31,8.54H3.69c.04-.09.07-.18.12-.27.1-.21.2-.42.31-.62.09-.17.19-.33.29-.49h15.16c.28.44.53.9.73,1.39Z"/>
        <path class="cls-5" d="M20.97,11.31H3.03c0-.06.01-.12.02-.17.01-.17.04-.34.06-.5.04-.24.08-.48.14-.71h17.52c.11.45.18.91.22,1.39Z"/>
        <path class="cls-2" d="M21,12c0,.23,0,.46-.03.69H3.03c-.02-.23-.03-.46-.03-.69s0-.46.03-.69h17.95c.02.23.03.46.03.69Z"/>
      </g>
      <g>
        <path class="cls-4" d="M12,3v9.69H3.03c-.02-.23-.03-.46-.03-.69s0-.46.03-.69c0-.06.01-.12.02-.17.01-.17.04-.34.06-.5.04-.24.08-.48.14-.71.11-.48.26-.94.45-1.39.04-.09.07-.18.12-.27.1-.21.2-.42.31-.62.09-.17.19-.33.29-.49.08-.12.16-.25.25-.37,0-.01.01-.02.02-.03.25-.35.53-.68.82-.99.51-.53,1.08-.99,1.7-1.39.28-.18.58-.35.89-.49.03-.01.06-.03.09-.04.1-.05.21-.09.32-.14.05-.02.1-.04.14-.06,1.04-.42,2.17-.65,3.36-.65Z"/>
        <g>
          <g>
            <polygon class="cls-5" points="10.86 3.46 10.99 3.85 11.4 3.85 11.07 4.09 11.19 4.48 10.86 4.24 10.53 4.48 10.66 4.09 10.32 3.85 10.73 3.85 10.86 3.46"/>
            <path class="cls-5" d="M8.88,4.38l.03.1-.13-.1-.2-.15-.2.15-.13.1.03-.1.09-.29-.28-.2s.06-.03.09-.04h.27l.05-.14s.1-.04.14-.06l.07.2h.41l-.33.24.09.29Z"/>
          </g>
          <g>
            <polygon class="cls-5" points="10.86 5.4 10.99 5.79 11.4 5.79 11.07 6.03 11.19 6.42 10.86 6.18 10.53 6.42 10.66 6.03 10.32 5.79 10.73 5.79 10.86 5.4"/>
            <polygon class="cls-5" points="8.58 5.4 8.71 5.79 9.12 5.79 8.79 6.03 8.91 6.42 8.58 6.18 8.25 6.42 8.38 6.03 8.04 5.79 8.45 5.79 8.58 5.4"/>
            <polygon class="cls-5" points="6.3 5.4 6.43 5.79 6.84 5.79 6.51 6.03 6.63 6.42 6.3 6.18 5.97 6.42 6.1 6.03 5.77 5.79 6.18 5.79 6.3 5.4"/>
          </g>
          <g>
            <polygon class="cls-5" points="10.86 7.34 10.99 7.73 11.4 7.73 11.07 7.97 11.19 8.36 10.86 8.12 10.53 8.36 10.66 7.97 10.32 7.73 10.73 7.73 10.86 7.34"/>
            <polygon class="cls-5" points="8.58 7.34 8.71 7.73 9.12 7.73 8.79 7.97 8.91 8.36 8.58 8.12 8.25 8.36 8.38 7.97 8.04 7.73 8.45 7.73 8.58 7.34"/>
            <polygon class="cls-5" points="6.3 7.34 6.43 7.73 6.84 7.73 6.51 7.97 6.63 8.36 6.3 8.12 5.97 8.36 6.1 7.97 5.77 7.73 6.18 7.73 6.3 7.34"/>
            <path class="cls-5" d="M4.23,7.97l.13.39-.33-.24-.21.16c.1-.21.2-.42.31-.62l.03.08h.41l-.33.24Z"/>
          </g>
          <g>
            <polygon class="cls-5" points="10.86 9.27 10.99 9.66 11.4 9.66 11.07 9.9 11.19 10.29 10.86 10.05 10.53 10.29 10.66 9.9 10.32 9.66 10.73 9.66 10.86 9.27"/>
            <polygon class="cls-5" points="8.58 9.27 8.71 9.66 9.12 9.66 8.79 9.9 8.91 10.29 8.58 10.05 8.25 10.29 8.38 9.9 8.04 9.66 8.45 9.66 8.58 9.27"/>
            <polygon class="cls-5" points="6.3 9.27 6.43 9.66 6.84 9.66 6.51 9.9 6.63 10.29 6.3 10.05 5.97 10.29 6.1 9.9 5.77 9.66 6.18 9.66 6.3 9.27"/>
            <polygon class="cls-5" points="4.02 9.27 4.15 9.66 4.56 9.66 4.23 9.9 4.36 10.29 4.02 10.05 3.69 10.29 3.82 9.9 3.49 9.66 3.9 9.66 4.02 9.27"/>
          </g>
          <g>
            <polygon class="cls-5" points="10.86 11.21 10.99 11.6 11.4 11.6 11.07 11.84 11.19 12.23 10.86 11.99 10.53 12.23 10.66 11.84 10.32 11.6 10.73 11.6 10.86 11.21"/>
            <polygon class="cls-5" points="8.58 11.21 8.71 11.6 9.12 11.6 8.79 11.84 8.91 12.23 8.58 11.99 8.25 12.23 8.38 11.84 8.04 11.6 8.45 11.6 8.58 11.21"/>
            <polygon class="cls-5" points="6.3 11.21 6.43 11.6 6.84 11.6 6.51 11.84 6.63 12.23 6.3 11.99 5.97 12.23 6.1 11.84 5.77 11.6 6.18 11.6 6.3 11.21"/>
            <polygon class="cls-5" points="4.02 11.21 4.15 11.6 4.56 11.6 4.23 11.84 4.36 12.23 4.02 11.99 3.69 12.23 3.82 11.84 3.49 11.6 3.9 11.6 4.02 11.21"/>
          </g>
          <g>
            <polygon class="cls-5" points="9.72 10.24 9.85 10.63 10.26 10.63 9.93 10.87 10.05 11.26 9.72 11.02 9.39 11.26 9.52 10.87 9.19 10.63 9.6 10.63 9.72 10.24"/>
            <polygon class="cls-5" points="7.44 10.24 7.57 10.63 7.98 10.63 7.65 10.87 7.77 11.26 7.44 11.02 7.11 11.26 7.24 10.87 6.91 10.63 7.32 10.63 7.44 10.24"/>
            <polygon class="cls-5" points="5.16 10.24 5.29 10.63 5.7 10.63 5.37 10.87 5.49 11.26 5.16 11.02 4.83 11.26 4.96 10.87 4.63 10.63 5.04 10.63 5.16 10.24"/>
            <path class="cls-5" d="M3.09,10.87l.13.39-.17-.13c.01-.17.04-.34.06-.5h.32l-.33.24Z"/>
          </g>
          <g>
            <polygon class="cls-5" points="9.72 8.31 9.85 8.7 10.26 8.7 9.93 8.94 10.05 9.33 9.72 9.08 9.39 9.33 9.52 8.94 9.19 8.7 9.6 8.7 9.72 8.31"/>
            <polygon class="cls-5" points="7.44 8.31 7.57 8.7 7.98 8.7 7.65 8.94 7.77 9.33 7.44 9.08 7.11 9.33 7.24 8.94 6.91 8.7 7.32 8.7 7.44 8.31"/>
            <polygon class="cls-5" points="5.16 8.31 5.29 8.7 5.7 8.7 5.37 8.94 5.49 9.33 5.16 9.08 4.83 9.33 4.96 8.94 4.63 8.7 5.04 8.7 5.16 8.31"/>
          </g>
          <g>
            <polygon class="cls-5" points="9.72 6.37 9.85 6.76 10.26 6.76 9.93 7 10.05 7.39 9.72 7.15 9.39 7.39 9.52 7 9.19 6.76 9.6 6.76 9.72 6.37"/>
            <polygon class="cls-5" points="7.44 6.37 7.57 6.76 7.98 6.76 7.65 7 7.77 7.39 7.44 7.15 7.11 7.39 7.24 7 6.91 6.76 7.32 6.76 7.44 6.37"/>
            <path class="cls-5" d="M5.42,7.15l.08.23-.32-.23h0s-.01,0-.01,0l-.32.23.08-.23.05-.16-.29-.21s.01-.02.02-.03h.35l.13-.39.13.39h.41l-.33.24.05.16Z"/>
          </g>
          <g>
            <polygon class="cls-5" points="9.72 4.43 9.85 4.82 10.26 4.82 9.93 5.06 10.05 5.45 9.72 5.21 9.39 5.45 9.52 5.06 9.19 4.82 9.6 4.82 9.72 4.43"/>
            <polygon class="cls-5" points="7.44 4.43 7.57 4.82 7.98 4.82 7.65 5.06 7.77 5.45 7.44 5.21 7.11 5.45 7.24 5.06 6.91 4.82 7.32 4.82 7.44 4.43"/>
          </g>
        </g>
      </g>
    </g>
  </g>
</svg>