<?xml version="1.0" encoding="UTF-8"?>
<svg id="Layer_1" data-name="Layer 1" xmlns="http://www.w3.org/2000/svg" viewBox="0 0 24 24">
  <defs>
    <style>
      .cls-1 {
        fill: #000;
      }

      .cls-1, .cls-2, .cls-3, .cls-4, .cls-5, .cls-6 {
        stroke-width: 0px;
      }

      .cls-2 {
        fill: #0398b4;
      }

      .cls-3 {
        fill: none;
      }

      .cls-4 {
        fill: #cd1225;
      }

      .cls-5 {
        fill: #19b43d;
      }

      .cls-6 {
        fill: #fff;
      }
    </style>
  </defs>
  <rect class="cls-3" width="24" height="24"/>
  <g>
    <path class="cls-1" d="M16.71,7.34c2.92,2.92,3.18,7.42.57,10.03-2.61,2.61-7.11,2.36-10.03-.57-2.92-2.92-3.18-7.42-.57-10.03,2.61-2.61,7.11-2.36,10.03.57Z"/>
    <g>
      <g>
        <path class="cls-2" d="M20.39,8.75H3.61c1.31-3.36,4.58-5.75,8.39-5.75s7.09,2.39,8.39,5.75Z"/>
        <path class="cls-5" d="M20.39,15.24c-1.31,3.36-4.57,5.76-8.39,5.76s-7.09-2.39-8.39-5.76h16.79Z"/>
        <path class="cls-6" d="M21,12c0,.96-.15,1.89-.43,2.76H3.43c-.28-.87-.43-1.79-.43-2.76s.15-1.88.43-2.75h17.14c.28.87.43,1.79.43,2.75Z"/>
        <path class="cls-4" d="M20.57,9.24H3.43c.05-.17.11-.33.17-.49h16.79c.06.16.12.33.17.49Z"/>
        <path class="cls-4" d="M20.57,14.75c-.05.17-.11.33-.17.49H3.61c-.06-.16-.12-.33-.17-.49h17.14Z"/>
      </g>
      <g>
        <path class="cls-6" d="M9.84,8.19c-1,0-1.82-.81-1.82-1.82s.81-1.82,1.82-1.82c.01,0,.03,0,.04,0-.2-.07-.41-.11-.63-.11-1.06,0-1.92.86-1.92,1.92s.86,1.92,1.92,1.92c.22,0,.43-.04.63-.11-.01,0-.03,0-.04,0Z"/>
        <polygon class="cls-6" points="13.31 7.44 13.4 7.72 13.7 7.72 13.46 7.89 13.55 8.17 13.31 8 13.07 8.17 13.16 7.89 12.92 7.72 13.22 7.72 13.31 7.44"/>
        <polygon class="cls-6" points="11.82 7.44 11.91 7.72 12.21 7.72 11.97 7.89 12.06 8.17 11.82 8 11.58 8.17 11.67 7.89 11.43 7.72 11.73 7.72 11.82 7.44"/>
        <polygon class="cls-6" points="10.34 7.44 10.43 7.72 10.72 7.72 10.48 7.89 10.58 8.17 10.34 8 10.1 8.17 10.19 7.89 9.95 7.72 10.24 7.72 10.34 7.44"/>
        <polygon class="cls-6" points="14.8 7.44 14.89 7.72 15.18 7.72 14.94 7.89 15.03 8.17 14.8 8 14.56 8.17 14.65 7.89 14.41 7.72 14.7 7.72 14.8 7.44"/>
        <polygon class="cls-6" points="16.28 7.44 16.37 7.72 16.67 7.72 16.43 7.89 16.52 8.17 16.28 8 16.04 8.17 16.13 7.89 15.89 7.72 16.19 7.72 16.28 7.44"/>
        <polygon class="cls-6" points="13.31 5.94 13.4 6.23 13.7 6.23 13.46 6.4 13.55 6.68 13.31 6.51 13.07 6.68 13.16 6.4 12.92 6.23 13.22 6.23 13.31 5.94"/>
        <polygon class="cls-6" points="11.82 5.94 11.91 6.23 12.21 6.23 11.97 6.4 12.06 6.68 11.82 6.51 11.58 6.68 11.67 6.4 11.43 6.23 11.73 6.23 11.82 5.94"/>
        <polygon class="cls-6" points="14.8 5.94 14.89 6.23 15.18 6.23 14.94 6.4 15.03 6.68 14.8 6.51 14.56 6.68 14.65 6.4 14.41 6.23 14.7 6.23 14.8 5.94"/>
        <polygon class="cls-6" points="16.28 5.94 16.37 6.23 16.67 6.23 16.43 6.4 16.52 6.68 16.28 6.51 16.04 6.68 16.13 6.4 15.89 6.23 16.19 6.23 16.28 5.94"/>
        <polygon class="cls-6" points="13.31 4.45 13.4 4.73 13.7 4.73 13.46 4.91 13.55 5.19 13.31 5.01 13.07 5.19 13.16 4.91 12.92 4.73 13.22 4.73 13.31 4.45"/>
        <polygon class="cls-6" points="14.8 4.45 14.89 4.73 15.18 4.73 14.94 4.91 15.03 5.19 14.8 5.01 14.56 5.19 14.65 4.91 14.41 4.73 14.7 4.73 14.8 4.45"/>
        <polygon class="cls-6" points="16.28 4.45 16.37 4.73 16.67 4.73 16.43 4.91 16.52 5.19 16.28 5.01 16.04 5.19 16.13 4.91 15.89 4.73 16.19 4.73 16.28 4.45"/>
      </g>
    </g>
  </g>
</svg>