<?xml version="1.0" encoding="UTF-8"?>
<svg id="Layer_1" data-name="Layer 1" xmlns="http://www.w3.org/2000/svg" viewBox="0 0 24 24">
  <defs>
    <style>
      .cls-1 {
        fill: #000;
      }

      .cls-1, .cls-2, .cls-3, .cls-4, .cls-5, .cls-6 {
        stroke-width: 0px;
      }

      .cls-2 {
        fill: #d11133;
      }

      .cls-3 {
        fill: none;
      }

      .cls-4 {
        fill: #fff;
      }

      .cls-5 {
        fill: #009444;
      }

      .cls-6 {
        fill: #fccd1f;
      }
    </style>
  </defs>
  <rect class="cls-3" width="24" height="24"/>
  <g>
    <path class="cls-1" d="M16.71,7.34c2.92,2.92,3.18,7.42.57,10.03-2.61,2.61-7.11,2.36-10.03-.57-2.92-2.92-3.18-7.42-.57-10.03,2.61-2.61,7.11-2.36,10.03.57Z"/>
    <g>
      <g>
        <path class="cls-4" d="M13.65,12l-9.28,4.78c-.06-.09-.11-.18-.17-.28-.77-1.32-1.21-2.86-1.21-4.5s.44-3.18,1.21-4.5c.05-.09.11-.19.17-.28l9.28,4.78Z"/>
        <path class="cls-5" d="M20.85,13.62c-.19,1.03-.55,2-1.06,2.87-1.56,2.69-4.47,4.5-7.79,4.5-2.43,0-4.65-.97-6.27-2.55l9.37-4.83h5.75Z"/>
        <path class="cls-2" d="M20.85,10.38h-5.75L5.73,5.55c1.62-1.58,3.83-2.55,6.27-2.55,3.32,0,6.23,1.81,7.79,4.5.51.87.87,1.84,1.06,2.87Z"/>
        <path class="cls-4" d="M13.65,12l-9.28,4.78c-.06-.09-.11-.18-.17-.28-.77-1.32-1.21-2.86-1.21-4.5s.44-3.18,1.21-4.5c.05-.09.11-.19.17-.28l9.28,4.78Z"/>
        <path class="cls-1" d="M14.82,12.48h6.16c-.02.39-.07.77-.14,1.15h-5.75l-9.37,4.83c-.28-.28-.55-.57-.8-.88l9.4-4.84.49-.25Z"/>
        <path class="cls-1" d="M14.33,11.27L4.94,6.43c.24-.31.51-.61.8-.88l9.37,4.83h5.75c.07.37.12.76.14,1.15h-6.16l-.49-.25Z"/>
        <path class="cls-6" d="M21,12c0,.16,0,.32-.01.48h-6.16l-.49.25-9.4,4.84c-.2-.25-.39-.52-.56-.79l9.28-4.78L4.37,7.22c.17-.27.36-.54.56-.79l9.4,4.84.49.25h6.16c0,.16.01.32.01.48Z"/>
        <path class="cls-4" d="M13.65,12l-9.28,4.78c-.06-.09-.11-.18-.17-.28-.77-1.32-1.21-2.86-1.21-4.5s.44-3.18,1.21-4.5c.05-.09.11-.19.17-.28l9.28,4.78Z"/>
        <path class="cls-1" d="M13.65,12l-9.28,4.78c-.06-.09-.11-.18-.17-.28-.77-1.32-1.21-2.86-1.21-4.5s.44-3.18,1.21-4.5c.05-.09.11-.19.17-.28l9.28,4.78Z"/>
      </g>
      <g>
        <path class="cls-6" d="M6.02,13.73v1.03s.66-.12.7-.13c.48-.15.93-.42,1.26-.8.73-.83.89-2.09.47-3.1-.25-.6-.75-1.06-1.35-1.31-.53-.22-1.12-.22-1.66-.03-.66.24-1.23.77-1.43,1.45s-.03,1.47.48,1.98c.07.08.16.15.24.21.74.53,2.07.54,2.52-.38.09-.19.16-.4.16-.61,0-.33,0-.23,0-.23,0,.25-.18.54-.34.71-.29.29-.74.51-1.16.44-.43-.07-1.09-.31-1.26-1.02-.18-.71.26-1.53.95-1.78.61-.22,1.34,0,1.75.49.01.01.02.03.03.04.25.32.38.73.38,1.13,0,.92-.73,1.78-1.65,1.89-.03,0-.06,0-.09.01Z"/>
        <g>
          <path class="cls-6" d="M7.05,12.39s-.05-.07-.12-.19c0,0,0-.01,0-.01.04-.09.05-.18.04-.27,0-.03,0-.06-.03-.08-.04-.04-.06.03-.07.06-.01.07-.01.14-.01.21h0s-.03-.04-.05-.06c0,0,0-.01,0-.01.04-.08.05-.18.04-.27,0-.03,0-.06-.03-.08-.04-.04-.06.03-.07.06-.01.07-.01.14-.01.21,0,0,0,0,0,0-.01-.02-.03-.04-.04-.06,0,0,0-.02,0-.02.02-.08.03-.17,0-.25,0-.02-.01-.05-.03-.07-.04-.03-.05.03-.06.06,0,.07,0,.13.01.19h0s0,0,0,0c-.02-.03-.04-.06-.07-.08,0,0,0-.01,0-.02.02-.08.03-.17,0-.25,0-.02-.01-.05-.03-.07-.04-.03-.05.03-.06.06,0,.07,0,.13.01.2h0s-.05-.06-.07-.08c.02-.08.02-.15,0-.23,0-.02-.01-.05-.03-.06-.04-.03-.05.03-.05.05,0,.06,0,.11.01.16-.02-.02-.03-.03-.05-.05,0,0-.02-.02-.03-.02.02-.07.02-.14,0-.22,0-.02-.01-.05-.03-.06-.04-.03-.05.03-.05.05,0,.05,0,.1,0,.15h0s-.07-.06-.1-.09c.01-.07.02-.13,0-.2,0-.02-.01-.05-.03-.06-.03-.03-.05.03-.05.05,0,.05,0,.1.01.15-.02-.01-.03-.02-.04-.04,0,0,0-.01,0-.01,0-.07,0-.14-.03-.21-.01-.02-.02-.04-.04-.05-.04-.02-.04.04-.04.06,0,.06.03.11.04.16,0,0,0,0,0,0-.03-.02-.05-.04-.08-.06,0-.07,0-.14-.03-.21,0-.02-.02-.04-.04-.05-.04-.02-.04.03-.04.06,0,.05.02.1.04.15-.02-.01-.04-.03-.06-.04,0,0,0-.01,0-.01,0-.06-.01-.13-.04-.18-.01-.02-.02-.04-.04-.04-.03-.01-.03.03-.03.05,0,.05.03.09.05.14,0,0,0,0,0,0-.03-.02-.06-.04-.09-.06h0c0-.08-.02-.14-.05-.19,0-.01-.02-.03-.04-.04-.03-.01-.03.03-.03.05,0,.03.02.06.03.08-.03-.03-.09-.08-.13-.11-.05-.04-.09-.04-.08,0,0,.04.05.07.07.1.02.02.05.04.08.06,0,0,.01,0,.02.01-.04,0-.1,0-.13-.01-.06,0-.09.02-.07.04.03.02.08.03.12.03.03,0,.07,0,.1,0,.02,0,.03,0,.05,0,0,0,.02,0,.03,0,.02.02.04.03.08.05,0,0,0,0,.01.01-.04,0-.1-.01-.14-.02-.06,0-.09.01-.06.04s.07.03.11.04c.03,0,.06,0,.09,0,.02,0,.03,0,.05,0,0,0,.02,0,.03,0,.02.01.03.02.05.04-.04,0-.1-.01-.13-.02-.07,0-.1.02-.07.05s.08.04.12.04c.03,0,.07,0,.1,0,.02,0,.04,0,.05,0h0s.04.03.06.05c-.04,0-.09-.01-.13-.02-.06-.01-.1.02-.07.05.03.03.08.03.12.04.03,0,.07,0,.1,0,.02,0,.03,0,.05,0,.03.02.05.05.08.07-.02,0-.04-.02-.06-.02-.07-.03-.11,0-.09.03.02.04.08.06.12.08.03.02.07.03.11.03.02,0,.03,0,.05,0,.02.02.04.04.06.06-.03-.01-.06-.02-.08-.03-.07-.03-.11-.01-.09.03.02.04.08.06.12.08.03.02.07.03.11.03.02,0,.04,0,.06,0,0,0,.02.02.03.02.02.02.04.04.06.07-.05-.02-.11-.04-.14-.06-.07-.03-.11-.01-.09.03.02.04.08.06.12.08.03.02.07.03.11.04.02,0,.04,0,.06.01h.02s.04.05.06.08c-.04-.02-.09-.04-.13-.05-.06-.03-.11-.01-.09.03.02.04.08.06.12.08.03.02.07.03.11.04.02,0,.04,0,.06.01.02.02.03.05.05.07-.05-.02-.13-.05-.17-.07-.07-.03-.11-.01-.09.03.02.04.08.06.12.08.03.02.07.03.11.04.02,0,.04,0,.06.01h.03s.02.04.03.05c-.05-.02-.13-.05-.17-.07-.07-.03-.11-.01-.09.03.02.04.08.06.12.08.03.02.07.03.11.03.02,0,.04,0,.06.01,0,0,.01,0,.02,0,.06.1.1.18.1.18l.08-.05Z"/>
          <path class="cls-6" d="M5.2,12.39s.05-.07.12-.19c0,0,0-.01,0-.01-.04-.09-.05-.18-.04-.27,0-.03,0-.06.03-.08.04-.04.06.03.07.06.01.07.01.14.01.21,0,0,0,0,0,0,.01-.02.03-.04.04-.06,0,0,0-.01,0-.01-.04-.08-.05-.18-.04-.27,0-.03,0-.06.03-.08.04-.04.06.03.07.06.01.07.01.14.01.21,0,0,0,0,0,0,.01-.02.03-.04.04-.06,0,0,0-.02,0-.02-.02-.08-.03-.17,0-.25,0-.02.01-.05.03-.07.04-.03.05.03.06.06,0,.07,0,.13-.01.19h0s0,0,0,0c.02-.03.04-.06.07-.08,0,0,0-.01,0-.02-.02-.08-.03-.17,0-.25,0-.02.01-.05.03-.07.04-.03.05.03.06.06,0,.07,0,.13-.01.2h0s.05-.06.07-.08c-.02-.08-.02-.15,0-.23,0-.02.01-.05.03-.06.04-.03.05.03.05.05,0,.06,0,.11-.01.16.02-.02.03-.03.05-.05,0,0,.02-.02.03-.02-.02-.07-.02-.14,0-.22,0-.02.01-.05.03-.06.04-.03.05.03.05.05,0,.05,0,.1,0,.15h0s.06-.06.1-.09c-.02-.07-.02-.13,0-.2,0-.02.01-.05.03-.06.03-.03.04.03.05.05,0,.05,0,.1-.01.15.02-.01.03-.02.04-.04,0,0,0-.01,0-.01,0-.07,0-.14.03-.21.01-.02.02-.04.04-.05.04-.02.04.04.04.06,0,.06-.03.11-.04.16,0,0,0,0,0,0,.03-.02.05-.04.08-.06,0-.07,0-.14.03-.21.01-.02.02-.04.04-.05.04-.02.04.03.04.06,0,.05-.02.1-.04.15.02-.01.04-.03.06-.04,0,0,0-.01,0-.01,0-.06.01-.13.04-.18,0-.02.02-.04.04-.04.03-.01.03.03.03.05,0,.05-.03.09-.05.14h0s.06-.04.09-.05h0c0-.08.02-.14.05-.19,0-.01.02-.03.04-.04.03-.01.03.03.03.05,0,.03-.02.06-.03.08.03-.03.09-.08.13-.11.05-.04.09-.04.08,0,0,.04-.05.07-.07.1-.02.02-.05.04-.08.06,0,0-.01,0-.02.01.04,0,.1,0,.13-.01.06,0,.09.02.07.04-.03.02-.08.03-.12.03-.03,0-.07,0-.1,0-.02,0-.03,0-.05,0,0,0-.02,0-.03,0-.02.02-.04.03-.08.05,0,0,0,0-.01.01.04,0,.1-.01.14-.02.06,0,.09.01.06.04-.02.03-.07.03-.11.04-.03,0-.06,0-.09,0-.02,0-.03,0-.05,0,0,0-.02,0-.03,0-.02.01-.03.02-.05.04.04,0,.1-.01.13-.02.06,0,.1.02.07.05-.03.03-.09.04-.12.04-.03,0-.07,0-.1,0-.02,0-.04,0-.05,0h0s-.04.03-.06.05c.04,0,.09-.01.13-.02.06-.01.1.02.07.05-.03.03-.08.03-.12.04-.03,0-.07,0-.1,0-.02,0-.03,0-.05,0-.03.02-.05.05-.08.07.02,0,.04-.02.06-.02.07-.03.11,0,.09.03-.02.04-.08.06-.12.08-.03.02-.07.03-.11.03-.01,0-.03,0-.05,0-.02.02-.04.04-.06.06.03-.01.06-.02.08-.03.07-.03.11-.01.09.03-.02.04-.08.06-.12.08-.03.02-.07.03-.11.03-.02,0-.04,0-.06,0,0,0-.02.02-.02.02-.02.02-.04.04-.06.07.04-.02.1-.04.14-.06.07-.03.11-.01.09.03-.02.04-.08.06-.12.08-.03.02-.07.03-.11.04-.02,0-.04,0-.06.01h-.02s-.04.05-.06.08c.04-.02.09-.04.13-.05.06-.03.11-.01.09.03-.02.04-.08.06-.12.08-.03.02-.07.03-.11.04-.02,0-.04,0-.06.01-.02.02-.03.05-.05.07.05-.02.13-.05.17-.07.07-.03.11-.01.09.03-.02.04-.08.06-.12.08-.03.02-.07.03-.11.04-.02,0-.04,0-.06.01h-.03s-.02.04-.03.05c.05-.02.13-.05.17-.07.07-.03.11-.01.09.03-.02.04-.08.06-.12.08-.03.02-.07.03-.11.03-.02,0-.04,0-.06.01,0,0-.01,0-.02,0-.06.1-.1.18-.1.18l-.08-.05Z"/>
        </g>
      </g>
    </g>
  </g>
</svg>