<?xml version="1.0" encoding="UTF-8"?>
<svg id="Layer_1" data-name="Layer 1" xmlns="http://www.w3.org/2000/svg" viewBox="0 0 24 24">
  <defs>
    <style>
      .cls-1 {
        fill: #000;
      }

      .cls-1, .cls-2, .cls-3, .cls-4, .cls-5, .cls-6 {
        stroke-width: 0px;
      }

      .cls-2 {
        fill: #fc0;
      }

      .cls-3 {
        fill: none;
      }

      .cls-4 {
        fill: #fff;
      }

      .cls-5 {
        fill: #cf142b;
      }

      .cls-6 {
        fill: #00247d;
      }
    </style>
  </defs>
  <rect class="cls-3" width="24" height="24"/>
  <g>
    <path class="cls-1" d="M16.71,7.34c2.92,2.92,3.18,7.42.57,10.03-2.61,2.61-7.11,2.36-10.03-.57-2.92-2.92-3.18-7.42-.57-10.03,2.61-2.61,7.11-2.36,10.03.57Z"/>
    <g>
      <g>
        <path class="cls-6" d="M21,12c0,1.05-.18,2.06-.52,3H3.52c-.33-.94-.52-1.95-.52-3s.18-2.06.52-3h16.97c.33.94.52,1.95.52,3Z"/>
        <path class="cls-5" d="M20.48,15c-1.24,3.49-4.57,6-8.48,6s-7.25-2.51-8.49-6h16.97Z"/>
        <path class="cls-2" d="M20.48,9H3.52c1.24-3.49,4.58-6,8.49-6s7.25,2.51,8.48,6Z"/>
      </g>
      <g>
        <polygon class="cls-4" points="11.12 10.62 10.73 11.01 10.79 10.47 10.3 10.22 10.84 10.11 10.92 9.57 11.19 10.04 11.73 9.95 11.36 10.36 11.62 10.84 11.12 10.62"/>
        <polygon class="cls-4" points="9.46 11.23 9.23 11.72 9.1 11.19 8.56 11.12 9.03 10.84 8.92 10.3 9.34 10.66 9.82 10.39 9.6 10.9 10 11.27 9.46 11.23"/>
        <polygon class="cls-4" points="8.09 12.36 8.04 12.9 7.74 12.45 7.21 12.56 7.55 12.14 7.28 11.67 7.79 11.87 8.15 11.45 8.12 12 8.62 12.22 8.09 12.36"/>
        <polygon class="cls-4" points="7.22 13.9 7.36 14.43 6.92 14.1 6.46 14.4 6.64 13.88 6.21 13.53 6.76 13.54 6.96 13.03 7.12 13.56 7.67 13.59 7.22 13.9"/>
        <polygon class="cls-4" points="12.88 10.62 13.27 11.01 13.21 10.47 13.7 10.22 13.16 10.11 13.08 9.57 12.81 10.04 12.27 9.95 12.64 10.36 12.38 10.84 12.88 10.62"/>
        <polygon class="cls-4" points="14.54 11.23 14.77 11.72 14.9 11.19 15.44 11.12 14.97 10.84 15.08 10.3 14.66 10.66 14.18 10.39 14.4 10.9 14 11.27 14.54 11.23"/>
        <polygon class="cls-4" points="15.91 12.36 15.96 12.9 16.25 12.45 16.79 12.56 16.44 12.14 16.72 11.67 16.21 11.87 15.85 11.45 15.88 12 15.38 12.22 15.91 12.36"/>
        <polygon class="cls-4" points="16.78 13.9 16.64 14.43 17.08 14.1 17.54 14.4 17.36 13.88 17.79 13.53 17.24 13.54 17.04 13.03 16.88 13.56 16.33 13.59 16.78 13.9"/>
      </g>
    </g>
  </g>
</svg>