<?xml version="1.0" encoding="UTF-8"?>
<svg id="Layer_1" data-name="Layer 1" xmlns="http://www.w3.org/2000/svg" viewBox="0 0 24 24">
  <defs>
    <style>
      .cls-1 {
        fill: #000;
      }

      .cls-1, .cls-2, .cls-3, .cls-4, .cls-5 {
        stroke-width: 0px;
      }

      .cls-2 {
        fill: #d11133;
      }

      .cls-3 {
        fill: none;
      }

      .cls-4 {
        fill: #00aa3c;
      }

      .cls-5 {
        fill: #fff;
      }
    </style>
  </defs>
  <rect class="cls-3" width="24" height="24"/>
  <g>
    <path class="cls-1" d="M16.71,7.34c2.92,2.92,3.18,7.42.57,10.03-2.61,2.61-7.11,2.36-10.03-.57s-3.18-7.42-.57-10.03c2.61-2.61,7.11-2.36,10.03.57Z"/>
    <g>
      <g>
        <path class="cls-5" d="M21,12H3C3,7.04,7.04,3,12,3s9,4.04,9,9Z"/>
        <path class="cls-4" d="M21,12c0,4.96-4.04,9-9,9S3,16.96,3,12h18Z"/>
      </g>
      <g>
        <path class="cls-2" d="M19.71,10.39c-.24-.38-.23-2.02-.19-2.37,0,0,0-.02-.01-.02-.01,0-.02,0-.02.01-.19.35-1.57,1.65-1.76,1.79,0,0,0,.01,0,.02,0,0,0,.01.01.02.29.12.77,0,.93-.04-.01.02-.02.05-.03.07-.02.06-.05.12-.07.19-.03.09-.07.18-.11.27-.06-.05-.14-.09-.21-.12-.38-.16-.87-.16-1.2,0-.21.11-.38.36-.42.63-.03.21.04.4.18.52.29.25.81.23,1.18.08.04-.01.07-.03.11-.04-.02.15-.08.26-.18.33-.08.06-.19.09-.34.11-.51.07-.96.03-1.37-.11-.34-.12-1.15-.09-1.38-.08.22-.45.79-.48,1.26-.46h0s0,0,0,0h0s0,0,0,0h0s0,0,0,0h0s0,0,0,0h0s0-.01,0-.01h0c-.21-.35-.27-.67-.18-.97.19-.61.97-.97,1.26-1.1,0,0,0,0,0,0h0s0,0,0,0c0,0,0,0,0,0,0,0,0,0,0,0h0s0-.01,0-.01h0s0,0,0,0h0s0,0,0,0c-.26-.09-.41-.23-.43-.4-.07-.52.99-1.24,1.03-1.27h0s.01-.02.01-.03c0,0-.02-.01-.03,0h-.02c-.3.13-1.35.55-2.21.88-.26.05-.45,0-.55-.12-.23-.31.12-1.04.12-1.05h0s0,0,0,0h0s0,0,0,0h0s0,0,0,0h0s0,0,0,0h0s0,0,0,0h0s0,0,0,0h0c-.35.22-.69.43-1.04.64l-.98.61c-.46.29-1.09.76-1.31.96-.02.02-.05.04-.07.06-.14.13-.25.22-.33.41-.1.25-.09.6-.08.79.01.11,0,.24-.06.41-.04.13-.1.23-.18.3-.16.06-.33.07-.5.09h-.04c-.2.03-.38.06-.55.12-.04-.07-.06-.15-.08-.23-.02-.1-.03-.15,0-.2.06-.08.22-.09.31-.04.03.01.04.03.06.04.02.02.04.03.05.02,0,0,.01-.01.01-.02,0-.04-.03-.13-.09-.2-.04-.05-.07-.06-.11-.08-.03-.01-.06-.03-.11-.06-.09-.07-.17-.12-.19-.21-.01-.08.03-.19.1-.23.14-.08.36.09.39.11.02.02.04.03.05.04.03.03.04.04.07.03.01,0,.02-.02.02-.05,0-.08-.04-.3-.2-.42-.04-.03-.07-.05-.11-.06-.04-.02-.07-.03-.11-.08-.09-.12-.09-.19-.07-.23.03-.07.13-.09.16-.09.13-.02.23.05.26.08s.05.05.06.06c.01.01.02.03.04.02.01,0,.02-.02.02-.05,0-.09-.03-.32-.19-.41-.01,0-.02-.01-.04-.02-.05-.02-.11-.06-.18-.13-.04-.04-.07-.07-.07-.09,0-.02.02-.03.04-.05.05-.04.16-.06.25-.04.03,0,.05.02.08.03.03.01.06.02.07,0,.01-.01.01-.04-.06-.12-.13-.15-.3-.2-.31-.21-.02,0-.04-.01-.05-.01-.03,0-.04-.01-.06-.02-.03-.02-.04-.06-.05-.09,0-.02-.01-.05-.03-.07-.03-.06-.07-.12-.12-.18,0,0,0,0,0-.01,0,0,0,0,0,0,.02-.24.58-.55.59-.55,0,0,.01-.01,0-.02s0-.01-.02-.01h-.16c.03-.12.04-.41.04-.44,0,0,0-.02-.01-.02s-.02,0-.02,0c0,0-.09.14-.39.19-.31.04-.61.2-.73.32-.08,0-.16-.01-.23-.01-.06,0-.12,0-.17,0-.17-.01-.32-.02-.47-.02-.02,0-.03,0-.05,0-.13,0-.26,0-.39.02-.12.03-.21.08-.27.15-.03.03-.05.06-.07.1,0,0,0,.01-.02.04,0,.01-.01.03-.02.04-1.42.02-1.6.53-1.61.55,0,0,0,.01,0,.02,0,0,.01,0,.02,0,.51-.07.84-.06,1.03.04h0c.11.06.14.13.17.19h0s.01.02.02.02c.02,0,.04,0,.06,0l.13.12s0,0,.01,0h0s.01,0,.01-.01l.03-.14.08.09s.01,0,.02,0c0,0,.01,0,.01-.02l.02-.14.07.08s.01,0,.02,0c0,0,.01-.01.01-.02v-.13s.1.08.1.08c0,0,.01,0,.02,0,0,0,.01-.01.01-.02v-.19c.19-.03.49.13.59.23,0,0,.02.02.03.03-.85.21-2.16.15-2.52.13.09-.03.19-.08.28-.14,0,0,.01-.01,0-.02,0,0,0-.01-.02-.01-.35-.05-.99-.2-1.33-.53,0,0-.01,0-.02,0,0,0-.01.02-.01.03.01.04.36.92,1.14,1.31,0,0,0,0,0,0,0,0,.01,0,.01,0,0,0,0-.01,0-.02-.04-.08-.08-.17-.12-.25.14.01.66.05,1.35.07.01.07.05.33.13.41v.02c-.01.09-.03.29.11.38,0,0,0,0,.01,0h0s.01,0,.01-.01c.09-.16.18-.37.21-.48.08.16.09.19.09.2h0s0,0,0,0c0,0,0,0,0,0h0s0,0,.01,0c0,0,0,0,0,0s0,0,0,0c0,0,0,0,0,0,0,0,0,0,0,0,0,0,0,0,0,0,0,0,0,0,0,0h0s.06-.39.55-.49c.01.05.04.12.09.18-.05.03-.09.07-.12.12-.05.06-.13.17-.12.3,0,.02,0,.04.02.06-.05.03-.09.07-.13.12-.04.05-.13.16-.11.31,0,.03,0,.05.02.08-.05.03-.13.07-.18.16-.03.04-.13.2-.07.38,0,.01,0,.02.01.03-.06.03-.12.08-.16.13-.08.11-.08.21-.09.32,0,.09-.01.16.02.23-.05.03-.09.08-.12.13-.06.08-.11.23-.07.43,0,.03.05.2.19.33-.05.06-.09.13-.11.2,0,0,0,.02-.01.04-.06,0-.12,0-.17.04-.02.02-.04.03-.06.05-.04-.06-.1-.11-.16-.14-.07-.03-.14-.02-.19-.01h0c-.03-.15-.21-.21-.27-.23-.05-.02-.1-.03-.15-.03.02-.13,0-.23-.06-.3-.06-.06-.14-.07-.19-.07-.02-.26-.1-.73-.28-.92,0,0-.01-.02-.02-.02.04-.12.11-.21.22-.25.15-.06.2-.2.17-.4.11-.24.09-.42-.06-.54,0,0-.01,0-.02,0,0,0-.01.01-.01.02,0,0,0,.32-.15.38h0c-.07.03-.14.07-.19.14,0-.05.02-.1.02-.15.03-.16.05-.29.02-.34-.01-.04-.04-.07-.06-.09-.04-.13-.24-.42-.54-.36,0,0-.01,0-.01.02,0,0,0,.02,0,.02,0,0,.29.14.24.42-.12.16-.11.47-.07.75-.05-.09-.1-.22-.14-.32-.04-.11-.07-.18-.09-.2-.02-.03-.06-.05-.11-.05-.15-.19-.3-.25-.49-.2,0,0-.01,0-.01.01,0,0,0,.01,0,.02,0,0,.2.15.25.28-.11.1-.07.16-.02.24.02.02.04.05.05.09-.01.35.24.44.31.46,0,.11-.07.76-.09.85-.02.09-.07.21-.27.37-.1.08-.15.15-.14.2,0,.03.03.06.09.07-.02.06-.12.3-.35.3-.01,0-.02,0-.02.02,0,.01,0,.02.01.02.06.02.13.03.2.03.13,0,.25-.04.34-.15.02.01.04.02.05.01.08-.02.16-.3.18-.37.01-.02.09-.14.18-.34.03.51.69,1.15,1.09,1.54.09.09.17.17.22.22.27.29.33,1.1.34,1.11,0,0,0,.01.01.02h0s.01,0,.01,0c.01-.01.31-.34.39-.71.21-.05.45-.07.62-.09h0c.1,0,.18-.01.22-.01-.02.04-.03.08-.03.13,0,.05.01.09.04.14-.02.01-.03.03-.05.04-.1.09-.16.15-.17.24,0,.05,0,.1.02.15-.08.07-.15.15-.19.24-.06.13-.08.23-.06.31-.22.26-.41.42-.53.43-.04,0-.09.01-.15.02-.14-.02-.27-.05-.36-.07-.03,0-.05-.01-.07-.02-.06-.01-.1-.04-.14-.06-.06-.04-.13-.08-.25-.09-.03,0-.07,0-.09,0-.02-.03-.04-.04-.08-.05-.15-.04-.26-.03-.33.02-.06.04-.09.11-.1.21,0,0,0,.02.01.02,0,0,.02,0,.02,0,0,0,.09-.08.18-.08.03,0,.05.01.07.03.03.03.05.05.08.06,0,.04,0,.08.02.14-.01,0-.03.02-.04.03-.02.02-.03.04-.04.07-.04-.03-.09-.04-.16-.04-.19,0-.39.15-.43.32,0,0,0,.02,0,.02,0,0,0,0,0,0s0,0,.01,0c.1-.08.23-.11.62-.04,0,0,0,0,0,0-.03.04-.04.09-.05.14-.22.02-.32.39-.32.42,0,0,0,.01,0,.02,0,0,0,0,.01,0,0,0,0,0,.01,0,0,0,0,0,0,0,.16-.17.28-.18.35-.19.02,0,.04,0,.05,0,.01.01.03.02.04.03.07.05.15.07.22.07.17,0,.34-.11.46-.18.04-.03.08-.05.11-.07.16-.07.36-.04.47,0,.08.04.15-.01.21-.06.05-.04.11-.08.18-.09.11-.02.2.03.31.12.06.04.13.09.21.14.19.1.3,0,.34-.05,0,0,.01,0,.02-.01.07-.03.2-.09.37.07,0,0,0,0,.01,0,0,0,0,0,0,0,0,0,.01-.01.01-.02-.01-.08-.05-.22-.17-.3-.07-.05-.15-.06-.24-.04-.03-.05-.08-.07-.14-.08-.12-.01-.37-.08-.44-.09.07-.23.17-.51.35-.71.08-.09.17-.17.25-.24.08-.07.16-.14.23-.22.17-.18.3-.34.41-.5,0,.29.25.77.26.79,0,0,0,0,.01.01,0,0,.01,0,.02,0,.19-.24.27-.45.26-.63.1-.03.19-.08.26-.15.03-.03.06-.06.08-.09.05.01.11.02.16.02h0c.22,0,.38-.09.44-.14.06-.04.16-.1.24-.2.07.03.14.05.2.05,0,0,.01,0,.02,0,.07,0,.13-.02.2-.06,0,.02,0,.05,0,.08,0,.08.02.29.18.44.08.08.2.13.33.14.02.07.06.13.12.18.09.08.2.13.34.13.04,0,.08,0,.13-.01.02,0,.06-.01.1-.02,0,.06.03.1.06.14.05.04.11.05.16.05-.03,0-.07.02-.09.03-.08.04-.12.14-.11.23-.09.02-.2.04-.24.11,0,.01-.02.03-.02.05,0,.02,0,.04,0,.06-.34,0-.5.07-.65.16-.11-.02-.22-.07-.33-.14-.09-.06-.18-.14-.27-.21-.02-.02-.04-.04-.07-.06,0,0-.02-.01-.03-.02-.04-.03-.08-.07-.13-.08-.06-.01-.12.01-.17.05,0,0,0,0,0,0-.04-.02-.16-.06-.27-.02-.09.03-.16.11-.21.23,0,0,0,.02,0,.02,0,0,.01,0,.02,0h.01c.09-.05.27-.15.4.03,0,.03.01.05.02.06.03.06.13.08.23.1.04,0,.08.02.12.03.08.02.16.13.22.23-.21.05-.35-.03-.46-.1h-.01c-.11-.07-.23-.05-.31,0-.03-.01-.17-.06-.31,0-.11.05-.19.15-.23.31,0,0,0,.02,0,.02,0,0,0,0,.01,0,0,0,0,0,0,0,.15-.08.3-.15.36-.08,0,.02,0,.04,0,.06.02.05.09.09.23.12,0,0,0,.01.01.02-.04,0-.09.02-.14.06-.07.07-.09.18-.08.33,0,0,0,.01.01.02h0s.01,0,.02,0c.01-.01.02-.03.03-.04.08-.11.13-.16.34-.13.03.03.06.05.11.05h0c.07,0,.14-.04.23-.08.1-.05.22-.11.4-.15.33-.08.55.04.55.04,0,0,.01,0,.02,0,0,0,.29-.11.47-.02.18.09.49.22.56.21.02,0,.03-.01.04-.04.22-.1.38.06.42.11h0s.01.01.01.01c0,0,0,0,0,0,0,0,.01-.01.01-.02-.05-.36-.39-.39-.46-.4,0,0,0-.01,0-.02-.04-.07-.09-.07-.2-.07h-.05c-.09,0-.2-.03-.26-.05,0,0,.01,0,.02,0h.06c.54-.11.95-.43,1.19-.68.09-.09.17-.19.25-.3.01-.02.03-.04.04-.07.04-.07.1-.19.16-.19.02,0,.03,0,.05.01.17.06.33.12.48.2.04.02.08.02.11,0,.03-.02.04-.06.03-.11-.03-.18-.14-.34-.29-.43-.13-.08-.29-.1-.44-.11-.2-.02-.38-.04-.52-.19-.04-.04-.17-.21-.15-.41.01-.09.05-.16.07-.19.04-.07.09-.09.14-.13.03-.02.07-.05.11-.08.04-.04.08-.09.12-.15.04.02.06.04.09.06.03.02.06.04.1.06.06.03.13.05.2.05.04.05.09.09.14.13.09.06.19.09.3.09.01,0,.03,0,.04,0,.07.06.16.11.25.14.09.04.21.08.33.08.05,0,.11-.01.17-.03.02,0,.04-.02.06-.03.08.06.16.1.25.12.04,0,.09.02.14.02s.12-.01.18-.05c.01,0,.02-.01.03-.02.03.04.06.07.11.09,0,0,.07.03.14.03.03,0,.06,0,.1-.02,0,0,.01,0,.02,0,.01.04.04.08.08.13.04.04.08.07.13.09-.01.07-.02.15-.02.22,0,.09.01.22.08.28-.01.05-.02.11-.02.16,0,.06,0,.13.02.18-.05.03-.09.07-.12.12-.04.06-.1.14-.07.24,0,.04.03.07.05.1-.25.41-.65.33-.86.22-.11-.06-.21-.16-.29-.25-.11-.11-.2-.2-.29-.19-.02,0-.07.01-.08.05-.1-.02-.18-.01-.25.03-.13.08-.16.23-.16.24,0,0,0,.02.01.02,0,0,0,0,0,0s.01,0,.01,0c0,0,.11-.13.32-.02-.03.03-.04.05-.04.07,0,.02.03.03.05.03.03,0,.09.02.24.1-.14-.02-.32-.03-.38.05,0,0,0,0,0,0-.03,0-.07.02-.1.03-.07.03-.17.09-.23.19-.03.06-.05.13-.05.2,0,0,0,.02.01.02,0,0,0,0,0,0,0,0,.01,0,.02,0,.05-.06.12-.11.2-.14.04-.01.08-.02.13-.02h.03s0,.01,0,.02c.01.03.07.04.18.04.1,0,.17-.03.22-.04.01,0,.02,0,.03,0,.16-.04.33.02.39.06h0c-.08,0-.22-.01-.36.07-.03.02-.1.06-.11.11-.11.04-.33.15-.35.42,0,0,0,.01.01.02,0,0,0,0,0,0,0,0,0,0,.01,0,.14-.09.43-.21.52-.17,0,0,.01.02.02.02.01,0,.02.01.04.01.04,0,.09-.03.17-.08.08-.05.13-.08.17-.1.04-.03.06-.04.1-.06h0c.07-.03.15-.07.23-.04.03.01.05.02.07.04.03.02.06.04.12.07.04.01.12.04.19,0,.04-.02.07-.05.08-.06h0c.09-.11.42-.18.63-.05.05.03.09.07.13.11.07.07.14.13.2.11.01,0,.02-.01.05-.05.04-.01.26-.09.44.11,0,0,.01,0,.01,0,0,0,0,0,0,0,0,0,.01-.01.01-.02,0-.01-.02-.2-.14-.31-.06-.05-.14-.08-.23-.07-.05-.05-.16-.1-.33-.17,0,0-.02,0-.03-.01-.07-.03-.12-.05-.14-.1-.01-.02-.01-.05-.01-.09,0-.02,0-.04,0-.07,0-.07.03-.17.08-.31.06-.19.15-.45.18-.75.04-.43-.1-.88-.15-1.02.04.02.09.05.16.14.12.15.47.23.56.19.01,0,.01-.02.01-.02-.14-.36-.83-.72-1.34-.98-.05-.02-.09-.05-.14-.07-.11-.06-.2-.11-.27-.15.35-.04.69-.14,1.03-.3.56-.26.94-.55,1.13-.87.22-.36.23-.8.04-1.15.06-.13.12-.27.17-.44.03-.11.06-.21.09-.32.17.19.52.44.65.47h0s.01,0,.02,0c0,0,0-.02,0-.02ZM18.02,10.95s-.09.06-.14.09c-.14.07-.29.09-.43.06-.07-.02-.12-.04-.15-.08-.04-.04-.06-.1-.04-.15.02-.06.07-.1.14-.12.04-.01.09-.02.14-.02.15,0,.31.05.38.11.04.03.07.06.09.11Z"/>
        <g>
          <path class="cls-5" d="M8.31,8.06c-.06.08-.15.13-.24.13h0c-.08,0-.14-.03-.19-.08-.03-.04-.05-.08-.06-.12.03,0,.05,0,.08,0h0s.02.07.04.1c.1.1.21.04.28-.05,0,0,0,0,0,0,.03.01.05.02.08.03Z"/>
          <path class="cls-1" d="M9.46,8.13c-.06,0-.11-.02-.14-.07s-.04-.11-.02-.16c.02-.06.07-.08.17-.13h.01c.16-.08.24-.11.3-.15.03-.02.06-.04.08-.06-.03,0-.07-.01-.1,0-.05,0-.09.02-.14.04,0,0,0,0-.01,0,0,0-.01,0-.02-.01,0-.01,0-.02,0-.03.05-.03.1-.04.15-.04.05,0,.09,0,.14.01.03-.03.06-.06.09-.1,0,0,.02-.01.03,0s.01.02,0,.03c-.06.08-.14.15-.22.2-.06.04-.14.07-.3.15h-.01c-.09.05-.13.07-.15.11-.01.04,0,.09.02.12.03.05.1.06.17.04.01,0,.02,0,.02.01,0,.01,0,.02-.01.02-.02,0-.04.01-.07.01Z"/>
          <path class="cls-1" d="M7.81,7.99s.02.08.06.12c.05.05.11.08.19.08h0c.09,0,.18-.05.24-.13-.03,0-.06-.02-.08-.03,0,0,0,0,0,0-.07.09-.18.15-.28.05-.03-.03-.04-.06-.04-.1h0s-.05,0-.08,0ZM7.78,8s-.06.01-.09.02c0,0,0,0,0,0,0,0-.02,0-.02-.01,0-.01,0-.02.01-.02.04-.01.07-.02.11-.03.03,0,.07-.01.1-.01h0s.1,0,.14,0c.09.01.15.03.21.05.03.01.07.02.11.03.02,0,.04,0,.07.01.13.02.26,0,.41-.07,0,0,.02,0,.02.01,0,.01,0,.02,0,.03-.12.05-.23.08-.34.08-.03,0-.06,0-.08,0-.02,0-.04,0-.06-.01-.07.1-.18.16-.28.16h0c-.09,0-.16-.03-.22-.09-.04-.04-.06-.09-.07-.13Z"/>
          <path class="cls-1" d="M15.17,16.91c.13-.08.37-.18.49-.16,0-.01-.01-.03-.03-.05-.02-.03-.03-.05-.05-.07-.02-.02-.05-.03-.07-.04-.01,0-.02-.01-.03-.02-.1.04-.28.13-.32.35ZM15.22,13.71c-.08.07-.17.08-.23.09.06.04.13.08.2.11.13.05.3.12.46.05.02-.01.04-.02.07-.04.09-.06.14-.16.18-.23.04-.08.07-.17.08-.26-.03,0-.07-.01-.1-.02-.17-.03-.34-.06-.51-.1.01.16-.04.31-.14.39ZM14.96,15.71c.06-.04.17-.07.33.01.03-.03.05-.05.06-.08,0-.02,0-.05-.01-.08,0-.01-.01-.03-.01-.04-.09-.02-.17-.01-.23.02-.07.04-.11.11-.13.16ZM14.79,16.39s.11-.08.18-.11c.04-.01.08-.02.13-.03.02,0,.04,0,.05,0h0s.03,0,.04,0c.05,0,.06-.05.06-.07,0-.05-.04-.12-.09-.13,0,0,0,0-.01,0s0,0-.01,0h0s0,0,0,0c-.03,0-.06.02-.09.03-.07.03-.16.08-.22.18-.02.04-.04.08-.04.13ZM14.94,13.15c-.04.2-.15.36-.3.41-.04.02-.09.03-.14.03.03.04.07.07.11.1.09.06.2.09.33.08h.02c.06,0,.16-.02.25-.09.09-.08.14-.22.13-.37-.06-.02-.12-.04-.17-.06-.08-.03-.15-.06-.21-.11ZM14.08,13.39s.06.04.09.06c.03.02.05.04.09.06.06.03.13.04.2.04.06,0,.12,0,.16-.03.14-.05.25-.21.28-.4-.25-.17-.42-.43-.5-.76-.36.01-.74.11-1.11.67h0s0,0,0,0c0,0,0,0,0,0h0s0,0,0,0h0s-.02,0-.03,0c.05.07.1.13.16.17.02.01.04.02.06.03.04.02.13.03.32.07.03,0,.06.01.09.02.07.01.1.02.14.03,0,0,.01,0,.02.01l.03.02ZM13.45,14.87c-.05.11-.15.26-.31.33-.04.02-.09.03-.14.04.07,0,.15.02.21.04.03,0,.06.01.09.02.07.01.14.02.2.03.01-.01.03-.03.04-.04.21-.25.19-.35.17-.37-.02-.03-.06-.03-.12-.04h-.01s-.07,0-.14-.01ZM13.13,16.67c.05-.02.11-.04.16-.04.09,0,.19.04.27.12-.07-.28-.38-.3-.42-.31-.06.04-.06.1-.06.13,0,.04.03.08.05.09ZM12.68,15.05s.02.09.05.12c.04.03.08.04.14.04.02,0,.04,0,.06,0,.07,0,.13-.02.2-.05.15-.07.24-.21.28-.3-.12-.02-.28-.05-.42-.1-.02.05-.05.09-.09.14-.06.06-.13.11-.22.15ZM12.7,15.53c.02.07.09.14.17.14.01,0,.02,0,.04,0,.04,0,.08-.02.12-.03.18-.06.33-.16.45-.27-.06,0-.12-.02-.18-.03-.03,0-.06-.01-.09-.02-.08-.02-.17-.04-.26-.04h-.02c-.05,0-.1.01-.14.04-.07.04-.11.13-.09.2h0s0,0,0,0ZM12.66,13.04c-.01.08-.03.15-.06.22-.01.03-.03.06-.04.09.06.03.14.05.2.07.08.01.16.01.23,0,.18-.03.3-.12.38-.19-.06-.04-.12-.11-.16-.19-.08,0-.16,0-.23,0-.11,0-.21,0-.32,0ZM14.66,12.32c-.62-.38-1.99-.97-2.57-1.08.37.3.93,1.13,1.18,1.75.38-.56.77-.64,1.14-.66.04,0,.07,0,.11,0,.05,0,.09,0,.14,0ZM13.35,8.42c-.35.26-.85.67-1.2,1.18.6-.27,1.92-.86,2.68-1.12.16-.05.35-.12.57-.21h-.05c-.17,0-.3-.05-.38-.15-.2-.26-.01-.78.08-1-.37.35-.78.65-1.19.94-.16.12-.33.24-.5.36ZM12.43,15.67s0,.04,0,.06c0,.03.01.05.03.07.06.07.19.08.28.05.08-.03.12-.09.14-.15h-.02c-.09,0-.17-.07-.2-.16-.07.01-.18.04-.22.09,0,0-.01.02-.01.03ZM15.93,11.14c-.6-.16-2.45-.56-3.58-.39.52.22,1.74.94,2.34,1.54-.02-.25,0-.46.08-.63.2-.44.7-.52,1.16-.52ZM12,14.79c.02.06.06.11.1.16.16.15.37.12.44.11.03,0,.07-.01.12-.03.08-.03.16-.08.21-.14.03-.04.06-.08.08-.12-.01,0-.02-.01-.04-.01-.07-.03-.19-.08-.27-.18-.09.08-.24.18-.44.21-.03,0-.09.01-.16.01h-.03ZM13.24,13c-.38-.49-1.09-1.33-1.53-1.54.11.29.29,1.07.24,1.89.25-.27.49-.33.69-.35.11,0,.22,0,.34,0,.08,0,.16,0,.24,0h.02ZM11.95,13.42c-.04.13-.1.25-.17.36h-.01s-.02.04-.02.05c.18-.01.41-.07.6-.24.08-.08.14-.17.17-.23.02-.04.04-.07.05-.11.03-.07.05-.14.06-.21-.21.02-.43.08-.67.37ZM11.67,13.93c.09,0,.17.01.26.01.06,0,.12,0,.16,0,.13,0,.19,0,.27.03.06.02.12.04.18.07.03-.19.09-.39.19-.59-.07-.01-.13-.03-.19-.06-.04.06-.09.15-.17.22-.2.19-.46.25-.65.26-.01.02-.03.04-.04.06ZM11.93,13.98c-.1,0-.19-.01-.29-.02-.04.06-.09.1-.14.14,0,.03-.01.07-.01.11,0,.08.02.27.17.41.08.08.19.12.32.13.09,0,.17,0,.22-.01.19-.03.34-.13.42-.21-.02-.02-.03-.04-.04-.06-.05-.09-.06-.19-.05-.34,0-.01,0-.02,0-.04-.06-.03-.12-.06-.18-.07-.08-.02-.14-.02-.26-.03-.04,0-.1,0-.16,0ZM18.2,16.53c-.05-.05-.12-.07-.21-.06-.06.03-.08.14-.09.2.03,0,.08-.02.14-.02.08,0,.19.02.28.11-.01-.06-.05-.16-.12-.23ZM17.77,9.8c.3.1.79-.03.91-.06h0c.08-.19.18-.41.18-.61,0-.01,0-.02.02-.02s.02,0,.02.02c0,.21-.1.43-.18.63h0s-.03.08-.04.12c-.02.06-.05.12-.07.19-.03.09-.07.18-.11.27.12.09.21.2.28.32.05-.12.11-.25.16-.41.04-.12.07-.23.1-.35h0c.06-.26.11-.52.14-.77,0-.01.01-.02.02-.02.01,0,.02.01.02.02-.03.25-.07.51-.14.76.14.17.44.39.6.46-.21-.43-.21-1.81-.18-2.27-.29.41-1.43,1.5-1.7,1.71ZM17.4,10.75c-.07.02-.12.06-.14.12-.02.05,0,.11.04.15.03.04.08.06.15.08.14.03.29,0,.43-.06.05-.03.1-.06.14-.09-.03-.04-.06-.08-.09-.11-.07-.06-.24-.11-.38-.11-.05,0-.1,0-.14.02ZM16.93,14.57c0,.09.01.22.08.26,0,0,0,0,0,0,.04.02.1,0,.16-.02.05-.02.09-.04.13-.07,0-.14-.02-.27-.05-.39-.05.02-.11.04-.17.04h-.01s-.07,0-.12-.02c-.01.07-.02.14-.01.21ZM17,15.23s-.08.07-.11.11c-.04.06-.09.13-.07.21,0,.03.03.06.05.09.03.03.06.04.1.05.16.02.23-.16.26-.31,0-.02,0-.04.01-.05-.01,0-.03,0-.05,0-.05,0-.11-.01-.15-.05-.01-.01-.03-.03-.04-.04ZM17.06,15.25c.07.05.16.04.19.03.03-.18.05-.35.05-.49-.03.03-.07.05-.12.06-.04.02-.09.03-.13.03-.02,0-.03,0-.05,0-.01.05-.01.09-.01.14,0,.06,0,.13.03.18.01.02.02.04.04.05ZM16.71,8.64c-.05-.42.57-.95.88-1.19-.83.39-4.21,1.97-4.93,2.36,1.43-.34,3.29-.71,4.42-.77-.23-.1-.36-.23-.38-.4ZM16.73,14.11s.03.08.07.12c.03.04.08.07.13.08.06.02.11.03.13.03.07,0,.14-.02.18-.03-.03-.09-.06-.18-.11-.26s-.11-.15-.18-.22c-.02.03-.04.06-.06.09-.06.09-.11.15-.16.19ZM16.54,13.58c0,.08-.03.16-.06.23s-.06.14-.12.2c.02.03.05.06.09.08,0,0,.11.05.21.01.01,0,.02-.01.03-.02.05-.03.09-.08.16-.18.02-.03.04-.06.06-.1-.11-.09-.23-.16-.38-.22ZM16.45,13.8c.03-.07.05-.15.06-.23-.06-.02-.13-.04-.2-.06-.03,0-.06-.01-.09-.02-.07-.02-.14-.03-.21-.04-.01.09-.04.19-.08.27-.03.07-.08.16-.17.23.07.05.15.08.23.1.07.01.19.04.29-.02.02,0,.03-.02.04-.03.06-.05.09-.13.12-.2ZM15.89,10.16c.16-.53.75-.87,1.11-1.04-.27.07-.62.15-1.01.24-1.34.31-3.14.73-3.56.95.32.01,1.07.05,1.81.17.83.14,1.43.34,1.79.61-.18-.32-.22-.63-.13-.92ZM16.54,12.98c.36-.04.72-.14,1.06-.3.55-.25.92-.54,1.11-.85.21-.35.23-.78.04-1.13-.07-.14-.18-.26-.3-.35-.07-.05-.14-.09-.22-.13-.37-.16-.85-.16-1.17,0-.2.1-.36.35-.4.6-.03.2.03.38.17.49.27.24.78.22,1.14.08.04-.02.09-.03.13-.05,0,0,0-.01,0-.02,0-.13-.01-.25-.06-.35-.04.04-.09.07-.14.09-.11.05-.21.08-.32.08-.04,0-.09,0-.13-.01-.07-.02-.13-.05-.17-.09-.05-.05-.07-.13-.05-.19.02-.07.08-.12.17-.14.18-.05.45,0,.56.09.04.03.08.08.11.13.06.1.08.24.07.39,0,.01,0,.02,0,.03-.02.18-.08.31-.2.39-.09.06-.2.1-.35.12-.17.02-.33.03-.48.03-.32,0-.62-.05-.91-.14-.35-.12-1.19-.09-1.38-.08-.07.17-.1.39-.06.65h0s0,.01,0,.01h0s0,0,0,0h0s0,0,0,0h0c-.06,0-.13,0-.2,0-.03,0-.05,0-.08,0,.08.33.25.58.49.74.07.05.15.09.23.12.06.02.12.04.18.06.18.05.36.08.54.11.04,0,.08.01.12.02.07.01.15.02.22.04.03,0,.06.01.09.02.07.02.15.04.21.07.17.06.31.15.43.25.08.07.15.16.21.24.05.08.09.18.12.28.03.13.05.27.05.43,0,.16-.01.34-.05.55,0,.03-.01.06-.01.08-.04.22-.14.34-.27.34-.01,0-.02,0-.03,0-.04,0-.07-.02-.11-.04-.14.23-.35.32-.55.32-.13,0-.25-.03-.36-.09-.12-.06-.22-.16-.31-.25-.1-.1-.19-.19-.25-.18-.06,0-.05.03-.05.04s0,.03.01.05c.01.03.02.06.02.1-.01.03-.04.07-.07.1h0s-.04.05-.04.06c0,0,0,0,.02,0,.05,0,.18.06.37.17,0,0,0,0,0,0,.11.03.21.07.31.13,0,0,.01.02,0,.03,0,0,0,0-.02,0,0,0,0,0-.01,0-.09-.05-.2-.09-.3-.12,0,0,0,0,0,0h0c-.14-.04-.39-.08-.46,0,.07.01.12.09.12.17,0,.06-.04.1-.1.11h-.03s.01.02.14.01c.09,0,.16-.03.21-.04.01,0,.02,0,.03,0,.2-.05.4.04.45.08,0,0,.01.02.01.03,0,.02-.03.02-.07.02-.07,0-.21,0-.34.06-.07.04-.09.07-.09.08h0s.01,0,.02.01c.02.01.05.02.08.05.02.02.03.04.05.07.02.04.03.06.04.08,0,0,0,0,0,.01,0,0,0,.01.01.01.02.01.08-.02.16-.07.08-.05.13-.08.16-.1.04-.03.06-.04.11-.06h.01c.08-.04.16-.07.26-.04.04.01.06.03.08.05.02.02.05.04.11.06.04.01.11.04.17.01.03-.01.05-.04.07-.05h0c.11-.13.45-.2.68-.06.05.03.1.07.14.12.06.06.12.11.16.09,0,0,0,0,.03-.04,0-.03.02-.19.1-.25-.05-.04-.16-.09-.31-.15-.01,0-.02-.01-.03-.01-.07-.03-.13-.06-.16-.12-.01-.03-.01-.06-.01-.11,0-.02,0-.04,0-.07,0-.07.03-.18.08-.32.06-.19.15-.44.18-.74.04-.5-.16-1.03-.16-1.04,0,0,0-.01,0-.02,0,0,.01,0,.02,0,0,0,.1.02.22.17.1.13.4.2.5.18-.15-.34-.82-.68-1.31-.94-.05-.02-.09-.05-.14-.07-.14-.07-.24-.13-.32-.18-.17-.11-.26-.21-.4-.37-.05-.06-.11-.12-.18-.19-.37-.39-.58-.36-.58-.36-.01,0-.02,0-.02-.01,0-.01,0-.02.02-.02.01,0,.23-.03.62.37.07.07.13.14.18.19.15.16.23.25.39.36ZM7.41,9.25l-.03-.07-.03.07h.06ZM7.34,8.66l.06.07.02-.1s-.05.02-.07.03ZM7.24,9.25l-.02-.06-.02.06s.03,0,.05,0ZM7.25,8.79l.02-.11s-.07.02-.11.03l.08.08ZM7.12,13.37c.11.02.23.03.36.03h0c-.13-.18-.15-.21-.15-.21-.06-.12-.06-.23-.05-.31-.05,0-.1,0-.15.03-.02.02-.04.03-.06.06.02.03.03.06.04.09h0c.04.12.03.23.01.31ZM6.54,13.2c.14.07.32.13.54.17.02-.07.03-.18,0-.29h0s-.02-.06-.04-.09c-.04-.07-.09-.12-.16-.14-.06-.03-.13-.02-.18-.01,0,.03-.02.06-.04.11-.04.09-.08.17-.12.26ZM6.27,12.57s0,.03-.01.04c-.02.07-.06.14-.11.2.05.06.1.13.16.2l.02.02c.04.05.1.1.17.15.04-.09.08-.17.12-.26.02-.05.04-.08.04-.11,0,0,0-.02,0-.03-.02-.11-.19-.17-.24-.19-.05-.02-.1-.03-.15-.03ZM6.01,15.9s0,.07.01.11c.08-.02.18,0,.28.03.06.01.12.03.16.03.04,0,.13-.02.24-.05.07-.02.16-.04.24-.06-.1-.02-.19-.04-.26-.06-.03,0-.05-.01-.07-.02-.06-.02-.11-.04-.15-.07-.06-.03-.12-.07-.24-.08-.03,0-.05,0-.07,0,.02.06,0,.12,0,.14,0,.02-.05.05-.11.05,0,0-.01,0-.02,0ZM6.06,10.09c0,.09-.03.3-.15.36.07.1.09.11.17.1.09-.2.08-.36-.02-.46ZM5.97,12.2c-.09.18-.02.34.16.58.04-.06.08-.12.09-.18,0-.01,0-.03.01-.05.03-.13.01-.23-.05-.28-.05-.05-.13-.06-.19-.06-.01,0-.02,0-.03,0ZM5.68,16.9c.14-.13.25-.15.32-.15.02,0,.04,0,.05-.01.01,0,.06-.06.05-.09s-.06-.05-.1-.06c-.01,0-.02,0-.03,0-.15,0-.24.21-.28.33ZM5.7,11.17c.04-.12.12-.19.23-.24.15-.06.17-.22.15-.34-.02,0-.03,0-.04,0-.06,0-.1-.03-.16-.13-.08.03-.15.09-.2.17-.02.16-.04.39.03.53ZM5.66,15.82s.1-.06.16-.06h0s.07.02.09.05c.02.03.05.04.08.05.06.01.11-.01.11-.02,0-.01.02-.08,0-.12-.01-.02-.03-.04-.06-.05-.13-.03-.23-.03-.3.02-.04.03-.07.07-.08.14ZM5.38,16.37c.1-.06.25-.08.59-.01,0-.02,0-.06-.02-.1,0-.01-.01-.02-.02-.03h0s-.01-.04-.02-.04c-.03-.03-.09-.05-.16-.05h0c-.15,0-.31.11-.36.24ZM5.64,9.99c-.03-.09-.18-.35-.44-.34.09.06.25.19.22.41.13.01.17,0,.22-.07ZM4.75,8.25c.1.22.43.86,1.04,1.19-.03-.08-.07-.16-.11-.23-.09-.17-.16-.28-.16-.28,0,0,0-.01,0-.02,0,0,0-.01.01-.01,0,0,.05-.01.13-.03h0s0,0,0,0c.09-.03.21-.07.32-.14-.34-.06-.89-.19-1.24-.47ZM4.81,12.82c0-.06-.02-.15-.06-.18-.02-.01-.03-.01-.05,0-.01.05-.1.26-.29.32.15.02.31,0,.41-.14ZM4.77,10.38s.11-.01.15-.05c.02-.02.03-.04.03-.06-.13-.16-.26-.23-.42-.2.06.05.2.18.24.28h0s0,.01,0,.02ZM11.27,10.91c-.03.1-.07.19-.13.26.01,0,.02-.01.03-.01.19-.1.32-.28.39-.41.08-.14.14-.29.19-.44.03-.09.07-.18.11-.27.06-.14.14-.28.22-.41.36-.54.88-.97,1.25-1.24.16-.12.33-.24.5-.36.39-.27.78-.56,1.13-.88-.29.18-.59.37-.89.55l-.98.61c-.46.29-1.08.75-1.31.96-.02.02-.05.04-.07.06-.14.12-.24.22-.32.4-.1.24-.09.58-.07.77.01.11-.01.25-.06.42ZM11.17,13.49c.02.19.04.33-.03.49-.02.05-.04.09-.07.13.06.03.13.04.19.04.07,0,.15-.03.21-.08.05-.03.09-.08.14-.14.02-.03.04-.06.07-.09.02-.02.03-.04.04-.07h.01c.07-.12.13-.24.17-.36-.18-.09-.5-.22-.79-.15.02.07.03.15.04.23ZM10.74,15.73s.12.06.21.08c.04,0,.08.02.12.03.11.03.21.19.24.26.05-.01.1-.03.15-.06.08-.04.15-.08.22-.12,0,0,.01,0,.02-.01-.11-.03-.2-.07-.31-.14-.09-.06-.18-.14-.27-.22-.02-.02-.04-.04-.07-.06l-.02-.02s-.07-.06-.11-.07c-.05,0-.1.01-.14.05.02.01.03.03.03.06.01.07-.06.15-.08.18,0,.02.01.04.02.05ZM10.72,13.52c.09-.15.21-.25.37-.29h0c.29-.08.62.05.81.14-.24-.9-.42-1.43-.57-1.72-.02.05-.05.12-.08.19-.19.42-.51,1.11-.53,1.68ZM10.47,16.55c-.05.05-.07.14-.07.25,0,0,0,0,0,0,.09-.11.14-.18.37-.15,0-.02,0-.06-.02-.09-.02-.03-.05-.07-.12-.06h0s0,0-.01,0c-.03,0-.09,0-.14.06ZM10.52,16.14c-.02.06-.08.12-.15.13,0,.01,0,.03,0,.04.01.03.08.06.19.09,0-.02.01-.04.05-.06.09-.05.27-.07.36,0,.06.04.36-.05.54-.12.01,0,.02,0,.02.01,0,.01,0,.02-.01.03-.08.03-.49.18-.58.12-.08-.06-.24-.04-.32,0-.04.02-.03.04-.03.04,0,.01.02.03.04.04.06,0,.12.02.15.08.03.04.04.1.02.13.02.02.04.03.07.03.06,0,.13-.03.22-.07.1-.05.22-.12.4-.16.31-.07.53.02.57.04.05-.02.32-.11.49-.01.2.1.48.22.54.21,0,0,0,0,0,0-.03-.02-.05-.06-.06-.11-.01-.07.01-.13.06-.17,0,0,0-.01,0-.01-.02-.05-.05-.05-.17-.05h-.06c-.16,0-.33-.08-.34-.08,0,0-.01-.01-.01-.02,0,0,0-.01.01-.02.03,0,.06-.01.08-.02.02,0,.04,0,.06-.01.53-.09.93-.41,1.17-.66.09-.09.17-.19.25-.3.01-.01.02-.04.04-.07.05-.09.11-.21.19-.21.02,0,.05,0,.07.01.17.06.33.12.49.2.03.01.06.02.07,0,.01-.01.02-.04.01-.07-.03-.17-.14-.32-.27-.4-.13-.08-.28-.09-.43-.11-.19-.02-.4-.04-.54-.2-.04-.05-.19-.22-.16-.44.01-.09.05-.17.08-.21.05-.07.09-.11.15-.14.03-.02.06-.05.1-.08.04-.04.08-.08.11-.13,0,0-.01,0-.02,0-.04-.02-.06-.02-.14-.03-.02,0-.05-.01-.09-.02-.19-.04-.29-.05-.33-.07-.02-.01-.04-.02-.05-.03-.08.08-.22.18-.41.21-.04,0-.08.01-.12.01-.04,0-.07,0-.11,0-.05.1-.09.21-.13.31s-.05.21-.07.31c0,.02,0,.03,0,.05-.01.15,0,.24.04.32.01.03.03.05.05.07.08.1.19.15.27.19.02,0,.03.02.05.02.15.06.33.09.46.11.08.01.14.01.15.02h.01c.07,0,.12,0,.15.05.05.07,0,.21-.18.42-.01.02-.03.03-.04.05h0c-.13.13-.29.24-.49.31-.03.01-.07.02-.12.03-.03.09-.09.15-.17.18-.04.01-.08.02-.12.02-.08,0-.16-.02-.2-.08-.02-.02-.03-.04-.04-.07-.34,0-.49.07-.64.16-.02.01-.04.02-.06.04-.07.04-.14.08-.22.13-.06.03-.12.05-.17.06h0c-.06.01-.11.02-.16.02-.16,0-.27-.07-.36-.12h-.01c-.09-.06-.19-.04-.26-.01.02.03.02.07,0,.1ZM10.48,15.44c-.07.02-.13.08-.17.16.05-.02.12-.05.19-.05s.14.03.2.1c.04-.04.07-.1.06-.14,0-.02-.01-.03-.03-.04,0,0-.13-.07-.26-.03ZM10.3,14.22c-.02.06-.04.13-.09.21.05.01.09.01.14.01h0c.21,0,.36-.09.42-.13.06-.04.16-.1.24-.2.03-.04.06-.09.08-.14.06-.15.05-.29.02-.47-.01-.08-.03-.15-.05-.22-.16.05-.28.16-.37.34,0,0,0,0,0,0h0s0,0,0,0h0s0,0,0,0h-.01s0,0,0,0h0c-.08-.06-.15-.12-.22-.18-.06-.05-.11-.09-.17-.13.02.14.03.29.03.43.01.27,0,.38-.04.48ZM10,16.28c.15-.08.29-.13.36-.05.07-.02.11-.06.13-.11,0-.02.01-.05,0-.08-.02,0-.07-.03-.15-.03-.04,0-.09,0-.13.03-.08.04-.15.12-.2.24ZM9.86,13.92c-.03.1-.06.15-.08.2-.03.05-.04.09-.05.16,0,.09.02.16.05.22.02.04.03.08.05.12,0,.01,0,.03,0,.04.09-.03.18-.07.24-.14.03-.03.06-.06.08-.1.05-.08.08-.16.1-.22.03-.1.04-.2.03-.47,0-.15-.02-.31-.04-.46-.12-.07-.22-.09-.35-.06.01.07.02.14.02.2,0,.04,0,.09,0,.14,0,.08-.02.22-.07.37ZM9.73,13.24c.06-.03.11-.05.16-.06.15-.04.27-.02.41.07.07.04.13.1.2.16.06.05.12.1.18.15-.05-.44-.1-1.27.03-1.62-.41.4-.86.91-.97,1.26,0,0,0,.01,0,.02,0,0,0,.02,0,.02ZM9.53,13.37h0s-.06.08-.07.14c0,0,0,0,0,.01,0,.03-.02.11.02.15.03.03.07.04.12.03.02,0,.04-.01.06-.02.03-.02.05-.04.07-.08,0-.02.02-.04.04-.06.04-.05.08-.09.13-.13,0-.06,0-.12-.02-.18-.05.02-.11.04-.17.07t0,0h0s0,0,0,0h0s0,0,0,0c0,0,0,0,0,0h0s0,0,0,0h0s0,0,0,0c0-.01,0-.02,0-.03-.06.03-.11.07-.15.12ZM9.25,13.88s0,0,0,0c.02.01.05-.01.08-.03.03-.02.04-.04.06-.05.01-.02.02-.03.05-.05.03-.02.05-.02.07-.03-.03,0-.06-.02-.07-.04-.05-.05-.05-.12-.04-.16-.02.01-.04.02-.04.02,0,0,0,0-.01,0-.07-.03-.11,0-.11,0-.02.01-.02.05-.02.11,0,.02,0,.06,0,.09,0,.07.01.12.02.14ZM9.27,11.47c-.03.06-.06.12-.1.17-.02.02-.03.04-.05.07.02.03.04.06.07.09.06-.04.13-.08.2-.12-.04-.07-.08-.14-.12-.2ZM9.18,13.68s-.11.03-.15.08c-.02.02-.05.05-.04.08,0,.04.06.08.11.09.01,0,.02,0,.03,0,.03,0,.05-.02.08-.05,0-.03-.01-.07-.02-.14,0-.02,0-.04,0-.07ZM9.01,11.4s0,.06.02.1h0s.04.11.07.18c.01-.02.03-.03.04-.05.04-.06.08-.13.11-.19,0,0,0,0,0,0-.04-.08-.07-.15-.09-.22-.04.06-.07.12-.12.17,0,0-.01.02-.02.02ZM8.97,9.36c0,.11,0,.23,0,.36,0,.02,0,.04,0,.05,0,.1,0,.21.02.33,0,.02,0,.04,0,.05s0,.04,0,.06c0,.03,0,.05,0,.08.01.08.02.16.03.24v.03c.02.11.04.22.07.33.02.09.04.18.07.25.03.09.07.17.11.26h0c.04.09.09.17.14.25.11-.06.23-.12.36-.17.05-.02.1-.04.15-.05-.04-.07-.06-.15-.08-.23-.02-.1-.03-.17,0-.23.07-.1.25-.11.36-.05.03.02.05.03.07.05,0,0,0,0,0,0,0-.03-.03-.1-.08-.16-.03-.04-.06-.05-.1-.07-.03-.01-.07-.03-.12-.07-.1-.07-.18-.13-.2-.24-.02-.1.03-.22.12-.26.16-.09.39.08.43.11.02.02.04.03.05.05,0,0,.02.02.02.02.01-.04-.02-.28-.19-.4-.03-.03-.06-.04-.09-.05-.04-.02-.08-.04-.13-.09-.08-.11-.11-.2-.07-.27.04-.09.16-.11.19-.11.14-.02.26.06.29.08.03.03.05.05.06.06,0-.07-.02-.29-.17-.39-.01,0-.02-.01-.03-.02-.05-.02-.12-.06-.19-.13-.05-.04-.08-.08-.08-.13,0-.03.02-.05.05-.07.06-.04.18-.07.28-.05.03,0,.06.02.08.03h.02s-.02-.02-.05-.05c-.13-.14-.29-.2-.29-.2-.02,0-.03-.01-.05-.01-.03,0-.05-.01-.07-.03-.04-.03-.05-.07-.06-.12,0-.02-.01-.04-.02-.06-.03-.06-.07-.11-.11-.17-.08.08-.26.14-.48.12-.02.04-.03.07-.06.1,0,.01-.02.02-.02.03-.01.01-.03.03-.03.04,0,0,.02,0,.03,0,0,0,.01,0,.02,0,.1,0,.23.07.23.13,0,.02-.02.03-.05.05,0,0-.02.01-.03.02-.04.02-.13.08-.14.1,0,0,.01,0,.02,0,.02,0,.05.02.09.04.06.03.11.09.12.13,0,.01,0,.02,0,.03-.01.02-.03.01-.06.01-.01,0-.02,0-.04,0-.06,0-.12-.01-.13,0,0,0,.01.03.02.05.01.02.03.05.04.08.03.08.07.19.03.21-.02.01-.03,0-.09-.05-.02-.01-.04-.03-.07-.05-.07-.05-.09-.07-.11-.07,0,0-.01.01-.03.06v.02c-.06.1-.08.14-.09.15ZM8.93,11.91s.02.05.03.06c.06-.05.13-.1.2-.15-.02-.02-.04-.05-.06-.08-.06.07-.12.12-.17.17ZM8.93,9.82s-.02.02-.03.03c-.01.01-.03.02-.05.03.01.03.02.05.03.08,0,.02,0,.03.01.04,0,.01,0,.02.01.04,0,.02.02.05.04.07,0,0,0,0,0,0,0-.1-.01-.2-.02-.28ZM8.81,10.33s.01.09.02.13c.05-.05.09-.11.13-.16,0-.04,0-.07-.01-.12,0-.01,0-.02,0-.03,0,0,0,0-.01.01-.03.03-.07.05-.1.08-.01,0-.02.01-.04.02,0,.02.02.05.02.07ZM8.81,13.87s.02.09.04.12c0,.01.01.02.02.02.01.01.02.03.04.06.02.04.03.08.04.11,0,.02,0,.03.01.04,0,0,.02,0,.03,0,.03-.01.07-.05.09-.1.02-.05.01-.1,0-.13-.06-.01-.13-.06-.13-.12,0-.04.02-.08.04-.1-.06-.06-.11-.08-.14-.07-.03.01-.05.08-.05.16,0,.01,0,.02,0,.03ZM8.81,11.6s.03.07.03.09c0,.03.03.1.07.18.05-.04.12-.1.17-.17-.04-.07-.07-.15-.08-.2h0s-.01-.05-.02-.07c-.05.06-.11.11-.17.16ZM8.88,11.21c.08.07.1.09.11.1s.01.03.02.04c.05-.06.09-.12.13-.19-.02-.06-.04-.13-.06-.2-.04.07-.08.13-.13.19h0s-.04.05-.06.07ZM8.79,9.79s.02.03.03.05c.02-.01.03-.02.04-.03.02-.02.04-.03.06-.05h0c0-.12,0-.23,0-.33-.04.09-.07.17-.1.26h0s-.02.07-.04.1ZM8.86,10.82s-.03.04-.05.05c.02.03.04.06.06.1.02.04.04.08.06.12.05-.06.09-.13.13-.2-.02-.09-.04-.18-.05-.28-.04.07-.09.14-.15.2ZM8.76,9.88s.02-.01.03-.02c0-.01-.01-.02-.02-.03,0,.02-.01.03-.01.05ZM8.75,9.93c-.02.05-.03.11-.05.16.03.03.06.08.08.13.01,0,.02-.01.03-.02.03-.02.07-.05.1-.08-.02-.03-.03-.05-.04-.08,0-.02,0-.03-.01-.04,0-.01,0-.02-.01-.04,0-.02-.02-.05-.03-.07-.02.01-.04.02-.07.03ZM8.83,10.51s-.05.05-.08.07c.02.03.04.06.04.08,0,.02.02.05.05.11.05-.07.11-.14.15-.21v-.02c-.01-.06-.02-.13-.03-.19-.04.05-.08.1-.12.14h0s0,.01,0,.01ZM8.7,11.37s0,.03,0,.04c0,.02.02.06.05.09.01.02.02.04.03.06.07-.05.13-.11.19-.18,0-.03,0-.05-.01-.06,0,0-.03-.03-.1-.09-.05.05-.1.09-.15.13,0,0,0,0-.01,0ZM8.68,10.14s-.02.07-.03.1c0,.02,0,.03-.01.05.03-.01.07-.03.1-.05-.02-.04-.04-.07-.06-.1ZM8.67,12.1s.03.06.06.08c.06-.06.13-.12.2-.18,0-.02-.02-.04-.03-.06-.03.02-.05.04-.08.06h0s-.07.06-.1.08c-.01,0-.02.01-.03.02ZM8.55,10.69c.06-.04.11-.08.16-.12.03-.02.06-.05.08-.08,0-.04-.02-.09-.02-.15,0-.02,0-.04-.01-.06-.04.02-.08.04-.13.06-.03.12-.06.24-.08.35ZM8.68,11s-.04.03-.06.05c.02.07.05.2.07.28.06-.04.11-.09.16-.14.02-.02.04-.04.06-.07-.02-.04-.05-.08-.07-.13-.02-.03-.03-.06-.05-.09,0,0-.02.02-.02.02-.03.03-.05.05-.08.07ZM8.64,16.42s-.05.13-.03.23c0,0,0,0,0,0,.04-.02.09-.04.16-.04.06,0,.13.02.21.08-.02-.07-.06-.17-.14-.22-.06-.04-.13-.05-.21-.04ZM8.67,11.7s-.08.05-.13.08c0,.02.03.06.06.11.05.07.07.12.09.15,0,0,0,0,0,0,.03-.02.06-.04.08-.06h0s.06-.05.08-.07c-.05-.09-.07-.16-.08-.2,0-.02-.01-.04-.02-.07-.04.03-.08.05-.11.07ZM8.52,12.2c.01.06.02.11.04.13,0,0,.01.01.02.02.04-.05.08-.09.13-.14-.03-.02-.04-.06-.06-.08-.04.02-.08.05-.12.08ZM8.66,11.4c-.07.05-.14.09-.22.12,0,.03,0,.05,0,.08.1.08.11.11.11.11,0,0,0,.01,0,.02.04-.02.07-.04.1-.06.03-.02.07-.04.11-.08-.01-.02-.02-.04-.04-.06-.03-.04-.05-.08-.05-.11,0,0,0-.01,0-.02ZM8.73,10.61c-.06.05-.12.09-.18.13,0,.02,0,.03-.01.05.02.03.08.12.13.17.02-.02.04-.04.07-.06.01-.01.03-.03.04-.04.02-.02.03-.04.05-.06-.03-.06-.05-.1-.06-.13,0-.02-.02-.04-.03-.06ZM8.48,11.11s.07-.05.11-.08c.02-.01.03-.03.05-.04-.04-.04-.08-.11-.11-.15-.01.09-.03.18-.04.26ZM8.49,12.88c-.05.12-.09.25-.11.38-.02.16,0,.27.06.36.01.01.02.03.04.04.07.07.16.12.28.15,0-.07.02-.15.07-.17.05-.02.12.03.17.08.05-.05.12-.07.17-.08,0-.06,0-.1.03-.12.02-.01.06-.03.14,0,.01,0,.03-.01.06-.03.01-.06.05-.11.08-.14h0c.05-.06.1-.11.17-.14-.01-.11-.03-.18-.05-.21-.13.09-.41.29-.45.37,0,0-.01,0-.02,0h0s-.01,0-.02,0c-.08-.13-.07-.45-.05-.57-.17.05-.41.08-.59.09ZM8.51,11.73s-.01-.02-.07-.08c0,.04,0,.09,0,.15.03-.01.05-.03.08-.04,0-.01,0-.02,0-.02h0s0,0,0,0ZM8.41,12.56c.03-.05.07-.1.11-.15.01-.02.03-.03.04-.04-.01-.01-.02-.02-.03-.03-.02-.03-.03-.08-.04-.13-.03.01-.05.03-.08.04,0,.1,0,.2,0,.3ZM8.48,11.16c0,.06-.01.12-.02.17,0,.05,0,.09-.01.15.07-.03.15-.07.21-.12-.02-.08-.05-.2-.07-.28-.03.03-.07.05-.11.08ZM8.27,9.29c.01.05.04.12.09.18.02.03.04.05.07.07.13.11.28.13.37.12.04-.1.08-.21.12-.31-.02-.01-.03-.04-.05-.09-.01-.03-.02-.05-.03-.06,0,0,0-.02,0-.02,0,0-.02.03-.02.08,0,.01,0,.02,0,.03-.02.06-.05.11-.09.15,0,0-.01.02-.02.02,0,0,0,0-.01,0h0s-.01,0-.02-.01c0,0-.04-.08-.09-.19-.11,0-.21,0-.3.02ZM8.32,12.79c1.13-.87,1.52-.92,1.8-.95.06,0,.12-.01.18-.03,0,0,.01,0,.02,0,0,0,0,.01,0,.02,0,.01-.02.03-.03.06-.1.18-.32.6-.47,1.04.25-.44.77-.94.95-1.11,0,0,.02,0,.03,0,0,0,0,.02,0,.03-.16.17-.16.94-.1,1.52.06-.54.35-1.16.52-1.55.04-.09.08-.17.1-.22,0,0,0-.01.02-.01s.01,0,.02.01c.15.27.32.79.57,1.69.03-.83-.16-1.61-.26-1.85,0,0,0-.01,0-.02s.01,0,.02,0c.48.19,1.24,1.13,1.52,1.48-.28-.63-.85-1.44-1.19-1.67,0,0-.01-.01,0-.02s.01-.01.02-.01c.51.07,1.88.65,2.57,1.05-.65-.61-1.85-1.3-2.32-1.48,0,0-.01-.01-.01-.02,0,0,0-.02.01-.02,1.17-.21,3.18.25,3.72.4-.42-.32-1.4-.69-3.65-.78,0,0-.02,0-.02-.01,0,0,0-.02,0-.02.3-.21,2.22-.66,3.63-.99.38-.09.73-.17,1-.23-1.17.09-3.02.46-4.42.79,0,0-.02,0-.02-.01,0,0,0-.02,0-.02.27-.19,3.27-1.6,4.6-2.22-.46.18-1.06.42-1.59.62h0c-.28.11-.52.2-.71.26-.78.27-2.17.89-2.73,1.15-.09.13-.16.27-.22.4-.04.09-.07.18-.11.27-.05.15-.11.3-.19.44-.11.2-.25.34-.41.42-.03.02-.07.03-.11.05h0c-.16.06-.34.08-.51.1h-.04c-.21.03-.38.07-.55.12-.05.02-.11.04-.17.06-.13.05-.25.11-.37.18-.08.04-.15.09-.23.14-.08.05-.16.11-.23.18-.08.06-.15.13-.22.2-.05.05-.11.11-.15.17-.01.02-.03.03-.05.06-.05.06-.09.13-.14.19-.03.05-.06.11-.09.16ZM8.42,11.84v.13c0,.08-.01.17-.01.25.03-.02.06-.03.08-.05.05-.03.1-.06.15-.09.01,0,.02-.02.03-.02,0,0,0,0,0,0-.02-.03-.05-.08-.09-.15-.04-.06-.06-.09-.06-.11-.03.02-.06.03-.09.04ZM10.12,11.87c-.28.03-.67.08-1.82.97.04,0,.1,0,.17,0,.19,0,.46-.04.63-.1,0,0,.02,0,.02,0,0,0,0,.01,0,.02-.02.05-.04.39.03.55.1-.12.45-.35.46-.36,0,0,.01,0,.02,0,0,0,0,0,.01.01,0,0,.03.06.05.21.14-.53.44-1.09.55-1.3,0,0,0-.01.01-.02-.05.01-.09.02-.14.02ZM8.19,9.04s.03,0,.05-.01l-.04-.05v.07ZM8.29,13.78s-.1.14-.08.27c0,.03.02.06.04.09.03.05.07.08.08.1.09.07.19.1.27.1.06-.15.11-.31.16-.47,0,0,0-.01,0-.02-.13-.04-.23-.09-.31-.17l-.03-.03c-.05.03-.1.07-.13.12ZM8.22,14.49s.03.04.04.04c.06.06.15.09.25.08.03-.06.05-.12.08-.19h0s0-.03.01-.04c-.11,0-.21-.04-.28-.11-.02-.01-.05-.04-.08-.08-.01.01-.02.02-.03.04-.03.04-.04.09-.04.14,0,.05.02.09.04.13ZM8.16,14.57c-.09.09-.15.14-.16.22,0,.04,0,.09.02.14.03.05.07.09.12.11.04.01.08.02.12.01v-.02c.07-.08.14-.17.23-.38h0c-.1,0-.19-.03-.25-.09h0s-.02-.02-.03-.03c-.02.01-.03.02-.04.04ZM8.12,9.89s0,.04.02.06c.03.08.11.13.15.16.11.08.24.1.34.1.01-.04.02-.08.03-.12.01-.05.03-.1.04-.15,0-.01.01-.03.01-.04h0s.02-.07.03-.11c0-.01.01-.03.01-.04,0-.02.01-.03.02-.05h-.01c-.09,0-.24-.02-.37-.13-.02-.02-.04-.04-.06-.06-.04.03-.08.07-.11.11-.05.06-.12.16-.11.27ZM8.04,9.09s.04-.02.06-.02l-.04-.06-.02.08ZM7.94,9.13l-.05-.06v.09s.03-.02.05-.03ZM7.92,10.47c.03.09.1.15.14.18.14.12.32.14.44.13,0-.02,0-.04.01-.05h0c.03-.14.06-.27.09-.41,0,0,0,0,0-.01h0s0-.03.01-.05c-.1,0-.23-.02-.35-.11-.04-.03-.11-.08-.15-.16-.04.03-.08.07-.11.11-.04.05-.12.15-.11.28,0,.03.01.06.02.09ZM7.78,9.2l-.06-.07-.02.1s.05-.02.08-.03ZM7.82,15.18c-.06.12-.07.22-.05.29,0,.02.02.04.03.06.03.03.08.06.13.05.09-.01.14-.14.16-.2h0c.06-.15.1-.23.15-.29h-.02s-.06,0-.09-.02c-.05-.02-.1-.06-.13-.11-.08.06-.14.14-.18.22ZM7.66,10.99s0,.03.01.04c.04.09.11.14.14.17.18.15.43.14.61.11,0-.05.01-.11.02-.17.01-.11.03-.22.05-.33-.13,0-.31-.02-.46-.14-.03-.03-.1-.08-.14-.17-.05.03-.11.07-.16.14-.03.04-.12.19-.06.35ZM7.66,9.23l.03-.15s0-.01.01-.01c0,0,.01,0,.02,0l.09.11s.01,0,.02,0l.02-.15s0-.01.01-.02c0,0,.01,0,.02,0l.08.1h.02s.03-.16.03-.16c0,0,0-.01.02-.01,0,0,.01,0,.02,0l.07.11h.01s.03-.13.03-.13c0,0,0-.01.01-.01,0,0,.02,0,.02,0l.07.11c.08-.01.13-.01.17,0-.05-.11-.1-.19-.13-.24-.5.12-1.16.15-1.69.15-.5,0-.89-.03-.95-.03-.05.01-.08.02-.11.03.02.04.08.13.14.25.08,0,.64.05,1.39.07h0s.02,0,.05,0l.05-.12s.01-.01.02-.01h0s.01,0,.02.01l.05.13h.03l.06-.13s.01-.01.02-.01.01,0,.02.01l.04.13s.02,0,.03,0l.04-.14s0-.01.02-.01.01,0,.02.01l.08.14s.02,0,.02,0ZM7.66,11.87c.11.05.25.08.42.08.1,0,.2,0,.3,0,0-.04,0-.08,0-.12v-.02c0-.07.01-.13.01-.19,0-.03,0-.07,0-.1,0-.05.01-.11.01-.16-.06,0-.12.01-.18.01-.15,0-.31-.03-.44-.14-.03-.03-.1-.08-.14-.16-.06.03-.1.07-.14.12-.07.09-.08.19-.08.3,0,.1-.01.16.02.23h0s0,0,0,0c.04.08.12.12.21.15ZM7.52,8.67v-.09s-.03.02-.05.03l.05.06ZM7.51,13.56c0,.19.09.33.13.39.09.14.21.21.3.25.12,0,.21-.01.24-.01,0-.01.02-.03.03-.04-.02-.03-.03-.06-.03-.09-.03-.14.05-.26.08-.3.04-.05.09-.1.14-.13-.06-.09-.08-.22-.06-.37.02-.12.05-.25.1-.37-.08,0-.15,0-.19,0h0s0,0,0,0c0,0,0,0,0,0h0s0,0,0,0c0,0,0,0,0,0,0,0,0,0,0,0,0,0,0,0,0,0h0s0,0,0-.01h0c.04-.08.08-.16.13-.23v-.02c-.11.06-.22.11-.33.13-.06.01-.14.03-.23.03-.1,0-.2-.02-.31-.08-.03-.01-.05-.03-.07-.05-.05.06-.08.12-.1.19,0,.01,0,.03-.01.06-.01.06-.02.19.04.3,0,0,.02.03.15.21,0,0,0,.01,0,.02,0,0,0,.01,0,.02h0s0,.07,0,.11c0,.01,0,.02,0,.03ZM7.53,12.64c.19.11.38.07.51.05.12-.02.23-.07.34-.13,0-.1,0-.2,0-.31,0-.09,0-.18,0-.27-.07,0-.14.01-.2.01-.03,0-.06,0-.1,0-.17,0-.33-.04-.43-.09-.08-.04-.17-.07-.22-.15-.04.03-.08.07-.11.11-.05.08-.1.21-.06.4,0,.03.05.2.19.33.02.02.05.04.08.06ZM7.55,16.55c.05-.04.11-.08.19-.1.13-.03.22.04.34.12.06.04.13.09.21.13.15.08.24.01.29-.04-.04-.11,0-.23.02-.26-.02-.04-.06-.06-.11-.06-.15-.01-.45-.1-.46-.1,0,0-.01,0-.01,0,0,0,0-.01,0-.02.07-.24.17-.53.36-.74.08-.09.17-.17.25-.24.08-.07.16-.14.23-.22.18-.2.33-.38.44-.56,0,0,.01-.01.02,0,.01,0,.01.01.01.02-.04.23.18.7.24.82.17-.23.25-.42.23-.59,0-.02,0-.04-.01-.06,0-.04-.03-.08-.04-.12-.03-.06-.06-.13-.06-.24,0-.07.02-.12.05-.17.02-.04.05-.1.08-.19.05-.15.06-.28.07-.37,0-.03,0-.06,0-.09-.04.03-.07.07-.1.11-.02.02-.03.04-.04.06-.02.04-.04.07-.09.09-.02.01-.04.02-.07.02,0,0,0,0,0,0-.02.02-.04.03-.06.03-.02,0-.04,0-.07.02-.02.01-.03.03-.04.04s-.03.04-.06.06c-.03.02-.06.04-.09.04-.01,0-.02,0-.03,0,0,0,0,0-.01,0-.03.03-.06.05-.09.06,0,0,0,0-.01,0,.01.04.02.09,0,.15-.02.05-.07.1-.12.12-.01,0-.02,0-.03,0,0,0-.02,0-.02,0-.02-.01-.03-.04-.03-.06s-.01-.06-.03-.1c-.01-.02-.02-.04-.03-.05,0,0-.01-.02-.02-.03-.01-.02-.02-.04-.03-.06-.04.14-.09.28-.15.42,0,.02-.01.04-.02.06h0c-.03.09-.06.16-.08.22h0c-.1.22-.17.32-.23.41v.02c-.07.07-.12.15-.18.32h0c-.02.06-.08.21-.19.22,0,0-.01,0-.02,0-.06,0-.11-.03-.14-.07-.01-.01-.02-.02-.02-.04-.16.19-.38.41-.54.43-.04,0-.09.01-.15.02h0c-.12.02-.23.06-.34.08-.11.03-.2.05-.24.05-.05,0-.11-.01-.17-.03-.1-.02-.21-.05-.27-.02h0s-.02.02-.03.03c-.02.02-.03.05-.04.07,0,.01.02.02.02.03h0s.01.04.02.05c.03.06.03.1.02.13.04-.05.1-.08.15-.09.08,0,.15.02.22.04.07.03.15.05.22.04.01,0,.02,0,.02.01,0,.01,0,.02-.02.02-.09.01-.17-.01-.24-.04-.07-.02-.14-.04-.2-.04-.05,0-.1.04-.14.09-.03.04-.05.08-.05.13,0,0,.01,0,.02,0,.08.02.13.05.13.09,0,.05-.02.09-.05.12.01.01.02.02.03.03.21.15.46,0,.64-.11.05-.03.08-.05.12-.07.17-.08.38-.05.51,0,.06.03.11,0,.17-.05ZM7.56,9.24s.02,0,.03,0l-.05-.08-.03.09s.03,0,.04,0ZM7.58,8.55l.07.07v-.12s-.04.03-.07.05ZM7.57,9.52c.03.07.07.15.1.2.04-.12.17-.38.58-.46.09-.02.2-.03.31-.02-.03-.07-.06-.13-.08-.18-.02,0-.08-.02-.19,0h0s-.08.02-.12.03h-.03s-.06.03-.08.04h-.03s-.04.03-.04.03h0s-.08.03-.12.05c-.01,0-.03.01-.04.02h0c-.06.03-.11.05-.19.06h0s-.04,0-.07,0c-.02,0-.05,0-.07,0-.02,0-.04,0-.06,0h-.11c-.05,0-.1,0-.16,0-.02,0-.03,0-.04,0,.01.11.06.33.12.38,0,0,0,0,0,.01,0,0,0,.02,0,.03,0,.08-.02.25.07.33.13-.24.21-.45.21-.51,0,0,0-.02.01-.02,0,0,.02,0,.02,0ZM9.79,8.11c.03-.21.41-.45.55-.54h-.12s-.01-.01-.02-.02c0,0,0-.01,0-.02.02-.04.04-.23.04-.39-.05.05-.16.13-.38.16-.32.05-.62.21-.72.31h0c-.08.09-.12.22-.12.22,0,.01,0,.01-.02.01h0s-.02-.01-.01-.02c0,0,.03-.12.11-.21-.07,0-.14,0-.21-.01-.06,0-.12,0-.17,0-.17-.01-.32-.02-.47-.02-.02,0-.03,0-.05,0-.13,0-.26,0-.38.02-.11.03-.19.07-.26.14-.02.03-.05.06-.07.09,0,0,0,.02-.01.03q-.03.07-.04.07c-.08,0-.15,0-.22,0,.04.06.13.21.13.29,0,.11-.08.17-.08.17,0,0,0,0,0,0,0,0-.01,0-.02,0,0,0,0-.02,0-.03,0,0,.07-.05.07-.14,0-.07-.1-.23-.14-.29-.57.03-.89.16-1.06.26-.15.09-.22.18-.24.22.48-.07.82-.05,1.01.05.03-.02.09-.06.13-.1.04-.03.06-.16.06-.21,0-.01.01-.02.02-.02.01,0,.02.01.02.02,0,.02-.02.18-.07.23-.03.03-.09.07-.12.09.09.06.13.13.16.19h0c.05,0,.13-.02.22-.05.04-.02.09-.03.13-.05.04-.02.08-.04.11-.06.06-.03.1-.06.12-.08h0s0,0,0,0h0s0,0,0,0h0c.2-.04.53.14.63.24.01.01.03.03.05.06.04.06.09.16.16.29.03.06.06.14.1.22.03.07.06.14.08.17,0,0,0,0,0,0,.04-.04.07-.08.08-.14,0,0,0-.01,0-.02,0-.05.01-.12.06-.11.02,0,.03.02.04.05,0,.01.01.03.02.06.02.04.04.08.05.09,0,0,.02-.03.07-.14v-.02s.04-.07.06-.07c.03-.01.06,0,.14.07.03.02.05.04.07.05.02.02.04.03.05.04,0-.02-.02-.08-.04-.16-.01-.03-.03-.06-.04-.08-.02-.04-.04-.07-.02-.09.02-.03.06-.02.16-.01.01,0,.03,0,.04,0,0,0,.01,0,.02,0,0-.02-.05-.07-.1-.1-.03-.02-.06-.03-.08-.03-.03,0-.05-.01-.05-.04,0-.04.06-.08.15-.14.01,0,.02-.01.03-.02.01,0,.03-.01.03-.02,0-.02-.08-.08-.19-.09h-.02s-.05,0-.06-.03c-.01-.03.01-.05.04-.08,0,0,.01-.02.02-.02.02-.02.03-.05.05-.08-.04,0-.08-.01-.13-.02-.01,0-.02-.01-.01-.02,0-.01.01-.02.02-.01.05.01.1.02.15.03.22.02.4-.04.47-.11l.02-.04ZM7.87,14.21c-.08-.05-.18-.12-.26-.24-.05-.07-.13-.22-.14-.42v-.03s0-.06,0-.08c-.13,0-.26-.02-.38-.03-.24-.04-.44-.1-.59-.18-.08-.05-.15-.1-.2-.17l-.02-.02c-.06-.08-.12-.15-.17-.22-.2-.26-.28-.44-.17-.64,0,0,0,0,.01-.01,0,0,.01,0,.03,0-.03-.32-.12-.73-.27-.9-.01-.01-.02-.02-.03-.03h0c-.1-.15-.08-.4-.05-.6.01-.08.02-.16.03-.22.02-.15.05-.27.03-.32-.01-.03-.02-.05-.04-.07-.05.06-.09.08-.18.08-.02,0-.05,0-.08,0-.12.17-.09.54-.04.81,0,0,0,.02-.01.02,0,0,0,0,0,0,0,0-.01,0-.01,0-.06-.06-.14-.25-.2-.41-.03-.09-.07-.17-.08-.19s-.04-.03-.06-.04c0,.03-.02.05-.04.07-.05.04-.12.05-.16.05-.01,0-.02,0-.03,0,0,0-.01,0-.02-.02-.07.07-.05.1,0,.18.02.03.04.06.06.09,0,0,0,0,0,.01-.02.37.28.43.29.43.01,0,.02.01.02.02,0,.03-.07.77-.09.87-.03.14-.12.26-.28.39-.11.09-.13.14-.12.16s.02.03.06.04c0,0,0,0,.01,0,.04-.02.07,0,.09,0,.06.04.08.15.08.21.01.01.02.01.03.01.04,0,.11-.19.15-.35,0,0,0,0,0,0,0,0,.12-.16.22-.42,0-.01.01-.01.02-.01.01,0,.02.01.01.02-.05.51.65,1.2,1.08,1.61.09.09.17.17.22.23.24.27.32.91.34,1.08.08-.09.3-.37.35-.67,0,0,0-.01.01-.02.19-.04.41-.07.58-.08ZM7.94,14.24c-.17.01-.41.04-.62.09-.07.37-.38.7-.39.71,0,0,0,0-.01,0h0s-.01-.01-.01-.02c0,0-.07-.81-.34-1.11-.05-.06-.13-.13-.22-.22-.4-.39-1.05-1.03-1.09-1.54-.09.2-.17.32-.18.34-.02.07-.1.35-.18.37-.02,0-.04,0-.05-.01-.09.11-.21.15-.34.15-.07,0-.14-.01-.2-.03,0,0-.01-.01-.01-.02,0,0,0-.02.02-.02.23,0,.33-.24.35-.3-.05-.01-.08-.04-.09-.07-.01-.05.03-.11.14-.2.2-.16.25-.28.27-.37.02-.09.08-.74.09-.85-.07-.02-.33-.11-.31-.46-.02-.03-.03-.06-.05-.09-.05-.08-.09-.14.02-.24-.05-.12-.25-.28-.25-.28,0,0,0-.01,0-.02,0,0,0-.01.01-.01.19-.05.35.02.49.2.04,0,.08.02.11.05.02.02.04.09.09.2.04.1.1.23.14.32-.05-.28-.05-.59.07-.75.05-.27-.24-.42-.24-.42,0,0-.01-.01,0-.02,0,0,0-.01.01-.02.3-.06.5.23.54.36.02.02.05.05.06.09.02.05,0,.18-.02.34,0,.05-.02.1-.02.15.05-.06.12-.11.19-.14h0c.15-.06.15-.37.15-.38,0,0,0-.01.01-.02,0,0,.01,0,.02,0,.15.12.17.29.06.54.04.2-.02.34-.17.4-.11.04-.18.12-.22.25,0,0,.01.01.02.02.18.2.25.66.28.92.06,0,.14.01.19.07.07.07.09.17.06.3.05,0,.1.01.15.03.06.02.24.08.27.22h0c.05,0,.12,0,.19.03.06.03.12.07.16.14.02-.02.04-.04.06-.05.05-.03.11-.05.17-.04,0-.02,0-.04.01-.04.02-.07.06-.14.11-.2-.14-.13-.18-.3-.19-.33-.04-.2.01-.34.07-.43.03-.05.07-.09.12-.13-.03-.07-.03-.14-.02-.23,0-.11.01-.21.09-.32.04-.05.09-.1.16-.13,0,0,0-.02-.01-.03-.05-.18.04-.34.07-.38.05-.08.13-.13.18-.16,0-.03-.01-.05-.02-.08-.01-.15.07-.26.11-.31.04-.05.08-.09.13-.12,0-.02-.01-.04-.02-.06-.02-.13.06-.23.12-.3.03-.04.07-.08.12-.12-.05-.07-.07-.13-.09-.18-.49.11-.55.47-.55.49h0s0,0,0,0c0,0,0,0,0,0,0,0,0,0,0,0,0,0,0,0,0,0t0,0s0,0,0,0c0,0-.01,0-.01,0h0s0,0,0,0h0s0,0,0,0c0,0,0-.04-.09-.2-.03.12-.12.32-.21.48,0,0,0,0-.01.01h0s0,0-.01,0c-.14-.09-.12-.28-.11-.38v-.02c-.08-.08-.12-.33-.13-.41-.69-.02-1.22-.06-1.35-.07.04.08.08.17.12.25,0,0,0,.02,0,.02,0,0-.01,0-.01,0,0,0,0,0,0,0-.79-.4-1.13-1.28-1.14-1.31,0-.01,0-.02.01-.03,0,0,.02,0,.02,0,.34.33.98.47,1.33.53,0,0,.01,0,.02.01,0,0,0,.02,0,.02-.09.06-.19.11-.28.14.23.01.86.04,1.5,0,.36-.02.72-.06,1.03-.13-.01-.01-.02-.03-.03-.03-.1-.1-.4-.26-.58-.23v.19s0,.01-.02.02c0,0-.01,0-.02,0l-.09-.08v.13s-.01.01-.02.02c0,0-.01,0-.02,0l-.07-.08-.02.14s0,.01-.01.02c0,0-.02,0-.02,0l-.08-.09-.03.14s0,.01-.01.01h0s-.01,0-.01,0l-.13-.12s-.04,0-.06,0c0,0-.01,0-.02-.01h0c-.03-.07-.07-.15-.17-.2h0c-.19-.1-.53-.12-1.03-.05,0,0-.01,0-.02,0,0,0,0-.01,0-.02,0-.02.19-.53,1.61-.55,0-.01.01-.03.02-.04.01-.02.01-.03.02-.04.02-.04.04-.07.07-.1.07-.07.16-.12.27-.15.13-.03.26-.03.39-.02.02,0,.03,0,.05,0,.15,0,.3.01.47.02.06,0,.12,0,.17,0,.08,0,.16,0,.23.01.12-.12.43-.27.73-.32.3-.04.39-.18.39-.19,0,0,.01-.01.02,0s.01.01.01.02c0,.04,0,.33-.04.43h.16s.01.02.02.03,0,.02,0,.02c0,0-.57.31-.59.55,0,0,0,0,0,0,0,0,0,0,0,.01.04.06.08.12.12.18.01.02.02.05.03.07.01.04.02.07.05.09.02.01.03.02.06.02.01,0,.03,0,.05.01,0,0,.18.06.31.21.07.08.07.11.06.12-.01.02-.04.01-.07,0-.02-.01-.05-.02-.08-.03-.09-.02-.2,0-.25.04-.02.01-.04.03-.04.05,0,.02.02.05.07.09.07.07.13.1.18.13.01,0,.03.01.04.02.16.09.2.32.19.41,0,.03-.01.05-.02.05-.02,0-.03,0-.04-.02-.01-.02-.03-.04-.06-.06s-.13-.1-.26-.08c-.04,0-.13.02-.16.09-.02.04-.02.11.07.23.04.05.07.06.11.08.03.01.06.03.11.06.16.12.21.34.2.42,0,.03,0,.04-.02.05-.02.01-.04,0-.07-.03-.01-.01-.03-.03-.05-.04-.02-.02-.25-.19-.39-.11-.07.04-.11.14-.1.23.02.09.09.14.19.21.05.03.08.05.11.06.04.02.07.04.11.08.06.07.09.16.09.2,0,.01,0,.02-.01.02-.02.01-.04,0-.05-.02-.01-.01-.03-.03-.06-.04-.09-.05-.26-.04-.31.04-.03.04-.02.1,0,.2.02.08.04.16.08.23.17-.05.34-.09.55-.12h.04c.17-.02.34-.04.5-.1.08-.08.14-.18.18-.3.05-.16.07-.3.06-.41-.01-.19-.02-.54.08-.79.08-.19.19-.29.33-.41.02-.02.05-.04.07-.06.23-.21.85-.67,1.31-.96l.98-.61c.35-.21.69-.43,1.04-.64h0s0,0,0,0h0s0,0,0,0h0s0,0,0,0h0s0,0,0,0h0s0,0,0,.01h0s0,0,0,0h0s-.35.74-.12,1.05c.1.13.28.17.55.12.86-.33,1.91-.75,2.21-.87h.01s0,0,0,0c.01,0,.02,0,.03,0,0,.01,0,.02-.01.03h0s-1.1.75-1.03,1.27c.02.17.17.31.43.4,0,0,0,0,0,0h0s0,0,0,0h0s0,0,0,0h0s0,.01,0,.01c0,0,0,0,0,0,0,0,0,0,0,0h0s0,0,0,0c-.29.13-1.07.49-1.26,1.1-.09.3-.03.63.18.97h0s0,0,0,0h0s0,.01,0,.01h0s0,0,0,0h0s0,0,0,0h0s0,0,0,0h0c-.47-.02-1.04.01-1.26.46.23-.01,1.04-.03,1.38.08.41.14.86.18,1.37.11.15-.02.25-.05.34-.11.1-.07.16-.18.18-.33-.03.02-.07.03-.11.04-.37.15-.9.16-1.18-.08-.14-.12-.21-.31-.18-.52.03-.27.2-.52.42-.63.33-.17.83-.17,1.2,0,.07.03.14.07.21.12.04-.09.07-.18.11-.27.02-.06.05-.13.07-.19.01-.02.02-.05.03-.07-.16.04-.64.15-.93.04,0,0-.01,0-.01-.02,0,0,0-.01,0-.02.19-.13,1.57-1.44,1.76-1.79,0,0,.01-.01.02-.01,0,0,.01.01.01.02-.04.35-.04,1.99.19,2.37,0,0,0,.01,0,.02,0,0,0,0-.02,0h0c-.13-.04-.48-.28-.65-.47-.03.11-.06.21-.09.32-.05.17-.11.32-.17.44.19.36.17.8-.04,1.15-.19.32-.57.61-1.13.87-.34.16-.68.26-1.03.3.07.05.16.09.27.15.04.02.09.05.14.07.51.26,1.19.62,1.34.98,0,0,0,.02-.01.02-.09.04-.44-.04-.56-.19-.07-.08-.13-.12-.16-.14.05.13.19.59.15,1.02-.03.3-.12.56-.18.75-.04.13-.08.24-.08.31,0,.03,0,.05,0,.07,0,.04,0,.07.01.09.02.05.07.07.14.1.01,0,.02,0,.03.01.17.08.28.12.33.17.09,0,.17.02.23.07.13.11.14.3.14.31,0,0,0,.01-.01.02,0,0,0,0,0,0,0,0-.01,0-.01,0-.18-.2-.41-.12-.44-.11-.03.04-.03.04-.05.05-.06.02-.13-.03-.2-.11-.04-.04-.09-.08-.13-.11-.21-.13-.54-.06-.63.05h0s-.04.05-.08.06c-.07.03-.16,0-.19,0-.06-.02-.09-.05-.12-.07-.02-.02-.04-.03-.07-.04-.08-.03-.16,0-.23.04h0s-.06.03-.1.06c-.04.02-.08.05-.17.1-.07.05-.13.08-.17.08-.01,0-.02,0-.04-.01-.01,0-.02-.01-.02-.02-.09-.03-.38.08-.52.17,0,0,0,0-.01,0,0,0,0,0,0,0,0,0-.01-.01-.01-.02.01-.27.24-.38.35-.42.01-.04.08-.09.11-.11.14-.08.29-.07.36-.07h0c-.06-.04-.23-.1-.39-.06-.01,0-.02,0-.03,0-.05.01-.12.03-.22.04-.11,0-.16,0-.18-.04,0,0,0-.01,0-.02h-.03s-.09.01-.13.02c-.08.03-.15.07-.2.14,0,0-.01,0-.02,0,0,0,0,0,0,0,0,0-.01-.01-.01-.02,0-.07.02-.14.05-.2.06-.11.16-.17.23-.19.03-.01.07-.02.1-.03,0,0,0,0,0,0,.05-.09.24-.08.38-.05-.15-.08-.22-.1-.24-.1-.02,0-.05,0-.05-.03,0-.02.01-.05.04-.07-.21-.11-.32.02-.32.02,0,0-.01,0-.01,0s0,0,0,0c0,0-.01-.01-.01-.02,0,0,.03-.16.16-.24.07-.04.16-.05.25-.03.01-.04.06-.05.08-.05.09-.01.18.07.29.19.08.09.18.18.29.25.2.11.61.19.86-.22-.03-.03-.05-.06-.05-.1-.03-.1.03-.18.07-.24.03-.05.07-.09.12-.12-.02-.05-.02-.12-.02-.18,0-.05,0-.11.02-.16-.07-.06-.08-.19-.08-.28,0-.07,0-.15.02-.22-.05-.02-.09-.05-.13-.09-.04-.04-.07-.09-.08-.13,0,0-.01,0-.02,0-.03.01-.07.02-.1.02-.08,0-.14-.03-.14-.03-.04-.02-.08-.05-.11-.09-.01,0-.02.02-.03.02-.06.04-.12.05-.18.05s-.11-.01-.14-.02c-.09-.02-.17-.06-.25-.12-.02.01-.04.02-.06.03-.06.02-.11.03-.17.03-.12,0-.23-.05-.33-.08-.09-.03-.17-.08-.25-.14-.01,0-.03,0-.04,0-.11,0-.21-.03-.3-.09-.05-.04-.1-.08-.14-.13-.07,0-.14-.02-.2-.05-.04-.02-.07-.04-.1-.06-.02-.02-.05-.04-.09-.06-.03.05-.07.1-.12.15-.04.04-.08.06-.11.08-.05.04-.09.06-.14.13-.02.03-.06.1-.07.19-.03.21.1.37.15.41.14.15.32.17.52.19.15.02.31.03.44.11.14.09.25.25.29.43.01.05,0,.08-.03.11-.03.02-.07.02-.11,0-.15-.08-.32-.14-.48-.2-.02,0-.04-.01-.05-.01-.05,0-.11.11-.16.19-.02.03-.03.06-.04.07-.07.11-.16.21-.25.3-.24.25-.65.57-1.19.67h-.06s-.01.01-.02.02c.06.02.16.05.26.05h.05c.12,0,.17,0,.2.07,0,0,0,.01,0,.02.07,0,.42.04.46.4,0,0,0,.02-.01.02,0,0,0,0,0,0,0,0,0,0-.01,0h0c-.05-.06-.2-.22-.42-.12,0,.02-.02.03-.04.04-.07.01-.38-.12-.56-.21-.18-.09-.47.02-.47.02,0,0-.01,0-.02,0,0,0-.23-.12-.55-.04-.17.04-.3.1-.4.15-.09.04-.16.08-.23.08h0s-.08-.02-.11-.05c-.21-.03-.26.03-.34.13-.01.01-.02.03-.03.04,0,0-.01,0-.02,0h0s-.01,0-.01-.02c-.02-.15,0-.26.08-.33.04-.04.1-.06.14-.06,0,0-.01-.01-.01-.02-.14-.03-.21-.08-.23-.12,0-.02,0-.04,0-.06-.06-.07-.21,0-.36.08,0,0,0,0,0,0,0,0-.01,0-.01,0,0,0,0-.01,0-.02.05-.15.13-.26.23-.31.14-.06.27-.02.31,0,.08-.04.21-.06.31,0h.01c.12.08.25.16.46.11-.06-.1-.14-.21-.22-.23-.04-.01-.08-.02-.12-.03-.1-.02-.2-.04-.23-.1-.01-.02-.02-.04-.02-.06-.12-.18-.31-.08-.4-.03h-.01s-.01,0-.02,0c0,0,0-.01,0-.02.05-.12.12-.2.21-.23.12-.04.24,0,.27.02,0,0,0,0,0,0,.05-.04.12-.06.17-.05.05,0,.09.05.13.08,0,0,.02.02.03.02.02.02.04.04.07.06.08.07.17.15.27.21.11.07.22.12.33.14.15-.09.31-.17.65-.16,0-.02,0-.04,0-.06,0-.02.01-.04.02-.05.05-.06.15-.09.24-.11-.01-.09.03-.18.11-.23.03-.02.06-.03.09-.03-.05,0-.11-.01-.16-.05-.03-.03-.06-.08-.06-.14-.04.01-.08.02-.1.02-.04,0-.09.01-.13.01-.14,0-.25-.04-.34-.13-.05-.05-.09-.11-.12-.18-.13-.01-.24-.06-.33-.14-.16-.15-.18-.36-.18-.44,0-.03,0-.05,0-.08-.06.04-.13.06-.2.06,0,0-.01,0-.02,0-.07,0-.14-.02-.2-.05-.08.1-.18.16-.24.2-.07.04-.22.14-.44.14h0c-.05,0-.11,0-.16-.02-.02.03-.05.06-.08.09-.07.07-.16.12-.26.15.01.18-.07.39-.26.63,0,0-.01,0-.02,0,0,0-.01,0-.01-.01-.01-.02-.25-.5-.26-.79-.11.16-.24.32-.41.5-.07.08-.16.15-.23.22-.09.08-.17.16-.25.24-.18.2-.27.48-.35.71.07.02.32.08.44.09.06,0,.11.03.14.08.09-.02.17,0,.24.04.11.08.15.22.17.3,0,0,0,.02-.01.02,0,0,0,0,0,0,0,0-.01,0-.01,0-.18-.17-.3-.11-.37-.07,0,0-.01,0-.02.01-.04.05-.15.15-.34.05-.08-.04-.15-.09-.21-.14-.11-.08-.2-.14-.31-.12-.07.02-.13.06-.18.09-.06.05-.13.09-.21.06-.12-.05-.31-.08-.47,0-.03.02-.07.04-.11.07-.13.08-.29.18-.46.18-.07,0-.15-.02-.22-.07-.01-.01-.03-.02-.04-.03-.01,0-.03,0-.05,0-.07.01-.19.02-.35.19,0,0,0,0,0,0,0,0,0,0-.01,0,0,0-.01,0-.01,0,0,0,0-.01,0-.02,0-.03.1-.4.32-.42,0-.05.02-.09.05-.14,0,0,0,0,0,0-.39-.07-.52-.04-.62.04,0,0,0,0-.01,0s0,0,0,0c0,0-.01-.01,0-.02.03-.18.23-.33.43-.32.07,0,.12.02.16.04.01-.03.02-.05.04-.07.01-.01.02-.02.04-.03-.01-.05-.02-.1-.02-.14-.03-.01-.06-.03-.08-.06-.02-.02-.04-.03-.07-.03-.08,0-.17.08-.18.08,0,0-.01,0-.02,0,0,0-.01-.01-.01-.02,0-.09.04-.17.1-.21.08-.05.19-.06.33-.02.03,0,.06.03.08.05.03,0,.06,0,.09,0,.13.01.19.05.25.09.04.03.08.05.14.06.02,0,.04.01.07.02.09.02.21.06.36.07.06-.01.11-.02.15-.02.12-.01.31-.17.53-.43-.02-.08,0-.18.06-.31.04-.09.11-.17.19-.24-.02-.05-.03-.1-.02-.15.01-.09.08-.15.17-.24.01-.01.03-.03.05-.04-.03-.04-.04-.09-.04-.14,0-.04,0-.08.03-.13-.04,0-.12,0-.22.01h0Z"/>
        </g>
      </g>
    </g>
  </g>
</svg>