<?xml version="1.0" encoding="UTF-8"?>
<svg id="Layer_1" data-name="Layer 1" xmlns="http://www.w3.org/2000/svg" viewBox="0 0 24 24">
  <defs>
    <style>
      .cls-1 {
        fill: #000;
      }

      .cls-1, .cls-2, .cls-3, .cls-4, .cls-5 {
        stroke-width: 0px;
      }

      .cls-2 {
        fill: #dd2010;
      }

      .cls-3 {
        fill: #ee7c0a;
      }

      .cls-4 {
        fill: none;
      }

      .cls-5 {
        fill: #15890b;
      }
    </style>
  </defs>
  <rect class="cls-4" width="24" height="24"/>
  <g>
    <path class="cls-1" d="M16.71,7.34c2.92,2.92,3.18,7.42.57,10.03-2.61,2.61-7.11,2.36-10.03-.57s-3.18-7.42-.57-10.03c2.61-2.61,7.11-2.35,10.03.57Z"/>
    <g>
      <path class="cls-5" d="M21,12s0,.09,0,.14c0,0,0,.02,0,.03v.03h0v.03c-.01.36-.04.71-.09,1.05,0,.04-.01.08-.02.11-.02.12-.04.23-.06.34,0,.02,0,.03-.01.05h0s0,.04-.01.05c-.2.95-.54,1.85-1.02,2.66-.23.4-.49.77-.77,1.13-.37.46-.78.89-1.24,1.27-.93.78-2.02,1.38-3.21,1.73-.82.24-1.68.37-2.57.37h-.64v-.02c-2.58-.18-4.86-1.45-6.38-3.35-.28-.36-.54-.73-.77-1.13-.45-.79-.79-1.64-.99-2.56,0-.02,0-.04-.01-.05,0-.02,0-.03-.01-.05-.07-.33-.12-.66-.15-1,0-.03,0-.06,0-.09h0c-.01-.18-.02-.35-.03-.53,0,0,0-.01,0-.02,0,0,0-.01,0-.02,0-.04,0-.09,0-.13,0,0,0-.01,0-.02v-.03c0-.06,0-.12,0-.18,0,0,0-.01,0-.02,0,0,0-.01,0-.02,0-.18.01-.36.03-.54,0,0,0-.02,0-.02,0-.01,0-.02,0-.03,0-.06.01-.12.02-.18,0-.01,0-.02,0-.03h0s0-.02,0-.02c.14-1.25.54-2.42,1.14-3.46.23-.39.49-.77.77-1.13,1.65-2.06,4.18-3.37,7.02-3.37,2.24,0,4.29.82,5.86,2.17,0,0,.02.01.02.02.06.04.11.09.16.15,0,0,.01.01.02.02.02.02.05.04.07.07.01,0,.02.02.03.03.05.05.11.11.16.16.01.01.02.02.03.03.02.02.03.04.05.05l.02.02c.1.11.2.21.3.32,0,0,.01.02.02.02.04.04.08.09.12.13,0,0,.01.02.02.02.04.05.09.11.13.16.29.35.54.73.77,1.13.35.61.63,1.26.84,1.94.05.17.09.34.13.51,0,0,0,.01,0,.02v.02c.05.2.09.41.13.62,0,0,0,.01,0,.02,0,0,0,.02,0,.02.05.36.08.73.09,1.11v.04c0,.06,0,.12,0,.18Z"/>
      <g>
        <path class="cls-2" d="M14.57,9.44v11.18c-.82.24-1.68.37-2.57.37h-.64v-11.56h3.21Z"/>
        <path class="cls-3" d="M21,12s0,.09,0,.14c0,0,0,.02,0,.03v.03h0v.03c-.01.36-.04.71-.09,1.05,0,.04-.01.08-.02.11-.02.12-.04.23-.06.34,0,.02,0,.03-.01.05h0s0,.04-.01.05c-.2.95-.54,1.85-1.02,2.66-.23.4-.49.77-.77,1.13-.37.46-.78.89-1.24,1.27v-9.45h2.85c.05.17.09.34.13.51,0,0,0,.01,0,.02v.02c.05.2.09.41.13.62,0,0,0,.01,0,.02,0,0,0,.02,0,.02.05.36.08.73.09,1.11v.04c0,.06,0,.12,0,.18Z"/>
        <path class="cls-1" d="M17.79,9.44v9.45c-.93.78-2.02,1.38-3.21,1.73v-11.18h3.21Z"/>
      </g>
      <g>
        <path class="cls-3" d="M18.87,6.19s-.07-.09-.12-.13c0,0-.01-.01-.02-.02-.09-.11-.2-.22-.3-.32l-.02-.02s-.04-.04-.05-.05c0,0-.02-.02-.03-.03-.05-.05-.11-.11-.16-.16-.01-.01-.02-.02-.03-.03-.02-.02-.05-.05-.07-.07,0,0-.01-.02-.02-.02-.05-.05-.11-.1-.16-.15,0-.01-.02-.02-.02-.02-.01,0-.03,0-.04,0-.12.02-.26.06-.4.11-.11.03-.22.07-.32.09-.5-.03-.8-.01-.93.06-.06-.11-.06-.18-.04-.23.02-.06.06-.09.08-.09.04-.01.18-.03.2-.03,0,0,.01,0,.02.01.02.03,0,.08,0,.08,0,0,0,.01,0,.01,0,0,.01,0,.01,0,0,0,.08-.04.11-.11.01-.03,0-.05,0-.08-.05-.1-.25-.11-.3-.11-.03-.06-.15-.09-.23-.1-.12-.02-.25,0-.37.06-.23.11-.31.42-.32.5-.05-.02-.13-.04-.25-.06-.1-.02-.22-.03-.32-.04-.12-.01-.22-.02-.26-.04-.04-.02-.43-.18-.71-.3-.16-.07-.29-.13-.32-.14-.03-.01-.04,0-.05,0-.01.01-.01.03,0,.05.02.07.1.14.15.2l.02.02s.03.03.05.04c-.21-.1-.54-.24-.73-.32-.06-.02-.1-.04-.13-.05-.04-.02-.09-.04-.14-.07-.15-.08-.21-.11-.23-.09,0,0,0,0,0,0-.03.07.02.13.06.19,0,0,.01.01.01.02.05.06.1.12.16.18.07.07.15.12.24.17h-.02s-.08-.04-.12-.06c-.16-.07-.31-.13-.44-.24-.01-.01-.03-.03-.04-.04-.02-.02-.04-.04-.06-.06-.03-.02-.07-.06-.09-.05,0,0,0,0-.01.01-.02.08.03.17.07.25v.02c.05.06.08.12.13.16-.04-.03-.09-.06-.13-.09-.1-.07-.14-.1-.16-.09,0,0,0,0,0,0,0,0,0,0,0,.01.03.18.15.28.35.38-.17-.07-.28-.13-.33-.18-.01,0-.02-.01-.03-.01,0,0,0,0-.01,0s0,0,0,0c-.01.11.08.18.14.23.07.05.15.11.24.16.15.07.31.12.47.16-.05,0-.1.01-.11.04,0,.01,0,.03.02.05.03.03.16.13.53.08-.12.03-.21.05-.28.05-.01,0-.05,0-.05.03,0,.05.16.11.21.12.14.03.29.03.47,0-.11.03-.19.05-.23.05-.03,0-.04.01-.04.03,0,.03.08.07.15.08,0,0,.29.05.55,0-.07.02-.13.04-.16.04-.02,0-.02.01-.02.02,0,.04.13.1.22.1.02,0,.04,0,.06,0,.05,0,.12,0,.2,0-.04.02-.05.03-.05.05,0,0,0,.01.02.02.02.02.09.03.18.03.04,0,.09,0,.14-.02-.05.04-.04.05-.04.06,0,0,0,0,0,0,.04.01.09.02.13.02.08,0,.16-.02.24-.04-.04.04-.06.07-.05.09.01.03.06.03.17.02.07-.01.18-.05.28-.08-.07.04-.11.07-.1.1.01.03.06.13.28.13.02,0,.03,0,.05,0,.08,0,.13-.02.16-.03v.09s0,.01,0,.01c0,0,.01,0,.01,0l.05-.07c-.03.11-.1.33-.1.42,0,0,0,0,0,.01,0,0,0,0,0,0h0c.07-.03.12-.1.16-.17,0,.05-.01.11-.02.15,0,.04-.01.07-.01.1,0,0,0,0,0,.01,0,0,0,0,0,0,0,0,0,0,0,0,0,0,0,0,.01,0-.01.04-.04.12-.1.14-.02,0-.04.01-.07.01-.11.01-.29.03-.27.3,0,0,0,.01,0,.01,0,0,.01,0,.01,0,.03-.05.05-.07.05-.07.01,0,.12.02.22-.03-.03.05-.04.09-.01.13,0,.05,0,.13.08.15,0,0,0,0,.01,0,0,0,0,0,0-.01v-.08s.09-.03.13-.12c.01.07.03.1.08.13,0,0,0,.01,0,.02.02.05.03.09.11.09,0,0,0,0,.01,0,0,0,0-.01,0-.01-.01-.01-.02-.03-.02-.04-.02-.04-.03-.05-.02-.07.02-.01.06-.06.06-.12,0,0,0-.01,0-.02.01.04.04.07.06.09,0,0,0,0,.01,0,0,0,0,0,0-.01,0-.02,0-.04,0-.06,0-.02,0-.03,0-.04.03,0,.09,0,.13-.04-.01.05,0,.09.02.13,0,.05,0,.1.04.13.01.01.03.02.05.02,0,0,.01,0,.02,0,0,0,0,0,0,0,0,0,0,0,0-.01-.02-.04-.03-.07-.03-.1.02,0,.04-.01.07-.04.03-.04.04-.1.02-.18.01-.02.02-.02.02-.02,0,0,.01,0,.02.02,0,0,0,.01.01.02.02.04.04.09.13.09,0,0,0,.02,0,.04,0,.01,0,.02-.03.03,0,0-.01,0,0,.02,0,0,0,.01.01.01.05,0,.12-.05.14-.12.01-.04,0-.12-.09-.2,0,0,0-.02.02-.02s.05,0,.12.06c0,0,0,0,.01,0,0,0,0,0,0-.01,0-.03.01-.07-.02-.1-.03-.04-.09-.05-.19-.05,0,0,0,0,0,0-.02-.01-.04-.03-.03-.09.05.04.1.06.17.07h0s0,0,.01,0c0,0,0,0,0-.01,0-.01-.02-.03-.03-.06-.04-.06-.1-.18-.1-.24.02,0,.03.02.05.03.05.04.1.08.16.06,0,0,.01,0,0-.01,0-.02-.02-.04-.05-.07-.02-.02-.04-.04-.07-.07.08.06.17.08.23.09.02,0,.04,0,.05-.02,0-.01,0-.03-.02-.06.12.07.26.11.31.11.05,0,.08-.01.09-.03,0-.02,0-.03,0-.06,0,0,0,0,0,0,0,0-.11-.07-.21-.15.21.11.5.14.54.13.02,0,.03-.01.03-.03,0-.04-.04-.1-.15-.17,0,0,0,0,0,0,.03,0,.07.01.12.01.07,0,.15-.01.22-.05,0,0,0,0,0,0,0,0,0-.01,0-.02,0-.01-.03-.03-.05-.04.08,0,.16-.01.24-.04,0,0,0,0,0,0,0,0,.01-.01,0-.02,0-.02-.04-.04-.08-.06h.03s.08,0,.13,0c.3-.03.45-.2.48-.22.04,0,.08-.01.12-.02,0,0-.01-.02-.02-.02ZM16.11,7.27v-.14s.05.05.08.07c0,0,0,0,.01,0,0,0,0,0,.01-.01,0-.04,0-.07-.03-.18.02-.1.03-.38.03-.49.02.04.05.08.07.12v.02c.08.13.16.4.13.55,0,0,0,.01,0,.01,0,0,.01,0,.01,0,.02,0,.03-.02.04-.03,0,.06,0,.13-.01.15,0,0-.04,0-.07,0-.05,0-.13,0-.18.03l-.07-.04s-.04-.04-.04-.07ZM16.15,7.59s-.02-.03-.03-.05c.01-.01.02-.02.03-.03,0,.03,0,.05,0,.08Z"/>
        <g>
          <path class="cls-1" d="M18.42,5.7s-.09.02-.14.03c0,0-.01.01-.01.02s0,.01.01.01h0c.05-.01.1-.03.15-.04l-.02-.02ZM18.74,6.04c-.53.08-.94-.05-.95-.05,0,0-.01,0-.02,0s0,.01,0,.02c0,0,.25.08.62.08.11,0,.23,0,.36-.03,0,0-.01-.01-.02-.02ZM18.87,6.19s-.07.01-.11.02h0c-.17.02-.36.04-.59.05-.02-.01-.05-.02-.11-.03-.16-.03-.47-.13-.63-.21-.08-.04-.18-.1-.27-.16.03.01.06.02.09.04.22.08.4.09.53.02h0s.11.02.18.02c.03,0,.07,0,.1,0,0,0,.01,0,.01-.02,0,0-.01-.01-.02-.01-.09.02-.23,0-.27,0h0c-.07-.04-.12-.07-.17-.09-.04-.02-.07-.04-.1-.05.2.06.5.12.64.07,0,0,.01,0,0-.02,0-.02-.06-.05-.13-.08.02,0,.05,0,.07,0,.02,0,.04,0,.06,0,.11,0,.15,0,.15-.03,0-.02-.01-.03-.07-.06,0,0,0,0,0,0h.01s.07,0,.11,0c0,0-.02-.02-.03-.03-.03,0-.05,0-.08,0-.04,0-.08-.01-.13-.02-.04-.01-.09-.02-.13-.03,0,0-.01,0-.01.01,0,0,0,.01,0,.01.04.01.09.02.13.03.04.01.08.03.12.04s.05.03.05.03c-.02,0-.07,0-.13.01-.02,0-.04,0-.06,0-.09,0-.16-.01-.22-.03-.06-.02-.12-.03-.17-.04,0,0-.01,0-.01.01,0,0,0,.01,0,.01.05,0,.09.02.14.03,0,0,.02,0,.02,0,.11.03.22.08.25.11-.17.04-.56-.04-.74-.12,0,0-.01,0-.02,0s0,.01,0,.02c.06.04.13.07.22.13.04.02.09.05.15.08-.12.05-.29.04-.49-.03-.11-.04-.17-.08-.27-.14.05,0,.06-.01.06-.03,0-.02-.02-.04-.08-.07.36.07.37.03.38.01,0-.02,0-.04-.08-.09.24.03.38.02.39-.03,0-.03-.03-.06-.07-.09.1,0,.21-.02.32-.04.06.03.15.05.25.06-.01-.01-.02-.02-.03-.03-.07-.01-.13-.03-.17-.04.03,0,.07-.02.1-.02,0,0-.01-.02-.02-.02-.15.04-.35.08-.5.07,0,0-.01,0-.01.01,0,0,0,.01,0,.01.06.02.11.06.11.08,0,.01-.03.07-.42,0,0,0-.01,0-.01.01s0,.01,0,.01c.13.07.13.09.13.09,0,0-.03.04-.46-.05,0,0-.01,0-.02.01s0,.01,0,.02h0s.15.06.16.08c-.01,0-.06.02-.36-.02,0,0-.01,0-.02.01,0,0,0,.01,0,.01.05.02.09.05.09.05,0,0-.02.03-.28-.01-.05-.08-.15-.21-.26-.27-.02,0-.03-.02-.04-.03.13-.07.43-.09.92-.05h0c.11-.02.22-.06.33-.09.14-.04.27-.09.39-.11.02,0,.04,0,.06-.01,0-.01-.02-.02-.02-.02-.01,0-.03,0-.04,0-.12.02-.26.06-.4.11-.11.03-.22.07-.32.09-.5-.03-.8-.01-.93.06-.06-.11-.06-.18-.04-.23.02-.06.06-.09.08-.09.04-.01.18-.03.2-.03,0,0,.01,0,.02.01.02.03,0,.08,0,.08,0,0,0,.01,0,.01,0,0,.01,0,.01,0,0,0,.08-.04.11-.11.01-.03,0-.05,0-.08-.05-.1-.25-.11-.3-.11-.03-.06-.15-.09-.23-.1-.12-.02-.25,0-.37.06-.23.11-.31.42-.32.5-.05-.02-.13-.04-.25-.06-.1-.02-.22-.03-.32-.04-.12-.01-.22-.02-.26-.04-.04-.02-.43-.18-.71-.3-.16-.07-.29-.13-.32-.14-.03-.01-.04,0-.05,0-.01.01-.01.03,0,.05.02.07.1.14.15.2l.02.02s.03.03.05.04c-.21-.1-.54-.24-.73-.32-.06-.02-.1-.04-.13-.05-.04-.02-.09-.04-.14-.07-.15-.08-.21-.11-.23-.09,0,0,0,0,0,0-.03.07.02.13.06.19,0,0,.01.01.01.02.05.06.1.12.16.18.07.07.15.12.24.17h-.02s-.08-.04-.12-.06c-.16-.07-.31-.13-.44-.24-.01-.01-.03-.03-.04-.04-.02-.02-.04-.04-.06-.06-.03-.02-.07-.06-.09-.05,0,0,0,0-.01.01-.02.08.03.17.07.25v.02c.05.06.08.12.13.16-.04-.03-.09-.06-.13-.09-.1-.07-.14-.1-.16-.09,0,0,0,0,0,0,0,0,0,0,0,.01.03.18.15.28.35.38-.17-.07-.28-.13-.33-.18-.01,0-.02-.01-.03-.01,0,0,0,0-.01,0s0,0,0,0c-.01.11.08.18.14.23.07.05.15.11.24.16.15.07.31.12.47.16-.05,0-.1.01-.11.04,0,.01,0,.03.02.05.03.03.16.13.53.08-.12.03-.21.05-.28.05-.01,0-.05,0-.05.03,0,.05.16.11.21.12.14.03.29.03.47,0-.11.03-.19.05-.23.05-.03,0-.04.01-.04.03,0,.03.08.07.15.08,0,0,.29.05.55,0-.07.02-.13.04-.16.04-.02,0-.02.01-.02.02,0,.04.13.1.22.1.02,0,.04,0,.06,0,.05,0,.12,0,.2,0-.04.02-.05.03-.05.05,0,0,0,.01.02.02.02.02.09.03.18.03.04,0,.09,0,.14-.02-.05.04-.04.05-.04.06,0,0,0,0,0,0,.04.01.09.02.13.02.08,0,.16-.02.24-.04-.04.04-.06.07-.05.09.01.03.06.03.17.02.07-.01.18-.05.28-.08-.07.04-.11.07-.1.1.01.03.06.13.28.13.02,0,.03,0,.05,0,.08,0,.13-.02.16-.03v.09s0,.01,0,.01c0,0,.01,0,.01,0l.05-.07c-.03.11-.1.33-.1.42,0,0,0,0,0,.01,0,0,0,0,0,0h0c.07-.03.12-.1.16-.17,0,.05-.01.11-.02.15,0,.04-.01.07-.01.1,0,0,0,0,0,.01,0,0,0,0,0,0,0,0,0,0,0,0,0,0,0,0,.01,0-.01.04-.04.12-.1.14-.02,0-.04.01-.07.01-.11.01-.29.03-.27.3,0,0,0,.01,0,.01,0,0,.01,0,.01,0,.03-.05.05-.07.05-.07.01,0,.12.02.22-.03-.03.05-.04.09-.01.13,0,.05,0,.13.08.15,0,0,0,0,.01,0,0,0,0,0,0-.01v-.08s.09-.03.13-.12c.01.07.03.1.08.13,0,0,0,.01,0,.02.02.05.03.09.11.09,0,0,0,0,.01,0,0,0,0-.01,0-.01-.01-.01-.02-.03-.02-.04-.02-.04-.03-.05-.02-.07.02-.01.06-.06.06-.12,0,0,0-.01,0-.02.01.04.04.07.06.09,0,0,0,0,.01,0,0,0,0,0,0-.01,0-.02,0-.04,0-.06,0-.02,0-.03,0-.04.03,0,.09,0,.13-.04-.01.05,0,.09.02.13,0,.05,0,.1.04.13.01.01.03.02.05.02,0,0,.01,0,.02,0,0,0,0,0,0,0,0,0,0,0,0-.01-.02-.04-.03-.07-.03-.1.02,0,.04-.01.07-.04.03-.04.04-.1.02-.18.01-.02.02-.02.02-.02,0,0,.01,0,.02.02,0,0,0,.01.01.02.02.04.04.09.13.09,0,0,0,.02,0,.04,0,.01,0,.02-.03.03,0,0-.01,0,0,.02,0,0,0,.01.01.01.05,0,.12-.05.14-.12.01-.04,0-.12-.09-.2,0,0,0-.02.02-.02s.05,0,.12.06c0,0,0,0,.01,0,0,0,0,0,0-.01,0-.03.01-.07-.02-.1-.03-.04-.09-.05-.19-.05,0,0,0,0,0,0-.02-.01-.04-.03-.03-.09.05.04.1.06.17.07h0s0,0,.01,0c0,0,0,0,0-.01,0-.01-.02-.03-.03-.06-.04-.06-.1-.18-.1-.24.02,0,.03.02.05.03.05.04.1.08.16.06,0,0,.01,0,0-.01,0-.02-.02-.04-.05-.07-.02-.02-.04-.04-.07-.07.08.06.17.08.23.09.02,0,.04,0,.05-.02,0-.01,0-.03-.02-.06.12.07.26.11.31.11.05,0,.08-.01.09-.03,0-.02,0-.03,0-.06,0,0,0,0,0,0,0,0-.11-.07-.21-.15.21.11.5.14.54.13.02,0,.03-.01.03-.03,0-.04-.04-.1-.15-.17,0,0,0,0,0,0,.03,0,.07.01.12.01.07,0,.15-.01.22-.05,0,0,0,0,0,0,0,0,0-.01,0-.02,0-.01-.03-.03-.05-.04.08,0,.16-.01.24-.04,0,0,0,0,0,0,0,0,.01-.01,0-.02,0-.02-.04-.04-.08-.06h.03s.08,0,.13,0c.3-.03.45-.2.48-.22.04,0,.08-.01.12-.02,0,0-.01-.02-.02-.02ZM16.7,5.81c.07,0,.09-.01.09-.03s-.01-.03-.04-.05c.09.01.16.02.2.02.06.07.31.23.47.31.16.08.47.17.63.21.1.02.11.04.12.04,0,0,0,0-.01,0-.51.13-1.2-.31-1.4-.45,0,0-.01,0-.02,0,0,0,0,.01,0,.02.12.14.52.35.76.48.06.03.12.06.15.08-.07.01-.23.03-.42-.05-.03-.01-.07-.03-.11-.06h0s0,0,0,0c-.23-.15-.58-.46-.61-.49,0,0,0-.01,0-.02,0,0,0-.01-.01-.02.09.01.15.02.2.02ZM14.29,6.4s.05-.03.09-.06c.01,0,.03-.02.04-.03.07-.03.15-.07.24-.15,0,0,0-.01,0-.02,0,0-.01,0-.02,0-.1.07-.18.12-.24.15-.13.05-.23.04-.3.04-.02,0-.04,0-.06,0-.08,0-.18-.05-.19-.07.04-.01.3-.08.38-.14,0,0,0-.01,0-.02,0,0-.01,0-.02,0-.28.15-.75.07-.76.07-.06-.01-.12-.04-.13-.06,0,0,0,0,.02,0,.1,0,.36-.09.57-.16,0,0,.01-.01,0-.02,0,0,0-.01-.02,0-.31.09-.57.12-.79.08-.07-.01-.18-.07-.19-.1,0,0,0,0,.02,0,.12,0,.34-.06.64-.16,0,0,.01-.01,0-.02s0-.01-.02,0c-.58.18-.8.06-.85.02-.03-.02-.03-.04-.03-.04,0-.01.09-.03.17-.02h0s.16,0,.33-.05c0,0,.01-.01,0-.02s0-.01-.01,0c-.17.05-.31.05-.32.05h-.03c-.18-.05-.36-.1-.52-.18-.09-.04-.17-.1-.24-.16-.07-.05-.13-.11-.13-.18.04.04.18.16,1.04.43,0,0,.01,0,.02,0,0,0,0-.01,0-.02-.08-.03-.16-.06-.23-.08-.45-.17-.73-.27-.79-.53.03.01.08.05.13.08.08.05.17.12.22.14.02,0,.06.02.11.04.08.04.17.07.25.1h0s.02.01.04.02c.21.08.45.18.59.21,0,0,.01,0,.01,0s0-.01,0-.02c-.05-.02-.1-.03-.15-.05-.15-.05-.3-.11-.44-.16-.1-.04-.19-.08-.26-.11-.01,0-.02,0-.03-.01-.04-.02-.08-.04-.13-.07-.06-.04-.12-.1-.16-.19v-.02c-.05-.06-.09-.15-.08-.22.02,0,.05.03.06.04.02.02.04.04.06.06.02.02.03.03.05.04.13.12.29.18.45.25.04.01.08.03.12.05h.02c.16.08.32.15.48.2.01,0,.03.01.05.02,0,0,.01,0,.02,0s0-.01,0-.02c-.18-.07-.35-.15-.51-.23-.1-.05-.17-.1-.24-.17-.06-.06-.11-.12-.16-.18,0,0,0-.01-.01-.02-.04-.05-.08-.1-.05-.16.02,0,.13.05.2.09.05.03.1.05.14.07.02.01.07.03.13.05.23.09.65.27.83.36.05.03.09.06.14.08-.03.02-.11.07-.25.05,0,0-.01,0-.01,0s0,0,0,.01c0,0,0,0,0,.01.01.04.04.12.31.06-.06.05-.17.12-.21.12,0,0-.01,0-.01.01,0,0,0,.01,0,.01.09.04.21.06.34.06-.07.07-.12.11-.14.13,0,0,0,.01,0,.02,0,0,0,0,.01,0,.12,0,.19,0,.25,0-.06.04-.11.07-.11.07,0,0,0,0,0,.01,0,0,0,.01.01.01.01,0,.23.03.45-.04-.13.08-.23.12-.26.13h0s0,0,0,0t0,0h0s0,0,0,0h0s0,0,0,.01h0s0,0,0,0c.05.03.12.05.22.05.05,0,.11,0,.17-.02.07-.01.15-.03.22-.06-.08.06-.2.14-.22.16-.02.01-.02.03-.01.04,0,.02.05.03.11.03.04,0,.08,0,.14-.01.19-.03.42-.17.48-.26.03.04.06.07.08.08l-.05.06s-.03.02-.04.04h0s-.43.26-.63.35c-.18.07-.36.03-.38.01ZM14.17,5.41s0,0,.01,0c-.05.05-.1.1-.14.14-.12,0-.23-.01-.32-.04.07-.03.19-.11.22-.15,0,0,0-.01,0-.01,0,0,0,0-.01,0-.27.06-.31,0-.32-.03.15.02.23-.05.26-.07.14.06.28.09.4.12-.04.02-.07.03-.09.03,0,0-.01,0-.01,0,0,0,0,.01,0,.01ZM14.21,5.43c.06.03.19.06.32.04-.04.04-.05.05-.06.06-.06.03-.19.11-.29.17-.05,0-.13,0-.25,0,.03-.03.08-.07.14-.13.04-.04.1-.09.15-.15ZM15.31,5.83c-.05.07-.27.23-.47.26-.17.03-.22,0-.22,0,0,0,0,0,0,0,.04-.03.3-.22.32-.23.13-.06.26-.15.34-.25-.02.1,0,.17.03.23ZM15.56,6.71c-.24.01-.29-.08-.3-.12,0-.02.15-.11.28-.17,0,0,0-.01,0-.01,0,0-.01-.01-.02,0,0,0-.32.13-.48.15-.12.02-.14,0-.14,0,0,0,0-.03.1-.11.13-.06.23-.13.23-.14,0,0,0-.01,0-.02,0,0-.01,0-.02,0,0,0-.36.26-.64.19.01-.01.06-.05.1-.07.15-.06.42-.22.56-.3-.04.04-.06.08-.05.1,0,0,0,.02.02.02.07.01.21-.03.32-.1.2.15.23.43.22.5,0,.03,0,.06-.19.08ZM15.86,7.22s0-.04.01-.07c0-.06.02-.13.03-.21h0c0-.06,0-.12,0-.19,0,0,0-.01-.01-.01s-.01,0-.01.01c0,.06,0,.12,0,.18-.03.07-.08.16-.15.2.02-.14.12-.46.12-.46,0,0,0-.01,0-.02,0,0-.01,0-.02,0l-.07.1v-.06s.03-.04.03-.06c0,0,0-.14-.05-.28,0-.05.02-.11.03-.14.03.03.13.11.24.14.07.02.13.07.18.14,0,.04-.01.42-.03.53,0,0,0,0,0,0,.02.09.03.13.03.15-.12-.11-.13-.16-.14-.2h0s0-.02-.01-.02c0,0-.01,0-.01,0-.04.12-.1.21-.14.25,0,0,0,0,0,0,0,0,0,0-.01.01ZM16.41,7.24s.01,0,.01,0c.02,0,.03-.02.04-.03,0,.06,0,.13-.01.15,0,0-.04,0-.07,0-.05,0-.13,0-.18.03l-.07-.04s-.04-.04-.04-.07v-.14s.05.05.08.07c0,0,0,0,.01,0,0,0,0,0,.01-.01,0-.04,0-.07-.03-.18.02-.1.03-.38.03-.49.02.04.05.08.07.12v.02c.08.13.16.4.13.55,0,0,0,.01,0,.01ZM16.15,7.59s-.02-.03-.03-.05c.01-.01.02-.02.03-.03,0,.03,0,.05,0,.08ZM16.16,7.48s0,0,0,.01c-.01,0-.04.02-.06.05,0,0,0,.01,0,.02.03.03.05.06.04.1,0,.05-.04.09-.05.1,0,0,0,0,0,0-.03.04,0,.07.01.1,0,0,0,.01.01.02-.04,0-.04-.03-.06-.07,0,0,0-.01,0-.02,0,0,0,0,0,0-.05-.02-.06-.06-.08-.16v-.02s-.01-.01-.02-.01-.01,0-.01.01c0,.16-.13.16-.14.16,0,0,0,0-.01,0,0,0,0,0,0,.01v.08s-.04-.06-.03-.12c0,0,0,0,0,0-.03-.04-.02-.08.07-.17,0,0,0-.01,0-.02,0,0-.01,0-.02,0-.11.11-.26.09-.28.08h0s-.02,0-.05.05c0-.21.14-.22.25-.23.03,0,.06,0,.08-.01.08-.03.12-.17.12-.19.04-.04.09-.12.13-.22,0,.02.02.05.05.09v.17s.02.08.05.1l.06.03s-.03.04-.03.07ZM16.72,7.31s0,0,0,0c0,0,0,0,0,0,.09,0,.15.01.17.04.01.01.02.03.01.05-.06-.06-.11-.06-.13-.05-.02,0-.03.02-.04.05,0,0,0,.01,0,.01.07.06.11.12.09.17-.01.04-.04.07-.07.08,0,0,0,0,0,0,0-.03,0-.06-.01-.07,0,0,0,0-.01,0-.07,0-.09-.03-.11-.07,0,0,0-.02-.01-.02-.01-.02-.03-.03-.04-.03-.02,0-.04.02-.05.03,0,0,0,0,0,.01.01.07,0,.13-.02.17-.02.03-.05.04-.06.04,0,0-.01,0-.01.01,0,.03,0,.07.02.11-.01,0-.02,0-.03-.01-.02-.02-.03-.07-.03-.11,0,0,0,0,0,0-.03-.05-.03-.09,0-.17,0,0,0-.01,0-.02,0,0-.01,0-.02,0-.03.07-.12.09-.15.08,0,0,0,0,0,0-.02,0-.02.02-.01.06v.02s-.05-.09-.03-.21c.02-.1.13-.1.2-.1.05,0,.07,0,.09-.01.03-.04.02-.16.01-.19.04-.05.06-.12.07-.17.04.08.08.13.12.17-.01.09.01.11.04.13ZM16.89,6.98s.03.03.04.04c-.04,0-.08-.03-.12-.06-.02-.02-.04-.03-.06-.04,0,0,0,0-.01,0,0,0,0,0,0,0-.02.07.05.19.1.28,0,.01.01.02.02.03-.14-.03-.19-.09-.29-.28,0,0,0,0-.01,0s-.01,0-.01.01c0,.05-.02.14-.07.2-.01.01-.02.02-.03.03.02-.16-.06-.41-.13-.54v-.02c-.04-.05-.07-.11-.1-.16,0,0,0,0,0,0-.05-.07-.11-.13-.2-.15-.14-.03-.24-.14-.24-.14,0,0,0,0-.01,0s0,0,0,0c0,0-.03.06-.04.12-.04-.07-.09-.14-.17-.2,0,0-.01,0-.01,0-.11.07-.25.11-.31.1h0s.06-.1.16-.18h0s.06-.07.06-.07c0,0,0,0,0-.01s0,0,0,0-.05-.03-.09-.1c0,0,0,0,0,0-.04-.07-.06-.19.02-.36,0,0,0-.01,0-.02,0,0-.01,0-.02,0-.01.03-.02.06-.03.09-.14.21-.45.36-.69.4-.15.03-.27.02-.35-.02.07-.03.21-.1.38-.22.02-.01.05-.03.07-.05,0,0,0-.01,0-.02,0,0-.01,0-.02,0-.02.01-.04.03-.06.04-.2.12-.46.12-.56.11.08-.06.32-.21.41-.25.03,0,.16.05.31-.02-.04.06-.04.08-.04.09,0,0,0,.01.01.01h.12s.01,0,.01-.01c0,0,0-.01-.01-.01h-.1s.02-.05.06-.1c0,0,0-.01,0-.02s-.01,0-.02,0c-.14.08-.27.05-.31.04.01-.01.04-.03.07-.07,0,0,0-.01,0-.02,0,0,0,0-.01,0-.13.03-.27,0-.34-.03,0,0,0,0,0,0,.04-.01.09-.04.1-.04,0,0,0,0,0-.01,0,0,0,0-.01-.01-.13-.02-.3-.06-.46-.13-.09-.04-.18-.1-.27-.19l-.02-.02c-.05-.05-.12-.12-.15-.18,0-.02,0-.03,0-.03,0,0,0,0,.02,0,.02.01.16.07.32.14.3.13.67.29.71.31.04.01.14.03.27.04.1.01.22.03.32.04.12.02.2.05.25.07,0,0,0,0,0,0h0s0,0,0,0c.03.01.05.02.05.02,0,0,.01,0,.02,0,0,0,0-.01,0-.02,0,0-.02-.01-.05-.03.01-.06.09-.38.31-.48.12-.05.24-.07.36-.06.05,0,.19.03.22.09,0,0,0,.01.01.01,0,0,.23,0,.28.1.01.02.01.04,0,.06-.01.03-.04.06-.07.08,0-.02,0-.05-.01-.07-.01-.02-.04-.03-.06-.03-.04,0-.14,0-.16-.04,0,0-.01,0-.02,0s0,.01,0,.02c.01.02.04.04.11.04-.04,0-.08.01-.1.02-.03.01-.07.04-.1.11-.01.04-.02.11.01.2-.05-.05-.07-.11-.07-.11,0,0-.01,0-.02,0,0,0-.01.01,0,.02,0,0,.05.09.14.16.02.01.04.03.06.04.13.07.24.24.27.31.03.06.05.25.06.4,0,0,0,.01.01.01,0,0,.01,0,.01-.01,0-.09-.02-.24-.04-.34.1.08.39.34.59.47.07.07.15.15.23.22.02.02.02.02.03.03,0,0,0,0-.03,0-.03,0-.06,0-.09-.01-.06-.02-.12-.05-.18-.07-.02-.01-.04-.02-.05-.03-.08-.04-.16-.11-.22-.17-.04-.05-.09-.1-.09-.11,0,0-.01,0-.02,0,0,0,0,.01,0,.02,0,0,.04.05.1.11.01.02.02.03.03.05.01.02.04.06.08.1.04.04.09.1.11.13-.2.03-.54-.31-.55-.31,0,0-.01,0-.02,0,0,0,0,.01,0,.02,0,0,.06.06.14.12.07.09.08.13.1.19.01.03.02.07.05.13.05.11.12.18.16.22ZM17.81,6.86s-.01.01-.01.01c-.03,0-.46-.04-.64-.21,0,0-.01,0-.02,0,0,0,0,.01,0,.02.12.13.3.24.33.26,0,.01.01.02,0,.03,0,0-.01.02-.07.02-.06,0-.28-.07-.42-.19,0,0-.01,0-.02,0,0,0,0,.01,0,.02h0c.06.06.13.12.13.14,0,0,0,0-.02,0-.08,0-.19-.04-.29-.15h0s-.02-.04-.03-.06c-.02-.06-.04-.1-.05-.13-.02-.05-.03-.08-.06-.13.11.08.23.15.34.15.02,0,.03,0,.05,0,0,0,0,0,0-.01,0-.03-.05-.09-.12-.16-.01-.01-.02-.02-.03-.04.04.03.09.06.13.08.02,0,.04.02.06.03.06.03.12.06.18.07.03,0,.06.02.1.02.02,0,.05,0,.05-.02,0-.02-.01-.03-.03-.06-.05-.05-.11-.1-.16-.15.01,0,.02.01.03.01.03.01.05.02.08.03.02.02.18.16.35.28.14.1.14.14.14.15ZM17.99,6.63c-.16.08-.35.03-.37.02-.11-.08-.2-.16-.25-.2.03,0,.07.01.1.02t0,0s.2.1.44.11c.04.02.07.03.08.05ZM18.29,6.43c-.32.03-.58-.06-.58-.06,0,0-.01,0-.02,0,0,0,0,.01,0,.02,0,0,.15.05.35.07,0,0,0,0,0,0,.06.02.12.04.13.06-.27.09-.54,0-.65-.05,0,0,.01,0,.02,0,.08,0,.14-.01.15-.02,0,0,0,0,0-.01,0,0,0-.01,0-.01-.02-.02-.09-.05-.18-.1-.15-.08-.38-.2-.55-.31.25.15.64.33.98.33.07,0,.14,0,.21-.03t0,0s.03-.02.02-.03c0,0,0,0,0,0,.2-.01.38-.03.53-.05-.05.05-.2.17-.44.19Z"/>
          <path class="cls-1" d="M16.19,6.23s-.03-.03-.04-.04c-.04-.04-.04-.11-.04-.11,0,0,0-.01-.01-.01,0,0-.01,0-.01.01,0,0,0,.08.04.13.01.01.03.03.05.04.06.05.15.14.16.21,0,0,0,.01.01.01h0s.01,0,.01-.01c-.01-.08-.1-.17-.17-.23Z"/>
          <path class="cls-1" d="M16.04,4.88s-.1,0-.17.02c-.03.01-.06.02-.08.02,0,0,0,0,0,0,0,0,0,.01,0,.01,0,0,.11.03.17.03.02,0,.03,0,.04,0,.04-.02.05-.04.06-.05,0-.02,0-.03-.02-.04ZM15.99,4.95s-.1,0-.15-.01c.01,0,.02-.01.04-.01.05-.02.12-.04.14-.02,0,0,0,.01,0,.02,0,.01-.02.02-.04.03Z"/>
        </g>
      </g>
    </g>
  </g>
</svg>