<?xml version="1.0" encoding="UTF-8"?>
<svg id="Layer_1" data-name="Layer 1" xmlns="http://www.w3.org/2000/svg" viewBox="0 0 24 24">
  <defs>
    <style>
      .cls-1 {
        fill: #000;
      }

      .cls-1, .cls-2, .cls-3, .cls-4, .cls-5, .cls-6 {
        stroke-width: 0px;
      }

      .cls-2 {
        fill: none;
      }

      .cls-3 {
        fill: #d30201;
      }

      .cls-4 {
        fill: #fed117;
      }

      .cls-5 {
        fill: #006306;
      }

      .cls-6 {
        fill: #fff;
      }
    </style>
  </defs>
  <rect class="cls-2" width="24" height="24"/>
  <g>
    <path class="cls-1" d="M16.71,7.34c2.92,2.92,3.18,7.42.57,10.03-2.61,2.61-7.11,2.35-10.03-.57-2.92-2.92-3.18-7.42-.57-10.03,2.61-2.61,7.11-2.35,10.03.57Z"/>
    <g>
      <g>
        <g>
          <path class="cls-4" d="M20.13,15.86c-.1.22-.22.43-.34.64-.23.39-.49.77-.77,1.13-.23.28-.47.55-.73.8H5.74l3.41-2.57h10.98Z"/>
          <path class="cls-3" d="M20.91,13.29s0,.07-.01.1c-.02.12-.04.23-.06.34,0,.02,0,.04-.01.05h0s0,.04,0,.05c-.15.71-.38,1.39-.68,2.02h-10.98l3.41-2.57h8.34Z"/>
          <path class="cls-5" d="M18.29,18.43c-1.62,1.59-3.84,2.57-6.29,2.57s-4.66-.97-6.28-2.56h.02s12.56-.01,12.56-.01Z"/>
          <path class="cls-4" d="M20.13,8.14h-10.98l-3.41-2.57h12.56c.26.25.5.52.73.8.29.35.54.73.77,1.13.12.21.23.42.34.64Z"/>
          <path class="cls-3" d="M20.91,10.72h-8.34l-3.41-2.57h10.98c.27.57.49,1.18.63,1.81,0,0,0,.02,0,.03,0,0,0,.01,0,.02.05.21.09.41.12.63,0,0,0,.01,0,.02s0,.01,0,.02c0,.01,0,.03,0,.04Z"/>
          <path class="cls-5" d="M18.3,5.57H5.72c1.62-1.6,3.84-2.57,6.28-2.57s4.67.98,6.3,2.57Z"/>
          <path class="cls-1" d="M21,12s0,.09,0,.14c0,0,0,.02,0,.03v.03h0v.03c-.01.35-.04.71-.09,1.05,0,0,0,0,0,.01h-8.34l1.71-1.29-1.71-1.28h8.34c.05.35.08.7.09,1.06v.04c0,.06,0,.12,0,.18Z"/>
        </g>
        <g>
          <path class="cls-1" d="M14.27,12l-1.71,1.29-3.41,2.57-3.41,2.57h-.02c-.11-.09-.21-.2-.32-.31l3-2.26,3.41-2.57,1.71-1.29-1.71-1.28-3.41-2.57-3-2.26c.1-.11.21-.22.32-.33h.02s3.41,2.59,3.41,2.59l3.41,2.57,1.71,1.28Z"/>
          <path class="cls-6" d="M13.53,12l-1.71,1.29-3.41,2.57-3,2.26c-.15-.16-.29-.32-.43-.49-.28-.36-.54-.73-.77-1.13-.45-.79-.79-1.64-.99-2.56v-.05s-.02-.03-.02-.05c-.07-.33-.12-.66-.15-1,0-.03,0-.06,0-.09h0c-.01-.17-.02-.35-.03-.53,0,0,0-.01,0-.02,0,0,0-.01,0-.02,0-.04,0-.09,0-.13,0,0,0-.01,0-.02v-.03c0-.06,0-.12,0-.18,0,0,0-.01,0-.02,0,0,0-.01,0-.02,0-.18.01-.36.03-.54,0,0,0-.02,0-.02s0-.02,0-.02c0-.06.01-.12.02-.18,0-.01,0-.02,0-.03h0s0-.02,0-.02c0-.06.01-.12.02-.18.02-.16.05-.33.08-.49.19-1,.55-1.94,1.04-2.79.23-.39.49-.77.77-1.13.14-.17.28-.34.43-.49l3,2.26,3.41,2.57,1.71,1.28Z"/>
        </g>
      </g>
      <g>
        <path class="cls-3" d="M7.8,12.23l.84,2.59-1.41-1.02h0l-.05-.04h0l-.54-.39h0l-.04-.03-.2-.15-.02-.02-.06-.04-.04-.03-.02-.02-.02.02h0l-.04.03-.07.05-.02.02-.17.13-.08.06h0l-.28.2-.02.02-.23.17-.04.03-1.4,1.01.91-2.8-1.71-1.24c.02-.16.05-.33.08-.49h2.19l.04-.14h0s.03-.09.03-.09h0s.32-.98.32-.98v-.03s.52-1.57.52-1.57l.91,2.8h2.94l-1.92,1.4-.02.02-.2.14h0l-.03.02-.21.15.05.17h0v.04Z"/>
        <g>
          <path class="cls-4" d="M8.34,11.8s-.07-.05-.14-.11c-.32-.25-1.06-.83-1.18-.92-.17-.13-.86-.67-.86-.67,0,0,0,0-.01,0,0,0,0,0-.02.01v-.08c-.05-.22-.09-.46-.14-.68-.03-.14-.09-.22-.2-.27,0,0-.02,0-.03-.01-.09-.04-.21-.04-.31-.02-.03,0-.06.02-.08.03-.03.02-.06.03-.09.03-.3.04-.32.12-.32.25,0,0,0,.01,0,.01,0,0,0,0,.01,0,.22-.05.31-.02.34,0,0,0,0,.01.01.02-.07,0-.21.02-.23.06,0,0,0,.01,0,.02,0,.03.05.04.12.07.05.02.12.04.15.07.05.04.06.24.05.55h0c0,.06,0,.13,0,.2v.08c0,.16,0,.32,0,.46-.03.07-.05.13-.07.19-.07.23.07.52.09.57-.03.03-.14.17-.21.25-.08.09-.17.24-.17.32,0,.06-.02.1-.04.14,0,.01-.01.03-.02.04,0,0,0,.01,0,.02-.03.07-.09.2,0,.26.02.07.26.85.3,1.11,0,0,0,0,0,0h0s0,0,.01,0c.09-.02.19-.03.3-.04h0c.37-.05,1.04-.09,1.65.03h0c.07.01.13.03.2.05h0s0,0,0,0c0,0,0,0,0-.01,0-.06.01-.22.04-.43,0-.07.02-.14.03-.22h0s.01-.08.02-.11c.02-.08.03-.15.05-.23.05-.2.11-.39.18-.55.01-.02.02-.05.03-.07.06-.13.13-.25.21-.34.17.04.32.07.34.07.02,0,.03,0,.04-.03,0-.01.02-.06-.06-.13Z"/>
          <g>
            <path class="cls-1" d="M5.51,9.16s-.08.04-.08.08.04.08.08.08.08-.04.08-.08-.04-.08-.08-.08ZM5.51,9.29s-.05-.02-.05-.05.02-.05.05-.05.05.02.05.05-.02.05-.05.05Z"/>
            <path class="cls-1" d="M8.34,11.8s-.07-.05-.14-.11c-.32-.25-1.06-.83-1.18-.92-.17-.13-.86-.67-.86-.67,0,0,0,0-.01,0,0,0,0,0-.02.01v-.08c-.05-.22-.09-.46-.14-.68-.03-.14-.09-.22-.2-.27,0,0-.02,0-.03-.01-.09-.04-.21-.04-.31-.02-.03,0-.06.02-.08.03-.03.02-.06.03-.09.03-.3.04-.32.12-.32.25,0,0,0,.01,0,.01,0,0,0,0,.01,0,.22-.05.31-.02.34,0,0,0,0,.01.01.02-.07,0-.21.02-.23.06,0,0,0,.01,0,.02,0,.03.05.04.12.07.05.02.12.04.15.07.05.04.06.24.05.55h0c0,.06,0,.13,0,.2v.08c0,.16,0,.32,0,.46-.03.07-.05.13-.07.19-.07.23.07.52.09.57-.03.03-.14.17-.21.25-.08.09-.17.24-.17.32,0,.06-.02.1-.04.14,0,.01-.01.03-.02.04,0,0,0,.01,0,.02-.03.07-.09.2,0,.26.02.07.26.85.3,1.11,0,0,0,0,0,0h0s0,0,.01,0c.09-.02.19-.03.3-.04h0c.37-.05,1.04-.09,1.65.03h0c.07.01.13.03.2.05h0s0,0,0,0c0,0,0,0,0-.01,0-.06.01-.22.04-.43,0-.07.02-.14.03-.22h0s.01-.08.02-.11c.02-.08.03-.15.05-.23.05-.2.11-.39.18-.55.01-.02.02-.05.03-.07.06-.13.13-.25.21-.34.17.04.32.07.34.07.02,0,.03,0,.04-.03,0-.01.02-.06-.06-.13ZM5.37,9.59s-.11-.05-.16-.07c-.04-.01-.09-.03-.1-.05.02-.01.13-.04.22-.04,0,0,.01,0,.01-.02,0,0,0-.02-.03-.05-.04-.03-.13-.06-.34-.02,0-.1.02-.16.29-.2.03,0,.07-.02.1-.04.03-.01.05-.02.08-.03.1-.02.21-.02.29.02,0,0,.02,0,.02,0,.1.05.16.12.19.25.05.23.08.46.12.68v.09s-.12.09-.27.2c-.2.16-.33.37-.39.52,0-.13,0-.26,0-.4v-.08c0-.11,0-.2,0-.29h0c0-.27,0-.43-.06-.48ZM5.32,13.78s-.01,0-.02,0c-.04-.25-.25-.92-.29-1.07h0l.04.02s.02.01.02.01h0s.05.02.08.04c.01,0,.02,0,.03.01.01,0,.03.01.05.02.02,0,.03.02.04.02,0,0,.01,0,.02,0,0,0,.02,0,.03,0,0,0,0,.02,0,.03.03.08.05.15.07.22,0,.03.02.06.03.09.02.08.04.16.06.23.02.07.03.14.04.2,0,.05.02.09.02.13-.09.01-.17.02-.25.04ZM7.35,13.04c-.11,0-.21-.01-.32-.02l.17-.19.15.21ZM7.23,12.82c.1,0,.21.02.32.03l-.17.18-.15-.21ZM7,13.01l-.14-.2c.1,0,.2,0,.31.01l-.17.19ZM6.97,13.02c-.1,0-.2,0-.3-.01l.16-.19.14.2ZM6.65,13l-.15-.2c.11,0,.21,0,.31,0l-.16.19ZM6.62,13.01c-.11,0-.23,0-.34,0l.18-.2.16.2ZM6.26,13l-.16-.19c.11,0,.22,0,.33,0l-.18.2ZM6.23,13.01c-.11,0-.22,0-.32.01l.17-.21.16.19ZM5.87,13.02l-.16-.19c.1,0,.21-.01.33-.02l-.17.21ZM5.84,13.03c-.12,0-.23.02-.35.03l.19-.22.16.19ZM5.46,13.06s-.01,0-.02,0c-.02-.06-.04-.13-.06-.2.06,0,.16-.02.28-.03l-.2.23ZM7.02,13.34l-.17-.2c.1,0,.21,0,.31.01l-.15.19ZM7.19,13.17l.12.2c-.09,0-.18-.01-.27-.02l.14-.19ZM6.99,13.35c-.11,0-.21,0-.32-.01l.15-.19.17.2ZM6.64,13.33l-.17-.2c.11,0,.21,0,.32,0l-.15.2ZM6.62,13.34h0c-.11,0-.21,0-.32,0l.12-.15.04-.05.17.2ZM6.38,13.18l-.12.16-.13-.15-.04-.04s.07,0,.11,0c.04,0,.08,0,.13,0h.09l-.03.04ZM6.11,13.2l.12.14c-.11,0-.21,0-.32.01l.02-.03.13-.18.04.05ZM5.89,13.35l-.15-.19c.1,0,.19-.01.29-.02l-.15.21ZM5.86,13.36c-.11,0-.22.02-.32.03l.17-.21.15.19ZM5.53,13.37c-.02-.06-.03-.12-.05-.18.07,0,.14-.02.21-.02l-.16.2ZM7.43,13.81c-.08-.02-.16-.04-.24-.05h0c-.59-.11-1.22-.07-1.59-.02,0-.04-.01-.09-.02-.15-.01-.05-.02-.11-.04-.18.1-.01.2-.02.31-.03h0s.02,0,.03,0c.24-.01.5-.02.76-.02h0c.12,0,.25,0,.37.01.11,0,.22.01.32.02.04,0,.08,0,.12.01-.02.19-.03.34-.04.4ZM7.47,13.38s-.06,0-.1,0l.12-.15c0,.05-.02.11-.02.15ZM7.34,13.36l-.12-.2c.09,0,.18.01.27.02l-.15.18ZM7.5,13.15c-.1,0-.21-.02-.31-.02-.13,0-.25-.01-.37-.02-.12,0-.24,0-.37,0h0c-.05,0-.11,0-.16,0h-.05c-.06,0-.12,0-.18,0h0c-.12,0-.23.01-.35.02h0c-.08,0-.17.02-.25.02,0-.02-.01-.05-.02-.07,0,0,.01,0,.02,0,.13-.02.26-.03.41-.04.36-.02.74-.02,1.12,0h0s0,0,0,0c.13,0,.25.01.38.02h.01s.08,0,.12.01c0,.02-.01.05-.01.07ZM7.52,13.05s-.07,0-.11,0l.14-.16c-.01.05-.02.11-.03.17ZM7.57,12.82c-.13-.01-.25-.02-.37-.03h0c-.13,0-.25-.01-.36-.02h0c-.12,0-.24,0-.37,0h0c-.13,0-.26,0-.39,0-.14,0-.27.01-.38.02h0c-.14.01-.25.02-.32.03,0-.01,0-.02,0-.03.03-.03.06-.08.07-.14.04-.13.06-.14.12-.18h0s.14-.09.27-.17c.11-.07.24-.15.34-.21.37.01,1.07.05,1.57.19-.07.15-.12.33-.17.52ZM7.79,12.19h0s-.03.06-.04.08c-.49-.13-1.15-.17-1.54-.18.02-.01.04-.02.05-.03.08-.05.16-.09.23-.13.06-.03.12-.06.15-.08.04,0,.09,0,.14,0h.04s.06,0,.09,0c.02,0,.03,0,.05,0h.06s.06,0,.08,0c0,0,0,0,0,0,.03,0,.05-.02.08-.05h0s.04-.04.07-.07c0-.01.01-.02.02-.03.19.06.34.1.41.12.08.02.17.05.25.06.01,0,.03,0,.04,0-.07.09-.13.19-.19.31ZM7.06,11.67l.04.04s-.02.03-.04.05l-.04-.04s.03-.04.04-.05ZM7.04,11.61h.02s0,.01,0,.02l-.02-.02ZM7.24,11.71s-.03.04-.04.05l-.05-.05s.02-.03.03-.05l.06.05ZM7.23,11.67s.02,0,.03.01c0,0,0,0,0,.01l-.02-.02ZM7.17,11.78s-.04.02-.05.03l-.03-.03.04-.05.05.05ZM7.12,11.69l-.04-.04s.01-.01.02-.02c.02,0,.04.01.05.02-.01.01-.02.03-.03.04ZM7.08,11.81s-.01,0-.02,0c0,0,0,0,.01-.01h.01ZM6.89,11.73s.03-.04.04-.05l.06.05s-.03.04-.04.06l-.05-.05ZM6.92,11.81s0,0,0,.01h-.09s.03-.04.04-.06l.05.05ZM7.01,11.75l.04.04s-.02.02-.02.03h-.06s.03-.05.05-.07ZM7,11.71l-.06-.05s.03-.04.04-.06h0l.06.06s-.03.03-.04.05ZM6.92,11.64l-.05-.05s.01-.02.02-.02c.02,0,.04.02.07.02h0s-.02.03-.04.05ZM6.91,11.66s-.03.04-.04.05l-.06-.05s.03-.03.04-.05l.05.05ZM6.85,11.57l-.03-.02h.04s0,.02-.01.02ZM6.83,11.59s-.03.03-.04.05h-.01s0-.07,0-.1l.06.05ZM6.79,11.68l.06.06s-.03.03-.04.05l-.06-.06s0-.01,0-.02c.01,0,.02-.02.03-.03ZM6.79,11.81s0,0,0,0c-.04,0-.07,0-.1,0,.02-.02.04-.03.05-.06l.05.05ZM8.37,11.92s0,.01-.01.01c-.02,0-.17-.03-.35-.07-.01,0-.02,0-.03,0h0c-.08-.02-.18-.04-.27-.07-.07-.02-.22-.06-.41-.12-.02,0-.05-.01-.07-.02h-.05s-.05-.03-.07-.03l-.1-.03h-.01s-.02-.01-.02-.01l-.08-.02-.12-.04s0,0,0,0c0,0,0,0-.01,0-.21-.06-.38-.12-.51-.16s-.2-.07-.23-.08c-.07-.03-.15-.12-.17-.21,0-.07.02-.14.09-.19,0,0,0-.01,0-.02,0,0-.01,0-.02,0-.09.08-.11.16-.1.22.01.11.11.2.18.23.06.03.48.16.73.23,0,.04.01.08.01.11,0,.02,0,.05-.01.07h0s0,.02-.01.03c-.02.03-.04.06-.07.08,0,0,0,0-.01.01-.03.03-.09.05-.15.08-.07.04-.15.07-.24.13-.03.02-.06.04-.09.06-.1.06-.23.14-.34.21-.13.08-.24.15-.27.17h0c-.06.04-.08.06-.13.19-.03.08-.06.12-.07.14-.02.01-.03.01-.03.01,0,0-.03-.02-.04-.02,0-.02.04-.12.08-.2,0,0,0-.02,0-.02,0,0-.02,0-.02,0-.05.11-.07.17-.08.2-.01,0-.03-.01-.04-.01,0,0-.01,0-.02,0,0-.02.03-.12.07-.2,0,0,0-.01,0-.02,0,0-.02,0-.02,0-.02.05-.06.15-.07.2-.02-.01-.04-.02-.05-.03,0-.02.02-.08.05-.13.03-.07.06-.15.06-.19,0-.05.11-.17.17-.23.02-.02.04-.04.05-.05.04-.05.45-.52.45-.53,0,0,0,0,0,0v-.24s0-.01-.01-.01-.01,0-.01.01v.23c-.04.05-.42.48-.45.53,0,.01-.03.03-.05.05-.07.07-.18.19-.18.25,0,.04-.03.11-.06.18-.03.06-.04.11-.05.13,0,0,0,0,0,0l-.04-.02s.02-.15.04-.21c0,0,0-.02,0-.02,0,0-.01,0-.02,0,0,.02-.06.13-.05.21h0c-.07-.04-.04-.13,0-.23,0,0,0-.01,0-.02,0-.01.01-.03.02-.04.02-.04.04-.08.04-.15,0-.08.09-.21.17-.31.07-.09.21-.25.21-.25,0,0,0,0,0-.01,0,0-.16-.32-.1-.56.02-.06.04-.13.07-.19h0c.06-.14.19-.39.41-.56.15-.12.24-.18.29-.21.01,0,.02-.01.03-.02.07.06.69.54.85.66.12.09.85.66,1.18.92.08.06.13.1.15.12.05.04.06.08.05.09Z"/>
            <path class="cls-1" d="M6.24,12.26c-.11,0-.21.09-.21.2s.09.2.21.2.2-.09.2-.2-.09-.2-.2-.2ZM6.24,12.64c-.1,0-.18-.08-.18-.18s.08-.18.18-.18.18.08.18.18-.08.18-.18.18Z"/>
            <path class="cls-1" d="M7.08,12.29c-.11,0-.21.09-.21.2s.09.2.21.2.2-.09.2-.2-.09-.2-.2-.2ZM7.08,12.68c-.1,0-.18-.08-.18-.18s.08-.18.18-.18.18.08.18.18-.08.18-.18.18Z"/>
          </g>
        </g>
      </g>
    </g>
  </g>
</svg>