<?xml version="1.0" encoding="UTF-8"?>
<svg id="Layer_1" data-name="Layer 1" xmlns="http://www.w3.org/2000/svg" xmlns:xlink="http://www.w3.org/1999/xlink" viewBox="0 0 661.47 311.03">
  <defs>
    <style>
      .cls-1 {
        fill: url(#linear-gradient);
      }

      .cls-1, .cls-2, .cls-3 {
        stroke-width: 0px;
      }

      .cls-2 {
        fill: #84f4d4;
      }

      .cls-3 {
        fill: url(#linear-gradient-2);
      }

      .cls-4 {
        letter-spacing: -.06em;
      }

      .cls-5 {
        font-family: Poppins-Bold, Poppins;
        font-size: 34.84px;
        letter-spacing: .34em;
      }

      .cls-5, .cls-6 {
        fill: #213555;
        font-weight: 700;
      }

      .cls-7 {
        letter-spacing: 0em;
      }

      .cls-6 {
        font-family: Quicksand-Bold, Quicksand;
        font-size: 138.61px;
      }
    </style>
    <linearGradient id="linear-gradient" x1="500.86" y1="96.47" x2="473.07" y2="144.61" gradientUnits="userSpaceOnUse">
      <stop offset=".25" stop-color="#213555"/>
      <stop offset="1" stop-color="#142033"/>
    </linearGradient>
    <linearGradient id="linear-gradient-2" x1="612.19" y1="5.37" x2="479.37" y2="235.41" xlink:href="#linear-gradient"/>
  </defs>
  <g>
    <path class="cls-1" d="M506.62,118.64c0-15.01-10.18-27.68-23.99-31.49v62.97c13.81-3.81,23.99-16.48,23.99-31.49Z"/>
    <path class="cls-2" d="M441.29,118.64c0,15.01,10.18,27.68,23.99,31.49v-62.97c-13.81,3.81-23.99,16.48-23.99,31.49Z"/>
    <path class="cls-3" d="M482.63,69.39c23.46,4.12,41.34,24.64,41.34,49.25s-17.88,45.14-41.34,49.25v69.39h113.31c14.34,0,26.01-11.67,26.01-26.01v-31.06h-54.92c-4.79,0-8.67-3.88-8.67-8.67v-105.8c0-4.79,3.88-8.67,8.67-8.67h54.92v-31.06c0-14.34-11.67-26.01-26.01-26.01h-113.31v69.39Z"/>
    <path class="cls-2" d="M465.29,167.9c-23.46-4.12-41.34-24.64-41.34-49.25s17.88-45.13,41.34-49.25V0h-113.31c-14.34,0-26.01,11.67-26.01,26.01v31.06h54.81c4.79,0,8.67,3.88,8.67,8.67v105.8c0,4.79-3.88,8.67-8.67,8.67h-54.81v31.06c0,14.34,11.67,26.01,26.01,26.01h113.31v-69.39Z"/>
  </g>
  <text class="cls-6" transform="translate(0 165.1)"><tspan class="cls-4" x="0" y="0">T</tspan><tspan x="78.45" y="0">rip</tspan><tspan class="cls-7" x="258.37" y="0">l</tspan><tspan x="294.4" y="0" xml:space="preserve">e     F</tspan></text>
  <text class="cls-5" transform="translate(3.79 289.92)"><tspan x="0" y="0">Football Future Finder </tspan></text>
</svg>