<svg width="38" height="40" viewBox="0 0 38 40" xmlns="http://www.w3.org/2000/svg">
    <g fill="#FFF" fill-rule="nonzero">
        <path d="M38 30.588C33.7 36.293 26.784 40 19 40c-7.784 0-14.7-3.707-19-9.412 1.725-4.73 5.242-8.626 9.75-10.906a13.478 13.478 0 0 0 4.01 2.568A13.62 13.62 0 0 0 19 23.286a13.62 13.62 0 0 0 5.24-1.036 13.406 13.406 0 0 0 4.01-2.568c4.51 2.282 8.025 6.177 9.75 10.908v-.002z"/>
        <path d="M29.336 10.113c0 5.585-4.629 10.114-10.336 10.114-5.707 0-10.336-4.529-10.336-10.114C8.664 4.53 13.291 0 19 0c5.71 0 10.336 4.529 10.336 10.113z"/>
    </g>
</svg>
