<svg id="Capa_1" enable-background="new 0 0 512.013 512.013" height="512" viewBox="0 0 512.013 512.013" width="512" xmlns="http://www.w3.org/2000/svg"><g id="Feedback"><g><path d="m219.583 292.409c-4.729-4.729-6.781-11.507-5.47-18.064l11.767-58.835c2.331-11.654 8.005-22.256 16.409-30.659l167.285-167.284c23.394-23.395 61.459-23.395 84.853 0 23.448 23.448 23.451 61.402 0 84.853l-167.284 167.283c-8.405 8.404-19.006 14.078-30.66 16.409l-58.835 11.767c-6.65 1.329-13.402-.807-18.065-5.47zm72.978-25.909h.01zm145.297-220.649-167.284 167.284c-2.801 2.801-4.692 6.335-5.469 10.22l-5.884 29.417 29.417-5.884c3.885-.777 7.419-2.668 10.221-5.47l167.283-167.283c7.816-7.816 7.818-20.466 0-28.284-7.816-7.817-20.466-7.817-28.284 0z"/></g><g><path d="m100 511.993c-11.046 0-20-8.954-20-20v-22.009c-45.587-9.292-80-49.699-80-97.991v-200c0-55.14 44.86-100 100-100h142.299c11.046 0 20 8.954 20 20s-8.954 20-20 20h-142.299c-33.084 0-60 26.916-60 60v200c0 33.084 26.916 60 60 60 11.046 0 20 8.954 20 20v16.551c13.05-4.674 24.231-13.918 31.618-26.611 3.582-6.154 10.165-9.94 17.286-9.94h243.096c33.084 0 60-26.916 60-60v-190.308c0-11.046 8.954-20 20-20s20 8.954 20 20v190.308c0 55.14-44.86 100-100 100h-232.414c-18.78 24.925-48.313 40-79.586 40z"/></g><g><path d="m380 391.993h-280c-11.046 0-20-8.954-20-20s8.954-20 20-20h280c11.046 0 20 8.954 20 20s-8.954 20-20 20z"/></g><g><path d="m140 311.993h-40c-11.046 0-20-8.954-20-20s8.954-20 20-20h40c11.046 0 20 8.954 20 20s-8.954 20-20 20z"/></g><g><path d="m140 231.993h-40c-11.046 0-20-8.954-20-20s8.954-20 20-20h40c11.046 0 20 8.954 20 20s-8.954 20-20 20z"/></g></g></svg>