<svg class="dark:custom_svg" width="512" height="512"  viewBox="0 0 512.013 512.013"><path d="M219.583 292.409a20 20 0 0 1-5.47-18.064l11.767-58.835a59.807 59.807 0 0 1 16.409-30.659L409.574 17.567c23.394-23.395 61.459-23.395 84.853 0 23.448 23.448 23.451 61.402 0 84.853L327.143 269.703a59.817 59.817 0 0 1-30.66 16.409l-58.835 11.767a20 20 0 0 1-18.065-5.47zm72.978-25.909h.01zM437.858 45.851 270.574 213.135a19.937 19.937 0 0 0-5.469 10.22l-5.884 29.417 29.417-5.884a19.938 19.938 0 0 0 10.221-5.47L466.142 74.135c7.816-7.816 7.818-20.466 0-28.284-7.816-7.817-20.466-7.817-28.284 0z"/><path d="M100 511.993c-11.046 0-20-8.954-20-20v-22.009c-45.587-9.292-80-49.699-80-97.991v-200c0-55.14 44.86-100 100-100h142.299c11.046 0 20 8.954 20 20s-8.954 20-20 20H100c-33.084 0-60 26.916-60 60v200c0 33.084 26.916 60 60 60 11.046 0 20 8.954 20 20v16.551c13.05-4.674 24.231-13.918 31.618-26.611a20 20 0 0 1 17.286-9.94H412c33.084 0 60-26.916 60-60V181.685c0-11.046 8.954-20 20-20s20 8.954 20 20v190.308c0 55.14-44.86 100-100 100H179.586c-18.78 24.925-48.313 40-79.586 40z"/><path d="M380 391.993H100c-11.046 0-20-8.954-20-20s8.954-20 20-20h280c11.046 0 20 8.954 20 20s-8.954 20-20 20zM140 311.993h-40c-11.046 0-20-8.954-20-20s8.954-20 20-20h40c11.046 0 20 8.954 20 20s-8.954 20-20 20zM140 231.993h-40c-11.046 0-20-8.954-20-20s8.954-20 20-20h40c11.046 0 20 8.954 20 20s-8.954 20-20 20z"/></svg>
