<svg id="Layer_33" viewBox="0 0 512 512" xmlns="http://www.w3.org/2000/svg" data-name="Layer 33"><path d="m374.08 90.77h25.23c11.62 0 21.07 9.45 21.07 21.07v31.84l-10.61-10.61c-3.4-3.41-7.93-5.28-12.75-5.28s-9.34 1.88-12.75 5.28c-3.4 3.4-5.28 7.93-5.28 12.75s1.88 9.34 5.28 12.75l32.35 32.36c5.89 5.89 13.72 9.14 22.05 9.14s16.16-3.24 22.05-9.14l31.72-31.73c3.4-3.41 5.28-7.93 5.28-12.75s-1.88-9.34-5.28-12.75c-3.4-3.4-7.93-5.28-12.74-5.28s-9.34 1.88-12.74 5.28l-10.61 10.61v-32.47c0-31.47-25.6-57.07-57.06-57.07h-25.23c-9.92 0-17.99 8.07-17.99 18s8.07 18 17.99 18z"/><path d="m138.02 421.43h-25.23c-11.62 0-21.07-9.45-21.07-21.07v-31.84l10.61 10.61c3.4 3.4 7.93 5.28 12.75 5.28s9.34-1.88 12.75-5.28c3.4-3.41 5.28-7.93 5.28-12.75s-1.88-9.34-5.28-12.75l-32.35-32.36c-5.89-5.89-13.72-9.14-22.05-9.14s-16.16 3.24-22.05 9.14l-31.72 31.73c-3.4 3.4-5.28 7.93-5.28 12.75s1.87 9.34 5.28 12.75c3.4 3.4 7.93 5.28 12.75 5.28s9.34-1.88 12.74-5.28l10.61-10.61v32.47c0 31.47 25.6 57.07 57.06 57.07h25.23c9.92 0 17.99-8.07 17.99-18s-8.07-18-17.99-18z"/><path d="m505.02 293.16c-.02-.08-.03-.16-.05-.24-7.34-33.17-38.39-63.14-72.22-69.73-17.52-3.49-62.63-7.44-93.04-7.18 4.25-21.51 6.37-43.75 6.41-67.94-.04-25.24-2.33-48.41-6.99-70.85-.02-.08-.03-.16-.05-.24-7.35-33.19-38.41-63.17-72.27-69.77-17.66-3.53-63.29-7.51-93.75-7.19-30.45-.32-76.09 3.66-93.74 7.18-33.87 6.59-64.93 36.58-72.28 69.77-.02.08-.04.16-.05.24-4.66 22.44-6.95 45.62-6.99 70.92.04 25.24 2.33 48.41 6.99 70.85.02.08.03.16.05.25 7.35 33.19 38.41 63.18 72.27 69.77 7.95 1.59 21.32 3.24 36.84 4.59.6.92 1.21 1.84 1.82 2.76 9.02 13.67 17.05 24.98 23.87 33.62 6.72 8.52 15.32 13.92 24.71 15.63-.29 6.04-.45 12.18-.46 18.43.04 25.21 2.33 48.37 6.98 70.8.02.08.03.16.05.25 7.34 33.17 38.39 63.14 72.24 69.73 17.65 3.52 63.26 7.49 93.68 7.17 1.14.01 2.3.02 3.48.02 30.33 0 73.24-3.81 90.21-7.2 33.84-6.6 64.88-36.56 72.22-69.73.02-.08.04-.16.05-.24 4.66-22.41 6.94-45.57 6.98-70.87-.04-25.22-2.33-48.38-6.98-70.81zm-361.98-27.96c-3.22-5.05-8.63-8.29-14.61-8.74-17.5-1.3-33.88-3.16-41.72-4.73-.04 0-.07-.01-.11-.02-18.91-3.67-38.32-22.24-42.45-40.59-4.17-20.12-6.13-40.16-6.17-62.99.04-22.9 2-42.94 6.17-63.06 4.12-18.35 23.53-36.92 42.45-40.59.04 0 .07-.01.11-.02 13.8-2.76 57-6.78 86.14-6.45h.42c29.11-.32 72.34 3.69 86.14 6.45.04 0 .07.01.11.02 18.92 3.67 38.33 22.24 42.45 40.59 4.17 20.12 6.13 40.16 6.17 62.99-.04 22.9-2 42.94-6.17 63.06-4.12 18.35-23.53 36.92-42.45 40.59-.04 0-.07.01-.11.02-7.84 1.57-24.22 3.42-41.73 4.73-5.98.45-11.39 3.69-14.61 8.74-2.07 3.26-4.3 6.69-6.63 10.21-8.45 12.79-15.85 23.23-22 31.04-.55.7-1.04 1.17-1.39 1.45-.35-.29-.84-.75-1.39-1.45-6.16-7.81-13.56-18.26-22-31.04-2.31-3.49-4.54-6.93-6.63-10.21zm324.82 161.78c-4.12 18.33-23.51 36.88-42.41 40.55-.04 0-.07.01-.11.02-13.79 2.76-56.99 6.76-86.08 6.45-.14 0-.28 0-.42 0-29.11.32-72.28-3.69-86.08-6.45-.03 0-.07-.01-.1-.02-18.9-3.67-38.29-22.22-42.41-40.55-4.16-20.11-6.12-40.14-6.16-62.94.02-12.63.68-24.82 1.94-36.3 6.42-8.32 13.85-18.86 22.12-31.38.61-.93 1.22-1.85 1.82-2.76 15.53-1.35 28.89-3 36.85-4.59 21.13-4.12 41.17-17.34 55.04-34.77 6.23-.2 11.93-.28 16.99-.23h.42c29.1-.32 72.28 3.69 86.08 6.45.04 0 .07.01.11.02 18.9 3.67 38.29 22.22 42.41 40.55 4.16 20.11 6.12 40.13 6.16 62.94-.04 22.89-2 42.92-6.16 63.01z"/><path d="m172.99 197.48c.37.31.73.61 1.09.91l42.74 35.15c2.84 2.34 6.43 3.62 10.1 3.62 4.77 0 9.25-2.11 12.28-5.79 2.71-3.29 3.98-7.43 3.57-11.67-.41-4.23-2.44-8.06-5.73-10.76l-24.88-20.46-16.07-13.22c17.67-19.55 31.87-41.92 42.26-66.61h13.19c8.77 0 15.91-7.14 15.91-15.91s-7.14-15.92-15.91-15.92h-62.63v-5.2c0-8.78-7.14-15.92-15.91-15.92h-.03c-8.77 0-15.91 7.14-15.91 15.92v5.2h-62.63c-8.77 0-15.91 7.14-15.91 15.92s7.14 15.91 15.91 15.91h108.89c-8.15 16.3-18.32 31.28-30.32 44.68-7.51-8.38-14.35-17.45-20.39-27.04-2.89-4.71-8.09-7.64-13.58-7.64-5.85 0-11.03 3.03-13.88 8.1-2.87 5.1-2.76 11.15.3 16.16 7.18 11.79 14.45 21.44 24.44 32.37l-40.93 33.67c-3.29 2.7-5.32 6.52-5.73 10.76s.86 8.38 3.56 11.66c3.04 3.69 7.52 5.8 12.29 5.8 3.67 0 7.26-1.29 10.1-3.62l42.74-35.15c.36-.29.72-.6 1.09-.91z"/><path d="m361.72 294.8c-3.41-9.49-12.48-15.87-22.56-15.87s-19.14 6.37-22.55 15.85l-47.34 131.34c-2.06 5.72-1.21 12.09 2.29 17.06s9.2 7.94 15.27 7.94c7.98 0 15.08-5.07 17.66-12.63l5.19-15.18h58.74l5.19 15.18c2.58 7.55 9.68 12.63 17.66 12.63 6.09 0 11.8-2.96 15.29-7.93 3.49-4.96 4.35-11.34 2.3-17.05l-47.15-131.33zm-6.08 92.6h-34.4l17.2-49.75z"/></svg>